<svg width="683" height="683" viewBox="0 0 683 683" fill="none" xmlns="http://www.w3.org/2000/svg">
<g clip-path="url(#clip0_931_7167)">
<path d="M26.9335 2.66793C24.5335 4.1346 21.6002 7.46793 20.4002 10.0013C18.2668 14.6679 18.4002 15.8679 32.5335 93.0679C48.4002 179.335 48.0002 177.868 57.2002 177.068C60.2668 176.801 62.5335 175.468 64.4002 173.068L66.9335 169.601L53.4668 96.2679C46.1335 56.0013 40.0002 22.4013 40.0002 21.4679C40.0002 20.4013 51.2002 20.0013 80.6668 20.0013H121.334L122 22.9346C122.267 24.6679 128.934 68.5346 136.8 120.668C145.2 177.335 151.734 216.935 153.067 219.335C154.134 221.468 166.934 240.135 181.334 260.668C195.734 281.201 207.867 298.668 208.267 299.335C209.867 302.001 218.8 363.335 218 366.268C216.134 373.868 206.134 377.201 200 372.268C197.334 370.135 196 365.201 190.667 336.668C184.8 305.735 184.134 303.335 180.667 300.268C178 298.001 176 297.335 173.467 298.001C169.2 298.935 165.334 303.335 165.334 307.335C165.334 308.935 168 324.401 171.2 341.601C177.2 373.201 179.6 380.668 185.6 386.268C189.6 390.001 199.734 394.668 204.134 394.668C207.2 394.668 207.867 395.468 209.2 400.801C210.534 405.868 213.734 410.001 231.734 428.801C258 456.268 262.134 463.068 261.867 479.201C261.734 485.201 261.067 491.601 260.267 493.735L258.667 497.468L242.4 484.535C233.334 477.468 201.6 452.535 171.867 429.201C142 405.735 115.334 384.001 112.4 380.935C109.467 377.735 106.134 372.535 104.8 369.201C103.6 366.001 96.1335 328.001 88.1335 284.935C72.4002 199.068 72.9335 200.801 63.7335 201.068C58.6668 201.201 54.6668 205.201 54.6668 210.135C54.6668 216.001 82.6668 365.868 85.2002 373.468C88.8002 384.401 96.2668 394.801 106.4 403.068C111.334 407.068 146.4 434.668 184.4 464.535C249.2 515.335 253.867 518.668 258.8 518.668C263.867 518.668 264.134 518.935 263.734 522.135C263.334 525.735 263.067 525.735 186.8 544.268C134 557.068 107.6 564.001 102.134 566.668C86.6668 574.135 73.4668 588.801 67.8668 605.068C64.0002 615.868 58.2668 659.068 59.8668 664.801C61.7335 671.601 66.1335 676.801 72.4002 679.868L78.1335 682.668H340.667H603.2L608.934 679.868C615.2 676.801 619.6 671.601 621.467 664.801C623.067 659.068 617.334 615.868 613.467 605.068C607.867 588.801 594.667 574.001 579.334 566.668C572.134 563.201 549.734 557.201 504.4 546.668C492.134 543.735 488.134 544.535 485.467 550.268C483.334 554.935 483.6 556.801 487.067 560.535C489.6 563.335 495.6 565.201 526.8 572.668C546.934 577.468 566.534 582.935 570.4 584.668C579.2 588.801 588.667 598.268 592.8 607.335C594.934 612.001 596.934 620.535 598.667 632.801C600.134 643.068 601.467 653.201 601.867 655.468C602.134 657.868 601.734 660.401 600.934 661.201C598.8 663.335 82.5335 663.335 80.4002 661.201C79.6002 660.401 79.2002 657.868 79.4668 655.468C79.8668 653.201 81.2002 643.068 82.6668 632.801C84.4002 620.535 86.4002 612.001 88.5335 607.335C92.6668 598.268 102.134 588.668 111.067 584.535C114.934 582.801 132.8 577.868 150.667 573.601C168.667 569.201 202.534 561.068 226 555.335C249.467 549.735 270.667 544.135 273.2 542.935C280.267 539.468 283.067 534.668 283.734 524.668C284 519.868 284.8 516.001 285.334 516.001C285.867 516.001 289.734 517.201 294 518.668C321.867 528.268 362 528.268 389.867 518.668L397.334 516.135V522.801C397.334 530.935 399.867 537.335 404.534 540.935C408.667 544.135 450.8 555.068 454.4 553.735C458.8 552.135 461.334 548.935 461.334 544.668C461.334 537.201 459.2 535.868 437.867 530.535C418.934 525.868 418 525.468 417.6 522.135C417.2 518.935 417.467 518.668 422.534 518.668C427.467 518.668 432.4 515.068 497.6 464.535C536 434.668 571.334 407.068 576.267 403.068C586.267 394.935 593.6 384.801 597.2 374.268C598.534 370.535 614.267 288.001 632.134 191.068C664.134 16.5346 664.534 14.6679 662.267 10.0013C661.067 7.46793 658.134 4.1346 655.734 2.66793C651.6 0.1346 648.934 0.00126648 602 0.00126648C555.467 0.00126648 552.4 0.1346 548.4 2.66793C546.134 4.00127 543.467 6.5346 542.534 8.1346C541.734 9.86793 537.734 32.5346 533.734 58.5346C529.867 84.6679 526.4 106.535 526.267 107.201C526 107.868 521.867 102.401 517.067 95.2013C505.067 77.2013 492.4 62.9346 477.334 50.4013C411.067 -5.0654 321.2 -15.4654 244.267 23.2013C222.8 34.0013 196 54.9346 196 60.9346C196 62.4013 197.2 65.2013 198.8 67.2013C203.2 72.8013 208.667 72.0013 218.8 63.8679C223.467 60.0013 229.6 55.4679 232.4 53.6013L237.467 50.2679L253.6 54.5346C283.2 62.4013 311.067 75.4679 336.534 93.6013L348.4 102.001L330.934 103.601C297.067 106.668 271.734 116.268 245.467 136.001C227.067 149.868 212.267 167.468 201.067 188.801C194.667 200.801 186.667 222.135 186.667 226.801C186.667 231.868 184.134 230.135 177.467 220.401L170.4 210.401L165.867 180.135C163.334 163.601 161.467 147.868 161.734 145.201C162.534 139.068 171.334 120.668 179.867 107.601C187.467 96.0013 188.267 91.3346 183.6 86.9346C180.267 83.7346 176 83.2013 172 85.3346C170.667 86.0013 166.4 91.6013 162.534 97.6013C158.667 103.601 155.334 108.001 155.067 107.335C154.934 106.535 151.467 84.6679 147.6 58.5346C143.6 32.5346 139.6 9.86793 138.8 8.1346C137.867 6.5346 135.2 4.00127 132.934 2.66793C128.934 0.1346 125.867 0.00126648 80.0002 0.00126648C33.7335 0.00126648 31.0668 0.1346 26.9335 2.66793ZM378.934 24.0013C417.6 32.1346 450.8 50.5346 478.667 79.4679C497.734 99.2013 517.867 131.601 519.6 145.201C519.867 147.868 518 163.601 515.467 180.268L510.934 210.535L504.134 220.135C500.267 225.735 497.2 228.935 496.8 227.868C496.534 226.801 494.667 220.801 492.8 214.401C479.2 169.068 444.8 132.401 398.267 113.868C387.734 109.601 384.134 107.335 372.4 96.9346C342.534 70.6679 313.6 53.4679 278.134 41.2013L263.734 36.1346L268.667 34.1346C281.867 28.5346 303.6 23.0679 321.334 20.8013C332.267 19.4679 366.267 21.3346 378.934 24.0013ZM642.667 21.4679C642.667 22.2679 628.534 99.8679 611.2 193.868C591.867 299.068 578.8 366.935 577.2 370.668C575.734 374.001 572.267 378.935 569.6 381.735C564.934 386.668 424.267 496.668 422.667 496.668C420.934 496.668 418.4 480.801 419.2 474.268C420.934 461.068 425.6 453.868 448.934 429.468C467.467 410.135 470.8 406.001 472.134 400.801C473.467 395.468 474.134 394.668 477.2 394.668C481.6 394.668 491.734 390.001 495.734 386.268C501.734 380.668 504.134 373.201 510.134 341.601C513.334 324.401 516 308.935 516 307.335C516 303.335 512.134 298.935 507.867 298.001C505.334 297.335 503.334 298.001 500.667 300.268C497.2 303.335 496.534 305.735 490.667 336.668C485.334 365.201 484 370.135 481.334 372.268C475.2 377.201 465.2 373.868 463.334 366.268C462.534 363.335 471.467 302.001 473.067 299.335C473.467 298.668 485.6 281.201 500 260.668C514.4 240.135 527.2 221.468 528.267 219.335C529.6 216.935 536.134 177.335 544.534 120.668C552.4 68.5346 559.067 24.6679 559.334 22.9346L560 20.0013H601.334C630.934 20.0013 642.667 20.4013 642.667 21.4679ZM369.334 126.001C397.334 131.868 421.2 145.201 441.6 166.401C460 185.601 472.267 208.401 477.467 233.868C481.334 252.801 481.6 252.001 467.467 272.135C460.667 282.001 454.4 292.135 453.6 294.668C452.8 297.201 450 313.601 447.334 331.201C441.734 367.335 441.867 371.201 448.8 381.468C456.4 392.801 456.267 393.201 432.934 417.201C404.534 446.401 399.734 455.335 399.467 480.001L399.334 493.868L390 497.468C374.534 503.468 361.2 505.735 342 505.735C322.134 505.735 308.934 503.335 292.667 496.935L282.134 492.668L281.867 479.335C281.467 455.201 276.134 445.468 247.067 415.868C225.2 393.468 224.934 392.801 232.534 381.468C239.467 371.201 239.6 367.335 234 331.201C231.334 313.601 228.534 297.201 227.734 294.668C226.934 292.135 220.934 282.268 214.4 272.935L202.4 255.868L203.334 246.935C207.067 211.735 226.4 176.935 254.8 154.268C274.267 138.535 301.067 127.068 324.667 124.001C336.134 122.535 357.6 123.468 369.334 126.001Z" fill="#EF3636"/>
<path d="M256.267 243.333C253.067 244.266 249.334 246.133 247.867 247.466C244.4 250.533 244.534 257.866 248.134 261.466C250.534 263.866 251.867 264.133 257.2 263.333C265.467 262 278 261.866 285.467 263.2C290.934 264.133 292 264 294.534 261.466C298.134 257.866 298.267 250.533 294.8 247.466C288.534 241.733 268.134 239.6 256.267 243.333Z" fill="#EF3636"/>
<path d="M394.933 243.334C385.333 246.267 382 250.934 384.267 257.734C386.4 263.601 389.733 264.667 400.133 262.667C405.467 261.601 411.467 261.334 414.933 261.867C429.733 264.401 429.333 264.401 432.8 261.201C436.533 257.734 436.933 252.667 434 248.401C429.6 242.134 407.733 239.334 394.933 243.334Z" fill="#EF3636"/>
<path d="M258.667 304.8C252.533 306 249.2 307.6 247.067 310C243.6 313.867 243.333 315.734 245.467 320.4C248 326 252.267 326.934 262.133 324.534C270.133 322.534 271.467 322.534 279.467 324.4C289.6 326.934 293.6 325.867 296.133 319.734C299.2 312.134 294.133 307.067 280.267 304.134C271.6 302.267 269.6 302.4 258.667 304.8Z" fill="#EF3636"/>
<path d="M396.667 304.668C384.533 307.868 380 313.868 384.133 321.468C386.533 326.001 391.067 326.801 400.667 324.401C408.8 322.401 409.867 322.401 418.133 324.668C426.667 326.935 426.933 326.935 430.4 324.401C435.067 320.935 436 313.335 432.133 309.468C426.667 304.001 409.2 301.601 396.667 304.668Z" fill="#EF3636"/>
<path d="M302.267 417.47C298.534 419.603 296.934 425.203 298.667 429.47C304.134 442.67 352.934 446.136 376.934 435.07C382.8 432.403 384.8 426.936 382.134 421.47C379.067 415.736 374.934 415.07 362.934 418.803C349.2 422.936 331.067 422.936 318.667 418.936C308.934 415.736 305.734 415.47 302.267 417.47Z" fill="#EF3636"/>
</g>
<defs>
<clipPath id="clip0_931_7167">
<rect width="682.667" height="682.667" fill="white"/>
</clipPath>
</defs>
</svg>
