<svg width="683" height="683" viewBox="0 0 683 683" fill="none" xmlns="http://www.w3.org/2000/svg">
<path d="M547.336 194.5C555.885 197.248 560.155 204.301 564.586 211.75C565.101 212.613 565.616 213.476 566.146 214.365C576.841 232.908 581.814 251.823 581.753 273.167C581.774 274.643 581.796 276.12 581.818 277.641C581.824 287.526 580.403 295.96 577.336 305.334C576.98 306.472 576.624 307.61 576.257 308.782C574.857 313.257 573.449 317.729 571.984 322.183C569.361 330.584 566.93 339.333 571.154 347.527C572.011 348.481 572.869 349.435 573.753 350.417C574.732 351.533 575.712 352.648 576.721 353.798C577.804 354.965 578.887 356.132 580.003 357.334C581.113 358.57 582.223 359.806 583.367 361.079C588.594 366.85 593.903 372.535 599.274 378.173C600.047 378.99 600.82 379.808 601.616 380.651C603.108 382.227 604.607 383.796 606.116 385.356C611.94 391.52 616.812 397.535 618.003 406.168C617.174 411.764 616.259 413.585 612.003 417.334C601.348 423.04 588.062 426.668 576.003 426.668C576.406 427.581 576.81 428.495 577.227 429.436C579.061 433.616 580.865 437.808 582.669 442.001C583.623 444.157 583.623 444.157 584.596 446.355C590.731 460.729 590.731 460.729 589.336 469.335C587.263 472.246 587.263 472.246 584.003 474.668C580.4 475.199 577.35 475.417 573.753 475.376C572.767 475.381 571.781 475.387 570.765 475.392C568.685 475.395 566.605 475.386 564.525 475.363C561.346 475.335 558.171 475.363 554.992 475.397C552.968 475.394 550.943 475.387 548.919 475.376C547.972 475.387 547.024 475.398 546.048 475.409C541.547 475.324 539.061 474.958 535.403 472.249C532.375 467.98 532.607 465.103 533.336 460.001C536.294 456.125 538.028 454.882 542.669 453.335C545.859 453.034 549.055 452.79 552.252 452.585C553.949 452.473 555.645 452.361 557.393 452.246C558.694 452.165 559.995 452.084 561.336 452.001C560.758 450.52 560.181 449.038 559.586 447.512C551.056 425.012 551.056 425.012 553.336 416.001C557.622 408.699 565.171 407.227 572.914 405.043C578.423 403.745 583.693 403.05 589.336 402.668C584.483 396.015 579.404 389.921 573.503 384.168C566.632 377.422 560.483 370.341 554.669 362.667C553.836 361.6 553.002 360.533 552.143 359.433C545.754 350.291 544.997 341.549 546.669 330.667C549.006 318.926 552.6 307.525 556.336 296.167C562.624 275.972 558.721 257.26 553.336 237.334C552.456 237.334 551.576 237.334 550.669 237.334C550.394 238.901 550.119 240.469 549.836 242.084C541.389 279.624 516.71 312.701 490.669 340.001C489.751 340.974 488.833 341.946 487.888 342.949C470.249 361.163 448.669 375.591 426.669 388.001C425.243 388.805 425.243 388.805 423.79 389.626C411.395 396.545 398.742 402.716 385.668 408.251C384.446 408.783 383.224 409.315 381.965 409.863C374.828 412.789 370.187 414.031 362.668 412.001C360.085 410.584 360.085 410.584 358.668 408.001C357.854 400.674 357.854 400.674 358.668 397.334C362.283 393.156 365.507 391.016 370.632 389.032C371.929 388.517 373.226 388.001 374.562 387.47C375.944 386.93 377.327 386.39 378.752 385.834C440.39 360.91 493.853 317.686 521.336 256C527.444 241.112 531.652 225.898 533.997 209.976C535.35 201.736 537.877 194.838 547.336 194.5Z" fill="#EF3636"/>
<path d="M235.501 91.5015C240.057 94.6722 243.275 98.1913 246.751 102.502C250.076 106.712 250.076 106.712 254.85 108.58C257.459 108.43 260.064 108.219 262.668 108.002C266.001 110.002 266.001 110.002 268.001 113.335C269.389 119.738 269.389 119.738 268.001 124.002C264.525 128.218 260.328 131.361 256.001 134.668C230.243 155.37 209.999 180.221 195.428 209.986C193.181 213.581 192 214.746 188.001 216.002C183.093 215.83 179.905 215.707 176.084 212.502C174.07 208.001 174.236 204.932 174.668 200.002C176.221 195.961 178.309 192.312 180.501 188.585C181.104 187.535 181.708 186.484 182.33 185.402C193.766 165.824 212.519 134.41 233.334 124.002C231.478 116.989 227.079 113.355 221.334 109.335C214.591 106.038 207.376 105.702 200.001 106.668C196.999 107.787 194.355 109.094 191.589 110.705C189.334 112.002 189.334 112.002 185.334 113.335C183.888 115.667 183.888 115.667 182.668 118.668C181.98 119.878 181.293 121.088 180.584 122.335C176.376 131.849 177.214 137.947 180.376 147.476C181.695 151.87 181.97 155.461 181.334 160.002C177.766 165.678 171.857 167.068 165.865 169.361C158.335 172.44 154.488 177.304 150.74 184.299C148.498 190.203 148.04 196.223 147.537 202.486C146.667 206.669 146.667 206.669 144.647 209.893C139.709 213.037 135.45 212.351 129.751 212.002C118.862 211.699 111.008 212.168 102.646 219.783C94.8658 228.038 92.5784 235.565 92.839 246.83C94.0094 255.911 98.1 263.001 105.251 268.669C113.315 273.995 121.072 275.965 130.667 274.669C139.102 272.008 146.131 267.846 151.834 261.002C154.667 258.669 154.667 258.669 159.334 258.002C164.001 258.669 164.001 258.669 167.251 260.669C169.595 264.42 170.345 267.367 170.089 271.805C167.908 280.08 160.471 285.346 153.584 289.753C141.439 296.483 129.755 298.044 116.001 298.669C111.931 309.269 110.617 318.801 114.391 329.732C117.089 335.59 120.575 339.61 125.334 344.003C128.763 347.55 129.296 348.981 129.834 354.003C129.312 358.876 128.949 360.762 125.334 364.003C121.517 365.409 119.356 365.513 115.417 364.503C103.727 358.23 96.4743 347.337 92.1671 334.919C87.5452 318.927 89.3119 304.862 94.6671 289.336C93.782 288.593 92.8968 287.851 91.9848 287.086C79.2725 276.099 71.7795 265.668 70.2399 248.601C69.748 232.548 72.8223 218.592 84.0004 206.669C92.9826 197.449 103.447 189.71 116.771 189.205C117.947 189.221 119.123 189.236 120.334 189.252C122.118 189.27 122.118 189.27 123.938 189.288C124.839 189.304 125.739 189.319 126.667 189.335C126.752 188.543 126.836 187.751 126.922 186.934C128.963 173.126 136.088 162.557 146.844 153.83C149.788 151.669 152.775 149.716 156.001 148.002C155.81 146.669 155.81 146.669 155.615 145.309C153.567 128.275 157.267 115.061 167.001 101.002C185.465 82.5375 212.811 77.5859 235.501 91.5015Z" fill="#EF3636"/>
<path d="M472.002 231.999C475.584 234.544 476.981 236.433 478.586 240.499C478.782 248.74 472.485 255.054 467.336 260.916C466.626 261.73 465.917 262.543 465.186 263.381C440.109 291.869 409.458 312.293 376.463 330.707C350.074 345.647 331.331 367.584 323.002 397C320.3 407.239 319.807 416.994 319.812 427.527C319.808 428.925 319.803 430.322 319.798 431.762C319.789 434.783 319.781 437.804 319.777 440.826C319.767 445.605 319.746 450.385 319.722 455.165C319.652 468.75 319.588 482.335 319.567 495.921C319.554 504.24 319.515 512.558 319.459 520.877C319.442 524.047 319.435 527.217 319.438 530.387C319.441 534.811 319.412 539.234 319.375 543.658C319.384 544.971 319.392 546.283 319.402 547.636C319.28 556.48 319.28 556.48 316.202 560.777C312.437 563.26 309.847 563.909 305.335 564.001C299.248 561.16 299.248 561.16 297.335 557.334C297.204 555.423 297.155 553.505 297.147 551.589C297.14 550.382 297.132 549.175 297.124 547.932C297.123 546.603 297.121 545.275 297.12 543.906C297.113 542.51 297.107 541.113 297.1 539.674C297.08 535.029 297.071 530.385 297.064 525.74C297.056 522.507 297.049 519.273 297.041 516.04C297.027 509.241 297.019 502.441 297.014 495.642C297.007 486.978 296.975 478.314 296.937 469.65C296.912 462.958 296.905 456.266 296.903 449.574C296.899 446.384 296.889 443.193 296.871 440.003C296.653 397.43 305.587 363.707 335.418 332C347.744 319.993 362.725 311.836 377.729 303.666C407.343 287.421 437.69 265.147 457.252 237.249C461.524 231.165 464.749 231.374 472.002 231.999Z" fill="#EF3636"/>
<path d="M431.481 66.4641C434.214 66.9858 436.943 67.5266 439.669 68.0839C441.853 68.5291 441.853 68.5291 444.08 68.9833C485.437 77.7885 521.436 96.4219 553.336 124.001C554.644 125.12 555.952 126.239 557.3 127.391C564.138 133.384 570.237 139.647 576.003 146.668C577.192 148.06 578.381 149.452 579.571 150.845C614.315 192.189 634.396 245.094 635.087 299.168C635.125 300.208 635.164 301.248 635.204 302.319C635.257 307.109 635.113 310.041 632.311 314.007C629.21 316.087 627.693 316.759 624.003 316.752C622.683 316.796 622.683 316.796 621.337 316.84C616.828 315.423 615.671 313.441 613.336 309.335C612.416 304.22 612.229 299.104 612.003 293.918C609.888 260.53 601.542 229.368 585.336 200.001C584.568 198.58 583.8 197.158 583.008 195.694C574.534 180.566 563.918 167.217 552.003 154.668C551.378 153.999 550.752 153.33 550.108 152.642C533.494 134.962 514.859 121.772 493.336 110.667C492.511 110.241 491.687 109.815 490.837 109.376C470.7 99.1366 450.009 92.9887 427.789 89.1465C423.405 88.3825 419.036 87.5743 414.679 86.6673C413.717 86.468 412.755 86.2686 411.763 86.0632C409.335 85.334 409.335 85.334 406.585 83.0007C404.88 78.9085 404.618 76.398 405.335 72.0006C411.762 62.4651 421.424 64.7721 431.481 66.4641Z" fill="#EF3636"/>
<path d="M565.336 484.001C569.169 486.001 569.169 486.001 572.003 489.334C573.267 495.865 573.267 495.865 572.003 500.001C568.289 504.553 563.317 507.586 558.409 510.73C555.767 512.959 554.789 514.186 553.947 517.57C553.673 521.094 553.63 524.551 553.669 528.084C553.622 530.603 553.568 533.123 553.508 535.642C553.486 536.852 553.463 538.063 553.441 539.31C553.11 549.886 551.698 559.393 545.336 568.001C540.422 571.508 534.922 571.152 529.117 571.126C527.465 571.121 527.465 571.121 525.779 571.116C510.646 570.847 495.762 568.318 480.835 566.001C476.415 565.33 471.993 564.665 467.571 564.004C464.847 563.595 462.124 563.18 459.402 562.757C458.176 562.571 456.95 562.384 455.688 562.191C454.618 562.025 453.549 561.86 452.447 561.689C449.162 561.315 445.972 561.274 442.669 561.334C432.897 583.971 425.763 608.093 423.491 632.731C422.401 637.064 420.394 639.458 417.335 642.668C412.415 644.343 410.317 644.46 405.585 642.251C402.668 640.001 402.668 640.001 401.335 637.335C400.486 627.563 402.086 618.346 404.168 608.835C404.463 607.454 404.757 606.073 405.061 604.65C407.765 592.347 411.207 580.319 415.071 568.334C416.341 564.243 417.501 560.122 418.669 556.001C417.203 555.739 415.738 555.477 414.229 555.208C408.736 554.224 403.245 553.23 397.754 552.233C395.388 551.805 393.022 551.38 390.655 550.957C360.756 545.615 360.756 545.615 354.668 542.668C351.394 537.757 350.937 533.702 352.002 528.001C354.502 524.584 354.502 524.584 358.668 522.668C370.1 522.377 381.887 525.828 393.054 528.051C438.528 537.063 484.503 544.889 530.669 549.334C530.638 547.711 530.638 547.711 530.606 546.055C530.522 541.121 530.47 536.186 530.419 531.251C530.386 529.548 530.352 527.846 530.317 526.092C530.235 515.532 530.349 508.229 536.971 499.704C555.485 481.762 555.485 481.762 565.336 484.001Z" fill="#EF3636"/>
<path d="M166.668 302.67C169.913 304.378 171.547 305.403 172.795 308.885C173.531 313.142 173.482 317.246 173.465 321.566C173.463 322.476 173.461 323.385 173.459 324.323C173.451 327.216 173.435 330.11 173.418 333.003C173.411 334.97 173.405 336.937 173.399 338.904C173.385 343.715 173.362 348.526 173.334 353.337C174.947 352.905 176.559 352.474 178.22 352.029C192.104 348.575 205.444 350.53 217.751 357.837C222.14 360.786 225.787 364.062 229.335 368.003C230.242 368.993 231.15 369.983 232.085 371.003C240.112 382.397 242.35 394.264 241.335 408.004C238.698 422.123 231.263 433.783 220.001 442.67C206.545 450.295 192.423 453.239 177.251 449.17C163.973 444.604 153.949 437.501 146.668 425.337C139.676 409.597 139.48 395.396 145.24 379.332C146.668 376.003 146.668 376.003 149.334 372.003C149.784 369.055 149.784 369.055 149.797 365.759C149.833 364.495 149.869 363.231 149.906 361.929C149.934 360.567 149.962 359.204 149.99 357.8C150.078 354.921 150.167 352.041 150.256 349.162C150.383 344.618 150.501 340.074 150.606 335.53C150.712 331.147 150.849 326.765 150.99 322.383C151.013 321.023 151.035 319.664 151.058 318.263C151.386 308.892 151.386 308.892 154.439 304.474C158.703 301.817 161.75 302.055 166.668 302.67ZM169.428 381.644C163.819 389.87 161.505 396.708 162.668 406.67C165.856 416.393 172.238 423.339 181.334 428.004C188.872 430.768 196.74 429.829 204.017 426.806C211.682 422.559 216.839 416.308 219.423 407.962C221.238 399.723 219.878 392.687 216.001 385.337C210.509 378.806 203.472 372.882 194.788 371.639C184.858 371.17 176.069 373.968 169.428 381.644Z" fill="#EF3636"/>
<path d="M369.252 51.6676C380.339 60.386 387.591 71.4904 390.669 85.3345C391.969 103.749 390.795 119.232 378.335 133.918C365.87 146.652 353.279 152.536 335.543 153.408C319.819 153.173 307.028 147.84 295.575 137.1C283.143 123.821 279.252 110.022 279.673 91.9283C280.672 75.9175 288.304 63.9998 299.731 53.0531C319.797 36.7583 348.35 37.299 369.252 51.6676ZM308.632 74.7094C302.411 83.0266 300.337 90.9683 300.746 101.345C302.274 111.701 307.564 119.668 315.694 126.121C323.99 131.365 332.514 132.876 342.169 131.413C353.097 128.843 360.325 122.537 366.669 113.335C370.38 104.419 371.127 94.065 368.372 84.7407C363.785 74.973 355.959 69.0542 346.669 64.001C332.817 59.384 318.248 63.9794 308.632 74.7094Z" fill="#EF3636"/>
<path d="M272.001 198.667C280.742 204.429 284.748 211.574 288.001 221.334C289.034 231.511 288.085 240.516 282.668 249.334C275.791 257.57 268.044 262.622 257.335 264.001C246.561 264.332 237.548 262.267 229.413 255.032C222.101 247.369 218.679 239.311 218.084 228.751C218.438 219.144 222.541 209.461 229.335 202.667C241.556 193.369 258.234 190.787 272.001 198.667ZM244.001 218.667C240.674 222.683 240.001 224.744 240.001 230.001C241.608 235.624 243.354 237.823 248.001 241.334C251.864 242.997 251.864 242.997 256.001 242.668C260.935 240.011 263.552 238.008 266.668 233.334C267.341 227.143 266.401 223.645 262.668 218.667C256.843 214.784 249.812 214.309 244.001 218.667Z" fill="#EF3636"/>
<path d="M137.918 442.753C145.754 447.269 152.122 453.79 155.371 462.388C157.479 472.251 157.815 483.524 152.438 492.347C145.116 501.952 137.788 507.339 125.584 509.169C114.855 509.935 105.326 506.603 97.0111 499.82C90.9989 493.447 87.1498 484.856 86.584 476.086C86.9561 463.806 90.7971 455.957 99.3549 447.289C109.715 437.938 125.5 437.042 137.918 442.753ZM110.667 466.669C108.516 470.971 108.55 475.351 109.334 480.003C112.562 484.465 114.784 486.264 120.001 488.003C125.973 488.003 128.894 485.715 133.084 481.669C135.395 477.291 135.267 474.214 134.668 469.336C132.273 465.665 130.597 463.301 126.668 461.336C119.334 460.644 115.91 461.427 110.667 466.669Z" fill="#EF3636"/>
<path d="M106.667 89.3321C115.49 97.2531 120.238 104.976 121.277 116.811C121.466 127.357 117.789 136.237 110.667 143.999C101.391 151.079 93.0495 154.113 81.334 153.332C70.6202 150.92 62.1757 146.522 56.1672 137.166C50.951 128.288 51.0614 119.425 52.0005 109.332C55.0665 99.0066 61.1285 91.836 70.4537 86.629C82.1923 81.4198 95.8257 82.5941 106.667 89.3321ZM74.6673 110.666C72.5147 114.971 72.5581 119.344 73.3339 123.999C76.706 128.802 78.9845 130.352 84.584 132.082C90.6163 131.976 92.9313 130.761 97.334 126.666C99.8504 121.23 100.472 118.694 98.5007 112.999C96.0103 109.346 94.6032 107.3 90.6673 105.332C83.3516 104.401 79.8788 105.454 74.6673 110.666Z" fill="#EF3636"/>
<path d="M165.334 517.336C169.581 519.683 170.445 520.668 172.001 525.336C172.129 527.875 172.175 530.418 172.178 532.961C172.181 534.585 172.184 536.21 172.187 537.884C172.181 539.701 172.175 541.519 172.168 543.336C172.165 544.26 172.163 545.184 172.16 546.136C172.136 553.869 172.071 561.603 172.001 569.336C171.989 570.728 171.978 572.119 171.966 573.553C171.888 582.745 171.783 591.935 171.648 601.125C171.606 604.209 171.569 607.293 171.54 610.377C171.495 614.748 171.426 619.117 171.35 623.487C171.341 624.808 171.333 626.128 171.324 627.488C171.298 628.709 171.271 629.929 171.244 631.187C171.229 632.25 171.214 633.314 171.199 634.409C170.525 638.119 169.26 639.956 166.668 642.67C162.096 643.833 158.811 644.442 154.251 643.086C151.501 640.948 150.665 639.211 149.334 636.003C149.004 633.204 149.004 633.204 149.01 630.162C149.004 628.43 149.004 628.43 148.998 626.664C149.008 625.414 149.017 624.165 149.027 622.878C149.027 621.564 149.027 620.25 149.026 618.896C149.031 614.598 149.056 610.301 149.084 606.003C149.097 603.048 149.109 600.094 149.122 597.14C149.16 589.719 149.222 582.299 149.294 574.879C149.332 570.91 149.362 566.942 149.391 562.973C149.436 557.318 149.511 551.664 149.615 546.009C149.65 543.959 149.676 541.909 149.694 539.859C149.722 537.036 149.784 534.215 149.855 531.393C149.883 529.826 149.911 528.259 149.94 526.644C151.567 517.756 157.04 516.299 165.334 517.336Z" fill="#EF3636"/>
</svg>
