<svg width="683" height="683" viewBox="0 0 683 683" fill="none" xmlns="http://www.w3.org/2000/svg">
<g clip-path="url(#clip0_938_6866)">
<path d="M657.337 0.00178468C660.753 2.7518 660.753 2.7518 662.67 6.66848C662.249 13.876 660.044 19.3792 656.613 25.6113C656.133 26.5099 655.653 27.4085 655.158 28.3343C653.592 31.2587 652.006 34.1718 650.42 37.0853C649.32 39.13 648.221 41.1754 647.124 43.2214C644.381 48.3289 641.622 53.4279 638.859 58.5244C636.661 62.583 634.478 66.6491 632.295 70.7157C629.283 76.3253 626.263 81.9311 623.238 87.5335C618.36 96.5673 613.514 105.617 608.67 114.669C599.144 132.463 589.58 150.236 580.003 168.003C582.5 169.452 585.001 170.895 587.503 172.336C588.713 173.039 588.713 173.039 589.948 173.756C595.283 176.824 600.677 179.722 606.159 182.518C608.102 183.527 608.102 183.527 610.083 184.556C612.647 185.884 615.224 187.188 617.814 188.465C626.452 192.982 631.783 197.779 636.003 206.669C639.42 219.12 634.173 229.846 628.217 240.508C623.607 248.375 618.72 256.656 610.67 261.336C606.675 262.126 602.734 262.493 598.67 262.67C598.538 263.91 598.406 265.15 598.27 266.428C597.275 273.337 595.132 279.888 593.065 286.54C592.639 287.922 592.213 289.304 591.774 290.728C590.872 293.641 589.966 296.554 589.057 299.465C587.677 303.896 586.321 308.333 584.966 312.772C584.084 315.611 583.201 318.451 582.315 321.29C581.717 323.263 581.717 323.263 581.107 325.276C575.133 344.157 575.133 344.157 567.793 348.29C566.982 348.635 566.172 348.981 565.336 349.337C565.35 351.204 565.349 351.204 565.363 353.108C565.445 365.045 565.505 376.981 565.543 388.918C565.564 395.05 565.592 401.181 565.638 407.313C566.129 474.212 564.768 547.45 516.617 599.38C493.385 622.686 461.369 639.868 428.336 643.172C420.63 642.283 413.374 640.891 408.085 634.838C405.71 631.239 403.991 628.092 402.669 624.005C401.459 625.05 400.249 626.095 399.002 627.172C397.114 628.783 395.225 630.394 393.335 632.005C392.156 633.021 390.977 634.036 389.762 635.083C365.192 655.971 337.864 672.609 306.668 681.338C305.869 681.574 305.069 681.809 304.245 682.052C285.717 686 262.938 684.036 245.335 677.338C244.03 676.871 242.726 676.403 241.381 675.922C226.755 670.267 211.845 663.06 199.652 653.14C190.757 645.967 184.363 644.291 172.988 644.242C139.093 644.044 105.697 617.576 82.6672 594.671C81.7058 593.718 81.7058 593.718 80.7251 592.746C45.8563 557.672 26.212 508.789 21.3335 460.004C21.2244 458.962 21.1154 457.92 21.003 456.846C19.6178 441.698 19.7813 426.536 19.7762 411.337C19.7719 408.29 19.7674 405.243 19.7628 402.196C19.7548 395.826 19.7523 389.456 19.7531 383.086C19.7533 375.002 19.7351 366.917 19.7121 358.833C19.6971 352.541 19.6946 346.249 19.6953 339.957C19.6937 336.981 19.6879 334.004 19.6775 331.028C19.6005 306.825 20.34 282.576 25.5002 258.836C25.7835 257.518 26.0668 256.2 26.3586 254.843C33.1901 224.624 45.4439 196.074 61.8337 169.836C62.8334 168.236 62.8334 168.236 63.8533 166.603C67.0379 161.672 69.65 157.891 74.6671 154.669C79.6327 153.93 82.0362 154.34 86.5005 156.669C89.7881 160.537 89.9469 162.844 89.8033 167.833C89.0021 172.674 86.2281 176.194 83.3338 180.003C76.103 190.167 70.5675 200.704 65.3337 212.003C64.6222 213.507 63.9106 215.011 63.1775 216.56C46.25 253.967 42.4566 293.078 42.443 333.628C42.4387 336.651 42.4342 339.673 42.4295 342.695C42.4216 349.016 42.4191 355.336 42.4199 361.657C42.42 369.684 42.4019 377.71 42.3789 385.736C42.3639 391.978 42.3613 398.219 42.362 404.461C42.3605 407.416 42.3547 410.371 42.3443 413.326C42.2024 457.649 47.7699 499.357 69.3338 538.671C70.0058 539.902 70.6778 541.132 71.3702 542.4C89.9684 574.754 118.604 601.9 153.334 616.005C152.769 615.467 152.203 614.929 151.621 614.375C130.828 592.85 128.874 562.253 129.136 533.937C129.951 489.289 140.601 451.388 172.001 418.67C172.929 417.674 173.857 416.677 174.813 415.65C197.299 392.179 227.139 376.525 255.507 361.306C283.644 346.2 311.236 331.32 334.668 309.337C335.504 308.618 336.339 307.9 337.2 307.16C352.107 293.736 357.669 275.61 359.033 256.128C359.744 228.35 352.065 201.551 338.413 177.469C334.956 171.111 334.073 167.294 336.002 160.003C337.418 157.419 337.418 157.419 340.002 156.003C349.342 154.965 349.342 154.965 353.351 158.102C356.631 162.103 358.92 166.375 361.169 171.003C361.859 172.413 361.859 172.413 362.563 173.852C379.556 209.246 389.025 251.884 375.679 290.076C373.475 295.515 371.261 300.448 368.002 305.337C368.7 317.798 382.353 331.355 390.955 339.545C413.377 358.414 439.367 367.313 468.534 367.148C470.354 367.175 470.354 367.175 472.211 367.201C473.294 367.197 474.378 367.192 475.495 367.188C480.672 368.518 482.298 370.228 485.336 374.67C486.312 380.392 486.205 386.046 486.127 391.837C486.128 393.537 486.128 395.237 486.128 396.988C486.125 400.598 486.101 404.206 486.058 407.815C486.006 412.353 486 416.889 486.009 421.427C486.088 479.148 486.088 479.148 476.002 502.671C471.831 506.836 470.486 508.004 464.502 508.004C460.002 506.671 460.002 506.671 457.419 504.588C453.777 496.233 456.603 486.589 458.586 478.087C459.076 475.952 459.56 473.814 460.039 471.676C460.255 470.745 460.472 469.815 460.695 468.856C462.551 458.668 462.919 448.5 463.091 438.165C463.119 436.762 463.146 435.358 463.175 433.912C463.261 429.471 463.34 425.029 463.419 420.587C463.477 417.558 463.535 414.53 463.594 411.501C463.736 404.113 463.871 396.725 464.002 389.337C462.881 389.362 461.759 389.387 460.603 389.413C451.926 389.526 443.909 389.364 435.502 387.17C434.554 386.932 433.605 386.693 432.628 386.447C408.949 380.217 389.575 369.116 372.002 352.004C370.61 350.712 370.61 350.712 369.189 349.394C361.988 342.542 356.31 334.832 350.668 326.67C349.696 327.543 348.723 328.416 347.721 329.316C327.688 346.96 305.157 360.09 281.7 372.61C240.418 394.237 240.418 394.237 202.668 421.337C210.856 421.456 218.588 421.409 226.668 420.004C228.971 419.844 231.277 419.737 233.585 419.67C234.703 419.636 235.822 419.602 236.975 419.566C240.001 420.004 240.001 420.004 242.371 421.65C244.427 424.618 244.537 426.415 244.501 430.004C244.512 431.035 244.522 432.066 244.533 433.129C243.847 436.841 243.105 437.848 240.001 440.004C221.582 445.728 200.252 445.854 181.334 442.671C154.267 473.122 149.904 515.565 152.001 554.671C153.911 574.885 159.983 591.115 174.668 605.338C175.556 606.208 176.445 607.077 177.36 607.973C205.878 634.473 246.237 662.091 286.668 661.338C323.147 659.2 354.99 635.304 381.335 612.005C382.048 611.377 382.76 610.748 383.494 610.101C391.782 602.755 399.688 595.297 406.669 586.671C407.76 585.363 408.852 584.055 409.976 582.708C418.617 572.177 425.854 561.094 432.789 549.379C441.489 534.709 441.489 534.709 446.669 533.338C451.189 533.522 453.719 533.848 457.169 536.838C459.266 541.265 459.026 544.459 458.669 549.338C457.334 552.705 456.017 555.556 454.252 558.671C453.784 559.524 453.316 560.376 452.834 561.255C448.139 569.553 442.589 577.179 436.82 584.755C436.246 585.515 435.673 586.276 435.082 587.059C433.906 588.594 432.702 590.107 431.472 591.599C426.788 597.538 425.487 602.446 424.919 609.921C424.822 610.897 424.725 611.872 424.625 612.877C424.392 615.251 424.193 617.628 424.002 620.005C453.976 619.053 484.167 600.828 504.419 579.588C545.773 531.799 542.992 461.036 543.471 401.79C543.525 395.407 543.593 389.023 543.659 382.639C543.787 370.205 543.9 357.771 544.003 345.337C542.773 344.941 541.543 344.545 540.275 344.137C535.56 342.518 531.291 340.374 526.919 338.014C526.064 337.558 525.208 337.103 524.327 336.633C521.549 335.152 518.776 333.661 516.003 332.17C514.062 331.132 512.121 330.095 510.18 329.058C498.462 322.791 486.768 316.478 475.13 310.061C468.889 306.628 462.617 303.267 456.295 299.986C452.628 298.082 448.966 296.167 445.305 294.251C443.513 293.319 441.717 292.393 439.919 291.474C437.394 290.183 434.883 288.871 432.372 287.555C430.918 286.805 429.464 286.055 427.965 285.282C422.668 281.791 418.472 277.718 416.205 271.639C415.191 261.722 418.324 255.746 424.445 248.138C426.932 245.171 429.465 242.246 432.007 239.326C435.946 234.784 439.657 230.09 443.336 225.336C448.877 218.178 454.621 211.238 460.633 204.469C464.052 200.536 466.626 197.068 468.002 192.003C467.384 189.899 467.384 189.899 466.752 187.753C463.947 177.688 465.79 170.511 470.714 161.526C471.731 159.748 472.773 157.986 473.843 156.24C476.705 151.709 476.705 151.709 476.784 146.57C446.163 109.388 399.125 84.5941 353.002 72.9188C351.726 72.5955 350.449 72.2721 349.135 71.939C330.817 67.5219 312.929 66.1225 294.168 66.1688C292.503 66.1699 292.503 66.1699 290.804 66.171C228.232 66.3582 167.534 90.1211 122.084 133.502C115.627 139.398 115.627 139.398 110.917 140.419C105.579 139.896 103.563 138.651 100.001 134.669C98.6672 131.502 98.6672 131.502 98.6672 128.002C108.634 104.069 143.157 85.9579 165.334 74.6688C166.382 74.1261 167.429 73.5834 168.509 73.0243C207.329 53.0704 248.609 43.3885 292.168 43.5853C293.314 43.5882 294.461 43.5911 295.642 43.594C312.916 43.6635 329.753 44.1917 346.668 48.002C347.91 48.2811 349.152 48.5602 350.432 48.8477C399.173 60.1398 449.933 83.0247 483.57 121.346C489.673 128.772 489.673 128.772 498.06 132.555C500.437 132.346 502.812 132.115 505.185 131.867C522.958 132.447 543.605 148.845 558.669 157.336C561.566 153.652 563.865 149.973 565.998 145.805C566.624 144.59 567.25 143.376 567.894 142.125C568.563 140.82 569.231 139.514 569.92 138.169C575.249 127.853 580.658 117.594 586.253 107.419C592.949 95.2277 599.493 82.9599 606.003 70.6688C614.99 53.7111 624.044 36.7948 633.337 20.0019C633.885 19.0078 634.434 18.0137 634.999 16.9895C636.491 14.2937 637.994 11.6046 639.503 8.91849C640.318 7.46614 641.133 6.01379 641.972 4.51743C645.611 -1.18443 651.04 -1.07873 657.337 0.00178468ZM501.336 153.336C497.037 157.963 493.926 163.182 490.836 168.669C489.987 170.141 489.138 171.612 488.263 173.128C486.294 177.14 486.294 177.14 487.459 180.672C489.863 184.939 492.068 186.017 496.44 188.175C497.904 188.912 499.368 189.65 500.876 190.411C501.656 190.792 502.436 191.173 503.24 191.566C506.55 193.183 509.835 194.846 513.123 196.507C514.801 197.354 516.479 198.198 518.158 199.039C525.394 202.67 532.502 206.503 539.586 210.419C541.921 211.698 544.256 212.976 546.591 214.253C554.63 218.648 554.63 218.648 557.243 220.08C563.015 223.242 568.796 226.385 574.589 229.509C576.522 230.555 578.452 231.608 580.379 232.666C583.082 234.149 585.796 235.612 588.513 237.071C589.326 237.523 590.139 237.974 590.976 238.44C594.242 240.171 596.638 241.372 600.379 241.179C604.428 239.1 606.142 235.027 608.253 231.17C608.963 229.96 608.963 229.96 609.688 228.727C612.828 223.138 613.894 218.446 614.67 212.003C612.961 211.099 612.961 211.099 611.219 210.176C573.224 190.058 573.224 190.058 557.003 181.169C552.226 178.557 547.448 175.945 542.669 173.336C541.902 172.917 541.135 172.498 540.344 172.066C535.224 169.272 530.099 166.488 524.967 163.716C523.28 162.802 521.595 161.886 519.911 160.966C517.566 159.686 515.214 158.417 512.862 157.148C511.506 156.412 510.149 155.676 508.752 154.918C505.358 153.056 505.358 153.056 501.336 153.336ZM486.669 206.669C484.364 209.117 482.218 211.577 480.086 214.17C479.436 214.948 478.786 215.727 478.117 216.529C472.908 222.81 467.862 229.215 462.865 235.665C457.912 242.029 452.727 248.173 447.372 254.204C443.716 258.409 442.149 261.304 440.002 266.67C447.482 270.63 454.962 274.59 462.669 278.67C468.424 273.874 472.358 270.274 476.836 264.586C486.629 252.199 486.629 252.199 492.669 251.336C497.336 252.003 497.336 252.003 500.669 254.086C503.547 258.762 502.566 261.404 501.336 266.67C498.768 270.508 498.768 270.508 495.586 274.086C491.274 278.997 487.523 283.85 484.002 289.337C485.242 290.045 486.481 290.753 487.758 291.482C491.063 293.371 494.369 295.26 497.674 297.149C498.494 297.616 499.315 298.082 500.159 298.563C501.872 299.546 503.578 300.541 505.278 301.548C509.674 304.378 509.674 304.378 514.669 305.337C514.891 304.509 515.112 303.682 515.34 302.83C516.353 299.078 517.386 295.332 518.419 291.587C518.767 290.285 519.115 288.983 519.474 287.641C519.822 286.391 520.17 285.14 520.529 283.852C520.843 282.7 521.157 281.548 521.481 280.361C522.759 277.107 523.966 275.518 526.669 273.336C530.889 271.782 532.751 271.79 537.003 273.336C540.355 276.316 540.893 278.073 541.395 282.454C541.273 288.427 539.152 294.028 537.336 299.67C536.548 302.16 535.77 304.653 535.003 307.149C534.652 308.242 534.301 309.335 533.94 310.46C533.037 313.56 533.037 313.56 534.669 317.337C537.953 319.364 541.161 321.171 544.586 322.92C545.512 323.411 546.437 323.901 547.391 324.407C552.111 327.077 552.111 327.077 557.336 328.003C560.382 318.205 563.42 308.404 566.451 298.601C567.483 295.264 568.518 291.929 569.555 288.594C571.043 283.807 572.524 279.017 574.003 274.227C574.47 272.731 574.936 271.235 575.417 269.694C575.844 268.306 576.271 266.918 576.711 265.488C577.09 264.266 577.469 263.043 577.86 261.783C578.837 258.561 578.837 258.561 578.67 254.67C577.894 254.269 577.119 253.868 576.32 253.455C554.17 241.988 532.239 230.16 510.404 218.107C509.054 217.365 507.704 216.622 506.313 215.857C503.708 214.424 501.106 212.987 498.507 211.544C497.344 210.905 496.18 210.266 494.982 209.607C493.953 209.038 492.925 208.47 491.866 207.884C489.403 206.477 489.403 206.477 486.669 206.669Z" fill="#EF3636"/>
<path d="M288.001 166.666C293.602 170.491 294.423 175.057 295.634 181.362C295.838 182.535 296.042 183.708 296.251 184.916C296.471 186.064 296.69 187.211 296.915 188.393C302.239 216.994 303.701 249.871 287.204 275.281C284.926 278.323 282.535 281.169 280.001 284C279.223 284.902 278.444 285.805 277.642 286.734C258.663 307.312 228.266 317.409 202.478 326.321C177.796 334.874 151.486 347.343 137.808 370.782C135.167 376.459 133.44 382.275 131.896 388.334C130.644 392.068 129.863 393.751 126.667 396.001C120.908 396.641 117.685 396.969 112.667 394.084C108.784 387.451 109.986 381.413 111.75 374.297C120.876 345.622 144.478 328.249 170.068 314.797C181.272 309.301 192.862 305.307 204.672 301.313C215.552 297.596 225.754 293.217 236.001 288C237.323 287.361 238.645 286.721 240.006 286.063C255.549 278.194 268.54 266.459 274.418 249.75C280.384 230.55 277.563 210.292 273.782 190.982C272.406 183.742 271.548 177.872 273.335 170.666C277.439 165.772 281.912 165.905 288.001 166.666Z" fill="#EF3636"/>
<path d="M253.001 564.668C257.674 565.387 261.793 566.673 266.21 568.329C281.693 573.31 303.97 572.684 318.668 565.335C324.072 564.614 326.051 564.879 330.502 568.168C333.335 572.001 333.335 572.001 334.168 576.001C333.327 580.039 332.376 582.351 329.273 585.116C309.906 596.659 281.125 595.866 259.918 590.564C252.855 588.347 246.91 586.364 242.668 580.001C242.085 576.168 242.085 576.168 242.668 572.001C245.816 567.742 247.725 565.627 253.001 564.668Z" fill="#EF3636"/>
<path d="M343.752 422.335C344.86 422.355 345.969 422.376 347.111 422.397C350.668 422.668 350.668 422.668 354.267 423.345C360.198 424.229 366.015 424.194 372.002 424.168C373.755 424.176 373.755 424.176 375.544 424.184C381.643 424.174 387.325 423.818 393.335 422.668C405.079 421.448 405.079 421.448 410.252 425.418C412.529 430.514 412.151 433.333 410.669 438.668C406.845 444.125 400.772 444.317 394.598 445.424C378.028 448.097 349.343 450.993 334.788 440.902C332.907 438.01 332.801 436.103 332.835 432.668C332.825 431.637 332.814 430.605 332.804 429.543C333.991 423.118 337.744 422.15 343.752 422.335Z" fill="#EF3636"/>
</g>
<defs>
<clipPath id="clip0_938_6866">
<rect width="682.67" height="682.67" fill="white"/>
</clipPath>
</defs>
</svg>
