<svg width="683" height="683" viewBox="0 0 683 683" fill="none" xmlns="http://www.w3.org/2000/svg">
<path d="M357.502 31.5011C358.678 31.4904 359.855 31.4797 361.067 31.4686C383.262 31.3154 405.159 33.4326 426.585 39.5011C427.788 39.8385 428.991 40.176 430.23 40.5236C467.583 51.4652 498.701 72.0335 526.669 98.6681C528.082 99.9752 528.082 99.9752 529.523 101.309C568.473 138.437 592.253 193.533 603.003 245.419C603.204 246.375 603.406 247.332 603.614 248.317C607.682 269.351 608.476 290.726 608.836 312.086C608.887 314.636 608.938 317.186 608.99 319.736C609.425 342.491 609.485 365.244 609.336 388.003C610.169 388.379 611.001 388.755 611.859 389.143C616.308 391.559 617.007 393.875 618.67 398.67C619.277 404.428 619.288 410.134 619.253 415.92C619.28 417.459 619.306 418.998 619.334 420.584C619.329 429.545 618.868 435.478 613.336 442.67C612.016 443.55 610.696 444.43 609.336 445.336C608.732 448.927 608.732 448.927 608.84 453.214C608.831 454.893 608.822 456.572 608.813 458.301C608.823 460.172 608.834 462.043 608.844 463.914C608.841 465.876 608.836 467.838 608.829 469.801C608.818 474.032 608.819 478.263 608.829 482.495C608.845 489.184 608.829 495.873 608.807 502.562C608.759 519.179 608.751 535.796 608.754 552.414C608.756 565.322 608.747 578.229 608.701 591.137C608.678 597.788 608.681 604.439 608.702 611.09C608.71 615.228 608.695 619.365 608.675 623.503C608.67 625.422 608.674 627.342 608.688 629.262C608.706 631.882 608.688 634.502 608.668 637.121C608.668 639.321 608.668 639.321 608.669 641.565C607.842 646.248 606.38 647.785 602.67 650.671C598.177 652.168 594.779 652.179 590.042 652.191C588.722 652.197 588.722 652.197 587.376 652.203C584.422 652.215 581.468 652.217 578.514 652.219C576.398 652.225 574.283 652.232 572.167 652.239C566.415 652.257 560.663 652.265 554.91 652.271C551.317 652.275 547.723 652.28 544.13 652.286C532.887 652.305 521.645 652.317 510.402 652.323C497.423 652.329 484.444 652.352 471.465 652.391C461.433 652.419 451.402 652.433 441.37 652.435C435.378 652.436 429.386 652.444 423.395 652.468C417.757 652.49 412.12 652.493 406.483 652.481C404.416 652.48 402.349 652.486 400.281 652.499C397.455 652.516 394.63 652.508 391.804 652.494C390.224 652.496 388.643 652.498 387.015 652.5C382.036 651.932 378.881 650.702 374.668 648.004C371.497 643.785 371.671 639.755 371.675 634.592C371.67 632.935 371.665 631.279 371.659 629.573C371.667 627.741 371.675 625.909 371.682 624.078C371.681 622.146 371.678 620.214 371.674 618.282C371.668 614.123 371.669 609.964 371.677 605.806C371.687 599.228 371.673 592.65 371.654 586.072C371.603 567.367 371.579 548.662 371.595 529.957C371.603 519.625 371.587 509.294 371.546 498.962C371.521 492.425 371.525 485.889 371.551 479.352C371.561 475.281 371.542 471.211 371.516 467.14C371.509 465.256 371.513 463.372 371.53 461.487C372.038 450.186 372.038 450.186 367.39 440.366C366.272 439.366 365.154 438.367 364.002 437.336C360.523 430.437 360.845 423.83 360.835 416.253C360.802 414.973 360.77 413.694 360.736 412.375C360.697 402.882 362.313 395.624 368.682 388.379C370.668 386.669 370.668 386.669 373.335 386.669C372.895 385.789 372.455 384.909 372.002 384.003C371.68 382.019 371.416 380.025 371.184 378.029C367.324 346.493 360.267 316.782 337.949 292.903C313.669 266.503 303.933 238.586 305.084 202.68C305.484 196.279 306.464 190.047 307.668 183.752C307.982 182.106 307.982 182.106 308.302 180.426C310.075 171.984 312.898 164.04 316.001 156.002C310.944 158.995 305.896 162.004 300.857 165.027C299.149 166.048 297.438 167.066 295.725 168.079C266.476 185.386 247.441 206.172 238.256 239.367C236.322 249.092 235.91 258.72 235.767 268.622C235.751 269.641 235.735 270.66 235.718 271.71C235.654 275.958 235.59 280.206 235.567 284.454C235.38 312.532 225.334 326.673 206.668 346.669C204.528 348.971 202.391 351.274 200.257 353.58C198.906 355.038 197.553 356.495 196.198 357.949C194.339 359.953 192.499 361.973 190.668 364.003C190.04 364.687 189.412 365.371 188.765 366.077C183.58 371.946 182.225 376.303 182.667 384.003C185.566 392.504 194.554 395.95 202.105 399.753C216.046 406.821 227.623 413.976 233.334 429.336C234.4 433.05 234.848 436.387 234.899 440.247C234.917 441.333 234.935 442.419 234.954 443.539C234.975 445.284 234.975 445.284 234.996 447.066C235.04 449.552 235.084 452.038 235.129 454.524C235.192 458.427 235.251 462.329 235.303 466.232C235.357 470.01 235.425 473.788 235.496 477.566C235.507 478.719 235.518 479.872 235.53 481.06C235.751 492.031 237.485 500.214 244.001 509.337C244.001 510.217 244.001 511.097 244.001 512.003C245.765 512.92 247.548 513.8 249.334 514.67C251.291 515.692 251.291 515.692 253.287 516.735C259.823 519.506 266.345 519.233 273.345 519.212C274.737 519.226 276.128 519.241 277.562 519.256C283.486 519.317 289.41 519.332 295.334 519.352C299.671 519.373 304.008 519.417 308.345 519.462C309.681 519.458 311.018 519.454 312.394 519.45C324.1 519.576 324.1 519.576 329.335 524.003C331.421 528.176 331.598 532.818 330.668 537.337C327.895 540.796 326.343 542.492 321.914 543.276C320.029 543.234 320.029 543.234 318.106 543.191C316.056 543.165 316.056 543.165 313.965 543.139C311.838 543.072 311.838 543.072 309.668 543.004C308.23 542.98 306.791 542.955 305.309 542.931C301.761 542.868 298.215 542.78 294.668 542.67C294.699 543.791 294.699 543.791 294.732 544.935C295.506 577.289 295.597 620.027 280.001 649.337C275.162 651.578 272.238 652.325 267.001 651.254C263.038 648.722 261.696 647.096 260.001 642.671C260.684 633.029 262.653 623.71 264.585 614.254C269.285 590.462 271.023 566.868 272.001 542.67C271.032 542.732 270.062 542.794 269.064 542.858C254.379 543.385 242.065 540.275 230.715 530.655C223.335 523.445 218.516 516.164 214.668 506.67C214.494 507.645 214.32 508.62 214.14 509.624C213.337 514.06 212.502 518.49 211.668 522.92C211.394 524.454 211.121 525.988 210.839 527.569C210.414 529.792 210.414 529.792 209.98 532.061C209.603 534.103 209.603 534.103 209.218 536.187C207.793 540.656 205.895 543.289 202.668 546.67C198.049 548.242 195.771 548.461 191.251 546.587C188.522 544.418 186.639 542.509 184.464 539.842C183.431 538.575 182.398 537.309 181.334 536.004C181.396 537.755 181.458 539.506 181.522 541.311C181.572 543.625 181.62 545.939 181.667 548.254C181.712 549.406 181.757 550.558 181.803 551.746C181.888 557.3 181.808 560.51 178.996 565.415C174.851 568.998 172.56 569.32 167.214 568.946C160.31 566.921 156.42 561.398 152.001 556.004C151.333 555.195 150.665 554.387 149.977 553.554C139.331 540.545 130.088 527.1 122.667 512.003C122.245 511.146 121.823 510.289 121.388 509.405C108.873 483.258 104.085 453.969 101.334 425.336C101.196 423.951 101.059 422.565 100.918 421.138C91.2453 319.08 99.0891 196.027 166.923 113.741C202.396 71.6997 246.329 47.3525 300.001 36.0011C301.119 35.7601 302.237 35.519 303.388 35.2706C321.258 31.6213 339.338 31.5933 357.502 31.5011ZM304.001 58.6679C302.189 59.0546 302.189 59.0546 300.339 59.4491C247.276 71.0991 202.221 99.8426 172.339 145.538C132.263 208.342 120.991 284.355 121.084 357.669C121.084 358.76 121.085 359.851 121.085 360.975C121.165 413.965 122.872 474.379 153.334 520.003C154.214 520.443 155.094 520.883 156.001 521.337C156.061 520.237 156.12 519.137 156.182 518.003C159.476 459.194 159.476 459.194 168.001 450.67C177.946 450.189 177.946 450.189 182.667 453.336C184.821 461.642 183.237 467.722 181.069 475.894C177.716 487.461 177.716 487.461 180.923 498.55C183.573 501.921 186.236 505.04 189.334 508.003C189.774 508.003 190.214 508.003 190.668 508.003C190.861 507.186 191.054 506.369 191.254 505.527C197.88 477.918 197.88 477.918 203.501 465.17C204.054 463.908 204.054 463.908 204.618 462.62C206.39 458.795 208.242 455.714 210.949 452.467C213.549 449.585 213.549 449.585 213.751 446.342C212.625 438.445 210.844 432.799 204.444 427.493C199.567 424.04 194.465 421.203 189.126 418.539C168.416 408.181 168.416 408.181 164.001 398.67C163.341 397.275 163.341 397.275 162.667 395.852C158.706 385.896 158.454 375.388 161.917 365.253C165.494 357.282 171.318 351.538 177.334 345.336C179.232 343.233 181.121 341.122 183.001 339.003C186.522 335.065 190.095 331.194 193.756 327.388C194.527 326.58 195.297 325.771 196.091 324.939C197.599 323.36 199.116 321.791 200.645 320.233C211.493 308.828 213.482 297.52 213.569 282.138C213.6 279.962 213.632 277.787 213.665 275.612C213.711 272.245 213.751 268.88 213.769 265.513C213.9 245.016 216.187 225.595 225.501 207.002C226.014 205.951 226.527 204.901 227.055 203.818C232.02 194.008 238.098 185.576 245.334 177.335C246.624 175.848 246.624 175.848 247.939 174.33C260.738 160.59 278.438 151.404 294.501 142.002C297.212 140.407 299.921 138.81 302.63 137.214C304.415 136.162 306.2 135.112 307.985 134.063C315.268 129.781 322.517 125.441 329.75 121.074C336.535 116.985 341.249 114.879 349.335 116.002C352.085 117.918 352.085 117.918 353.335 121.335C353.746 129.692 351.237 135.19 347.168 142.335C331.567 169.882 322.905 205.283 330.46 236.481C335.282 251.665 342.618 263.548 353.694 274.882C383.092 305.458 390.226 343.571 396.002 384.003C458.922 384.003 521.842 384.003 586.669 384.003C586.808 346.417 586.808 346.417 586.253 308.836C586.225 307.832 586.198 306.827 586.17 305.793C585.399 279.148 582.143 253.643 574.669 228.002C574.376 226.994 574.082 225.986 573.779 224.948C561.964 185.365 542.014 148.52 513.336 118.668C512.716 118.007 512.097 117.346 511.459 116.666C475.811 78.7244 425.698 55.9684 373.567 54.2777C350.281 53.7125 326.841 53.6339 304.001 58.6679ZM384.002 405.336C384.002 412.376 384.002 419.416 384.002 426.67C394.562 426.67 405.122 426.67 416.002 426.67C416.002 419.63 416.002 412.59 416.002 405.336C405.442 405.336 394.882 405.336 384.002 405.336ZM437.335 405.336C437.335 412.376 437.335 419.416 437.335 426.67C444.375 426.67 451.415 426.67 458.669 426.67C458.669 419.63 458.669 412.59 458.669 405.336C451.629 405.336 444.589 405.336 437.335 405.336ZM480.002 405.336C480.002 412.376 480.002 419.416 480.002 426.67C487.042 426.67 494.082 426.67 501.336 426.67C501.336 419.63 501.336 412.59 501.336 405.336C494.296 405.336 487.256 405.336 480.002 405.336ZM522.669 405.336C522.669 412.376 522.669 419.416 522.669 426.67C529.709 426.67 536.749 426.67 544.003 426.67C544.003 419.63 544.003 412.59 544.003 405.336C536.963 405.336 529.923 405.336 522.669 405.336ZM565.336 405.336C565.336 412.376 565.336 419.416 565.336 426.67C575.896 426.67 586.456 426.67 597.336 426.67C597.336 419.63 597.336 412.59 597.336 405.336C586.776 405.336 576.216 405.336 565.336 405.336ZM394.669 448.003C394.669 507.843 394.669 567.684 394.669 629.337C401.709 629.337 408.749 629.337 416.002 629.337C416.002 569.497 416.002 509.657 416.002 448.003C408.962 448.003 401.922 448.003 394.669 448.003ZM437.335 448.003C437.335 507.843 437.335 567.684 437.335 629.337C444.375 629.337 451.415 629.337 458.669 629.337C458.669 569.497 458.669 509.657 458.669 448.003C451.629 448.003 444.589 448.003 437.335 448.003ZM480.002 448.003C480.002 507.843 480.002 567.684 480.002 629.337C487.042 629.337 494.082 629.337 501.336 629.337C501.336 569.497 501.336 509.657 501.336 448.003C494.296 448.003 487.256 448.003 480.002 448.003ZM522.669 448.003C522.669 507.843 522.669 567.684 522.669 629.337C529.709 629.337 536.749 629.337 544.003 629.337C544.003 569.497 544.003 509.657 544.003 448.003C536.963 448.003 529.923 448.003 522.669 448.003ZM565.336 448.003C565.336 507.843 565.336 567.684 565.336 629.337C572.376 629.337 579.416 629.337 586.669 629.337C586.669 569.497 586.669 509.657 586.669 448.003C579.629 448.003 572.589 448.003 565.336 448.003Z" fill="#EF3636"/>
</svg>
