<svg width="683" height="683" viewBox="0 0 683 683" fill="none" xmlns="http://www.w3.org/2000/svg">
<g clip-path="url(#clip0_940_6885)">
<path d="M339.835 -0.331868C340.881 -0.333211 341.927 -0.334554 343.004 -0.335938C358.362 -0.322578 373.036 0.263954 388.002 4.00149C389.592 4.38821 391.182 4.77493 392.82 5.17337C428.111 14.5556 459.782 31.3496 486.04 56.7739C488.021 58.6862 490.029 60.5679 492.039 62.4497C508.369 77.9743 520.341 96.0728 530.67 116.002C531.309 117.218 531.309 117.218 531.961 118.458C553.553 160.039 561.378 216.765 549.086 262.169C547.671 268.05 548.159 271.408 551.321 276.586C552.123 277.714 552.926 278.841 553.753 280.003C563.504 294.99 566.414 310.94 563.17 328.519C559.397 342.753 551.069 355.754 538.67 364.003C525.749 371.488 514.864 373.776 500.003 373.337C500.047 375.054 500.092 376.771 500.138 378.54C500.13 385.252 499.186 391.525 497.836 398.087C497.599 399.245 497.361 400.403 497.116 401.596C488.389 441.896 464.18 476.297 430.669 500.004C428.543 501.058 426.406 502.091 424.252 503.087C421.691 504.334 421.691 504.334 420.002 506.671C418.72 512.92 418.531 518.973 418.669 525.337C419.77 525.51 419.77 525.51 420.893 525.686C429.947 527.216 438.892 529.187 447.836 531.254C449.667 531.664 449.667 531.664 451.535 532.083C457.622 533.514 462.928 534.819 468.003 538.671C470.064 542.793 469.727 546.13 469.336 550.671C467.419 553.921 467.419 553.921 464.003 556.004C453.251 556.967 443.187 554.406 432.811 551.886C429.839 551.172 426.86 550.501 423.877 549.832C413.787 547.47 405.792 545.337 398.669 537.337C396.746 533.492 397.21 530.114 397.252 525.837C397.264 524.253 397.276 522.668 397.289 521.035C397.312 519.205 397.312 519.205 397.336 517.337C395.885 517.788 394.434 518.238 392.94 518.702C390.961 519.303 388.982 519.904 387.002 520.504C386.055 520.8 385.108 521.095 384.132 521.4C370.004 525.651 356.06 527.19 341.335 527.171C339.779 527.17 338.222 527.17 336.618 527.17C319.245 526.944 303.28 523.45 286.668 518.671C286.661 519.532 286.653 520.394 286.645 521.282C286.559 530.28 286.447 539.279 286.318 548.277C286.274 551.631 286.237 554.986 286.207 558.341C286.162 563.173 286.092 568.005 286.017 572.838C286.009 574.328 286 575.819 285.992 577.355C285.76 589.746 283.748 598.925 274.668 608.004C270.268 611.084 265.868 614.164 261.335 617.338C260.895 632.298 260.455 647.258 260.002 662.671C428.962 662.011 428.962 662.011 601.337 661.338C598.32 622.2 598.32 622.2 577.826 590.239C566.444 582.309 551.887 579.89 538.586 576.801C537.404 576.525 536.221 576.25 535.003 575.966C530.086 574.822 525.169 573.682 520.243 572.577C516.602 571.757 512.969 570.907 509.336 570.051C508.229 569.811 507.122 569.57 505.982 569.322C499.147 567.681 495.142 565.759 490.669 560.004C489.941 555.54 490.216 553.054 492.003 548.921C496.009 545.541 500.265 545.389 505.336 545.337C510.319 546.002 515.138 547.165 520.013 548.379C521.404 548.714 522.795 549.049 524.228 549.394C527.164 550.107 530.098 550.829 533.029 551.56C537.455 552.659 541.889 553.714 546.326 554.765C572.737 561.168 594.572 569.058 609.91 592.989C615.946 605.527 618.517 618.375 620.337 632.088C620.567 633.673 620.797 635.259 621.035 636.893C625.032 665.778 625.032 665.778 617.337 676.005C609.949 683.373 601.343 683.529 591.412 683.557C589.359 683.542 587.306 683.526 585.253 683.509C583.056 683.516 580.859 683.525 578.662 683.538C572.639 683.563 566.615 683.547 560.592 683.523C554.09 683.506 547.589 683.526 541.088 683.542C528.357 683.566 515.627 683.555 502.896 683.531C492.551 683.512 482.205 683.507 471.86 683.512C469.651 683.513 469.651 683.513 467.398 683.514C464.407 683.515 461.416 683.516 458.425 683.518C431.977 683.529 405.53 683.507 379.082 683.467C353.415 683.429 327.748 683.419 302.082 683.44C274.134 683.462 246.186 683.468 218.238 683.444C215.258 683.442 212.279 683.44 209.299 683.437C207.833 683.436 206.367 683.435 204.856 683.433C194.522 683.426 184.187 683.43 173.853 683.439C161.261 683.449 148.669 683.44 136.077 683.407C129.651 683.39 123.226 683.382 116.8 683.397C110.919 683.41 105.038 683.399 99.1569 683.368C97.0288 683.361 94.9006 683.363 92.7724 683.375C71.8216 683.483 71.8216 683.483 62.9642 675.093C54.5479 662.37 58.8669 644.906 60.9173 630.671C61.1158 629.114 61.3144 627.557 61.5189 625.952C63.536 611.682 67.2641 597.815 76.4174 586.421C80.1244 582.336 80.1244 582.336 81.3341 577.338C78.9938 575.022 78.9938 575.022 76.0841 572.671C70.8023 568.274 70.8023 568.274 69.334 565.338C68.6642 558.002 68.318 551.487 71.5007 544.754C77.5864 538.188 83.4584 532.793 92.6691 531.556C102.42 531.41 109.978 533.587 118.918 537.337C120.187 537.846 121.456 538.355 122.764 538.879C125.853 540.121 128.93 541.385 132.001 542.671C131.955 541.016 131.908 539.36 131.86 537.655C131.823 535.466 131.786 533.277 131.751 531.087C131.717 529.999 131.684 528.91 131.649 527.788C131.573 521.491 131.661 516.98 136.001 512.004C138.491 510.874 138.491 510.874 141.168 510.587C142.483 510.399 142.483 510.399 143.824 510.207C148.229 510.925 150.219 512.859 153.334 516.004C154.176 520.42 154.176 520.42 154.173 525.624C154.176 526.547 154.179 527.471 154.183 528.423C154.181 530.372 154.164 532.321 154.13 534.269C154.085 537.241 154.103 540.207 154.129 543.179C154.12 545.077 154.107 546.976 154.09 548.874C154.075 550.593 154.061 552.311 154.046 554.082C153.224 559.382 151.74 561.568 148.001 565.338C142.53 568.591 137.981 568.097 132.001 566.671C125.075 564.32 118.303 561.567 111.506 558.871C110.126 558.336 108.746 557.801 107.324 557.249C106.077 556.755 104.831 556.26 103.547 555.751C99.938 554.652 97.0818 554.461 93.3341 554.671C93.3341 555.551 93.3341 556.431 93.3341 557.338C95.8712 559.298 95.8712 559.298 99.2092 561.27C101.13 562.457 101.13 562.457 103.09 563.669C105.191 564.948 105.191 564.948 107.334 566.254C108.76 567.136 110.185 568.017 111.654 568.926C117.717 572.675 123.794 576.4 129.883 580.107C132.827 581.9 135.767 583.697 138.704 585.501C141.459 587.192 144.221 588.871 146.991 590.537C154.772 595.322 161.148 599.632 165.334 608.004C165.451 612.087 165.489 616.141 165.465 620.223C165.463 621.295 165.462 622.367 165.461 623.472C165.454 627.483 165.435 631.494 165.418 635.505C165.39 644.47 165.363 653.435 165.334 662.671C189.535 662.671 213.735 662.671 238.668 662.671C238.458 645.479 238.458 645.479 238.188 628.288C238.172 626.12 238.159 623.953 238.147 621.786C238.12 620.675 238.093 619.564 238.065 618.42C238.06 611.174 239.153 607.071 244.002 601.338C247.929 598.411 247.929 598.411 252.168 595.838C258.869 591.83 258.869 591.83 262.668 585.338C263.064 582.536 263.064 582.536 263.007 579.56C263.014 578.414 263.022 577.268 263.03 576.088C263.022 574.218 263.022 574.218 263.013 572.311C263.018 570.99 263.023 569.67 263.028 568.309C263.039 563.941 263.031 559.575 263.022 555.207C263.024 552.175 263.027 549.143 263.03 546.111C263.034 539.757 263.028 533.403 263.016 527.049C263.001 518.895 263.01 510.741 263.025 502.586C263.035 496.326 263.032 490.066 263.025 483.806C263.023 480.798 263.026 477.791 263.032 474.784C263.039 470.586 263.028 466.389 263.013 462.191C263.021 460.317 263.021 460.317 263.03 458.406C263.018 456.693 263.018 456.693 263.007 454.945C263.006 453.953 263.005 452.961 263.004 451.938C262.808 448.906 262.808 448.906 260.002 445.337C256.326 446 256.326 446 253.335 448.004C253.171 451.688 253.087 455.344 253.054 459.03C253.016 461.31 252.978 463.591 252.939 465.871C252.884 469.479 252.835 473.086 252.8 476.694C252.763 480.168 252.702 483.64 252.637 487.113C252.633 488.19 252.628 489.266 252.624 490.376C252.528 494.776 252.325 498.076 250.201 501.981C246.911 505.006 244.416 505.249 240.002 505.337C235.296 503.198 233.565 501.682 230.668 497.337C230.297 494.022 230.297 494.022 230.243 490.029C230.203 487.787 230.203 487.787 230.163 485.5C230.14 483.081 230.14 483.081 230.116 480.613C230.077 478.136 230.077 478.136 230.038 475.608C229.972 471.222 229.917 466.836 229.867 462.45C229.814 457.972 229.745 453.494 229.679 449.017C229.55 440.235 229.437 431.453 229.335 422.67C227.127 422.161 224.902 421.718 222.668 421.337C220.443 423.562 221.134 426.267 221.103 429.325C221.085 430.745 221.067 432.165 221.049 433.628C221.035 435.175 221.021 436.722 221.007 438.316C220.963 441.563 220.918 444.809 220.874 448.056C220.811 453.197 220.751 458.338 220.699 463.479C220.646 468.425 220.577 473.371 220.507 478.316C220.495 479.853 220.484 481.389 220.473 482.972C220.45 484.409 220.428 485.845 220.405 487.325C220.392 488.586 220.378 489.846 220.364 491.144C219.798 496.653 218.623 500.263 214.335 503.837C209.748 505.714 207.376 505.437 202.668 504.004C200.463 502.521 200.463 502.521 198.668 500.004C198.145 495.804 198.145 495.804 198.113 490.556C198.101 489.599 198.09 488.643 198.078 487.657C198.044 484.495 198.039 481.333 198.033 478.17C198.013 475.974 197.992 473.777 197.97 471.58C197.914 465.795 197.88 460.01 197.853 454.224C197.805 444.963 197.724 435.703 197.642 426.443C197.616 423.205 197.601 419.968 197.586 416.731C197.573 414.749 197.559 412.767 197.545 410.785C197.536 409.053 197.528 407.321 197.519 405.537C197.525 401.299 197.525 401.299 196.001 397.337C193.459 396.118 193.459 396.118 190.668 396.003C186.829 399.842 187.649 402.57 187.618 407.946C187.609 408.9 187.6 409.854 187.591 410.837C187.573 412.912 187.561 414.987 187.554 417.062C187.543 420.346 187.516 423.629 187.484 426.913C187.419 433.888 187.376 440.862 187.335 447.837C187.287 455.909 187.231 463.981 187.153 472.053C187.127 475.288 187.115 478.523 187.105 481.758C187.088 483.744 187.07 485.73 187.051 487.717C187.041 489.45 187.031 491.183 187.021 492.968C186.691 497.056 186.307 499.332 184.001 502.671C180.38 504.726 178.081 505.374 173.918 505.171C169.837 503.706 168.081 502.019 165.334 498.671C164.651 495.212 164.651 495.212 164.628 491.253C164.606 489.767 164.584 488.281 164.561 486.751C164.564 485.153 164.566 483.556 164.569 481.91C164.55 480.267 164.531 478.623 164.512 476.93C164.465 472.569 164.441 468.208 164.428 463.847C164.405 457.692 164.342 451.537 164.281 445.382C164.251 442.106 164.23 438.829 164.219 435.553C164.205 433.337 164.205 433.337 164.19 431.076C164.186 429.771 164.181 428.467 164.176 427.123C164.206 423.973 164.206 423.973 162.668 421.337C160.028 421.337 157.388 421.337 154.668 421.337C154.66 422.472 154.66 422.472 154.653 423.629C154.597 431.503 154.505 439.376 154.391 447.248C154.353 450.187 154.325 453.125 154.306 456.064C154.278 460.287 154.216 464.51 154.147 468.733C154.145 470.047 154.144 471.361 154.142 472.715C153.947 481.833 153.947 481.833 150.784 486.161C147.796 488.14 146.225 488.761 142.668 488.754C141.348 488.798 141.348 488.798 140.001 488.842C135.638 487.471 134.391 485.2 132.001 481.337C131.213 476.901 131.253 472.526 131.293 468.03C131.288 466.739 131.282 465.448 131.277 464.119C131.274 461.39 131.283 458.661 131.306 455.932C131.334 451.791 131.306 447.653 131.272 443.511C131.275 440.851 131.282 438.19 131.293 435.53C131.282 434.307 131.271 433.084 131.26 431.824C131.399 422.072 133.342 412.425 140.048 404.998C140.94 404.422 141.832 403.847 142.751 403.253C143.647 402.647 144.542 402.04 145.465 401.415C150.073 398.851 153.749 398.52 158.918 398.587C160.119 398.599 161.321 398.611 162.558 398.623C163.933 398.646 163.933 398.646 165.334 398.67C165.444 397.543 165.554 396.415 165.668 395.253C167.349 387.546 169.959 382.818 176.251 378.253C178.107 377.14 178.107 377.14 180.001 376.003C180.441 375.123 180.881 374.243 181.335 373.337C180.365 373.398 179.396 373.46 178.397 373.524C161.813 374.119 148.661 369.418 136.001 358.67C125.207 348.53 118.1 335.094 116.933 320.227C116.883 303.261 119.387 288.19 131.168 275.169C133.767 272.045 133.767 272.045 133.168 267.669C132.783 266.019 132.398 264.369 132.001 262.669C131.553 260.726 131.108 258.781 130.668 256.836C130.448 255.946 130.228 255.055 130.001 254.138C119.065 197.239 134.435 137.042 165.782 89.2884C168.449 85.6964 170.427 84.087 174.668 82.5852C179.467 82.6852 181.572 83.7422 185.335 86.6686C188.001 90.6686 188.001 90.6686 187.845 95.0384C186.556 100.476 184.342 104.272 181.168 108.752C159.136 141.651 150.396 178.92 150.418 218.169C150.416 220.627 150.416 220.627 150.415 223.134C150.485 235.174 151.271 246.804 153.334 258.669C154.127 258.381 154.919 258.092 155.735 257.794C164.475 254.859 172.152 254.198 181.335 254.669C181.293 252.945 181.252 251.222 181.21 249.445C181.267 212.907 199.948 178.321 224.001 152.002C224.89 151.019 225.779 150.036 226.694 149.023C257.869 116.207 300.041 103.646 344.002 101.335C317.11 77.2085 275.261 57.0126 239.22 52.7726C233.436 53.4873 230.137 56.0045 225.835 59.6684C225.106 60.2597 224.377 60.8509 223.626 61.4601C220.288 64.1753 217.003 66.9494 213.72 69.731C210.668 72.0018 210.668 72.0018 206.668 72.6685C201.506 71.8082 199.401 70.6684 196.001 66.6685C194.964 61.3942 194.559 58.2905 197.449 53.7049C232.29 16.2996 290.589 -0.288203 339.835 -0.331868ZM268.002 34.6683C267.562 35.5483 267.122 36.4283 266.668 37.335C268.014 37.7269 269.36 38.1187 270.746 38.5225C297.946 46.8194 323.494 59.5548 346.669 76.0018C347.408 76.5185 348.147 77.0352 348.908 77.5676C356.751 83.0836 363.989 89.0697 371.002 95.5853C380.79 104.657 389.012 110.805 401.539 115.585C440.942 130.726 468.172 160.637 486.253 197.752C494.182 216.068 497.5 234.993 500.003 254.669C501.369 254.846 502.736 255.023 504.143 255.206C505.958 255.444 507.772 255.681 509.586 255.919C510.933 256.093 510.933 256.093 512.308 256.271C517.137 256.907 521.907 257.643 526.67 258.669C527.325 256.926 527.959 255.174 528.586 253.419C528.942 252.445 529.298 251.47 529.664 250.466C541.505 205.74 527.078 151.895 504.736 112.94C478.455 68.9678 435.389 38.831 386.377 25.5953C348.165 16.0401 304.163 18.4617 268.002 34.6683ZM237.002 169.752C221.675 187.243 210.94 208.094 205.335 230.669C204.995 231.999 204.995 231.999 204.649 233.355C201.78 246.445 202.334 259.696 202.408 273.018C202.413 275.688 202.416 278.357 202.419 281.027C202.429 288.008 202.455 294.989 202.485 301.971C202.512 309.113 202.524 316.254 202.538 323.396C202.566 337.376 202.612 351.356 202.668 365.337C203.912 364.921 205.157 364.505 206.439 364.077C224.61 358.031 241.012 356.535 258.668 365.337C270.775 372.457 278.479 383.301 282.585 396.67C285.43 409.145 284.2 419.649 280.486 431.816C279.62 436.13 279.62 436.13 281.929 440.201C284.468 445.821 284.634 450.94 284.684 457.04C284.708 458.122 284.732 459.204 284.757 460.318C284.828 463.741 284.874 467.164 284.918 470.587C284.963 472.921 285.009 475.256 285.056 477.59C285.169 483.283 285.259 488.977 285.335 494.671C286.063 494.922 286.791 495.174 287.54 495.433C288.513 495.77 289.485 496.106 290.487 496.452C291.502 496.803 292.517 497.154 293.563 497.515C295.647 498.237 297.73 498.965 299.811 499.696C312.966 504.159 325.722 505.833 339.585 505.754C340.983 505.746 342.38 505.739 343.82 505.731C382.433 505.132 414.838 488.622 442.075 462.009C465.612 437.21 478.842 403.505 478.884 369.465C478.891 368.171 478.897 366.877 478.904 365.545C478.924 361.282 478.933 357.02 478.94 352.758C478.944 351.293 478.948 349.828 478.952 348.318C478.972 340.556 478.984 332.794 478.99 325.032C478.997 317.066 479.029 309.101 479.067 301.135C479.092 294.965 479.099 288.796 479.101 282.627C479.105 279.693 479.115 276.76 479.133 273.826C479.377 230.214 467.893 194.544 437.216 162.471C412.117 137.245 376.629 123.768 341.419 123.669C300.288 123.714 265.201 140.208 237.002 169.752ZM148.715 286.966C140.62 296.339 137.998 306.113 138.131 318.269C139.366 328.402 144.449 337.139 151.834 344.086C161.563 351.641 168.516 352.003 181.335 352.003C181.335 326.923 181.335 301.843 181.335 276.003C168.042 276.003 158.573 277.807 148.715 286.966ZM500.003 276.003C500.003 301.083 500.003 326.163 500.003 352.003C513.668 352.003 521.488 350.455 531.94 341.863C539.144 334.205 542.894 324.437 543.336 314.003C542.935 303.885 539.342 293.81 532.003 286.67C521.019 278.29 514.231 276.003 500.003 276.003ZM216.001 382.67C214.455 387.308 214.969 388.46 216.585 392.92C216.968 393.998 217.351 395.075 217.746 396.186C218.05 397.006 218.355 397.825 218.668 398.67C220.071 398.698 220.071 398.698 221.501 398.727C230.582 399.184 237.071 400.591 244.002 406.67C248.537 412.161 250.372 417.212 252.002 424.004C256.622 423.344 256.622 423.344 261.335 422.67C264.846 415.429 264.995 408.906 262.418 401.337C258.495 391.99 253.809 385.87 244.611 381.264C235.113 377.609 225.01 377.499 216.001 382.67ZM99.0894 592.629C87.4563 606.102 84.0154 619.287 81.8341 636.671C81.6553 638.014 81.4766 639.356 81.2924 640.739C80.4029 647.665 79.785 654.356 80.0008 661.338C83.166 662.921 85.0707 662.832 88.6004 662.823C89.8281 662.823 91.0559 662.823 92.3208 662.822C93.6487 662.816 94.9765 662.809 96.3446 662.802C97.7022 662.8 99.0598 662.798 100.458 662.796C104.806 662.788 109.153 662.772 113.501 662.755C116.444 662.748 119.386 662.742 122.329 662.736C129.553 662.722 136.777 662.699 144.001 662.671C147.797 636.018 147.797 636.018 141.73 610.956C135.971 605.489 129.17 602.518 121.768 599.847C117.701 598.305 114.268 596.089 110.668 593.671C104.907 589.988 104.907 589.988 99.0894 592.629Z" fill="#EF3636"/>
<path d="M595.909 404.644C598.458 407.746 599.876 410.284 601.555 413.889C609.55 431.05 617.361 439.166 634.67 446.752C639.371 448.958 643.929 451.545 647.17 455.67C648.448 460.273 649.181 464.706 648.003 469.337C642.191 478.263 633.767 481.713 624.409 486.243C616.18 490.468 612.099 494.416 608.003 502.67C607.091 504.319 606.175 505.965 605.253 507.608C603.951 509.983 602.657 512.361 601.388 514.754C598.515 519.948 595.69 523.47 590.669 526.67C587.628 527.426 587.628 527.426 584.669 527.42C583.693 527.45 582.717 527.479 581.711 527.509C576.94 526.194 575.129 523.831 572.003 520.004C570.298 516.806 568.767 513.546 567.216 510.271C558.563 492.525 547.497 485.16 529.562 477.633C526.195 475.736 524.672 473.954 522.669 470.67C521.329 465.5 521.046 462.303 522.586 457.17C526.324 451.959 530.45 449.734 536.002 446.67C537.59 445.745 539.174 444.815 540.758 443.883C542.45 442.895 544.142 441.907 545.836 440.92C546.661 440.437 547.487 439.954 548.337 439.457C554.361 436.003 554.361 436.003 557.336 436.003C557.642 435.154 557.948 434.305 558.263 433.43C560.653 427.806 563.557 422.52 566.503 417.17C567.082 416.089 567.661 415.008 568.258 413.894C568.83 412.854 569.402 411.814 569.992 410.743C570.763 409.33 570.763 409.33 571.549 407.888C574.082 404.271 577.073 402.052 581.086 400.253C586.601 399.78 591.528 401.283 595.909 404.644ZM584.003 430.67C583.31 431.955 582.617 433.241 581.904 434.566C580.965 436.268 580.026 437.969 579.086 439.67C578.633 440.516 578.18 441.361 577.714 442.232C573.098 450.514 567.266 454.578 558.919 459.003C557.618 459.698 556.317 460.392 554.976 461.107C553.995 461.623 553.014 462.139 552.002 462.67C552.002 463.55 552.002 464.43 552.002 465.337C553.307 465.859 554.612 466.382 555.956 466.92C571.213 473.662 577.282 482.329 584.003 497.337C588.237 493.498 590.474 490.01 592.836 484.837C597.183 476.55 602.513 473.441 610.669 469.337C612.299 468.309 613.914 467.258 615.503 466.17C616.548 465.455 617.593 464.74 618.669 464.003C615.766 461.653 613.077 459.881 609.69 458.274C596.661 451.996 592.232 443.382 586.669 430.67C585.789 430.67 584.909 430.67 584.003 430.67Z" fill="#EF3636"/>
<path d="M80.5002 332.833C81.5005 332.796 82.5009 332.758 83.5315 332.719C88.0298 333.6 90.0855 335.455 93.3336 338.667C94.9572 341.616 96.4782 344.623 97.917 347.667C102.842 357.247 109.035 361.351 118.568 365.932C123.23 368.284 125.905 369.728 127.584 374.735C127.721 375.73 127.859 376.725 128 377.75C128.165 378.735 128.33 379.72 128.5 380.735C127.742 385.69 124.946 388.744 121.334 392C116.974 394.459 116.974 394.459 112.25 396.667C102.697 401.544 98.6286 407.743 94.068 417.235C92.2814 420.776 91.1187 422.971 88.0003 425.334C82.8784 426.687 79.7257 427.027 74.6825 425.313C69.3819 421.82 68.0443 418.144 65.5002 412.5C59.955 401.328 52.9058 396.793 41.8386 391.599C37.3333 389.334 37.3333 389.334 34.6667 385.334C34.1719 382.552 34.1719 382.552 34.0833 379.5C34.0301 378.5 33.9768 377.5 33.9219 376.469C35.054 371.703 37.6208 369.761 41.3334 366.667C44.0761 365.342 46.8574 364.094 49.6667 362.917C59.7735 357.783 63.4356 350.554 68.2606 340.599C71.3908 334.616 73.9442 332.945 80.5002 332.833ZM80.0002 364C76.9123 368.295 76.9123 368.295 76.0002 373.334C74.9827 373.691 73.9652 374.049 72.9169 374.417C69.4504 375.949 67.864 377.292 65.3335 380C66.0571 380.5 66.7807 381.001 67.5262 381.516C73.0389 385.459 76.7756 388.576 80.0002 394.667C80.8802 394.667 81.7602 394.667 82.6669 394.667C83.3544 393.237 84.0419 391.807 84.7502 390.334C87.9117 384.707 91.5969 382.758 97.3336 380C96.3436 379.23 95.3536 378.46 94.3336 377.667C89.2989 373.548 85.2602 370.051 82.6669 364C81.7869 364 80.9069 364 80.0002 364Z" fill="#EF3636"/>
<path d="M316.918 417.253C334.081 421.55 349.528 421.117 366.517 416.216C371.784 414.802 373.983 414.42 379.283 416.352C382.668 418.669 382.668 418.669 384.002 421.336C384.774 429.674 384.774 429.674 381.84 433.456C378.056 436.495 374.825 437.59 370.168 438.92C367.966 439.567 367.966 439.567 365.72 440.227C345.495 445.343 320.309 445.199 301.496 435.321C298.668 433.336 298.668 433.336 297.335 430.67C296.564 422.346 296.564 422.346 299.751 418.169C305.887 413.612 310.119 415.388 316.918 417.253Z" fill="#EF3636"/>
<path d="M430.669 244.001C433.595 246.525 435.579 248.397 437.169 251.917C437.469 256.878 435.698 260.146 432.502 263.834C427.78 266.071 423.619 264.903 418.668 264.001C411.252 262.771 405.786 262.655 398.559 264.761C394.272 265.722 390.853 265.15 386.668 264.001C382.909 260.848 382.697 258.897 382.085 254.001C382.778 248.459 383.754 247.444 388.002 244.001C402.302 238.526 416.368 238.526 430.669 244.001Z" fill="#EF3636"/>
<path d="M296.335 247C298.668 250.667 298.668 250.667 298.668 255.5C296.784 261.859 296.784 261.859 293.335 264C287.404 265.793 283.471 264.893 277.611 263.224C270.543 261.885 263.158 263.676 256.168 264.917C251.796 265.354 250.106 265.341 246.668 262.667C243.872 259.072 244.008 257.209 244.251 252.583C245.368 247.857 245.629 246.806 249.335 244C264.987 238.797 282.156 237.184 296.335 247Z" fill="#EF3636"/>
<path d="M409.335 293.917C410.215 293.916 411.095 293.914 412.002 293.912C416.183 295.096 417.527 296.372 420.002 300.001C420.831 304.65 420.806 309.205 420.752 313.917C420.784 315.173 420.815 316.428 420.848 317.722C420.835 323.965 420.69 327.059 416.924 332.214C413.335 334.667 413.335 334.667 408.502 334.667C404.247 333.407 402.532 332.849 400.002 329.334C397.668 324.667 398.309 319.393 398.252 314.251C398.213 313.11 398.174 311.97 398.134 310.795C398.079 305.269 398.219 302.114 401.028 297.24C404.155 294.535 405.278 293.783 409.335 293.917Z" fill="#EF3636"/>
<path d="M271.252 294.251C272.817 294.218 272.817 294.218 274.413 294.184C278.113 294.797 279.057 295.721 281.335 298.668C282.221 303.709 282.014 308.808 282.002 313.918C282.04 315.318 282.077 316.718 282.116 318.16C282.142 328.38 282.142 328.38 278.262 332.97C273.363 335.285 270.497 334.769 265.335 333.335C261.575 330.703 260.826 328.407 260.002 324.001C259.843 320.699 259.768 317.391 259.752 314.085C259.723 311.489 259.723 311.489 259.694 308.84C260.227 300.448 262.091 294.296 271.252 294.251Z" fill="#EF3636"/>
</g>
<defs>
<clipPath id="clip0_940_6885">
<rect width="682.67" height="682.67" fill="white"/>
</clipPath>
</defs>
</svg>
