<svg width="683" height="683" viewBox="0 0 683 683" fill="none" xmlns="http://www.w3.org/2000/svg">
<path d="M159.194 160.909C160.728 161.139 162.262 161.37 163.842 161.607C167.062 162.093 170.281 162.584 173.5 163.08C178.425 163.837 183.352 164.574 188.28 165.31C191.418 165.786 194.556 166.263 197.694 166.742C199.164 166.962 200.633 167.181 202.147 167.407C204.204 167.727 204.204 167.727 206.303 168.054C208.103 168.329 208.103 168.329 209.94 168.61C218.422 170.423 218.422 170.423 221.335 173.336C221.668 177.919 221.668 177.919 221.335 182.669C212.378 188.64 196.823 183.354 186.626 181.737C185.288 181.525 183.949 181.313 182.57 181.095C176.968 180.204 171.366 179.313 165.77 178.382C139.095 173.233 139.095 173.233 114.329 182.034C105.763 189.277 100.735 196.849 99.5791 208.112C98.9922 224.374 105.313 234.063 115.168 246.503C117.093 248.979 119.017 251.456 120.939 253.935C121.902 255.173 122.865 256.412 123.858 257.687C128.057 263.14 132.114 268.692 136.168 274.253C142.946 283.519 149.916 292.612 157.002 301.645C163.386 309.81 169.534 318.134 175.647 326.503C181.162 334.026 186.83 341.413 192.585 348.753C239.059 408.211 240.298 468.32 240.093 540.935C240.079 546.417 240.073 551.898 240.067 557.379C240.053 568.032 240.03 578.685 240.002 589.338C241.645 588.979 243.288 588.62 244.981 588.25C257.059 585.641 269.054 583.207 281.335 581.754C282.561 581.599 283.786 581.443 285.049 581.283C298.711 579.583 312.229 578.461 326.002 578.4C328.134 578.386 328.134 578.386 330.31 578.372C334.874 578.349 339.438 578.341 344.002 578.338C346.336 578.336 346.336 578.336 348.718 578.334C371.389 578.347 393.603 578.832 416.002 582.671C417.357 582.899 418.712 583.127 420.108 583.363C442.384 587.195 442.384 587.195 446.669 589.338C446.666 588.526 446.663 587.714 446.66 586.877C446.044 409.343 446.044 409.343 494.67 349.337C497.285 346.09 499.894 342.839 502.503 339.587C503.496 338.35 503.496 338.35 504.51 337.089C509.524 330.829 514.404 324.475 519.253 318.087C525.616 309.704 532.161 301.499 538.836 293.363C544.78 286.091 550.486 278.656 556.149 271.164C560.53 265.394 565.029 259.749 569.647 254.168C585.819 235.144 585.819 235.144 590.503 211.289C588.865 200.246 583.416 191.699 574.753 184.753C561.337 175.58 545.673 178.738 530.441 180.466C527.046 180.837 523.652 181.208 520.258 181.578C514.944 182.166 509.631 182.757 504.317 183.352C499.165 183.926 494.011 184.489 488.857 185.049C487.267 185.231 485.676 185.413 484.038 185.601C481.814 185.841 481.814 185.841 479.546 186.086C478.247 186.231 476.947 186.376 475.609 186.526C471.886 186.674 468.914 186.363 465.336 185.336C462.669 182.669 462.669 182.669 462.169 178.753C462.669 174.669 462.669 174.669 464.913 172.488C468.52 170.365 471.113 169.914 475.267 169.481C476.724 169.321 478.181 169.161 479.681 168.996C481.254 168.842 482.826 168.688 484.446 168.529C486.077 168.357 487.709 168.185 489.391 168.008C493.737 167.554 498.085 167.117 502.434 166.686C506.788 166.248 511.139 165.78 515.49 165.318C568.684 159.781 568.684 159.781 587.826 173.503C599.245 183.541 605.214 196.605 607.123 211.55C607.873 230.464 598.748 244.885 586.882 258.743C582.008 264.448 577.444 270.351 572.92 276.336C566.412 284.929 559.723 293.343 552.892 301.681C548.476 307.083 544.15 312.538 539.92 318.087C535.226 324.242 530.442 330.309 525.586 336.337C517.536 346.346 509.723 356.525 501.968 366.765C500.207 369.07 498.421 371.351 496.617 373.623C467.154 411.338 463.929 454.793 463.581 501.02C463.553 504.111 463.525 507.203 463.497 510.294C463.424 518.407 463.358 526.519 463.293 534.632C463.24 541.206 463.181 547.781 463.122 554.356C463.051 562.272 462.982 570.187 462.914 578.103C462.901 579.584 462.889 581.064 462.876 582.589C462.851 585.47 462.827 588.35 462.804 591.231C462.782 593.953 462.758 596.676 462.731 599.398C462.677 605.45 462.667 611.492 462.795 617.543C462.813 618.592 462.83 619.642 462.848 620.723C462.9 623.484 462.975 626.244 463.051 629.004C462.642 633.653 462.041 635.495 458.669 638.671C454.669 639.338 454.669 639.338 450.669 638.671C447.875 635.816 446.763 634.02 446.215 630.04C446.236 628.839 446.257 627.638 446.279 626.401C446.292 625.094 446.304 623.788 446.318 622.442C446.368 620.411 446.368 620.411 446.419 618.338C446.437 616.963 446.455 615.588 446.474 614.171C446.521 610.782 446.587 607.394 446.669 604.005C444.987 603.838 443.304 603.671 441.57 603.499C433.19 602.569 424.94 600.982 416.661 599.403C393.179 595.135 369.738 594.171 345.919 594.255C343.817 594.258 343.817 594.258 341.674 594.261C310.376 594.34 280.401 597.618 249.669 603.578C246.411 604.041 243.288 604.076 240.002 604.005C240.016 604.913 240.03 605.821 240.044 606.756C240.099 610.867 240.134 614.977 240.168 619.088C240.202 621.232 240.202 621.232 240.236 623.419C240.245 624.789 240.253 626.16 240.262 627.572C240.276 628.836 240.29 630.1 240.304 631.402C240.002 634.671 240.002 634.671 237.335 638.671C232.668 639.088 232.668 639.088 228.002 638.671C224.253 634.922 224.935 631.371 224.931 626.352C224.92 625.352 224.908 624.352 224.897 623.323C224.862 619.984 224.846 616.645 224.83 613.307C224.809 610.957 224.786 608.608 224.763 606.259C224.715 601.266 224.675 596.273 224.641 591.279C224.587 583.521 224.514 575.763 224.436 568.005C224.423 566.731 224.411 565.458 224.398 564.145C224.372 561.586 224.346 559.028 224.321 556.469C224.283 552.656 224.247 548.843 224.211 545.03C224.047 527.57 223.857 510.111 223.49 492.654C223.443 490.379 223.4 488.105 223.363 485.83C223.037 466.533 222.252 446.827 216.918 428.17C216.628 427.117 216.337 426.065 216.037 424.98C213.579 416.336 210.567 408.109 206.668 400.004C205.804 398.104 205.804 398.104 204.923 396.165C198.035 382.156 188.176 370.273 178.609 358.026C175.012 353.397 171.501 348.706 168.001 344.003C161.83 335.742 155.591 327.534 149.335 319.337C142.44 310.304 135.579 301.248 128.781 292.142C124.088 285.868 119.334 279.643 114.565 273.427C81.9909 230.9 81.9909 230.9 82.6675 208.003C84.7161 193.246 91.132 178.786 103.168 169.581C121.417 157.164 138.129 157.654 159.194 160.909Z" fill="#EF3636"/>
<path d="M500.581 94.2992C502.091 94.289 502.091 94.289 503.631 94.2786C506.965 94.26 510.299 94.2613 513.633 94.2644C515.957 94.2592 518.281 94.2534 520.604 94.2471C525.484 94.2371 530.363 94.2375 535.242 94.2445C541.466 94.2522 547.689 94.2298 553.913 94.1987C558.719 94.179 563.525 94.1779 568.33 94.1821C570.623 94.1814 572.915 94.1745 575.208 94.161C593.321 94.0676 608.897 95.2435 622.847 107.915C634.776 120.241 636.803 133.642 636.693 150.322C636.7 152.113 636.71 153.904 636.721 155.695C636.746 160.517 636.736 165.337 636.719 170.158C636.706 175.23 636.718 180.302 636.727 185.374C636.736 193.887 636.724 202.4 636.698 210.913C636.669 220.723 636.679 230.531 636.708 240.34C636.732 248.798 636.736 257.256 636.722 265.714C636.713 270.75 636.712 275.785 636.73 280.821C636.745 285.558 636.734 290.294 636.704 295.031C636.694 297.574 636.709 300.118 636.726 302.661C636.584 317.269 633.198 330.689 622.67 341.333C613.77 348.598 604.619 353.599 592.998 353.427C591.809 353.414 590.62 353.4 589.396 353.386C588.496 353.369 587.596 353.351 586.669 353.333C586.673 354.778 586.677 356.223 586.681 357.712C586.769 392.842 586.835 427.972 586.877 463.101C586.897 480.09 586.925 497.078 586.971 514.067C587.011 528.87 587.037 543.674 587.046 558.478C587.051 566.319 587.063 574.161 587.092 582.002C587.119 589.378 587.128 596.754 587.122 604.13C587.123 606.842 587.131 609.553 587.146 612.264C587.166 615.958 587.161 619.652 587.15 623.346C587.162 624.425 587.174 625.504 587.186 626.616C587.151 630.961 586.951 634.138 584.895 638.011C582.669 640.001 582.669 640.001 578.586 640.501C574.669 640.001 574.669 640.001 572.003 637.335C571.745 633.59 571.656 629.978 571.682 626.232C571.68 625.07 571.677 623.908 571.675 622.711C571.671 618.794 571.685 614.878 571.7 610.962C571.701 608.163 571.7 605.365 571.699 602.566C571.698 594.95 571.714 587.333 571.732 579.716C571.749 571.764 571.751 563.811 571.754 555.858C571.762 540.79 571.784 525.722 571.811 510.653C571.84 493.502 571.855 476.351 571.869 459.201C571.896 423.911 571.943 388.622 572.003 353.333C570.494 353.364 568.985 353.395 567.43 353.427C565.454 353.452 563.478 353.476 561.503 353.5C560.507 353.522 559.512 353.545 558.487 353.568C555.88 353.591 553.273 353.471 550.669 353.333C548.003 350.667 548.003 350.667 547.586 346.75C548.003 342.667 548.003 342.667 549.426 340.445C553.391 337.708 556.876 338.151 561.643 338.125C562.589 338.11 563.535 338.096 564.509 338.081C567.535 338.035 570.56 338.015 573.586 338C592.937 338.608 592.937 338.608 609.951 330.646C610.793 329.663 611.635 328.679 612.503 327.667C613.366 326.697 614.229 325.728 615.117 324.729C621.107 315.562 620.391 305.53 620.369 294.953C620.379 292.402 620.379 292.402 620.39 289.799C620.408 285.154 620.408 280.51 620.405 275.865C620.404 271.978 620.41 268.092 620.417 264.205C620.431 255.032 620.432 245.859 620.424 236.686C620.416 227.242 620.432 217.798 620.461 208.354C620.484 200.227 620.492 192.1 620.488 183.973C620.485 179.127 620.489 174.282 620.507 169.436C620.527 164.03 620.515 158.624 620.499 153.218C620.51 151.625 620.52 150.033 620.53 148.392C620.462 137.638 619.198 130.079 613.086 120.999C603.695 111.816 593.272 110.483 580.501 110.434C579.516 110.425 578.531 110.416 577.516 110.407C575.39 110.388 573.264 110.372 571.139 110.359C567.777 110.337 564.415 110.306 561.053 110.273C551.499 110.178 541.946 110.098 532.392 110.03C526.538 109.987 520.685 109.932 514.832 109.869C512.601 109.848 510.37 109.832 508.14 109.82C505.031 109.804 501.922 109.772 498.814 109.736C497.888 109.735 496.963 109.735 496.009 109.734C489.64 109.636 489.64 109.636 486.669 106.665C486.252 101.999 486.252 101.999 486.669 97.3321C491.492 94.1168 495.009 94.2798 500.581 94.2992Z" fill="#EF3636"/>
<path d="M96.5403 94.4509C97.5102 94.4443 98.4801 94.4377 99.4794 94.4309C102.671 94.4115 105.862 94.4023 109.053 94.3949C111.276 94.3873 113.499 94.3796 115.721 94.3719C120.373 94.3579 125.024 94.3501 129.675 94.3455C135.64 94.3381 141.605 94.306 147.569 94.2682C152.156 94.2434 156.743 94.2364 161.329 94.2343C163.529 94.2303 165.729 94.2196 167.929 94.2021C170.999 94.1794 174.069 94.1818 177.14 94.1905C178.887 94.1857 180.635 94.1808 182.435 94.1758C186.668 94.6658 186.668 94.6658 189.237 96.4403C191.448 99.8802 191.091 102.69 190.668 106.666C186.887 110.447 184.374 109.684 179.076 109.715C178.159 109.724 177.241 109.734 176.296 109.743C174.3 109.761 172.303 109.773 170.307 109.78C167.139 109.791 163.971 109.818 160.803 109.85C154.063 109.914 147.324 109.958 140.584 109.999C132.804 110.047 125.025 110.103 117.245 110.18C114.139 110.207 111.034 110.218 107.929 110.229C93.3407 110.333 80.2631 110.477 69.3338 121.333C64.1417 128.28 62.5062 134.73 62.4798 143.251C62.4722 144.723 62.4646 146.196 62.4567 147.714C62.4553 149.323 62.4538 150.933 62.4522 152.592C62.4456 154.292 62.439 155.992 62.4322 157.744C62.4147 162.406 62.4061 167.067 62.4002 171.729C62.3962 174.644 62.3908 177.559 62.3848 180.474C62.3666 189.604 62.3537 198.733 62.3485 207.863C62.3426 218.386 62.3192 228.909 62.2805 239.431C62.2517 247.575 62.2383 255.719 62.2365 263.863C62.2351 268.723 62.2273 273.582 62.2034 278.441C62.1772 283.866 62.1832 289.292 62.1918 294.718C62.1734 297.116 62.1734 297.116 62.1546 299.563C62.2096 310.596 63.3896 319.781 70.9171 328.417C71.6235 329.264 72.3299 330.112 73.0578 330.985C84.143 339.833 98.7511 337.95 112.153 338.015C115.111 338.036 118.069 338.08 121.027 338.125C123.659 338.139 123.659 338.139 126.343 338.154C130.667 338.667 130.667 338.667 133.244 340.446C135.447 343.884 135.09 346.696 134.667 350.667C132.001 353.334 132.001 353.334 127.074 353.594C125.105 353.576 123.136 353.545 121.167 353.5C120.162 353.488 119.156 353.476 118.12 353.464C115.636 353.432 113.152 353.385 110.667 353.334C110.67 354.795 110.672 356.256 110.675 357.762C110.734 393.269 110.778 428.776 110.805 464.283C110.819 481.454 110.838 498.625 110.868 515.795C110.895 530.756 110.912 545.717 110.918 560.678C110.922 568.605 110.93 576.531 110.949 584.457C110.967 591.91 110.973 599.363 110.969 606.815C110.97 609.558 110.975 612.3 110.985 615.042C110.998 618.773 110.995 622.502 110.988 626.233C110.996 627.33 111.004 628.427 111.012 629.558C110.972 637.031 110.972 637.031 108.001 640.002C104.084 640.502 104.084 640.502 100.001 640.002C96.3018 636.693 95.9942 634.603 95.5084 629.618C95.4916 627.528 95.497 625.437 95.5196 623.346C95.5161 622.193 95.5127 621.04 95.5092 619.851C95.5026 615.98 95.5246 612.109 95.5465 608.237C95.5476 605.465 95.547 602.692 95.5447 599.92C95.5435 592.386 95.5671 584.852 95.595 577.318C95.62 569.447 95.6223 561.576 95.6271 553.706C95.6395 538.798 95.6724 523.89 95.7125 508.983C95.7572 492.012 95.7792 475.042 95.7993 458.071C95.8411 423.159 95.9115 388.246 96.0006 353.334C95.0827 353.344 94.1648 353.354 93.219 353.365C92.0162 353.373 90.8134 353.381 89.5741 353.389C88.3812 353.399 87.1883 353.41 85.9592 353.42C75.7624 353.152 65.8408 346.943 58.6671 340C47.9355 327.103 46.0688 314.379 46.1283 297.98C46.1206 296.189 46.1113 294.398 46.1005 292.608C46.0767 287.775 46.0782 282.944 46.0858 278.111C46.0899 274.063 46.0818 270.014 46.0737 265.965C46.055 256.406 46.0571 246.846 46.0723 237.287C46.0876 227.458 46.0688 217.63 46.0331 207.801C46.0034 199.332 45.9947 190.863 46.0025 182.394C46.007 177.349 46.0039 172.304 45.9808 167.259C45.9601 162.512 45.9656 157.764 45.9906 153.017C45.9978 150.467 45.9789 147.917 45.959 145.368C46.0891 129.978 49.714 118.172 60.4796 106.978C71.3109 97.8134 82.6319 94.5233 96.5403 94.4509Z" fill="#EF3636"/>
<path d="M429.992 119.567C438.102 123.849 442.298 134.351 445.336 142.666C448.163 154.91 446.661 165.77 443.233 177.671C440.779 186.402 439.997 193.386 444.419 201.5C445.024 202.643 445.629 203.786 446.253 204.963C448.014 208.127 448.014 208.127 450.419 211.417C452.892 216.492 453.195 221.155 452.003 226.667C449.817 230.322 447.323 233.324 444.003 236C443.122 236 442.242 236 441.336 236C441.398 237.562 441.46 239.125 441.523 240.734C441.947 255.854 441.547 268.4 431.502 280.584C424.185 288.165 417.188 292.383 406.669 293.334C383.947 293.549 367.269 286.11 348.002 274.667C347.835 270.167 347.835 270.167 348.002 265.333C350.669 262.667 350.669 262.667 354.877 262.177C361.034 262.765 364.774 264.718 370.002 267.833C379.84 273.574 388.513 276.478 400.086 276.5C401.448 276.549 401.448 276.549 402.838 276.599C409.655 276.638 413.463 274.983 418.669 270.667C423.698 264.384 425.622 257.787 425.185 249.88C425.144 248.724 425.104 247.569 425.062 246.378C424.967 243.963 424.846 241.55 424.698 239.138C424.46 230.471 424.46 230.471 427.053 227.103C429.195 225.328 429.195 225.328 433.336 222.667C434.216 221.787 435.096 220.907 436.002 220C435.344 218.891 434.686 217.783 434.008 216.641C433.153 215.192 432.299 213.743 431.419 212.25C430.568 210.811 429.718 209.373 428.841 207.89C422.211 196.013 424.788 182.286 428.169 169.75C430.596 160.646 431.349 153.094 428.002 144C426.682 142.02 426.682 142.02 425.336 140C424.131 140.754 422.926 141.509 421.685 142.286C420.096 143.274 418.508 144.262 416.919 145.25C416.126 145.747 415.333 146.245 414.515 146.757C411.032 148.917 407.906 150.698 404.002 152C402.935 154.326 402.935 154.326 402.388 157.203C402.008 158.809 402.008 158.809 401.62 160.449C401.361 161.593 401.102 162.737 400.836 163.916C397.025 179.354 392.52 190.922 380.002 201.333C375.415 204.074 370.658 206.225 365.752 208.333C353.021 213.19 353.021 213.19 344.002 222.667C343.938 224.455 343.952 226.247 344.012 228.036C344.035 229.093 344.057 230.149 344.08 231.237C344.139 233.463 344.208 235.689 344.288 237.914C344.307 238.972 344.326 240.03 344.346 241.12C344.39 242.571 344.39 242.571 344.435 244.052C343.873 247.449 342.697 248.591 340.002 250.667C336.669 251.167 336.669 251.167 333.335 250.667C328.04 246.443 327.607 241.068 326.669 234.667C325.602 224.844 327.921 216.578 333.752 208.667C342.099 199.574 355.076 194.367 366.085 189.25C376.119 184.253 379.186 178.784 382.836 168.416C385.006 161.56 386.577 154.661 387.867 147.588C391.412 138.927 401.303 134.885 409.172 130.718C414.555 127.77 418.407 124.373 422.669 119.999C426.669 118.666 426.669 118.666 429.992 119.567Z" fill="#EF3636"/>
<path d="M430.284 87.0568C451.33 103.713 451.33 103.713 452.669 112.25C452.002 116 452.002 116 450.502 118.584C448.002 120 448.002 120 444.32 119.891C438.818 118.331 436.108 115.293 432.419 111.167C414.089 91.8524 387.856 80.3712 361.228 79.3692C331.618 79.0406 304.53 90.8739 283.002 111.167C265.562 129.684 253.893 154.443 254.108 179.996C254.81 198.763 263.225 215.073 276.72 227.928C282.497 232.751 288.644 237.05 294.83 241.329C298.668 244.001 298.668 244.001 300.002 245.334C300.252 249.251 300.252 249.251 300.002 253.334C297.335 256.001 297.335 256.001 293.043 256.511C286.971 255.897 284.223 254.096 279.335 250.501C278.578 249.946 277.822 249.392 277.042 248.82C274.901 247.236 272.783 245.62 270.668 244.001C269.754 243.336 268.839 242.671 267.897 241.985C256.585 233.184 248.014 219.834 242.668 206.667C242.031 205.131 242.031 205.131 241.382 203.563C233.877 181.568 238.093 156.101 247.785 135.633C262.708 105.432 286.491 81.0004 318.668 69.3334C355.975 57.059 398.729 63.22 430.284 87.0568Z" fill="#EF3636"/>
<path d="M484.003 224C487.466 225.461 490.75 226.962 494.086 228.667C495.013 229.138 495.94 229.608 496.895 230.094C509.35 236.577 522.846 244.034 530.67 256C530.67 259.75 530.67 259.75 529.336 262.667C526.67 265.334 526.67 265.334 523.003 265.917C517.069 265.118 514.959 262.752 510.67 258.667C498.807 263.951 489.108 274.688 479.669 283.375C474.92 287.639 469.969 291.619 465.003 295.625C459.963 299.806 455.182 304.247 450.367 308.683C445.508 313.042 440.454 317.13 435.346 321.193C431.8 324.171 428.565 327.351 425.336 330.667C426.3 331.683 426.3 331.683 427.284 332.719C436.247 342.487 436.247 342.487 437.336 349.334C436.669 352.417 436.669 352.417 434.669 354.667C430.836 356.001 430.836 356.001 426.669 356.001C423.305 353.428 421.322 350.647 418.919 347.167C415.023 342.937 412.316 342.336 406.669 341.334C404.474 341.359 402.279 341.416 400.086 341.501C393.135 341.627 388.308 340.066 382.669 336.001C377.089 330.42 372.157 323.997 371.919 315.797C372.169 312.917 372.169 312.917 373.336 308.001C377.336 305.334 377.336 305.334 381.586 305.834C382.823 306.109 384.061 306.384 385.336 306.667C385.676 307.874 385.676 307.874 386.023 309.105C388.532 317.725 388.532 317.725 394.669 324.001C398.423 325.571 398.423 325.571 402.669 325.334C409.301 322.006 414.28 318.243 419.669 313.084C424.775 308.267 429.944 303.653 435.419 299.25C440.44 295.209 445.26 291.033 450.003 286.667C454.773 282.276 459.623 278.072 464.669 274C471.071 268.835 477.161 263.4 483.196 257.813C486.936 254.426 490.774 251.207 494.67 248C493.145 247.149 491.62 246.299 490.05 245.422C488.062 244.309 486.074 243.196 484.086 242.084C483.08 241.522 482.073 240.961 481.037 240.383C480.078 239.846 479.12 239.309 478.133 238.755C477.246 238.26 476.359 237.764 475.446 237.253C473.336 236 473.336 236 472.003 234.667C471.398 227.709 471.398 227.709 473.503 224.083C477.33 221.915 479.768 223.009 484.003 224Z" fill="#EF3636"/>
<path d="M209.334 217.334C211.917 219.584 211.917 219.584 213.334 222.667C213.237 226.626 212.757 228.546 210.001 231.417C197.392 238.667 197.392 238.667 192.001 238.667C196.212 243.021 200.446 246.846 205.334 250.417C213.057 256.124 220.704 261.921 228.334 267.751C237.937 275.081 247.565 282.375 257.252 289.594C258.049 290.189 258.846 290.784 259.667 291.397C260.413 291.951 261.158 292.505 261.925 293.076C263.849 294.551 265.7 296.119 267.543 297.694C272.326 301.226 276.822 301.61 282.668 301.334C286.524 299.775 288.469 298.597 290.808 295.183C292.814 289.832 292.481 284.118 292.522 278.459C292.678 273.814 293.008 271.112 295.787 267.318C298.668 265.334 298.668 265.334 302.918 265.584C306.668 266.667 306.668 266.667 308.001 268.001C308.413 272.461 308.373 276.941 308.418 281.418C308.476 283.278 308.476 283.278 308.535 285.175C308.624 294.914 306.762 301.923 300.34 309.366C299.595 309.96 298.851 310.555 298.084 311.168C296.973 312.091 296.973 312.091 295.84 313.032C290.263 316.673 285.341 317.638 278.751 317.918C272.477 318.387 267.872 318.859 262.668 322.668C260.888 325.041 259.261 327.485 257.626 329.959C256.001 332.001 256.001 332.001 252.584 333.501C249.334 333.334 249.334 333.334 246.251 331.918C244.001 329.334 244.001 329.334 243.527 325.663C244.121 320.234 245.997 317.777 249.334 313.501C250.324 312.212 251.314 310.923 252.334 309.595C253.489 308.146 253.489 308.146 254.667 306.668C253.53 306.143 253.53 306.143 252.369 305.607C249.105 303.88 246.363 301.891 243.438 299.636C242.302 298.765 241.165 297.893 239.994 296.994C238.786 296.062 237.578 295.129 236.334 294.168C233.795 292.219 231.255 290.271 228.714 288.324C227.46 287.361 226.205 286.398 224.913 285.406C219.207 281.04 213.468 276.721 207.698 272.441C203.128 269.045 198.625 265.588 194.178 262.032C193.214 261.274 192.25 260.517 191.257 259.736C189.406 258.279 187.57 256.804 185.751 255.307C182.998 253.071 182.998 253.071 178.667 250.667C173.989 251.532 171.321 253.625 168 256.917C164 260.001 164 260.001 160.334 259.917C157.334 258.667 157.334 258.667 154.667 256.001C154.084 252.251 154.084 252.251 154.667 248.001C166.964 234.39 182.332 226.309 198.667 218.667C202.439 216.781 205.166 216.909 209.334 217.334Z" fill="#EF3636"/>
<path d="M356.002 329.337C365.383 335.264 369.67 343.37 372.335 353.92C375.311 369.633 372.423 384.866 363.637 398.326C357.101 406.874 349.504 413.015 338.668 414.67C329.769 414.955 322.845 414.069 316.001 408.004C305.701 397.77 301.265 387.957 300.918 373.337C301.077 357.74 305.806 345.179 316.585 334.019C327.93 323.568 342.473 322.889 356.002 329.337ZM328.001 344.003C319.277 352.727 316.638 361.33 315.918 373.337C316.126 383.296 319.822 390.315 326.668 397.337C331.013 399.509 335.307 399.369 340.001 398.67C348.295 395.588 352.304 388.323 355.866 380.628C358.848 371.237 359.339 360.824 355.522 351.644C352.011 345.8 347.892 342.207 341.418 340.003C335.956 340.003 332.757 341.323 328.001 344.003Z" fill="#EF3636"/>
<path d="M319.861 49.926C322.214 53.2359 321.752 56.0779 321.335 59.999C318.668 62.6656 318.668 62.6656 314.835 63.0823C310.22 62.977 306.109 61.8825 301.668 60.6656C284.428 56.157 269.205 59.2714 253.621 67.5928C241.315 74.8415 234.048 86.7512 229.334 99.9992C225.87 113.554 226.864 127.697 232.298 140.468C233.585 144.854 233.268 147.63 232.001 151.999C228.001 154.666 228.001 154.666 224.084 154.916C219.347 153.079 219.041 152.347 217.001 147.916C209.742 129.801 208.878 107.416 215.657 89.046C224.838 68.7157 239.088 54.8364 259.803 46.3687C276.419 40.3568 304.845 38.4707 319.861 49.926Z" fill="#EF3636"/>
<path d="M342.418 427.67C349.994 431.465 355.39 436.726 361.335 442.67C364.828 445.76 368.332 448.835 371.856 451.889C375.487 455.48 375.924 457.885 376.418 462.921C375.812 470.316 373.648 475.684 368.361 480.983C359.758 487.92 350.189 491.51 339.095 491.046C328.515 489.763 319.626 486.244 312.001 478.671C304.428 468.894 303.069 460.225 304.001 448.004C305.977 438.9 310.589 432.182 318.251 426.837C326.626 423.993 334.253 424.227 342.418 427.67ZM323.584 442.17C319.002 448.619 318.096 453.365 319.194 461.139C320.823 466.922 325.179 469.544 329.751 473.004C336.518 476.151 342.528 476.837 349.585 474.587C355.134 472.245 357.884 468.856 361.335 464.004C356.646 459.168 351.75 454.67 346.637 450.285C345.016 448.882 343.419 447.45 341.866 445.973C336.434 440.947 330.246 437.489 323.584 442.17Z" fill="#EF3636"/>
<path d="M364.585 503.335C370.275 506.702 373.444 511.316 376.002 517.335C378.491 527.627 377.073 537.728 371.835 547.002C366.321 554.989 358.929 560.528 349.324 562.341C337.593 563.79 326.878 561.954 317.001 555.169C309.738 549.202 304.097 541.944 302.585 532.502C302.242 525.24 304.425 519.868 309.251 514.418C314.357 511.396 319.527 509.763 325.184 508.023C328.95 506.794 332.406 505.318 336.001 503.668C345.185 499.947 355.35 499.439 364.585 503.335ZM337.418 519.835C331.195 522.688 325.266 524.933 318.668 526.668C318.997 532.26 319.405 535.273 323.001 539.669C330.665 545.939 335.645 547.41 345.491 547.132C350.745 546.498 353.552 545.021 357.335 541.335C361.648 535.009 362.277 530.092 361.335 522.668C358.722 518.5 358.722 518.5 354.668 516.002C347.963 515.258 343.467 517.041 337.418 519.835Z" fill="#EF3636"/>
</svg>
