<svg width="683" height="683" viewBox="0 0 683 683" fill="none" xmlns="http://www.w3.org/2000/svg">
<g clip-path="url(#clip0_940_6894)">
<path d="M335.46 -0.70995C337.387 -0.71356 339.313 -0.71875 341.239 -0.725412C345.242 -0.733194 349.244 -0.722111 353.246 -0.696929C358.316 -0.666546 363.383 -0.684086 368.453 -0.715982C372.42 -0.735473 376.388 -0.729022 380.355 -0.7153C382.222 -0.711803 384.088 -0.715891 385.955 -0.728525C403.718 -0.822449 420.119 2.48022 436.002 10.6651C437.163 11.2392 438.323 11.8132 439.518 12.4047C478.434 32.4868 505.347 73.825 518.832 114.501C519.69 117.216 520.515 119.939 521.336 122.666C521.626 123.576 521.915 124.485 522.213 125.423C529.657 148.877 534.058 174.063 534.67 198.666C534.697 199.704 534.724 200.741 534.752 201.81C536.193 265.182 522.032 330.817 480.003 380C479.073 381.109 478.143 382.217 477.185 383.36C464.339 398.214 449.438 408.616 432.002 417.334C432.002 418.494 432.001 419.654 432 420.85C431.98 449.129 431.924 477.408 431.826 505.688C431.78 519.364 431.746 533.039 431.742 546.715C431.738 558.64 431.71 570.565 431.655 582.49C431.627 588.799 431.61 595.109 431.621 601.418C431.631 607.368 431.61 613.316 431.565 619.265C431.554 621.439 431.554 623.612 431.567 625.786C431.655 642.482 429.29 657.107 417.278 669.668C405.374 680.314 394.893 683.084 379.19 683.116C377.694 683.125 376.198 683.134 374.656 683.143C371.496 683.157 368.336 683.163 365.175 683.163C360.37 683.168 355.567 683.217 350.762 683.267C347.683 683.275 344.603 683.28 341.523 683.283C340.1 683.302 338.677 683.321 337.212 683.341C322.699 683.254 312.213 678.838 301.694 668.866C294.065 659.963 289.185 649.161 289.139 637.449C289.129 635.802 289.12 634.155 289.11 632.458C289.106 630.63 289.102 628.801 289.099 626.973C289.091 625.05 289.082 623.127 289.072 621.204C289.044 614.888 289.031 608.572 289.017 602.257C289.012 600.083 289.006 597.909 289.001 595.735C288.975 585.526 288.956 575.317 288.945 565.108C288.932 553.318 288.897 541.527 288.843 529.737C288.803 520.626 288.783 511.515 288.779 502.404C288.776 496.96 288.764 491.517 288.73 486.074C288.699 480.955 288.694 475.837 288.707 470.719C288.708 468.84 288.7 466.961 288.681 465.081C288.658 462.518 288.67 459.953 288.685 457.389C288.682 455.954 288.678 454.519 288.675 453.04C289.496 448.431 291.039 446.862 294.668 444.001C298.546 443.055 301.258 443.548 305.335 444.001C308.901 446.416 309.281 447.837 310.668 452.001C310.794 454.53 310.84 457.065 310.844 459.598C310.849 461.181 310.854 462.764 310.86 464.395C310.859 466.134 310.858 467.874 310.858 469.666C310.862 471.514 310.866 473.363 310.872 475.212C310.882 479.195 310.889 483.178 310.893 487.161C310.901 493.466 310.923 499.77 310.948 506.074C310.957 508.233 310.965 510.392 310.974 512.552C310.978 513.633 310.982 514.715 310.987 515.829C311.043 530.505 311.087 545.181 311.103 559.858C311.114 569.757 311.144 579.657 311.196 589.557C311.222 594.793 311.238 600.029 311.232 605.265C311.226 610.196 311.244 615.126 311.281 620.056C311.295 622.716 311.282 625.377 311.268 628.037C311.374 638.19 311.948 646.38 319.312 654.064C325.989 659.94 331.636 660.485 340.195 660.361C347.124 659.707 352.2 657.562 356.757 652.22C362.14 644.216 362.826 636.639 362.88 627.092C362.886 626.231 362.893 625.369 362.9 624.481C362.92 621.613 362.931 618.745 362.942 615.877C362.955 613.813 362.969 611.75 362.982 609.686C363.018 604.097 363.047 598.509 363.073 592.92C363.102 587.074 363.139 581.228 363.175 575.383C363.241 564.319 363.301 553.255 363.359 542.191C363.425 529.593 363.498 516.995 363.572 504.397C363.723 478.487 363.866 452.577 364.002 426.667C362.813 426.675 361.624 426.683 360.398 426.691C355.933 426.717 351.467 426.735 347.002 426.75C345.079 426.757 343.156 426.767 341.233 426.78C306.707 427.009 278.038 417.557 252.559 393.865C250.263 391.587 248.021 389.254 245.819 386.886C238.515 379.113 232.681 374.574 222.647 370.974C215.605 368.071 209.902 363.409 204.001 358.667C202.56 357.532 202.56 357.532 201.09 356.375C168.439 329.389 152.54 282.117 148.263 241.154C146.474 215.032 145.889 186.89 152.001 161.333C152.273 160.194 152.545 159.055 152.825 157.882C160.039 128.752 171.714 101.157 192.001 78.6654C193.029 77.5121 194.057 76.3589 195.116 75.1706C205.181 64.47 216.718 56.9644 230.335 51.4986C237.493 48.4174 241.501 43.9665 246.455 38.0611C268.558 12.0002 301.933 -0.936888 335.46 -0.70995ZM269.335 45.3319C269.335 45.7719 269.335 46.2119 269.335 46.6653C270.087 46.6731 270.84 46.6809 271.615 46.689C279.512 46.7748 287.408 46.8875 295.303 47.0152C298.243 47.0593 301.182 47.0968 304.121 47.1272C308.368 47.1724 312.615 47.2421 316.861 47.3163C318.156 47.3248 319.451 47.3334 320.786 47.3421C346.522 47.884 369.015 60.5046 386.669 78.6654C410.142 104.601 421.728 138.157 428.002 171.999C428.305 173.613 428.607 175.227 428.919 176.89C437.315 231.287 427.061 291.946 394.627 337.104C379.453 356.734 359.688 372.784 334.669 377.334C329.559 377.752 324.461 377.828 319.335 377.886C317.9 377.911 316.465 377.937 314.987 377.964C310.436 378.043 305.886 378.105 301.335 378.167C298.236 378.218 295.137 378.27 292.038 378.323C284.471 378.451 276.903 378.564 269.335 378.667C285.612 395.09 306.491 405.068 329.835 405.667C357.462 405.007 379.037 393.512 398.669 374.667C399.851 373.539 401.034 372.412 402.252 371.25C403.779 369.641 403.779 369.641 405.336 368C405.98 367.364 406.625 366.728 407.289 366.073C444.699 326.814 456.3 265.666 456.336 213.583C456.337 212.42 456.338 211.257 456.339 210.059C456.313 189.582 454.73 170.394 450.112 150.416C449.792 149.014 449.471 147.612 449.141 146.168C448.509 143.458 447.848 140.754 447.153 138.059C444.947 128.922 444.947 128.922 447.075 123.874C450.509 120.013 450.509 120.013 454.419 119.666C459.343 120.052 460.573 120.521 464.003 123.999C465.391 127.616 466.427 130.926 467.336 134.666C467.611 135.784 467.887 136.903 468.17 138.056C469.054 141.805 469.873 145.563 470.669 149.332C470.938 150.598 471.208 151.863 471.485 153.167C479.058 190.63 479.719 233.167 472.003 270.666C471.605 272.598 471.605 272.598 471.2 274.568C460.753 323.389 439.635 363.721 404.002 398.667C402.223 400.443 400.445 402.221 398.669 404C425.165 402.001 447.697 384.802 464.706 365.422C492.647 330.771 506.836 287.755 512.003 244C512.178 242.633 512.353 241.267 512.534 239.859C516.293 204.657 512.186 168.63 502.669 134.666C502.209 132.983 501.748 131.3 501.274 129.567C490.117 92.8238 467.753 52.9087 433.336 33.3319C423.278 28.0382 412.661 23.0878 401.336 21.3318C400.016 21.7718 398.696 22.2118 397.336 22.6652C399.22 24.171 401.11 25.6696 403.002 27.1652C404.58 28.4182 404.58 28.4182 406.19 29.6964C409.17 32.0446 409.17 32.0446 412.231 33.3006C415.349 35.0456 415.873 36.7997 417.336 39.9986C419.178 41.9131 419.178 41.9131 421.336 43.7486C432.512 54.6218 448.454 75.9989 449.742 91.5822C449.336 95.9989 449.336 95.9989 446.669 99.9989C442.287 101.362 439.755 101.78 435.471 100.014C430.663 96.2968 428.447 91.8675 425.586 86.5821C420.423 77.4445 414.951 69.2366 408.002 61.332C407.059 60.2131 406.115 59.0942 405.143 57.9414C388.046 38.1498 365.125 22.6609 338.497 20.6912C312.275 19.598 289.263 27.8658 269.335 45.3319ZM205.801 95.172C171.986 135.764 166.36 189.421 169.604 240.22C170.303 247.393 171.587 254.345 173.334 261.333C173.599 262.404 173.864 263.476 174.137 264.58C180.121 287.945 189.357 308.795 204.001 328C204.684 328.913 205.366 329.825 206.069 330.766C216.706 344.1 231.493 353.35 248.002 357.333C267.889 359.204 283.349 355.262 299.356 342.771C331.179 316.152 345.453 273.04 349.097 232.777C352.55 182.867 342.856 131.699 309.771 92.854C298.227 79.8527 282.011 69.2007 264.298 67.681C240.208 67.1152 221.598 77.3347 205.801 95.172ZM314.668 67.9987C315.652 68.9629 316.635 69.9272 317.648 70.9206C330.551 84.0247 341.36 99.4223 349.335 115.999C351.021 116.049 352.708 116.099 354.445 116.15C356.658 116.238 358.872 116.326 361.085 116.416C362.197 116.446 363.308 116.476 364.453 116.507C365.523 116.554 366.592 116.601 367.695 116.65C369.172 116.702 369.172 116.702 370.678 116.756C374.011 117.479 375.235 118.693 377.335 121.332C378.221 124.992 378.126 128.322 377.335 131.999C372.333 137.001 365.412 136.906 358.669 137.332C359.177 139.248 359.177 139.248 359.695 141.202C364.977 161.487 368.288 181.854 370.669 202.666C372.066 202.716 373.463 202.766 374.903 202.817C376.742 202.905 378.58 202.993 380.419 203.083C381.339 203.113 382.26 203.143 383.208 203.174C387.1 203.381 390.004 203.549 393.278 205.765C395.66 209.591 395.136 212.977 394.669 217.333C392.612 220.138 391.094 221.12 388.002 222.666C385.063 222.972 382.117 223.214 379.169 223.416C377.584 223.528 375.999 223.64 374.367 223.755C373.146 223.835 371.926 223.916 370.669 223.999C370.538 225.103 370.408 226.206 370.273 227.343C367.663 248.178 364.308 269.084 358.669 289.333C359.681 289.383 360.693 289.433 361.736 289.484C363.724 289.616 363.724 289.616 365.752 289.75C367.067 289.827 368.382 289.904 369.736 289.984C373.718 290.739 375.04 291.373 377.335 294.666C378.203 302.761 378.203 302.761 375.585 306.5C371.853 308.988 369.459 309.343 364.992 309.005C358.935 308.705 355.14 308.817 349.335 310.667C344.228 315.776 341.612 322.864 338.649 329.343C333.909 338.929 325.604 346.7 317.96 354.005C315.846 355.693 315.846 355.693 316.002 357.333C335.594 358.841 354.029 347.672 368.486 335.401C374.537 329.548 379.319 322.97 384.002 316C384.741 314.902 385.48 313.803 386.242 312.672C412.569 271.135 416.725 213.774 406.669 166.666C399.432 134.656 385.428 99.4538 356.674 80.8582C348.465 75.8693 340.028 71.6669 330.669 69.3321C329.514 69.0296 328.359 68.7271 327.169 68.4154C322.986 67.865 318.881 67.9161 314.668 67.9987ZM396.586 425.334C394.973 425.525 394.973 425.525 393.328 425.719C390.664 426.034 388 426.351 385.336 426.667C385.331 427.739 385.327 428.812 385.322 429.916C385.214 456.048 385.091 482.179 384.952 508.31C384.885 520.947 384.823 533.584 384.773 546.221C384.729 557.24 384.676 568.259 384.612 579.278C384.578 585.109 384.549 590.939 384.531 596.769C384.514 602.266 384.484 607.763 384.446 613.261C384.434 615.269 384.426 617.277 384.423 619.286C384.399 634.007 383.895 647.917 377.335 661.335C386.995 660.888 395.214 659.238 402.398 652.382C408.194 645.854 409.503 641.416 409.496 632.603C409.498 631.267 409.498 631.267 409.499 629.903C409.502 626.912 409.494 623.921 409.487 620.93C409.487 618.788 409.487 616.647 409.488 614.505C409.488 608.684 409.48 602.864 409.471 597.043C409.462 590.963 409.462 584.882 409.46 578.801C409.456 567.284 409.445 555.767 409.432 544.25C409.417 531.139 409.409 518.028 409.403 504.918C409.389 477.945 409.365 450.973 409.336 424C405.108 424 400.789 424.834 396.586 425.334Z" fill="#EF3636"/>
<path d="M286.788 202.076C289.335 202.669 289.335 202.669 292.752 205.419C295.25 210.525 294.841 213.247 293.335 218.67C291.243 221.808 289.771 222.505 286.252 223.836C281.432 224.06 278.732 222.496 274.668 220.003C272.607 215.881 272.944 212.544 273.335 208.003C276.744 202.463 280.633 201.731 286.788 202.076Z" fill="#EF3636"/>
<path d="M208.585 148.5C213.335 149.333 213.335 149.333 217.335 152.083C220.001 156 220.001 156 220.001 160.833C218.117 167.193 218.117 167.193 214.668 169.333C209.793 170.817 207.581 171.093 202.918 168.917C200.001 166.667 200.001 166.667 198.668 164C198.121 159.075 198.364 156.559 200.751 152.167C204.001 149.333 204.001 149.333 208.585 148.5Z" fill="#EF3636"/>
<path d="M283.335 95.332C290.25 96.3198 290.25 96.3198 293.335 99.9987C294.499 104.571 295.107 107.856 293.752 112.415C291.507 115.302 290.199 116.282 286.668 117.332C278.538 117.047 278.538 117.047 274.752 113.749C272.874 109.662 272.698 107.124 273.335 102.665C276.153 97.4802 277.426 96.1762 283.335 95.332Z" fill="#EF3636"/>
<path d="M212.121 255.408C214.667 256.001 214.667 256.001 218.084 258.751C220.582 263.857 220.174 266.579 218.667 272.002C216.541 275.191 215.124 275.845 211.501 277.085C207.3 277.385 205.023 276.662 201.334 274.668C198.027 269.707 198.05 267.204 198.667 261.335C202.076 255.795 205.965 255.063 212.121 255.408Z" fill="#EF3636"/>
<path d="M264.001 149.334C267.251 151.417 267.251 151.417 269.334 154.667C269.944 159.547 269.949 162.702 267.834 167.167C264.363 170.175 261.889 170.485 257.334 170.667C253.668 169.834 253.668 169.834 250.667 168C248.283 164.098 247.985 161.741 248.167 157.167C249.334 153.334 249.334 153.334 251.501 150.834C255.966 148.719 259.121 148.724 264.001 149.334Z" fill="#EF3636"/>
<path d="M238.667 202.669C241.922 205.066 243.513 206.921 245.168 210.585C245.403 214.464 244.575 216.62 242.668 220.002C238.796 223.228 236.899 224.038 231.834 223.835C225.963 222.049 225.963 222.049 224.001 218.669C222.994 209.612 222.994 209.612 226.084 204.669C230.599 201.89 233.459 201.925 238.667 202.669Z" fill="#EF3636"/>
<path d="M286.788 308.74C289.334 309.333 289.334 309.333 292.751 312.084C295.249 317.189 294.841 319.911 293.334 325.334C291.208 328.523 289.791 329.177 286.168 330.417C281.967 330.717 279.69 329.994 276.001 328C272.694 323.039 272.716 320.536 273.334 314.667C276.743 309.127 280.632 308.395 286.788 308.74Z" fill="#EF3636"/>
<path d="M313.334 149.333C316.589 151.73 318.18 153.585 319.835 157.249C320.07 161.129 319.242 163.284 317.335 166.666C313.463 169.892 311.566 170.702 306.501 170.499C300.63 168.713 300.63 168.713 298.668 165.333C297.661 156.276 297.661 156.276 300.751 151.333C305.266 148.554 308.126 148.589 313.334 149.333Z" fill="#EF3636"/>
<path d="M264.001 256C267.251 258.084 267.251 258.084 269.334 261.334C270.093 266.646 270.23 269.407 267.084 273.834C263.585 276.293 261.615 277.229 257.334 277.334C253.579 275.674 251.317 274.19 248.834 270.917C247.656 266.793 248.116 264.09 249.334 260C253.523 255.167 257.885 255.236 264.001 256Z" fill="#EF3636"/>
<path d="M238.668 96.0005C241.922 98.3982 243.513 100.253 245.168 103.917C245.4 107.742 244.478 109.972 242.668 113.334C240.418 115.834 240.418 115.834 237.335 117.334C232.805 117.175 229.415 116.776 225.418 114.584C223.076 110.314 223.174 106.005 224.001 101.334C227.785 95.2805 231.856 95.0274 238.668 96.0005Z" fill="#EF3636"/>
<path d="M313.335 256.002C316.589 258.4 318.181 260.255 319.835 263.919C320.062 267.651 318.994 270.018 317.335 273.336C314.102 276.57 312.508 276.917 308.002 277.336C302.918 275.917 301.668 275.169 298.669 270.669C298.105 265.505 297.913 262.515 300.752 258.086C305.258 255.197 308.082 255.252 313.335 256.002Z" fill="#EF3636"/>
<path d="M238.667 309.334C241.921 311.732 243.513 313.587 245.167 317.251C245.394 320.983 244.326 323.35 242.667 326.668C239.401 329.934 237.913 330.356 233.334 330.668C225.816 327.632 225.816 327.632 224.001 324.001C223.527 318.886 223.271 315.806 226.084 311.418C230.59 308.529 233.414 308.584 238.667 309.334Z" fill="#EF3636"/>
</g>
<defs>
<clipPath id="clip0_940_6894">
<rect width="682.67" height="682.67" fill="white"/>
</clipPath>
</defs>
</svg>
