<svg width="682" height="682" viewBox="0 0 682 682" fill="none" xmlns="http://www.w3.org/2000/svg">
<path d="M225.217 188.442C235.506 197.355 242.906 208.941 245.094 222.451C245.282 225.777 245.387 229.109 245.427 232.441C245.478 235.017 245.478 235.017 245.531 237.644C245.072 242.67 244.144 245.128 241.098 249.091C237.297 250.992 234.658 250.837 230.441 250.423C226.893 248.332 226.893 248.332 223.781 245.095C223.027 240.626 223.027 240.626 223.032 235.521C222.753 225.01 220.817 217.644 214.124 209.464C198.811 196.935 178.698 190.876 158.886 191.486C146.457 192.827 136.94 196.862 128.437 206.081C125.182 210.141 122.735 214.042 120.591 218.803C115.091 230.84 115.091 230.84 109.013 233.882C104.398 235.188 104.398 235.188 100.017 236.026C93.8708 237.637 90.5435 240.572 86.9411 245.735C80.6408 257.441 75.7343 270.305 79.3028 283.745C81.2387 288.781 83.3292 291.636 87.9141 294.381C91.1715 294.928 91.1715 294.928 94.7203 294.771C96.0783 294.758 97.4363 294.744 98.8355 294.731C100.302 294.698 101.768 294.664 103.279 294.63C105.573 294.608 105.573 294.608 107.913 294.584C114.441 294.519 120.968 294.409 127.496 294.299C164.552 293.728 209.747 296.214 238.434 323.685C241.098 327.681 241.098 327.681 240.848 332.343C239.766 337.006 239.766 337.006 238.184 339.503C234.549 341.759 232.076 342.251 227.777 342.334C223.603 340.324 220.011 338.105 216.242 335.445C187.933 316.281 152.397 316.262 119.633 316.775C114.528 316.832 109.422 316.881 104.317 316.924C101.17 316.953 98.0224 316.991 94.8754 317.039C93.4724 317.057 92.0695 317.074 90.6241 317.092C89.3892 317.111 88.1543 317.13 86.8821 317.149C83.9181 317.025 83.9181 317.025 81.254 315.693C80.2924 332.503 84.2749 348.324 88.6634 364.395C95.0296 388.15 94.8937 411.178 94.5743 435.576C95.8346 435.982 97.095 436.388 98.3935 436.806C112.05 441.499 119.29 452.818 125.37 465.178C126.309 467.126 127.233 469.082 128.138 471.046C129.287 473.478 130.57 475.846 131.871 478.201C135.872 480.003 135.872 480.003 139.775 478.045C159.222 468.289 176.816 455.321 190.481 438.24C200.627 433.166 218.549 437.274 229.609 438.073C231.232 438.178 232.854 438.283 234.526 438.391C250.315 439.51 250.315 439.51 257.082 442.236C260.424 447.249 260.38 449.61 259.746 455.556C241.12 488.042 205.619 509.527 170.5 519.494C157.217 522.488 157.217 522.488 151.269 518.828C148.77 514.829 148.503 512.13 148.35 507.506C149.709 503.183 152.046 501.908 155.848 499.513C159.94 498.015 164.121 496.947 168.336 495.85C191.03 489.448 209.979 477.863 226.445 460.884C212.236 458.266 212.236 458.266 198.816 461.665C195.993 464.626 195.993 464.626 193.389 467.982C190.066 472.048 186.323 475.144 182.155 478.284C181.058 479.116 181.058 479.116 179.938 479.964C149.207 502.842 149.207 502.842 130.539 502.177C122.783 500.973 117.833 497.132 112.942 491.147C109.332 485.661 106.512 479.812 103.802 473.837C99.6973 464.987 94.5414 459.822 85.7496 455.39C75.4648 450.177 75.4648 450.177 73.2618 443.568C73.172 441.488 73.1484 439.405 73.1785 437.324C73.1906 436.248 73.2026 435.171 73.215 434.062C73.2304 433.243 73.2459 432.424 73.2618 431.58C53.1421 440.296 53.1421 440.296 39.961 456.888C38.7577 465.655 41.7196 471.22 46.6212 478.201C50.4084 482.852 54.4442 487.207 58.6095 491.521C60.196 493.164 60.196 493.164 61.8147 494.841C66.7299 499.838 71.6148 504.651 77.2579 508.838C77.8039 508.084 78.35 507.33 78.9125 506.553C79.6303 505.576 80.348 504.599 81.0875 503.593C81.7984 502.619 82.5092 501.646 83.2416 500.642C85.2501 498.181 85.2501 498.181 87.9141 496.849C92.9742 496.381 96.0976 496.147 100.485 498.847C103.366 503.457 103.381 507.596 102.566 512.834C100.932 516.699 98.7162 520.079 96.4058 523.573C86.1845 539.976 73.7368 562.71 77.9239 582.599C78.1437 583.313 78.3635 584.027 78.5899 584.763C123.808 597.918 179.251 570.766 219.684 552.695C226.593 549.615 233.515 546.566 240.434 543.51C246.749 540.719 253.061 537.923 259.367 535.111C266.14 532.094 272.926 529.108 279.727 526.154C280.7 525.73 281.674 525.306 282.678 524.869C285.344 523.718 288.019 522.592 290.7 521.476C292.166 520.86 293.631 520.244 295.14 519.61C305.504 516.324 314.297 516.803 324.844 518.937C326.071 519.169 327.298 519.401 328.562 519.64C332.462 520.38 336.356 521.142 340.251 521.908C344.103 522.657 347.956 523.4 351.811 524.133C354.196 524.587 356.579 525.05 358.96 525.525C380.032 529.57 400.859 530.601 422.259 530.483C424.215 530.478 424.215 530.478 426.21 530.473C456.798 530.386 487.328 529.105 517.879 527.68C526.417 527.285 534.955 526.908 543.494 526.529C550.102 526.236 556.711 525.94 563.32 525.634C564.517 525.58 565.715 525.525 566.949 525.469C569.162 525.367 571.375 525.265 573.588 525.16C590.678 524.385 590.678 524.385 595.252 527.07C598.443 530.542 599.3 532.126 599.414 536.81C597.997 541.889 597.249 543.138 592.754 546.134C589.217 546.647 589.217 546.647 584.878 546.901C583.238 547.002 581.598 547.102 579.908 547.206C578.092 547.304 576.276 547.401 574.459 547.498C572.553 547.607 570.646 547.717 568.739 547.828C547.367 549.038 525.978 549.902 504.588 550.707C500.103 550.876 495.618 551.052 491.134 551.234C466.998 552.213 442.884 552.967 418.726 552.998C417.254 553.002 417.254 553.002 415.751 553.007C392.742 553.054 370.5 550.702 347.931 546.317C346.228 545.989 346.228 545.989 344.49 545.654C338.843 544.563 333.209 543.436 327.584 542.237C316.909 540.039 308.419 538.304 298.375 543.47C295.995 544.445 293.609 545.409 291.221 546.363C288.525 547.503 285.831 548.648 283.14 549.798C281.654 550.428 280.168 551.058 278.638 551.707C270.01 555.386 261.42 559.139 252.857 562.967C118.202 623.129 118.202 623.129 76.0247 607.377C66.8081 603.037 60.1004 598.89 56.3252 588.905C50.5931 568.674 59.2183 547.471 66.6016 528.818C64.9816 527.486 64.9816 527.486 63.3288 526.128C20.2676 490.436 20.2676 490.436 16.8222 465.266C16.2437 452.748 20.0689 443.45 28.1392 433.994C40.2067 421.456 55.4758 413.088 71.9298 407.603C71.6311 396.509 70.8301 385.856 68.1834 375.052C67.9525 374.108 67.7215 373.165 67.4836 372.193C66.3117 367.525 65.0576 362.888 63.7347 358.261C58.9354 340.805 58.0909 322.413 60.748 304.47C61.2358 300.05 61.2842 298.118 59.442 294.214C52.256 277.283 56.5931 259.195 62.6888 242.567C68.4766 229.825 77.5493 220.037 90.2296 214.115C93.2423 213.127 93.2423 213.127 98.5704 213.127C98.9258 212.172 99.2813 211.217 99.6475 210.234C106.223 194.625 117.285 181.371 132.834 174.399C162.086 162.507 200.259 170.18 225.217 188.442Z" fill="#EF2626"/>
<path d="M136.159 229.272C141.805 230.585 146.173 232.946 151.102 235.854C173.929 248.463 198.962 254.236 224.354 259.171C259.829 266.116 259.829 266.116 270.736 281.31C272.008 283.417 273.229 285.555 274.399 287.72C274.952 288.74 275.504 289.76 276.074 290.811C283.187 306.678 281.59 326.791 275.824 342.828C275.354 343.984 274.883 345.139 274.399 346.33C273.652 348.207 273.652 348.207 272.89 350.123C272.508 351.069 272.127 352.015 271.735 352.99C283.574 353.477 295.117 351.81 306.784 349.993C307.851 349.827 308.919 349.661 310.019 349.489C327.708 346.624 341.162 341.532 355.729 330.832C359.58 328.125 363.583 326.096 367.807 324.018C369.02 323.421 370.232 322.823 371.481 322.207C374.301 321.021 374.301 321.021 376.965 321.021C377.321 320.061 377.676 319.102 378.043 318.113C379.641 314.332 381.509 311.076 383.698 307.607C384.509 306.316 385.32 305.025 386.155 303.695C387.458 301.639 387.458 301.639 388.787 299.542C389.683 298.119 390.579 296.697 391.502 295.231C393.332 292.326 395.164 289.423 396.999 286.522C399.328 282.837 401.651 279.148 403.97 275.456C407.19 270.333 410.425 265.22 413.671 260.113C414.996 258.026 416.318 255.937 417.637 253.846C419.64 250.674 421.653 247.509 423.669 244.346C424.273 243.385 424.877 242.425 425.5 241.435C428.161 237.284 430.088 234.544 434.242 231.775C438.072 231.192 438.072 231.192 442.235 231.775C446.434 234.879 448.624 236.752 449.467 241.989C448.672 248.156 445.919 252.184 442.568 257.333C441.909 258.377 441.25 259.42 440.572 260.495C439.178 262.699 437.776 264.898 436.367 267.092C434.317 270.287 432.291 273.495 430.272 276.71C426.964 281.976 423.638 287.23 420.307 292.481C417.505 296.9 414.712 301.325 411.921 305.752C410.555 307.916 409.185 310.078 407.811 312.238C404.998 316.667 402.204 321.092 399.573 325.631C398.816 326.912 398.059 328.193 397.279 329.513C396.681 330.567 396.083 331.621 395.468 332.708C389.648 339.562 380.661 343.283 372.831 347.45C352.522 358.292 326.28 372.629 315.692 394.283C315.865 398.609 316.223 401.22 318.855 404.689C322.606 407.43 326.251 407.871 330.76 408.019C332.236 408.094 332.236 408.094 333.742 408.17C342.128 406.712 348.519 399.288 354.487 393.617C355.354 392.799 356.221 391.982 357.114 391.14C372 377.129 372 377.129 385.79 362.064C389.314 357.891 390.077 357.157 395.364 356.57C400.781 357.101 402.744 358.166 406.27 362.314C407.676 368.481 407.362 371.181 404.058 376.592C402.193 379.13 400.286 381.638 398.34 384.116C395.155 388.213 392.722 392.378 390.285 396.947C394.595 397.439 396.518 397.227 400.198 394.819C404.078 391.175 406.323 387.44 408.601 382.711C409.267 381.36 409.267 381.36 409.947 379.981C414.723 369.936 418.359 359.456 421.943 348.938C426.641 335.277 431.329 324.095 442.068 314.194C443.65 312.696 445.228 311.194 446.803 309.688C447.594 308.932 448.385 308.176 449.2 307.397C451.585 305.01 453.79 302.534 455.987 299.974C461.711 293.322 467.903 287.166 474.12 280.977C475.829 279.26 475.829 279.26 477.572 277.509C493.711 261.395 493.711 261.395 502.176 255.752C506.618 255.99 510.15 256.343 514.081 258.499C516.507 262.923 516.655 266.952 515.496 271.736C512.973 275.865 509.621 279.025 506.172 282.392C504.902 283.689 503.634 284.988 502.368 286.289C496.772 292.007 491.173 297.659 485.026 302.789C478.771 308.1 473.332 314.197 467.791 320.232C463.917 324.449 460.003 328.563 455.893 332.552C452.427 335.971 449.811 339.302 447.563 343.666C448.699 343.635 449.836 343.604 451.007 343.572C478.353 343.177 505.227 346.252 532.149 350.756C533.874 351.043 535.599 351.331 537.376 351.627C538.906 351.889 540.437 352.151 542.014 352.421C549.269 353.617 549.269 353.617 555.749 350.976C556.751 350.02 557.754 349.063 558.787 348.078C559.938 346.991 561.088 345.904 562.273 344.784C567.295 339.869 572.254 334.89 577.196 329.895C581.723 325.332 586.368 321.032 591.276 316.879C595.908 312.728 600.234 308.267 604.579 303.819C612.4 295.864 612.4 295.864 618.645 295.296C623.391 295.713 623.391 295.713 626.554 297.128C629.756 300.945 629.879 304.13 630.051 309.033C628.45 313.177 626.487 315.432 623.058 318.191C617.533 322.848 612.478 327.872 607.406 333.009C601.886 338.589 596.338 343.968 590.34 349.035C586.096 352.855 582.117 356.925 578.102 360.982C572.588 366.553 567.057 371.933 561.056 376.982C555.817 381.71 550.933 386.817 546.029 391.889C545.26 392.674 544.49 393.459 543.698 394.267C542.67 395.329 542.67 395.329 541.62 396.413C539.213 398.505 537.122 399.792 534.145 400.943C531.395 400.673 528.646 400.387 525.908 400.022C502.665 397.475 486.443 403.491 468.126 417.427C455.442 426.983 455.442 426.983 446.231 439.572C447.112 443.74 447.112 443.74 450.372 445.077C451.533 445.513 452.694 445.949 453.89 446.399C455.037 446.842 456.184 447.285 457.366 447.741C477.223 454.262 500.554 450.718 518.91 441.487C525.586 437.572 531.516 432.836 537.529 427.994C562.522 407.944 591.496 392.526 619.395 376.966C621.288 375.904 621.288 375.904 623.219 374.82C627.009 372.706 630.816 370.627 634.63 368.558C635.789 367.91 636.948 367.261 638.142 366.593C646.243 362.27 646.243 362.27 652.009 362.496C655.717 363.769 657.257 364.329 659.356 367.642C660.604 372.138 660.604 372.138 660.688 376.966C656.442 384.402 649.345 387.091 641.956 390.703C610.621 406.536 579.098 424.601 551.227 446.019C525.022 466.062 499.337 475.226 466.211 472.873C450.769 470.79 436.342 466.112 426.375 453.626C422.221 447.736 422.943 441.191 423.586 434.244C429.197 413.356 455.118 396.603 472.871 386.291C486.863 379.295 499.15 376.555 514.664 376.966C517.282 377.034 519.901 377.09 522.521 377.133C523.667 377.164 524.812 377.195 525.993 377.227C529.108 377.243 529.108 377.243 531.481 374.302C523.197 372.047 515.025 370.665 506.505 369.64C505.113 369.471 503.72 369.303 502.286 369.129C481.462 366.772 460.495 365.957 439.57 364.978C439.316 365.848 439.061 366.718 438.799 367.614C433.038 387.087 425.808 405.95 407.602 416.927C406.788 417.422 405.974 417.916 405.135 418.426C397.718 421.447 388.367 420.824 380.956 418.145C377.751 416.531 374.687 414.818 371.637 412.931C370.758 412.492 369.879 412.052 368.973 411.599C368.023 412.403 367.074 413.206 366.095 414.034C352.263 425.577 342.125 431.741 323.684 430.248C313.925 428.401 305.148 425.045 299.036 416.933C293.108 407.728 292.012 399.861 293.047 388.955C294.883 383.474 297.851 379.085 301.039 374.302C299.731 374.447 299.731 374.447 298.396 374.594C277.815 376.687 265.266 376.221 248.757 363.095C245.782 360.399 245.187 358.864 244.511 354.905C245.249 349.107 247.717 346.163 251.046 341.475C257.552 331.468 259.451 319.098 257.498 307.451C255.481 298.775 251.348 292.503 243.762 287.72C233.02 283.667 221.512 281.709 210.314 279.328C137.652 263.756 137.652 263.756 125.211 245.095C124.454 239.256 124.587 236.679 127.958 231.775C131.871 229.111 131.871 229.111 136.159 229.272Z" fill="#EF2626"/>
</svg>
