<svg width="682" height="682" viewBox="0 0 682 682" fill="none" xmlns="http://www.w3.org/2000/svg">
<g clip-path="url(#clip0_964_6852)">
<path d="M378.297 5.32996C379.648 5.797 380.999 6.26404 382.392 6.74524C400.683 13.6316 415.111 25.1561 428.914 38.6307C430.018 39.6369 431.122 40.6431 432.26 41.6798C449.643 57.972 462.141 78.8288 472.871 99.9042C473.501 101.139 474.131 102.373 474.78 103.645C495.628 144.9 510.236 188.521 522.073 233.107C522.32 234.035 522.567 234.963 522.822 235.919C526.199 248.664 529.033 261.443 531.48 274.4C532.359 274.4 533.239 274.4 534.144 274.4C534.452 273.001 534.759 271.601 535.076 270.16C539.106 252.526 544.27 240.119 559.453 229.111C567.496 225.289 576.6 224.896 585.178 227.316C598.096 233.195 605.034 244.234 610.07 257.084C611.694 262.811 612.99 268.546 614.066 274.4C615.019 274.031 615.972 273.662 616.954 273.282C632.623 267.586 647.49 265.519 663.351 271.736C670.15 275.319 675.458 279.953 678.493 287.117C681.679 299.468 680.019 310.329 673.81 321.334C668.754 328.886 662.979 335.927 655.359 341.002C654.48 341.002 653.601 341.002 652.695 341.002C652.695 341.881 652.695 342.76 652.695 343.666C653.808 344.16 653.808 344.16 654.943 344.665C665.666 350.461 671.856 360.541 678.004 370.723C680.55 380.114 681.289 391.163 677.338 400.277C672.873 407.681 664.939 413.208 656.691 415.596C641.751 418.916 627.986 415.939 614.066 410.267C613.759 411.667 613.451 413.066 613.135 414.508C610.721 425.06 608.3 434.526 602.078 443.568C601.281 444.777 600.484 445.986 599.664 447.231C593.992 453.065 586.72 457.937 578.445 458.444C577.068 458.453 575.691 458.461 574.272 458.47C572.902 458.489 571.531 458.508 570.12 458.528C566.04 458.215 563.139 457.277 559.453 455.557C559.611 456.841 559.769 458.125 559.932 459.449C560.103 461.131 560.275 462.814 560.452 464.548C560.637 466.217 560.823 467.886 561.014 469.605C560.785 474.205 560.785 474.205 558.402 477.483C555.457 479.533 555.457 479.533 551.294 479.367C547.465 478.201 547.465 478.201 544.801 475.537C544.18 472.49 544.18 472.49 543.769 468.621C543.608 467.165 543.447 465.708 543.281 464.207C543.116 462.613 542.951 461.018 542.782 459.376C542.407 455.957 542.033 452.538 541.658 449.119C541.463 447.298 541.267 445.478 541.073 443.657C540.069 434.303 539.01 424.954 537.948 415.606C537.842 414.677 537.737 413.747 537.628 412.79C527.172 320.849 509.572 225.285 472.871 139.865C472.884 141.091 472.884 141.091 472.898 142.342C472.987 150.966 473.047 159.59 473.09 168.215C473.11 171.419 473.137 174.624 473.172 177.829C473.631 221.085 465.721 257.478 435.14 289.532C426.937 297.57 417.553 304.655 407.601 310.365C414.126 312.978 420.672 315.112 427.431 317.046C428.267 317.287 429.103 317.527 429.965 317.775C433.448 318.776 436.932 319.776 440.424 320.744C460.942 326.453 476.557 335.231 491.519 350.326C492.409 351.171 493.298 352.016 494.215 352.886C499.575 358.368 503.038 364.618 506.505 371.389C506.944 372.241 507.383 373.093 507.835 373.971C514.285 387.194 516.535 401.71 519.006 416.092C519.335 417.971 519.663 419.849 519.992 421.728C520.877 426.785 521.752 431.843 522.625 436.902C523.544 442.215 524.469 447.526 525.393 452.837C526.942 461.745 528.485 470.655 530.025 479.565C531.803 489.854 533.591 500.142 535.384 510.429C537.114 520.352 538.836 530.276 540.554 540.2C541.284 544.414 542.017 548.627 542.752 552.84C543.616 557.797 544.474 562.755 545.326 567.715C545.64 569.531 545.956 571.347 546.274 573.163C546.709 575.646 547.134 578.13 547.559 580.615C547.8 582.003 548.04 583.391 548.288 584.822C549.662 595.454 549.662 595.454 546.133 600.748C542.546 601.975 540.369 602.353 536.723 601.242C532.991 598.599 532.898 596.183 532.02 591.753C531.701 590.187 531.383 588.62 531.055 587.007C530.756 585.387 530.456 583.768 530.148 582.099C529.731 579.883 529.731 579.883 529.305 577.622C528.449 572.924 527.641 568.221 526.844 563.513C526.538 561.725 526.231 559.938 525.924 558.15C525.269 554.339 524.618 550.527 523.968 546.714C522.938 540.67 521.898 534.627 520.857 528.585C517.9 511.415 514.953 494.244 512.02 477.07C510.396 467.556 508.762 458.044 507.119 448.533C506.084 442.542 505.061 436.55 504.045 430.557C503.408 426.813 502.761 423.071 502.11 419.329C501.674 416.801 501.25 414.271 500.827 411.741C496.599 387.62 488.217 366.629 467.985 351.7C457.265 344.563 446.578 340.53 434.242 337.006C433.802 360.743 433.363 384.479 432.91 408.935C435.108 409.375 437.306 409.815 439.57 410.267C445.681 411.741 449.206 414.078 452.75 419.347C463.676 440.27 469.549 462.496 468.327 486.114C466.632 521.849 475.359 556.052 483.077 590.709C484.961 599.223 486.788 607.749 488.621 616.274C492.197 632.868 495.831 649.447 499.511 666.017C500.436 666.022 501.36 666.026 502.312 666.031C524.779 666.139 547.245 666.262 569.712 666.4C580.576 666.467 591.441 666.529 602.306 666.579C611.773 666.623 621.239 666.676 630.706 666.74C635.721 666.774 640.736 666.803 645.751 666.821C651.343 666.841 656.934 666.882 662.526 666.925C664.198 666.928 665.87 666.931 667.592 666.933C669.109 666.948 670.626 666.963 672.189 666.979C673.512 666.986 674.836 666.993 676.2 667.001C679.336 667.349 679.336 667.349 682 670.014C682.333 674.676 682.333 674.676 682 679.338C678.589 682.748 676.363 682.324 671.714 682.356C670.636 682.35 669.558 682.344 668.447 682.337C667.303 682.341 666.158 682.345 664.979 682.349C661.1 682.359 657.222 682.349 653.344 682.34C650.553 682.343 647.761 682.347 644.97 682.353C637.266 682.364 629.562 682.358 621.858 682.35C613.562 682.344 605.267 682.353 596.971 682.361C581.648 682.372 566.326 682.371 551.003 682.364C536.849 682.357 522.696 682.355 508.542 682.358C507.605 682.359 506.667 682.359 505.701 682.359C501.896 682.36 498.09 682.361 494.285 682.362C458.561 682.37 422.838 682.362 387.114 682.348C355.35 682.335 323.587 682.336 291.824 682.349C256.167 682.363 220.51 682.369 184.853 682.361C181.055 682.36 177.256 682.359 173.457 682.358C172.522 682.358 171.587 682.358 170.623 682.358C156.476 682.355 142.328 682.358 128.181 682.365C112.101 682.373 96.0203 682.37 79.9399 682.356C71.7277 682.349 63.5155 682.346 55.3033 682.355C47.797 682.363 40.2909 682.359 32.7846 682.345C30.0578 682.342 27.3311 682.343 24.6043 682.35C20.9201 682.358 17.2362 682.35 13.552 682.337C12.4742 682.343 11.3963 682.35 10.2858 682.356C2.96793 682.306 2.96792 682.306 -0.000244141 679.338C-0.333252 674.676 -0.333252 674.676 -0.000244141 670.014C3.47994 666.533 4.95939 667.006 9.81101 666.979C12.0861 666.956 12.0861 666.956 14.4071 666.933C16.0791 666.931 17.751 666.928 19.4736 666.925C21.2279 666.911 22.9822 666.898 24.7897 666.884C29.6083 666.848 34.4269 666.828 39.2457 666.81C44.2786 666.79 49.3114 666.754 54.3442 666.72C63.8782 666.657 73.4122 666.608 82.9463 666.564C93.7989 666.514 104.651 666.448 115.504 666.381C137.832 666.243 160.16 666.124 182.488 666.017C186.542 647.557 190.537 629.085 194.472 610.599C196.301 602.01 198.147 593.426 200.035 584.85C211.482 533.472 211.482 533.472 213.273 481.119C212.398 462.693 218.136 445.72 225.113 428.916C225.571 427.59 226.03 426.265 226.502 424.899C229.427 417.413 232.772 414.479 240.015 410.933C247.59 407.721 254.013 406.619 262.41 404.939C262.41 381.203 262.41 357.466 262.41 333.01C220.158 346.912 220.158 346.912 193.159 378.259C187.806 389.009 185.242 400.344 183.173 412.093C182.884 413.673 182.595 415.252 182.297 416.879C181.514 421.172 180.743 425.467 179.977 429.763C179.163 434.313 178.334 438.86 177.506 443.407C175.938 452.04 174.382 460.676 172.832 469.313C171.092 478.999 169.338 488.683 167.582 498.366C165.122 511.933 162.667 525.502 160.226 539.072C159.636 542.35 159.044 545.628 158.451 548.905C157.101 556.379 155.77 563.855 154.508 571.344C154.068 573.953 153.621 576.56 153.175 579.167C152.619 582.419 152.074 585.674 151.542 588.93C151.166 591.113 151.166 591.113 150.783 593.339C150.57 594.614 150.358 595.888 150.139 597.2C149.07 601.184 147.58 604.054 145.191 607.408C141.236 609.031 139.443 609.085 135.451 607.575C131.897 603.099 132.805 598.211 133.203 592.756C134.069 586.299 135.226 579.9 136.399 573.493C136.743 571.568 137.087 569.643 137.429 567.718C138.358 562.517 139.3 557.319 140.246 552.121C141.037 547.763 141.823 543.404 142.608 539.045C144.463 528.745 146.33 518.448 148.203 508.152C150.126 497.58 152.031 487.004 153.927 476.426C155.563 467.306 157.209 458.188 158.865 449.071C159.851 443.644 160.833 438.216 161.803 432.786C162.718 427.668 163.648 422.554 164.588 417.442C164.927 415.582 165.262 413.722 165.591 411.86C170.845 382.2 181.39 355.6 206.298 337.172C221.266 327.675 237.269 322.622 254.168 317.858C256.271 317.254 258.374 316.648 260.477 316.042C265.557 314.579 270.642 313.133 275.73 311.697C274.758 310.994 273.787 310.29 272.786 309.565C240.619 286.233 217.609 258.999 210.405 219.118C208.028 204.133 208.711 188.87 208.879 173.749C208.899 170.579 208.917 167.409 208.934 164.24C208.977 156.559 209.044 148.878 209.129 141.197C169.894 235.098 152.112 336.305 141.252 437.043C141.073 438.68 141.073 438.68 140.89 440.349C140.277 446.03 139.732 451.707 139.278 457.402C139.178 458.565 139.077 459.727 138.974 460.924C138.784 463.138 138.614 465.353 138.466 467.569C138.067 472.056 137.814 474.869 134.702 478.246C130.628 480.098 128.094 479.484 123.879 478.201C120.473 473.092 121.161 470.663 121.714 464.631C121.862 462.936 122.009 461.241 122.162 459.495C122.289 458.196 122.416 456.896 122.547 455.557C121.607 455.986 120.668 456.415 119.7 456.857C111.65 459.735 102.002 459.709 94.1577 456.139C81.4403 448.53 74.5394 436.787 70.5454 422.703C69.5817 418.569 68.7009 414.442 67.9333 410.267C66.509 410.821 66.509 410.821 65.056 411.386C50.7158 416.81 36.1373 419.474 21.3123 414.264C13.4253 410.468 7.60635 405.723 3.74609 397.774C0.60836 387.652 1.4244 377.079 6.3165 367.705C11.8481 358.703 18.5525 350.515 26.6404 343.666C27.5195 343.666 28.3987 343.666 29.3044 343.666C29.3044 342.787 29.3044 341.908 29.3044 341.002C28.1918 340.507 28.1918 340.507 27.0566 340.003C16.2221 334.146 6.8751 322.375 3.20496 310.568C1.18977 299.891 1.80359 290.727 7.2843 281.227C13.136 273.106 20.7167 270.422 30.3139 268.328C43.6631 266.511 55.5402 269.599 67.9333 274.4C68.2407 273.112 68.5481 271.825 68.8647 270.498C72.898 254.154 77.5325 240.319 91.6497 230.022C99.2633 225.488 107.244 225.284 115.886 226.447C119.848 227.726 123.094 229.465 126.543 231.775C128.274 232.847 128.274 232.847 130.039 233.94C141.056 244.957 145.26 259.498 147.855 274.4C148.734 274.4 149.614 274.4 150.519 274.4C150.665 273.442 150.811 272.485 150.962 271.498C157.516 230.192 170.38 187.769 186.484 149.189C187.021 147.893 187.558 146.597 188.111 145.262C204.393 106.261 224.227 71.029 253.086 39.9628C254.286 38.6312 254.286 38.6312 255.51 37.2727C268.969 22.9694 285.474 12.3985 303.703 5.32996C305.181 4.75302 306.66 4.17609 308.183 3.58167C330.1 -3.56682 356.79 -2.73168 378.297 5.32996ZM298.375 25.3104C297.078 25.9509 295.782 26.5914 294.446 27.2512C263.255 44.0091 242.989 75.9755 232.803 109.083C230.862 115.758 229.112 122.387 227.777 129.209C271.501 130.107 309.692 124.127 343.664 94.576C344.802 93.6145 345.941 92.6529 347.114 91.6622C352.799 86.7373 357.492 82.0743 361.729 75.8444C365.38 70.8145 365.38 70.8145 369.545 69.8502C372.56 69.8502 375.335 70.0554 378.297 70.5995C378.709 72.7424 378.709 72.7424 379.129 74.9286C382.804 89.2723 390.529 100.277 400.941 110.56C402.046 111.709 402.046 111.709 403.173 112.881C416.076 125.239 433.814 129.602 451.1 129.303C452.131 129.272 453.161 129.241 454.222 129.209C445.231 91.4604 429.329 53.6024 395.14 31.6688C364.523 13.0549 330.876 9.08188 298.375 25.3104ZM367.64 93.244C366.173 94.7192 364.737 96.2243 363.311 97.7396C346.944 114.194 327.381 126.181 305.701 134.287C304.283 134.818 304.283 134.818 302.836 135.36C292.685 138.955 282.191 141.341 271.734 143.861C271.634 151.536 271.562 159.21 271.515 166.886C271.495 169.49 271.468 172.094 271.433 174.698C271.107 199.669 273.278 221.146 291.298 240.267C308.147 255.991 325.42 260.86 347.852 260.206C366.24 259.214 381.786 249.513 394.276 236.375C409.767 217.411 410.818 195.933 411.244 172.572C411.313 169.589 411.413 166.606 411.544 163.624C412.984 148.005 412.984 148.005 408.72 133.494C404.555 129.392 399.641 127.32 394.281 125.213C383.742 118.182 377.006 106.784 370.7 96.0382C370.13 95.1161 369.56 94.194 368.972 93.244C368.533 93.244 368.093 93.244 367.64 93.244ZM426.25 142.529C426.23 144.119 426.211 145.709 426.191 147.348C426.113 153.344 426.01 159.339 425.9 165.334C425.856 167.911 425.819 170.488 425.788 173.065C425.31 212.388 425.31 212.388 416.093 229.527C415.635 230.41 415.176 231.292 414.704 232.201C410.17 240.569 404.224 249.611 395.853 254.505C392.793 256.484 390.989 258.032 388.953 261.08C387.786 267.933 388.073 274.652 388.37 281.56C388.417 283.449 388.459 285.337 388.498 287.226C388.6 291.833 388.761 296.436 388.953 301.041C391.479 299.821 394 298.591 396.518 297.357C397.923 296.673 399.327 295.989 400.774 295.285C407.313 291.773 412.747 287.328 418.258 282.392C419.369 281.407 420.479 280.421 421.624 279.406C430.808 270.773 437.263 261.229 443.566 250.424C444.239 249.27 444.912 248.116 445.606 246.927C454.242 230.919 457.099 213.684 457.063 195.743C457.065 194.338 457.066 192.933 457.067 191.486C457.068 188.529 457.066 185.573 457.06 182.616C457.053 178.071 457.06 173.525 457.069 168.98C457.068 166.107 457.066 163.234 457.063 160.361C457.066 158.994 457.069 157.627 457.072 156.219C457.067 154.965 457.063 153.711 457.059 152.419C457.058 151.31 457.057 150.201 457.056 149.059C457.165 146.511 457.165 146.511 455.554 145.193C453.382 144.891 451.199 144.668 449.014 144.48C447.696 144.364 446.378 144.249 445.02 144.129C443.634 144.013 442.247 143.897 440.819 143.778C439.427 143.657 438.035 143.536 436.602 143.411C433.151 143.112 429.701 142.818 426.25 142.529ZM226.445 145.193C225.223 148.859 224.926 151.123 224.877 154.908C224.86 156.062 224.843 157.215 224.825 158.403C224.816 159.652 224.806 160.901 224.796 162.187C224.785 163.488 224.774 164.788 224.763 166.128C224.745 168.894 224.73 171.66 224.72 174.426C224.705 177.216 224.678 180.005 224.638 182.795C224.111 219.836 232.236 249.66 258.414 277.064C259.133 277.883 259.853 278.702 260.594 279.546C265.475 284.894 271.021 288.799 277.062 292.716C277.837 293.218 278.612 293.72 279.41 294.238C284.661 297.537 289.959 300.055 295.711 302.373C295.975 296.829 296.168 291.288 296.296 285.739C296.349 283.855 296.422 281.971 296.515 280.088C297.414 269.202 297.414 269.202 293.484 259.524C290.766 257.508 288.067 255.951 285.054 254.42C268.943 240.641 259.467 220.739 257.082 199.807C256.498 190.411 256.405 180.994 256.249 171.584C256.198 169.02 256.146 166.455 256.093 163.891C255.964 157.659 255.858 151.426 255.75 145.193C246.079 145.193 236.409 145.193 226.445 145.193ZM92.6956 250.408C85.8599 261.947 84.8324 273.048 84.6124 286.144C84.5178 288.898 84.2314 291.643 83.9177 294.381C79.9216 297.045 79.9216 297.045 76.3418 296.962C72.3979 295.845 70.4001 294.855 67.1008 292.632C56.1836 285.479 43.6589 281.945 30.6365 283.724C25.0696 285.975 21.9122 289.368 18.6482 294.381C16.7653 300.155 17.2877 303.871 19.9906 309.324C26.8195 321.584 36.7192 328.429 48.8687 335.174C52.5767 337.474 53.1395 337.946 54.6963 342.251C52.4237 348.801 47.057 350.896 41.2927 354.322C31.6022 360.764 20.9697 368.805 17.7324 380.463C16.8695 386.493 17.9624 390.438 21.3123 395.615C27.927 401.104 33.7869 401.845 42.2865 401.547C53.5391 399.98 63.8138 394.939 73.1314 388.586C77.2874 387.154 79.9737 388.666 83.9177 390.287C83.9521 391.817 83.9864 393.347 84.0218 394.923C84.7684 419.378 84.7684 419.378 97.238 439.572C101.931 442.701 104.483 443.039 109.996 442.913C116.017 441.65 120.295 437.785 123.879 432.912C126.209 425.889 127.347 418.968 128.26 411.641C128.476 409.964 128.476 409.964 128.696 408.254C128.997 405.904 129.295 403.553 129.589 401.201C130.038 397.623 130.501 394.046 130.965 390.469C131.258 388.175 131.549 385.88 131.84 383.585C131.977 382.526 132.114 381.467 132.256 380.376C133.007 374.302 133.336 368.435 133.203 362.314C132.461 362.86 131.719 363.406 130.955 363.969C121.303 370.784 113.436 374.163 101.541 372.341C92.7125 370.254 86.6437 366.306 81.5138 358.766C77.2013 350.338 76.1656 340.966 78.7457 331.855C82.0493 323.873 87.2405 317.326 95.2816 313.862C104.299 311.579 114.705 311.314 123.296 315.194C128.173 318.132 131.196 321.77 134.535 326.349C135.332 327.393 136.128 328.437 136.949 329.513C137.471 330.227 137.993 330.942 138.531 331.678C140.536 324.981 142.134 318.312 143.443 311.447C143.727 310.053 143.727 310.053 144.018 308.63C144.908 303.977 145.592 300.213 143.859 295.713C142.623 296.015 141.387 296.317 140.113 296.629C135.867 297.045 135.867 297.045 133.637 295.396C130.618 291.384 131.273 286.483 131.205 281.643C130.762 269.089 129.561 257.776 121.215 247.76C115.989 243.247 111.952 241.51 105.163 241.937C99.4815 243.019 96.0038 245.744 92.6956 250.408ZM557.871 251.256C551.994 262.2 550.922 272.598 550.749 284.847C550.549 292.495 550.549 292.495 548.352 295.39C546.133 297.045 546.133 297.045 542.053 296.712C538.14 295.713 538.14 295.713 535.476 294.381C537.674 307.128 539.872 319.876 542.136 333.01C546.171 329.29 546.171 329.29 548.464 325.184C552.765 319.21 557.788 315.36 564.781 313.029C575.366 312.209 585.381 311.576 594.086 318.357C601.044 325.007 604.455 332.42 604.919 341.99C604.424 352.495 600.97 359.185 593.836 366.727C585.273 371.865 576.551 373.906 566.633 372.502C561.301 371.056 557.162 368.279 552.793 364.978C551.017 363.646 549.241 362.314 547.465 360.982C547.565 361.776 547.665 362.57 547.768 363.388C548.073 365.813 548.378 368.237 548.682 370.661C549.039 373.505 549.399 376.349 549.759 379.193C550.725 386.859 551.645 394.526 552.475 402.208C552.64 403.696 552.806 405.185 552.976 406.719C553.292 409.587 553.596 412.457 553.887 415.327C555.084 426.023 557.453 433.802 566.077 440.712C570.943 443.459 575.399 443.519 580.765 442.236C589.472 436.979 592.752 429.521 595.517 419.982C596.923 414.146 597.284 408.424 597.499 402.442C597.919 391.946 597.919 391.946 599.414 388.955C603.466 387.524 605.388 387.325 609.368 389.054C611.075 390.118 611.075 390.118 612.817 391.203C624.988 398.211 637.153 402.786 651.363 400.943C656.725 399.286 659.515 397.269 662.602 392.701C665.349 387.254 665.181 382.714 663.351 376.967C660.16 371.154 656.2 366.814 651.363 362.314C650.678 361.669 649.993 361.023 649.287 360.358C644.089 355.652 638.683 352.219 632.475 348.968C630.051 347.662 630.051 347.662 628.719 346.33C628.219 342.5 628.219 342.5 628.719 338.338C631.669 336.361 631.669 336.361 635.379 334.342C639.887 331.327 644.302 328.192 648.699 325.017C649.492 324.453 650.286 323.888 651.103 323.306C658.047 317.998 663.092 310.932 664.767 302.29C664.667 295.993 663.459 292.45 659.355 287.721C652.52 282.552 644.918 282.631 636.711 283.724C626.752 286.393 618.125 290.059 609.649 295.874C607.406 297.045 607.406 297.045 602.827 296.962C599.414 295.713 599.414 295.713 598.082 293.049C597.956 290.58 597.838 288.111 597.763 285.641C597.342 272.705 596.346 258.774 588.092 248.176C582.614 243.109 579.147 241.787 571.472 242.015C565.314 242.966 561.716 246.642 557.871 251.256ZM367.484 271.278C358.587 274.001 350.238 274.803 341 274.817C339.39 274.827 339.39 274.827 337.748 274.837C328.654 274.735 320.923 273.274 311.695 271.736C311.255 286.682 310.816 301.627 310.363 317.025C300.039 321.45 289.171 324.512 278.394 327.682C278.394 353.177 278.394 378.672 278.394 404.939C284.988 406.258 291.581 407.577 298.375 408.935C302.381 410.435 305.757 411.779 309.447 413.764C310.769 414.452 310.769 414.452 312.118 415.153C323.659 421.412 332.615 429.855 339.668 440.904C344.542 439.28 345.24 437.709 348.159 433.578C359.971 418.484 377.042 409.986 395.613 406.271C406.163 405.612 406.163 405.612 416.926 404.939C416.926 380.763 416.926 356.587 416.926 331.678C410.744 329.359 404.853 327.159 398.574 325.298C397.232 324.897 395.89 324.495 394.507 324.081C391.712 323.251 388.916 322.422 386.12 321.594C384.79 321.195 383.46 320.797 382.09 320.387C380.881 320.028 379.672 319.67 378.427 319.301C375.633 318.357 375.633 318.357 374.301 317.025C374.087 313.573 373.955 310.153 373.879 306.697C373.851 305.664 373.824 304.631 373.795 303.567C373.708 300.255 373.629 296.943 373.551 293.631C373.494 291.391 373.436 289.151 373.377 286.911C373.234 281.409 373.099 275.907 372.969 270.404C370.236 270.273 370.236 270.273 367.484 271.278ZM97.238 330.346C93.1656 334.81 91.9099 338.466 91.9099 344.498C93.7345 350.657 96.1014 354.186 101.65 357.486C106.446 358.601 109.784 358.179 114.554 356.986C119.055 354.086 122.21 351.488 123.879 346.33C124.549 341.191 124.087 338.746 121.714 334.092C118.245 329.984 115.549 328.261 110.558 326.349C105.447 326.349 101.5 327.61 97.238 330.346ZM560.951 332.593C558.765 337.088 557.815 341.37 558.121 346.33C560.493 351.359 562.63 353.758 567.195 356.903C572.449 358.654 575.436 358.44 580.765 356.986C584.701 354.537 586.893 352.554 589.257 348.578C590.718 342.298 589.789 337.529 586.676 331.927C578.443 324.539 569.255 325.12 560.951 332.593ZM243.761 427.584C228.535 450.492 225.548 483.985 229.879 510.612C231.173 516.324 232.745 521.882 234.437 527.486C235.665 531.675 236.888 535.865 238.106 540.057C239.412 544.542 240.729 549.022 242.081 553.493C246.645 568.808 250.793 584.455 251.504 600.498C251.554 601.521 251.605 602.544 251.657 603.598C252.073 615.841 250.943 628.009 249.849 640.194C249.042 649.236 248.404 658.294 247.758 667.349C309.297 667.349 370.837 667.349 434.242 667.349C433.289 651.026 433.289 651.026 432.161 634.715C429.763 597.97 434.829 564.819 446.473 530.021C451.038 516.254 453.387 503.803 453.307 489.274C453.3 487.871 453.294 486.469 453.287 485.023C453.023 467.373 449.387 451.779 442.234 435.576C441.618 434.156 441.001 432.736 440.366 431.273C436.533 424.628 430.063 423.392 423.019 421.293C408.105 417.702 393.849 420.653 380.508 427.958C366.22 436.998 356.017 448.621 346.328 462.217C344.996 463.549 344.996 463.549 341.286 464.048C337.004 463.549 337.004 463.549 333.929 460.718C332.993 459.454 332.057 458.191 331.093 456.889C330.061 455.548 329.029 454.206 327.966 452.825C326.992 451.528 326.018 450.232 325.015 448.896C313.763 434.523 298.929 423.628 280.757 420.086C267.83 418.621 254.955 420.69 243.761 427.584ZM223.781 546.135C223.559 547.197 223.337 548.258 223.109 549.352C220.994 559.479 218.878 569.606 216.763 579.732C215.463 585.953 214.163 592.175 212.864 598.396C212.233 601.415 211.603 604.434 210.972 607.453C210.149 611.39 209.328 615.327 208.507 619.264C206.808 627.409 205.104 635.551 203.34 643.682C203.085 644.863 202.83 646.045 202.568 647.262C202.12 649.329 201.667 651.394 201.207 653.458C200.158 658.315 199.804 662.301 199.804 667.349C210.354 667.349 220.904 667.349 231.773 667.349C232.405 663.668 233.037 659.987 233.688 656.194C233.884 655.063 234.081 653.933 234.283 652.768C240.412 616.51 236.902 580.873 225.113 546.135C224.673 546.135 224.234 546.135 223.781 546.135ZM456.886 546.135C443.657 586.502 444.648 625.509 450.226 667.349C460.776 667.349 471.326 667.349 482.195 667.349C481.308 659.369 480.284 651.779 478.633 643.974C478.412 642.906 478.191 641.839 477.963 640.74C477.241 637.258 476.51 633.778 475.779 630.297C475.273 627.866 474.767 625.434 474.262 623.002C472.938 616.635 471.607 610.27 470.274 603.905C468.913 597.396 467.558 590.886 466.203 584.376C463.548 571.628 460.885 558.881 458.219 546.135C457.779 546.135 457.339 546.135 456.886 546.135Z" fill="#EF2626"/>
<path d="M608.738 21.3127C614.208 26.6309 616.004 32.8031 618.062 39.9612C618.787 39.7517 619.512 39.5422 620.258 39.3264C630.708 37.0004 640.382 37.8155 649.693 43.1508C660.193 50.6298 665.643 60.5893 668.102 73.1059C669.924 87.7979 666.499 100.298 658.096 112.432C639.46 135.957 609.71 143.957 581.103 147.526C562.984 149.516 562.984 149.516 558.022 145.769C554.75 141.634 552.171 137.316 549.629 132.704C549.108 131.762 548.587 130.821 548.049 129.851C534.758 105.454 527.237 80.1952 532.401 52.3033C536.62 38.3949 545.77 27.1252 558.241 19.6425C574.235 11.8042 593.886 10.4832 608.738 21.3127ZM553.625 44.8782C545.201 56.8468 545.065 71.6224 547.465 85.6665C550.858 100.664 557.71 120.804 568.777 131.871C593.03 132.056 620.585 125.439 639.208 109.419C647.139 101.416 652.199 92.7405 653.111 81.4206C652.792 72.582 650.239 66.2416 643.87 60.0249C639.147 56.2751 635.247 54.4271 629.203 54.1348C624.172 54.8999 620.197 57.352 615.804 59.822C612.734 61.2737 612.734 61.2737 607.989 61.1904C604.742 59.9416 604.742 59.9416 603.41 57.2776C603.238 54.7265 603.105 52.1728 602.994 49.6184C602.336 41.1634 600.336 36.5608 594.003 30.8035C577.96 24.6594 563.779 32.4109 553.625 44.8782Z" fill="#EF2626"/>
<path d="M133.661 26.4007C144.096 36.0177 150.301 49.3634 150.967 63.5571C151.501 93.7499 142.462 122.329 123.879 146.523C109.044 153.94 80.6881 144.971 65.9357 140.112C46.69 133.412 28.8605 123.298 18.8515 104.73C12.6637 90.6347 11.661 76.8697 16.8171 62.2719C21.5312 51.7831 28.4544 44.53 38.9465 39.7419C47.0544 37.2877 55.8248 37.615 63.9377 39.9604C64.2545 38.8014 64.2545 38.8014 64.5777 37.6189C67.0042 29.4948 69.6844 22.8113 77.4089 18.3565C96.3045 9.46447 117.435 13.7984 133.661 26.4007ZM83.9182 34.6323C79.3987 40.9225 79.3568 46.0846 79.1312 53.6241C78.59 57.2768 78.59 57.2768 76.7741 59.7692C74.5939 61.2729 74.5939 61.2729 71.0141 61.1896C67.2537 60.1254 64.8453 59.0095 61.5234 57.1103C56.4214 54.4767 52.6066 53.9036 46.9439 54.8833C40.3008 57.2443 35.3268 61.8564 31.7504 67.881C28.0833 76.5518 28.2817 84.4902 31.3862 93.2416C38.2788 108.87 51.6176 117.261 67.018 123.545C82.1828 128.995 97.2057 131.165 113.223 131.871C127.208 112.678 137.754 88.4234 135.529 64.2596C133.455 52.0383 128.396 42.3328 118.551 34.6323C107.85 27.7746 93.871 25.4259 83.9182 34.6323Z" fill="#EF2626"/>
<path d="M555.457 622.058C557.954 623.557 557.954 623.557 559.453 626.054C559.972 630.815 559.946 634.176 558.121 638.625C554.659 641.33 551.71 641.455 547.387 641.216C544.801 640.706 544.801 640.706 541.471 638.542C538.883 634.444 538.777 632.156 539.473 627.386C543.464 620.354 547.989 620.191 555.457 622.058Z" fill="#EF2626"/>
<path d="M138.531 627.386C141.195 628.719 141.195 628.719 142.528 631.383C143.051 635.506 143.358 638.1 142.528 642.039C139.78 645.452 139.78 645.452 135.867 647.367C131.039 647.45 131.039 647.45 126.543 646.035C123.088 642.256 122.509 640.327 122.714 635.212C125.317 626.658 130.281 626.183 138.531 627.386Z" fill="#EF2626"/>
</g>
<defs>
<clipPath id="clip0_964_6852">
<rect width="682" height="682" fill="white"/>
</clipPath>
</defs>
</svg>
