<svg width="682" height="682" viewBox="0 0 682 682" fill="none" xmlns="http://www.w3.org/2000/svg">
<g clip-path="url(#clip0_964_6841)">
<path d="M340.75 -0.416535C342.159 -0.412893 342.159 -0.412893 343.596 -0.409177C357.342 -0.349357 370.28 0.308725 383.625 3.99582C385.425 4.43938 387.225 4.8816 389.026 5.32265C416.215 12.3283 439.438 26.0981 460.883 43.9568C461.731 44.6402 462.579 45.3235 463.453 46.0276C469.509 51.0069 474.566 56.5492 479.531 62.6052C480.548 63.8226 481.564 65.04 482.612 66.2943C508.332 98.2437 522.697 137.355 522.427 178.424C522.441 181.646 522.457 184.868 522.474 188.089C522.488 193.087 522.489 198.085 522.463 203.083C522.443 207.962 522.473 212.84 522.51 217.719C522.479 219.938 522.479 219.938 522.448 222.202C522.563 231.481 524.289 237.281 529.637 244.911C534.598 252.57 533.863 263.441 532.245 272.109C529.258 281.346 522.602 288.9 514.247 293.713C512.901 294.372 511.555 295.031 510.168 295.711C511.295 296.535 512.421 297.359 513.581 298.208C524.775 307.629 531.898 321.007 533.317 335.495C533.971 350.128 531.273 362.893 521.829 374.42C513.567 383.418 505.909 389.228 494.184 392.949C494.855 400.336 496.163 406.022 499.262 412.846C499.659 413.731 500.055 414.615 500.464 415.526C503.11 421.36 505.906 427.115 508.732 432.863C532.813 481.919 532.813 481.919 532.813 503.508C534.351 503.727 535.89 503.947 537.475 504.174C557.665 508.735 575.354 521.309 586.713 538.468C593.602 550.826 596.936 562.884 596.986 576.933C596.995 578.004 597.003 579.075 597.012 580.178C597.039 583.706 597.054 587.233 597.068 590.761C597.073 591.968 597.078 593.175 597.084 594.418C597.112 600.798 597.131 607.178 597.143 613.558C597.158 620.151 597.204 626.742 597.257 633.334C597.292 638.404 597.303 643.474 597.307 648.544C597.314 650.975 597.33 653.406 597.354 655.837C597.387 659.233 597.385 662.627 597.376 666.023C597.402 667.53 597.402 667.53 597.428 669.066C597.381 673.732 597.104 676.212 594.216 679.96C589.522 683.387 586.467 682.633 580.766 682C577.909 680.157 577.103 678.988 576.027 675.813C575.211 671.467 575.245 667.171 575.249 662.766C575.242 661.28 575.242 661.28 575.235 659.764C575.225 657.615 575.218 655.467 575.213 653.318C575.203 649.906 575.182 646.494 575.158 643.082C575.088 633.382 575.024 623.681 575.003 613.98C574.99 608.04 574.951 602.101 574.895 596.161C574.879 593.909 574.872 591.657 574.875 589.405C574.894 570.341 572.164 553.778 558.309 539.602C543.538 526.915 521.07 521.969 502.925 515.662C500.642 514.865 498.358 514.067 496.075 513.269C490.562 511.342 485.047 509.421 479.531 507.504C476.683 511.777 475.236 515.948 473.673 520.777C473.036 522.698 472.399 524.618 471.76 526.538C471.426 527.548 471.092 528.558 470.747 529.599C463.276 552.091 454.794 573.87 444.899 595.418C444.42 596.502 443.94 597.587 443.447 598.704C441.064 603.872 439.61 606.707 434.242 608.738C429.659 608.547 426.912 607.813 423.003 605.408C419.799 600.281 421.017 595.847 422.254 590.09C423.901 585.423 425.977 580.995 428.082 576.519C433.678 564.144 438.674 551.645 443.317 538.89C443.628 538.035 443.94 537.18 444.26 536.299C448.832 523.7 453.164 511.056 456.887 498.179C455.028 497.762 453.168 497.346 451.309 496.931C449.756 496.583 449.756 496.583 448.171 496.228C444.867 495.509 441.556 494.837 438.238 494.183C437.704 495.056 437.17 495.928 436.62 496.827C416.693 528.818 390.046 560.917 359.581 583.559C358.724 584.396 357.867 585.232 356.984 586.093C356.984 587.852 356.984 589.61 356.984 591.422C360.054 594.277 363.025 596.7 366.392 599.164C367.392 599.911 368.392 600.657 369.423 601.426C389.179 615.958 409.923 629.194 431.578 640.707C432.681 641.297 433.783 641.888 434.919 642.496C447.704 649.329 460.456 656.05 473.803 661.728C476.867 663.351 476.867 663.351 479.531 667.347C480.089 672.458 480.259 675.489 477.533 679.918C472.784 682.887 468.922 682.929 463.547 682C457.256 679.664 451.299 676.693 445.315 673.675C443.583 672.817 441.851 671.96 440.119 671.104C396.222 649.256 355.929 621.793 319.688 588.758C317.412 586.732 315.137 584.706 312.861 582.68C289.003 561.174 268.874 535.943 251.754 508.836C250.841 507.392 249.927 505.948 248.986 504.46C243.762 495.977 243.762 495.977 243.762 492.851C242.245 493.428 242.245 493.428 240.697 494.017C239.373 494.511 238.049 495.006 236.685 495.515C235.372 496.01 234.058 496.504 232.705 497.014C229.109 498.179 229.109 498.179 225.113 498.179C249.612 579.997 249.612 579.997 289.743 654.948C290.307 655.782 290.87 656.616 291.451 657.475C292.533 659.062 293.639 660.633 294.773 662.182C297.681 666.419 298.383 668.524 298.125 673.727C297.043 678.004 297.043 678.004 295.628 680.584C291.182 683.023 287.177 683.314 282.391 682C237.71 649.901 219.605 557.879 203.801 507.504C199.845 508.822 195.889 510.141 191.813 511.5C193.232 523.314 195.342 534.939 197.651 546.606C197.944 548.092 198.237 549.577 198.539 551.108C199.767 557.32 201.001 563.531 202.252 569.739C203.173 574.319 204.076 578.903 204.977 583.487C205.26 584.868 205.543 586.249 205.834 587.671C209.423 606.1 209.423 606.1 207.797 614.066C204.336 617.481 202.732 618.029 197.807 618.645C192.293 617.956 191.255 616.94 187.817 612.734C186.647 609.593 186.647 609.593 185.923 606.022C185.633 604.642 185.344 603.262 185.046 601.84C184.604 599.567 184.604 599.567 184.153 597.249C183.83 595.666 183.506 594.082 183.172 592.451C182.026 586.785 180.92 581.113 179.824 575.437C179.599 574.274 179.374 573.11 179.141 571.911C175.76 554.449 172.444 536.974 169.168 519.492C135.6 529.497 135.6 529.497 112.853 554.702C109.059 562.925 107.697 569.74 107.663 578.814C107.655 579.817 107.646 580.821 107.636 581.855C107.618 584.029 107.602 586.204 107.589 588.378C107.567 591.822 107.536 595.265 107.502 598.709C107.408 608.497 107.328 618.286 107.26 628.076C107.217 634.067 107.162 640.058 107.099 646.05C107.078 648.331 107.062 650.612 107.05 652.893C107.034 656.084 107.002 659.275 106.966 662.466C106.965 663.406 106.965 664.345 106.964 665.312C106.863 672.103 106.125 677.109 101.234 682C91.823 682.911 91.823 682.911 87.7836 679.955C84.3319 675.482 84.5114 671.573 84.5818 666.15C84.5746 665.095 84.5674 664.039 84.56 662.952C84.5434 659.461 84.5654 655.972 84.5893 652.482C84.5891 650.046 84.5871 647.61 84.5834 645.174C84.5816 640.062 84.5983 634.95 84.6287 629.839C84.6663 623.321 84.6629 616.804 84.6459 610.286C84.6365 605.249 84.647 600.213 84.6635 595.177C84.6695 592.776 84.67 590.375 84.6648 587.974C84.6358 563.082 89.04 542.692 106.979 524.112C127.639 505.134 158.885 498.613 184.903 489.604C212.111 480.249 212.111 480.249 239.115 470.326C240.038 469.98 240.96 469.634 241.91 469.278C249.933 466.148 256.808 462.742 260.828 454.888C261.624 453.384 261.624 453.384 262.436 451.85C266.382 442.92 265.818 432.863 266.053 423.262C266.122 421.044 266.222 418.827 266.353 416.612C267.068 405.977 267.068 405.977 265.074 395.613C260.387 390.503 255.257 387.953 249.09 384.957C246.825 383.238 244.589 381.478 242.43 379.629C238.409 381.543 234.76 383.787 231.024 386.206C218.291 393.842 204.754 396.369 190.174 393.407C175.573 389.436 164.667 382.731 156.477 369.836C148.77 355.975 146.776 341.733 150.067 326.191C154.083 313.916 161.414 303.334 171.832 295.711C171.059 295.257 170.287 294.804 169.491 294.337C160.519 288.77 154.748 282.854 150.02 273.399C147.692 261.293 148.608 250.673 154.516 239.765C155.537 238.573 155.537 238.573 156.579 237.357C158.947 233.779 159.015 231.73 159.024 227.467C159.038 226.073 159.051 224.68 159.065 223.244C159.061 221.741 159.057 220.237 159.053 218.687C159.067 217.122 159.082 215.557 159.097 213.945C159.142 208.926 159.163 203.908 159.178 198.889C159.331 147.574 169.097 102.986 202.469 62.6052C203.726 61.065 203.726 61.065 205.008 59.4937C210.304 53.2113 216.09 47.8146 222.449 42.6247C223.696 41.5945 224.943 40.5642 226.227 39.5028C245.489 23.9316 267.441 12.8438 291.132 5.66086C292.426 5.26357 292.426 5.26357 293.746 4.85826C309.188 0.415509 324.771 -0.502527 340.75 -0.416535ZM237.102 58.6091C235.752 59.6754 235.752 59.6754 234.375 60.7632C203.902 85.7081 186.08 125.468 181.156 163.84C180.401 174.373 180.642 184.925 180.823 195.475C180.85 198.242 180.874 201.008 180.896 203.774C180.954 210.444 181.045 217.112 181.156 223.781C225.192 224.399 262.075 203.101 293.047 173.164C294.197 172.082 295.348 171 296.533 169.886C308.822 158.056 329.371 137.284 330.554 119.365C330.577 118.136 330.601 116.908 330.625 115.642C330.663 114.297 330.7 112.951 330.739 111.565C330.809 108.735 330.868 105.904 330.916 103.073C330.957 101.726 330.999 100.379 331.041 98.9915C331.067 97.7613 331.094 96.5311 331.121 95.2637C331.771 91.3367 332.972 89.4676 335.672 86.5818C338.253 85.8741 338.253 85.8741 341 85.9157C341.907 85.902 342.813 85.8883 343.747 85.8741C347.45 86.8894 348.344 88.6798 350.324 91.9099C350.773 95.0735 350.773 95.0735 350.725 98.57C350.73 99.8539 350.735 101.138 350.741 102.46C350.741 103.814 350.741 105.168 350.741 106.562C351.034 119.012 352.277 128.149 359.649 138.531C360.533 139.831 361.417 141.131 362.328 142.47C369.528 152.539 377.764 161.561 386.289 170.5C387.342 171.638 388.394 172.777 389.479 173.949C412.203 197.804 448.783 220.997 482.195 223.781C485.407 223.81 488.62 223.816 491.832 223.807C493.518 223.803 495.203 223.799 496.94 223.796C498.872 223.788 498.872 223.788 500.844 223.781C500.978 215.922 501.073 208.064 501.137 200.204C501.163 197.543 501.199 194.882 501.246 192.222C502.074 143.845 487.274 102.806 453.775 67.5847C426.079 39.1171 387.784 21.5237 347.895 20.9226C305.402 20.6989 270.303 31.8237 237.102 58.6091ZM339.668 149.187C337.6 151.923 335.669 154.67 333.757 157.512C327.13 167.07 319.774 175.475 311.695 183.82C310.567 185.001 309.439 186.183 308.277 187.4C301.002 194.868 293.446 201.609 285.055 207.797C283.667 208.822 282.28 209.847 280.851 210.903C254.062 230.009 224.358 242.42 191.482 244.136C182.347 244.619 182.347 244.619 174.496 249.09C170.274 254.331 169.79 258.441 170.5 265.074C172.71 269.936 175.077 273.231 179.824 275.73C183.808 276.44 187.776 276.812 191.813 277.062C192.417 275.771 193.021 274.48 193.644 273.149C195.809 269.07 195.809 269.07 198.473 267.738C202.914 267.255 205.479 267.069 209.233 269.616C213.011 274.708 213.374 279.877 214.291 286.053C220.034 319.538 236.322 348.263 263.742 368.972C293.242 389.663 326.895 398.717 362.7 393.253C395.967 387.251 426.005 368.253 445.731 340.75C458.236 322.346 465.726 302.753 468.59 280.705C469.249 276.245 469.964 273.381 472.746 269.783C475.535 267.738 475.535 267.738 479.531 267.072C484.395 267.883 485.88 269.208 488.856 273.066C489.295 274.385 489.735 275.704 490.188 277.062C499.094 276.845 503.948 275.601 510.168 269.07C512.169 263.068 512.454 257.958 509.918 252.087C506.469 247.805 503.363 245.474 497.796 244.633C494.041 244.335 490.287 244.124 486.525 243.928C455.399 241.648 425.909 229.247 400.942 210.461C399.935 209.731 398.929 209.001 397.892 208.249C389.746 202.161 382.291 195.284 374.905 188.309C373.132 186.638 371.342 184.983 369.55 183.331C359.467 173.717 348.626 161.775 342.332 149.187C341.453 149.187 340.574 149.187 339.668 149.187ZM483.527 309.031C483.043 310.399 482.559 311.768 482.06 313.178C476.275 329.248 469.554 342.999 458.807 356.438C456.632 359.434 456.632 359.434 456.934 362.51C458.588 365.684 460.299 366.767 463.381 368.556C464.776 369.388 464.776 369.388 466.201 370.237C473.474 374.043 481.541 374.22 489.402 372.105C498.694 368.375 504.986 362.54 510.085 353.987C512.7 344.758 512.889 335.042 508.966 326.139C503.655 317.219 495.925 312.223 486.192 309.031C485.312 309.031 484.433 309.031 483.527 309.031ZM178.659 318.688C171.416 326.62 169.672 334.831 170.053 345.438C171.344 355.695 177.092 361.691 184.856 368.129C192.139 373.48 200.333 374.267 209.129 372.968C215.081 370.732 220.591 368.167 225.113 363.644C224.659 359.042 222.463 356.252 219.702 352.655C210.255 339.495 203.427 324.415 198.473 309.031C191.117 309.031 183.868 313.834 178.659 318.688ZM439.57 378.297C435.783 380.633 435.783 380.633 431.828 383.874C423.8 390.173 423.8 390.173 419.389 392.484C415.121 395.332 415.121 395.332 414.623 400.451C414.597 402.383 414.617 404.317 414.673 406.248C414.675 407.28 414.677 408.312 414.678 409.374C414.69 411.556 414.722 413.737 414.771 415.917C414.844 419.227 414.853 422.533 414.852 425.844C414.872 427.97 414.895 430.097 414.923 432.223C414.927 433.2 414.932 434.177 414.936 435.184C415.208 445.234 418.347 454.464 424.918 462.215C433.992 468.717 443.816 472.634 454.306 476.232C455.789 476.753 457.271 477.274 458.799 477.811C461.904 478.898 465.012 479.979 468.121 481.054C472.9 482.704 477.67 484.376 482.44 486.051C485.466 487.108 488.493 488.164 491.52 489.219C492.95 489.719 494.381 490.218 495.854 490.733C497.171 491.187 498.488 491.641 499.845 492.109C501.006 492.511 502.166 492.913 503.362 493.327C506.107 494.313 506.107 494.313 508.836 494.183C505.474 473.355 495.959 454.149 485.856 435.817C480.792 426.537 476.669 416.924 474.463 406.561C472.885 397.42 472.885 397.42 467.038 390.873C463.304 389.562 463.304 389.562 459.41 388.677C454.16 387.239 450.426 384.487 446.064 381.32C443.462 379.394 443.462 379.394 439.57 378.297ZM287.719 406.269C287.706 407.389 287.694 408.509 287.681 409.663C287.622 413.906 287.539 418.148 287.442 422.391C287.405 424.211 287.377 426.031 287.358 427.851C287.155 446.216 284.331 462.807 271.734 476.867C268.724 479.456 265.811 481.445 262.41 483.527C274.4 507.874 292.16 528.895 310.363 548.797C311.577 550.149 312.789 551.501 314 552.855C320.82 560.438 327.743 567.653 335.672 574.105C340.653 571.999 344.059 568.867 347.993 565.197C352.205 561.291 356.429 557.422 360.814 553.708C373.621 542.532 385.206 530.258 395.613 516.828C397.079 514.97 398.545 513.113 400.01 511.255C401.571 509.257 403.13 507.257 404.688 505.256C405.423 504.322 406.158 503.388 406.915 502.427C411.553 496.402 415.059 490.429 418.258 483.527C416.912 482.511 415.566 481.494 414.179 480.447C402.378 470.25 396.538 456.637 395.176 441.305C394.928 435.981 394.786 430.662 394.698 425.334C394.653 423.475 394.607 421.617 394.56 419.759C394.451 415.262 394.358 410.766 394.281 406.269C392.928 406.623 391.575 406.977 390.181 407.341C384.458 408.821 378.717 410.22 372.969 411.597C371.063 412.066 371.063 412.066 369.118 412.544C345.673 417.388 321.34 414.706 298.375 408.933C297.348 408.679 296.321 408.424 295.264 408.162C292.747 407.536 290.233 406.903 287.719 406.269Z" fill="#EF2626"/>
<path d="M299.239 292.184C300.744 292.167 300.744 292.167 302.28 292.149C305.586 292.119 308.889 292.139 312.195 292.161C314.499 292.157 316.803 292.15 319.107 292.142C323.931 292.132 328.754 292.146 333.578 292.178C339.755 292.216 345.93 292.194 352.107 292.154C356.864 292.13 361.619 292.137 366.376 292.155C368.653 292.159 370.93 292.154 373.207 292.138C376.393 292.121 379.576 292.147 382.761 292.184C383.699 292.171 384.636 292.157 385.601 292.143C390.672 292.252 392.839 292.959 396.869 296.138C399.827 299.989 400.505 302.279 400.166 307.115C397.181 324.526 390.117 337.403 375.633 347.659C359.771 356.648 342.351 359.447 324.527 355.396C310.693 351.148 297.578 343.236 289.504 330.983C284.332 321.167 281.112 310.851 282.391 299.706C287.309 293.231 291.437 292.072 299.239 292.184ZM306.367 314.358C309.893 323.171 314.722 327.812 323.179 332.122C335.729 337.142 346.271 337.142 358.821 332.122C367.278 327.812 372.108 323.171 375.633 314.358C352.775 314.358 329.918 314.358 306.367 314.358Z" fill="#EF2626"/>
<path d="M214.457 640.708C221.996 648.037 225.24 661.827 225.779 672.094C225.113 676.673 225.113 676.673 223.032 680.003C218.521 682.779 215.664 682.744 210.461 682.001C205.279 677.996 203.389 673.169 201.47 667.099C201.042 665.769 201.042 665.769 200.606 664.412C198.487 657.466 197.395 651.887 198.473 644.704C202.197 639.583 208.599 639.304 214.457 640.708Z" fill="#EF2626"/>
<path d="M410.266 234.438C414.142 238.108 415.481 240.324 416.255 245.641C416.229 247.246 416.203 248.852 416.177 250.506C416.175 252.115 416.173 253.724 416.171 255.381C415.563 259.983 414.915 261.888 411.598 265.075C407.03 266.238 403.749 266.846 399.193 265.491C396.401 263.32 395.595 261.704 394.281 258.415C393.881 254.632 393.881 254.632 393.865 250.506C393.843 249.148 393.82 247.79 393.797 246.39C394.347 241.889 395.607 239.402 398.277 235.77C402.445 233.687 405.678 233.964 410.266 234.438Z" fill="#EF2626"/>
<path d="M281.058 234.439C285.236 236.81 286.175 237.8 287.719 242.431C287.878 245.064 287.952 247.703 287.968 250.34C287.987 251.726 288.006 253.112 288.026 254.539C287.721 258.39 287.122 260.524 285.054 263.744C281.49 266.517 279.57 266.402 274.981 266.241C270.402 265.076 270.402 265.076 268.16 262.917C264.517 256.333 265.497 248.365 266.406 241.099C270.341 234.85 273.758 233.197 281.058 234.439Z" fill="#EF2626"/>
</g>
<defs>
<clipPath id="clip0_964_6841">
<rect width="682" height="682" fill="white"/>
</clipPath>
</defs>
</svg>
