<svg width="683" height="683" viewBox="0 0 683 683" fill="none" xmlns="http://www.w3.org/2000/svg">
<g clip-path="url(#clip0_937_6781)">
<path d="M94.0001 0.935251C91.0668 1.20192 70.2668 3.20192 47.7334 5.33525C25.2001 7.46858 5.60011 9.86858 4.13344 10.6686C-1.73323 13.7353 -0.533226 24.4019 5.73344 26.0019C7.46677 26.5353 28.4001 24.9353 52.2668 22.8019C76.1334 20.5353 99.8668 18.6686 104.933 18.6686C117.2 18.6686 132.933 22.8019 143.867 28.9353C158.933 37.2019 169.333 49.2019 185.6 77.3353C193.467 90.9353 200 102.802 200.267 103.735C200.533 104.802 196.667 107.735 191.333 110.935C186.267 113.869 180.667 117.469 179.067 118.935C174.4 123.335 171.6 132.269 172.267 140.402C172.8 147.202 178 156.402 246.667 272.802C287.2 341.735 322.133 400.535 324.133 403.602C329.067 410.669 337.067 414.669 346.8 414.669C352.933 414.669 355.6 413.735 364.533 408.669C370.4 405.335 375.467 402.669 376 402.669C376.533 402.669 383.733 413.869 392 427.602C427.333 486.135 440.4 506.802 465.733 544.669C498.267 593.469 509.2 608.935 514.133 613.469C518.667 617.469 542.667 634.535 549.333 638.535C551.867 640.002 559.467 642.269 566 643.602C578 646.002 578 646.002 578.4 650.269C579.2 657.735 575.867 658.669 550.533 658.269C531.333 658.002 527.067 658.402 515.6 661.202C484.533 668.802 467.867 660.535 450 628.802C431.467 595.869 412 580.802 380 574.669C376 573.869 362 572.402 348.933 571.469C321.6 569.335 314.667 566.935 305.6 556.669C293.6 543.069 294.267 528.535 308.667 483.335C312.933 469.735 313.733 465.469 313.733 455.335C313.733 437.735 308 423.869 294.8 410.269C286.533 401.469 282.933 399.202 246.933 378.935C176.4 339.069 151.333 320.802 113.333 281.869C84.5334 252.402 70.9334 232.669 63.3334 210.002C58.5334 195.869 57.4668 179.069 60.5334 164.135C62.5334 154.135 62.6668 152.802 60.6668 149.869C58.0001 145.602 52.8001 144.535 48.8001 147.202C40.8001 152.402 38.8001 191.869 45.3334 212.669C54.4001 241.202 73.7334 268.402 110.133 304.135C145.867 339.069 171.2 356.669 250.533 401.469C277.733 416.802 285.467 423.335 291.6 435.869C294.4 441.469 295.467 445.735 295.733 453.335C296.133 462.135 295.467 465.602 290.267 482.669C279.867 516.269 278 526.935 280 541.735C282.4 557.869 291.2 571.069 305.733 579.735C315.867 585.869 323.867 587.602 348.267 589.202C401.067 592.669 414.4 601.069 440 646.802C446.667 658.535 458.133 669.602 469.733 675.335C485.6 683.069 501.2 683.869 522.667 678.002C527.867 676.669 536.933 676.002 553.333 676.002C573.067 676.002 577.467 675.602 582 673.469C592.933 668.535 599.067 656.535 596.133 645.602C593.067 633.869 587.333 629.469 572 626.669C567.2 625.869 561.867 624.535 560.267 623.869C556.933 622.535 532.133 605.335 526.8 600.802C519.467 594.269 461.733 508.002 430.4 456.669C390.933 391.735 303.733 244.402 218 97.6019C201.067 68.8019 184.8 41.8686 181.733 38.0019C169.333 22.2686 149.2 9.20192 129.2 4.13525C118.667 1.46858 102.667 0.00191756 94.0001 0.935251ZM228.667 151.069C256.533 199.069 318.533 304.269 343.6 346.402C356.4 367.869 366.533 385.869 366.133 386.535C364.533 388.935 348.933 397.335 345.867 397.335C344.133 397.335 341.6 396.269 340.267 394.935C336.933 391.602 190.267 142.669 189.6 139.202C189.333 137.602 189.733 135.069 190.533 133.602C192 130.935 207.2 121.335 210 121.335C210.8 121.335 219.067 134.669 228.667 151.069Z" fill="#EF3636"/>
<path d="M447.334 15.4679C445.867 15.7346 441.334 16.6679 437.334 17.4679C433.334 18.2679 428.267 19.8679 426.134 20.9346C422.8 22.6679 421.334 22.6679 413.067 20.6679C379.2 12.2679 347.867 35.2012 345.734 69.7346C344.667 86.6679 348.934 98.0012 362.8 115.335C374.134 129.468 376.934 154.668 368.667 168.801C361.067 182.135 359.467 186.001 358.934 193.601C358.134 203.868 360.667 212.268 366.667 219.868C385.334 243.335 424.267 237.601 434.667 209.735C439.467 196.801 437.867 187.068 428.4 171.735C423.334 163.601 423.334 163.468 423.334 149.468C423.334 137.068 423.734 134.401 426.8 127.868C428.667 123.868 433.067 117.468 436.4 113.601C439.867 109.735 444 104.268 445.6 101.335L448.667 96.0012H552.8C667.334 96.0012 661.6 96.4012 671.334 87.7346C679.067 80.9346 682 74.2679 682 62.6679C682 50.9346 679.067 44.4012 671.2 37.3346C660.8 28.2679 664.8 28.6679 578 28.2679L499.334 27.8679L492 24.1346C488 22.0012 481.467 19.3346 477.467 18.1346C470.134 16.0012 452 14.4012 447.334 15.4679ZM479.067 37.7346C495.334 45.2012 499.334 55.6012 489.734 65.3346C481.734 73.2012 471.6 76.4012 453.734 76.5346C436.934 76.6679 436.534 76.9346 432.8 86.8012C431.6 90.1346 427.867 96.1346 424.4 100.135C410 116.935 405.2 129.201 405.067 149.335C405.067 163.601 407.467 172.268 414.4 183.201C420.134 192.135 420.8 197.068 417.6 204.268C410.934 219.335 389.334 221.201 379.467 207.601C374.667 201.068 375.6 191.735 381.867 181.601C388.534 171.068 390.667 162.535 390.667 147.335C390.667 128.001 386.934 118.001 373.334 99.8679C368.134 92.8012 365.2 87.4679 364 82.6679C359.467 63.8679 370.4 44.0012 388.134 38.2679C397.334 35.2012 401.6 35.4679 412.667 39.3346C421.334 42.4012 422.134 42.5346 426 40.5346C436.4 35.0679 444.4 33.3346 458 33.7346C469.2 34.0012 472.667 34.6679 479.067 37.7346ZM658.534 50.0012C666.534 56.8012 666.8 67.6012 659.2 74.8012L655.734 78.0012L579.2 78.4012L502.667 78.6679L506.534 73.3346C511.067 67.0679 514 56.5346 512.667 50.6679L511.734 46.6679H583.067H654.4L658.534 50.0012Z" fill="#EF3636"/>
<path d="M573.467 197.869C572.667 198.802 570.8 203.069 569.333 207.335C566.4 216.002 562.4 223.069 557.6 228.269L554.133 232.002H518.4C479.467 232.002 477.067 232.402 470.4 239.469C465.6 244.669 463.733 250.002 463.867 258.135V264.935L458.4 265.735C451.6 266.669 446.8 270.002 443.6 276.135C441.6 279.869 441.333 283.202 441.6 294.802C442 307.469 442.4 309.469 445.467 314.135C448.133 318.002 449.2 321.735 449.867 328.802C450.8 340.135 454.8 353.602 460.267 364.669C486 415.869 544.4 439.602 599.2 421.202C616.933 415.202 628.133 408.135 642.667 393.469C661.867 374.135 671.2 355.202 674.8 328.669C676 319.869 677.2 315.869 679.2 313.602C681.6 310.802 682 308.535 682.4 295.335C682.8 283.069 682.4 279.335 680.533 275.335C677.733 269.202 670.4 265.335 661.6 265.335H655.067L655.733 258.802C656.533 250.002 652.4 241.202 644.933 236.269C640 232.935 638.133 232.669 623.067 232.002L606.4 231.335L604 224.402C599.2 210.669 586.4 196.002 579.333 196.002C576.933 196.002 574.267 196.802 573.467 197.869ZM586.933 229.469C588.133 232.669 589.2 237.335 589.2 239.602C589.333 242.135 590.533 245.202 592 246.669C594.4 249.069 596.4 249.335 614 249.335C631.6 249.335 633.6 249.602 636 252.002C637.467 253.469 638.667 255.869 638.667 257.335C638.667 258.802 637.467 261.202 636 262.669C633.333 265.335 631.6 265.335 559.733 265.335C493.2 265.335 486 265.069 483.733 263.069C480.8 260.402 480.667 254.935 483.6 251.735C485.6 249.469 488.667 249.335 523.867 249.335H561.867L569.333 241.602C573.333 237.335 577.867 231.202 579.2 228.135C580.667 225.069 582.4 222.802 583.2 223.069C584 223.335 585.733 226.269 586.933 229.469ZM665.333 293.335V302.669H562.667H460V293.335V284.002H562.667H665.333V293.335ZM657.333 324.935C657.333 332.135 653.2 346.135 648 356.669C624.8 404.535 565.467 423.469 516.933 398.402C501.867 390.669 485.467 374.269 477.733 359.335C472 348.269 468.8 338.402 467.2 327.602L466.4 321.335H561.867H657.333V324.935Z" fill="#EF3636"/>
</g>
<defs>
<clipPath id="clip0_937_6781">
<rect width="682.667" height="682.667" fill="white"/>
</clipPath>
</defs>
</svg>
