<svg width="683" height="683" viewBox="0 0 683 683" fill="none" xmlns="http://www.w3.org/2000/svg">
<path d="M125.6 7.46768C121.2 10.5343 121.867 15.0677 128.534 27.201C131.734 33.201 140.267 49.0677 147.734 62.6677C204.667 168.001 251.067 261.868 262 294.001C263.334 297.601 264.667 304.934 264.934 310.134C265.867 322.001 263.6 327.334 251.467 342.001C241.067 354.534 235.467 365.068 232.4 378.134L230.267 387.601L215.467 372.668C198.4 355.468 189.734 350.134 179.334 350.801L173.2 351.201L160 328.801C152.667 316.401 146.667 305.868 146.667 305.334C146.667 304.801 148.134 301.601 150 298.534C153.867 291.734 154.534 280.001 151.467 272.934C146.8 261.734 111.467 204.268 106.667 199.868C97.8669 191.734 83.8669 189.868 73.3335 195.334C69.7335 197.201 68.9335 197.201 65.3335 195.334C58.9335 192.001 53.6002 192.801 48.6669 197.734C36.6669 209.734 40.4002 230.534 61.0669 268.668C72.4002 289.201 83.6002 304.934 95.3335 316.668C104.4 325.601 108.4 331.201 120.4 351.468C131.6 370.401 134.667 376.534 134.667 380.534C134.667 395.734 143.734 422.401 157.467 447.334C186 499.068 213.334 527.068 235.2 527.068C247.067 527.068 254.134 521.334 255.6 510.934C256.134 506.801 257.067 505.468 260.134 504.401C267.867 501.468 272 488.134 269.6 473.601L268.4 466.668L272.534 469.068C311.2 492.001 320 498.401 326.134 508.268C328.8 512.401 334.534 532.268 334.667 537.601C334.667 538.134 261.867 538.801 172.8 538.934C13.0669 539.334 10.9335 539.334 8.0002 542.001C5.33354 544.401 5.06687 545.601 5.6002 553.334C6.4002 563.601 10.9335 573.468 18.1335 580.801C23.2002 585.868 34.6669 592.001 39.3335 592.001C41.4669 592.001 45.6002 599.068 59.7335 626.668C75.2002 656.801 78.4002 662.134 84.2669 667.334C96.2669 678.134 75.4669 677.334 341.334 677.334C607.2 677.334 586.4 678.134 598.4 667.334C604.267 662.134 607.467 656.801 622.934 626.668C637.067 599.068 641.2 592.001 643.334 592.001C648.267 592.001 659.734 585.601 665.067 580.134C672.267 572.668 676.267 563.868 677.067 553.334C677.6 545.601 677.334 544.401 674.667 542.001C671.867 539.468 669.6 539.334 606.8 538.934L541.867 538.534L531.467 521.468C516.4 496.534 514.267 490.001 514.4 469.334C514.667 446.134 512.4 411.068 509.867 396.001C506 373.201 500.4 358.534 488.4 339.201C477.067 320.801 477.2 321.468 468 232.801C461.067 166.134 460.934 165.334 453.734 165.334C448.534 165.334 445.067 170.001 445.867 175.734C446.267 178.401 448.8 201.068 451.334 226.001C459.2 301.334 460.134 309.734 461.6 316.668C463.334 324.934 470 339.868 477.867 352.401C492.667 376.401 498.667 410.934 498.667 471.334V490.001L496 486.668C489.067 478.001 485.334 467.201 482 445.601C476.134 407.334 470.4 383.468 462.534 364.668C458.267 354.134 450.134 341.601 436 323.468C424.934 309.201 422.4 302.668 413.2 266.134C409.6 251.468 402.934 225.468 398.534 208.668C359.2 57.8677 346.267 9.73435 344.667 8.13435C339.734 3.06768 329.867 8.66768 331.467 15.8677C332 17.7343 340.667 51.0677 350.934 89.8677C361.067 128.534 377.734 192.801 388 232.534C409.334 314.801 410.534 318.001 427.734 339.334C433.734 346.668 440.667 356.668 443.2 361.468C452.534 378.934 460.134 407.868 466 447.601C467.867 460.268 470.534 472.268 472.134 476.401C476.134 485.868 484.667 498.534 496.134 512.001C501.334 518.268 508.267 526.801 511.6 531.068L517.467 538.668H434.267H351.2L348.8 526.268C343.867 500.401 334 487.601 306 470.668C267.334 447.201 257.867 439.601 251.467 426.401C246.934 417.068 244.934 405.334 246 394.668C248 374.934 251.334 367.468 265.867 349.334C279.2 332.801 281.867 326.001 280.934 310.001C279.867 291.068 269.467 264.934 235.2 196.001C202.934 130.801 140.4 13.7343 135.067 8.26768C131.6 4.80102 129.6 4.66768 125.6 7.46768ZM96.1335 211.468C97.4669 212.668 107.334 228.401 118 246.534C140.267 284.401 140.934 286.668 132.667 294.668C129.734 297.601 128 300.401 128 302.668C128 304.668 135.067 318.001 145.334 335.334C161.334 362.268 162.667 365.068 162 369.734C161.067 376.401 163.334 390.268 167.467 403.334C178.667 438.001 210.667 484.934 232.4 498.668C238.4 502.401 239.867 504.001 240 506.934C240 512.268 235.867 512.934 227.467 508.801C210.134 500.401 187.067 470.401 167.334 430.801C156.267 408.534 151.867 395.334 150.8 381.334L150 370.001L134.667 344.001C121.467 321.601 117.867 316.534 108.534 307.334C92.2669 291.334 71.0669 257.868 62.6669 234.934C58.5335 223.601 56.9335 212.001 59.4669 211.068C60.4002 210.801 65.3335 218.534 70.6669 228.668C81.2002 248.668 84.0002 251.468 90.0002 247.468C94.8002 244.268 94.2669 240.534 86.6669 225.334C83.0669 218.001 80.0002 211.468 80.0002 210.801C80.0002 207.468 92.2669 207.868 96.1335 211.468ZM189.467 370.401C202.8 378.934 227.6 410.001 233.6 425.734C235.067 429.468 238.267 436.001 240.8 440.134C249.334 454.268 256.267 478.801 254.134 487.334C253.334 490.401 252.8 490.801 249.6 490.001C235.467 486.401 207.334 452.801 192 420.801C178.8 393.334 173.467 366.668 181.2 366.668C182.4 366.668 186.134 368.401 189.467 370.401ZM660 557.468C660 564.534 647.867 576.001 640.4 576.001C638.934 576.001 635.867 576.668 633.6 577.468C630 578.668 627.6 582.668 611.334 614.401C601.2 634.001 591.467 651.734 589.467 653.868C582.134 661.868 598.267 661.334 341.334 661.334C84.4002 661.334 100.534 661.868 93.2002 653.868C91.2002 651.734 81.4669 634.001 71.3335 614.401C55.0669 582.668 52.6669 578.668 49.0669 577.468C46.8002 576.668 43.6002 576.001 42.0002 576.001C36.9335 576.001 27.3335 568.801 24.2669 562.668C22.6669 559.468 21.7335 556.401 22.1335 555.734C22.5335 555.201 166.134 554.668 341.467 554.668H660V557.468Z" fill="#EF3636"/>
<path d="M431.2 8.66597C428.4 11.466 427.867 12.9326 428.534 17.066C428.934 19.7326 431.467 42.1326 434.134 66.666C437.2 95.9993 439.6 112.399 440.8 114.266C443.2 118.133 449.334 118.266 452.667 114.666C455.067 111.999 455.067 110.666 450.134 66.266C444.267 12.1326 444.134 11.1993 442.134 8.7993C439.2 5.06597 434.934 4.93263 431.2 8.66597Z" fill="#EF3636"/>
<path d="M444.933 135.734C442 138.934 442.133 144.4 445.067 147.067C450.4 151.867 457.733 148.534 457.733 141.334C457.733 134.134 449.6 130.534 444.933 135.734Z" fill="#EF3636"/>
<path d="M553.067 179.601C551.867 180.935 550.4 186.668 549.6 192.535C546.133 218.535 530.8 233.868 504.533 237.335C496.667 238.401 493.467 239.468 491.733 241.601C485.867 248.401 490.533 253.201 504.667 254.801C530.267 257.601 545.733 273.068 549.467 299.335C551.067 310.668 553.333 314.668 558 314.668C563.6 314.668 565.467 311.735 566.667 301.201C568.133 289.335 570.533 281.868 575.867 274.268C583.333 263.468 595.733 256.401 609.867 255.201C624 253.868 628.533 250.401 626.133 242.935C625.067 239.601 623.067 238.801 610.8 237.335C585.067 234.001 569.6 218.001 566.8 191.735C565.733 182.001 562.933 177.335 558 177.335C556.4 177.335 554.133 178.401 553.067 179.601ZM567.733 233.468C570.267 236.268 574.8 240.135 578 242.135L583.6 245.735L576.133 251.335C571.867 254.401 566.133 260.135 563.333 264.001L558.133 271.068L556.133 267.868C552.4 262.268 544.133 253.868 538.533 249.868L533.067 246.135L536.133 244.001C541.733 240.401 552 230.401 554.933 225.601L557.867 220.801L560.533 224.668C562.133 226.801 565.333 230.801 567.733 233.468Z" fill="#EF3636"/>
<path d="M300.667 349.335C297.2 353.069 298.667 365.602 303.6 376.269C310.8 391.735 325.2 402.402 342.4 405.469C351.6 407.069 356.267 405.469 358 400.002C359.6 395.069 355.6 391.202 348.133 390.269C329.733 388.135 317.2 376.002 314.8 357.869C314.267 354.002 313.067 349.869 312.133 348.802C309.6 345.869 303.6 346.135 300.667 349.335Z" fill="#EF3636"/>
<path d="M53.0668 408.933C52.0002 410.267 50.6668 414.8 50.1335 419.067C48.0002 437.867 36.6668 448.933 16.9335 451.333C9.06683 452.4 5.3335 455.2 5.3335 460.133C5.3335 463.867 11.7335 468 17.3335 468C34.4002 468 48.1335 481.467 50.2668 500.133C51.2002 508.533 53.6002 512 58.6668 512C63.7335 512 66.2668 508.4 67.0668 499.733C68.0002 490.667 73.4668 479.733 79.3335 475.2C84.8002 471.067 93.7335 468 100.267 468C105.6 468 112 463.467 112 459.733C112 455.2 108 452.267 100.4 451.467C90.4002 450.267 79.7335 445.067 74.6668 438.933C70.2668 433.733 66.6668 423.467 66.6668 416.667C66.6668 408.133 58.1335 403.2 53.0668 408.933ZM65.4668 452.4L72.6668 459.467L65.7335 466.267L58.6668 473.067L51.7335 466.267L44.6668 459.467L51.3335 452.533C55.0668 448.8 58.0002 445.6 58.1335 445.467C58.1335 445.333 61.4668 448.533 65.4668 452.4Z" fill="#EF3636"/>
<path d="M618.133 409.6C617.2 411.333 616 416 615.6 420.133C614 437.733 602 448.933 582.4 451.333C574 452.4 571.733 454.133 571.733 459.467C571.733 464.667 574.667 466.667 584.667 468.133C599.733 470.267 609.333 477.6 614 490.533C615.067 493.733 616 498.533 616 501.2C616 507.6 619.2 512 623.733 512C629.6 512 630.8 510.267 632.667 499.733C634.8 487.6 636.933 483.2 644 476.8C650.667 470.8 654.133 469.333 665.333 468C674.4 466.8 677.333 464.667 677.333 459.333C677.333 454.933 673.467 452.267 665.333 451.2C645.867 448.667 636.133 439.2 632.667 419.2C631.733 413.6 630.133 408.4 629.067 407.867C625.6 405.6 620.133 406.533 618.133 409.6ZM631.067 452.4L638.267 459.467L631.333 466.4L624.4 473.2L617.2 466.4L610 459.467L616.667 452.533C620.4 448.8 623.467 445.6 623.733 445.467C623.867 445.467 627.2 448.533 631.067 452.4Z" fill="#EF3636"/>
</svg>
