<svg width="683" height="683" viewBox="0 0 683 683" fill="none" xmlns="http://www.w3.org/2000/svg">
<path d="M227.467 13.7333C225.2 16.1333 224.267 18.9333 223.6 26C221.2 51.4667 200.8 71.8667 175.2 74.2667C164.533 75.2 160 78.5333 160 85.3333C160 92.1333 164.533 95.4667 175.2 96.4C200.8 98.8 221.2 119.2 223.6 144.667C224.533 155.467 227.867 160 234.667 160C241.467 160 244.8 155.467 245.733 144.667C248.133 119.2 268.533 98.8 294.133 96.4C304.8 95.4667 309.333 92.1333 309.333 85.3333C309.333 78.5333 304.8 75.2 294.133 74.2667C268.533 71.8667 248.133 51.4667 245.733 26C244.8 15.2 241.467 10.6667 234.667 10.6667C232.133 10.6667 229.333 11.8667 227.467 13.7333ZM240.533 67.8667C243.2 71.6 248.4 76.8 252.133 79.4667C255.733 82.2667 258.667 84.9333 258.667 85.3333C258.667 85.7333 255.733 88.4 252.133 91.2C248.4 93.8667 243.2 99.0667 240.533 102.8C237.733 106.4 235.067 109.333 234.667 109.333C234.267 109.333 231.6 106.4 228.8 102.8C226.133 99.0667 220.933 93.8667 217.2 91.2C213.6 88.4 210.667 85.7333 210.667 85.3333C210.667 84.9333 213.6 82.2667 217.2 79.4667C220.933 76.8 226.133 71.6 228.8 67.8667C231.6 64.2667 234.267 61.3333 234.667 61.3333C235.067 61.3333 237.733 64.2667 240.533 67.8667Z" fill="#EF3636"/>
<path d="M576.4 12.6658C565.467 15.0658 557.467 18.7992 547.467 25.8658C543.067 29.1992 510.134 61.0658 474.4 96.9325C404.267 167.199 404 167.466 404 181.333C404 190.666 407.334 197.999 415.467 206.666L421.867 213.466L383.867 251.466L346 289.599L312.4 312.132C277.6 335.466 276 336.932 277.867 344.266C278.267 345.999 291.734 360.399 307.734 376.266C337.467 405.999 339.067 407.199 346 404.532C347.2 403.999 358.267 388.532 370.667 370.132L393.067 336.666L431.2 298.799L469.2 260.799L476 267.199C484.667 275.332 492 278.666 501.334 278.666C515.6 278.666 516 278.399 588.8 205.199C628.134 165.599 657.334 135.199 659.867 131.066C674.267 107.999 675.467 78.5325 663.2 53.3325C657.067 41.0658 643.067 26.6658 631.067 20.2658C614.534 11.5992 594.534 8.79918 576.4 12.6658ZM607.334 33.9992C618.4 36.9325 626.934 41.9992 634.8 50.2658C655.2 71.8658 655.6 105.599 635.6 127.333L629.467 133.999L589.067 93.7325L548.8 53.4658L553.067 49.0658C566.534 35.0658 588.134 29.0658 607.334 33.9992ZM574 109.333L614 149.333L573.6 189.732L533.334 229.999L493.067 189.732L452.667 149.333L492.667 109.333C514.667 87.3325 532.934 69.3325 533.334 69.3325C533.734 69.3325 552 87.3325 574 109.333ZM478 205.332L518 245.466L511.734 251.332C500.667 261.866 502.267 262.799 461.067 221.732C428 188.666 425.334 185.733 425.334 181.466C425.334 177.733 426.534 175.599 430.934 171.066C434 167.866 436.934 165.333 437.334 165.333C437.734 165.333 456 183.333 478 205.332ZM446 237.332L454 245.332L418.934 280.399L384 315.332L375.734 306.932L367.334 298.666L402 263.999C421.067 244.932 436.934 229.332 437.334 229.332C437.734 229.332 441.6 232.932 446 237.332ZM360.267 322.266C365.334 327.199 369.334 331.732 369.334 332.266C369.334 332.932 362.667 343.332 354.534 355.599L339.734 377.732L322.534 360.532C312.8 350.799 305.867 342.932 306.534 342.266C308.8 339.999 348.667 313.466 350 313.466C350.667 313.332 355.334 317.332 360.267 322.266Z" fill="#EF3636"/>
<path d="M42.6668 63.9987V74.6654H32.0002H21.3335V85.332V95.9987H32.0002H42.6668V106.665V117.332H53.3335H64.0002V106.665V95.9987H74.6668H85.3335V85.332V74.6654H74.6668H64.0002V63.9987V53.332H53.3335H42.6668V63.9987Z" fill="#EF3636"/>
<path d="M74.6669 140.4C68.1336 142.533 56.9336 154 54.9336 160.8C54.0002 163.867 53.3336 173.333 53.3336 182V197.6L44.4002 207.2C33.2002 219.2 24.8002 232.133 19.2002 245.867C10.4002 267.467 10.6669 259.867 10.6669 472.933V665.467L14.0002 668.667L17.2002 672H309.334H601.467L604.8 668.667L608.134 665.333L607.734 606.267C607.2 543.467 607.2 544.4 600 525.067C596.134 514.8 586.134 499.6 576.667 490.267C533.467 446.4 461.334 448.933 421.067 495.6C414.667 503.067 413.334 503.867 413.334 500.133C413.334 498.667 411.6 492.533 409.334 486.533C388.934 430.4 327.734 402.267 272 423.2C257.467 428.533 244.4 437.333 233.067 449.067L224 458.4V369.333C224 270.533 223.734 266 215.467 245.867C209.867 232.133 201.467 219.2 190.267 207.2L181.334 197.6V182C181.334 162.933 179.867 157.6 172.4 149.333C163.2 139.067 160.667 138.667 116.8 138.8C93.6002 138.933 77.6002 139.467 74.6669 140.4ZM105.334 163.733C105.334 176.667 93.4669 203.067 82.1336 215.333L74.8002 223.333L74.6669 194.933V166.533L78.0002 163.333C80.9336 160.267 82.2669 160 93.3336 160H105.334V163.733ZM156.667 163.333C160 166.533 160 166.8 160 192.267V218L150.4 226C137.2 236.933 127.867 248.8 120 264.667C113.734 277.333 108 296.133 108 304.4C108 309.2 105.334 310.133 97.6002 307.867C89.4669 305.6 78.6669 295.067 76.2669 287.2C75.3336 284.133 74.6669 274.8 74.6669 266.4V251.2L83.0669 244.4C104.4 227.333 119.734 202 124.8 175.333C126 168.667 127.2 162.533 127.467 161.6C127.734 160.533 131.6 160 140.667 160C152.4 160 153.734 160.267 156.667 163.333ZM58.9336 300.267C64.9336 312.4 72.6669 319.867 85.0669 325.733L94.0002 330H117.467H140.8L150.934 325.067C163.067 319.067 170.534 311.333 176.4 298.933L180.667 290L181.334 260L182 230L186.934 237.333C189.734 241.333 193.467 248.533 195.467 253.2C202.8 271.6 202.667 266.133 202.667 466.133V650.667H117.334H32.0002V466.133C32.0002 266.133 31.8669 271.6 39.2002 253.2C41.2002 248.533 44.9336 241.333 47.7336 237.333L52.6669 230L53.3336 260.133L54.0002 290.133L58.9336 300.267ZM158.534 286.4C155.734 296.667 144.667 306.667 133.467 308.8C129.6 309.6 129.334 309.467 129.334 305.733C129.334 292.933 141.067 266.667 152.267 254.133L159.334 246.133L159.734 263.467C160 273.867 159.467 282.933 158.534 286.4ZM327.334 439.333C351.467 444.4 373.867 461.733 385.067 484C394.4 502.667 394.667 504.933 394.667 582.267V650.667H309.334H224V582.267C224 505.067 224.267 502.8 233.467 484C250.267 450 289.334 431.333 327.334 439.333ZM519.334 482C543.467 487.067 565.867 504.4 577.067 526.667C586 544.4 586.667 549.733 586.667 603.6V650.667H501.334H416V603.6C416 549.867 416.667 544.533 425.467 526.667C442.267 492.667 481.334 474 519.334 482Z" fill="#EF3636"/>
<path d="M53.3335 384.001V394.668H117.333H181.334V384.001V373.335H117.333H53.3335V384.001Z" fill="#EF3636"/>
<path d="M53.3335 426.665V437.332H117.333H181.334V426.665V415.999H117.333H53.3335V426.665Z" fill="#EF3636"/>
<path d="M245.333 512.001V522.668H309.333H373.334V512.001V501.335H309.333H245.333V512.001Z" fill="#EF3636"/>
<path d="M245.333 554.665V565.332H309.333H373.334V554.665V543.999H309.333H245.333V554.665Z" fill="#EF3636"/>
<path d="M437.333 554.665V565.332H501.333H565.334V554.665V543.999H501.333H437.333V554.665Z" fill="#EF3636"/>
<path d="M437.333 597.333V608H501.333H565.334V597.333V586.667H501.333H437.333V597.333Z" fill="#EF3636"/>
<path d="M266.667 202.667V213.333H256H245.333V224V234.667H256H266.667V245.333V256H277.333H288V245.333V234.667H298.667H309.333V224V213.333H298.667H288V202.667V192H277.333H266.667V202.667Z" fill="#EF3636"/>
</svg>
