<svg width="683" height="683" viewBox="0 0 683 683" fill="none" xmlns="http://www.w3.org/2000/svg">
<path d="M41.6 37.3322C40 37.9989 38 40.1322 37.3333 41.9989C36.5333 44.1322 36 65.8656 36 95.4656V145.466L39.3333 148.666C42.9333 152.399 47.6 152.932 51.4667 150.132C53.8667 148.266 54 145.732 54.6667 101.732L55.3333 55.3322H341.333H627.333L628 101.732C628.667 145.732 628.8 148.266 631.2 150.132C635.067 152.932 639.733 152.399 643.467 148.666L646.8 145.332L646.4 93.3322C646 45.5989 645.867 41.1989 643.6 39.0656C641.333 36.7989 627.333 36.6656 342.933 36.3989C165.467 36.2656 43.4667 36.6656 41.6 37.3322Z" fill="#EF3636"/>
<path d="M273.333 134.932C267.467 141.199 267.867 141.865 314 187.999C337.867 211.865 357.333 231.865 357.333 232.399C357.333 232.799 296.4 233.465 221.867 233.599L86.4001 233.999L83.8668 237.199C80.5335 241.199 80.6668 245.999 84.0001 249.332C86.6668 251.999 88.4001 251.999 175.867 251.999C225.067 251.999 265.467 252.532 265.867 253.199C266.267 253.732 260.133 256.932 252.267 259.999C219.467 273.065 169.733 298.799 110 333.732C92.4001 343.999 74.9335 354.265 71.0668 356.532C60.6668 362.399 60.6668 363.332 68.0001 391.065C71.4668 404.132 75.4668 415.999 76.6668 417.332C78.0001 418.799 80.6668 419.999 82.6668 419.999C84.5335 419.999 109.6 408.399 138.133 394.265C219.333 354.132 258.4 338.665 303.333 329.199C323.067 324.932 362.4 324.665 380 328.532C415.067 336.132 455.067 353.999 494 379.599C522.933 398.665 535.2 409.065 572 445.865C603.067 477.065 607.867 481.332 611.467 481.332C616.4 481.332 620.4 477.465 620.4 472.532C620.4 468.799 619.467 467.865 477.067 325.599C438.267 287.065 406.667 254.665 406.667 253.732C406.667 252.399 422.8 251.999 485.467 251.732L564.4 251.332L567.067 247.732C569.333 244.665 569.467 243.599 568.133 240.132C567.067 237.732 564.933 235.599 562.4 234.799C559.6 233.865 529.467 233.332 471.467 233.332H384.667L334 182.665C279.733 128.399 279.6 128.265 273.333 134.932Z" fill="#EF3636"/>
<path d="M413.334 414.135C382 431.068 356.134 439.868 322.667 444.802C300 448.002 259.867 446.802 238 442.135C217.333 437.735 200.133 432.002 182.267 423.602C170.133 418.002 167.333 417.068 164.267 418.135C159.2 419.868 156.667 424.935 158.533 429.735C159.733 432.668 162.8 434.802 173.6 440.002C246.933 475.068 335.067 473.868 409.2 436.935C429.867 426.668 435.467 420.268 429.734 413.602C425.6 408.935 422.534 409.068 413.334 414.135Z" fill="#EF3636"/>
<path d="M408.267 448.667C359.6 476.267 296.933 485.334 237.333 473.334C221.2 470.001 203.2 464.134 184.667 455.867C176.667 452.267 168.667 449.334 167.067 449.334C161.467 449.334 157.067 457.201 159.867 462.401C160.533 463.734 165.733 467.201 171.333 469.867L181.333 474.801L178.533 480.267C174 489.201 162.8 499.334 151.067 505.067C143.2 508.934 140.4 510.934 139.333 513.867C137.467 519.201 140.8 524.534 146.4 525.067C158.8 526.267 185.467 506.534 194.667 489.201L198.8 481.467L204.133 483.334C207.067 484.401 211.867 485.867 214.8 486.667C220.667 488.267 221.2 490.267 218.133 499.067C215.333 506.667 209.733 514.001 203.6 518.134C194.533 524.134 192 526.934 192 530.667C192 534.801 196.933 540.001 200.8 540.001C205.067 540.001 216.267 532.667 222.933 525.734C230.933 517.067 234.933 509.067 237.867 495.867L238.667 492.401L249.333 494.134C255.2 495.067 260.667 496.267 261.333 496.667C262.133 497.067 262.667 501.201 262.667 505.734C262.667 515.601 259.6 523.067 252 531.601C245.6 538.934 245.067 543.867 250.133 547.867C252.133 549.467 254.8 550.667 256.267 550.667C260.667 550.667 270.4 540.134 275.6 529.734C279.733 521.334 280.533 518.134 281.067 508.534L281.733 497.334H294.8H308V505.734C308 520.934 312.933 532.934 323.867 544.267C330.667 551.467 335.467 552.534 340 548.001C344.267 543.734 343.333 539.201 336.667 531.601C333.467 527.867 329.867 522.134 328.667 518.801C326.533 512.401 326 499.067 327.867 496.267C329.067 494.267 348.533 490.134 351.333 491.201C352.267 491.467 353.333 494.267 353.733 497.334C355.467 510.401 369.467 529.201 382.4 535.867C389.2 539.334 392.533 539.467 396 536.001C400.133 531.867 399.467 526.134 394.533 522.401C392.133 520.667 386.8 516.001 382.667 512.001C376.4 506.001 374.533 503.201 372.667 496.934C371.467 492.801 370.667 488.267 370.933 487.067C371.2 485.601 374.933 483.467 381.333 481.067C386.8 479.067 391.733 477.334 392.133 477.334C392.667 477.334 395.333 481.334 398.133 486.134C405.067 498.001 417.333 509.201 430.8 515.867C443.2 522.134 444.933 522.401 449.867 518.534C456.533 513.201 453.867 507.067 442.4 501.334C429.867 495.067 422 488.667 416.133 479.734C413.067 475.334 410.667 471.067 410.667 470.134C410.667 469.334 414.4 466.534 419.067 464.001C428.933 458.534 433.333 454.401 433.333 450.667C433.333 446.934 427.467 441.334 423.733 441.467C422 441.601 415.067 444.801 408.267 448.667Z" fill="#EF3636"/>
<path d="M39.2 534L35.8667 537.333L36.2667 589.333C36.6667 637.067 36.8 641.467 39.0667 643.6C41.3334 645.867 55.2 646 341.333 646C627.467 646 641.333 645.867 643.6 643.6C645.867 641.467 646 637.067 646.4 589.333L646.8 537.333L643.467 534C639.733 530.267 635.067 529.733 631.2 532.533C628.8 534.4 628.667 536.933 628 580.933L627.333 627.333H341.333H55.3334L54.6667 580.933C54 536.933 53.8667 534.4 51.4667 532.533C47.6 529.733 42.9334 530.267 39.2 534Z" fill="#EF3636"/>
</svg>
