<svg width="683" height="683" viewBox="0 0 683 683" fill="none" xmlns="http://www.w3.org/2000/svg">
<g clip-path="url(#clip0_937_6826)">
<path d="M522.4 1.6026C517.733 5.2026 497.333 36.4026 497.333 40.0026C497.333 44.6693 502.4 49.3359 507.466 49.3359C512 49.3359 514 47.4693 522.266 35.7359C528.266 27.0693 527.733 26.9359 535.733 38.9359C541.866 47.8693 543.6 49.3359 548.666 49.3359C553.466 49.3359 558.666 44.4026 558.666 39.8693C558.666 36.8026 540 8.66927 534.533 3.6026C530.4 -0.264065 525.866 -1.06407 522.4 1.6026Z" fill="#EF3636"/>
<path d="M418.667 45.3344C415.2 48.801 415.333 53.0677 419.333 74.6677C422.933 94.401 424.8 97.7344 432.133 97.7344C437.467 97.7344 441.333 93.3344 441.333 87.4677C441.2 85.201 440.4 79.3344 439.467 74.2677C437.467 63.8677 436.533 64.401 451.467 67.3344C459.733 68.9344 462.4 68.9344 465.2 67.601C471.467 64.5344 472.4 53.7344 466.533 50.6677C463.733 49.0677 429.6 42.6677 424.4 42.6677C422.667 42.6677 420.133 43.8677 418.667 45.3344Z" fill="#EF3636"/>
<path d="M608.4 46.1342C599.333 47.8675 590.8 49.8675 589.333 50.6675C583.066 54.0008 583.333 63.0675 589.866 67.3342C592.8 69.3342 594 69.3342 604.666 67.3342C611.066 66.1342 616.533 65.4675 616.933 65.7342C617.2 66.1342 616.533 71.6008 615.333 78.0008C613.333 88.6675 613.333 89.8675 615.333 92.8008C619.6 99.3342 628.666 99.6008 632 93.4675C633.6 90.4008 640 57.3342 640 51.8675C640 46.9342 634.8 42.6675 629.2 42.8008C626.666 42.9342 617.333 44.4008 608.4 46.1342Z" fill="#EF3636"/>
<path d="M504.8 67.8672C479.2 75.0672 459.067 91.7338 447.067 115.601C441.067 127.867 439.867 136.934 443.867 140.534C447.467 143.867 454.133 143.867 457.2 140.534C458.533 139.201 460.933 134.401 462.533 130.134C472.4 103.467 498.533 85.3338 527.333 85.3338C548 85.3338 561.867 91.0672 576.667 106.001C591.6 120.801 597.333 134.667 597.333 155.334C597.333 203.334 549.467 236.667 504 220.667C485.867 214.267 470.267 198.934 462.533 179.867C457.067 166.267 452.267 163.601 444.667 169.601C441.467 172.134 441.067 173.067 441.733 178.401C442.133 181.601 444.933 189.467 448.133 195.734C459.067 218.001 481.467 235.734 506.667 242.267C518 245.067 538 245.067 549.333 242.267C564.667 238.267 579.467 229.867 590.667 218.667C601.867 207.334 607.867 198.134 613.067 183.734C616.267 174.934 616.667 172.134 616.667 155.334C616.667 140.534 616.133 135.067 614.133 129.334C604.133 99.8672 585.6 80.5338 557.067 69.8672C543.867 64.9338 518.8 64.0005 504.8 67.8672Z" fill="#EF3636"/>
<path d="M392.667 136.001C367.2 153.601 367.067 155.868 390.4 172.135C398.933 178.135 407.6 183.735 409.6 184.535C416.667 187.201 424 180.401 422.133 172.801C421.6 170.401 418 167.068 411.333 162.401C405.867 158.535 401.333 155.068 401.333 154.668C401.333 154.268 404.133 152.268 407.467 150.135C417.067 144.001 422.667 138.135 422.667 134.135C422.667 129.735 417.2 124.001 413.067 124.001C411.333 124.001 402.267 129.335 392.667 136.001Z" fill="#EF3636"/>
<path d="M636.8 126.803C634.266 128.803 633.333 130.803 633.333 134.003C633.333 139.069 634.8 140.803 643.733 146.936C655.733 154.936 655.6 154.403 646.933 160.403C635.066 168.669 633.333 170.669 633.333 175.336C633.333 180.403 638 185.336 642.933 185.336C646.266 185.336 677.6 164.803 681.066 160.269C683.733 156.803 682.933 152.269 679.066 148.136C674 142.669 645.866 124.003 642.8 124.003C641.466 124.003 638.8 125.203 636.8 126.803Z" fill="#EF3636"/>
<path d="M425.467 214.268C423.2 216.135 421.867 220.401 419.333 234.535C415.333 256.135 415.2 261.468 418.4 264.401C421.733 267.468 427.067 267.201 448.133 263.335C462.267 260.801 466.533 259.468 468.4 257.201C471.467 253.335 471.333 247.335 467.867 243.868C464.933 240.935 461.467 240.801 444.133 243.468L438.267 244.401L439.2 238.535C441.867 221.201 441.733 217.735 438.8 214.801C435.333 211.335 429.333 211.201 425.467 214.268Z" fill="#EF3636"/>
<path d="M618.266 213.468C614 216.001 613.333 220.535 615.333 231.335C618.133 246.135 618.666 245.201 608.4 243.201C590.8 239.735 584.933 241.735 584.933 250.801C584.933 257.868 588.4 259.735 608 263.335C617.733 265.201 627.733 266.668 630.266 266.668C635.466 266.668 640 262.801 640 258.268C640 253.335 633.466 218.801 632.133 216.135C629.866 212.001 623.066 210.668 618.266 213.468Z" fill="#EF3636"/>
<path d="M168.4 233.601C161.733 236.801 161.733 248.001 168.266 250.535C170 251.201 176.4 252.401 182.666 253.201C208.666 256.535 228.533 273.201 244.533 304.935C247.2 310.268 249.333 315.201 249.333 315.868C249.333 316.668 247.866 319.335 246.133 321.868L242.933 326.668L237.2 322.001C227.333 314.135 222.666 316.135 215.466 331.068C207.2 348.135 196.133 358.135 178.533 364.135C170.933 366.668 168.266 366.935 153.066 366.268L136.133 365.468L133.333 368.935C126.266 378.001 132.533 384.801 149.466 386.268C154.533 386.668 158.666 387.468 158.666 387.868C158.666 388.401 156.933 391.468 154.933 394.801C147.333 406.535 136.4 414.401 118.533 420.668C114 422.135 111.866 423.868 110.666 426.668C108.8 431.068 109.866 433.468 116.933 442.401C119.6 445.601 121.466 448.268 121.2 448.401C120.933 448.535 118.8 450.001 116.4 451.735C111.066 455.468 110.666 455.468 102.266 451.201C84.2665 442.135 67.7331 426.535 60.2665 411.601C50.3998 392.268 49.1998 369.601 57.0665 353.201C63.5998 339.468 77.3331 328.268 92.9331 324.135C99.8665 322.268 100.666 321.201 103.333 310.135C107.6 291.601 117.6 277.068 135.733 262.935C141.866 258.135 142.933 253.601 139.333 248.401C134 240.801 124.4 244.535 108.4 260.668C99.8665 269.335 96.3998 274.001 92.2665 282.801C89.3331 288.935 86.1331 296.668 85.1998 299.735C83.7331 304.935 82.7998 305.868 76.2665 308.801C47.4665 321.601 31.9998 346.135 31.9998 379.201C31.9998 394.668 34.6665 405.735 41.3331 418.535C51.5998 438.135 66.5331 453.201 88.7998 466.268L99.7331 472.668L100.4 480.268C101.6 494.135 110.8 505.068 125.333 510.268L131.6 512.535L127.466 520.401C123.866 527.468 123.333 529.868 122.933 541.868C122.666 549.201 123.066 557.868 123.733 560.935L125.066 566.535L82.1331 566.935C41.0665 567.335 39.0665 567.468 31.7331 570.401C20.9331 574.668 10.3998 584.668 5.06648 595.735L0.666478 604.535L0.266478 636.801C-0.266855 672.668 0.133145 675.068 8.39981 680.001C12.6665 682.668 17.7331 682.668 341.333 682.668C664.933 682.668 670 682.668 674.266 680.001C682.533 675.068 682.933 672.668 682.4 636.801L682 604.535L677.6 595.735C672.266 584.801 661.733 574.801 650.933 570.401C643.466 567.335 642.666 567.335 580.133 566.935C535.2 566.668 515.733 566.935 513.2 568.001C506.666 570.801 505.2 581.201 510.933 584.935C511.866 585.468 541.466 586.268 576.666 586.668C639.6 587.335 640.8 587.335 646.266 590.268C656.266 595.735 662.666 606.268 662.666 617.868V622.668H341.333H19.9998V617.868C19.9998 606.268 26.3998 595.735 36.3998 590.268L41.9998 587.335L260.4 586.668L478.933 586.001L481.466 582.801C482.8 581.068 484 578.801 484 577.735C484 574.135 480.133 568.401 477.066 567.468C475.333 567.068 443.466 566.668 406 566.668L338 566.535L342.666 562.535C345.2 560.401 352.533 554.935 358.933 550.668L370.4 542.668L375.2 544.668C383.466 548.135 390.666 544.001 390.666 536.001C390.666 530.801 386.266 527.068 376.533 524.001C365.466 520.668 343.466 520.268 339.066 523.335C335.2 526.135 334.133 531.201 336.8 536.135C338.8 540.135 338.8 540.401 335.866 542.401C330.8 545.868 309.6 563.735 308.666 565.201C308.133 566.268 282.133 566.668 226.666 566.668C150.8 566.668 145.6 566.535 144.666 564.401C144.133 563.068 143.333 556.401 143.066 549.735C142.4 540.001 142.8 536.001 144.533 531.468C147.333 524.135 156.933 514.268 169.066 506.135L178.4 500.001L190.933 506.535C197.866 510.135 206 513.868 209.066 514.801L214.533 516.401L210.666 520.935C203.733 528.801 206.4 538.668 215.6 538.668C219.866 538.668 221.733 537.335 230.266 529.201L240 519.735L245.733 525.735C259.066 540.001 280.933 541.868 299.066 530.268C302.933 527.735 312.266 520.401 320 513.868C343.333 494.135 356 486.268 372.666 480.935C393.733 474.268 403.2 475.068 446.533 487.468C514.4 507.068 553.466 512.801 609.6 511.735C641.333 511.201 644 510.401 644 501.468C644 491.868 644.133 491.868 599.066 491.468C543.866 490.935 517.466 486.935 458 470.001C418.4 458.668 411.2 457.068 396.666 457.068C376.533 456.801 353.733 464.401 333.6 477.868C328.666 481.068 317.466 489.868 308.666 497.335C288.4 514.535 282.8 517.868 274.666 517.735C266.133 517.601 260.4 514.401 258.933 508.935C258.266 506.668 258.133 503.868 258.533 502.935C260.266 499.735 301.6 462.935 320.666 447.735C334.133 437.068 349.733 427.201 357.2 424.668C372.533 419.601 395.733 419.868 419.066 425.201C425.466 426.801 440.533 431.335 452.4 435.335C478 443.868 484.8 445.601 506 449.201C531.866 453.468 563.466 456.135 602.133 456.935C637.866 457.735 638.266 457.735 641.066 454.935C645.333 450.668 644.933 443.601 640.533 440.135C637.2 437.601 635.2 437.335 614.8 437.335C553.066 437.335 497.066 430.001 461.466 417.335C428.666 405.601 407.866 401.335 384 401.201C359.6 401.201 345.2 405.868 323.733 420.801L313.466 428.001L312 422.268C309.6 413.068 304.133 399.868 298.666 390.668L293.6 382.001L298 377.201C305.2 369.201 308.4 358.801 307.733 345.335C307.066 332.401 304.266 324.801 297.2 316.668C291.6 310.268 281.2 305.335 273.333 305.335H267.333L262.4 295.601C243.866 259.868 221.2 240.135 191.733 234.135C180 231.735 172.666 231.601 168.4 233.601ZM279.733 327.468C284.666 330.935 288 339.068 288 347.601C288 355.201 284.8 364.135 282 364.801C281.333 364.935 276 359.735 270.133 353.201C258.266 339.735 258 337.735 266 329.735C270.8 324.935 275.066 324.135 279.733 327.468ZM270.133 384.001C284.266 402.668 292.4 420.401 294 435.735L294.8 443.335L279.733 456.268C271.466 463.335 257.733 475.735 249.066 483.868C231.866 500.268 231.6 500.401 218.533 496.535C198.666 490.668 176.8 475.735 152.666 451.735L136.666 435.868L143.866 431.735C159.2 422.801 174.533 405.068 179.333 390.668C181.333 384.668 182 384.001 187.866 382.001C202.666 377.068 217.2 365.868 226.933 351.468L232.266 343.735L246.933 358.135C254.933 366.135 265.333 377.735 270.133 384.001ZM149.066 476.001C155.333 482.135 159.733 487.335 159.2 488.135C157.6 490.801 149.466 493.335 142.4 493.335C128.133 493.335 116.666 483.335 121.466 474.935C123.866 470.535 131.466 465.335 135.2 465.335C136.8 465.468 142.533 469.868 149.066 476.001ZM662.666 652.668V662.668H341.333H19.9998V652.668V642.668H341.333H662.666V652.668Z" fill="#EF3636"/>
<path d="M253.333 427.733C250.533 430.666 249.333 433.066 249.333 436.266C249.333 445.199 240 454.666 231.2 454.666C228.933 454.666 225.467 455.866 223.467 457.466C219.067 460.933 218.667 467.999 222.8 472.133C225.333 474.666 226.8 474.933 234.133 474.266C252.667 472.799 269.2 455.599 269.333 437.866C269.333 429.999 266.8 425.999 261.067 424.533C258.133 423.866 256.667 424.533 253.333 427.733Z" fill="#EF3636"/>
<path d="M500.666 263.334C494.666 269.2 495.2 270.267 514.266 297.6C521.866 308.534 525.466 310.8 531.466 308.534C535.6 307.067 558.666 273.867 558.666 269.6C558.666 265.467 552.933 260 548.533 260C544.533 260 538.666 265.6 532.533 275.2C530.4 278.534 528.266 281.334 527.866 281.334C527.466 281.334 524.266 277.067 520.666 272C511.866 259.067 506.933 256.934 500.666 263.334Z" fill="#EF3636"/>
<path d="M396.667 296.267C393.6 298.933 392.8 301.6 390.4 315.733L387.467 332.133L384.8 328.8C380.267 323.333 375.467 323.067 370.667 327.733C368.533 330 366.667 332.8 366.667 334C366.667 336.667 381.6 365.333 386.267 371.6C388.8 375.067 390.4 376 393.733 376C398.933 375.867 399.6 375.333 411.333 362C430 340.8 430.933 338.8 424.667 332.667C420.667 328.667 416.133 328.4 411.467 332.133C408 334.8 408 334.8 408 332.267C408 330.8 408.933 324.8 410 319.067C412.933 303.6 412.667 299.333 408.533 296.133C404 292.533 400.933 292.667 396.667 296.267Z" fill="#EF3636"/>
<path d="M467.466 313.2C466.133 314.666 464.133 321.866 462.4 331.866L459.466 348L456 344.666C451.466 340.4 446.133 340.4 441.733 344.8C437.2 349.333 437.733 351.466 449.066 372.666C458.8 390.8 462.266 394.4 468.666 392.8C473.066 391.733 500 360.4 500 356.4C500 351.6 497.866 348.533 493.466 346.666C489.866 345.2 488.8 345.333 484.666 347.866C480.133 350.4 480 350.533 480 348.133C480 346.666 480.933 340.8 482 335.066C484.666 321.2 484.533 315.6 481.6 312.933C478.266 309.866 470.266 310 467.466 313.2Z" fill="#EF3636"/>
<path d="M541.866 330.669C537.6 332.403 536.933 333.869 533.866 350.669C531.466 364.403 530.933 365.736 529.466 362.936C525.6 355.736 515.066 356.536 511.866 364.403C510.266 368.269 510.533 369.336 519.2 385.869C530.133 406.536 532.266 409.336 538.133 409.336C541.733 409.336 543.866 407.736 552.933 397.603C574.133 374.003 574.666 373.069 569.2 366.136C565.733 361.736 559.466 361.469 555.066 365.603C552.133 368.269 552 368.403 552 365.869C552 364.536 552.933 358.003 554.133 351.469C556.533 337.469 556 334.136 550.666 331.336C546.266 329.069 545.866 329.069 541.866 330.669Z" fill="#EF3636"/>
</g>
<defs>
<clipPath id="clip0_937_6826">
<rect width="682.667" height="682.667" fill="white"/>
</clipPath>
</defs>
</svg>
