<svg width="683" height="683" viewBox="0 0 683 683" fill="none" xmlns="http://www.w3.org/2000/svg">
<path d="M137.333 45.9994C91.0665 53.8661 51.3331 81.5994 28.6664 121.599C-0.133554 172.666 1.86645 233.599 33.9998 282.266C42.2664 294.533 62.1331 315.733 71.3331 321.733L76.6665 325.199L100.533 394.266C113.733 432.266 125.733 466.399 127.466 470.133C130.933 478.133 134.666 482.133 142.4 485.599L148 488.133V502.399C148 513.466 148.533 517.466 150.133 519.866C152.666 523.333 159.6 526.666 164.666 526.666H168V556.399C168 588.399 169.066 595.466 175.333 607.999C177.066 611.599 181.733 617.599 185.466 621.333C215.2 651.066 265.733 640.666 281.6 601.333C284.533 594.266 284.666 591.866 285.333 539.999L286 485.999L289.466 478.533C294.4 467.999 301.466 460.799 311.733 455.733C319.466 451.866 321.866 451.333 330.666 451.466C350.533 451.733 365.333 461.599 372.8 479.733C375.866 487.199 376 488.133 376 535.599C376 587.466 376.533 593.066 382.8 605.466C387.733 615.333 400.266 626.799 410.266 630.799C421.2 635.199 440.133 635.199 451.066 630.799C461.066 626.799 473.6 615.333 478.533 605.466C484.666 593.333 485.333 587.199 485.333 541.999C485.333 501.733 485.2 499.866 482.666 497.333C479.466 494.133 478.4 493.999 474.8 496.933C472.133 499.333 472 500.533 471.733 545.333C471.333 591.066 471.333 591.333 468 597.999C452.8 629.066 408.533 629.066 393.333 597.999C390 591.333 390 591.333 389.333 537.333C388.533 480.399 388.533 480.666 382 467.999C378.933 461.999 368.533 451.066 362.133 447.066C353.2 441.333 342.933 438.533 331.333 438.533C318.266 438.533 309.6 441.066 299.2 447.733C289.6 453.999 284 460.399 278.266 471.999L274 480.533L273.2 534.666C272.533 586.533 272.4 588.933 269.466 596.266C265.6 606.266 256.4 616.266 246.933 620.933C240.266 624.266 237.866 624.666 226.666 624.666C214.8 624.666 213.466 624.399 205.6 620.133C196.133 614.933 190.933 609.733 185.6 599.599L182 592.666L181.6 559.733L181.2 526.666H184.666C190.4 526.666 197.066 523.066 199.2 518.799C200.8 515.866 201.333 510.799 201.333 500.399L201.466 485.999L206.666 482.399C209.6 480.399 213.066 476.399 214.666 473.466C217.2 468.399 217.333 465.733 217.333 424.266V380.399L227.733 379.599C245.6 378.399 257.733 369.866 262 355.466C263.2 351.466 264 343.333 264 334.666V320.533L277.2 315.599C322.933 298.799 357.466 292.266 409.466 291.066L442.266 290.266L467.333 309.333C481.2 319.733 493.866 328.799 495.6 329.466C504.266 332.799 516.533 328.399 521.6 320.266L524.666 315.333L525.066 204.266C525.333 129.866 524.933 91.4661 524 87.9994C522.133 80.9327 517.2 75.4661 510.4 72.7994C500.4 68.6661 497.066 70.2661 468.8 91.4661L443.333 110.666H420.533C356.8 110.666 308.266 98.6661 244.666 67.1994C215.733 52.9327 201.866 47.9994 183.466 45.466C170.133 43.5994 150 43.866 137.333 45.9994ZM187.6 59.3327C203.733 62.3994 214.133 66.3994 243.466 80.9327C258.133 88.2661 277.066 96.6661 285.466 99.7327C329.866 115.866 374.8 123.999 420.4 123.999H438.666V200.666V277.333H420.133C383.2 277.333 352.266 280.933 317.733 289.466C286.8 296.933 267.333 304.133 230.266 321.599C218.533 327.066 205.2 332.266 197.6 334.133C181.466 338.399 158.266 339.733 142.533 337.466C86.6665 329.199 39.8664 287.066 25.7331 232.133C13.5998 184.799 27.7331 133.466 62.3998 98.7994C83.7331 77.4661 110.4 63.5994 139.866 58.6661C150.533 56.9327 176.533 57.1994 187.6 59.3327ZM508.666 87.3327L512 90.5327V201.333C512 310.266 512 311.999 509.333 314.666C504.133 319.866 500.666 318.266 475.733 299.199L452 281.199V200.799V120.399L476.133 102.133C489.466 92.1327 501.466 83.9994 502.933 83.9994C504.266 83.9994 506.933 85.4661 508.666 87.3327ZM120.533 345.866C143.466 352.533 171.333 353.599 193.333 348.666C198.133 347.599 202.8 346.799 203.733 346.666C204.933 346.666 205.333 359.066 205.333 404.266C205.333 456.533 205.066 462.399 202.933 466.666C199.333 473.866 196.666 474.666 171.6 474.666C145.466 474.666 142.933 473.866 139.333 465.066C136.933 459.066 94.6665 337.599 94.6665 336.666C94.6665 336.399 97.9998 337.599 102.133 339.466C106.266 341.333 114.533 344.133 120.533 345.866Z" fill="#EF3636"/>
<path d="M138.667 94.0001C106 100.667 79.1999 121.467 64.5332 151.6C50.2665 180.667 49.9999 214.533 63.8665 243.2C74.6665 265.467 90.9332 282 112.667 292.667C130.533 301.6 138.667 303.333 160.667 303.2C178.133 303.2 180.133 302.933 191.867 298.933C207.867 293.333 219.733 286.4 231.733 275.333C253.6 255.067 265.333 228.133 265.333 198C265.333 131.067 203.867 80.6668 138.667 94.0001ZM153.333 120.667C153.333 131.867 152.933 136.267 151.733 136.533C139.067 140 132.933 142.267 127.467 145.6L120.933 149.6L109.867 138.533L98.7999 127.6L104.8 122.933C115.867 114.533 138.4 105.733 149.733 105.467L153.333 105.333V120.667ZM189.333 110.133C198.667 113.333 217.467 123.733 219.467 126.933C220.267 128.133 200.533 149.333 198.533 149.333C198 149.333 194.133 147.2 189.867 144.667C185.6 142.133 178.667 139.333 174.4 138.4L166.667 136.8V120.933V105.067L173.067 106C176.533 106.4 183.867 108.4 189.333 110.133ZM100.8 148.133L111.6 158.933L107.067 166.4C104.667 170.667 101.6 177.333 100.533 181.333C99.4665 185.333 98.2665 189.467 97.9999 190.267C97.3332 192.4 68.6665 192.8 67.3332 190.8C66.1332 188.8 70.5332 169.733 74.1332 161.467C77.3332 154.267 87.9999 137.333 89.3332 137.333C89.5999 137.333 94.7999 142.133 100.8 148.133ZM239.867 151.2C245.067 160 250.4 175.067 251.467 184.8L252.4 192.133L236.533 191.733L220.8 191.333L219.733 185.6C218.667 179.067 212.933 166 209.733 162.267C207.6 160 208.133 159.2 218.8 148.533L230 137.2L232.667 140.667C234.267 142.533 237.467 147.2 239.867 151.2ZM98.6665 206.4C98.6665 211.2 102.667 222.133 107.067 229.6L111.6 237.067L100.533 248.133L89.3332 259.333L87.0665 256.133C76.7999 242.267 69.5999 225.467 67.4665 210.267L66.5332 204H82.5332C97.1999 204 98.6665 204.267 98.6665 206.4ZM251.467 211.2C250.267 222.267 244 238.4 236.8 249.2L230.267 258.933L218.933 247.6L207.6 236.267L210.667 232C214.8 226.267 219.867 213.6 220 209.2C220 207.333 220.4 205.333 220.933 204.933C221.333 204.4 228.667 204 237.067 204H252.4L251.467 211.2ZM130.933 251.867C136.533 254.8 143.867 257.6 147.2 258L153.333 258.933V274.933V290.933L146.4 290C132.667 288.133 120.533 283.2 107.067 274.267L98.6665 268.667L109.6 257.733C115.733 251.6 120.667 246.667 120.8 246.667C120.8 246.667 125.467 249.067 130.933 251.867ZM209.6 256.933C215.333 262.667 220 267.733 220 268.133C220 270 201.867 281.067 193.333 284.4C186.133 287.2 172 290.667 167.733 290.667C167.2 290.667 166.667 283.6 166.667 274.8V259.067L172 258.133C177.867 257.2 189.867 252.133 194 248.8C195.467 247.733 197.2 246.667 198 246.667C198.667 246.667 204 251.333 209.6 256.933Z" fill="#EF3636"/>
<path d="M573.066 139.201C565.733 141.868 549.333 151.868 548.4 154.135C547.066 157.601 550.266 162.668 553.733 162.668C555.466 162.668 561.466 160.001 567.066 156.801C572.666 153.601 579.466 150.668 582.266 150.268C589.6 149.068 598.266 151.468 608.4 157.601C620.4 164.801 625.733 166.535 636.266 166.668C646.666 166.668 654.933 164.001 664.8 157.335C674.933 150.535 676.666 147.468 672.533 143.468C669.333 140.268 666.133 140.935 657.333 146.535C643.066 155.735 629.066 156.268 617.6 148.001C606.8 140.135 601.333 138.268 589.333 137.735C581.866 137.468 576.266 138.001 573.066 139.201Z" fill="#EF3636"/>
<path d="M576.4 187.198C569.466 188.931 552.533 198.131 549.466 201.865C546.933 204.931 548.8 210.531 552.533 211.465C554.8 211.998 558.666 210.398 566.8 205.731C577.2 199.731 578.4 199.331 587.333 199.331C596 199.331 597.6 199.731 604.133 203.865C628.266 219.331 643.066 219.865 664.4 206.398C673.866 200.398 675.733 197.731 673.466 193.598C671.066 189.065 667.866 188.931 660.8 193.465C650 200.265 646.533 201.731 639.866 202.398C630.266 203.331 625.2 201.865 615.2 195.331C601.733 186.398 589.466 183.865 576.4 187.198Z" fill="#EF3636"/>
<path d="M578 235.466C572.133 236.933 566.933 239.333 558.266 244.533C547.866 250.933 545.733 254.933 550.666 258.933C554.266 261.866 555.066 261.6 567.333 254.266C576 249.066 577.2 248.666 586.666 248.666C597.2 248.666 598.266 249.066 612.533 257.733C622.8 264 632.8 266.133 643.2 264.266C656.4 261.733 674.666 250.933 674.666 245.466C674.666 242.8 670.666 238.666 668 238.666C666.933 238.666 662.533 241.066 658 244C641.6 254.666 631.2 254.666 614.4 243.733C610.533 241.2 605.6 238.4 603.333 237.466C599.066 235.6 582.533 234.4 578 235.466Z" fill="#EF3636"/>
</svg>
