<svg width="683" height="683" viewBox="0 0 683 683" fill="none" xmlns="http://www.w3.org/2000/svg">
<g clip-path="url(#clip0_937_6842)">
<path d="M449.333 1.19925C434.133 6.13258 424.533 16.6659 421.2 31.9992C419.466 39.9993 420.8 47.1993 426.8 62.9326C434.4 82.5326 446.666 91.9993 464.666 91.9993C475.066 91.9993 483.466 88.9326 489.6 83.0659C491.6 81.0659 493.466 79.7326 493.866 80.1326C494.133 80.3993 496.133 85.7326 498.4 91.7326L502.533 102.933L498 108.799C493.866 114.266 492.266 118.133 490 127.999C489.6 130.399 486.666 132.933 480.4 136.666C475.333 139.733 465.2 148.133 456.8 156.399L442.266 170.799L415.466 155.733C328 106.666 288.533 90.1326 238 81.1993C213.333 76.7993 177.866 76.7993 156.133 81.1993C147.733 82.7993 138.8 85.0659 136.4 85.9993C128.4 89.3326 127.2 98.9326 134.133 103.466C137.333 105.599 138.266 105.599 150.4 102.799C170.933 97.9993 192.933 96.5326 213.733 98.3993C254.266 102.133 287.066 112.266 336.666 136.533C361.2 148.533 428 184.933 431.066 187.999C431.733 188.533 430.666 193.466 428.666 198.799C422.666 215.466 421.066 225.866 421.066 245.999C421.066 268.266 424.133 285.733 432.133 308.799C441.333 335.466 444.8 339.999 456 339.999C462.933 339.999 468.133 336.933 471.2 330.933C472.133 328.933 481.333 304.533 491.333 276.666C501.466 248.799 509.733 225.866 509.866 225.733C510 225.733 515.333 227.333 521.866 229.466C545.6 237.066 559.733 239.333 584.667 239.199C605.467 239.199 608.4 238.799 619.333 235.466C626 233.466 635.2 229.733 639.867 227.333C644.667 224.799 648.8 223.066 649.2 223.466C649.6 223.866 650 237.866 650 254.399C649.867 280.533 649.467 286.533 646.933 297.999C642.8 316.933 636.8 334.399 628.667 351.333C620.267 368.666 614.4 377.999 602.133 393.199C597.067 399.466 592.533 406.266 591.867 408.533C589.067 418.133 597.067 429.466 607.867 431.199L613.467 431.999L607.733 439.066C598 450.933 569.2 479.733 556.666 490.399C542.133 502.666 520.666 516.933 505.333 524.666C462.266 546.266 415.466 550.399 375.466 535.866C345.466 525.066 319.066 500.399 306.266 471.199C296.133 448.133 295.466 425.999 303.333 379.999C307.733 354.799 308.533 346.933 308.533 330.666C308.666 319.599 307.866 308.266 306.933 304.133C306 300.133 305.466 296.666 305.733 296.399C306.533 295.599 320.533 316.933 326.533 327.999C329.466 333.466 333.733 342.799 336 348.666C338.4 354.533 341.2 360.399 342.4 361.599C348.133 367.333 358.666 363.199 358.666 355.199C358.666 349.733 349.866 328.933 341.2 313.333C325.866 286.133 304.133 260.533 283.866 245.866C278 241.599 269.066 234.799 264.266 230.933C253.466 222.533 238.533 214.533 226.4 210.933C213.6 206.933 191.466 204.666 183.2 206.399C177.2 207.733 176.933 207.599 179.333 205.733C184.266 201.866 201.333 194.533 211.733 191.733C225.066 188.133 249.733 187.866 263.333 191.199C279.733 195.066 299.466 203.866 313.333 213.199C320.4 217.999 325.066 218.399 329.066 214.666C332 211.866 333.066 204.933 330.933 201.866C329.2 199.199 310.666 187.866 299.6 182.666C274.266 170.799 245.6 166.133 221.333 169.733C189.466 174.533 167.066 186.133 143.2 209.866C124.8 228.266 119.866 236.533 103.2 276.666C99.4665 285.733 94.5332 302.133 91.4665 316.133C90.7998 319.066 89.7332 319.866 85.0665 320.533C76.9331 321.866 61.5998 329.599 54.1331 336.133C49.0665 340.666 47.4665 341.333 46.5331 339.866C44.2665 336.133 37.4665 316.133 35.3331 306.533C32.2665 293.066 31.1998 256.933 33.3331 240.399C39.1998 193.066 60.2665 153.733 92.5332 129.466C104.933 120.133 106.666 118.133 106.666 113.199C106.666 109.599 100.8 103.999 97.0665 103.999C92.2665 103.999 76.3998 115.466 63.9998 127.866C39.5998 152.266 22.5331 186.799 15.1998 225.999C11.5998 244.799 11.5998 291.733 15.0665 307.733C18.3998 322.799 23.8665 338.666 30.2665 351.333C35.4665 361.599 35.5998 362.399 35.0665 372.133C33.0665 402.666 55.1998 427.199 90.6665 433.866L99.3332 435.466L104.4 445.466C114.133 463.999 129.6 483.466 145.2 496.666L154.666 504.533V534.666V564.666L143.066 567.866C75.7331 586.266 46.6665 605.999 37.8665 639.333C35.0665 649.733 35.4665 669.066 38.5331 674.133C44.1331 683.199 31.9998 682.666 220 682.666C408 682.666 395.866 683.199 401.466 674.133C404.533 669.066 404.933 649.599 402.133 639.199C397.866 622.933 382.666 602.666 375.066 602.666C370.533 602.799 367.2 605.066 365.6 609.466C363.866 613.866 365.6 617.733 372.666 625.599C380 633.733 384 644.133 384 654.666V662.666H220H55.9998V654.666C55.9998 641.733 60.1331 632.933 71.1998 621.999C78.3998 614.933 83.5998 611.199 92.5332 606.799C103.333 601.599 130.266 592.133 154.133 585.333C173.2 579.999 174.666 576.933 174.666 543.333C174.666 529.733 175.2 518.666 175.733 518.666C176.4 518.666 179.733 520.133 183.466 521.866C208.933 534.133 232.266 533.999 257.733 521.199L265.333 517.333V542.799C265.333 576.933 266.8 579.866 285.866 585.333C291.066 586.933 304.266 590.933 315.066 594.266C333.6 600.133 335.2 600.399 338.4 598.533C343.066 595.999 344.933 590.533 342.933 585.999C340.8 581.466 334.8 578.933 307.866 571.066L285.333 564.666V534.533V504.399L290.8 500.133C293.733 497.733 296.266 495.999 296.533 496.133C296.666 496.399 299.6 500.533 302.933 505.333C310.133 515.733 325.866 530.799 337.333 538.666C373.333 563.066 422 570.799 468.8 559.466C519.6 547.066 574.533 509.199 620.533 454.666C634 438.799 634.667 437.599 634.667 430.399C634.667 424.933 634 423.199 630.4 419.199C627.467 416.133 623.867 413.999 619.867 412.933L613.6 411.333L624.267 397.333C643.333 371.999 659.867 334.266 666.8 300.666C672.133 274.533 671.467 221.333 665.733 210.266C660.933 200.933 648.667 198.666 638.4 205.199L632.267 209.066L629.333 200.933C620.267 175.599 602.133 153.333 577.067 136.933C568.533 131.466 566.667 129.599 566.667 126.799C566.667 122.533 562.267 112.933 557.866 107.066L554.666 102.799L558.8 91.4659L562.8 80.1326L569.067 84.5326C577.333 90.3993 582.667 91.9993 593.333 91.9993C610.8 91.9993 623.2 81.9993 630.8 61.5993C638.933 39.4659 637.333 23.8659 625.333 11.9992C607.6 -5.86742 581.333 -3.33409 565.333 17.7326C564.4 19.0659 557.466 36.6659 550.133 56.9326L536.666 93.7326H528.666L520.8 93.5993L518.666 88.5326C517.466 85.5993 511.466 69.3326 505.333 52.2659C492.4 16.5326 489.066 10.9326 476.8 4.79925C468.666 0.532582 456.133 -1.06742 449.333 1.19925ZM467.333 22.1326C472.8 24.6659 474.933 27.8659 479.2 39.0659C484.8 53.9993 484.4 59.8659 477.333 66.9326C472.133 72.2659 471.866 72.2659 463.866 71.7326C457.2 71.1993 455.2 70.5326 452 67.1993C447.2 62.3993 439.466 41.3326 440.666 36.1326C443.466 23.1992 455.866 16.6659 467.333 22.1326ZM606.133 22.1326C612.133 25.0659 616 31.4659 616 38.7993C615.867 47.9993 608.4 65.1993 602.8 68.9326C597.333 72.6659 588.133 73.0659 582.533 69.7326C577.2 66.5326 572.8 57.1993 573.867 51.4659C574.933 45.8659 580.667 31.3326 583.467 27.0659C587.6 20.5326 598 18.2659 606.133 22.1326ZM537.333 116.133C543.6 119.733 546.666 124.933 546.666 132.266C546.666 139.466 543.066 145.599 536.933 148.399C531.2 151.199 526.666 151.199 520.8 148.799C507.333 143.199 506.8 122.933 520 115.866C526 112.533 531.2 112.666 537.333 116.133ZM502 159.466C506.666 164.133 509.333 167.866 508.933 169.199C507.466 174.666 456.933 312.799 456 313.733C454.666 315.199 446 288.533 443.333 274.666C440.8 261.466 440.533 235.999 442.666 223.866C446.4 203.466 456.933 183.333 470.933 169.866C478.133 162.799 491.866 151.999 493.6 151.999C494.133 151.999 497.866 155.333 502 159.466ZM570.667 156.933C586.4 167.333 601.733 186.133 608.667 203.599C613.733 216.266 613.733 216.399 605.333 218.266C597.6 219.866 573.333 220.533 568.533 219.199C566.267 218.533 563.867 213.466 556.133 192.266C547.6 168.399 546.933 165.999 549.066 164.799C550.266 164.133 553.733 161.066 556.666 157.866C559.6 154.799 562.267 152.133 562.667 152.133C563.067 151.999 566.667 154.133 570.667 156.933ZM536 195.199C539.733 205.333 542.533 213.866 542.266 214.133C541.6 214.933 519.733 208.133 518.266 206.799C517.466 205.866 519.466 199.466 527.333 177.466C527.733 176.399 528.266 175.866 528.666 176.133C528.933 176.533 532.266 185.066 536 195.199ZM215.866 228.799C248.4 236.133 274.933 263.599 285.6 300.933C290.4 317.599 289.733 342.133 283.6 378.133C275.733 423.866 275.733 442.799 283.466 466.533L286.666 476.666L280.4 482.533C266.666 495.199 245.2 506.799 229.066 510.133C221.2 511.733 218.8 511.733 210.4 509.999C191.866 506.133 172 494.533 153.2 476.399C138.666 462.399 130.266 451.466 122.266 436.133C108.4 409.599 104.4 384.799 108 345.999C110.8 315.199 116.133 294.533 126.533 273.733C137.733 251.466 153.733 237.066 176.133 229.199C186.133 225.733 188.4 225.333 197.333 225.999C202.8 226.533 211.2 227.733 215.866 228.799ZM87.4665 367.599C87.4665 387.999 87.9998 397.733 89.5998 404.266C92.1332 415.199 91.5998 415.333 79.1998 409.466C63.4665 402.133 54.6665 390.266 54.6665 376.666C54.6665 368.266 59.5998 357.866 66.2665 351.866C69.7331 348.933 85.3331 340.133 87.3332 339.999C87.3332 339.999 87.4665 352.399 87.4665 367.599Z" fill="#EF3636"/>
<path d="M164 294.264C156.666 295.731 145.6 301.597 144.133 304.797C142 309.464 142.266 311.197 145.466 315.197C148.666 319.197 154 319.731 159.866 316.664C166.8 313.064 173.466 312.931 181.333 315.864C185.333 317.464 190.266 318.664 192.133 318.664C199.333 318.664 203.2 308.397 198.133 302.797C192.8 296.931 174.133 292.131 164 294.264Z" fill="#EF3636"/>
<path d="M165.866 340.4C162.4 343.467 162 344.667 161.6 353.867C161.066 363.6 161.2 364 165.066 368C169.866 372.667 173.066 373.067 177.866 369.2C181.2 366.667 181.333 365.867 181.333 354.8C181.333 342.133 180.266 339.733 173.2 338C170.533 337.333 168.8 338 165.866 340.4Z" fill="#EF3636"/>
<path d="M186.533 427.998C185.333 428.664 183.6 431.064 182.8 433.198C178.933 442.264 188.933 449.198 210.4 452.398C228.533 455.064 252.933 449.064 256.8 440.931C259.333 435.598 257.6 429.998 252.666 427.731C249.866 426.531 247.6 426.798 239.6 429.464C226.933 433.731 212 433.731 200.666 429.598C192 426.398 189.733 426.131 186.533 427.998Z" fill="#EF3636"/>
</g>
<defs>
<clipPath id="clip0_937_6842">
<rect width="682.667" height="682.667" fill="white"/>
</clipPath>
</defs>
</svg>
