<svg width="683" height="683" viewBox="0 0 683 683" fill="none" xmlns="http://www.w3.org/2000/svg">
<path d="M471.333 23.8653C467.867 25.4653 450.667 41.8653 423.2 69.4653C383.467 109.599 380.133 113.199 377.333 120.665C372 134.932 373.733 152.799 381.6 164.265C383.067 166.399 383.867 168.532 383.467 169.065C383.067 169.732 342.8 216.399 294 272.799C224 353.599 204.267 377.199 200.667 384.265C194.4 396.799 191.467 411.065 192.4 423.865L193.2 433.999L176.667 450.799C161.733 465.999 160 468.265 158 475.332C155.333 484.265 155.867 494.665 159.333 501.199L161.467 505.465L149.733 517.865C130.933 537.732 123.333 553.465 121.733 575.332C120.8 589.465 123.733 602.799 130.8 617.199C144.133 644.265 172 661.332 202.667 661.332C217.467 661.332 228.533 658.532 241.867 651.732C252.133 646.399 256.133 642.799 328.667 570.665C399.2 500.665 405.333 494.932 413.2 491.465C430.933 483.599 449.2 483.865 466.667 492.132C473.6 495.332 479.6 500.532 500 520.665C527.067 547.465 528.933 548.532 535.333 541.999C542 535.465 540.8 533.465 515.067 507.865C502 494.932 488 482.132 483.867 479.465C471.6 471.465 458.933 467.599 442.533 466.932C425.867 466.265 416.267 468.265 401.333 475.465C391.867 480.132 387.733 483.999 315.333 555.999C231.2 639.732 233.067 638.132 212.267 641.465C182.8 646.265 152.8 627.465 143.867 598.532C140.4 587.465 140.533 571.732 144 561.199C147.867 549.999 152 543.732 164.267 531.199L174.667 520.399L182.4 523.065C192.4 526.399 203.6 525.599 212.667 520.932C216.533 518.932 224.8 511.999 232.4 504.265L245.6 491.065L261.733 491.732C276.667 492.265 278.8 491.999 288.4 488.799C302.8 483.999 308.8 479.732 338 454.665C403.2 398.399 501.467 313.465 508.4 307.332L516.133 300.532L522.533 303.732C534.933 309.732 551.867 309.732 565.067 303.732C569.733 301.599 582.133 290.132 614.267 258.132C662 210.799 662.133 210.665 661.067 195.599C660.133 179.732 649.6 169.199 633.733 168.265C619.867 167.332 616.8 169.199 593.333 192.665C582 203.999 572.133 213.332 571.333 213.332C569.6 213.332 557.333 201.065 557.333 199.332C557.333 198.532 568.8 186.532 582.8 172.665C613.733 141.865 615.333 139.199 608.667 132.665C602.133 125.999 600.533 126.932 570.667 156.665C555.6 171.732 542.667 183.999 541.867 183.999C540.267 183.999 528 171.732 528 169.999C528 169.332 540.267 156.399 555.333 141.332C585.2 111.332 586 109.865 579.2 103.065C572.933 96.7987 570.133 98.532 540.667 127.999C526 142.665 513.333 154.665 512.667 154.665C510.933 154.665 498.667 142.399 498.667 140.665C498.667 139.999 510.933 127.065 526 111.999C554.667 83.1987 555.867 81.4653 551.333 75.0653C548.667 71.332 543.467 70.132 538.933 72.532C536.933 73.5987 523.6 86.2653 509.333 100.532L483.333 126.665L476.4 119.732C472.533 115.865 469.333 112.132 469.333 111.465C469.333 110.799 478.8 100.532 490.533 88.7987C513.867 65.0653 515.333 62.6653 514.4 48.6653C513.733 38.6653 509.467 31.1987 501.067 25.732C493.733 20.7987 479.467 19.8653 471.333 23.8653ZM492.133 43.8653C499.333 51.1987 498.667 52.3987 470.667 80.6653C447.6 103.865 445.333 106.665 445.333 110.799C445.333 115.065 449.6 119.599 506.4 176.399C558.933 228.932 568 237.332 571.333 237.332C574.533 237.332 579.2 233.332 600 212.799C616.133 196.665 626.133 187.865 628.667 187.199C636.133 185.332 644 193.065 642.133 200.799C641.6 203.599 629.867 215.999 600.933 244.399C578.8 266.265 558.933 285.065 556.933 286.132C554.933 287.199 550.267 288.532 546.667 288.932C532.8 290.532 533.6 291.199 463.6 221.465C395.6 153.599 393.333 151.065 393.333 138.799C393.333 126.665 396.8 122.265 438.8 80.532C460.4 59.0653 478.933 41.332 480 40.932C484.667 39.332 488.4 40.2653 492.133 43.8653ZM501.333 286.932C501.333 288.132 327.067 438.665 325.733 438.665C325.067 438.665 306.8 420.799 284.933 398.932L245.067 359.065L321.467 270.799L397.867 182.532L449.6 234.265C478 262.665 501.333 286.399 501.333 286.932ZM271.733 413.732L310.8 452.799L303.733 458.532C279.2 478.665 246.267 477.599 225.867 455.732C216.667 445.865 212.933 436.532 212.267 421.865C211.6 408.265 213.733 399.332 219.733 389.999C223.6 383.999 230.933 374.665 232 374.665C232.4 374.665 250.267 392.265 271.733 413.732ZM207.2 463.599C210.533 468.132 216.267 474.132 220 476.932L226.667 481.865L216.4 492.399C204.267 504.665 202.8 505.599 195.467 505.599C184.267 505.865 176 497.865 176 486.932C176 483.732 176.667 479.865 177.467 478.265C179.333 474.665 198.933 454.532 200.133 454.932C200.667 455.199 203.867 459.065 207.2 463.599Z" fill="#EF3636"/>
<path d="M383.867 252.4C374.8 255.867 370 259.867 344.4 285.6C317.333 312.933 314 317.467 312.4 330.4C309.867 351.733 328.267 372 350 372C366.133 372 368.4 370.533 399.067 340.133C431.2 308.267 434 304.133 433.867 288.667C433.733 273.333 426.4 261.333 412.933 254.4C406 250.933 390.8 249.867 383.867 252.4ZM406.933 273.6C414.267 278.667 416.8 289.333 412.8 297.067C411.733 299.067 406.933 304.533 402.133 309.333L393.333 318L380 304.667L366.667 291.333L376.4 281.6C381.6 276.267 387.867 271.333 390 270.667C395.333 269.067 402.4 270.267 406.933 273.6ZM367.067 318.4L380.133 331.467L369.6 341.6C358.267 352.8 353.2 354.8 344.933 352.133C334.667 348.667 328.8 335.467 333.467 326.267C335.067 323.2 352 305.333 353.333 305.333C353.733 305.333 359.867 311.2 367.067 318.4Z" fill="#EF3636"/>
<path d="M39.3334 46.5333C32.5334 49.6 24.5334 58.4 22.6668 64.9333C21.6001 68.4 21.3334 89.7333 21.6001 134.667L22.0001 199.333L26.5334 207.733C31.8668 217.6 40.4001 225.6 50.6668 230.533L58.0001 234H160H262L270 230.133C280.133 225.067 289.867 215.467 294.4 205.6L298 198L298.4 134C298.667 89.2 298.4 68.4 297.333 64.9333C295.333 58 286.4 48.6667 279.333 45.8667C265.467 40.6667 248.667 46.4 240.667 59.2L236.667 65.7333L236.267 98.2667L235.867 130.667H224.667H213.467L213.067 89.8667L212.667 49.0667L209.467 46.5333C205.2 43.0667 199.733 43.3333 196.267 47.0667C193.333 50.1333 193.333 50.9333 193.333 90.4V130.667H181.333H169.333V90C169.333 51.0667 169.2 49.2 166.667 46.6667C165.2 45.2 162.267 44 160 44C157.733 44 154.8 45.2 153.333 46.6667C150.8 49.2 150.667 51.0667 150.667 90V130.667H138.667H126.667V90C126.667 51.0667 126.533 49.2 124 46.6667C122.533 45.2 119.6 44 117.333 44C115.067 44 112.133 45.2 110.667 46.6667C108.133 49.2 108 51.0667 108 90V130.667H96.0001H84.0001V100.8C84.0001 68.6667 83.2001 63.7333 76.6668 55.2C69.0668 45.3333 51.2001 41.0667 39.3334 46.5333ZM60.6668 66.6667C63.2001 69.2 63.3334 71.6 64.0001 107.467C64.6668 145.6 64.6668 145.6 67.8668 148.133C70.8001 150.533 74.4001 150.667 159.333 150.667C208 150.667 248.8 150.267 250 149.867C255.333 147.733 256 143.067 256 106.4C256 76.4 256.267 70.8 258.133 68.2667C261.2 63.7333 266.133 62.2667 271.6 64.1333C280.133 66.9333 280.133 66.6667 279.733 133.067C279.333 191.467 279.333 192.8 276.4 198.133C272.8 204.933 265.733 211.2 259.067 213.467C254.933 214.933 235.467 215.333 158.667 215.333C63.4668 215.333 63.3334 215.333 58.0001 212.4C50.5334 208.4 44.5334 201.733 42.0001 194.8C39.2001 186.8 39.0668 74.5333 41.8668 69.4667C45.7334 62.5333 55.0668 61.0667 60.6668 66.6667Z" fill="#EF3636"/>
<path d="M98.2667 170.798C92.0001 174.531 92.9334 185.065 99.8667 187.865C102.267 188.931 121.2 189.331 162.533 189.065L221.6 188.665L224.133 185.465C227.6 181.198 227.333 176.531 223.333 172.665L220.133 169.331H160.4C121.2 169.465 99.8667 169.865 98.2667 170.798Z" fill="#EF3636"/>
</svg>
