<svg width="683" height="683" viewBox="0 0 683 683" fill="none" xmlns="http://www.w3.org/2000/svg">
<path d="M380.001 49.5849C382.853 53.5948 383.352 55.217 382.668 60.0016C384.373 59.5891 386.078 59.1766 387.835 58.7516C401.589 55.7449 415.322 55.7034 429.335 56.0016C430.688 56.0239 432.04 56.0463 433.434 56.0693C439.26 56.3741 441.996 56.8509 446.835 60.335C449.525 64.2808 450.001 66.0095 449.335 70.6683C450.215 70.2283 451.095 69.7883 452.002 69.335C468.713 68.1046 486.075 68.2033 502.502 71.6683C504.019 71.9821 504.019 71.9821 505.567 72.3021C511.52 73.7241 515.682 75.6402 520.002 80.0017C521.557 85.3458 521.912 88.0722 519.585 93.1685C517.335 96.0018 517.335 96.0018 514.669 97.3351C516.92 97.7734 516.92 97.7734 519.216 98.2206C552.971 105.079 552.971 105.079 561.133 113.085C562.669 116.002 562.669 116.002 562.961 120.08C563.304 121.374 563.648 122.668 564.002 124.002C567.475 125.825 570.307 126.973 574.002 128.085C575.953 128.743 577.901 129.408 579.846 130.08C581.262 130.562 581.262 130.562 582.707 131.053C588.686 133.211 595.149 135.766 599.055 140.95C600.508 145.629 599.973 148.625 598.669 153.335C596.04 156.297 593.682 158.603 590.669 161.085C589.083 162.47 587.502 163.859 585.924 165.252C585.144 165.936 584.364 166.62 583.56 167.325C575.593 174.525 568.808 182.391 564.002 192.002C564.995 192.804 564.995 192.804 566.008 193.622C581.093 206.246 591.023 221.928 593.982 241.638C596.711 276.555 587.758 311.04 577.836 344.253C577.34 345.915 576.844 347.577 576.333 349.289C568.401 375.108 568.401 375.108 558.669 381.337C552.37 383.576 547.495 382.268 541.409 380.034C537.521 378.098 535.549 375.692 533.336 372.003C531.7 367.096 531.796 362.541 531.768 357.43C531.737 355.274 531.705 353.118 531.671 350.961C531.625 347.586 531.586 344.211 531.568 340.835C531.41 316.232 524.392 298.455 513.002 276.919C511.869 274.751 510.737 272.581 509.606 270.411C506.864 265.156 504.105 259.91 501.335 254.669C500.353 254.891 499.37 255.112 498.357 255.34C480.434 259.331 462.598 263.028 444.335 265.086C442.868 265.265 441.401 265.445 439.889 265.629C432.324 266.454 425.292 266.68 417.71 265.935C405.245 264.832 405.245 264.832 393.335 268.003C385.436 275.74 381.16 286.234 376.809 296.243C373.025 304.937 368.449 313.106 363.749 321.332C361.643 325.031 359.588 328.758 357.527 332.482C354.39 338.123 351.222 343.743 348.001 349.336C376.34 340.116 404.437 330.259 432.508 320.257C436.388 318.876 440.27 317.501 444.152 316.127C449.598 314.197 455.031 312.238 460.461 310.265C463.212 309.278 465.964 308.291 468.715 307.305C469.979 306.839 471.242 306.374 472.543 305.894C479.207 303.524 484.822 301.838 492.002 302.669C497.502 306.825 499.991 310.616 501.335 317.336C502.529 330.021 500.278 339.434 493.835 350.336C482.741 360.846 466.663 366.853 453.085 373.586C450.8 374.724 448.516 375.862 446.231 377.001C433.008 383.578 419.745 390.057 406.396 396.377C396.755 400.946 387.218 405.707 377.689 410.506C367.693 415.525 357.614 420.355 347.51 425.152C337.211 430.056 327 435.124 316.827 440.282C293.616 452.004 293.616 452.004 289.334 452.004C288.798 453.42 288.798 453.42 288.251 454.865C286.609 458.811 284.711 462.476 282.662 466.228C281.511 468.343 281.511 468.343 280.337 470.501C279.139 472.689 279.139 472.689 277.918 474.92C276.332 477.828 274.747 480.736 273.162 483.644C272.46 484.929 271.758 486.213 271.034 487.536C268.322 492.052 268.322 492.052 268.751 497.17C269.488 501.677 268.977 505.286 268.084 509.754C265.44 524.163 265.971 538.799 268.001 553.254C270.722 573.197 272.451 593.316 259.928 610.411C248.706 623.496 234.763 633.419 217.334 636.004C198.458 637.203 183.344 633.488 168.417 621.671C157.53 611.792 149.907 596.664 149.063 581.952C148.669 561.45 153.648 546.123 167.787 530.822C171.437 527.251 175.345 524.221 179.433 521.171C189.552 513.349 198.497 504.474 206.667 494.67C207.91 493.241 209.155 491.814 210.402 490.389C211.741 488.844 213.079 487.299 214.417 485.754C215.058 485.024 215.7 484.295 216.36 483.544C222.752 476.086 224.289 470.645 224.834 460.92C224.934 459.248 225.033 457.576 225.136 455.853C225.201 454.582 225.267 453.312 225.334 452.004C211.448 449.613 211.448 449.613 198.501 453.254C197.71 453.886 196.919 454.519 196.105 455.17C192.576 457.929 188.792 459.824 184.834 461.92C170.875 469.658 158.491 480.014 146.349 490.306C130.551 503.668 115.482 509.649 94.6668 508.004C80.4533 505.86 68.2515 500.253 58.6666 489.337C58.0272 488.67 57.3878 488.003 56.7291 487.316C44.218 473.794 42.0248 460.052 42.2967 442.378C42.602 434.591 44.3949 428.245 47.9999 421.337C48.5963 420.177 49.1927 419.016 49.8072 417.821C57.945 403.225 69.6593 393.182 85.7501 388.17C103.638 384.065 118.484 388.38 135.545 393.701C139.401 394.898 143.275 396.012 147.167 397.087C148.167 397.37 149.168 397.654 150.198 397.946C159.904 400.187 169.701 400.415 179.607 400.811C180.743 400.86 181.878 400.91 183.047 400.962C184.063 401.002 185.079 401.042 186.126 401.084C189.334 401.337 189.334 401.337 193.187 402.148C206.41 403.812 224.326 395.587 236.001 389.337C242.998 383.67 247.225 376.308 251.511 368.508C254.59 363.152 258.319 358.288 262.001 353.336C263.448 351.339 264.893 349.339 266.334 347.336C275.001 335.336 283.668 323.336 292.334 311.336C293.05 310.345 293.766 309.353 294.504 308.332C295.938 306.346 297.373 304.36 298.808 302.374C302.574 297.162 306.335 291.947 310.09 286.727C310.87 285.643 311.65 284.559 312.454 283.443C313.944 281.374 315.431 279.305 316.918 277.234C320.492 272.273 324.124 267.402 328.001 262.669C327.187 262.516 326.373 262.363 325.534 262.205C302.562 257.847 279.964 252.533 257.334 246.669C257.052 248.338 256.77 250.007 256.48 251.727C254.685 259.783 250.93 266.553 247.001 273.753C245.551 276.476 244.101 279.2 242.652 281.925C241.325 284.396 239.997 286.866 238.667 289.336C237.063 292.326 235.481 295.324 233.917 298.336C233.09 299.893 233.09 299.893 232.246 301.482C225.797 317.23 226.109 332.378 226.288 349.124C226.315 352.481 226.294 355.834 226.266 359.191C226.291 360.205 226.316 361.219 226.341 362.264C226.243 369.431 224.205 373.035 219.312 378.235C214.657 382.397 209.652 381.782 203.683 381.696C198.38 381.178 195.805 379.715 192.001 376.003C186.88 366.981 183.873 357.475 180.834 347.586C180.575 346.749 180.316 345.912 180.05 345.05C174.542 327.15 170.279 309.046 166.667 290.669C166.473 289.728 166.279 288.787 166.079 287.818C163.927 277.198 163.713 266.552 163.584 255.753C163.56 254.421 163.536 253.09 163.512 251.718C163.536 230.676 171.642 211.923 186.49 197.034C196.203 188.004 208.178 181.817 221.334 180.002C221.121 179.267 220.908 178.531 220.688 177.773C215.752 155.487 224.669 129.912 236.376 111.247C240.628 105.226 245.505 99.9154 250.668 94.6685C251.668 93.651 252.668 92.6334 253.699 91.5851C274.474 71.7075 352.22 29.3278 380.001 49.5849ZM270.668 108.002C269.65 108.884 268.633 109.765 267.584 110.674C253.071 123.985 243.533 142.985 242.444 162.726C242.391 171.241 243.044 179.072 244.72 187.414C245.853 193.417 246.628 197.984 243.251 203.252C238.822 206.091 235.832 205.899 230.667 205.336C229.347 204.456 228.027 203.576 226.667 202.669C216.324 202.669 206.892 210.205 199.584 216.919C186.454 230.713 186.07 247.172 186.303 265.06C187.038 288.766 194.989 311.996 201.334 334.67C201.774 334.67 202.214 334.67 202.667 334.67C202.754 333.926 202.84 333.183 202.929 332.417C206.497 302.601 215.878 279.707 231.407 254.247C235.738 246.206 236.723 238.192 237.787 229.237C238.667 225.336 238.667 225.336 240.089 222.81C246.86 218.939 254.624 221.519 261.662 223.435C264.861 224.364 268.057 225.304 271.251 226.252C292.002 232.209 313.172 237.589 334.668 240.002C335.558 240.13 336.448 240.257 337.365 240.388C340.56 240.765 340.56 240.765 345.335 240.002C348.268 237.007 350.057 234.748 352.168 231.252C353.304 229.529 354.443 227.806 355.585 226.086C356.118 225.259 356.65 224.432 357.199 223.581C362.816 214.996 369.893 207.73 379.892 204.513C389.942 202.665 400.146 203.417 409.335 208.002C413.418 211.002 413.418 211.002 416.002 214.669C416.795 222.247 415.148 226.588 411.335 233.086C407.94 238.233 407.94 238.233 406.668 244.003C438.078 245.266 470.824 240.395 500.643 230.456C505.729 228.76 509.313 228.817 514.669 229.336C519.633 233.177 520.976 236.772 522.502 242.753C525.507 253.21 530.36 261.776 535.987 271.029C548.52 291.908 553.342 313.095 554.669 337.336C557.408 333.227 558.303 330.326 559.497 325.576C559.89 324.02 560.282 322.464 560.687 320.861C561.093 319.203 561.5 317.545 561.919 315.836C562.336 314.143 562.753 312.449 563.183 310.704C574.254 267.714 574.254 267.714 564.622 225.794C558.567 216.106 551.513 210.357 541.679 204.596C538.669 202.669 538.669 202.669 537.336 200.002C536.115 184.07 550.534 169.42 560.179 157.955C562.317 155.501 564.473 153.07 566.669 150.669C564.754 146.838 562.683 146.61 558.669 145.169C545.478 141.174 531.697 142.292 518.059 142.735C514.906 142.673 512.342 142.244 509.335 141.335C508.553 136.877 507.924 132.536 508.002 128.002C510.585 124.669 510.585 124.669 513.335 122.669C513.335 121.789 513.335 120.909 513.335 120.002C499.018 119.488 486.538 119.212 472.95 124.137C467.854 125.826 463.986 125.926 458.669 125.335C454.669 122.669 454.669 122.669 453.502 118.335C453.301 112.303 453.774 110.219 457.335 105.335C460.624 102.754 463.993 100.425 467.502 98.1528C470.255 96.2827 472.427 94.4422 474.669 92.0018C458.275 91.3575 442.797 92.9144 426.976 97.4393C422.11 98.8279 418.368 99.2382 413.335 98.6685C410.085 96.5851 410.085 96.5851 408.002 93.3351C407.56 88.3047 407.738 84.7919 409.335 80.0017C400.93 79.7764 393.444 80.4259 385.252 82.2517C384.165 82.4851 383.078 82.7184 381.959 82.9588C372.845 84.9865 364.049 87.6953 355.225 90.7309C349.644 92.2872 345.025 92.9574 339.585 90.7518C336.026 86.4021 336.231 81.4749 336.001 76.0017C314.344 76.0017 285.903 93.8584 270.668 108.002ZM380.001 229.336C377.076 232.74 374.552 236.396 372.001 240.086C370.46 242.268 368.918 244.451 367.376 246.633C366.594 247.748 365.812 248.864 365.007 250.014C361.387 255.156 357.693 260.245 354.001 265.336C352.556 267.336 351.112 269.336 349.668 271.336C329.446 299.336 309.223 327.336 289.001 355.336C287.928 356.822 287.928 356.822 286.834 358.337C285.392 360.334 283.949 362.331 282.507 364.328C278.86 369.376 275.215 374.425 271.574 379.477C270.844 380.488 270.113 381.498 269.361 382.54C267.907 384.56 266.461 386.586 265.024 388.618C261.607 393.423 258.135 398.03 254.225 402.446C246.472 411.346 246.472 411.346 243.688 422.509C244.077 426.403 244.818 430.199 245.558 434.04C247.286 443.562 246.931 453.198 246.834 462.837C246.822 464.669 246.81 466.5 246.799 468.332C246.767 472.667 246.723 477.002 246.667 481.337C250.358 476.931 253.319 472.596 255.996 467.514C256.731 466.13 257.467 464.745 258.225 463.319C259.003 461.84 259.782 460.361 260.584 458.837C262.262 455.684 263.942 452.533 265.626 449.384C266.05 448.589 266.474 447.795 266.912 446.977C270.913 439.505 275.058 432.119 279.251 424.753C285.505 413.758 291.698 402.731 297.834 391.67C298.669 390.166 299.503 388.663 300.362 387.114C302.059 384.054 303.756 380.994 305.452 377.934C316.808 357.451 328.187 336.982 339.642 316.554C345.342 306.384 351.011 296.197 356.668 286.003C363.427 273.825 370.202 261.657 377.001 249.503C377.781 248.108 378.56 246.713 379.363 245.276C380.09 243.979 380.816 242.682 381.564 241.346C382.198 240.214 382.832 239.081 383.485 237.915C384.798 235.61 386.166 233.336 387.571 231.085C389.556 228.209 389.556 228.209 389.335 225.336C385.187 225.336 383.365 226.885 380.001 229.336ZM473.48 329.935C472.447 330.295 471.414 330.656 470.35 331.028C469.167 331.437 467.983 331.845 466.763 332.265C465.464 332.725 464.164 333.185 462.825 333.659C461.462 334.133 460.099 334.606 458.695 335.094C454.183 336.665 449.676 338.25 445.168 339.836C442.048 340.927 438.928 342.016 435.807 343.105C427.703 345.937 419.604 348.782 411.506 351.633C406.781 353.297 402.056 354.957 397.33 356.618C388.607 359.683 379.887 362.757 371.168 365.836C369.817 366.313 368.466 366.79 367.074 367.281C363.225 368.64 359.379 370.003 355.533 371.368C353.866 371.956 353.866 371.956 352.166 372.556C348.992 373.685 345.829 374.84 342.668 376.003C341.473 376.43 340.279 376.856 339.048 377.296C337.86 377.739 336.673 378.181 335.449 378.638C334.375 379.031 333.3 379.424 332.193 379.83C326.957 382.59 324.75 387.288 322.168 392.42C321.637 393.399 321.106 394.378 320.558 395.386C319.514 397.316 318.486 399.256 317.476 401.204C316.041 403.928 314.513 406.576 312.949 409.227C310.452 412.942 310.452 412.942 310.668 416.003C316.252 414.25 321.425 412.147 326.684 409.581C327.463 409.203 328.243 408.824 329.046 408.434C331.672 407.156 334.295 405.872 336.918 404.587C338.822 403.658 340.726 402.731 342.631 401.803C349.314 398.545 355.991 395.275 362.668 392.003C363.971 391.365 365.273 390.727 366.616 390.069C370.826 388.006 375.036 385.942 379.246 383.878C380.681 383.175 382.115 382.472 383.593 381.748C390.956 378.138 398.317 374.525 405.675 370.905C418.407 364.645 431.143 358.406 443.981 352.368C445.924 351.449 447.868 350.529 449.811 349.61C453.257 347.981 456.713 346.378 460.177 344.789C468.112 341.043 473.799 338.085 478.669 330.67C476.099 329.028 476.099 329.028 473.48 329.935ZM72 425.337C65.0098 434.798 64.3085 444.543 65.3333 456.004C67.9064 465.561 73.4558 474.154 81.9584 479.347C93.2294 485.149 102.816 487.264 115.167 483.42C122.256 480.643 126.872 476.632 132.313 471.405C146.519 458.302 163.451 448.471 180.001 438.67C179.712 436.154 179.712 436.154 179.417 433.587C179.309 432.643 179.201 431.7 179.089 430.727C178.705 427.745 178.705 427.745 177.334 424.003C176.497 423.917 175.66 423.831 174.798 423.742C152.611 421.388 131.741 417.523 110.671 410.143C95.1546 405.458 81.9837 414.367 72 425.337ZM209.084 422.67C207.635 423.165 206.186 423.66 204.693 424.17C203.03 424.748 203.03 424.748 201.334 425.337C201.334 425.777 201.334 426.217 201.334 426.67C204.388 427.152 207.444 427.622 210.501 428.087C212.202 428.35 213.904 428.613 215.657 428.884C219.844 429.714 219.844 429.714 222.667 428.003C222.227 425.363 221.787 422.723 221.334 420.003C216.71 420.003 213.45 421.168 209.084 422.67ZM232.001 500.004C231.336 500.861 230.67 501.719 229.985 502.603C216.705 519.316 201.681 533.867 184.521 546.582C181.153 549.494 179.224 552.165 177.001 556.004C176 557.695 176 557.695 174.98 559.421C170.709 567.854 170.514 578.266 172.865 587.343C177.184 597.954 184.302 606.5 194.886 611.103C205.717 615.09 215.335 613.85 225.85 609.676C235.743 604.929 240.807 597.825 245.334 588.004C248.546 578.368 246.879 567.296 245.329 557.436C243.811 546.492 243.696 535.784 243.834 524.754C243.848 522.854 243.86 520.954 243.871 519.053C243.899 514.481 243.945 509.909 244.001 505.337C238.061 502.697 238.061 502.697 232.001 500.004Z" fill="#EF3636"/>
<path d="M611.17 394.253C617.806 400.099 620.942 405.536 623.206 414.019C623.477 414.981 623.748 415.942 624.027 416.933C624.896 420.036 625.742 423.144 626.587 426.253C627.176 428.391 627.767 430.529 628.359 432.667C629.233 435.822 630.104 438.978 630.969 442.136C632.454 447.551 633.998 452.934 635.686 458.29C640.646 474.134 643.798 490.469 636.67 506.17C624.858 526.25 602.93 530.312 581.927 535.912C574.51 537.891 567.104 539.909 559.696 541.92C557.178 542.602 557.178 542.602 554.609 543.298C529.717 550.047 504.88 556.993 480.034 563.906C473.617 565.691 467.2 567.474 460.783 569.258C458.282 569.953 455.781 570.648 453.28 571.344C448.388 572.703 443.495 574.063 438.603 575.423C427.966 578.379 417.329 581.338 406.695 584.307C402.213 585.559 397.731 586.808 393.248 588.058C391.161 588.64 389.073 589.223 386.986 589.808C384.132 590.607 381.277 591.403 378.421 592.198C376.819 592.646 375.217 593.093 373.566 593.555C359.486 597.269 347.98 597.107 334.669 590.671C323.457 584.054 318.056 576.283 314.293 563.973C314.009 563.045 313.725 562.117 313.432 561.161C312.502 558.111 311.584 555.058 310.668 552.004C310.354 550.962 310.041 549.92 309.717 548.847C307.737 542.261 305.801 535.665 303.899 529.056C303.242 526.787 302.576 524.52 301.902 522.256C292.664 491.193 292.664 491.193 298.168 479.337C305.685 471.425 313.573 469.039 323.918 466.337C325.203 465.979 326.488 465.622 327.812 465.253C336.259 462.99 343.595 461.141 352.085 464.087C363.227 471.436 365.991 480.426 369.163 492.935C369.839 495.601 370.55 498.257 371.268 500.912C374.669 513.788 374.669 513.788 374.669 520.004C381.929 518.684 381.929 518.684 389.335 517.337C388.947 516.137 388.559 514.938 388.158 513.702C384.643 502.724 381.36 491.686 378.252 480.587C377.897 479.351 377.542 478.115 377.176 476.841C375.346 470.211 373.989 464.28 374.669 457.337C377.419 453.42 377.419 453.42 381.335 450.67C386.085 449.92 386.085 449.92 390.669 450.67C395.899 454.733 397.335 458.915 399.169 465.17C399.437 466.075 399.706 466.981 399.982 467.913C400.901 471.048 401.787 474.191 402.669 477.337C403.202 479.218 403.202 479.218 403.746 481.138C404.871 485.118 405.982 489.101 407.086 493.087C407.441 494.368 407.797 495.649 408.163 496.969C408.49 498.172 408.817 499.374 409.153 500.613C409.446 501.685 409.739 502.757 410.04 503.862C410.669 506.67 410.669 506.67 410.669 510.67C417.269 509.35 417.269 509.35 424.002 508.004C423.551 506.43 423.1 504.856 422.635 503.235C420.961 497.38 419.308 491.519 417.663 485.656C416.948 483.123 416.228 480.591 415.501 478.06C414.456 474.417 413.433 470.768 412.414 467.118C412.086 465.993 411.758 464.867 411.421 463.708C409.732 457.572 408.84 452.961 410.669 446.67C412.836 443.503 412.836 443.503 416.002 441.337C421.207 440.58 424.137 440.648 428.725 443.283C433.274 447.984 434.292 452.615 435.862 458.858C436.178 460.034 436.494 461.21 436.82 462.422C437.82 466.166 438.787 469.917 439.752 473.67C440.426 476.216 441.103 478.761 441.781 481.306C443.436 487.532 445.061 493.765 446.669 500.004C450.629 498.684 454.589 497.364 458.669 496.004C458.265 494.605 457.861 493.207 457.445 491.767C455.94 486.542 454.454 481.313 452.973 476.082C452.331 473.825 451.684 471.57 451.032 469.316C450.092 466.063 449.171 462.804 448.252 459.545C447.815 458.053 447.815 458.053 447.369 456.53C445.534 449.93 444.883 444.194 445.336 437.337C448.06 433.25 449.923 432.241 454.586 430.753C459.663 430.65 461.498 431.351 465.336 434.67C468.411 441.084 470.518 447.576 472.352 454.446C472.612 455.403 472.873 456.36 473.141 457.346C473.686 459.35 474.227 461.354 474.765 463.36C475.59 466.437 476.427 469.511 477.266 472.584C477.795 474.538 478.324 476.492 478.852 478.446C479.226 479.825 479.226 479.825 479.609 481.232C481.336 487.694 481.336 487.694 481.336 490.67C485.736 489.79 490.136 488.91 494.669 488.003C494.074 485.977 494.074 485.977 493.467 483.91C491.983 478.851 490.513 473.788 489.046 468.724C488.412 466.542 487.774 464.361 487.133 462.18C486.207 459.028 485.294 455.873 484.383 452.717C484.098 451.758 483.813 450.799 483.52 449.811C478.639 432.738 478.639 432.738 481.171 426.423C483.116 423.282 484.504 422.503 488.003 421.337C491.919 420.753 491.919 420.753 496.003 421.337C502.765 426.626 504.461 432.065 506.529 440.029C506.845 441.174 507.161 442.319 507.487 443.498C508.485 447.134 509.453 450.776 510.419 454.42C511.094 456.895 511.77 459.37 512.448 461.845C514.101 467.891 515.726 473.945 517.336 480.003C523.276 479.343 523.276 479.343 529.336 478.67C527.867 473.144 526.397 467.618 524.925 462.093C524.426 460.217 523.927 458.34 523.428 456.464C522.707 453.753 521.985 451.042 521.263 448.331C520.83 446.705 520.397 445.078 519.951 443.401C519.065 440.129 518.146 436.865 517.202 433.609C515.636 428.031 515.139 423.074 516.003 417.336C518.003 413.92 518.003 413.92 521.336 412.003C525.045 411.281 528.337 411.029 532.003 412.003C537.497 416.306 538.969 421.325 540.68 427.831C540.962 428.844 541.244 429.856 541.535 430.899C542.43 434.124 543.301 437.355 544.17 440.587C545.053 443.812 545.941 447.036 546.833 450.26C547.385 452.261 547.931 454.265 548.471 456.27C549.817 461.212 551.312 465.963 553.336 470.67C556.416 469.79 559.496 468.91 562.67 468.003C560.679 457.102 557.832 446.561 554.716 435.933C549.887 418.863 549.887 418.863 554.17 410.42C554.773 409.154 554.773 409.154 555.388 407.862C561.282 400.219 570.106 398.15 579.003 395.67C580.191 395.312 581.378 394.955 582.602 394.586C592.146 391.871 601.992 389.664 611.17 394.253ZM585.086 417.92C584.087 418.244 583.088 418.568 582.058 418.902C579.592 419.703 577.13 420.518 574.67 421.337C574.993 422.417 575.316 423.498 575.649 424.611C576.86 428.704 578.05 432.802 579.227 436.905C579.736 438.664 580.253 440.421 580.779 442.175C584.615 454.998 588.905 469.376 583.17 482.17C577.308 488.032 570.005 490.15 562.163 492.268C561.205 492.533 560.247 492.799 559.261 493.073C556.087 493.952 552.909 494.819 549.732 495.686C547.471 496.309 545.211 496.934 542.95 497.559C536.891 499.232 530.828 500.895 524.765 502.555C518.488 504.276 512.213 506.005 505.938 507.733C498.353 509.822 490.767 511.91 483.18 513.993C468.783 517.947 454.393 521.927 440.014 525.947C433.82 527.678 427.623 529.403 421.428 531.129C418.166 532.039 414.905 532.953 411.645 533.869C407.165 535.127 402.683 536.374 398.2 537.618C396.922 537.981 395.643 538.343 394.326 538.717C383.791 541.62 374.282 544.167 363.768 540.243C356.656 535.644 354.631 528.863 352.564 521.144C352.132 519.605 352.132 519.605 351.691 518.034C350.779 514.778 349.89 511.516 349.002 508.254C348.385 506.035 347.767 503.817 347.148 501.6C345.635 496.184 344.153 490.761 342.669 485.337C330.789 488.637 330.789 488.637 318.668 492.004C320.354 500.778 322.283 509.401 324.616 518.024C324.926 519.17 325.235 520.316 325.553 521.497C326.203 523.895 326.855 526.293 327.51 528.69C328.503 532.343 329.477 536.001 330.45 539.66C331.087 542.004 331.726 544.348 332.366 546.691C332.651 547.775 332.936 548.858 333.23 549.975C335.77 559.115 339.601 566.963 348.002 572.004C359.695 574.721 369.907 571.209 381.132 567.988C383.244 567.4 385.356 566.813 387.469 566.228C393.163 564.646 398.849 563.038 404.535 561.425C410.501 559.737 416.475 558.074 422.448 556.409C432.313 553.656 442.175 550.89 452.034 548.114C465.874 544.22 479.725 540.37 493.581 536.535C495.735 535.938 497.89 535.342 500.045 534.745C503.204 533.87 506.364 532.995 509.523 532.121C516.413 530.213 523.302 528.302 530.191 526.388C531.116 526.131 532.042 525.874 532.996 525.609C537.533 524.349 542.068 523.083 546.6 521.809C554.893 519.479 563.19 517.185 571.527 515.016C575.445 513.993 579.357 512.947 583.268 511.9C585.116 511.411 586.966 510.934 588.819 510.468C599.642 507.742 608.803 504.981 616.003 496.004C619.604 485.2 616.683 474.319 613.686 463.707C613.31 462.338 612.935 460.969 612.548 459.558C611.758 456.691 610.958 453.826 610.151 450.963C608.914 446.564 607.713 442.156 606.516 437.745C605.741 434.954 604.965 432.163 604.185 429.373C603.648 427.39 603.648 427.39 603.099 425.367C602.752 424.155 602.406 422.944 602.048 421.696C601.749 420.625 601.45 419.555 601.142 418.453C600.766 417.644 600.39 416.836 600.003 416.003C594.442 414.149 590.427 416.133 585.086 417.92Z" fill="#EF3636"/>
<path d="M123.584 422.17C130.832 429.614 133.769 436.278 134.084 446.754C133.614 457.963 130.976 464.21 122.834 471.837C115.17 478.011 108.234 479.391 98.5053 479.166C89.5167 478.007 82.3744 473.928 76.6667 466.921C71.1177 458.511 69.8767 450.548 71.2031 440.608C73.5179 431.107 80.0701 424.076 88.0001 418.67C99.9136 412.846 112.71 415.596 123.584 422.17ZM95.3334 441.504C93.0464 445.134 93.0464 445.134 93.4168 448.837C94.7903 452.317 95.5327 453.951 98.6668 456.004C102.915 456.535 105.496 456.811 109.084 454.337C110.95 451.587 111.804 450.011 112 446.671C110.847 442.932 110.847 442.932 108 440.004C102.292 438.136 100.015 437.524 95.3334 441.504Z" fill="#EF3636"/>
<path d="M230.667 547.001C239.041 553.969 242.121 562.449 243.167 573.084C242.884 581.195 240.225 588.724 234.839 594.829C226.005 602.862 218.838 604.624 206.975 604.423C197.609 603.506 191.389 599.095 185.334 592.001C179.783 583.873 179.229 576.322 180 566.668C181.714 557.882 186.463 552.202 193.334 546.668C204.561 539.794 219.502 539.525 230.667 547.001ZM205.751 566.084C202.113 569.172 202.113 569.172 202.667 574.168C203.577 579.002 203.577 579.002 208.001 581.334C212.001 582.001 212.001 582.001 216.001 581.334C218.797 579.309 218.797 579.309 220.001 576.001C220.22 571.872 220.22 571.872 218.667 568.001C213.661 564.15 211.339 562.835 205.751 566.084Z" fill="#EF3636"/>
</svg>
