<svg width="682" height="682" viewBox="0 0 682 682" fill="none" xmlns="http://www.w3.org/2000/svg">
<g clip-path="url(#clip0_966_6890)">
<path d="M340.084 -0.49927C342.101 -0.498183 342.101 -0.498183 344.159 -0.497075C366.158 -0.442754 387.34 0.792876 408.934 5.32837C410.286 5.60675 411.638 5.88513 413.032 6.17194C462.508 16.6847 508.948 38.135 548.797 69.2659C550.091 70.2772 551.386 71.2886 552.72 72.3306C573.206 88.7603 592.591 107.144 608.738 127.875C610.266 129.745 610.266 129.745 611.824 131.653C657.95 189.255 682.584 263.182 682.42 336.641C682.416 340.557 682.448 344.471 682.481 348.386C682.541 366.2 680.935 383.378 678.004 400.942C677.628 403.213 677.628 403.213 677.244 405.531C667.886 457.629 645.265 507.157 612.734 548.797C611.723 550.092 610.712 551.386 609.67 552.72C593.24 573.206 574.857 592.591 554.125 608.739C552.878 609.757 551.632 610.775 550.347 611.824C507.785 645.907 455.614 667.898 402.273 678.004C401.195 678.222 400.117 678.44 399.006 678.665C358.99 686.486 312.845 685.027 273.066 676.672C271.038 676.255 271.038 676.255 268.968 675.829C219.491 665.316 173.052 643.865 133.203 612.735C131.908 611.723 130.614 610.712 129.28 609.67C108.794 593.24 89.409 574.857 73.2617 554.125C71.7343 552.255 71.7343 552.255 70.1761 550.348C36.0936 507.786 14.1021 455.615 3.99604 402.274C3.77797 401.196 3.5599 400.117 3.33523 399.007C-3.95045 361.728 -3.78939 316.898 3.99604 279.727C4.26068 278.428 4.52533 277.13 4.79799 275.792C18.7442 209.121 49.6879 149.908 97.2382 101.235C98.6744 99.7448 100.11 98.2549 101.547 96.765C109.814 88.2657 118.524 80.5634 127.875 73.262C129.154 72.2266 130.433 71.1912 131.751 70.1244C190.85 23.1297 265.038 -0.651936 340.084 -0.49927ZM291.382 26.1414C290.005 26.3787 288.628 26.6161 287.21 26.8607C233.388 36.5208 183.603 58.6377 141.195 93.2424C140.375 93.9084 139.555 94.5744 138.71 95.2606C121.463 109.372 105.499 124.83 91.9101 142.528C91.2958 143.314 90.6815 144.1 90.0486 144.909C80.335 157.353 71.6326 170.038 63.9374 183.821C63.1397 185.228 63.1397 185.228 62.3257 186.663C21.7583 258.694 11.826 345.192 33.3007 424.918C45.1422 466.84 65.0598 504.307 91.4106 538.807C91.9779 539.55 92.5451 540.294 93.1296 541.06C94.4643 542.779 95.8463 544.46 97.2382 546.133C97.6778 546.133 98.1174 546.133 98.5703 546.133C98.6853 544.411 98.8003 542.689 98.9189 540.914C100.687 517.835 106.048 498.243 123.879 482.196C124.543 481.557 125.208 480.918 125.893 480.26C143.453 464.05 169.093 461.495 191.719 457.371C194.076 456.935 196.434 456.497 198.791 456.059C204.925 454.921 211.06 453.792 217.196 452.665C227.081 450.849 236.964 449.025 246.845 447.192C250.289 446.555 253.735 445.925 257.181 445.295C259.271 444.909 261.36 444.522 263.45 444.135C264.41 443.962 265.371 443.788 266.36 443.609C270.757 443.081 270.757 443.081 274.398 440.903C275.634 434.239 276.423 427.479 274.398 420.922C270.51 415.351 264.674 411.58 259.165 407.74C237.453 392.415 226.381 363.446 221.574 338.414C220.466 331.769 220.019 325.082 219.785 318.356C218.724 317.937 217.663 317.518 216.569 317.086C200.756 310.699 188.722 303.31 181.281 287.521C179.676 283.336 178.638 279.169 177.576 274.815C175.233 265.945 171.268 259.67 166.043 252.308C155.314 237.022 152.288 219.321 155.176 200.924C157.847 189.232 161.626 179.004 170.51 170.745C177.814 162.67 178.316 153.234 179.408 142.861C182.533 115.451 191.192 91.3359 213.125 73.262C227.1 63.3174 244.766 54.7649 262.197 56.5543C276.655 57.4649 289.375 57.9961 300.69 48.0522C308.114 41.1416 314.97 33.4402 321.019 25.3088C321.019 24.8693 321.019 24.4297 321.019 23.9768C310.895 23.6892 301.353 24.4034 291.382 26.1414ZM360.98 23.9768C362.117 25.2852 363.254 26.5936 364.425 27.9417C367.475 31.4717 370.314 35.0894 373.104 38.8269C379.093 46.2848 384.959 53.3621 394.598 55.6269C404.193 56.6017 413.77 56.2256 423.395 55.9469C443.015 55.9408 461.555 66.3992 475.353 79.7088C476.292 80.6583 477.231 81.6079 478.199 82.5862C479.299 83.619 479.299 83.619 480.421 84.6727C485.411 89.796 488.534 95.9239 491.769 102.234C492.213 103.091 492.657 103.947 493.115 104.83C500.264 119.365 502.024 134.763 503.536 150.717C504.765 160.638 506.958 166.244 514.239 173.206C524.341 183.438 527.603 199.93 527.984 213.791C527.503 231.284 521.495 245.299 511.417 259.33C507.271 265.343 504.961 270.909 503.341 277.979C501.3 286.703 498.619 292.869 492.851 299.707C492.153 300.552 491.454 301.397 490.734 302.267C482.94 310.849 473.076 314.872 462.215 318.356C462.042 320.725 462.042 320.725 461.866 323.143C459.022 357.568 446.251 388.4 419.59 411.598C418.462 412.293 417.334 412.989 416.171 413.705C412.597 415.915 410.141 417.554 407.601 420.922C406.585 427.736 406.89 434.073 407.601 440.903C420.628 444.126 433.721 446.551 446.941 448.818C450.563 449.44 454.183 450.071 457.803 450.704C468.083 452.502 478.363 454.295 488.649 456.06C494.976 457.146 501.3 458.25 507.623 459.364C510.009 459.782 512.397 460.193 514.785 460.597C540.878 465.018 564.542 472.471 580.646 495.094C587.991 506.838 591.509 519.296 594.086 532.813C638.041 491.855 656.787 412.4 659.58 355.041C662.409 270.245 632.965 188.022 575.354 125.544C572.738 122.75 570.097 119.98 567.445 117.219C566.305 116.024 565.165 114.829 563.99 113.598C556.304 105.716 548.181 98.6336 539.473 91.9104C538.152 90.8798 538.152 90.8798 536.804 89.8285C489.077 52.8117 422.883 20.9516 360.98 23.9768ZM327.443 51.5465C325.444 53.5193 323.419 55.4618 321.392 57.4051C320.123 58.6564 318.856 59.9095 317.591 61.1644C316.429 62.3014 315.267 63.4385 314.07 64.6099C311.363 67.6927 311.363 67.6927 311.784 71.1729C313.214 75.108 314.713 78.971 316.363 82.8203C317.019 84.3614 317.676 85.9025 318.353 87.4902C319.041 89.0863 319.728 90.6823 320.437 92.3267C321.137 93.9646 321.837 95.6027 322.536 97.2411C324.245 101.239 325.96 105.234 327.68 109.227C328.119 109.227 328.559 109.227 329.012 109.227C329.012 98.2375 329.012 87.2483 329.012 75.926C336.924 75.926 344.836 75.926 352.988 75.926C352.988 86.9153 352.988 97.9045 352.988 109.227C358.228 103.987 360.362 96.1555 363.228 89.4128C364.275 87.0201 364.275 87.0201 365.343 84.579C365.997 83.0457 366.65 81.5123 367.323 79.9325C367.927 78.5265 368.531 77.1204 369.153 75.6717C370.377 71.6935 370.739 70.3131 368.973 66.6018C366.388 63.4225 366.388 63.4225 363.109 60.2538C361.923 59.0691 360.737 57.8843 359.516 56.6636C358.268 55.4376 357.021 54.2116 355.736 52.9485C354.48 51.6901 353.225 50.4309 351.971 49.1709C340.124 37.4182 338.441 40.6344 327.443 51.5465ZM218.453 99.9026C206.63 113.896 203.124 128.613 201.137 146.524C206.24 145.715 210.261 144.195 214.858 141.856C216.809 140.871 216.809 140.871 218.799 139.866C220.141 139.178 221.483 138.491 222.865 137.782C224.233 137.089 225.601 136.397 227.01 135.683C230.377 133.975 233.741 132.261 237.102 130.539C237.483 131.757 237.864 132.974 238.257 134.228C239.471 137.693 240.664 140.374 242.596 143.443C245.094 147.856 245.094 147.856 245.094 151.852C241.981 153.408 238.868 154.965 235.754 156.52C233.084 157.856 230.416 159.194 227.748 160.535C221.666 163.588 215.583 166.624 209.425 169.522C193.93 176.86 185.297 183.721 178.492 199.805C175.312 209.346 175.685 221.855 179.824 231.024C180.674 232.627 181.547 234.219 182.488 235.77C184.97 233.383 187.37 231.018 189.481 228.293C199.33 215.674 212.241 211.096 227.777 209.129C231.177 208.804 234.579 208.525 237.984 208.253C265.749 206.029 289.292 197.134 310.363 178.492C310.152 177.785 309.941 177.078 309.723 176.349C307.581 166.489 307.576 156.218 313.064 147.564C315.284 143.497 316.255 140.461 314.916 135.877C313.734 132.805 312.451 129.8 311.112 126.793C310.662 125.743 310.211 124.693 309.747 123.611C308.636 121.03 307.504 118.457 306.367 115.887C301.611 117.641 297.585 119.745 293.369 122.552C292.207 123.319 291.045 124.086 289.847 124.876C288.65 125.673 287.453 126.471 286.22 127.292C283.833 128.88 281.443 130.464 279.05 132.043C277.471 133.095 277.471 133.095 275.86 134.169C273.066 135.867 273.066 135.867 269.07 137.199C268.768 136.32 268.466 135.441 268.154 134.535C266.213 130.099 263.775 126.27 261.109 122.24C259.746 119.883 259.746 119.883 259.746 117.219C262.329 115.261 264.9 113.475 267.613 111.714C268.412 111.186 269.21 110.657 270.032 110.113C272.592 108.421 275.16 106.743 277.728 105.064C279.462 103.922 281.194 102.779 282.927 101.635C287.182 98.8279 291.444 96.0322 295.711 93.2424C294.855 90.8265 293.994 88.4126 293.13 85.9995C292.411 83.9828 292.411 83.9828 291.678 81.9254C290.691 78.7191 290.691 78.7191 289.051 77.2581C261.898 74.7481 237.668 79.654 218.453 99.9026ZM392.949 77.2581C390.751 82.0933 388.553 86.9286 386.289 91.9104C390.252 95.8737 393.3 98.5765 397.856 101.568C399.688 102.771 399.688 102.771 401.556 103.999C402.864 104.845 404.172 105.691 405.52 106.563C407.563 107.887 407.563 107.887 409.648 109.238C427.588 120.763 446.022 131.235 465.045 140.863C466.175 141.437 467.304 142.011 468.467 142.602C469.512 143.12 470.556 143.638 471.633 144.172C473.008 144.856 473.008 144.856 474.412 145.555C477.047 146.768 477.047 146.768 480.863 146.524C478.524 123.236 471.506 105.663 453.385 90.2922C435.298 76.675 414.591 76.6755 392.949 77.2581ZM375.633 115.887C374.029 119.514 372.452 123.149 370.887 126.793C370.431 127.817 369.976 128.841 369.506 129.897C366.256 137.36 366.256 137.36 367.641 145.192C368.505 146.775 369.422 148.33 370.388 149.854C374.846 158.318 374.335 169.455 371.637 178.492C394.593 198.802 419.928 206.597 450.079 208.912C466.994 210.333 481.425 214.776 492.706 228.085C494.612 230.601 496.436 233.138 498.18 235.77C502.344 232.362 503.521 228.935 504.84 223.781C506.354 207.931 504.447 196.166 494.517 183.654C487.301 176.147 478.807 172.25 469.495 168.016C440.484 154.657 413.051 138.9 386.511 121.163C385.47 120.471 384.428 119.779 383.354 119.066C382.439 118.451 381.523 117.836 380.58 117.202C378.351 115.665 378.351 115.665 375.633 115.887ZM334.756 156.764C331.301 160.219 330.344 161.647 330.344 166.504C332.208 171.219 333.655 172.807 338.169 175.162C342.333 176.199 342.333 176.199 345.995 174.33C349.097 171.745 350.523 170.358 351.656 166.504C351.536 161.7 350.675 160.195 347.244 156.764C342.309 153.665 339.691 153.665 334.756 156.764ZM321.977 197.635C321.002 198.544 320.026 199.452 319.021 200.388C299.438 217.136 273.679 227.057 248.161 229.821C247.086 229.938 246.011 230.055 244.904 230.176C244.088 230.263 243.271 230.351 242.43 230.442C242.033 238.593 241.744 246.738 241.552 254.897C241.471 257.668 241.363 260.438 241.224 263.206C239.819 277.82 239.819 277.82 243.97 291.323C248.169 295.344 253.138 297.458 258.414 299.707C271.432 309.513 278.03 324.813 281.808 340.168C284.472 350.898 287.749 357.443 296.83 364.113C305.073 369.069 314.253 368.969 323.413 366.73C325.865 366.007 328.315 365.28 330.765 364.55C339.209 362.412 346.632 363.179 354.903 365.643C364.171 368.379 373.526 369.588 382.626 365.643C394.56 358.468 397.908 349.671 401.162 336.72C404.939 321.902 412.161 309.997 423.586 299.707C426.362 298.417 429.141 297.132 431.921 295.852C436.147 293.091 438.993 291.075 440.413 286.094C441.607 277.115 441.021 268.097 440.569 259.08C440.489 256.305 440.416 253.53 440.351 250.755C440.175 243.978 439.9 237.212 439.57 230.442C437.745 230.202 437.745 230.202 435.883 229.958C427.022 228.753 418.335 227.54 409.766 224.947C408.83 224.666 407.894 224.385 406.929 224.095C390.581 218.917 370.727 210.007 358.753 197.474C358.17 196.924 357.586 196.375 356.984 195.809C354.305 196.152 351.644 196.629 348.992 197.141C335.334 197.684 335.334 197.684 328.887 196.178C324.983 195.419 324.983 195.419 321.977 197.635ZM206.465 242.43C200.77 249.624 197.735 256.833 198.072 266.136C199.587 277.23 204.586 284.036 212.964 291.184C215.781 293.414 215.781 293.414 219.785 293.047C219.785 273.706 219.785 254.365 219.785 234.438C214.535 234.438 210.278 239.116 206.465 242.43ZM462.215 234.438C462.215 253.779 462.215 273.12 462.215 293.047C469.355 291.262 473.361 287.864 478.199 282.391C482.719 274.657 484.653 267.279 483.527 258.414C480.57 249.165 476.014 241.556 467.959 235.936C465.05 234.244 465.05 234.244 462.215 234.438ZM242.43 317.024C240.879 342.343 251.869 366.395 268.154 385.207C286.629 404.863 310.054 416.67 337.181 417.553C364.064 417.828 387.431 409.749 407.601 391.617C408.415 390.927 409.229 390.237 410.068 389.526C427.952 373.275 438.247 347.782 439.81 324.043C439.818 321.702 439.713 319.36 439.57 317.024C428.489 324.675 424.052 335.616 420.922 348.41C417.405 362.665 410.488 374.908 397.856 382.918C384.411 390.155 370.561 392.255 355.819 388.287C347.215 385.995 339.061 384.707 330.474 387.585C316.329 392.276 300.924 390.862 287.469 384.791C273.304 377.046 265.55 364.913 261.016 349.617C260.597 348.037 260.178 346.457 259.746 344.83C256.785 333.723 252.405 323.478 242.43 317.024ZM297.043 432.91C297.043 436.427 297.043 439.944 297.043 443.567C297.754 443.848 298.465 444.129 299.197 444.418C302.482 445.727 305.756 447.061 309.031 448.395C310.708 449.057 310.708 449.057 312.419 449.732C323.243 454.18 331.676 460.384 339.668 468.875C343.973 466.998 346.577 464.738 349.825 461.383C359.451 452.547 372.669 447.663 384.957 443.567C384.957 440.05 384.957 436.534 384.957 432.91C383.35 433.28 381.743 433.649 380.087 434.029C377.936 434.517 375.785 435.004 373.635 435.491C372.58 435.734 371.526 435.977 370.44 436.227C345.066 441.947 322.012 438.812 297.043 432.91ZM268.578 465.398C267.488 465.595 266.397 465.792 265.273 465.995C261.679 466.648 258.088 467.311 254.496 467.975C251.981 468.437 249.465 468.899 246.95 469.361C241.676 470.331 236.404 471.307 231.132 472.287C224.42 473.533 217.705 474.758 210.988 475.976C205.787 476.924 200.589 477.886 195.392 478.853C192.92 479.31 190.447 479.762 187.973 480.208C164.574 484.439 144.481 488.973 129.956 509.585C119.06 527.253 117.9 551.327 121.215 571.442C123.879 577.743 129.009 581.181 134.72 584.564C137.377 586.204 139.767 588.023 142.21 589.965C151.403 597.255 161.017 603.9 170.833 610.32C171.785 610.946 172.738 611.572 173.719 612.217C174.614 612.791 175.509 613.366 176.432 613.957C177.217 614.463 178.002 614.968 178.811 615.488C181.536 617.052 181.536 617.052 186.484 618.063C186.484 584.655 186.484 551.248 186.484 516.828C193.957 516.828 201.43 516.828 209.129 516.828C209.129 554.631 209.129 592.434 209.129 631.383C245.409 645.337 280.16 656.504 318.873 658.753C319.853 658.812 320.832 658.871 321.84 658.932C324.231 659.075 326.621 659.216 329.012 659.356C329.105 638.525 329.176 617.694 329.219 596.864C329.239 587.191 329.267 577.518 329.313 567.846C329.353 559.412 329.379 550.978 329.388 542.544C329.393 538.081 329.407 533.619 329.434 529.156C329.463 524.165 329.467 519.176 329.465 514.185C329.48 512.716 329.494 511.248 329.509 509.734C329.456 496.667 326.495 487.902 317.424 478.251C312.474 473.864 307.114 471.371 301.039 468.875C299.875 468.353 298.711 467.831 297.511 467.293C287.253 462.857 279.523 463.362 268.578 465.398ZM383.125 467.543C382.131 467.96 381.136 468.378 380.112 468.808C368.358 473.99 359.757 481.072 354.32 492.852C353.045 496.955 352.824 500.651 352.828 504.94C352.826 506.303 352.824 507.666 352.822 509.071C352.827 510.559 352.832 512.047 352.837 513.58C352.837 515.153 352.837 516.726 352.836 518.346C352.837 522.653 352.844 526.96 352.853 531.266C352.861 535.769 352.862 540.272 352.864 544.775C352.868 553.3 352.879 561.824 352.892 570.349C352.907 580.054 352.914 589.76 352.921 599.466C352.935 619.429 352.959 639.393 352.988 659.356C358.341 658.946 363.693 658.529 369.044 658.111C371.307 657.937 371.307 657.937 373.616 657.761C383.631 656.973 393.363 655.911 403.189 653.778C404.545 653.494 405.901 653.211 407.297 652.919C430.035 647.96 451.162 639.825 472.871 631.383C472.871 593.58 472.871 555.777 472.871 516.828C480.344 516.828 487.816 516.828 495.516 516.828C495.516 550.236 495.516 583.643 495.516 618.063C518.642 608.812 539.046 591.029 557.398 574.53C559.453 572.774 559.453 572.774 563.277 570.089C567.899 566.542 570.909 563.692 571.992 557.779C573.885 537.004 570.303 518.862 557.424 502.218C541.196 484.17 513.222 482.741 490.697 478.767C488.206 478.325 485.715 477.882 483.223 477.44C478.036 476.52 472.848 475.604 467.66 474.69C461.025 473.52 454.393 472.339 447.761 471.155C442.631 470.241 437.5 469.335 432.368 468.43C429.922 467.998 427.476 467.563 425.03 467.125C421.616 466.515 418.199 465.915 414.783 465.318C413.286 465.047 413.286 465.047 411.758 464.771C401.173 462.943 392.994 463.37 383.125 467.543Z" fill="#EF2626"/>
<path d="M295.711 307.699C303.623 307.699 311.535 307.699 319.688 307.699C320.182 309.54 320.677 311.381 321.186 313.277C323.351 319.854 326.008 322.489 331.676 326.348C336.283 328.651 341.282 328.148 346.328 327.68C352.6 325.431 356.075 322.639 359.648 317.023C360.528 313.946 361.407 310.869 362.312 307.699C370.225 307.699 378.137 307.699 386.289 307.699C384.312 323.333 380.258 334.944 367.641 344.996C356.667 352.048 344.428 354.663 331.619 352.213C318.707 348.898 309.81 342.999 302.486 331.759C298.156 323.716 296.015 316.814 295.711 307.699Z" fill="#EF2626"/>
<path d="M372.969 592.754C380.881 592.754 388.793 592.754 396.945 592.754C396.945 600.666 396.945 608.578 396.945 616.73C389.033 616.73 381.121 616.73 372.969 616.73C372.969 608.818 372.969 600.906 372.969 592.754Z" fill="#EF2626"/>
<path d="M372.969 538.141C380.881 538.141 388.793 538.141 396.945 538.141C396.945 546.053 396.945 553.965 396.945 562.117C389.033 562.117 381.121 562.117 372.969 562.117C372.969 554.205 372.969 546.293 372.969 538.141Z" fill="#EF2626"/>
<path d="M402.273 242.43C406.128 245.889 407.416 247.979 408.267 253.087C407.416 258.195 406.128 260.284 402.273 263.743C396.934 265.296 394.211 265.651 389.12 263.327C386.289 261.079 386.289 261.079 384.957 258.415C384.343 248.899 384.343 248.899 386.705 244.512C391.561 240.016 396.23 240.946 402.273 242.43Z" fill="#EF2626"/>
<path d="M293.047 242.431C296.131 244.84 296.835 246.473 297.454 250.293C297.746 255.04 297.558 257.644 294.879 261.662C290.961 264.239 288.416 264.98 283.723 265.076C279.022 262.939 277.292 261.424 274.399 257.083C273.722 251.892 273.96 249.75 276.896 245.345C281.913 240.18 286.344 240.704 293.047 242.431Z" fill="#EF2626"/>
</g>
<defs>
<clipPath id="clip0_966_6890">
<rect width="682" height="682" fill="white"/>
</clipPath>
</defs>
</svg>
