<svg width="682" height="682" viewBox="0 0 682 682" fill="none" xmlns="http://www.w3.org/2000/svg">
<path d="M290.966 125.213C293.011 126.966 295.039 128.74 297.043 130.541C297.841 131.216 298.64 131.89 299.462 132.586C341.787 170.982 344.534 239.856 347.244 292.549C347.397 295.823 347.535 299.097 347.66 302.373C351.177 301.494 354.693 300.615 358.316 299.709C358.27 298.375 358.224 297.041 358.176 295.666C357.707 277.103 357.707 277.103 362.312 270.404C372.434 261.08 372.434 261.08 376.965 261.08C376.965 259.761 376.965 258.443 376.965 257.084C374.987 257.372 374.987 257.372 372.969 257.667C367.061 257.584 364.083 255.033 359.909 251.064C341.871 230.683 341.871 230.683 342.041 217.466C342.44 213.344 343.66 210.943 346.328 207.799C348.079 206.862 349.853 205.966 351.656 205.135C350.832 203.596 350.008 202.058 349.159 200.473C341.599 183.329 342.753 164.946 349.075 147.691C356.71 131.009 367.895 124.344 384.13 117.361C388.287 115.56 392.021 113.55 395.811 111.07C414.371 99.0951 441.819 100.232 462.798 103.9C485.602 109.801 503.498 122.671 515.522 142.919C523.606 157.429 529.347 175.711 525.398 192.324C523.719 197.088 521.848 200.414 518.16 203.803C518.778 204.998 518.778 204.998 519.409 206.217C523.12 213.856 522.959 220.585 520.398 228.57C519.612 230.754 518.811 232.933 517.994 235.105C517.616 236.192 517.238 237.279 516.849 238.399C514.155 245.697 510.814 251.944 504.84 257.084C501.66 258.519 498.984 259.124 495.516 259.748C496.415 260.136 497.315 260.524 498.242 260.924C499.43 261.47 500.619 262.016 501.843 262.578C503.017 263.104 504.192 263.629 505.402 264.171C509.842 267.063 511.761 269.678 514.164 274.4C514.544 279.317 514.544 279.317 514.247 284.474C513.663 293.55 513.663 293.55 518.16 301.041C521.857 303.243 525.754 304.83 529.732 306.452C532.137 307.481 534.539 308.517 536.939 309.559C538.211 310.111 539.484 310.663 540.795 311.232C547.841 314.393 554.725 317.874 561.618 321.354C562.926 322.014 564.233 322.673 565.581 323.353C568.094 324.622 570.606 325.894 573.117 327.168C577.845 329.557 582.592 331.907 587.343 334.25C595.129 338.285 599.929 343.697 603.41 351.658C622.189 413.315 609.422 491.902 607.406 555.459C624.549 555.459 641.693 555.459 659.355 555.459C659.355 559.415 659.355 563.371 659.355 567.447C449.241 567.447 239.126 567.447 22.6445 567.447C22.6445 563.491 22.6445 559.535 22.6445 555.459C39.7878 555.459 56.931 555.459 74.5938 555.459C72.6495 518.629 70.0604 482.025 65.796 445.386C65.66 444.218 65.5241 443.05 65.384 441.846C65.1864 440.15 65.1864 440.15 64.9847 438.42C60.8875 402.648 60.5898 369.334 81.2539 338.338C81.6819 334.668 81.6819 334.668 81.665 330.45C81.6955 328.807 81.7261 327.164 81.7576 325.471C81.7759 324.145 81.7759 324.145 81.7946 322.791C83.8201 189.487 83.8201 189.487 117.219 143.861C118.122 142.616 119.025 141.371 119.956 140.089C137.348 117.467 163.465 106.348 191.207 102.592C225.798 98.3897 262.764 103.222 290.966 125.213ZM134.535 142.529C133.716 143.302 132.897 144.075 132.053 144.871C101.094 176.613 99.6381 230.62 95.9062 271.736C95.8084 272.757 95.7105 273.777 95.6097 274.828C93.987 291.944 94.4474 309.177 94.5742 326.349C97.7753 325.078 100.962 323.807 104.107 322.4C116.001 317.464 128.535 316.302 141.222 314.795C143.951 314.48 143.951 314.48 146.523 313.029C145.667 292.521 133.524 275.727 122.849 258.791C111.357 237.418 119.252 210.329 125.044 188.401C125.354 187.214 125.663 186.026 125.981 184.803C131.037 166.6 140.395 151.58 156.763 141.52C172.355 133.144 187.591 131.399 205.099 131.452C207.931 131.457 210.761 131.425 213.593 131.392C239.646 131.269 264.265 136.719 285.055 153.185C286.428 154.174 287.802 155.163 289.217 156.182C307.439 173.612 316.66 197.568 317.356 222.451C317.031 250.963 304.073 275.804 291.752 300.777C290.256 303.83 290.256 303.83 289.051 307.701C293.261 308.871 297.481 309.996 301.705 311.114C302.886 311.443 304.068 311.772 305.285 312.111C314.607 314.544 322.684 315.256 331.676 310.948C332.994 310.316 334.313 309.684 335.672 309.033C335.927 294.388 335.204 279.922 334.09 265.326C334.004 264.189 333.918 263.053 333.829 261.882C330.329 216.857 320.976 169.784 287.048 137.326C272.419 125.056 254.551 117.639 235.77 114.557C234.897 114.409 234.025 114.261 233.126 114.109C197.57 109.163 160.386 116.812 134.535 142.529ZM393.48 126.566C389.401 128.948 385.39 130.872 381.044 132.705C370.5 137.397 364.456 142.993 359.654 153.581C354.106 168.518 354.853 182.504 360.804 197.148C362.284 200.22 362.284 200.22 366.309 202.471C382.386 185.92 386.936 160.775 387.621 138.533C388.5 138.533 389.379 138.533 390.285 138.533C391.891 140.839 393.399 143.212 394.864 145.609C414.581 175.717 447.271 188.61 480.863 197.142C489.844 198.934 500.564 200.573 508.836 195.81C512.593 192.724 513.904 190.027 514.481 185.123C515.031 167.709 507.816 150.904 496.988 137.513C483.217 122.898 464.61 114.898 444.701 114.156C424.965 113.932 410.522 116.23 393.48 126.566ZM149.016 161.974C133.416 182.002 125.612 215.968 127.875 241.099C130.114 252.206 136.478 261.43 142.416 270.873C147.917 279.65 152.564 288.526 155.848 298.377C156.727 298.377 157.606 298.377 158.512 298.377C164.754 279.141 164.326 263.063 159.104 243.683C151.267 214.415 158.44 192.264 173.164 166.506C174.043 166.506 174.922 166.506 175.828 166.506C177.265 168.449 178.609 170.461 179.907 172.5C191.566 189.401 204.065 193.649 223.551 197.728C249.544 203.211 249.544 203.211 258.003 214.282C268.187 230.881 270.583 249.56 268.404 268.614C267.688 275.605 267.483 282.527 267.489 289.552C267.487 291.371 267.487 291.371 267.486 293.227C267.557 302.291 268.349 310.836 270.402 319.689C274.043 316.049 275.56 311.698 277.562 307.035C280.862 299.439 284.244 291.895 287.792 284.411C301.208 256.063 312.758 228.635 302.371 197.142C297.29 184.53 290.796 174.63 281.059 165.174C279.979 164.053 279.979 164.053 278.878 162.91C259.877 144.675 232.951 142.07 208.047 141.946C206.317 141.933 204.587 141.919 202.805 141.905C181.93 142.095 163.616 146.198 149.016 161.974ZM395.613 166.506C395.373 167.243 395.132 167.98 394.884 168.74C386.91 192.945 386.91 192.945 381.71 200.639C375.88 209.658 377.716 217.544 379.746 227.713C383.8 246.281 391.46 262.79 402.273 278.396C403.153 279.715 404.032 281.034 404.938 282.392C409.007 284.159 409.007 284.159 413.762 285.639C419.267 287.47 424.507 289.364 429.58 292.216C436.161 295.272 440.727 293.7 447.302 291.3C464.128 284.551 472.895 276.313 480.458 259.554C487.321 243.275 488.283 226.556 488.855 209.131C486.625 208.739 486.625 208.739 484.349 208.34C453.085 202.507 422.759 191.986 399.823 169.289C397.453 166.351 397.453 166.351 395.613 166.506ZM174.496 186.486C164.691 210.699 163.776 227.096 173.164 251.756C178.086 262.872 183.792 275.669 194.56 282.059C195.454 282.602 196.349 283.145 197.271 283.704C204.884 287.768 213.824 287.561 222.049 285.478C234.747 280.791 241.832 273.542 248.299 261.725C252.993 251.463 257.905 239.451 254.002 228.279C248.202 217.306 239.152 212.961 227.777 209.131C221.424 207.564 214.994 206.413 208.551 205.28C194.738 202.573 184.772 195.868 174.496 186.486ZM499.512 219.787C498.545 222.716 498.545 222.716 498.409 226.005C498.306 227.194 498.203 228.383 498.096 229.608C498.014 230.845 497.932 232.082 497.847 233.357C497.744 234.61 497.641 235.862 497.534 237.153C497.283 240.243 497.055 243.334 496.848 246.428C502.941 243.023 504.312 238.107 506.505 231.858C507.041 230.428 507.041 230.428 507.587 228.968C509.289 224.285 510.168 220.825 510.168 215.791C504.523 215.791 503.358 215.962 499.512 219.787ZM355.652 217.123C354.325 219.968 354.325 219.968 354.32 223.783C356.238 227.359 358.788 230.347 361.397 233.44C362.421 234.713 362.421 234.713 363.465 236.011C367.002 240.528 367.002 240.528 371.637 243.764C370.251 230.229 370.251 230.229 362.312 219.787C358.781 217.925 358.781 217.925 355.652 217.123ZM255.75 270.404C253.946 274.012 254.331 277.077 254.418 281.06C257.284 276.761 257.35 275.354 257.082 270.404C256.642 270.404 256.203 270.404 255.75 270.404ZM487.523 270.404C487.084 271.723 486.644 273.042 486.191 274.4C489.268 274.4 492.345 274.4 495.516 274.4C492.667 271.552 491.343 271.168 487.523 270.404ZM376.965 274.4C376.965 275.279 376.965 276.159 376.965 277.064C378.531 277.724 378.531 277.724 380.128 278.396C385.015 282.119 385.024 285.73 385.94 291.607C386.055 292.523 386.171 293.438 386.289 294.381C390.245 294.381 394.201 294.381 398.277 294.381C396.433 289 393.843 285.456 390.285 281.06C388.407 278 386.686 274.885 384.957 271.736C380.715 271.367 380.715 271.367 376.965 274.4ZM483.527 277.064C477.632 283.202 477.632 283.202 475.301 291.097C475.659 294.035 476.137 296.842 476.867 299.709C480.384 299.709 483.9 299.709 487.523 299.709C487.372 296.433 487.203 293.16 487.024 289.885C486.983 288.954 486.942 288.024 486.899 287.065C486.731 281.458 486.731 281.458 483.527 277.064ZM179.824 286.389C179.613 287.707 179.402 289.026 179.184 290.385C175.827 309.956 175.827 309.956 169.168 317.025C167.358 317.986 165.524 318.902 163.671 319.776C160.313 321.822 158.795 322.809 157.574 326.59C157.277 330.253 157.313 333.777 157.471 337.448C157.486 338.769 157.501 340.09 157.517 341.451C157.576 345.661 157.71 349.864 157.846 354.072C157.899 356.93 157.948 359.787 157.991 362.645C158.109 369.641 158.287 376.633 158.512 383.627C159.584 383.969 160.657 384.311 161.762 384.664C163.893 385.356 163.893 385.356 166.067 386.062C167.469 386.514 168.872 386.966 170.317 387.432C179.428 390.752 186.673 395.486 193.311 402.525C200.462 409.975 206.733 411.759 216.955 412.099C231.342 411.648 241.507 406.564 253.086 398.279C254.307 397.539 255.528 396.799 256.785 396.037C264.772 390.396 267.27 384.893 269.151 375.573C270.201 369.394 271.041 363.214 271.734 356.986C271.87 355.803 272.005 354.62 272.145 353.401C272.461 350.601 272.765 347.8 273.066 344.998C271.83 344.696 270.594 344.393 269.32 344.082C264.12 341.941 263.424 340.71 261.078 335.674C260.249 331.79 259.806 327.875 259.33 323.935C258.149 315.598 256.959 309.86 251.083 303.544C247.157 298.614 245.621 292.338 243.762 286.389C242.482 287.208 242.482 287.208 241.176 288.043C239.447 289.12 239.447 289.12 237.684 290.218C236.556 290.929 235.428 291.64 234.266 292.372C226.633 296.381 219.167 297.565 210.627 297.544C209.694 297.542 208.76 297.54 207.798 297.538C196.166 297.263 189.215 292.72 179.824 286.389ZM498.18 286.389C498.13 287.876 498.13 287.876 498.079 289.394C497.753 298.948 497.396 308.5 497.012 318.052C496.885 321.369 496.781 324.685 496.697 328.004C496.138 341.325 492.531 353.578 488.855 366.31C487.991 369.365 487.128 372.419 486.264 375.473C480.907 394.275 475.22 412.951 469.291 431.58C463.687 449.196 458.424 466.848 454.223 484.861C453.982 485.864 453.741 486.867 453.493 487.9C451.652 496.177 451.291 503.85 451.59 512.303C451.619 513.442 451.648 514.581 451.677 515.754C451.788 519.943 451.924 524.131 452.058 528.319C452.333 537.715 452.608 547.11 452.891 556.791C484.979 556.791 517.068 556.791 550.129 556.791C550.169 528.368 550.169 528.368 550.196 499.946C550.203 489.783 550.213 479.619 550.229 469.456C550.244 460.552 550.252 451.647 550.255 442.743C550.258 439.342 550.263 435.941 550.27 432.54C550.279 427.784 550.281 423.029 550.28 418.274C550.287 416.154 550.287 416.154 550.295 413.991C550.292 412.047 550.292 412.047 550.289 410.063C550.29 408.939 550.292 407.814 550.293 406.655C550.203 403.187 550.203 403.187 548.797 398.279C552.753 398.279 556.709 398.279 560.785 398.279C561.225 450.148 561.664 502.018 562.117 555.459C573.106 555.459 584.096 555.459 595.418 555.459C600.325 464.742 600.325 464.742 595.418 374.303C595.296 373.307 595.175 372.311 595.05 371.285C593.557 359.972 591.119 352.313 582.098 344.998C574.06 340.101 565.398 336.299 556.872 332.344C554.591 331.265 552.311 330.185 550.033 329.102C545.562 326.98 541.088 324.864 536.612 322.754C530.409 319.821 524.227 316.85 518.072 313.82C517.192 313.394 516.312 312.968 515.405 312.529C509.545 309.62 505.888 307.542 503.341 301.457C502.007 296.405 501.381 291.584 500.844 286.389C499.965 286.389 499.085 286.389 498.18 286.389ZM370.305 287.721C369.865 293.875 369.426 300.029 368.973 306.369C358.259 311.782 347.433 316.688 336.192 320.917C335.298 321.255 334.404 321.593 333.483 321.941C328.992 323.633 324.492 325.297 319.979 326.928C300.198 334.133 300.198 334.133 285.637 348.494C275.831 374.02 276.656 403.732 276.756 430.602C276.757 433.499 276.758 436.396 276.757 439.294C276.759 445.316 276.77 451.338 276.788 457.361C276.811 465.021 276.816 472.681 276.815 480.342C276.815 486.307 276.823 492.273 276.832 498.238C276.837 501.061 276.839 503.884 276.84 506.707C276.491 530.48 276.491 530.48 278.395 554.127C288.331 559.095 300.586 555.459 311.695 555.459C311.695 503.59 311.695 451.72 311.695 398.279C315.651 398.279 319.608 398.279 323.684 398.279C323.589 400.135 323.494 401.991 323.397 403.903C322.493 422.479 322.171 440.994 322.221 459.589C322.224 462.382 322.226 465.176 322.227 467.969C322.232 475.206 322.245 482.443 322.26 489.68C322.276 498.425 322.282 507.17 322.29 515.915C322.303 529.096 322.328 542.277 322.352 555.459C354.88 555.459 387.408 555.459 420.922 555.459C421.087 545.321 421.252 535.184 421.421 524.739C421.494 521.61 421.567 518.482 421.642 515.258C421.892 496.905 419.518 480.827 414.094 463.313C412.925 459.539 411.814 455.751 410.717 451.956C408.864 445.572 406.963 439.204 405.041 432.84C402.992 426.057 400.961 419.267 398.928 412.479C398.527 411.143 398.127 409.807 397.714 408.431C394.235 396.822 390.823 385.195 387.455 373.553C387 371.983 386.545 370.413 386.077 368.795C385.226 365.851 384.383 362.904 383.55 359.955C382.703 357.058 381.801 354.176 380.849 351.312C376.566 337.951 375.819 325.102 375.3 311.198C375.198 308.908 375.094 306.619 374.988 304.329C374.735 298.794 374.51 293.258 374.301 287.721C372.982 287.721 371.663 287.721 370.305 287.721ZM458.552 299.542C454.511 301.592 450.478 303.444 446.23 305.037C448.183 310.289 450.724 311.722 455.721 314.028C456.933 314.598 458.146 315.168 459.395 315.756C460.325 316.175 461.256 316.594 462.215 317.025C465.317 314.51 465.317 314.51 465.139 310.313C465.108 308.737 465.077 307.161 465.045 305.536C465.021 303.953 464.997 302.37 464.973 300.739C464.942 299.52 464.911 298.301 464.879 297.045C462.536 297.045 460.601 298.487 458.552 299.542ZM408.934 301.041C409.085 303.456 409.255 305.87 409.433 308.284C409.526 309.628 409.619 310.973 409.714 312.358C409.896 313.459 410.078 314.559 410.266 315.693C411.145 316.133 412.024 316.572 412.93 317.025C416.851 315.091 416.851 315.091 421.088 312.446C422.548 311.569 424.007 310.692 425.511 309.788C426.634 309.099 427.757 308.41 428.914 307.701C425.35 304.137 422.322 303.929 417.425 302.872C415.842 302.526 414.259 302.179 412.628 301.821C411.409 301.564 410.19 301.306 408.934 301.041ZM387.621 306.369C387.472 309.84 387.369 313.303 387.288 316.775C387.243 317.707 387.199 318.639 387.153 319.598C386.793 340.538 394.443 361.756 400.525 381.546C401.237 383.891 401.947 386.237 402.657 388.583C406.242 400.385 409.936 412.145 413.795 423.862C415.747 429.816 417.628 435.792 419.498 441.773C420.454 444.767 421.444 447.75 422.465 450.723C434.2 485.139 432.699 519.495 431.578 555.459C434.655 555.459 437.732 555.459 440.902 555.459C440.865 554.345 440.865 554.345 440.827 553.209C439.521 510.659 443.113 473.828 456.717 433.483C461.943 417.974 466.496 402.274 471.046 386.556C472.415 381.848 473.81 377.147 475.21 372.448C484.138 342.607 484.138 342.607 486.191 311.697C483.114 311.697 480.037 311.697 476.867 311.697C476.895 313.043 476.922 314.389 476.95 315.776C476.056 322.192 471.709 325.021 466.903 328.894C463.547 330.346 463.547 330.346 459.696 329.612C454.28 327.087 449.465 323.893 444.589 320.449C440.128 317.494 440.128 317.494 434.96 317.691C427.28 322.222 427.28 322.222 419.702 326.922C417.295 328.368 417.295 328.368 412.93 330.346C409.995 329.487 409.995 329.487 407.602 327.681C406.772 327.285 405.943 326.888 405.088 326.48C402.286 324.868 400.363 323.513 398.277 321.021C397.09 316.121 396.884 311.398 396.945 306.369C393.868 306.369 390.791 306.369 387.621 306.369ZM285.055 321.021C284.959 322.823 284.943 324.629 284.971 326.433C284.999 328.164 285.026 329.894 285.055 331.678C290.33 328.381 290.33 328.381 295.711 325.017C294.832 323.259 293.953 321.501 293.047 319.689C288.665 319.201 288.665 319.201 285.055 321.021ZM139.863 326.349C138.729 345.017 138.357 363.594 138.531 382.295C143.147 381.635 143.147 381.635 147.855 380.963C147.855 362.501 147.855 344.039 147.855 325.017C145.159 325.017 142.495 325.81 139.863 326.349ZM97.2383 341.002C96.433 341.67 95.6277 342.338 94.798 343.026C80.0098 356.268 75.4095 377.232 74.329 396.287C74.131 413.269 76.0006 429.964 77.858 446.827C81.1181 476.524 83.8601 506.132 84.9811 535.988C85.344 542.49 85.9925 548.973 86.582 555.459C99.7691 555.459 112.956 555.459 126.543 555.459C126.985 514.431 126.504 475.135 113.895 435.662C105.56 409.498 105.56 409.498 111.225 396.281C114.555 392.951 114.555 392.951 117.141 391.586C120.546 389.682 122.729 387.994 125.211 384.959C126.958 378.29 127.071 371.66 127.209 364.812C127.284 362.994 127.364 361.176 127.448 359.359C127.902 348.804 127.965 338.244 127.875 327.681C116.277 327.681 105.676 333.443 97.2383 341.002ZM121.964 400.777C118.697 405.22 118.373 408.862 119.061 414.295C120.881 422.513 122.954 430.341 125.767 438.279C129.23 448.383 131.469 458.595 133.458 469.085C133.823 470.95 134.189 472.815 134.556 474.679C135.509 479.531 136.447 484.385 137.381 489.24C138.876 497.005 140.389 504.766 141.91 512.526C142.43 515.192 142.941 517.859 143.45 520.526C145.762 532.392 148.72 543.715 151.852 555.459C189.655 555.459 227.458 555.459 266.406 555.459C266.406 505.348 266.406 455.237 266.406 403.607C262.89 406.245 259.373 408.882 255.75 411.599C239.435 421.988 222.815 424.771 203.728 421.574C195.083 419.006 189.518 413.921 183.244 407.714C176.781 401.485 169.739 398.272 161.176 395.615C160.345 395.351 159.514 395.086 158.657 394.814C146.181 392.457 132.265 392.853 121.964 400.777ZM137.199 551.463C137.199 552.781 137.199 554.1 137.199 555.459C138.078 555.459 138.957 555.459 139.863 555.459C139.424 554.14 138.984 552.821 138.531 551.463C138.092 551.463 137.652 551.463 137.199 551.463Z" fill="#EF2626"/>
<path d="M447.562 374.8C451.072 379.405 451.161 382.625 450.893 388.312C449.821 393.629 447.508 395.949 443.566 399.609C438.97 401.907 433.94 401.602 428.914 400.941C424.875 398.012 423.83 396.346 422.254 391.616C421.765 385.018 421.95 380.822 426.25 375.632C432.964 371.603 440.581 371.6 447.562 374.8ZM435.574 384.956C435.135 386.275 434.695 387.594 434.242 388.952C435.561 388.513 436.88 388.073 438.238 387.62C438.238 386.741 438.238 385.862 438.238 384.956C437.359 384.956 436.48 384.956 435.574 384.956Z" fill="#EF2626"/>
<path d="M442.234 337.003C448.773 340.878 448.773 340.878 451.558 343.663C452.195 349.926 452.53 353.885 448.478 358.898C443.488 363.656 439.712 364.02 432.915 363.945C429.063 363.51 426.597 362.02 423.586 359.647C421.444 355.365 421.623 350.972 422.254 346.327C424.421 342.147 426.314 339.34 429.996 336.42C434.48 335.267 437.754 335.921 442.234 337.003ZM434.242 348.991C434.242 349.87 434.242 350.749 434.242 351.655C436 351.216 437.758 350.776 439.57 350.323C437.812 349.884 436.053 349.444 434.242 348.991Z" fill="#EF2626"/>
<path d="M443.567 407.603C447.855 410.015 449.672 411.526 451.476 416.094C451.631 422.616 449.879 426.476 445.565 431.329C440.824 435.478 437.904 436.068 431.542 435.929C428.914 435.575 428.914 435.575 425.668 433.66C422.628 428.676 421.993 424.059 422.254 418.259C423.771 413.869 424.704 411.224 428.696 408.752C433.617 406.789 438.363 406.851 443.567 407.603ZM434.243 419.591C434.243 420.91 434.243 422.228 434.243 423.587C435.561 423.147 436.88 422.708 438.239 422.255C438.239 421.376 438.239 420.497 438.239 419.591C436.92 419.591 435.601 419.591 434.243 419.591Z" fill="#EF2626"/>
</svg>
