<svg width="683" height="683" viewBox="0 0 683 683" fill="none" xmlns="http://www.w3.org/2000/svg">
<g clip-path="url(#clip0_941_6913)">
<path d="M283.063 16.1198C287.954 15.6761 291.502 12.9674 295.563 10.3698C315.465 -1.21374 339.246 -3.37514 361.834 0.999923C366.038 2.17266 369.786 3.59282 373.73 5.45307C375.026 6.03917 376.322 6.62526 377.657 7.22912C403.365 20.4856 419.056 47.2158 434.447 70.6015C446.693 89.0882 460.645 106.28 483.184 111.573C500.713 114.044 516.483 108.411 530.397 97.9535C531.649 96.9463 532.9 95.9391 534.189 94.9014C540.735 89.7611 545.042 87.3379 553.356 87.6566C559.964 88.6636 564.303 91.5185 568.314 96.9535C573.19 112.441 567.451 128.686 560.349 142.581C549.475 162.684 533.056 175.325 512.397 184.121C507.777 185.441 507.777 185.441 503.064 186.787C502.624 241.348 502.184 295.908 501.731 352.121C521.47 343.18 521.47 343.18 524.08 333.387C524.209 329.907 524.209 329.907 523.981 326.371C524.035 323.895 524.103 321.419 524.184 318.944C524.203 317.766 524.221 316.589 524.241 315.375C525.103 297.49 537.359 281.396 549.731 269.454C565.776 255.51 585.617 248.623 606.814 249.137C628.752 250.777 649.55 259.623 664.398 276.121C681.627 297.013 684.928 319.191 683.065 345.455C680.624 363.525 669.28 381.239 655.231 392.538C634.844 407.788 612.157 413.011 587.064 409.455C582.784 408.31 578.721 406.979 574.596 405.372C566.974 402.636 566.974 402.636 559.359 404.502C558.097 405.378 556.834 406.255 555.533 407.158C553.379 408.626 553.379 408.626 551.182 410.123C549.642 411.206 548.103 412.288 546.564 413.372C544.973 414.468 543.38 415.562 541.785 416.654C538.502 418.904 535.226 421.164 531.955 423.43C527.283 426.653 522.56 429.792 517.814 432.903C516.367 433.854 514.921 434.804 513.431 435.784C510.69 437.581 507.948 439.375 505.203 441.166C496.139 447.16 488.466 452.295 484.397 462.789C483.583 469.3 484.823 473.316 488.397 478.789C495.697 486.1 504.117 491.756 512.752 497.351C514.026 498.187 515.3 499.022 516.613 499.883C520.648 502.526 524.689 505.158 528.731 507.789C532.79 510.441 536.848 513.096 540.905 515.752C543.42 517.397 545.937 519.04 548.456 520.68C549.595 521.423 550.735 522.167 551.909 522.933C552.907 523.583 553.906 524.233 554.934 524.903C557.731 526.789 557.731 526.789 560.563 529.046C562.993 531.132 562.993 531.132 566.236 530.539C571.429 528.929 576.555 527.172 581.684 525.372C601.164 519.355 622.625 522.673 640.898 531.122C661.427 542.47 675.106 560.088 681.914 582.43C686.788 603.163 683.559 625.644 673.731 644.29C662.049 662.947 644.655 676.41 623.205 681.909C606.074 685.113 587.065 684.578 571.064 677.456C569.815 676.906 568.565 676.356 567.278 675.79C548.128 666.335 534.158 649.826 526.481 630.039C524.797 624.805 524.334 620.285 524.481 614.841C524.911 601.979 524.911 601.979 519.438 590.843C512.887 585.626 505.415 582.01 497.943 578.301C490.555 574.48 483.599 569.965 476.564 565.539C473.643 563.737 470.719 561.938 467.793 560.143C466.35 559.257 464.907 558.371 463.421 557.458C455.118 552.372 446.8 547.312 438.476 542.261C437.305 541.55 436.134 540.839 434.928 540.107C433.254 539.111 433.254 539.111 431.547 538.094C428.397 536.122 428.397 536.122 425.591 533.978C422.967 532.026 420.786 530.621 417.73 529.456C415.009 529.811 415.009 529.811 412.274 530.954C410.692 531.54 410.692 531.54 409.077 532.138C407.973 532.573 406.868 533.008 405.73 533.456C404.647 533.87 403.563 534.285 402.447 534.712C398.888 536.091 395.345 537.506 391.803 538.93C390.483 539.457 389.162 539.985 387.802 540.529C383.498 542.251 379.197 543.978 374.897 545.706C371.873 546.918 368.849 548.13 365.826 549.341C348.263 556.388 330.728 563.501 313.23 570.706C293.779 578.713 274.308 586.668 254.813 594.565C251.737 595.811 248.663 597.059 245.589 598.309C241.271 600.064 236.951 601.813 232.63 603.56C231.362 604.077 230.093 604.594 228.786 605.127C203.574 615.289 177.078 621.677 150.427 612.477C143.368 608.937 139.033 604.953 136.396 597.456C135.086 588.879 136.137 583.264 140.933 576.044C144.586 571.605 149.051 568.983 153.979 566.122C155.054 565.472 156.13 564.822 157.237 564.152C159.621 562.71 162.01 561.278 164.404 559.853C168.81 557.207 173.176 554.5 177.536 551.779C179.883 550.318 182.229 548.858 184.576 547.399C186.114 546.442 187.651 545.485 189.188 544.527C191.361 543.175 193.54 541.831 195.719 540.487C196.975 539.709 198.231 538.931 199.525 538.129C202.86 536.237 206.137 534.781 209.729 533.456C205.031 528.307 199.605 524.624 193.896 520.706C183.299 513.328 173.104 505.567 163.062 497.455C161.821 496.459 160.58 495.462 159.302 494.435C155.643 491.469 152.013 488.472 148.396 485.455C147.356 484.588 147.356 484.588 146.295 483.703C109.26 452.701 73.1348 419.197 68.3952 368.122C68.2057 362.219 68.2268 356.321 68.2438 350.416C68.2442 348.628 68.244 346.84 68.2432 345.052C68.2429 340.221 68.2507 335.39 68.26 330.558C68.2684 325.501 68.2691 320.444 68.2707 315.387C68.2748 305.82 68.2858 296.253 68.2992 286.686C68.3141 275.791 68.3214 264.895 68.3281 253.999C68.342 231.595 68.3655 209.191 68.3952 186.787C66.8882 186.388 66.8882 186.388 65.3507 185.98C64.0315 185.626 62.7123 185.272 61.3532 184.907C60.046 184.558 58.7388 184.209 57.392 183.849C37.9193 178.204 20.9976 162.835 11.0616 145.454C3.18947 130.331 -1.42291 117.355 0.394865 100.12C3.17504 94.148 6.22438 90.5347 12.3949 88.1201C18.7207 87.2619 23.8981 87.1856 29.645 90.1201C31.6663 91.7702 31.6663 91.7702 33.7284 93.4535C48.425 105.147 63.779 113.23 83.0619 112.12C101.69 108.964 115.942 97.6611 127.062 82.7868C131.275 76.8375 135.35 70.7963 139.415 64.746C176.395 9.72835 176.395 9.72835 209.516 0.64901C236.328 -4.27831 260.69 1.20476 283.063 16.1198ZM193.312 36.6199C191.201 38.6466 189.12 40.7056 187.062 42.7866C186.37 43.4289 185.677 44.0711 184.963 44.7329C177.954 51.3677 172.705 58.9002 167.312 66.87C165.424 69.6169 163.535 72.3635 161.646 75.1097C159.895 77.6683 158.145 80.2273 156.396 82.7868C139.751 107.127 122.555 128.244 92.3953 135.204C69.0795 139.065 49.8904 132.42 29.7283 121.454C28.8483 121.014 27.9683 120.574 27.0617 120.12C30.9166 135.65 41.0829 146.945 54.3118 155.574C94.4996 178.008 154.628 174.252 197.553 163.13C224.541 155.447 248.499 143.066 267.063 121.454C267.063 120.574 267.063 119.694 267.063 118.787C276.197 113.869 283.573 112.543 293.73 114.787C299.04 117.39 302.305 120.682 306.063 125.12C330.567 153.948 371.992 166.165 408.397 169.454C448.407 172.562 494.537 172.817 527.397 146.454C534.756 139.737 540.196 131.368 541.731 121.454C537.375 123.117 533.381 125.019 529.314 127.287C508.88 137.55 487.522 138.496 465.73 132.12C439.695 122.179 423.194 98.6092 408.48 76.2034C386.663 42.5235 386.663 42.5235 352.397 24.1198C334.554 21.1254 319.916 24.2678 304.396 33.4532C302.613 34.7788 300.834 36.1108 299.063 37.4532C290.893 41.0632 282.277 41.5098 273.813 38.6199C269.549 36.8431 265.734 34.5527 261.813 32.1199C240.176 18.7874 212.734 19.3756 193.312 36.6199ZM284.396 137.454C283.153 138.937 281.937 140.442 280.73 141.954C250.892 176.27 201.58 188.929 158.096 192.412C151.311 192.88 144.525 193.211 137.729 193.454C148.045 221.292 164.392 244.773 191.505 258.345C200.535 262.169 209.254 264.714 219.063 262.788C226.642 258.64 229.26 252.428 233.156 244.907C237.573 236.907 244.921 231.332 253.671 228.656C256.476 228.105 259.053 227.925 261.909 227.885C263.52 227.859 263.52 227.859 265.162 227.833C266.314 227.823 267.465 227.813 268.651 227.803C269.852 227.792 271.053 227.782 272.29 227.771C274.833 227.752 277.376 227.738 279.919 227.727C282.498 227.712 285.078 227.685 287.657 227.645C319.88 227.152 319.88 227.152 329.876 235.922C334.878 241.126 338.063 247.049 341.402 253.387C344.481 258.455 348.388 261.997 354.183 263.71C367.551 265.26 383.155 257.285 393.371 249.262C396.701 246.304 399.892 243.248 403.063 240.121C403.897 239.384 404.731 238.646 405.59 237.886C417.117 227.4 425.099 211.687 431.064 197.454C431.064 196.134 431.064 194.814 431.064 193.454C430.148 193.408 429.232 193.362 428.288 193.315C381.75 190.827 334.937 182.696 299.063 150.787C297.908 149.881 296.753 148.976 295.563 148.042C292.882 145.851 290.84 143.834 288.73 141.12C287.74 139.91 286.75 138.7 285.73 137.454C285.29 137.454 284.85 137.454 284.396 137.454ZM92.3953 192.121C92.3024 214.398 92.2312 236.676 92.1881 258.953C92.1675 269.299 92.1395 279.645 92.0936 289.99C92.0535 299.015 92.0278 308.041 92.019 317.066C92.0138 321.838 92.0018 326.609 91.9724 331.38C91.9398 336.728 91.9394 342.076 91.9412 347.424C91.9268 348.978 91.9124 350.532 91.8976 352.132C92.022 385.692 106.332 412.794 129.729 436.122C140.156 446.349 150.825 456.246 162.255 465.346C165.895 468.255 169.432 471.266 172.979 474.289C184.421 483.821 196.355 492.697 208.396 501.455C209.524 502.281 210.653 503.107 211.815 503.957C215.041 506.297 218.295 508.591 221.563 510.872C222.536 511.58 223.51 512.288 224.514 513.017C229.948 516.794 229.948 516.794 236.37 516.971C241.621 514.125 246.648 511.057 251.646 507.789C253.915 506.33 256.186 504.873 258.459 503.419C259.647 502.658 260.836 501.897 262.06 501.112C268.203 497.223 274.425 493.467 280.646 489.705C291.145 483.346 301.585 476.901 311.98 470.372C323.696 463.018 335.48 455.785 347.313 448.622C361.732 439.894 376.095 431.082 390.41 422.185C405.264 412.955 420.14 403.758 435.029 394.584C438.026 392.736 441.021 390.886 444.015 389.032C450.288 385.158 456.561 381.317 462.996 377.715C463.942 377.179 464.887 376.644 465.861 376.092C468.265 374.742 470.687 373.425 473.111 372.111C477.367 368.671 477.145 366.791 477.731 361.455C477.842 358.993 477.893 356.528 477.891 354.064C477.893 352.628 477.895 351.193 477.896 349.713C477.892 348.159 477.887 346.604 477.882 345.002C477.882 342.523 477.882 342.523 477.882 339.994C477.882 335.479 477.875 330.965 477.866 326.45C477.857 321.726 477.857 317.001 477.855 312.276C477.851 303.338 477.84 294.399 477.827 285.46C477.812 275.28 477.804 265.101 477.798 254.921C477.784 233.987 477.76 213.054 477.731 192.121C471.13 192.561 464.53 193.001 457.73 193.454C456.905 195.571 456.08 197.689 455.23 199.871C441.292 233.141 421.617 264.16 387.714 279.585C373.229 285.149 356.84 289.632 341.73 284.121C329.82 278.719 322.326 268.957 316.714 257.428C314.638 254.108 313.157 252.754 309.73 250.788C305.936 250.397 302.443 250.227 298.652 250.256C297.58 250.253 296.508 250.249 295.404 250.245C293.141 250.242 290.879 250.249 288.616 250.266C285.163 250.287 281.711 250.266 278.258 250.241C276.056 250.243 273.854 250.248 271.651 250.256C270.623 250.248 269.595 250.24 268.536 250.232C262.485 250.31 258.508 250.985 253.729 254.788C251.305 258.67 251.305 258.67 249.313 263.121C244.257 272.969 238.875 278.542 229.313 283.954C209.498 290 190.3 284.129 172.396 274.788C167.238 271.53 162.466 267.959 157.729 264.121C156.803 263.413 155.876 262.705 154.922 261.975C133.715 244.875 121.931 218.228 112.395 193.454C105.795 193.014 99.1953 192.574 92.3953 192.121ZM559.064 294.788C548.038 309.12 546.43 323.444 547.445 340.99C547.766 349.757 547.766 349.757 544.564 354.46C538.879 358.546 532.979 362.075 526.897 365.538C524.232 367.084 521.569 368.632 518.908 370.184C517.58 370.958 516.251 371.733 514.883 372.53C509.427 375.756 504.072 379.127 498.731 382.538C484.438 391.648 469.993 400.505 455.547 409.369C448.271 413.836 441.001 418.313 433.73 422.788C430.841 424.566 427.953 426.344 425.064 428.122C423.634 429.002 422.204 429.882 420.73 430.788C234.396 545.456 234.396 545.456 230.057 548.126C227.187 549.892 224.318 551.658 221.449 553.424C214.727 557.56 208.004 561.697 201.281 565.831C198.132 567.768 194.983 569.705 191.835 571.642C189.633 572.996 187.431 574.35 185.229 575.703C177.822 580.259 170.43 584.836 163.062 589.456C166.456 592.85 168.17 592.701 172.896 593.123C174.809 593.319 174.809 593.319 176.76 593.518C190.23 593.349 201.963 589.628 214.313 584.539C215.907 583.897 217.502 583.256 219.145 582.595C223.534 580.828 227.915 579.042 232.294 577.252C237.023 575.323 241.759 573.414 246.495 571.503C254.734 568.175 262.968 564.835 271.198 561.487C283.743 556.385 296.295 551.303 308.849 546.224C323.625 540.247 338.4 534.266 353.173 528.279C354.2 527.862 355.227 527.446 356.286 527.017C361.352 524.964 366.418 522.908 371.481 520.847C380.961 516.989 390.451 513.16 399.975 509.411C404.525 507.618 409.069 505.812 413.612 504.005C415.773 503.15 417.936 502.302 420.102 501.461C439.327 494.429 439.327 494.429 451.746 479.018C452.739 476.619 453.706 474.209 454.647 471.789C455.133 470.601 455.618 469.413 456.118 468.19C458.032 463.49 459.924 458.795 461.614 454.01C466.733 439.949 475.173 431.165 487.58 423.101C489.374 421.901 489.374 421.901 491.204 420.676C495.006 418.139 498.826 415.63 502.647 413.122C505.142 411.462 507.636 409.801 510.129 408.137C515.077 404.84 520.042 401.57 525.019 398.317C529.988 395.065 534.899 391.744 539.781 388.364C540.969 387.555 542.157 386.747 543.381 385.914C545.616 384.393 547.837 382.85 550.041 381.284C556.964 376.624 562.674 374.507 571.064 376.122C575.064 378.538 575.064 378.538 579.064 381.455C591.882 387.375 606.985 388.579 620.398 384.122C638.192 376.744 647.639 367.65 656.539 350.637C661.356 338.989 660.918 322.874 657.065 310.955C650.327 295.367 640.051 284.772 624.815 277.704C600.142 268.115 576.593 276.114 559.064 294.788ZM469.73 496.122C469.019 497.007 468.307 497.892 467.574 498.804C460.648 507.013 454.398 512.155 444.397 516.122C450.579 521.502 457.502 525.371 464.564 529.456C475.182 535.66 485.66 542.028 496.022 548.649C505.857 554.917 515.831 560.951 525.845 566.929C528.26 568.384 530.663 569.86 533.052 571.358C535.222 572.719 537.423 574.033 539.655 575.29C546.628 579.624 546.628 579.624 547.802 584.552C547.926 588.269 547.718 591.835 547.398 595.539C546.631 613.703 549.513 627.261 561.731 641.456C571.042 651.537 583.522 658.125 597.268 659.154C613.632 659.708 626.813 657.413 639.648 646.373C652.378 633.85 659.508 621.623 659.731 603.456C659.538 587.707 654.127 574.431 643.315 562.872C631.304 551.637 616.759 546.043 600.403 546.362C591.126 547.351 581.825 550.146 573.898 555.122C568.785 557.985 566.207 558.02 560.398 557.456C556.969 555.779 554.111 554.142 550.986 552.023C550.082 551.434 549.177 550.845 548.246 550.238C545.169 548.223 542.116 546.174 539.064 544.122C536.748 542.583 534.432 541.043 532.116 539.504C525.883 535.35 519.674 531.163 513.472 526.962C509.614 524.349 505.752 521.742 501.889 519.135C499.404 517.456 496.919 515.776 494.434 514.096C493.295 513.327 492.156 512.557 490.982 511.764C473.585 499.977 473.585 499.977 469.73 496.122Z" fill="#EF3636"/>
<path d="M625.003 574.919C631.345 579.787 635.893 586.779 637.336 594.669C638.444 606.355 637.64 615.644 630.669 625.336C624.313 632.463 617.18 636.836 607.638 637.758C597.987 638.077 590.663 637.598 582.669 632.003C581.487 631.26 580.304 630.518 579.086 629.753C572.019 622.686 567.887 613.743 567.669 603.753C567.865 592.9 571.28 584.874 578.711 576.971C592.239 565.107 610.26 565.453 625.003 574.919ZM594.669 596.003C592.34 599.179 591.972 600.729 592.169 604.669C593.635 608.857 595.081 610.717 598.669 613.336C602.612 614.336 602.612 614.336 606.669 613.336C611.154 610.021 613.07 608.117 614.086 602.586C613.161 597.757 611.951 596.217 608.002 593.336C602.272 591.132 599.421 592.278 594.669 596.003Z" fill="#EF3636"/>
<path d="M624.004 301.333C631.699 308.51 636.544 314.759 637.832 325.437C638.079 337.257 636.248 345.95 628.087 354.802C619.933 362.307 612.377 365.135 601.337 365.333C591.996 364.609 584.227 361.001 577.337 354.667C569.952 344.852 566.914 336.209 568.003 324C570.066 314.682 575.173 305.794 583.253 300.562C596.568 293.667 611.288 292.025 624.004 301.333ZM594.67 322.666C592.24 325.836 591.971 327.35 592.17 331.333C593.653 335.569 594.999 337.392 598.67 340C603.924 340.75 606.747 340.805 611.254 337.916C614.142 333.41 614.087 330.587 613.337 325.333C610.968 322.118 609.049 320.522 605.504 318.75C601.065 318.619 598.369 320.335 594.67 322.666Z" fill="#EF3636"/>
<path d="M425.335 454.669C429.168 456.752 429.168 456.752 432.002 460.002C433.534 465.268 433.91 468.041 431.668 473.085C429.335 476.002 429.335 476.002 425.335 478.669C420.124 479.112 416.384 478.976 412.002 476.002C408.722 471.083 408.269 467.044 409.335 461.335C413.835 454.79 417.538 453.415 425.335 454.669Z" fill="#EF3636"/>
</g>
<defs>
<clipPath id="clip0_941_6913">
<rect width="682.67" height="682.67" fill="white"/>
</clipPath>
</defs>
</svg>
