<svg width="683" height="683" viewBox="0 0 683 683" fill="none" xmlns="http://www.w3.org/2000/svg">
<path d="M413.83 100.376C420.679 101.733 427.365 102.666 434.336 102.918C448.19 104.304 459.131 113.924 469.336 122.668C470.86 123.924 470.86 123.924 472.414 125.205C480.442 132.008 486.928 139.678 493.336 148.002C494.274 149.201 495.213 150.401 496.18 151.637C506.417 165.144 514.735 179.541 515.154 196.793C514.669 200.002 514.669 200.002 512.336 204.491C510.093 209.278 510.093 209.278 512.435 213.637C513.456 215.167 514.509 216.677 515.586 218.169C523.063 229.519 528.733 241.482 534.388 253.82C535.964 257.25 537.565 260.668 539.17 264.085C540.144 266.196 541.116 268.307 542.086 270.419C542.532 271.366 542.978 272.312 543.438 273.288C548.1 283.618 549.096 293.165 545.336 304.002C542.389 309.209 539.046 313.272 534.67 317.336C536.753 322.242 539.784 325.556 543.42 329.419C547.997 334.341 552.375 339.341 556.586 344.586C562.142 351.488 568.074 357.935 574.159 364.367C580.338 371.437 582.92 377.301 582.67 386.669C581.179 394.111 578.026 399.289 572.003 404.003C565.568 407.523 559.351 409.916 552.003 410.67C552.661 411.412 553.319 412.155 553.998 412.92C559.763 419.787 563.103 424.226 562.67 433.336C560.865 438.505 558.394 442.769 554.836 446.92C554.341 447.717 553.846 448.515 553.336 449.336C554.149 451.588 555.054 453.806 556.003 456.003C556.792 464.293 555.997 467.973 550.67 474.67C549.872 475.632 549.075 476.595 548.253 477.587C547.73 478.384 547.208 479.182 546.67 480.003C547.11 481.323 547.55 482.643 548.003 484.003C549.197 492.813 547.185 499.083 543.753 507.087C543.364 508.012 542.976 508.937 542.576 509.89C539.98 515.626 537.526 519.304 532.003 522.67C510.541 530.315 487.08 530.943 464.555 531.432C463.195 531.469 461.836 531.507 460.435 531.545C459.226 531.57 458.017 531.595 456.772 531.621C451.761 532.179 447.942 533.453 444.278 536.957C441.356 541.615 439.536 545.353 440.523 550.959C441.765 555.464 443.245 559.826 444.934 564.183C447.492 570.859 448.795 575.524 446.669 582.67C442.108 585.565 439.17 586.841 433.752 586.337C428.789 582.581 427.411 577.75 425.336 572.004C424.738 570.398 424.139 568.793 423.523 567.139C418.206 552.357 418.206 552.357 419.086 546.087C419.146 541.417 419.146 541.417 416.617 538.988C413.757 536.644 410.821 534.479 407.78 532.377C404.927 530.385 402.126 528.332 399.325 526.269C398.253 525.48 397.182 524.691 396.077 523.878C393.852 522.233 391.629 520.584 389.409 518.931C382.491 513.787 382.491 513.787 375.341 508.977C364.065 501.22 361.86 491.744 359.276 478.915C358.673 476.022 357.95 473.183 357.195 470.326C356.236 466.315 355.639 463.006 355.669 458.92C355.658 457.463 355.658 457.463 355.648 455.977C356.002 453.336 356.002 453.336 358.669 449.336C368.045 446.102 375.009 450.588 383.502 454.67C424.367 473.764 424.367 473.764 467.836 470.336C476.465 466.755 476.465 466.755 482.669 460.003C484.08 456.034 485.321 452.03 486.555 448.003C488.681 442.13 491.877 437.954 496.003 433.336C496.64 432.546 497.278 431.755 497.935 430.94C504.922 422.986 517.191 415.115 527.909 414.414C529.275 414.541 529.275 414.541 530.669 414.67C530.394 413.047 530.119 411.425 529.836 409.753C529 404.822 529.328 401.639 532.003 397.336C535.517 395.626 538.653 394.351 542.336 393.169C544.22 392.531 546.102 391.889 547.982 391.242C548.885 390.934 549.788 390.626 550.719 390.309C554.409 388.937 557.864 387.182 561.336 385.336C559.444 379.389 556.181 375.565 551.92 371.169C547.072 366.036 542.422 360.85 538.003 355.336C537.028 354.157 536.054 352.978 535.05 351.763C532.866 349.068 530.798 346.367 528.748 343.575C521.961 334.718 521.961 334.718 511.8 330.888C508.017 330.634 504.327 330.744 500.544 330.919C496.003 330.669 496.003 330.669 493.414 328.252C491.49 324.276 491.366 321.7 492.003 317.336C494.143 314.44 494.143 314.44 497.336 312.002C501.649 311.482 501.649 311.482 506.336 311.669C507.897 311.717 509.457 311.765 511.065 311.815C512.255 311.877 513.444 311.939 514.669 312.002C514.793 311.213 514.917 310.425 515.044 309.612C516.497 305.15 519.705 303.069 523.211 300.101C526.455 295.879 526.706 293.362 526.669 288.002C524.937 282.691 522.543 277.762 520.086 272.752C519.413 271.337 518.74 269.921 518.046 268.462C516.056 264.297 514.034 260.148 512.003 256.002C510.978 253.879 509.954 251.756 508.93 249.632C504.194 239.911 499.088 230.499 493.336 221.335C492.529 221.497 491.723 221.659 490.892 221.826C487.263 222.554 483.633 223.278 480.003 224.002C478.907 224.222 477.812 224.442 476.684 224.668C458.529 228.274 440.453 230.644 422.022 232.281C417.539 232.68 413.058 233.097 408.577 233.518C395.456 234.744 382.332 235.923 369.202 237.047C319.141 240.073 319.141 240.073 273.335 258.669C274.137 258.414 274.939 258.159 275.765 257.897C307.123 248.048 337.059 243.736 369.752 241.669C371.121 241.582 372.49 241.495 373.9 241.405C383.042 240.837 392.184 240.381 401.336 240.002C402.567 239.944 403.799 239.886 405.068 239.826C408.565 239.673 412.06 239.568 415.56 239.481C416.59 239.432 417.621 239.382 418.683 239.331C424.064 239.26 426.319 239.712 430.519 243.196C431.913 244.915 431.913 244.915 433.336 246.669C434.274 247.576 435.213 248.484 436.179 249.419C446.107 259.074 446.107 259.074 448.002 264.002C447.79 272.971 443.822 278.549 438.804 285.773C438.017 286.934 437.229 288.095 436.418 289.292C434.755 291.735 433.085 294.173 431.407 296.606C428.839 300.331 426.293 304.071 423.752 307.815C422.132 310.191 420.511 312.566 418.888 314.94C418.125 316.057 417.362 317.173 416.577 318.324C415.861 319.361 415.144 320.398 414.407 321.467C413.78 322.378 413.153 323.288 412.508 324.226C410.676 326.66 409.03 328.739 406.669 330.669C402.662 331.111 398.916 331.321 394.903 331.351C393.755 331.375 392.606 331.399 391.423 331.424C387.755 331.496 384.087 331.541 380.419 331.586C377.932 331.63 375.445 331.676 372.958 331.724C366.862 331.837 360.765 331.926 354.669 332.002C355.128 333.247 355.586 334.491 356.059 335.773C357.335 340.003 357.335 340.003 356.419 343.669C354.669 346.669 354.669 346.669 350.669 349.336C345.717 349.97 343.405 349.806 339.158 347.096C338.062 346.13 336.965 345.164 335.835 344.169C330.384 339.431 326.613 336.43 319.418 335.252C314.349 335.561 314.349 335.561 311.002 339.836C305.086 349.501 302.163 360.719 304.549 371.899C308.309 382.173 319.231 387.67 328.002 393.336C329.466 394.285 330.931 395.234 332.439 396.211C334.945 397.812 337.46 399.399 339.986 400.966C342.669 402.669 342.669 402.669 344.002 404.003C346.224 404.057 348.447 404.06 350.669 404.003C351.038 403.248 351.408 402.494 351.788 401.716C352.271 400.738 352.754 399.76 353.252 398.753C353.732 397.778 354.211 396.804 354.705 395.8C356.002 393.336 356.002 393.336 357.335 392.003C367.075 391.374 367.075 391.374 370.136 393.449C372.956 397.308 372.521 400.565 372.533 405.294C372.539 406.648 372.539 406.648 372.545 408.029C372.548 409.934 372.54 411.839 372.524 413.744C372.502 416.66 372.523 419.572 372.549 422.487C372.546 424.34 372.541 426.192 372.533 428.045C372.529 429.73 372.524 431.415 372.52 433.151C372.002 437.336 372.002 437.336 370.13 439.884C367.477 441.695 365.865 441.873 362.669 441.836C361.761 441.847 360.854 441.857 359.919 441.868C356.513 441.167 355.347 440.158 353.335 437.336C352.945 434.321 352.945 434.321 353.085 431.086C353.139 429.47 353.139 429.47 353.195 427.821C353.241 427.001 353.287 426.181 353.335 425.336C352.481 425.398 351.627 425.46 350.747 425.524C349.593 425.572 348.44 425.62 347.252 425.67C346.123 425.731 344.993 425.793 343.83 425.857C338.647 425.152 334.98 422.785 330.669 420.003C329.599 419.322 328.529 418.641 327.427 417.939C323.855 415.646 320.302 413.329 316.752 411.003C315.522 410.2 314.292 409.398 313.025 408.571C310.016 406.606 307.008 404.639 304.002 402.669C301.574 406.311 300.7 408.403 299.653 412.518C292.881 437.854 292.881 437.854 280.241 446.607C272.776 452.494 269.187 456.822 267.991 466.493C267.377 474.313 267.168 482.148 266.911 489.986C265.493 517.329 257.658 544.624 248.418 570.254C248.038 571.316 247.657 572.377 247.265 573.471C246.898 574.45 246.531 575.428 246.152 576.436C245.833 577.29 245.514 578.143 245.185 579.023C243.166 582.969 240.981 584.976 236.835 586.504C232.306 586.719 230.287 585.284 226.668 582.67C225.335 581.337 225.335 581.337 224.991 576.623C225.079 570.239 227.066 565.248 229.501 559.42C240.756 530.654 246.683 498.853 248.001 468.003C248.056 466.73 248.111 465.456 248.168 464.144C248.556 446.024 246.791 430.38 237.335 414.67C236.773 413.736 236.212 412.802 235.634 411.839C232.984 407.436 230.328 403.038 227.665 398.642C212.642 373.712 200.242 348.921 194.168 320.336C191.998 310.164 188.797 302.347 183.085 293.685C168.448 271.409 165.629 242.025 170.772 216.249C178.407 183.761 197.248 147.462 225.814 129.126C279.359 97.1541 353.106 88.115 413.83 100.376ZM223.373 156.72C218.25 162.484 214.074 168.665 210.085 175.252C209.453 176.294 208.821 177.335 208.171 178.409C192.81 204.275 183.777 232.142 190.73 262.106C193.385 271.635 196.267 279.052 202.668 286.669C204.341 284.903 204.341 284.903 206.048 283.101C255.423 231.838 314.875 222.203 382.752 216.131C387.488 215.707 392.225 215.279 396.961 214.851C403.097 214.297 409.235 213.76 415.374 213.236C430.073 211.952 444.682 210.364 459.268 208.127C460.6 207.93 461.933 207.734 463.305 207.531C474.436 205.731 485.763 203.248 494.669 196.002C494.345 179.436 482.972 164.944 472.003 153.335C469.815 151.514 467.602 149.723 465.336 148.002C465.238 149.543 465.238 149.543 465.138 151.116C465.038 152.453 464.939 153.791 464.836 155.168C464.743 156.499 464.65 157.829 464.555 159.2C464.003 162.668 464.003 162.668 461.336 165.335C453.675 166.186 453.675 166.186 450.669 165.335C447.428 161 445.396 156.003 443.136 151.104C436.878 137.772 429.522 126.421 415.169 120.939C361.47 105.041 264.133 114.093 223.373 156.72ZM401.507 258.882C400.077 258.969 398.647 259.056 397.173 259.146C394.134 259.336 391.095 259.539 388.058 259.756C383.515 260.079 378.972 260.361 374.427 260.635C316.132 264.322 264.75 277.434 216.001 310.669C214.681 311.329 214.681 311.329 213.335 312.002C214.368 340.426 232.453 368.498 246.803 392.046C254.511 404.754 262.24 417.74 266.668 432.003C275.635 426.294 277.493 418.983 280.418 409.086C280.88 407.638 281.341 406.19 281.817 404.698C286.654 389.822 286.654 389.822 285.335 374.669C284.146 356.756 285.649 339.892 297.335 325.336C302.413 320.083 307.617 316.287 315.054 315.804C320.332 315.725 325.129 315.965 330.335 316.919C334.703 317.754 334.703 317.754 338.185 315.372C343.975 312.743 348.484 312.954 354.742 313.169C357.097 313.191 359.453 313.21 361.809 313.226C365.492 313.27 369.169 313.336 372.85 313.459C387.073 314.374 387.073 314.374 399.704 309.173C402.499 305.367 404.573 301.562 406.669 297.336C408.344 294.795 410.053 292.275 411.794 289.778C413.422 287.327 415.047 284.874 416.669 282.419C417.511 281.15 418.353 279.88 419.221 278.573C421.262 275.495 423.3 272.416 425.336 269.336C420.736 257.627 412.46 258.058 401.507 258.882ZM509.977 446.717C506.658 451.122 503.786 455.894 502.669 461.336C504.208 466.417 507.679 468.957 511.753 472.17C512.889 473.081 514.025 473.992 515.195 474.93C518.513 477.228 521.54 478.681 525.336 480.003C525.611 478.436 525.886 476.868 526.169 475.253C527.754 468.717 531.344 464.691 536.003 460.003C535.356 458.722 535.356 458.722 534.696 457.415C530.435 448.163 530.435 448.163 531.112 443.847C532.76 440.064 535.052 436.763 537.336 433.336C526.545 432.703 517.103 438.981 509.977 446.717ZM380.002 476.003C380.411 481.929 380.922 487.325 384.92 491.929C387.907 494.308 390.966 496.424 394.169 498.503C396.46 500.085 398.75 501.669 401.039 503.253C402.197 504.037 403.355 504.821 404.548 505.628C409.907 509.313 415.075 513.237 420.252 517.17C422.021 518.501 423.79 519.831 425.56 521.16C427.429 522.567 427.429 522.567 429.336 524.003C430.298 522.986 431.261 521.968 432.252 520.92C438.857 514.609 443.833 512.746 452.883 512.503C453.868 512.461 454.853 512.418 455.868 512.374C457.967 512.284 460.068 512.201 462.168 512.124C467.603 511.922 473.035 511.655 478.466 511.378C479.529 511.324 480.592 511.27 481.687 511.215C490.076 510.761 498.364 509.957 506.669 508.67C507.709 508.512 508.749 508.354 509.821 508.191C514.504 507.403 518.58 506.474 522.669 504.003C522.669 502.683 522.669 501.363 522.669 500.003C521.669 499.55 520.669 499.096 519.638 498.628C510.757 494.423 503.505 489.86 496.211 483.258C493.561 481.074 493.561 481.074 490.81 481.462C487.071 483.071 483.41 484.799 479.753 486.587C455.309 497.875 430.31 494.317 405.598 485.307C398.667 482.645 391.809 479.828 384.996 476.877C382.667 475.847 382.667 475.847 380.002 476.003Z" fill="#EF3636"/>
<path d="M391.077 162.508C394.539 165.177 397.947 167.904 401.336 170.666C402.071 171.257 402.807 171.847 403.565 172.456C409.179 177.019 409.179 177.019 410.669 179.999C411.44 189.717 411.44 189.717 408.502 193.333C404.399 195.061 401.774 195.138 397.336 194.666C393.711 192.171 393.711 192.171 390.002 188.749C367.702 169.032 340.079 154.838 309.762 155.629C306.066 155.938 302.812 156.434 299.252 157.416C294.315 158.762 291.521 158.912 286.668 157.333C283.305 154.306 282.739 152.483 282.085 147.999C282.822 142.945 284.042 141.823 288.002 138.666C323.779 127.141 362.172 140.716 391.077 162.508Z" fill="#EF3636"/>
<path d="M147.334 336.333C153.821 342.834 156.203 347.951 156.584 357.167C156.344 365.6 154.617 371.871 148.72 378.037C140.726 385.036 134.684 385.943 124.261 385.745C116.229 384.969 111.719 381.391 106.251 375.583C101.145 369.14 99.6858 362.983 100.001 354.833C101.107 346.394 105.026 339.497 111.657 334.114C122.91 327.163 137.128 327.822 147.334 336.333ZM122.251 351.5C119.607 354.574 119.607 354.574 120.001 358.75C121.059 362.704 121.059 362.704 123.667 365.25C126.629 366.91 126.629 366.91 130.084 366.667C133.563 365.527 133.563 365.527 135.918 362.333C137.704 358.733 137.704 358.733 136.501 355.083C134.755 351.643 134.755 351.643 130.667 349.333C125.433 348.822 125.433 348.822 122.251 351.5Z" fill="#EF3636"/>
<path d="M409.336 133.584C426.593 141.258 438.131 151.66 445.336 169.334C447.403 175.404 448.997 181.605 448.003 188C445.253 191.917 445.253 191.917 441.336 194.667C436.395 194.752 433.446 194.528 429.586 191.334C428.068 188.139 427.58 185.785 427.002 182.334C425.486 174.738 421.332 170.695 416.002 165.334C415.234 164.409 414.466 163.484 413.674 162.532C407.114 154.998 400.135 152.318 390.768 149.604C386.371 147.884 384.819 146.818 382.669 142.667C382.755 137.773 383.033 134.625 386.002 130.667C393.918 127.501 401.811 130.618 409.336 133.584Z" fill="#EF3636"/>
<path d="M133.334 113.333C136.437 115.284 138.685 117.415 141.334 120C144.303 118.669 146.351 117.725 148.417 115.167C150.667 113.333 150.667 113.333 155.251 112.75C160.001 113.333 160.001 113.333 163.251 115.5C166.016 119.703 166.226 121.714 165.334 126.667C163.35 129.687 161.179 132.029 158.667 134.667C160.049 137.642 161.341 140.009 163.501 142.5C166.001 146.364 165.899 148.812 165.334 153.334C164.001 156.5 164.001 156.5 161.334 158.667C157.104 159.281 154.686 159.613 150.667 158.667C146.667 155.334 146.667 155.334 144.001 152C140.021 153.778 140.021 153.778 137.001 156.834C133.621 159.489 130.694 159.227 126.495 159.042C124.001 158.667 124.001 158.667 121.417 157.167C119.256 153.353 118.582 151.111 118.667 146.667C120.967 143.175 123.686 140.254 126.667 137.333C125.062 133.891 123.702 131.676 121.084 128.833C118.667 125.333 118.667 125.333 118.751 121.167C121.375 113.118 124.985 112.201 133.334 113.333Z" fill="#EF3636"/>
<path d="M342.668 357.336C346.449 360.018 346.449 360.018 349.835 363.586C350.973 364.746 352.11 365.907 353.283 367.102C356.069 370.759 357.092 372.785 357.335 377.336C355.813 380.381 354.415 382.923 352.001 385.336C347.185 386.123 343.962 386.197 339.819 383.44C328.426 373.585 328.426 373.585 327.418 366.67C328.001 362.67 328.001 362.67 330.085 359.503C334.584 356.503 337.333 356.765 342.668 357.336Z" fill="#EF3636"/>
<path d="M161.334 440.001C163.834 441.501 163.834 441.501 165.334 444.001C166.001 449.243 166.133 452.135 163.167 456.585C159.07 459.28 156.824 459.371 152 458.668C148.834 457.335 148.834 457.335 146.667 454.668C145.987 451.002 146.016 447.67 146.667 444.001C150.766 438.225 154.774 438.395 161.334 440.001Z" fill="#EF3636"/>
</svg>
