<svg width="683" height="683" viewBox="0 0 683 683" fill="none" xmlns="http://www.w3.org/2000/svg">
<g clip-path="url(#clip0_941_6940)">
<path d="M329.371 126.101C333.868 128.258 336.408 128.596 341.335 128.002C344.906 126.691 344.906 126.691 348.335 124.836C364.424 117.171 380.699 116.863 397.747 121.664C398.931 121.995 400.115 122.327 401.335 122.669C402.423 123.011 403.511 123.353 404.632 123.705C409.354 124.121 411.892 122.444 416.002 120.169C428.23 113.462 439.463 113.097 452.835 116.836C465.883 121.216 476.152 129.653 483.054 141.659C486.134 148.416 486.95 154.343 487.252 161.752C487.389 168.88 487.389 168.88 491.419 174.586C493.028 175.947 493.028 175.947 494.669 177.336C495.502 182.613 495.482 185.347 492.669 189.919C488.968 192.233 486.036 193.073 481.648 192.883C475.443 191.049 470.842 186.112 466.669 181.336C465.348 177.372 465.181 174.081 465.084 169.939C464.738 157.907 462.844 150.844 454.169 142.169C446.785 137.598 439.894 136.718 431.424 137.752C426.385 139.102 422.678 141.718 418.549 144.836C413.427 148.522 408.794 148.489 402.668 148.002C399.215 146.817 395.909 145.452 392.575 143.966C377.926 138.102 365.972 142.597 352.002 148.002C341.963 151.684 332.71 152.215 322.757 147.992C319.563 146.459 316.407 144.861 313.251 143.252C301.638 137.375 291.311 135.523 278.668 138.836C267.151 142.68 257.876 149.271 252.001 160.002C249.899 164.755 247.963 169.572 246.164 174.447C242.092 185.17 236.175 191.118 226.251 196.503C210.914 205.343 201.995 215.466 196.251 232.56C192.147 248.663 195.188 263.971 203.235 278.316C206.285 282.705 209.803 286.663 213.334 290.67C213.38 289.893 213.426 289.116 213.473 288.316C214.92 265.49 217.682 236.285 234.485 218.742C241.473 213.506 248.791 212.48 257.334 213.336C264.243 215.007 269.632 218.137 275.147 222.555C280.27 225.946 286.042 225.825 292.001 225.336C301.66 222.437 307.321 218.122 312.184 209.232C314.159 202.545 313.336 195.67 312.996 188.76C312.787 180.617 314 174.777 318.668 168.002C321.09 165.549 321.09 165.549 323.418 164.086C324.19 163.579 324.962 163.072 325.757 162.549C339.495 155.122 363.09 160.037 377.335 164.002C403.257 172.044 429.209 188.473 443.825 211.794C446.523 216.931 447.439 221.205 445.882 226.857C444.575 230.473 443.054 233.899 441.335 237.336C440.482 243.538 440.416 247.943 443.919 253.253C448.466 256.315 451.836 256.946 457.127 257.899C461.762 259.141 463.901 261.53 466.669 265.336C468.583 272.921 468.151 280.737 468.085 288.503C468.079 289.866 468.073 291.229 468.067 292.633C468.052 295.979 468.03 299.324 468.002 302.67C484.796 291.906 496.178 278.834 500.847 258.88C501.717 253.757 501.667 248.685 501.586 243.503C501.581 242.391 501.576 241.278 501.571 240.132C501.514 234.282 501.183 228.634 500.336 222.836C499.819 218.426 499.959 217.431 501.919 213.169C506.016 210.171 508.474 209.681 513.471 210.034C516.002 210.669 516.002 210.669 519.169 213.336C527.281 228.311 526.142 251.199 522.586 267.42C518.358 280.993 511.58 293.168 502.268 303.889C500.137 306.504 498.704 308.934 497.336 312.003C498.326 312.883 499.316 313.763 500.336 314.67C508.026 322.338 510.837 331.98 511.086 342.587C510.885 358.884 505.568 371.911 494.669 384.004C485.058 392.944 474.152 397.749 461.335 400.004C461.124 401.246 460.913 402.489 460.695 403.769C455.854 430.22 444.522 454.014 424.002 472.004C422.536 472.896 422.536 472.896 421.04 473.806C416 476.993 412.572 479.326 410.902 485.218C410.524 489.714 410.475 494.077 410.585 498.587C410.576 500.135 410.566 501.683 410.557 503.278C410.541 507.079 410.58 510.871 410.668 514.671C411.969 514.665 413.27 514.659 414.61 514.653C426.928 514.599 439.245 514.559 451.562 514.533C457.894 514.519 464.224 514.5 470.555 514.47C476.676 514.44 482.797 514.425 488.918 514.418C491.242 514.413 493.566 514.403 495.89 514.389C523.237 514.225 548.221 518.084 569.003 537.754C587.684 557.91 592.423 580.626 592.451 607.281C592.459 609.249 592.468 611.216 592.478 613.184C592.493 617.282 592.498 621.38 592.497 625.478C592.497 630.721 592.533 635.963 592.579 641.205C592.609 645.258 592.614 649.31 592.613 653.363C592.616 655.297 592.627 657.23 592.648 659.163C592.674 661.862 592.663 664.561 592.65 667.259C592.654 668.791 592.658 670.323 592.662 671.902C591.82 677.14 590.73 679.23 586.669 682.672C582.57 683.329 579.21 683.558 575.112 683.492C573.947 683.499 572.782 683.507 571.582 683.514C567.734 683.53 563.887 683.498 560.039 683.463C557.366 683.461 554.693 683.461 552.019 683.463C546.418 683.461 540.818 683.436 535.217 683.394C528.031 683.341 520.846 683.336 513.659 683.346C508.14 683.35 502.622 683.334 497.103 683.311C494.452 683.301 491.802 683.297 489.152 683.298C485.452 683.296 481.754 683.268 478.054 683.232C476.405 683.237 476.405 683.237 474.723 683.243C467.234 683.131 467.234 683.131 464.389 680.818C462.128 677.997 462.133 676.253 462.169 672.672C462.158 671.64 462.148 670.609 462.137 669.547C462.669 666.672 462.669 666.672 464.059 664.312C468.118 661.76 472.29 662.253 476.919 662.422C477.855 662.44 478.791 662.458 479.755 662.476C482.06 662.523 484.365 662.595 486.669 662.672C486.641 661.656 486.613 660.641 486.584 659.595C486.473 654.982 486.404 650.369 486.336 645.755C486.291 644.157 486.246 642.56 486.2 640.914C486.183 639.371 486.166 637.828 486.148 636.239C486.12 634.822 486.092 633.404 486.063 631.944C486.816 627.045 488.578 624.852 492.002 621.338C494.669 620.453 494.669 620.453 497.336 620.505C498.216 620.488 499.096 620.47 500.002 620.453C504.165 621.835 505.604 624.414 508.002 628.005C508.608 631.944 508.608 631.944 508.523 636.239C508.51 637.63 508.496 639.021 508.483 640.454C508.434 642.203 508.386 643.953 508.336 645.755C508.226 651.337 508.116 656.92 508.002 662.672C528.682 662.672 549.362 662.672 570.669 662.672C570.57 652.52 570.459 642.37 570.319 632.219C570.275 628.772 570.238 625.324 570.207 621.876C570.162 616.898 570.092 611.92 570.018 606.942C570.005 604.66 570.005 604.66 569.992 602.332C569.655 583.572 565.088 567.202 552.174 553.228C535.3 538.026 515.241 536.752 493.713 536.831C490.057 536.843 486.402 536.829 482.746 536.809C472.366 536.756 461.986 536.754 451.606 536.757C445.222 536.757 438.84 536.731 432.457 536.691C428.868 536.676 425.28 536.692 421.691 536.709C419.483 536.697 417.275 536.684 415.068 536.669C414.081 536.682 413.095 536.695 412.078 536.708C404.696 536.607 400.61 534.746 394.668 530.671C390.541 525.167 389.272 519.957 388.913 513.192C388.829 511.683 388.829 511.683 388.744 510.145C388.691 509.108 388.639 508.072 388.585 507.004C388.527 505.947 388.47 504.89 388.411 503.801C388.27 501.202 388.135 498.603 388.002 496.004C387.16 496.423 386.317 496.843 385.45 497.275C360.582 509.171 336.455 512.222 310.152 503.176C304.73 501.107 299.698 498.894 294.668 496.004C294.593 498.296 294.593 498.296 294.517 500.634C294.429 502.674 294.341 504.714 294.251 506.754C294.221 507.757 294.191 508.76 294.16 509.793C293.74 518.609 291.932 525.017 286.001 531.838C279.119 537.688 270.757 536.394 262.139 536.471C260.327 536.493 258.515 536.53 256.704 536.58C254.083 536.654 251.461 536.678 248.84 536.702C247.273 536.729 245.706 536.755 244.092 536.782C240.001 536.004 240.001 536.004 236.777 532.929C234.668 529.338 234.668 529.338 234.751 524.504C235.945 520.206 236.469 518.547 240.001 516.004C243.341 514.334 245.612 514.519 249.345 514.541C250.66 514.545 251.974 514.549 253.329 514.554C254.706 514.565 256.083 514.576 257.501 514.588C259.582 514.597 259.582 514.597 261.704 514.606C265.137 514.621 268.569 514.643 272.001 514.671C274.047 494.324 274.047 494.324 267.095 476.28C262.868 472.553 258.092 469.669 253.334 466.671C234.093 448.895 225.264 425.182 221.334 400.004C220.415 399.792 219.495 399.581 218.548 399.363C200.799 394.956 188.923 387.284 179.391 371.628C172.02 358.641 169.334 344.193 172.959 329.436C177.545 317.249 184.526 310.986 196.001 305.336C195.42 304.721 194.839 304.106 194.24 303.472C178.514 286.248 171.368 266.869 171.636 243.55C173.122 223.659 180.814 202.814 196.001 189.336C202.878 184.094 209.815 178.959 217.694 175.325C221.701 173.135 222.604 172.102 224.168 167.919C224.799 166.328 224.799 166.328 225.444 164.706C226.254 162.476 227.056 160.243 227.85 158.008C233.648 142.326 244.959 129.527 259.751 121.586C283.465 110.737 307.253 112.595 329.371 126.101ZM334.668 184.003C334.364 186.521 334.364 186.521 334.548 189.383C334.575 190.463 334.602 191.543 334.629 192.656C334.709 194.906 334.796 197.157 334.889 199.406C335.219 213.86 330.329 223.872 320.543 234.258C310.495 243.714 297.403 247.13 283.918 246.951C273.428 246.198 265.676 242.611 257.475 236.149C254.692 234.416 254.692 234.416 251.246 234.591C245.819 236.952 244.907 241.557 242.818 246.807C233.526 271.067 235.435 295.475 237.168 320.92C237.272 322.505 237.376 324.09 237.484 325.723C237.596 327.196 237.708 328.668 237.824 330.186C237.922 331.502 238.019 332.818 238.12 334.174C238.397 337.578 238.397 337.578 241.334 340.003C249.606 331.54 254.301 321.877 257.022 310.342C258.668 306.67 258.668 306.67 262.09 304.795C267.785 303.81 272.857 304.155 278.585 304.67C305.939 306.55 331.657 299.673 352.868 281.663C373.107 263.637 385.253 238.904 386.835 211.815C387.052 204.053 385.765 196.877 384.002 189.336C380.837 188.245 377.671 187.163 374.502 186.086C373.615 185.779 372.728 185.472 371.814 185.156C363.272 182.267 355.389 181.134 346.335 181.086C343.891 181.058 343.891 181.058 341.397 181.029C337.188 180.903 337.188 180.903 334.668 184.003ZM408.002 205.336C407.909 206.134 407.815 206.932 407.719 207.754C404.375 235.745 404.375 235.745 399.564 248.591C398.5 252.643 398.674 254.706 400.002 258.67C405.466 267.705 412.303 275.497 420.002 282.67C424.307 286.78 425.299 288.331 425.523 294.576C425.544 295.629 425.565 296.682 425.586 297.767C425.996 314.688 429.208 327.594 441.335 340.003C444.784 336.555 444.497 334.809 444.846 329.998C444.958 328.496 445.07 326.995 445.185 325.448C445.29 323.843 445.394 322.239 445.502 320.587C445.672 318.156 445.672 318.156 445.845 315.676C446.659 303.322 446.983 291.044 446.669 278.67C445.606 278.216 444.544 277.762 443.45 277.295C432.602 272.333 426.426 267.636 421.163 256.946C417.437 245.364 419.375 232.324 424.002 221.336C422.091 219.165 420.173 216.999 418.252 214.836C417.185 213.629 416.117 212.423 415.017 211.18C412.058 207.827 412.058 207.827 408.002 205.336ZM385.335 276.003C383.806 277.925 382.313 279.875 380.835 281.836C363.277 303.878 336.434 320.726 308.001 324.003C296.907 324.806 285.787 325.101 274.668 325.337C274.133 326.529 273.599 327.722 273.048 328.951C266.941 342.122 260.266 354.305 246.501 360.503C243.321 362.18 243.321 362.18 241.334 365.337C240.075 373.039 241.278 380.964 242.246 388.644C242.62 391.624 242.911 394.595 243.162 397.587C245.01 415.874 251.155 429.785 262.668 444.004C263.632 445.272 263.632 445.272 264.616 446.566C277.781 463.156 297.901 474.944 317.335 482.671C318.366 483.097 319.397 483.523 320.46 483.962C337.64 490.147 355.718 487.451 372.002 480.004C384.677 473.873 396.027 466.587 406.668 457.337C407.956 456.316 409.243 455.295 410.57 454.243C414.998 450.552 418.549 446.374 422.085 441.837C422.723 441.021 423.36 440.204 424.017 439.363C435.558 424.161 438.832 408.51 440.169 389.837C440.341 387.625 440.341 387.625 440.518 385.368C441.37 375.361 441.37 375.361 441.335 365.337C438.465 362.424 438.465 362.424 434.585 360.17C420.513 350.608 410.835 337.301 407.023 320.43C406.668 317.337 406.668 317.337 406.648 312.659C406.753 302.628 406.753 302.628 402.819 293.706C400.745 291.708 398.604 289.776 396.398 287.925C393.456 285.438 391.481 283.095 389.335 279.92C388.015 277.981 388.015 277.981 386.668 276.003C386.228 276.003 385.788 276.003 385.335 276.003ZM196.917 330.587C192.998 335.377 192.886 340.009 192.954 345.946C193.919 354.554 197.783 363.292 204.001 369.337C209.837 373.65 214.095 375.889 221.334 377.337C219.354 351.597 219.354 351.597 217.334 325.337C206.125 325.212 206.125 325.212 196.917 330.587ZM465.335 328.003C464.764 334.6 464.195 341.198 463.626 347.795C463.433 350.04 463.239 352.286 463.044 354.531C462.765 357.754 462.488 360.978 462.21 364.201C462.123 365.208 462.035 366.215 461.945 367.253C461.496 372.288 461.496 372.288 461.335 377.337C470.619 374.799 478.138 372.008 483.257 363.462C487.841 354.582 491.105 346.124 489.336 336.003C487.291 332.067 484.901 329.305 481.335 326.67C474.855 324.737 471.383 325.367 465.335 328.003Z" fill="#EF2626"/>
<path d="M183.917 514.252C186.301 514.219 186.301 514.219 188.732 514.187C190.263 514.186 191.794 514.185 193.37 514.184C195.428 514.178 195.428 514.178 197.526 514.172C201.928 514.746 204.439 516.061 208.001 518.668C210.062 522.791 209.726 526.127 209.334 530.668C206.511 534.445 204.929 535.838 200.243 536.666C198.104 536.67 198.104 536.67 195.923 536.674C194.334 536.699 192.745 536.723 191.107 536.749C188.621 536.75 188.621 536.75 186.084 536.752C165.105 536.83 146.495 539.081 130.198 553.429C115.772 568.504 112.982 586.507 112.782 606.549C112.756 608.16 112.73 609.77 112.703 611.43C112.624 616.537 112.562 621.645 112.5 626.752C112.449 630.231 112.397 633.709 112.344 637.187C112.214 645.681 112.108 654.175 112 662.669C132.68 662.669 153.36 662.669 174.667 662.669C174.457 651.56 174.457 651.56 174.187 640.452C174.173 639.061 174.16 637.67 174.146 636.237C174.118 634.819 174.091 633.402 174.062 631.941C174.815 627.042 176.577 624.849 180.001 621.335C182.667 620.45 182.667 620.45 185.334 620.502C186.214 620.485 187.094 620.468 188.001 620.45C192.164 621.832 193.603 624.411 196.001 628.002C196.606 631.941 196.606 631.941 196.522 636.237C196.504 637.779 196.487 639.322 196.469 640.911C196.425 642.509 196.38 644.106 196.334 645.752C196.31 647.376 196.286 648.999 196.261 650.672C196.198 654.672 196.111 658.67 196.001 662.669C197.213 662.665 198.426 662.662 199.675 662.658C229.152 662.57 258.629 662.503 288.106 662.462C302.36 662.441 316.615 662.413 330.869 662.367C343.291 662.327 355.712 662.302 368.133 662.293C374.713 662.287 381.293 662.275 387.872 662.246C394.061 662.219 400.25 662.211 406.439 662.217C408.714 662.215 410.989 662.207 413.264 662.192C416.364 662.172 419.462 662.177 422.561 662.188C424.298 662.184 426.035 662.181 427.824 662.177C432.002 662.669 432.002 662.669 434.559 664.519C436.464 667.358 436.536 669.269 436.502 672.669C436.512 673.7 436.522 674.732 436.533 675.794C435.866 679.402 434.847 680.402 432.002 682.669C429.357 683.174 429.357 683.174 426.277 683.18C424.514 683.198 424.514 683.198 422.716 683.217C421.424 683.209 420.132 683.202 418.801 683.195C416.743 683.207 416.743 683.207 414.644 683.22C410.025 683.242 405.407 683.235 400.788 683.229C397.486 683.239 394.184 683.25 390.882 683.263C382.83 683.29 374.778 683.297 366.726 683.295C360.183 683.293 353.64 683.298 347.096 683.308C345.213 683.311 343.33 683.314 341.447 683.317C340.51 683.318 339.572 683.319 338.607 683.321C320.872 683.346 303.138 683.345 285.404 683.336C269.172 683.328 252.941 683.356 236.709 683.4C220.051 683.445 203.393 683.465 186.735 683.459C177.379 683.456 168.024 683.463 158.668 683.496C149.872 683.527 141.077 683.524 132.281 683.496C129.048 683.492 125.814 683.499 122.58 683.518C118.176 683.542 113.774 683.525 109.371 683.498C108.081 683.514 106.792 683.531 105.464 683.548C96.8443 683.433 96.8443 683.433 92.5402 679.537C90.2437 675.204 89.9905 672.282 89.9767 667.384C89.9599 665.664 89.9431 663.945 89.9258 662.174C89.9353 660.303 89.9463 658.431 89.9585 656.56C89.9549 654.617 89.9497 652.675 89.943 650.733C89.9352 646.656 89.9466 642.58 89.9715 638.504C90.0016 633.342 89.9846 628.181 89.9525 623.018C89.9329 618.999 89.9394 614.981 89.9531 610.961C89.9566 609.063 89.9525 607.164 89.9399 605.265C89.804 579.032 96.5589 555.87 115.115 536.585C134.736 518.633 158.154 514.18 183.917 514.252Z" fill="#EF2626"/>
<path d="M545.336 58.6657C547.151 59.7795 547.151 59.7795 549.003 60.9157C557.935 70.0961 562.07 80.5626 563.086 93.1659C562.696 106.382 557.117 116.638 547.669 125.583C537.439 134.227 527.988 135.84 514.737 135.296C504.099 134.396 495.269 129.249 488.002 121.583C486.609 119.766 485.272 117.905 484.002 115.999C483.427 115.142 482.851 114.284 482.258 113.4C476.725 103.35 476.917 89.9636 479.549 78.9991C484.076 67.7112 493.01 58.4377 504.003 53.3323C518.36 47.955 532.594 50.7991 545.336 58.6657ZM503.419 80.8325C499.266 87.1447 499.189 92.5511 500.003 99.9992C503.109 106.451 506.884 110.226 513.336 113.333C520.033 114.402 525.071 114.132 531.169 111.083C537.276 105.703 540.834 101.872 541.456 93.395C541.149 86.4142 537.974 81.5301 533.086 76.8325C522.723 68.7334 511.992 71.5997 503.419 80.8325Z" fill="#EF2626"/>
<path d="M474.555 4.52009C484.13 11.9076 488.395 22.0754 489.919 33.8327C488.65 44.348 485.371 53.6313 477.294 60.7495C467.638 67.7999 458.502 69.3089 446.669 67.9996C438.57 66.3329 432.116 62.1934 426.669 55.9995C420.31 45.8255 418.29 35.5883 420.57 23.7077C423.493 14.6691 429.945 6.9844 438.002 1.99925C449.431 -2.95927 463.953 -1.74935 474.555 4.52009ZM442.669 26.666C440.868 32.023 440.742 35.9669 443.002 41.1661C446.327 45.2027 448.547 46.562 453.752 47.2495C460.055 46.5017 462.421 44.6518 466.669 39.9994C468.518 34.8878 468.291 32.7484 466.336 27.666C464.175 23.7252 464.175 23.7252 460.002 21.3327C452.461 20.6028 447.798 20.4487 442.669 26.666Z" fill="#EF2626"/>
</g>
<defs>
<clipPath id="clip0_941_6940">
<rect width="682.67" height="682.67" fill="white"/>
</clipPath>
</defs>
</svg>
