<svg width="683" height="683" viewBox="0 0 683 683" fill="none" xmlns="http://www.w3.org/2000/svg">
<g clip-path="url(#clip0_942_6947)">
<path d="M338.668 262.667C344.965 262.347 349.756 258.93 355.002 255.75C366 249.329 377.171 245.014 389.335 241.333C390.475 240.977 391.614 240.622 392.789 240.255C424.694 232.124 457.476 243.692 484.917 259.473C500.242 268.715 514.433 279.756 528.586 290.667C563.208 319.259 563.208 319.259 604.477 333.49C610.761 332.659 614.424 331.384 618.67 326.667C624.689 317.529 625.26 308.009 624.003 297.333C622.054 288.936 618.72 282.538 611.717 277.349C607.718 275.083 605.817 274.811 601.336 276C599.564 277.498 597.846 279.062 596.17 280.667C592.422 284.22 590.159 286.032 584.92 286.167C578.885 285.144 578.885 285.144 576.003 281.333C573.639 270.921 578.411 261.063 583.503 252.25C590.843 245.489 598.508 242.252 608.503 241.916C629.14 242.837 645.26 253.398 659.238 267.974C678.866 290.997 684.315 316.01 682.67 345.334C680.611 362.64 669.903 380.392 658.67 393.334C657.68 394.654 656.69 395.974 655.67 397.334C630.394 427.042 588.468 439.699 551.003 443.584C548.227 443.761 545.449 443.894 542.669 444.001C541.73 444.037 540.79 444.073 539.822 444.111C490.439 445.738 441.71 434.834 397.335 413.334C395.913 412.649 395.913 412.649 394.462 411.95C375.583 402.732 358.464 391.181 342.668 377.334C337.971 378.655 335.006 380.749 331.502 384.001C306.17 406.711 273.31 420.395 241.335 430.667C240.251 431.019 239.167 431.371 238.051 431.734C183.657 449.062 116.208 451.963 64.1808 425.398C36.687 410.777 13.0886 388.028 2.88529 358.059C0.119184 348.903 -0.679841 340.37 -0.583153 330.834C-0.573056 329.43 -0.562958 328.026 -0.552554 326.58C-0.327115 315.926 0.942558 307.138 5.33354 297.333C5.91448 295.974 6.49542 294.614 7.09397 293.214C11.4865 283.697 17.0493 275.812 24.0003 268C24.8064 267.068 25.6125 266.137 26.443 265.177C39.1157 251.464 55.3624 242.871 74.0005 242C82.5505 242.252 89.2087 244.015 96.0007 249.333C102.381 256.668 107.039 264.962 107.084 274.833C107.106 275.964 107.129 277.095 107.152 278.26C106.667 281.333 106.667 281.333 104.949 283.688C101.771 285.98 98.7637 286.193 94.9121 286.094C90.1163 284.841 87.3252 281.465 83.8391 278.089C81.3168 275.634 81.3168 275.634 77.0839 275.25C73.2188 276.023 70.1207 276.748 66.6672 278.667C65.2502 281.118 65.2502 281.118 64.0005 284C63.5296 284.933 63.0586 285.867 62.5734 286.828C57.9308 297.025 56.6711 307.323 59.6411 318.25C62.0906 324.329 64.7701 328.784 70.6672 332C85.8475 335.86 99.2071 327.694 112.032 320.25C126.566 311.518 139.908 301.075 153.324 290.75C165.012 281.8 177.039 273.424 189.334 265.333C190.145 264.797 190.955 264.262 191.79 263.71C239.473 232.44 290.61 230.628 338.668 262.667ZM173.814 300.844C157.762 313.321 141.066 324.958 124.001 336C122.222 337.171 122.222 337.171 120.407 338.365C104.565 348.4 88.091 353.569 69.3339 352C60.9749 349.925 54.8948 346.706 49.3338 340C48.3987 339.01 47.4637 338.02 46.5004 337C38.8863 325.833 37.743 311.807 38.667 298.667C39.7117 293.239 41.125 287.972 42.6671 282.667C43.1199 280.891 43.5678 279.114 44.0004 277.333C30.8542 286.632 22.6578 302.843 19.5836 318.417C16.6457 339.326 22.7653 358.809 34.667 376C56.8114 404.958 91.0596 417.714 125.886 423.412C153.836 426.698 183.301 424.671 210.668 418.667C212.348 418.304 212.348 418.304 214.061 417.932C256.779 408.364 299.174 389.436 330.526 358.326C336.869 352.098 336.869 352.098 341.335 352C347.351 353.565 350.724 356.951 355.085 361.25C403.957 407.611 475.598 425.9 541.284 424.423C553.146 424.08 564.538 423.133 576.003 420.001C576.981 419.736 577.96 419.471 578.968 419.198C609.104 410.714 637.597 394.06 654.003 366.532C658.943 356.987 663.378 346.833 664.003 336C664.07 335.122 664.137 334.244 664.207 333.339C665.033 314.798 656.907 295.893 644.753 282.167C643.19 280.536 641.615 278.916 640.003 277.333C639.563 278.213 639.123 279.093 638.67 280C639.64 282.645 640.616 285.288 641.644 287.912C646.546 301.075 644.612 316.39 640.003 329.334C638.382 332.378 636.659 335.166 634.654 337.969C633.095 339.97 633.095 339.97 633.337 342.667C632.649 342.997 631.962 343.327 631.253 343.667C627.758 345.46 624.409 347.438 621.045 349.464C610.931 354.588 597.718 352.872 587.253 349.834C557.283 339.462 531.979 318.069 506.951 299.182C475.441 275.513 442.469 253.501 401.253 259.036C382.181 262.436 365.005 272.673 349.158 283.375C344.54 285.741 342.462 286.21 337.335 285.333C333.258 283.35 329.533 280.91 325.752 278.417C323.602 277.057 321.45 275.703 319.293 274.354C318.262 273.709 317.231 273.063 316.168 272.398C265.017 241.134 215.683 268.231 173.814 300.844Z" fill="#EF2626"/>
<path d="M257.162 278.508C278.992 278.053 302.031 281.134 321.334 292.002C323.42 296.174 323.143 299.41 322.668 304.002C319.918 307.336 319.918 307.336 316.001 309.336C309.88 309.336 304.842 307.411 299.084 305.419C273.626 296.765 245.021 297.143 220.458 308.577C213.903 311.822 208.006 315.529 202.167 319.919C198.071 322.915 195.201 324.659 190.084 324.919C185.334 324.003 185.334 324.003 182.667 321.836C180.91 317.662 180.6 315.162 181.334 310.669C183.509 307.842 185.236 306.158 188.001 304.002C189.341 302.933 189.341 302.933 190.709 301.841C209.985 287.416 233.19 279.519 257.162 278.508Z" fill="#EF2626"/>
<path d="M493.815 304.869C498.169 308.74 498.581 309.454 499.002 315.25C498.669 320 498.669 320 497.336 322.583C492.656 325.069 489.008 325.371 484.002 324C480.286 321.741 476.826 319.329 473.329 316.755C452.59 301.545 426.135 297.165 400.96 300.708C392.767 302.063 385.005 303.953 377.252 307C371.444 309.27 367.454 310.039 361.335 308C358.668 305.833 358.668 305.833 357.335 302.666C357.252 298 357.252 298 358.668 293.333C364.462 288.702 370.234 286.466 377.252 284.499C378.241 284.217 379.231 283.935 380.25 283.644C419.483 272.901 461.841 278.931 493.815 304.869Z" fill="#EF2626"/>
</g>
<defs>
<clipPath id="clip0_942_6947">
<rect width="682.67" height="682.67" fill="white"/>
</clipPath>
</defs>
</svg>
