<svg width="682" height="682" viewBox="0 0 682 682" fill="none" xmlns="http://www.w3.org/2000/svg">
<g clip-path="url(#clip0_965_6873)">
<path d="M196.12 -0.365358C197.578 -0.375821 197.578 -0.375821 199.066 -0.386495C202.326 -0.406484 205.586 -0.407415 208.845 -0.408305C211.182 -0.418457 213.519 -0.429683 215.856 -0.441902C222.209 -0.471157 228.561 -0.482858 234.914 -0.489624C238.887 -0.494478 242.859 -0.50279 246.832 -0.512271C260.704 -0.544915 274.575 -0.562285 288.447 -0.567004C301.355 -0.571838 314.263 -0.611598 327.172 -0.667445C338.267 -0.713758 349.362 -0.73424 360.458 -0.735168C367.078 -0.736221 373.699 -0.747752 380.319 -0.785782C386.556 -0.820802 392.791 -0.823511 399.028 -0.802225C401.307 -0.799819 403.586 -0.808619 405.864 -0.829956C423.342 -0.983526 437.701 1.76936 451.512 13.2993C462.292 23.9757 467.546 35.7291 468.875 50.617C470.132 50.7664 470.132 50.7664 471.414 50.9188C483.707 52.8071 491.469 58.6395 499.179 68.2352C508.562 81.5481 506.141 97.3919 504.554 112.676C504.371 114.533 504.19 116.39 504.01 118.248C503.537 123.107 503.05 127.964 502.558 132.821C501.774 140.587 501.005 148.354 500.247 156.122C499.982 158.807 499.707 161.492 499.432 164.176C496.77 180.979 496.77 180.979 500.323 196.823C501.264 197.67 502.205 198.516 503.175 199.388C512.859 208.952 515.806 218.323 515.996 231.773C516.046 246.62 511.679 258.294 501.239 269.107C492.795 276.359 483.7 280.35 472.736 281.959C470.2 282.141 470.2 282.141 468.875 283.722C468.481 286.24 468.095 288.759 467.744 291.282C463.199 323.321 447.745 351.378 423.586 372.969C422.267 373.848 420.948 374.727 419.59 375.633C418.912 378.85 418.912 378.85 418.908 382.595C418.861 383.968 418.814 385.342 418.765 386.757C418.735 388.196 418.705 389.635 418.674 391.117C418.628 392.567 418.583 394.016 418.536 395.509C418.426 399.096 418.334 402.682 418.258 406.269C419.547 406.241 420.837 406.214 422.166 406.185C426.977 406.088 431.788 406.027 436.599 405.977C438.677 405.95 440.754 405.914 442.831 405.867C445.827 405.802 448.822 405.772 451.819 405.749C453.199 405.708 453.199 405.708 454.607 405.666C461.308 405.663 465.048 407.404 470.207 411.597C471.862 414.355 471.862 414.355 472.705 417.092C473.003 418.002 473.302 418.912 473.61 419.85C474.203 422.254 474.203 422.254 474.203 424.918C475.416 425.141 475.416 425.142 476.654 425.37C484.817 426.931 492.737 428.927 500.698 431.302C501.906 431.661 503.114 432.019 504.359 432.388C506.899 433.145 509.438 433.905 511.975 434.669C515.796 435.814 519.624 436.934 523.452 438.053C546.315 444.847 568.827 452.257 581.281 474.229C586.901 484.868 593.021 496.498 591.422 508.836C588.164 513.34 586.236 515.189 580.766 516.328C576.718 515.485 574.414 514.52 571.634 511.422C568.818 506.645 567.725 501.204 566.222 495.9C562.671 485.104 555.491 476.541 546.133 470.207C532.246 463.713 517.127 459.969 502.425 455.804C500.066 455.129 497.706 454.454 495.346 453.778C489.633 452.142 483.917 450.515 478.199 448.894C478.86 458.241 479.61 467.509 480.946 476.784C484.14 501.183 484.14 501.183 480.28 511.084C476.853 514.177 474.957 515.012 470.66 516.354C469.578 516.698 468.496 517.041 467.381 517.394C466.555 517.647 465.73 517.9 464.879 518.16C465.595 519.258 465.595 519.258 466.325 520.378C468.49 523.711 470.639 527.054 472.788 530.398C473.539 531.549 474.29 532.701 475.064 533.887C475.781 535.007 476.498 536.128 477.237 537.282C477.899 538.307 478.562 539.333 479.245 540.389C481.505 544.69 482.502 548.209 481.729 553.047C479.167 560.731 475.601 566.131 470.29 572.19C468.722 574.047 467.158 575.906 465.597 577.768C464.807 578.706 464.018 579.643 463.205 580.609C459.58 585.012 456.192 589.58 452.807 594.169C446.945 602.08 440.905 609.818 434.723 617.482C430.471 622.76 426.289 628.082 422.171 633.464C415.167 642.595 408.051 651.639 400.941 660.687C426.436 661.127 451.931 661.566 478.199 662.019C477.988 639.025 477.988 639.025 477.719 616.032C477.704 613.15 477.69 610.267 477.679 607.385C477.652 605.888 477.624 604.391 477.596 602.849C477.595 600.7 477.595 600.7 477.594 598.507C477.582 597.265 477.571 596.023 477.558 594.743C478.394 590.412 480.152 588.835 483.527 586.094C486.191 585.339 486.191 585.339 488.855 585.344C490.174 585.3 490.174 585.3 491.519 585.256C495.986 586.66 497.121 588.723 499.512 592.754C500.26 598.023 500.131 603.243 500.032 608.556C500.027 609.911 500.021 611.266 500.016 612.662C499.988 617.709 499.914 622.756 499.845 627.803C499.735 639.094 499.625 650.386 499.512 662.019C528.084 661.58 556.656 661.14 586.094 660.687C585.48 627.311 584.239 594.503 580.006 561.378C578.512 549.398 578.512 549.398 579.434 543.469C582.857 539.24 584.824 538.322 590.173 537.558C594.67 538.227 596.197 538.966 599.414 542.137C608.538 569.772 607.537 604.311 608.461 633.266C608.534 635.541 608.614 637.816 608.7 640.091C609.663 666.625 609.663 666.625 602.406 675.548C601.611 676.138 600.816 676.729 599.997 677.338C599.198 677.956 598.4 678.574 597.577 679.211C593.077 682.247 590 682.17 584.585 682.179C582.831 682.185 581.076 682.19 579.269 682.197C577.303 682.196 575.338 682.196 573.372 682.196C571.299 682.2 569.225 682.205 567.152 682.211C561.432 682.224 555.713 682.229 549.994 682.233C543.834 682.238 537.674 682.25 531.514 682.262C516.627 682.288 501.74 682.302 486.853 682.314C479.847 682.32 472.842 682.327 465.837 682.334C442.558 682.356 419.28 682.376 396.001 682.385C389.958 682.388 383.914 682.39 377.87 682.393C375.617 682.394 375.617 682.394 373.318 682.395C348.973 682.406 324.628 682.44 300.283 682.483C275.305 682.527 250.327 682.551 225.35 682.555C211.319 682.558 197.288 682.57 183.257 682.604C171.31 682.633 159.363 682.644 147.416 682.631C141.318 682.624 135.22 682.627 129.122 682.653C123.541 682.676 117.961 682.675 112.38 682.654C110.36 682.651 108.339 682.657 106.319 682.673C103.573 682.693 100.83 682.68 98.0855 682.659C96.5604 682.66 95.0354 682.662 93.4641 682.663C86.9115 681.633 82.8014 678.262 78.2568 673.591C73.4444 666.201 72.8787 658.565 73.1524 649.958C73.1746 648.938 73.1969 647.917 73.2198 646.866C73.2994 643.536 73.4033 640.207 73.5114 636.877C73.545 635.73 73.5785 634.583 73.613 633.4C74.8347 592.384 78.8355 551.659 87.914 511.583C88.2296 510.187 88.5453 508.791 88.8704 507.353C93.8909 486.145 101.38 468.38 118.551 454.222C132.7 445.493 148.318 441.113 164.173 436.573C166.542 435.881 168.912 435.187 171.28 434.492C175.753 433.181 180.229 431.881 184.707 430.592C190.263 428.988 195.787 427.295 201.291 425.523C203.801 424.918 203.801 424.918 209.129 424.918C209.156 423.324 209.184 421.731 209.212 420.089C210.04 414.339 211.797 411.507 216.297 407.879C224.389 404.145 234.277 405.485 243.012 405.77C245.152 405.81 247.291 405.846 249.431 405.879C254.647 405.967 259.86 406.104 265.074 406.269C266.747 388.282 266.747 388.282 260.516 372.271C257.853 369.762 254.976 367.603 252.024 365.445C230.647 349.75 218.72 319.795 214.623 294.379C214.087 290.83 213.594 287.281 213.125 283.722C211.722 283.331 210.319 282.94 208.874 282.536C191.382 277.441 179.503 270.113 170.157 254.236C164.69 242.977 164.666 229.138 167.43 217.074C170.271 209.35 175.098 200.437 181.987 195.632C184.899 191.681 183.759 187.67 183.139 183.06C183.021 182.055 182.903 181.05 182.782 180.015C182.4 176.785 181.987 173.56 181.572 170.333C181.318 168.233 181.066 166.133 180.815 164.032C179.808 155.648 178.771 147.268 177.656 138.897C177.399 136.891 177.142 134.886 176.884 132.88C176.758 131.976 176.632 131.071 176.502 130.139C175.677 123.595 175.089 116.493 178.742 110.725C182.278 108.53 184.997 108.06 189.148 107.894C192.811 109.31 192.811 109.31 195.809 111.89C198.691 118.71 199.382 125.67 200.19 132.958C200.334 134.203 200.478 135.447 200.626 136.729C200.928 139.349 201.225 141.97 201.519 144.591C201.968 148.597 202.431 152.601 202.895 156.605C203.188 159.157 203.479 161.709 203.77 164.261C203.907 165.455 204.044 166.648 204.186 167.878C204.78 173.218 205.315 178.437 205.133 183.82C207.77 182.941 210.408 182.062 213.125 181.156C213.352 179.564 213.578 177.973 213.812 176.333C217.577 151.129 217.577 151.129 225.113 141.944C231.466 138.636 238.047 138.176 245.094 137.199C264.736 134.246 283.546 130.254 302.371 123.879C303.285 123.574 304.198 123.268 305.139 122.954C333.936 113.189 361.356 98.9767 385.307 80.1988C390.32 76.7136 395.027 76.7729 400.941 77.2576C423.817 84.7089 443.47 109.66 454.186 130.097C462.305 146.343 466.603 163.157 468.875 181.156C470.633 181.596 472.391 182.035 474.203 182.488C476.346 167.571 477.944 152.63 479.345 137.626C479.697 133.874 480.064 130.122 480.431 126.371C484.508 100.511 484.508 100.511 476.867 77.2576C472.646 73.7816 468.813 72.9269 463.547 72.0128C457.795 70.9772 454.338 69.6374 450.226 65.2694C447.662 61.0324 447.105 57.3359 446.563 52.4486C445.05 42.9122 441.745 34.9664 434.435 28.4252C422.088 19.972 407.291 20.9208 392.953 20.9465C390.81 20.9407 388.667 20.9338 386.524 20.9258C380.733 20.9081 374.943 20.9072 369.153 20.9106C364.313 20.912 359.473 20.9055 354.633 20.8991C343.219 20.8844 331.804 20.8838 320.39 20.8918C308.619 20.8999 296.847 20.8834 285.076 20.8551C274.957 20.8317 264.838 20.8237 254.719 20.828C248.68 20.8304 242.642 20.8269 236.603 20.8084C230.931 20.7917 225.259 20.7942 219.586 20.8116C217.506 20.8148 215.425 20.8111 213.344 20.8001C210.503 20.7862 207.663 20.7969 204.822 20.8138C203.233 20.8136 201.644 20.8134 200.006 20.8132C195.379 21.3634 192.859 22.5369 189.148 25.3084C187.166 29.593 187.959 33.6292 188.56 38.2177C188.745 39.6969 188.93 41.1762 189.12 42.7003C189.322 44.2413 189.523 45.7824 189.731 47.3702C193.572 76.7697 193.572 76.7697 189.814 83.5015C184.784 86.1425 181.492 85.8791 175.828 85.2498C172.928 83.1368 171.972 81.7202 170.938 78.2729C170.757 77.1171 170.577 75.9613 170.391 74.7705C170.184 73.4659 169.976 72.1614 169.763 70.8173C169.567 69.4261 169.37 68.0348 169.168 66.6014C168.871 64.499 168.871 64.499 168.568 62.3542C167.977 57.9464 167.442 53.5349 166.92 49.1185C166.73 47.6332 166.541 46.1479 166.345 44.6177C164.904 32.446 164.059 22.0934 171.218 11.7071C178.275 3.06554 185.028 -0.325924 196.12 -0.365358ZM391.341 102.134C389.726 103.285 388.126 104.457 386.539 105.647C384.748 106.91 382.953 108.167 381.153 109.419C380.236 110.06 379.318 110.702 378.373 111.363C342.957 135.397 300.001 151.117 257.712 156.904C256.54 157.066 255.369 157.229 254.162 157.396C251.947 157.688 249.729 157.95 247.506 158.178C244.198 158.526 244.198 158.526 239.766 159.844C232.776 173.36 234.022 190.334 234.037 205.153C234.032 207.319 234.026 209.485 234.019 211.651C234.01 216.17 234.01 220.688 234.017 225.206C234.025 230.935 234.002 236.663 233.971 242.391C233.951 246.86 233.95 251.329 233.955 255.797C233.954 257.906 233.947 260.015 233.934 262.124C233.742 296.011 242.411 325.693 266.484 350.517C286.515 370.374 312.894 381.3 341 381.627C370.731 381.337 397.4 368.687 418.258 347.66C437.668 327.312 447.626 300.528 447.777 272.499C447.784 271.558 447.79 270.616 447.797 269.646C447.816 266.556 447.826 263.466 447.833 260.376C447.837 259.308 447.84 258.241 447.844 257.142C447.864 251.486 447.877 245.831 447.882 240.175C447.89 234.394 447.922 228.613 447.96 222.832C447.985 218.335 447.991 213.838 447.993 209.341C447.997 207.213 448.008 205.086 448.026 202.958C448.28 170.023 440.344 140.948 417.373 116.37C406.093 103.147 406.093 103.147 391.341 102.134ZM468.875 203.801C468.875 222.263 468.875 240.725 468.875 259.746C479.074 258.289 484.343 256.097 490.713 248.085C495.177 240.529 495.484 232.32 494.184 223.781C491.176 215.494 484.614 209.181 476.867 205.133C472.911 204.473 472.911 204.473 468.875 203.801ZM197.125 210.247C189.585 218.735 187.16 224.268 187.411 235.717C188.271 244.301 191.611 249.57 198.223 255.001C203.478 258.977 205.73 258.689 213.125 259.746C213.125 241.284 213.125 222.822 213.125 203.801C206.96 203.801 201.596 206.158 197.125 210.247ZM286.387 390.285C286.387 393.362 286.387 396.439 286.387 399.609C297.535 404.85 308.875 409.465 320.353 413.929C322.05 414.592 323.746 415.257 325.442 415.921C335.34 420.779 335.34 420.779 345.537 421.151C346.897 420.526 348.257 419.901 349.658 419.257C359.716 414.74 369.911 410.578 380.128 406.436C381.786 405.763 383.443 405.089 385.1 404.416C389.048 402.812 392.996 401.21 396.945 399.609C396.945 396.532 396.945 393.455 396.945 390.285C396.2 390.512 395.455 390.738 394.687 390.972C391.003 392.085 387.314 393.185 383.625 394.281C382.071 394.745 380.517 395.208 378.916 395.686C377.311 396.156 375.705 396.627 374.051 397.112C371.797 397.776 371.797 397.776 369.498 398.454C341.35 405.645 313.086 399.866 286.387 390.285ZM289.051 423.586C289.387 426.206 289.723 428.827 290.061 431.447C290.306 433.58 290.449 435.724 290.544 437.869C291.105 442.015 291.869 444.155 294.379 447.562C301.395 452.437 309.868 455.826 318.355 456.887C323.941 455.661 327.088 453.597 330.344 448.894C331.35 444.554 331.35 444.554 330.344 440.902C321.176 436.094 311.908 432.089 302.205 428.498C300.93 428.019 299.656 427.541 298.344 427.049C295.248 425.888 292.151 424.734 289.051 423.586ZM384.124 427.035C383.243 427.387 382.361 427.739 381.452 428.101C379.584 428.847 377.716 429.594 375.849 430.342C372.982 431.489 370.114 432.63 367.245 433.771C365.434 434.495 363.623 435.219 361.813 435.943C360.518 436.458 360.518 436.458 359.198 436.982C355.12 438.436 355.12 438.436 351.656 440.902C350.429 444.607 350.429 444.607 351.656 448.894C355.474 453.516 359.108 455.673 364.976 456.887C369.189 456.282 372.94 454.967 376.882 453.39C377.875 453.005 378.868 452.62 379.891 452.223C385.167 449.821 388.051 447.823 390.191 442.328C390.714 440.534 391.193 438.726 391.617 436.906C391.938 435.601 392.259 434.296 392.59 432.952C392.791 431.839 392.992 430.726 393.199 429.58C393.516 427.87 393.516 427.87 393.839 426.125C394.058 424.868 394.058 424.868 394.281 423.586C390.921 423.586 387.252 425.784 384.124 427.035ZM415.594 427.582C414.275 432.857 412.956 438.132 411.598 443.566C413.054 444.335 414.51 445.105 416.01 445.897C421.587 449.086 424.2 452.068 426.25 458.219C426.411 461.86 426.501 465.466 426.52 469.109C426.528 470.178 426.536 471.248 426.544 472.349C426.556 474.612 426.565 476.875 426.57 479.138C426.583 482.585 426.624 486.031 426.666 489.477C426.675 491.679 426.682 493.881 426.687 496.083C426.703 497.107 426.72 498.131 426.737 499.186C426.71 505.602 425.751 509.918 422.254 515.496C416.698 520.635 412.602 522.345 405.104 522.323C403.981 522.326 402.858 522.329 401.701 522.333C398.221 522.153 395.022 521.54 391.617 520.824C386.848 535.593 382.947 550.555 379.067 565.577C378.388 568.198 377.709 570.818 377.029 573.438C375.616 578.893 374.206 584.348 372.798 589.804C370.992 596.798 369.177 603.789 367.36 610.779C365.959 616.173 364.564 621.568 363.171 626.964C362.504 629.544 361.834 632.123 361.163 634.702C360.229 638.293 359.304 641.885 358.38 645.479C358.102 646.541 357.824 647.603 357.537 648.697C356.355 653.328 355.652 657.207 355.652 662.019C361.722 663.132 366.923 663.388 372.969 662.019C377.794 657.818 381.021 652.763 384.459 647.433C387.793 642.459 391.568 637.825 395.28 633.131C396.884 631.073 398.487 629.015 400.088 626.955C401.292 625.408 401.292 625.408 402.521 623.831C407.212 617.805 411.899 611.777 416.586 605.749C420.499 600.715 424.416 595.685 428.342 590.662C432.223 585.694 436.086 580.714 439.942 575.726C442.282 572.712 444.644 569.714 447.006 566.717C448.496 564.796 449.986 562.874 451.475 560.951C452.177 560.072 452.879 559.193 453.601 558.287C457.153 554.082 457.153 554.082 457.982 548.914C456.643 545.515 454.854 542.885 452.724 539.915C451.893 538.724 451.062 537.533 450.206 536.306C448.456 533.828 446.694 531.358 444.919 528.897C439.825 521.545 436.205 515.348 436.906 506.172C438.501 502.226 439.634 500.299 443.239 498.06C448.84 495.79 454.91 495.942 460.883 495.515C460.004 480.846 458.104 466.363 456.137 451.808C455.822 449.449 455.507 447.089 455.193 444.729C454.431 439.013 453.661 433.297 452.891 427.582C440.583 427.582 428.275 427.582 415.594 427.582ZM229.109 428.914C228.751 430.992 228.471 433.084 228.224 435.179C228.065 436.512 227.905 437.846 227.74 439.219C227.488 441.394 227.488 441.394 227.231 443.613C227.055 445.089 226.88 446.566 226.699 448.087C226.137 452.823 225.584 457.561 225.03 462.298C224.652 465.501 224.273 468.703 223.893 471.906C222.962 479.775 222.037 487.645 221.117 495.515C222.222 495.582 223.326 495.648 224.464 495.716C225.91 495.816 227.355 495.917 228.844 496.02C230.278 496.114 231.713 496.208 233.19 496.304C238.055 496.98 240.529 498.497 243.762 502.176C246.194 507.04 246.115 511.629 245.094 516.828C242.087 522.795 238.314 528.13 234.437 533.562C233.408 535.045 232.381 536.531 231.357 538.018C228.856 541.629 226.331 545.22 223.781 548.797C225.552 552.563 227.549 555.806 230.062 559.12C230.756 560.04 231.451 560.961 232.166 561.909C233.249 563.331 233.249 563.331 234.354 564.781C235.071 565.729 235.788 566.677 236.527 567.653C237.866 569.424 239.207 571.193 240.551 572.961C241.171 573.778 241.791 574.595 242.43 575.437C243.159 576.349 243.889 577.26 244.64 578.199C246.975 581.556 246.835 583.718 246.675 587.759C246.621 589.541 246.621 589.541 246.566 591.359C246.497 592.709 246.497 592.709 246.426 594.086C240.468 596.072 235.067 596.072 229.109 594.086C228.174 592.334 227.298 590.551 226.445 588.758C224.403 585.968 222.335 583.234 220.201 580.516C219.611 579.754 219.02 578.993 218.412 578.209C215.701 574.718 212.969 571.245 210.222 567.783C209.394 566.738 208.566 565.692 207.714 564.615C206.984 563.704 206.254 562.794 205.502 561.857C201.853 556.702 201.538 550.889 202.469 544.801C204.173 540.855 206.448 537.428 208.879 533.895C210.081 532.072 211.283 530.249 212.485 528.426C213.054 527.581 213.624 526.735 214.21 525.864C216.172 522.912 217.997 519.888 219.785 516.828C217.354 516.333 217.354 516.333 214.873 515.829C209.672 514.529 206.318 512.685 202.469 508.836C198.422 496.696 202.26 481.94 203.801 469.458C204.058 467.33 204.315 465.203 204.571 463.076C205.195 457.904 205.827 452.733 206.465 447.562C192.686 450.9 179.009 454.488 165.423 458.544C163.521 459.108 161.616 459.663 159.709 460.209C145.708 464.222 133.361 468.693 123.463 479.947C122.644 480.849 121.825 481.75 120.981 482.679C114.385 492.213 111.717 502.893 109.227 514.081C108.886 515.595 108.545 517.109 108.195 518.669C99.7078 557.416 96.1062 596.876 94.7407 636.461C94.6984 637.518 94.656 638.576 94.6124 639.665C94.4975 642.657 94.4114 645.649 94.3348 648.642C94.2835 650.359 94.2322 652.075 94.1794 653.844C94.2237 657.891 94.2237 657.891 96.0871 660.254C99.6699 662.801 102.358 662.499 106.727 662.473C108.407 662.473 110.087 662.472 111.818 662.472C113.651 662.452 115.484 662.431 117.318 662.41C119.193 662.402 121.069 662.396 122.945 662.392C127.879 662.377 132.812 662.338 137.746 662.294C142.782 662.253 147.817 662.235 152.853 662.214C162.732 662.172 172.61 662.103 182.488 662.019C182.5 660.735 182.5 660.735 182.512 659.426C182.597 650.523 182.709 641.621 182.838 632.719C182.882 629.395 182.919 626.072 182.95 622.749C182.994 617.974 183.064 613.2 183.139 608.426C183.147 606.938 183.156 605.451 183.164 603.918C183.191 602.532 183.217 601.145 183.244 599.717C183.259 598.498 183.274 597.28 183.289 596.024C183.922 592.124 185.098 590.261 187.816 587.426C191.12 586.905 191.12 586.905 194.726 587.093C195.927 587.141 197.127 587.189 198.363 587.238C199.279 587.3 200.194 587.362 201.137 587.426C202.466 591.415 202.673 594.184 202.742 598.356C202.769 599.789 202.796 601.222 202.824 602.698C202.857 604.954 202.857 604.954 202.89 607.255C202.915 608.639 202.94 610.023 202.965 611.448C203.056 616.622 203.137 621.796 203.218 626.97C203.506 644.32 203.506 644.32 203.801 662.019C229.735 662.019 255.67 662.019 282.391 662.019C279.718 657.565 277.269 653.727 274.112 649.698C273.308 648.668 272.503 647.638 271.674 646.576C270.843 645.518 270.011 644.461 269.154 643.371C268.327 642.313 267.5 641.255 266.648 640.166C265.842 639.135 265.036 638.105 264.205 637.044C263.434 636.055 262.662 635.067 261.868 634.048C260.144 631.883 258.345 629.778 256.525 627.694C254.12 624.302 253.765 622.587 253.918 618.479C253.936 617.457 253.953 616.435 253.97 615.383C254.418 612.734 254.418 612.734 257.082 610.07C261.38 608.606 264.749 608.707 269.07 610.07C274.349 614.738 278.282 620.376 282.391 626.054C283.712 627.821 285.037 629.585 286.366 631.346C287.04 632.242 287.714 633.139 288.409 634.062C289.78 635.883 291.153 637.703 292.528 639.52C295.612 643.612 298.627 647.703 301.445 651.982C306.66 659.631 306.66 659.631 314.952 662.909C319.303 662.933 323.372 662.561 327.68 662.019C323.769 645.016 319.512 628.117 315.129 611.23C314.45 608.605 313.771 605.979 313.092 603.354C311.324 596.523 309.554 589.694 307.784 582.864C305.969 575.863 304.157 568.861 302.345 561.859C298.804 548.18 295.261 534.502 291.715 520.824C290.466 521.037 289.216 521.25 287.929 521.47C280.107 522.746 272.35 523.711 265.157 519.825C260.049 516.072 257.741 513.477 255.75 507.504C255.573 503.766 255.467 500.062 255.433 496.322C255.422 495.223 255.411 494.124 255.4 492.992C255.382 490.666 255.367 488.341 255.357 486.015C255.334 482.472 255.275 478.93 255.217 475.387C255.203 473.124 255.192 470.862 255.183 468.599C255.159 467.546 255.136 466.492 255.112 465.407C255.139 458.395 256.475 454.482 261.078 448.894C264.07 446.62 267.013 445.261 270.402 443.566C270.114 441.094 270.114 441.094 269.82 438.571C269.711 437.644 269.603 436.717 269.492 435.761C269.079 432.968 268.441 430.314 267.738 427.582C262.451 427.549 257.164 427.525 251.876 427.509C250.077 427.502 248.277 427.493 246.477 427.481C243.895 427.465 241.312 427.458 238.73 427.452C237.175 427.445 235.619 427.438 234.016 427.431C230.549 427.173 230.549 427.173 229.109 428.914ZM275.73 463.547C275.73 476.294 275.73 489.042 275.73 502.176C280.404 501.241 283.973 500.38 288.286 498.674C289.346 498.257 290.406 497.841 291.499 497.412C292.587 496.978 293.674 496.545 294.795 496.098C295.909 495.659 297.022 495.221 298.169 494.769C300.904 493.691 303.636 492.606 306.367 491.519C306.367 485.805 306.367 480.09 306.367 474.203C302.014 472.418 297.656 470.644 293.297 468.875C291.441 468.112 291.441 468.112 289.548 467.335C288.359 466.854 287.169 466.373 285.944 465.878C284.849 465.431 283.754 464.985 282.626 464.525C279.605 463.334 279.605 463.334 275.73 463.547ZM396.055 465.878C394.272 466.599 394.272 466.599 392.452 467.335C390.597 468.097 390.597 468.097 388.703 468.875C387.451 469.383 386.198 469.891 384.908 470.415C381.813 471.671 378.723 472.936 375.633 474.203C375.633 479.917 375.633 485.632 375.633 491.519C379.986 493.304 384.343 495.078 388.703 496.847C389.94 497.356 391.178 497.864 392.452 498.388C393.641 498.868 394.83 499.349 396.055 499.845C397.151 500.291 398.246 500.737 399.374 501.197C402.394 502.389 402.394 502.389 406.269 502.176C406.269 489.428 406.269 476.68 406.269 463.547C402.076 463.547 399.897 464.312 396.055 465.878ZM329.012 475.535C326.914 479.73 327.216 482.888 327.68 487.523C330.97 492.907 332.927 495.087 339.002 496.931C345.407 496.816 348.234 494.87 352.738 490.52C355.081 486.082 355.003 483.15 354.32 478.199C351.936 474.242 349.192 470.973 344.996 468.875C337.174 467.808 334.377 470.294 329.012 475.535ZM317.023 508.836C314.386 510.154 314.386 510.154 311.695 511.5C312.482 518.753 313.731 525.676 315.582 532.739C315.838 533.736 316.093 534.734 316.357 535.762C317.195 539.023 318.043 542.281 318.891 545.539C319.481 547.817 320.07 550.095 320.658 552.373C321.889 557.128 323.125 561.882 324.364 566.635C325.953 572.733 327.527 578.834 329.098 584.937C330.308 589.633 331.527 594.326 332.749 599.019C333.333 601.269 333.915 603.52 334.493 605.772C335.3 608.908 336.119 612.041 336.941 615.174C337.297 616.573 337.297 616.573 337.661 618C339.034 623.205 339.034 623.205 342.332 627.387C346.157 612.671 349.978 597.955 353.795 583.237C355.567 576.404 357.34 569.571 359.116 562.739C360.829 556.15 362.539 549.56 364.247 542.969C364.9 540.451 365.554 537.932 366.21 535.414C367.125 531.897 368.036 528.378 368.947 524.86C369.221 523.811 369.495 522.762 369.777 521.681C371.148 516.656 371.148 516.656 371.637 511.5C368.221 509.504 368.221 509.504 363.644 508.836C360.672 510.214 358.199 511.88 355.559 513.815C349.3 517.907 341.551 517.599 334.34 516.828C328.04 514.953 322.49 512.48 317.023 508.836Z" fill="#EF2626"/>
<path d="M324.266 307.616C325.832 308.083 327.398 308.55 329.012 309.031C340.094 311.414 351.613 309.933 362.312 306.367C366.978 305.878 371.365 305.488 375.55 307.782C377.777 311.844 378.217 315.068 378.297 319.687C373.738 326.778 369.086 328.522 361.199 330.702C345.178 333.966 323.694 334.47 309.031 326.347C305.915 323.127 305.915 323.127 303.703 319.687C303.783 315.068 304.223 311.844 306.45 307.782C312.088 304.691 318.359 306.005 324.266 307.616Z" fill="#EF2626"/>
<path d="M402.274 210.461C406.024 213.086 406.748 215.402 407.602 219.785C407.757 222.418 407.835 225.056 407.851 227.694C407.87 229.052 407.889 230.41 407.909 231.81C407.496 237.132 406.275 240.944 402.69 244.927C398.142 247.139 395.097 246.318 390.285 245.094C387.454 242.958 386.426 241.788 385.73 238.283C385.66 234.807 385.613 231.337 385.623 227.86C385.585 226.652 385.548 225.444 385.509 224.2C385.483 215.378 385.483 215.378 389.359 210.95C394.253 208.467 397.053 209.011 402.274 210.461Z" fill="#EF2626"/>
<path d="M291.715 210.459C294.546 212.595 295.574 213.764 296.271 217.27C296.341 220.746 296.387 224.216 296.377 227.692C296.415 228.9 296.453 230.108 296.492 231.353C296.518 240.175 296.518 240.175 292.641 244.603C287.747 247.086 284.947 246.542 279.727 245.092C275.976 242.466 275.253 240.151 274.399 235.768C274.243 233.135 274.166 230.497 274.149 227.859C274.13 226.501 274.111 225.143 274.092 223.743C274.504 218.421 275.726 214.609 279.311 210.626C283.858 208.413 286.903 209.234 291.715 210.459Z" fill="#EF2626"/>
</g>
<defs>
<clipPath id="clip0_965_6873">
<rect width="682" height="682" fill="white"/>
</clipPath>
</defs>
</svg>
