<svg width="682" height="682" viewBox="0 0 682 682" fill="none" xmlns="http://www.w3.org/2000/svg">
<g clip-path="url(#clip0_965_6874)">
<path d="M106.562 -0.835938C111.017 0.564836 112.122 2.65539 114.554 6.66194C115.681 12.0874 116.017 17.5406 116.391 23.0626C116.521 24.6943 116.65 26.3261 116.784 28.0073C117.13 32.4121 117.454 36.8174 117.769 41.2244C118.101 45.7966 118.457 50.3669 118.811 54.9373C119.234 60.4064 119.654 65.8756 120.061 71.3458C120.811 81.429 121.615 91.5043 122.526 101.574C122.717 103.736 122.909 105.898 123.1 108.06C123.431 111.787 123.775 115.512 124.129 119.237C127.332 156.551 123.944 193.722 121.131 230.943C120.444 240.045 119.765 249.149 119.107 258.253C118.844 261.841 118.565 265.426 118.286 269.012C116.258 291.617 116.258 291.617 121.381 313.362C121.879 314.55 122.377 315.739 122.89 316.963C128.636 327.011 136.549 335.439 144.525 343.749C146.409 345.731 148.292 347.714 150.176 349.696C151.121 350.689 152.067 351.681 153.041 352.703C157.386 357.272 161.695 361.874 166.004 366.477C166.818 367.345 167.632 368.213 168.47 369.107C172.621 373.535 176.763 377.97 180.896 382.414C181.722 383.303 182.549 384.191 183.4 385.106C184.949 386.772 186.497 388.439 188.043 390.108C190.175 392.4 192.324 394.675 194.476 396.947C195.285 397.822 196.094 398.697 196.927 399.598C197.741 400.454 198.555 401.31 199.393 402.192C200.127 402.975 200.861 403.758 201.618 404.565C203.94 406.75 203.94 406.75 208.379 406.188C209.506 405.776 210.632 405.364 211.792 404.939C213.15 401.536 213.418 399.119 212.2 395.64C210.68 392.416 209.056 389.27 207.38 386.124C206.774 384.952 206.168 383.779 205.544 382.572C203.649 378.917 201.728 375.277 199.804 371.639C198.658 369.445 197.514 367.251 196.37 365.056C195.546 363.486 195.546 363.486 194.706 361.883C193.6 359.767 192.505 357.646 191.418 355.52C188.861 350.572 186.269 345.9 182.982 341.397C173.833 328.183 173.322 315.237 173.247 299.626C173.233 298.607 173.219 297.589 173.204 296.54C173.107 283.794 174.534 273.137 179.942 261.484C181.78 257.375 182.59 254.943 181.713 250.473C179.436 245.596 177.118 240.761 174.657 235.974C173.64 233.967 172.622 231.959 171.605 229.951C170.009 226.817 168.41 223.683 166.808 220.551C165.255 217.509 163.712 214.462 162.169 211.415C161.689 210.484 161.209 209.553 160.714 208.593C158.368 203.948 156.296 199.705 155.847 194.478C158.007 189.834 159.53 188.027 163.839 185.154C168.418 185.237 168.418 185.237 173.164 186.486C177.912 191.49 180.781 197.199 183.778 203.329C184.261 204.3 184.743 205.27 185.24 206.27C186.772 209.357 188.293 212.449 189.814 215.541C190.835 217.603 191.856 219.664 192.879 221.725C195.206 226.42 197.53 231.116 199.833 235.823C200.7 237.562 201.593 239.288 202.51 241.001C206.178 247.937 208.399 254.913 210.434 262.474C210.779 263.718 211.123 264.962 211.477 266.243C212.564 270.18 213.635 274.122 214.706 278.063C215.44 280.729 216.174 283.395 216.91 286.061C222.141 305.059 222.141 305.059 223.781 311.697C225.484 311.78 227.187 311.862 228.942 311.947C229.901 311.993 230.859 312.04 231.846 312.087C232.701 311.959 233.556 311.83 234.437 311.697C237.741 306.741 237.744 302.565 238.038 296.8C238.099 295.72 238.161 294.64 238.225 293.528C238.351 291.236 238.472 288.944 238.587 286.652C238.763 283.195 238.972 279.741 239.182 276.286C239.302 274.05 239.42 271.813 239.536 269.577C239.6 268.565 239.664 267.553 239.729 266.51C240.63 246.467 233.969 225.767 229.525 206.383C229.154 204.759 228.783 203.135 228.4 201.462C223.036 178.306 216.46 156.629 206.032 135.247C205.615 134.379 205.198 133.511 204.769 132.616C203.665 130.344 202.516 128.094 201.364 125.846C197.123 113.256 200.691 98.8616 202.333 85.9438C202.596 83.835 202.858 81.7261 203.12 79.6172C203.668 75.2202 204.222 70.8239 204.78 66.4281C205.492 60.8132 206.19 55.1967 206.884 49.5796C207.423 45.233 207.969 40.8873 208.516 36.5419C208.777 34.4716 209.035 32.401 209.291 30.3302C209.65 27.4329 210.018 24.5369 210.39 21.6411C210.597 19.9982 210.804 18.3554 211.017 16.6627C211.823 11.8081 212.815 7.30807 214.457 2.66585C219.356 -0.600371 223.419 -1.07442 229.109 0.00178528C232.439 2.5826 232.439 2.5826 234.437 6.66194C234.842 10.7021 234.754 14.6066 234.437 18.6502C235.725 18.3772 237.013 18.1042 238.339 17.8229C240.091 17.4601 241.843 17.0976 243.595 16.7354C245.295 16.38 246.995 16.0246 248.746 15.6584C260.277 13.4828 271.781 13.1236 283.488 13.1286C285.004 13.1241 286.52 13.1197 288.082 13.115C293.054 13.1025 298.027 13.0998 303 13.0984C306.476 13.0941 309.953 13.0896 313.429 13.0849C320.699 13.0764 327.969 13.0744 335.239 13.0753C343.616 13.0761 351.994 13.062 360.371 13.041C368.468 13.0214 376.564 13.0167 384.661 13.0175C388.09 13.0159 391.519 13.01 394.948 12.9997C399.745 12.9866 404.542 12.9905 409.339 12.9985C410.745 12.991 412.151 12.9836 413.599 12.9758C426.393 13.03 436.342 15.1945 447.562 21.3143C447.516 20.43 447.469 19.5457 447.422 18.6346C447.062 6.90892 447.062 6.90892 451.558 1.33382C453.661 -0.769432 455.812 -0.325142 458.718 -0.414474C459.772 -0.46427 460.826 -0.514065 461.913 -0.565369C464.878 0.00178528 464.878 0.00178528 466.941 1.99625C469.64 6.64958 470.144 11.3612 470.815 16.6105C470.976 17.7665 471.136 18.9225 471.301 20.1135C471.842 24.0636 472.357 28.0167 472.871 31.9705C473.266 34.9416 473.663 37.9127 474.059 40.8837C475.12 48.9096 476.145 56.9397 477.156 64.9721C477.786 69.9641 478.431 74.9542 479.075 79.9445C479.483 83.1704 479.89 86.3964 480.296 89.6225C480.487 91.0881 480.678 92.5537 480.876 94.0636C484.185 120.843 484.185 120.843 478.48 131.207C477.66 132.801 476.845 134.397 476.035 135.996C475.6 136.836 475.166 137.675 474.718 138.54C463.875 159.91 457.727 182.472 452.261 205.689C451.652 208.252 451.025 210.811 450.397 213.369C444.511 237.58 442.493 260.182 443.566 285.056C443.655 287.536 443.744 290.016 443.832 292.496C443.833 302.609 443.833 302.609 447.562 311.697C451.664 312.039 454.504 312.222 458.218 310.365C459.341 307.127 460.306 303.947 461.205 300.645C461.484 299.654 461.763 298.662 462.051 297.64C462.948 294.447 463.83 291.251 464.712 288.054C465.295 285.96 465.88 283.866 466.465 281.773C466.895 280.238 466.895 280.238 467.332 278.672C468.473 274.607 469.623 270.544 470.774 266.482C471.447 264.071 472.092 261.651 472.731 259.23C476.118 247.086 481.532 236.125 487.22 224.926C488.869 221.674 490.492 218.41 492.112 215.143C493.162 213.053 494.213 210.964 495.265 208.876C495.746 207.909 496.226 206.942 496.721 205.945C499.287 200.93 501.658 196.696 506.171 193.146C511.007 192.542 514.194 192.564 518.659 194.562C521.898 198.423 521.912 201.474 522.156 206.467C520.819 210.019 519.487 212.935 517.66 216.207C517.187 217.114 516.715 218.021 516.228 218.955C514.132 222.969 511.972 226.942 509.748 230.886C502.451 242.713 502.451 242.713 499.506 255.903C500.507 259.322 501.757 261.98 503.507 265.076C506.838 271.862 508.187 277.56 508.362 285.155C508.393 286.164 508.425 287.173 508.457 288.213C508.536 291.463 508.57 294.71 508.586 297.961C508.593 299.07 508.6 300.179 508.607 301.321C508.601 319.174 506.142 332.326 496.069 347.406C492.799 352.469 490.174 357.866 487.44 363.23C484.14 369.536 480.781 375.803 477.314 382.019C476.467 383.559 476.467 383.559 475.603 385.13C474.532 387.072 473.446 389.006 472.342 390.931C470.119 394.987 468.812 397.568 469.223 402.244C469.548 403.133 469.872 404.023 470.207 404.939C473.869 406.199 473.869 406.199 478.199 406.271C481.455 403.399 481.455 403.399 484.859 399.611C486.222 398.25 487.593 396.896 488.969 395.547C496.037 388.548 503.005 381.567 509.449 373.98C512.307 370.716 515.404 367.72 518.498 364.682C520.91 362.226 523.159 359.679 525.403 357.069C528.624 353.329 531.958 349.794 535.476 346.33C552.512 329.458 563.248 314.517 564.902 290.304C565.298 285.742 565.802 282.819 568.527 279.083C573.345 275.745 576.328 276.423 582.097 277.064C585.659 279.477 586.039 280.897 587.425 285.056C589.264 305.03 583.396 325.388 570.863 341.059C567.583 344.679 564.208 348.174 560.785 351.658C559.16 353.504 557.549 355.363 555.956 357.236C551.985 361.812 547.748 366.052 543.432 370.301C540.04 373.746 536.914 377.387 533.764 381.051C530.812 384.38 527.655 387.467 524.482 390.584C522.069 393.039 519.82 395.586 517.577 398.196C513.475 402.962 509.111 407.372 504.61 411.761C501.908 414.429 501.908 414.429 499.012 418.509C493.173 424.766 485.785 428.039 477.528 430.055C472.278 431.774 469.979 433.756 466.127 437.657C450.008 452.939 430.357 463.121 408.933 468.877C408.933 473.272 408.933 477.668 408.933 482.197C410.333 482.166 411.732 482.135 413.174 482.103C437.338 481.721 437.338 481.721 446.646 487.692C452.598 494.059 455.268 500.354 456.886 508.838C458.13 508.826 459.373 508.814 460.655 508.802C472.449 508.693 484.244 508.614 496.039 508.562C502.101 508.534 508.163 508.497 514.225 508.436C520.089 508.377 525.953 508.346 531.818 508.332C534.041 508.322 536.263 508.303 538.486 508.274C565.805 507.932 589.428 515.463 609.421 534.745C624.507 550.475 630.948 570.546 636.528 591.106C637.115 593.24 637.703 595.374 638.292 597.507C639.514 601.951 640.728 606.396 641.935 610.844C643.477 616.523 645.043 622.196 646.615 627.866C647.831 632.26 649.033 636.657 650.232 641.055C650.804 643.148 651.38 645.24 651.961 647.33C652.771 650.255 653.563 653.184 654.351 656.114C655.031 658.603 655.031 658.603 655.724 661.143C657.009 667.62 658.221 674.124 654.693 680.004C649.689 683.006 646.506 682.646 640.707 682.002C635.83 678.779 635.017 673.322 633.583 667.984C633.3 666.97 633.017 665.956 632.725 664.911C632.113 662.714 631.508 660.516 630.908 658.316C629.958 654.829 628.991 651.347 628.02 647.866C624.733 636.038 621.553 624.185 618.463 612.304C617.885 610.101 617.306 607.898 616.728 605.696C615.644 601.57 614.589 597.439 613.55 593.303C608.157 572.359 600.294 554.083 581.827 541.66C571.244 535.452 560.644 531.465 548.401 531.061C546.795 531.005 545.19 530.949 543.536 530.892C541.03 530.813 541.03 530.813 538.473 530.733C536.782 530.675 535.091 530.618 533.348 530.559C529.173 530.417 524.999 530.281 520.824 530.15C520.829 530.892 520.834 531.634 520.839 532.399C520.956 550.465 521.044 568.531 521.1 586.597C521.128 595.334 521.165 604.07 521.226 612.807C521.284 621.236 521.315 629.665 521.329 638.095C521.339 641.313 521.358 644.531 521.387 647.749C521.426 652.252 521.431 656.754 521.429 661.257C521.457 663.258 521.457 663.258 521.487 665.299C521.452 671.139 521.383 674.425 518.288 679.5C515.275 682.199 514.15 682.883 510.167 682.751C509.288 682.753 508.409 682.754 507.503 682.756C503.366 681.584 502.065 680.195 499.511 676.674C498.716 671.995 498.839 667.353 498.906 662.618C498.906 661.188 498.905 659.759 498.904 658.285C498.908 653.557 498.949 648.83 498.991 644.101C499.001 640.824 499.008 637.546 499.014 634.269C499.034 625.641 499.086 617.013 499.145 608.385C499.2 599.582 499.224 590.778 499.251 581.975C499.308 564.7 499.402 547.425 499.511 530.15C486.764 530.15 474.016 530.15 460.882 530.15C460.903 534.473 460.924 538.796 460.946 543.25C461.012 557.526 461.056 571.801 461.089 586.076C461.11 594.732 461.139 603.388 461.184 612.044C461.227 620.396 461.251 628.747 461.261 637.099C461.269 640.287 461.283 643.475 461.305 646.663C461.334 651.125 461.338 655.586 461.336 660.048C461.358 662.03 461.358 662.03 461.38 664.051C461.347 671.355 460.991 676.565 455.554 682.002C445.931 682.791 445.931 682.791 442.104 679.867C438.733 675.619 438.882 673.021 438.843 667.632C438.829 666.734 438.815 665.837 438.801 664.913C438.762 661.958 438.76 659.004 438.758 656.048C438.738 653.995 438.716 651.942 438.691 649.889C438.633 644.493 438.607 639.098 438.587 633.702C438.56 628.193 438.505 622.684 438.451 617.175C438.351 606.371 438.284 595.567 438.238 584.764C437.916 585.716 437.595 586.669 437.264 587.651C435.777 592.024 434.26 596.386 432.743 600.748C432.238 602.247 431.734 603.746 431.213 605.29C427.583 615.636 423.653 624.61 414.761 631.385C406.479 633.838 397.054 634.426 388.953 630.968C382.628 627.276 377.438 621.977 372.193 616.925C366.113 611.163 359.505 606.001 352.988 600.748C352.983 601.668 352.978 602.587 352.973 603.535C352.917 613.108 352.825 622.68 352.711 632.252C352.671 635.824 352.643 639.397 352.627 642.969C352.598 648.105 352.536 653.239 352.467 658.374C352.466 659.971 352.464 661.568 352.463 663.214C352.267 674.3 352.267 674.3 349.107 679.68C346.101 682.191 344.869 682.88 341 682.751C340.12 682.753 339.241 682.754 338.335 682.756C334.467 681.661 332.881 679.758 330.343 676.674C329.652 673.15 329.652 673.15 329.616 669.099C329.59 667.579 329.564 666.06 329.537 664.494C329.534 662.044 329.534 662.044 329.532 659.545C329.51 657.867 329.488 656.189 329.465 654.461C329.411 650.011 329.38 645.562 329.36 641.111C329.334 636.566 329.278 632.022 329.225 627.477C329.126 618.567 329.057 609.658 329.011 600.748C328.168 601.48 328.168 601.48 327.308 602.228C324.718 604.477 322.127 606.726 319.536 608.974C318.652 609.742 317.768 610.51 316.858 611.302C291.386 633.399 291.386 633.399 277.124 633.138C269.797 632.377 264.653 629.942 259.796 624.414C257.068 620.71 255.554 617.53 253.986 613.225C253.468 611.822 252.95 610.42 252.417 608.974C251.896 607.523 251.375 606.072 250.838 604.577C250.033 602.386 250.033 602.386 249.212 600.15C247.339 595.038 245.483 589.928 243.761 584.764C243.756 585.903 243.752 587.043 243.747 588.217C243.696 598.958 243.62 609.698 243.516 620.438C243.464 625.96 243.421 631.481 243.4 637.003C243.38 642.333 243.334 647.661 243.271 652.99C243.251 655.023 243.24 657.056 243.239 659.089C243.236 661.937 243.2 664.784 243.156 667.632C243.145 669.253 243.133 670.874 243.121 672.544C242.301 677.44 240.99 679.017 237.101 682.002C233.228 682.946 230.517 682.454 226.445 682.002C222.883 679.589 222.503 678.169 221.117 674.01C220.998 672.032 220.954 670.049 220.957 668.068C220.954 666.244 220.954 666.244 220.951 664.383C220.956 663.052 220.961 661.721 220.965 660.35C220.965 658.946 220.965 657.543 220.965 656.096C220.966 651.448 220.976 646.799 220.987 642.15C220.989 638.93 220.991 635.711 220.992 632.491C220.997 624.01 221.011 615.529 221.025 607.047C221.039 598.396 221.045 589.744 221.052 581.093C221.066 564.112 221.089 547.131 221.117 530.15C208.369 530.15 195.622 530.15 182.488 530.15C182.53 536.766 182.53 536.766 182.572 543.516C182.661 558.073 182.719 572.63 182.764 587.187C182.792 596.015 182.829 604.842 182.89 613.67C182.948 622.186 182.979 630.702 182.993 639.218C183.003 642.47 183.022 645.722 183.051 648.975C183.09 653.523 183.095 658.07 183.093 662.618C183.112 663.969 183.131 665.32 183.151 666.712C183.097 675.834 183.097 675.834 179.952 680.169C176.962 682.132 175.383 682.758 171.832 682.751C170.952 682.78 170.073 682.809 169.167 682.84C164.775 681.458 163.562 679.255 161.175 675.342C160.405 670.647 160.502 666.006 160.57 661.257C160.57 659.84 160.569 658.423 160.568 656.963C160.572 652.285 160.613 647.608 160.655 642.931C160.665 639.685 160.673 636.439 160.678 633.193C160.698 624.655 160.75 616.117 160.809 607.579C160.864 598.865 160.888 590.15 160.915 581.436C160.972 564.341 161.062 547.245 161.175 530.15C155.513 530.22 149.853 530.347 144.192 530.483C142.61 530.502 141.029 530.521 139.4 530.54C120.682 531.052 103.074 537.07 89.2456 550.131C76.688 564.314 71.4733 581.464 66.7936 599.369C66.2191 601.511 65.6428 603.652 65.0647 605.793C63.5607 611.377 62.0753 616.966 60.5958 622.557C58.2184 631.536 55.8208 640.509 53.4068 649.478C52.572 652.596 51.7505 655.718 50.9301 658.84C50.4183 660.753 49.9059 662.667 49.393 664.581C48.9527 666.245 48.5124 667.91 48.0588 669.625C46.5441 674.243 44.7807 678.514 41.2925 682.002C31.917 682.77 31.917 682.77 27.3062 680.004C23.7917 674.146 24.9908 667.648 26.2478 661.188C26.6889 659.548 27.13 657.909 27.5845 656.22C27.8273 655.304 28.07 654.388 28.3201 653.445C29.1198 650.444 29.9393 647.45 30.7611 644.455C31.3334 642.341 31.9052 640.228 32.4764 638.114C33.6765 633.686 34.8873 629.262 36.1049 624.84C37.6458 619.237 39.1539 613.626 40.653 608.012C41.8259 603.64 43.0198 599.273 44.2194 594.908C44.7829 592.846 45.3395 590.781 45.8883 588.715C53.8156 558.972 66.9154 535.305 93.9025 518.792C111.062 509.521 127.797 508.069 146.804 508.317C149.077 508.327 151.35 508.335 153.623 508.34C159.54 508.36 165.456 508.413 171.373 508.472C177.436 508.527 183.5 508.551 189.564 508.578C201.414 508.634 213.263 508.725 225.113 508.838C225.492 507.475 225.492 507.475 225.879 506.085C226.222 504.89 226.565 503.695 226.918 502.464C227.253 501.281 227.589 500.097 227.934 498.878C230.198 492.403 233.812 488.733 239.682 485.111C247.357 482.135 254.801 482.019 262.909 482.114C263.89 482.12 264.87 482.126 265.88 482.132C268.276 482.148 270.671 482.171 273.066 482.197C273.066 477.801 273.066 473.406 273.066 468.877C271.855 468.52 270.645 468.162 269.398 467.795C250.081 461.772 232.561 453.298 217.854 439.083C211.553 433.042 207.451 429.485 198.769 428.245C189.456 426.166 182.659 418.785 176.821 411.693C174.406 408.829 171.845 406.228 169.167 403.607C164.809 399.316 160.785 394.835 156.799 390.198C154.568 387.683 152.251 385.316 149.853 382.961C146.611 379.777 143.574 376.5 140.612 373.054C137.39 369.313 134.056 365.778 130.539 362.314C125.372 357.207 120.548 351.901 115.886 346.33C114.689 344.911 114.689 344.911 113.467 343.463C93.9899 319.527 93.6152 293.04 95.913 263.651C96.2006 259.97 96.4699 256.289 96.7352 252.607C97.3031 244.774 97.8939 236.943 98.4866 229.111C102.242 179.32 102.416 132.013 98.2436 82.2363C97.3453 71.5001 96.4662 60.7623 95.5931 50.024C95.289 46.3146 94.9767 42.6059 94.6633 38.8973C92.0483 7.46815 92.0483 7.46814 95.2398 1.75008C99.195 -0.326448 102.151 -0.689465 106.562 -0.835938ZM230.441 42.6268C228.596 51.3424 227.11 60.0269 226.013 68.8668C225.866 70.038 225.719 71.2092 225.567 72.416C225.261 74.868 224.958 77.3204 224.657 79.7731C224.196 83.5097 223.717 87.2437 223.237 90.978C222.94 93.3756 222.644 95.7735 222.35 98.1714C222.206 99.2761 222.061 100.381 221.913 101.519C220.76 111.212 221.533 118.861 225.992 127.7C226.716 129.189 227.439 130.678 228.184 132.213C228.567 132.998 228.949 133.783 229.344 134.591C239.902 156.441 245.552 178.782 250.421 202.471C259.382 201.617 267.741 199.581 276.396 197.142C277.847 196.734 279.298 196.325 280.793 195.904C329.018 181.961 374.776 159.883 413.923 128.22C418.119 125.878 420.136 125.764 424.917 126.545C429.299 128.657 433.33 131.225 437.405 133.871C438.513 134.57 439.62 135.269 440.761 135.989C443.483 137.709 446.193 139.445 448.894 141.197C458.023 129.326 462.167 117.947 460.372 103.057C460.241 102.161 460.111 101.264 459.976 100.34C459.47 96.6532 459.1 92.9608 458.728 89.2583C458.423 86.4516 458.114 83.6454 457.802 80.8394C457.592 78.7984 457.592 78.7984 457.378 76.7162C457.221 75.4446 457.064 74.173 456.902 72.8629C456.771 71.7205 456.64 70.5781 456.505 69.4011C455.819 66.3683 455.819 66.3683 452.918 65.1003C452.03 64.7171 451.141 64.334 450.226 63.9393C448.436 60.4167 448.436 60.4167 446.896 56.1969C443.106 45.8899 438.565 40.7925 428.914 35.9666C424.957 34.7297 421.385 34.4624 417.249 34.4475C415.978 34.4399 414.707 34.4323 413.398 34.4245C412.012 34.423 410.626 34.4215 409.198 34.42C407.731 34.4134 406.264 34.4067 404.752 34.3999C399.886 34.3804 395.02 34.3714 390.155 34.364C386.759 34.3564 383.363 34.3487 379.967 34.341C373.742 34.3288 367.518 34.3204 361.294 34.3164C352.197 34.3104 343.1 34.2872 334.003 34.2484C326.078 34.2158 318.154 34.2059 310.23 34.2036C306.886 34.1996 303.542 34.189 300.199 34.1714C276.522 34.0555 252.982 34.4565 230.441 42.6268ZM415.53 153.113C402.8 162.523 389.361 170.634 375.632 178.494C374.615 179.078 373.597 179.662 372.548 180.264C336.282 200.817 296.083 213.822 255.75 223.783C255.992 224.868 255.992 224.868 256.239 225.975C262.09 252.567 262.09 252.567 261.078 266.408C263.633 265.79 263.633 265.79 266.239 265.159C267.676 264.812 267.676 264.812 269.143 264.457C271.812 263.813 271.812 263.813 274.398 262.412C279.169 261.893 281.541 261.831 285.554 264.576C288.367 268.688 288.533 270.841 287.718 275.732C282.099 283.599 272.467 285.416 263.502 287.148C261.066 287.499 261.066 287.499 259.746 289.053C259.619 291.572 259.5 294.092 259.427 296.614C258.765 317.549 258.765 317.549 251.145 325.782C244.462 331.687 239.449 333.397 230.607 333.426C229.017 333.448 227.427 333.471 225.789 333.493C217.376 332.622 211.779 328.787 206.464 322.353C201.768 314.034 199.414 304.931 197.14 295.713C196.701 295.713 196.261 295.713 195.808 295.713C192.949 315.438 199.868 328.406 209.628 345.224C212.898 350.92 215.922 356.737 218.952 362.564C220.029 364.609 221.106 366.654 222.183 368.699C235.801 394.669 235.801 394.669 234.437 404.939C233.131 408.465 231.661 411.821 230.014 415.2C228.853 418.18 228.853 418.18 229.759 420.913C232.652 424.756 236.278 427.355 240.181 430.081C241.018 430.667 241.855 431.253 242.717 431.857C255.523 440.6 268.887 445.608 283.835 449.366C291.457 451.303 291.457 451.303 294.378 454.224C295.528 465.125 294.144 476.252 293.046 487.109C292.7 490.655 292.357 494.201 292.017 497.748C291.762 500.355 291.488 502.96 291.21 505.565C290.891 510.476 290.677 513.916 293.426 518.11C295.814 520.601 298.353 522.657 301.039 524.822C309.404 531.949 317.398 539.447 325.366 547.011C329.988 551.375 334.617 555.581 339.667 559.455C345.765 557.554 349.033 554.467 353.404 549.881C357.501 545.653 361.581 541.474 366.058 537.643C366.877 536.925 367.696 536.207 368.54 535.468C370.312 533.949 372.094 532.443 373.907 530.974C384.467 522.917 384.467 522.917 391.575 512.105C391.625 508.183 391.009 504.707 390.285 500.846C389.772 496.273 389.371 491.691 388.953 487.109C388.834 485.898 388.715 484.687 388.593 483.439C387.899 476.31 387.283 469.209 387.038 462.05C386.985 460.618 386.931 459.186 386.877 457.711C387.621 454.224 387.621 454.224 390.42 451.878C394.704 450.047 398.807 448.991 403.355 447.981C419.918 443.917 434.644 436.012 447.562 424.92C449.329 423.576 451.103 422.24 452.89 420.924C451.805 416.18 450.107 411.836 448.259 407.343C445.991 395.19 450.531 385.588 456.137 375.052C456.853 373.665 457.569 372.278 458.307 370.849C460.477 366.661 462.675 362.489 464.878 358.318C466.127 355.922 467.374 353.525 468.62 351.127C469.759 348.945 470.898 346.763 472.038 344.582C472.58 343.539 473.123 342.496 473.681 341.422C475.92 337.155 478.181 333.037 480.8 328.987C487.701 318.233 486.973 308.064 486.191 295.713C483.745 300.141 482.456 304.584 481.113 309.449C478.263 318.761 475.399 325.736 466.876 330.928C458.636 334.533 448.835 334.566 440.272 332.037C432.8 328.615 429.102 323.949 425.334 316.692C422.094 307.606 422.568 297.261 422.253 287.721C421.112 287.494 419.97 287.267 418.793 287.034C410.158 285.203 402.871 283.51 395.613 278.396C393.721 274.612 393.862 271.93 394.281 267.74C396.445 264.576 396.445 264.576 399.609 262.412C405.739 261.437 410.378 263.202 415.947 265.534C418.261 266.565 418.261 266.565 420.921 266.408C420.87 265.584 420.819 264.761 420.766 263.912C420.418 253.636 422.232 244.258 424.662 234.335C425.354 231.51 426.026 228.681 426.692 225.85C427.869 220.871 429.062 215.897 430.261 210.924C432.188 202.934 434.101 194.942 435.99 186.943C436.651 184.16 437.328 181.381 438.006 178.602C438.607 176.074 438.607 176.074 439.219 173.494C439.577 172.012 439.935 170.53 440.304 169.003C440.884 165.29 441.062 163.265 439.57 159.846C436.697 157.729 433.985 155.946 430.912 154.184C430.103 153.7 429.294 153.216 428.461 152.717C421.747 148.708 421.747 148.708 415.53 153.113ZM247.757 506.174C246.367 508.486 246.367 508.486 245.426 511.169C245.076 512.041 244.726 512.913 244.365 513.812C243.118 520.047 245.362 526.106 247.462 531.956C247.947 533.318 248.432 534.679 248.932 536.081C249.458 537.534 249.984 538.987 250.525 540.484C251.07 542.002 251.614 543.519 252.174 545.083C253.326 548.293 254.482 551.502 255.641 554.71C257.397 559.573 259.142 564.441 260.885 569.31C262.01 572.439 263.136 575.568 264.262 578.697C264.777 580.133 265.292 581.57 265.823 583.05C269.289 592.626 273.065 602.037 277.062 611.404C284.182 610.488 287.646 608.416 292.63 603.412C294.025 602.071 295.423 600.734 296.824 599.4C297.524 598.73 298.224 598.06 298.946 597.369C303.224 593.384 307.821 589.783 312.371 586.116C316.664 582.644 320.843 579.055 325.015 575.439C323.512 573.936 322.009 572.434 320.504 570.933C318.967 569.393 317.438 567.845 315.915 566.292C315.044 565.409 314.174 564.527 313.277 563.618C312.471 562.797 311.666 561.976 310.836 561.13C307.294 557.735 303.611 554.536 299.909 551.318C295.205 547.184 290.626 542.919 286.053 538.642C285.129 537.787 284.206 536.932 283.254 536.051C270.632 524.251 270.632 524.251 269.882 517.428C269.943 515.775 270.005 514.121 270.069 512.418C270.117 510.747 270.165 509.076 270.215 507.355C270.307 505.451 270.307 505.451 270.402 503.51C267.377 503.438 264.352 503.386 261.327 503.343C259.643 503.312 257.959 503.281 256.223 503.249C251.575 503.142 251.575 503.142 247.757 506.174ZM411.597 503.51C411.705 504.732 411.814 505.955 411.925 507.214C412.009 508.849 412.093 510.484 412.18 512.168C412.288 513.775 412.396 515.382 412.508 517.038C411.213 524.318 407.45 527.758 402.273 532.814C400.97 534.102 400.97 534.102 399.64 535.417C396.916 538.055 394.15 540.643 391.367 543.221C390.382 544.141 389.397 545.061 388.382 546.009C381.298 552.613 374.168 559.166 366.995 565.673C363.571 568.847 360.265 572.117 356.984 575.439C363.639 581.218 370.298 586.99 376.964 592.756C377.859 593.53 378.754 594.304 379.677 595.102C382.211 597.292 384.749 599.478 387.288 601.664C388.065 602.335 388.842 603.007 389.643 603.699C395.53 609.366 395.53 609.366 402.985 611.354C406.523 610.36 406.523 610.36 408.105 607C408.575 605.639 409.045 604.278 409.53 602.876C410.076 601.337 410.623 599.798 411.186 598.212C411.757 596.517 412.328 594.821 412.898 593.125C413.504 591.39 414.112 589.655 414.722 587.921C416.326 583.346 417.897 578.76 419.461 574.171C421.045 569.537 422.66 564.914 424.272 560.29C426.64 553.494 428.99 546.692 431.326 539.885C433.015 534.963 434.757 530.081 436.642 525.231C438.972 518.799 437.392 515.241 434.991 509.171C433.411 504.752 433.411 504.752 430.246 503.51C427.083 503.415 423.918 503.398 420.755 503.426C419.048 503.438 417.341 503.45 415.583 503.463C414.268 503.478 412.952 503.494 411.597 503.51Z" fill="#EF2626"/>
<path d="M575.437 -0.835938C576.756 -0.792152 576.756 -0.792152 578.101 -0.747482C578.98 -0.749199 579.859 -0.750916 580.765 -0.752686C584.63 0.341806 586.226 2.24804 588.757 5.32991C589.349 8.71186 589.349 8.71186 589.218 12.6743C589.169 14.2178 589.12 15.7614 589.07 17.3517C588.519 26.6903 587.828 36.0099 587.031 45.3306C586.71 49.088 586.399 52.8461 586.091 56.6045C585.213 67.2791 584.318 77.9522 583.417 88.6248C582.863 95.1907 582.321 101.758 581.785 108.325C581.581 110.793 581.373 113.261 581.16 115.728C579.246 137.93 578.448 160.156 580.307 182.396C580.396 183.581 580.485 184.765 580.576 185.985C580.851 189.65 581.14 193.313 581.431 196.976C582.169 206.352 582.865 215.727 583.429 225.115C583.493 226.131 583.557 227.148 583.622 228.195C583.779 230.974 583.885 233.749 583.97 236.531C584.059 238.839 584.059 238.839 584.15 241.194C583.429 245.096 583.429 245.096 580.32 248.258C576.009 250.887 573.746 251.164 568.777 250.424C564.6 248.053 563.661 247.063 562.117 242.431C561.853 240.206 561.647 237.973 561.476 235.739C561.37 234.371 561.263 233.004 561.153 231.595C561.044 230.109 560.934 228.623 560.821 227.092C560.705 225.544 560.588 223.997 560.468 222.402C560.223 219.106 559.98 215.809 559.74 212.512C559.378 207.577 558.998 202.643 558.618 197.71C558.38 194.489 558.143 191.268 557.907 188.047C557.795 186.615 557.683 185.183 557.567 183.708C555.757 158.044 556.875 132.537 558.932 106.929C559.159 104.032 559.385 101.135 559.611 98.238C560.082 92.24 560.562 86.2429 561.049 80.2463C561.67 72.567 562.259 64.8856 562.839 57.2032C563.294 51.2529 563.77 45.3045 564.252 39.3564C564.478 36.5221 564.697 33.6872 564.908 30.8517C565.203 26.9113 565.529 22.9745 565.862 19.0372C565.942 17.8762 566.023 16.7152 566.106 15.519C566.73 8.60303 567.876 1.54178 575.437 -0.835938Z" fill="#EF2626"/>
<path d="M326.68 364.476C338.099 368.663 348.123 366.605 359.107 362.187C363.135 360.669 366.057 360.17 370.304 360.979C374.134 362.977 374.134 362.977 376.964 366.308C377.84 370.024 378.007 373.282 376.964 376.964C373.331 381.494 369.837 383.356 364.393 385.206C362.542 385.852 362.542 385.852 360.652 386.512C343.304 391.753 326.627 389.813 310.363 382.412C306.214 380.108 304.924 378.052 302.953 373.717C302.371 368.972 302.371 368.972 303.869 365.225C310.768 357.176 318.111 360.192 326.68 364.476Z" fill="#EF2626"/>
<path d="M341 278.895C346.426 280.025 348.199 282.102 351.657 286.387C352.518 290.95 352.518 290.95 352.541 296.128C352.548 297.049 352.554 297.969 352.561 298.918C352.565 300.857 352.553 302.796 352.525 304.735C352.489 307.692 352.525 310.643 352.567 313.6C352.563 315.491 352.554 317.381 352.541 319.272C352.534 320.98 352.526 322.689 352.518 324.449C351.442 330.15 349.501 332.128 344.997 335.672C341 336.505 341 336.505 337.004 335.672C332.499 332.128 330.559 330.15 329.482 324.449C329.475 322.74 329.467 321.032 329.46 319.272C329.453 318.351 329.447 317.43 329.44 316.481C329.436 314.542 329.448 312.603 329.476 310.664C329.512 307.707 329.476 304.756 329.434 301.799C329.438 299.909 329.447 298.018 329.46 296.128C329.467 294.419 329.475 292.711 329.482 290.95C330.771 284.127 334.151 280.322 341 278.895Z" fill="#EF2626"/>
</g>
<defs>
<clipPath id="clip0_965_6874">
<rect width="682" height="682" fill="white"/>
</clipPath>
</defs>
</svg>
