<svg width="682" height="682" viewBox="0 0 682 682" fill="none" xmlns="http://www.w3.org/2000/svg">
<g clip-path="url(#clip0_965_6875)">
<path d="M218.364 -0.68944C220.709 -0.703444 220.709 -0.703444 223.101 -0.717732C228.248 -0.74111 233.395 -0.725677 238.543 -0.707651C242.136 -0.708839 245.729 -0.716408 249.323 -0.723098C256.848 -0.732772 264.373 -0.720073 271.899 -0.694643C280.566 -0.665692 289.232 -0.675013 297.899 -0.704374C305.37 -0.72866 312.841 -0.731912 320.312 -0.718021C324.761 -0.709768 329.209 -0.710589 333.658 -0.726208C338.627 -0.739824 343.595 -0.718991 348.565 -0.68944C350.74 -0.705618 350.74 -0.705618 352.959 -0.722122C365.094 -0.589246 376.762 2.05031 386.289 9.99022C387.223 10.7457 388.158 11.5012 389.12 12.2797C391.618 14.6523 391.618 14.6523 393.279 17.4237C395.451 20.3169 395.451 20.3169 399.148 20.642C400.582 20.64 402.015 20.638 403.492 20.6359C405.96 20.6522 405.96 20.6522 408.478 20.6687C410.304 20.654 412.131 20.6387 413.957 20.6231C415.878 20.626 417.799 20.6313 419.721 20.6389C423.859 20.6503 427.998 20.6452 432.136 20.6276C438.679 20.6006 445.222 20.6138 451.764 20.6333C466.836 20.672 481.907 20.6577 496.979 20.643C510.788 20.6301 524.596 20.6284 538.404 20.6695C544.91 20.6873 551.415 20.6794 557.92 20.6517C561.966 20.6398 566.012 20.6497 570.058 20.6656C571.936 20.6684 573.813 20.6621 575.69 20.646C578.252 20.6252 580.813 20.6402 583.375 20.657C584.809 20.655 586.242 20.653 587.72 20.651C592.355 21.4791 593.93 22.9304 596.75 26.6406C597.343 30.9428 597.343 30.9428 597.245 36.1037C597.23 37.5181 597.23 37.5181 597.215 38.9611C597.192 41.005 597.157 43.0488 597.113 45.0924C597.046 48.3363 597.021 51.5781 597.008 54.8226C596.968 64.0447 596.883 73.265 596.701 82.4854C596.592 88.1322 596.556 93.7756 596.564 99.4233C596.553 101.566 596.515 103.709 596.449 105.851C595.892 118.247 595.892 118.247 601.202 129.052C604.909 132.094 608.693 134.627 612.735 137.199C615.103 139.238 617.44 141.314 619.728 143.443C623.344 146.751 626.979 149.951 630.8 153.017C638.658 159.658 649.093 170.147 650.796 180.459C650.558 188.826 645.119 195.046 640.458 201.636C639.492 203.04 638.525 204.445 637.53 205.892C634.622 210.099 631.677 214.28 628.719 218.453C627.896 219.622 627.073 220.79 626.225 221.995C622.766 226.894 619.28 231.774 615.742 236.618C615.128 237.496 614.513 238.374 613.88 239.278C611.403 242.43 611.403 242.43 608.123 245.388C595.843 257.771 596.327 271.306 596.341 288.021C596.362 290.865 596.392 293.709 596.424 296.554C596.465 301.592 596.429 306.63 596.403 311.668C596.368 320.38 596.381 329.091 596.427 337.803C596.495 350.399 596.488 362.993 596.464 375.589C596.427 396.028 596.449 416.467 596.508 436.906C596.566 456.751 596.596 476.596 596.588 496.441C596.587 497.666 596.587 498.891 596.586 500.153C596.584 506.299 596.581 512.444 596.577 518.589C596.55 569.508 596.619 620.426 596.75 671.344C589.717 671.344 582.684 671.344 575.438 671.344C574.778 482.768 574.778 482.768 574.106 290.383C563.874 301.623 563.874 301.623 553.818 313.001C549.096 318.391 544.274 323.692 539.473 329.012C538.752 329.853 538.032 330.693 537.29 331.56C530.519 339.328 523.284 346.478 515.861 353.618C512.584 356.794 509.31 359.972 506.036 363.15C503.801 365.306 501.557 367.45 499.301 369.584C484.825 383.308 474.528 394.949 468.875 414.262C468.254 416.151 468.254 416.151 467.62 418.079C466.663 421.12 465.858 424.146 465.129 427.249C464.732 428.911 464.732 428.911 464.326 430.606C459.823 450.525 459.41 470.793 458.823 491.124C458.763 493.109 458.704 495.095 458.644 497.08C458.499 501.886 458.358 506.693 458.219 511.5C459.342 511.488 460.465 511.476 461.622 511.464C472.205 511.357 482.789 511.276 493.373 511.224C498.814 511.196 504.255 511.158 509.696 511.098C514.947 511.04 520.198 511.008 525.45 510.994C527.453 510.985 529.456 510.965 531.459 510.937C534.266 510.898 537.071 510.893 539.878 510.895C541.475 510.883 543.072 510.871 544.718 510.859C548.797 511.5 548.797 511.5 551.976 513.741C554.611 517.526 554.8 519.609 554.815 524.196C554.832 525.672 554.848 527.148 554.866 528.668C554.849 531.049 554.849 531.049 554.833 533.478C554.838 535.114 554.843 536.75 554.848 538.435C554.852 541.892 554.842 545.35 554.82 548.807C554.791 554.105 554.82 559.4 554.854 564.698C554.85 568.056 554.843 571.414 554.833 574.771C554.844 576.359 554.855 577.946 554.866 579.582C554.849 581.058 554.832 582.534 554.815 584.054C554.811 585.351 554.806 586.649 554.802 587.985C554.125 591.422 554.125 591.422 548.797 596.75C543.522 596.75 538.248 596.75 532.813 596.75C532.813 621.366 532.813 645.982 532.813 671.344C525.78 671.344 518.747 671.344 511.5 671.344C511.5 646.728 511.5 622.112 511.5 596.75C398.97 596.75 286.44 596.75 170.5 596.75C170.5 621.366 170.5 645.982 170.5 671.344C163.467 671.344 156.434 671.344 149.188 671.344C149.188 646.728 149.188 622.112 149.188 596.75C143.913 596.75 138.638 596.75 133.203 596.75C127.208 590.754 127.208 590.754 127.186 584.054C127.169 582.578 127.152 581.102 127.135 579.582C127.146 577.994 127.157 576.407 127.168 574.771C127.16 572.318 127.16 572.318 127.152 569.815C127.149 566.358 127.158 562.9 127.181 559.443C127.209 554.145 127.181 548.85 127.147 543.552C127.15 540.194 127.157 536.836 127.168 533.478C127.157 531.891 127.146 530.304 127.135 528.668C127.152 527.192 127.169 525.716 127.186 524.196C127.19 522.899 127.194 521.601 127.199 520.265C128.098 515.698 129.411 514.175 133.203 511.5C137.283 510.859 137.283 510.859 142.123 510.895C143.007 510.894 143.892 510.894 144.803 510.893C147.715 510.896 150.626 510.938 153.538 510.98C155.561 510.99 157.584 510.997 159.607 511.002C164.925 511.023 170.241 511.075 175.558 511.134C180.987 511.189 186.415 511.213 191.844 511.24C202.49 511.297 213.136 511.388 223.782 511.5C223.614 505.704 223.442 499.908 223.267 494.112C223.209 492.147 223.151 490.182 223.094 488.217C222.498 467.615 221.681 447.366 216.872 427.249C216.643 426.275 216.414 425.301 216.178 424.297C215.291 420.903 214.212 417.598 213.125 414.262C212.702 412.68 212.278 411.097 211.842 409.467C205.856 389.944 190.876 377.187 176.535 363.514C172.461 359.615 168.433 355.667 164.398 351.727C161.258 348.662 158.111 345.608 154.945 342.57C148.22 336.099 141.91 329.46 135.868 322.352C133.71 319.986 131.546 317.627 129.374 315.275C123.663 309.023 118.276 302.597 112.973 295.997C110.611 293.01 110.611 293.01 107.895 290.383C107.455 416.1 107.016 541.817 106.563 671.344C99.5297 671.344 92.4966 671.344 85.2503 671.344C85.2607 669.245 85.271 667.145 85.2816 664.983C85.5229 615.076 85.6673 565.17 85.6935 515.263C85.6969 509.111 85.701 502.959 85.7056 496.807C85.707 494.97 85.707 494.97 85.7084 493.096C85.725 473.305 85.8073 453.515 85.9141 433.724C86.0224 413.394 86.0595 393.065 86.0313 372.735C86.0161 360.205 86.0556 347.677 86.1664 335.147C86.2373 326.537 86.2384 317.929 86.1866 309.32C86.1587 304.362 86.1599 299.409 86.2444 294.452C86.5966 272.518 85.5439 256.695 69.7634 240.277C68.9805 239.504 68.1976 238.731 67.391 237.934C64.6235 235.11 62.412 232.019 60.2227 228.735C59.5826 227.793 58.9424 226.85 58.2829 225.88C57.6764 224.967 57.07 224.055 56.4452 223.115C55.7572 222.089 55.0691 221.062 54.3603 220.005C52.941 217.887 51.5241 215.768 50.1096 213.647C47.8905 210.368 45.6117 207.137 43.3174 203.91C41.8378 201.792 40.3584 199.675 38.879 197.557C38.1834 196.6 37.4877 195.644 36.771 194.659C32.2254 188.06 30.8837 183.852 31.9691 175.828C33.5873 172.633 33.5873 172.633 35.8819 170C36.7336 169.005 37.5853 168.009 38.4627 166.983C39.8639 165.427 39.8639 165.427 41.2933 163.84C42.2549 162.72 43.2164 161.601 44.2071 160.447C48.6174 155.394 53.1061 150.496 58.1102 146.024C59.3095 144.923 59.3095 144.923 60.533 143.799C63.4125 141.597 65.5747 140.412 68.8221 138.983C75.4646 135.606 80.3609 131.881 83.9183 125.211C87.2755 110.119 86.0634 94.0839 85.5972 78.7305C85.3423 69.6163 85.2733 60.4984 85.1869 51.3814C85.1417 48.2069 85.053 45.0361 84.9561 41.8629C84.9169 39.922 84.8782 37.9812 84.8403 36.0403C84.7918 34.3492 84.7434 32.6582 84.6935 30.9159C85.2503 26.6406 85.2503 26.6406 87.3749 23.4269C91.6653 20.5951 94.4946 20.6702 99.6204 20.7076C100.518 20.7068 101.415 20.7061 102.339 20.7053C105.295 20.709 108.249 20.7504 111.204 20.7922C113.257 20.8021 115.31 20.8097 117.363 20.815C122.759 20.8353 128.155 20.8876 133.55 20.9466C139.059 21.0012 144.568 21.0255 150.078 21.0523C160.882 21.1094 171.685 21.2003 182.489 21.3125C182.87 20.0796 183.251 18.8468 183.644 17.5766C186.59 9.26711 191.52 4.79363 199.254 1.09741C205.489 -1.03094 211.84 -0.737696 218.364 -0.68944ZM203.801 26.6406C203.073 33.6569 203.073 33.6569 205.549 39.8777C210.713 43.1288 215.869 42.8183 221.738 42.8139C222.748 42.8186 223.757 42.8232 224.798 42.828C226.991 42.8378 229.185 42.8449 231.378 42.8497C234.856 42.8592 238.334 42.8801 241.812 42.9047C251.701 42.9745 261.591 43.0385 271.48 43.0591C277.531 43.0726 283.581 43.1118 289.631 43.1675C291.931 43.1838 294.231 43.1907 296.531 43.1877C299.761 43.1846 302.988 43.2142 306.218 43.251C307.627 43.2378 307.627 43.2378 309.064 43.2244C317.282 43.377 324.189 46.1504 330.282 51.6214C335.419 58.7854 338.377 66.1988 341 74.5937C342.108 74.6435 343.215 74.6933 344.356 74.7446C345.804 74.8322 347.251 74.9198 348.743 75.01C350.899 75.1259 350.899 75.1259 353.098 75.2441C356.985 75.9258 356.985 75.9258 359.193 77.331C361.939 81.3108 361.551 85.4219 361.512 90.089C361.515 91.0897 361.519 92.0904 361.523 93.1215C361.526 95.2422 361.518 97.3629 361.502 99.4835C361.481 102.694 361.501 105.902 361.527 109.112C361.539 119.558 361.231 128.802 356.985 138.531C360.404 142.105 363.853 145.649 367.308 149.187C368.28 150.204 369.252 151.221 370.253 152.268C371.197 153.229 372.142 154.191 373.115 155.182C373.98 156.075 374.845 156.967 375.736 157.887C378.466 160.383 378.466 160.383 383.625 159.844C383.687 145.983 383.734 132.123 383.763 118.262C383.777 111.825 383.796 105.388 383.826 98.9511C383.855 92.7326 383.871 86.5142 383.878 80.2957C383.883 77.9299 383.893 75.5641 383.907 73.1984C383.927 69.8703 383.929 66.5427 383.928 63.2146C383.942 61.7659 383.942 61.7659 383.957 60.2879C383.915 49.7945 382.427 40.2725 375.633 31.9687C364.903 21.5845 354.744 21.1143 340.435 21.0979C339.055 21.0912 337.674 21.0846 336.252 21.0778C331.7 21.0584 327.148 21.0493 322.596 21.0419C319.428 21.0343 316.26 21.0266 313.092 21.0189C306.458 21.0049 299.824 20.9971 293.189 20.9925C284.685 20.9852 276.18 20.9531 267.676 20.9153C261.136 20.8905 254.597 20.8835 248.057 20.8815C244.921 20.8775 241.785 20.8667 238.649 20.8493C234.268 20.8266 229.887 20.829 225.506 20.8377C224.21 20.8254 222.914 20.8131 221.578 20.8005C214.344 20.8453 209.185 21.257 203.801 26.6406ZM106.563 42.625C106.563 65.0431 106.563 87.4612 106.563 110.559C119.155 104.272 119.155 104.272 131.594 97.7375C155.744 84.7535 180.706 74.6039 206.465 65.2695C203.198 63.0916 200.031 61.3232 196.558 59.5251C188.723 55.1876 185.836 50.9939 182.489 42.625C157.433 42.625 132.378 42.625 106.563 42.625ZM404.938 42.625C404.938 49.6581 404.938 56.6912 404.938 63.9375C407.842 63.8829 407.842 63.8829 410.805 63.8272C480.67 62.747 480.67 62.747 509.775 77.6747C514.563 80.1257 519.417 82.3804 524.306 84.6204C540.119 91.9309 555.645 99.7643 570.672 108.592C573.639 110.669 573.639 110.669 575.438 110.559C575.438 88.1405 575.438 65.7224 575.438 42.625C519.173 42.625 462.908 42.625 404.938 42.625ZM234.438 63.9375C234.376 77.6244 234.329 91.3114 234.3 104.998C234.286 111.355 234.267 117.711 234.237 124.067C234.208 130.208 234.192 136.349 234.185 142.489C234.18 144.825 234.171 147.162 234.156 149.498C233.568 172.833 233.568 172.833 243.762 193.145C253.497 201.519 265.654 203.281 278.157 203.146C286.089 201.877 291.017 197.294 296.627 191.812C297.806 190.668 298.984 189.524 300.199 188.345C312.087 175.124 311.542 161.423 310.769 144.616C310.627 142.123 310.42 139.635 310.21 137.147C310.364 133.203 310.364 133.203 312.12 130.69C315.402 128.516 318.202 128.659 322.102 128.541C328.393 128.145 333.116 127.726 338.336 123.879C341.469 118.138 341.314 112.51 341.167 106.146C341.112 102.767 341.057 99.3878 341 95.9062C330.451 95.9062 319.901 95.9062 309.032 95.9062C309.032 88.8731 309.032 81.84 309.032 74.5937C311.669 74.5937 314.306 74.5937 317.024 74.5937C316.636 70.9758 315.693 69.267 313.355 66.4468C306.538 62.4899 299.8 63.284 292.064 63.4172C290.418 63.4247 288.771 63.4322 287.075 63.44C282.715 63.4648 278.355 63.5126 273.995 63.5716C269.54 63.6263 265.084 63.6501 260.628 63.6773C251.898 63.736 243.168 63.8252 234.438 63.9375ZM404.938 85.25C404.938 92.2831 404.938 99.3162 404.938 106.562C406.406 106.401 407.875 106.239 409.388 106.072C454.321 101.684 480.279 114.638 515.462 141.504C524.366 148.263 533.705 154.321 543.087 160.388C547.18 163.04 551.249 165.727 555.306 168.434C557.248 169.719 557.248 169.719 559.228 171.029C562.118 173.164 562.118 173.164 563.45 175.828C564.194 183.4 564.194 183.4 563.45 186.484C560.697 189.591 560.697 189.591 556.789 193.145C555.239 194.61 553.69 196.078 552.143 197.546C550.447 199.133 548.748 200.719 547.049 202.302C546.158 203.133 545.268 203.963 544.35 204.819C539.195 209.613 534 214.343 528.666 218.937C525.571 221.622 522.533 224.365 519.493 227.111C514.675 231.459 509.817 235.753 504.923 240.015C501.764 242.792 498.639 245.606 495.516 248.424C485.216 257.705 485.216 257.705 481.03 261.291C478.885 263.148 476.783 265.055 474.703 266.984C473.467 268.084 472.23 269.185 470.957 270.319C469.832 271.348 468.707 272.376 467.549 273.436C461.282 277.03 455.179 276.559 448.213 274.964C444.594 273.883 441.031 272.694 437.463 271.453C436.162 271.016 434.862 270.579 433.521 270.129C429.399 268.738 425.286 267.322 421.172 265.907C418.384 264.965 415.596 264.025 412.808 263.087C402.598 259.63 402.598 259.63 397.535 257.887C396.518 257.538 395.501 257.189 394.453 256.829C386.683 253.872 386.683 253.872 384.957 250.422C384.799 248.205 384.721 245.983 384.684 243.761C384.657 242.375 384.631 240.988 384.603 239.559C384.57 237.307 384.57 237.307 384.536 235.01C384.508 233.476 384.481 231.943 384.452 230.362C384.365 225.449 384.286 220.536 384.208 215.623C384.151 212.298 384.092 208.973 384.034 205.648C383.891 197.484 383.755 189.32 383.625 181.156C382.537 181.107 381.448 181.058 380.327 181.007C378.894 180.92 377.462 180.833 375.986 180.743C373.859 180.628 373.859 180.628 371.688 180.51C364.937 179.366 361.461 175.399 356.985 170.5C355.148 168.641 353.309 166.783 351.469 164.927C348.697 162.068 345.936 159.199 343.196 156.308C342.3 155.389 341.403 154.469 340.48 153.522C339.683 152.688 338.886 151.855 338.064 150.996C335.464 148.652 335.464 148.652 330.344 149.187C330.353 150.262 330.361 151.336 330.37 152.442C330.381 157.353 330.322 162.26 330.261 167.17C330.275 168.86 330.29 170.549 330.305 172.29C330.047 186.424 330.047 186.424 324.969 192.437C323.266 194.067 321.503 195.636 319.688 197.141C318.783 197.895 317.879 198.65 316.947 199.427C316.028 200.184 315.109 200.94 314.162 201.719C305.384 208.959 298.209 214.996 296.84 226.804C296.486 233.685 296.696 240.508 297.281 247.372C297.043 250.422 297.043 250.422 295.364 252.478C292.835 254.595 290.824 255.496 287.707 256.541C286.64 256.906 285.572 257.27 284.473 257.646C282.749 258.214 282.749 258.214 280.991 258.794C279.804 259.196 278.616 259.598 277.393 260.012C273.595 261.294 269.793 262.56 265.99 263.825C263.445 264.682 260.899 265.54 258.355 266.398C252.65 268.321 246.942 270.233 241.23 272.134C238.762 272.957 236.297 273.787 233.832 274.618C228.388 276.404 224.082 277.131 218.453 275.73C212.987 272.403 208.442 268.111 203.801 263.742C202.135 262.201 200.468 260.661 198.801 259.122C195.322 255.896 191.861 252.653 188.41 249.397C184.25 245.48 180.007 241.678 175.678 237.95C172.583 235.265 169.545 232.521 166.504 229.775C162.534 226.192 158.549 222.632 154.516 219.119C149.336 214.607 144.238 210.008 139.14 205.403C136.159 202.73 133.15 200.095 130.123 197.474C129.277 196.723 128.43 195.973 127.558 195.2C125.485 193.384 123.354 191.635 121.215 189.898C118.464 186.373 118.046 185.342 117.802 181.073C118.68 174.929 119.272 174.381 123.879 170.5C127.907 167.625 132.04 164.926 136.19 162.232C137.406 161.435 138.622 160.638 139.874 159.817C142.469 158.117 145.065 156.42 147.663 154.725C154.346 150.366 161.015 145.985 167.685 141.606C168.984 140.755 170.282 139.903 171.62 139.026C181.378 132.618 191.085 126.141 200.721 119.55C202.458 118.363 202.458 118.363 204.23 117.152C208.889 114.118 208.889 114.118 213.125 110.559C213.24 108.77 213.268 106.976 213.255 105.184C213.251 104.106 213.247 103.029 213.242 101.919C213.231 100.786 213.22 99.6538 213.209 98.487C213.203 97.3495 213.197 96.2119 213.19 95.0399C213.175 92.2206 213.151 89.4013 213.125 86.582C188.14 94.0815 164.231 105.047 141.196 117.219C139.778 117.959 139.778 117.959 138.333 118.715C111.257 132.945 87.5467 150.961 65.2699 171.832C63.8662 173.081 63.8662 173.081 62.4341 174.356C59.9692 176.531 59.9692 176.531 57.2777 179.824C58.6539 196.737 84.58 222.622 94.5746 235.77C95.5979 237.121 96.6213 238.472 97.6757 239.864C114.294 261.656 131.756 282.806 150.213 303.068C152.695 305.824 155.137 308.606 157.57 311.404C162.444 316.983 167.441 322.434 172.498 327.846C173.748 329.198 173.748 329.198 175.022 330.578C180.324 336.253 185.828 341.377 191.813 346.328C191.813 341.053 191.813 335.778 191.813 330.344C199.286 330.344 206.758 330.344 214.457 330.344C214.347 332.514 214.238 334.685 214.124 336.921C214.172 357.229 221.934 376.66 229.833 395.077C246.042 433.372 244.203 468.743 245.094 511.5C308.392 511.5 371.69 511.5 436.907 511.5C437.346 490.401 437.786 469.301 438.239 447.562C442.764 423.804 448.277 403.078 457.581 381.239C461.424 372.045 463.987 362.697 466.211 352.988C466.474 351.877 466.737 350.766 467.007 349.622C467.649 345.676 467.67 341.915 467.627 337.92C467.585 334.17 467.585 334.17 467.543 330.344C475.016 330.344 482.489 330.344 490.188 330.344C490.188 335.619 490.188 340.893 490.188 346.328C500.306 337.932 509.515 328.808 518.067 318.824C520.994 315.499 524.007 312.271 527.039 309.043C534.008 301.619 540.709 294.102 547.075 286.147C549.909 282.661 552.821 279.267 555.772 275.881C564.799 265.514 573.159 254.717 581.427 243.74C583.241 241.348 585.073 238.973 586.921 236.607C594.539 226.844 601.77 216.861 608.837 206.694C611.333 203.106 613.883 199.574 616.507 196.079C617.081 195.299 617.656 194.518 618.247 193.714C619.791 191.62 621.356 189.54 622.923 187.463C625.098 183.974 625.098 183.974 624.104 180.449C616.711 168.561 603.749 158.912 592.754 150.52C591.919 149.878 591.083 149.236 590.222 148.574C568.264 131.841 544.447 118.307 519.493 106.562C518.579 106.131 517.666 105.699 516.725 105.254C510.754 102.454 504.727 99.833 498.644 97.2851C495.568 95.9291 492.618 94.4195 489.636 92.8675C463.586 80.3988 433.05 84.3286 404.938 85.25ZM404.938 127.875C404.938 163.92 404.938 199.965 404.938 237.102C431.381 249.574 431.381 249.574 458.219 251.754C461.118 249.323 463.831 246.883 466.544 244.261C468.099 242.791 469.655 241.322 471.212 239.854C471.959 239.145 472.706 238.436 473.476 237.706C475.97 235.361 478.525 233.097 481.113 230.858C485.069 227.435 488.969 223.957 492.852 220.451C497.67 216.104 502.528 211.809 507.421 207.547C511.714 203.774 515.947 199.934 520.19 196.105C524.803 191.965 529.466 187.885 534.145 183.82C532.589 179.153 531.603 178.645 527.599 176.036C526.49 175.306 525.381 174.576 524.239 173.824C523.026 173.041 521.814 172.258 520.564 171.452C519.313 170.632 518.061 169.812 516.772 168.967C512.746 166.332 508.71 163.712 504.674 161.093C502.025 159.363 499.376 157.633 496.728 155.902C492.944 153.428 489.159 150.956 485.369 148.492C474.929 141.701 464.588 134.785 454.223 127.875C437.959 127.875 421.695 127.875 404.938 127.875ZM206.346 142.014C205.19 142.774 204.034 143.535 202.843 144.318C200.956 145.567 200.956 145.567 199.03 146.841C197.743 147.689 196.457 148.537 195.132 149.41C192.402 151.211 189.673 153.013 186.945 154.816C182.773 157.573 178.597 160.326 174.421 163.078C171.773 164.825 169.126 166.572 166.478 168.32C165.228 169.144 163.978 169.969 162.689 170.818C161.521 171.591 160.352 172.364 159.148 173.16C158.122 173.838 157.097 174.515 156.041 175.213C153.248 177.117 150.543 179.106 147.856 181.156C149.993 186.825 154.278 190.293 158.679 194.227C159.854 195.294 159.854 195.294 161.053 196.383C165.949 200.816 170.891 205.197 175.886 209.519C179.006 212.241 182.079 215.012 185.153 217.787C189.969 222.133 194.824 226.426 199.717 230.686C202.907 233.491 206.06 236.335 209.213 239.183C210.339 240.182 211.465 241.182 212.626 242.211C215.789 245.094 215.789 245.094 218.287 247.727C220.5 249.97 222.355 251.569 225.114 253.086C236.351 251.479 247.111 247.236 257.832 243.595C259.702 242.965 261.573 242.335 263.443 241.706C267.985 240.178 272.525 238.642 277.063 237.102C277.063 232.706 277.063 228.31 277.063 223.781C274.866 223.73 274.866 223.73 272.624 223.677C255.149 223.087 240.72 220.593 227.778 207.797C215.079 192.875 213.822 178.636 213.542 159.76C213.497 157.697 213.451 155.634 213.404 153.571C213.291 148.558 213.202 143.545 213.125 138.531C210.579 138.531 208.395 140.663 206.346 142.014ZM149.188 532.812C149.188 546.879 149.188 560.945 149.188 575.437C275.784 575.437 402.38 575.437 532.813 575.437C532.813 561.371 532.813 547.305 532.813 532.812C406.217 532.812 279.62 532.812 149.188 532.812Z" fill="#EF2626"/>
<path d="M382.667 436.334C387.339 440.22 391.552 444.769 394.281 450.227C394.944 457.485 395.295 464.022 392.2 470.707C391.128 471.861 390.057 473.015 388.953 474.203C388.337 474.868 387.72 475.532 387.085 476.217C372.229 490.637 352.348 490.789 333.008 490.562C318.826 490.122 304.877 486.137 294.67 475.796C288.236 468.482 287.237 464.011 287.354 454.192C287.85 448.792 289.369 446.196 293.047 442.235C293.663 441.57 294.28 440.906 294.915 440.221C315.955 419.798 359.33 420.413 382.667 436.334ZM313.027 454.223C311.306 456.94 311.306 456.94 310.363 459.551C312.053 460.787 312.053 460.787 313.776 462.049C314.41 462.512 315.044 462.976 315.696 463.454C323.652 467.719 331.865 468.059 340.667 468.043C341.84 468.041 343.014 468.039 344.223 468.036C352.919 467.873 361.536 467.173 368.973 462.215C370.694 459.498 370.694 459.498 371.637 456.887C370.51 456.063 369.384 455.239 368.223 454.39C367.59 453.926 366.956 453.462 366.303 452.985C358.348 448.719 350.135 448.379 341.333 448.395C339.573 448.399 339.573 448.399 337.777 448.402C329.08 448.565 320.463 449.265 313.027 454.223Z" fill="#EF2626"/>
<path d="M382.667 351.084C387.339 354.97 391.552 359.519 394.281 364.977C394.944 372.235 395.295 378.772 392.2 385.457C391.128 386.611 390.057 387.765 388.953 388.953C388.337 389.618 387.72 390.282 387.085 390.967C372.229 405.387 352.348 405.539 333.008 405.312C318.826 404.872 304.877 400.887 294.67 390.546C288.236 383.232 287.237 378.761 287.354 368.942C287.85 363.542 289.369 360.946 293.047 356.985C293.663 356.32 294.28 355.656 294.915 354.971C315.955 334.548 359.33 335.163 382.667 351.084ZM313.027 368.973C311.306 371.69 311.306 371.69 310.363 374.301C312.053 375.537 312.053 375.537 313.776 376.799C314.41 377.262 315.044 377.726 315.696 378.204C323.652 382.469 331.865 382.809 340.667 382.793C341.84 382.791 343.014 382.789 344.223 382.786C352.919 382.623 361.536 381.923 368.973 376.965C370.694 374.248 370.694 374.248 371.637 371.637C370.51 370.813 369.384 369.989 368.223 369.14C367.59 368.676 366.956 368.212 366.303 367.735C358.348 363.469 350.135 363.129 341.333 363.145C339.573 363.149 339.573 363.149 337.777 363.152C329.08 363.315 320.463 364.015 313.027 368.973Z" fill="#EF2626"/>
<path d="M382.667 265.834C387.339 269.72 391.552 274.269 394.281 279.727C394.944 286.985 395.295 293.522 392.2 300.207C391.128 301.361 390.057 302.515 388.953 303.703C388.337 304.368 387.72 305.032 387.085 305.717C372.229 320.137 352.348 320.289 333.008 320.062C318.826 319.622 304.877 315.637 294.67 305.296C288.236 297.982 287.237 293.511 287.354 283.692C287.85 278.292 289.369 275.696 293.047 271.735C293.663 271.07 294.28 270.406 294.915 269.721C315.955 249.298 359.33 249.913 382.667 265.834ZM313.027 283.723C311.306 286.44 311.306 286.44 310.363 289.051C312.053 290.287 312.053 290.287 313.776 291.549C314.41 292.012 315.044 292.476 315.696 292.954C323.652 297.219 331.865 297.559 340.667 297.543C341.84 297.541 343.014 297.539 344.223 297.536C352.919 297.373 361.536 296.673 368.973 291.715C370.694 288.998 370.694 288.998 371.637 286.387C370.51 285.563 369.384 284.739 368.223 283.89C367.59 283.426 366.956 282.962 366.303 282.485C358.348 278.219 350.135 277.879 341.333 277.895C339.573 277.899 339.573 277.899 337.777 277.902C329.08 278.065 320.463 278.765 313.027 283.723Z" fill="#EF2626"/>
</g>
<defs>
<clipPath id="clip0_965_6875">
<rect width="682" height="682" fill="white"/>
</clipPath>
</defs>
</svg>
