<svg width="682" height="682" viewBox="0 0 682 682" fill="none" xmlns="http://www.w3.org/2000/svg">
<g clip-path="url(#clip0_965_6876)">
<path d="M73.4284 45.7044C74.6647 46.817 74.6647 46.817 75.9259 47.9522C79.5739 46.3471 82.1738 44.556 85.3334 42.0413C95.268 34.9331 106.457 33.8107 118.353 35.1105C129.194 37.3164 139.516 43.2493 146.024 52.2917C154.419 65.4898 154.896 77.0252 154.776 92.3671C154.771 94.2034 154.767 96.0398 154.765 97.8762C154.754 102.676 154.728 107.476 154.699 112.276C154.671 117.188 154.659 122.099 154.646 127.01C154.619 136.623 154.567 146.234 154.516 155.847C172.099 155.847 189.681 155.847 207.797 155.847C207.588 144.61 207.588 144.61 207.317 133.375C207.172 117.87 210.932 107.401 221.716 96.1759C231.111 88.061 242.128 84.9289 254.418 85.249C261.276 85.9117 267.059 87.2501 272.983 90.8269C275.003 92.022 275.003 92.022 277.063 93.2412C281.608 91.726 282.193 90.7089 284.972 86.9973C292.695 77.9756 302.868 73.2317 314.609 71.9287C327.52 71.509 337.306 74.751 347.66 82.585C351.044 85.944 354.085 89.459 356.985 93.2412C360.685 91.7835 364.246 90.2767 367.807 88.4959C378.214 84.0713 390.353 84.2285 400.942 87.9131C407.384 91.125 413.333 94.5958 418.258 99.9014C421.977 98.4365 425.571 96.9171 429.164 95.156C438.96 90.9913 449.599 90.9561 459.551 94.5733C469.143 99.0965 475.763 105.576 480.406 115.069C483.209 122.898 482.62 130.994 482.445 139.196C482.363 144.691 482.28 150.186 482.195 155.847C497.141 155.847 512.086 155.847 527.485 155.847C527.438 150.04 527.392 144.232 527.344 138.249C527.318 133.587 527.297 128.924 527.278 124.262C527.257 119.358 527.229 114.454 527.183 109.55C527.139 104.817 527.116 100.084 527.105 95.3512C527.095 92.6879 527.063 90.0246 527.032 87.3614C527.029 72.2235 529.482 59.6986 539.473 47.9522C549.022 39.0629 559.141 35.1835 572.128 34.4653C584.667 34.9152 594.693 39.0318 603.41 47.9522C607.485 46.0129 611.192 43.7337 614.982 41.292C625.144 35.1651 635.757 32.8443 647.471 35.5944C663 39.9731 671.264 45.7778 679.336 59.9404C682.776 67.6734 682.339 75.2782 682.26 83.5736C682.255 85.8184 682.255 85.8184 682.249 88.1086C682.234 92.8722 682.201 97.6354 682.167 102.399C682.153 105.635 682.141 108.872 682.13 112.108C682.101 120.028 682.055 127.947 682 135.866C674.967 135.866 667.934 135.866 660.688 135.866C660.675 133.971 660.663 132.076 660.65 130.124C660.597 123.078 660.509 116.033 660.411 108.988C660.374 105.942 660.345 102.895 660.327 99.8487C660.298 95.4636 660.236 91.0801 660.167 86.6955C660.165 84.6596 660.165 84.6596 660.162 82.5825C659.999 74.6222 659.312 70.0078 654.027 63.9365C648.257 59.0842 642.886 56.8561 635.379 57.2764C631.99 58.2824 629.235 59.651 626.055 61.2725C624.736 61.712 623.417 62.1516 622.059 62.6045C617.095 70.1965 616.337 79.2364 616.383 88.0663C616.378 89.1165 616.373 90.1668 616.368 91.2488C616.354 94.7479 616.359 98.2466 616.365 101.746C616.359 104.262 616.352 106.779 616.344 109.296C616.326 116.119 616.326 122.941 616.329 129.764C616.33 135.464 616.324 141.164 616.317 146.864C616.303 160.314 616.302 173.763 616.31 187.212C616.318 201.078 616.302 214.943 616.273 228.809C616.25 240.723 616.242 252.637 616.246 264.552C616.249 271.664 616.245 278.775 616.227 285.887C616.21 292.575 616.213 299.262 616.23 305.95C616.233 308.401 616.229 310.852 616.218 313.302C616.204 316.655 616.215 320.007 616.232 323.36C616.222 324.323 616.212 325.286 616.202 326.278C616.294 334.998 618.359 342.052 623.807 348.825C629.452 353.288 634.173 354.634 641.29 354.319C648.026 353.375 652.353 350.127 656.692 344.995C659.403 340.578 659.699 337.142 659.727 331.997C659.741 330.432 659.756 328.867 659.772 327.254C659.776 324.686 659.776 324.686 659.78 322.066C659.793 320.241 659.806 318.416 659.821 316.591C659.857 311.64 659.877 306.69 659.895 301.739C659.916 296.564 659.951 291.389 659.985 286.214C660.048 276.416 660.097 266.618 660.141 256.82C660.192 245.664 660.257 234.509 660.325 223.353C660.462 200.407 660.581 177.461 660.688 154.515C667.721 154.515 674.754 154.515 682 154.515C682.124 178.969 682.219 203.424 682.276 227.879C682.304 239.235 682.341 250.59 682.402 261.946C682.455 271.847 682.49 281.747 682.501 291.648C682.508 296.888 682.525 302.127 682.563 307.366C682.6 312.305 682.611 317.243 682.603 322.181C682.605 324.844 682.634 327.506 682.663 330.168C682.619 339.888 681.574 347.189 676.672 355.651C676.078 356.714 675.484 357.777 674.872 358.872C668.651 367.516 660.21 373.182 649.948 376.131C634.644 378.561 622.648 375.9 609.951 366.844C609.111 366.227 608.271 365.611 607.406 364.976C606.088 364.096 604.769 363.217 603.41 362.312C603.41 363.191 603.41 364.07 603.41 364.976C591.977 373.887 580.674 378.488 566.113 376.964C552.819 374.469 542.143 368.198 534.431 357.004C529.222 348.362 527.312 340.173 527.333 330.12C527.333 328.494 527.333 326.867 527.334 325.192C527.34 323.449 527.347 321.706 527.354 319.91C527.357 318.098 527.359 316.286 527.36 314.474C527.365 309.72 527.378 304.965 527.393 300.211C527.407 295.354 527.413 290.497 527.419 285.639C527.434 276.12 527.457 266.6 527.485 257.081C516.495 257.081 505.506 257.081 494.184 257.081C494.307 264.746 494.307 264.746 494.433 272.566C494.498 285.306 494.057 296.806 490.188 309.03C489.781 310.359 489.374 311.688 488.954 313.058C482.871 330.622 472.87 346.998 462.714 362.478C458.267 369.494 456.587 375.326 456.887 383.624C458.535 384.036 458.535 384.036 460.217 384.457C471.184 388.765 476.804 394.91 481.87 405.494C484.959 414.388 484.616 423.334 484.495 432.628C484.494 434.754 484.495 436.879 484.499 439.004C484.499 443.431 484.472 447.857 484.423 452.283C484.363 457.924 484.361 463.562 484.379 469.202C484.388 473.582 484.37 477.961 484.344 482.34C484.334 484.418 484.331 486.497 484.335 488.575C484.34 501.733 483.654 513.277 475.676 524.315C474.411 525.512 474.411 525.512 473.121 526.734C472.288 527.557 471.455 528.379 470.597 529.227C467.543 531.48 467.543 531.48 458.219 535.476C457.779 572.4 457.34 609.323 456.887 647.366C449.854 647.366 442.821 647.366 435.574 647.366C435.574 637.256 435.574 627.146 435.574 616.73C428.102 616.73 420.629 616.73 412.93 616.73C412.93 609.696 412.93 602.663 412.93 595.417C420.403 595.417 427.875 595.417 435.574 595.417C435.574 589.263 435.574 583.109 435.574 576.769C421.508 576.769 407.442 576.769 392.949 576.769C392.949 569.735 392.949 562.702 392.949 555.456C407.016 555.456 421.082 555.456 435.574 555.456C435.574 549.302 435.574 543.148 435.574 536.808C376.672 536.808 317.77 536.808 257.082 536.808C257.082 573.292 257.082 609.776 257.082 647.366C250.049 647.366 243.016 647.366 235.77 647.366C235.33 610.442 234.891 573.518 234.438 535.476C229.163 532.838 229.163 532.838 223.781 530.147C215.778 524.361 211.608 516.948 209.129 507.503C208.348 500.162 208.313 492.87 208.328 485.493C208.317 483.37 208.306 481.248 208.293 479.125C208.273 474.694 208.274 470.263 208.288 465.831C208.303 460.194 208.258 454.559 208.197 448.922C208.157 444.543 208.155 440.164 208.163 435.784C208.162 433.708 208.148 431.632 208.121 429.556C207.97 416.351 209.271 405.458 217.121 394.28C222.626 388.829 228.185 385.52 235.77 383.624C235.965 374.505 235.965 374.505 232.648 366.25C230.249 363.868 227.761 361.748 225.113 359.647C223.499 358.238 221.89 356.822 220.285 355.402C219.404 354.643 218.523 353.884 217.616 353.102C212.851 348.91 208.216 344.581 203.577 340.251C202.88 339.604 202.183 338.956 201.465 338.288C200.48 337.35 200.48 337.35 199.475 336.394C197.214 334.302 197.214 334.302 194.711 332.765C190.625 329.97 188.185 327.877 187 322.959C186.737 318.748 186.768 314.632 186.906 310.414C186.919 308.888 186.932 307.362 186.946 305.79C186.998 300.93 187.115 296.073 187.234 291.214C187.281 287.914 187.323 284.613 187.361 281.313C187.456 273.233 187.638 265.161 187.817 257.081C176.827 257.081 165.838 257.081 154.516 257.081C154.537 259.473 154.558 261.864 154.579 264.329C154.644 272.277 154.69 280.225 154.723 288.173C154.744 292.987 154.772 297.801 154.817 302.615C154.861 307.27 154.885 311.925 154.895 316.58C154.906 319.199 154.937 321.818 154.969 324.437C154.971 339.489 152.458 351.969 142.527 363.644C132.432 373.041 120.937 377.473 107.171 377.245C96.4204 376.322 86.7464 372.048 78.59 364.976C78.59 364.096 78.59 363.217 78.59 362.312C77.7366 362.938 76.8832 363.565 76.004 364.211C63.624 373.122 52.8234 378.297 37.297 376.964C24.4583 374.586 14.4572 368.914 6.74355 358.315C1.79981 351.023 -0.335825 344.338 -0.32022 335.521C-0.323882 333.919 -0.327545 332.316 -0.331318 330.665C-0.32174 328.925 -0.312162 327.185 -0.302293 325.393C-0.301541 323.528 -0.301965 321.663 -0.303472 319.798C-0.304235 314.752 -0.2886 309.705 -0.269976 304.658C-0.253295 299.378 -0.251754 294.098 -0.248594 288.818C-0.240322 278.827 -0.218472 268.836 -0.191719 258.844C-0.161917 247.466 -0.147286 236.088 -0.13392 224.711C-0.106091 201.312 -0.05871 177.913 0.000145313 154.515C7.03327 154.515 14.0664 154.515 21.3126 154.515C21.3244 157.972 21.3244 157.972 21.3363 161.499C21.4125 183.197 21.5091 204.894 21.6266 226.592C21.6865 237.748 21.739 248.903 21.7741 260.059C21.8047 269.782 21.8492 279.505 21.9103 289.228C21.9422 294.377 21.9672 299.525 21.9755 304.673C21.9835 309.52 22.0102 314.367 22.051 319.213C22.0682 321.838 22.0659 324.463 22.0629 327.088C22.088 329.439 22.088 329.439 22.1136 331.837C22.1197 333.196 22.1258 334.555 22.1322 335.956C22.7244 340.244 24.2948 342.737 26.6408 346.327C26.6408 347.206 26.6408 348.085 26.6408 348.991C35.2882 353.648 42.3416 355.346 51.9494 352.987C58.5222 349.701 61.2471 346.464 63.9376 339.667C65.6422 334.534 65.4631 329.358 65.4568 324.01C65.4607 322.963 65.4647 321.916 65.4687 320.838C65.4803 317.326 65.4823 313.815 65.4843 310.304C65.4905 307.787 65.4972 305.271 65.5044 302.755C65.5218 295.916 65.5304 289.076 65.5363 282.237C65.5402 277.964 65.5457 273.69 65.5517 269.417C65.5699 256.044 65.5827 242.672 65.5879 229.3C65.5939 213.867 65.6172 198.433 65.6558 183C65.6846 171.069 65.6981 159.138 65.6998 147.206C65.7012 140.081 65.7091 132.956 65.7329 125.831C65.7549 119.127 65.7577 112.423 65.746 105.719C65.745 103.261 65.7508 100.804 65.764 98.3473C65.7809 94.9853 65.7731 91.6242 65.7592 88.2623C65.7699 87.2967 65.7806 86.331 65.7917 85.3362C65.7242 78.3076 63.9924 73.0837 61.2736 66.6006C60.6142 64.6225 60.6142 64.6225 59.9416 62.6045C57.6352 61.0604 57.6352 61.0604 54.6134 59.9404C53.4046 59.4185 52.1958 58.8965 50.9503 58.3587C43.6704 56.5387 38.2761 57.4084 31.6359 60.8562C26.6484 65.0503 23.1818 68.599 22.131 75.113C21.9011 78.9816 21.8376 82.8202 21.833 86.6955C21.8109 88.1034 21.7889 89.5112 21.7662 90.9618C21.7017 95.4402 21.6732 99.9181 21.6457 104.397C21.6081 107.441 21.5683 110.485 21.526 113.529C21.4276 120.974 21.3616 128.42 21.3126 135.866C14.2795 135.866 7.2464 135.866 0.000145313 135.866C-0.132088 126.411 -0.228512 116.956 -0.292537 107.5C-0.319243 104.287 -0.355536 101.074 -0.401806 97.8614C-0.466826 93.2287 -0.496751 88.5969 -0.520179 83.9638C-0.547679 82.5397 -0.575179 81.1157 -0.603513 79.6484C-0.607363 66.6429 3.12842 57.252 12.0144 47.7596C30.3494 30.5819 53.5046 30.9608 73.4284 45.7044ZM94.8189 62.1882C88.8859 69.0506 87.716 73.2986 87.7182 82.3597C87.7133 83.4497 87.7084 84.5396 87.7033 85.6626C87.6886 89.3357 87.6835 93.0087 87.6784 96.6819C87.6701 99.3071 87.6612 101.932 87.6519 104.557C87.6287 111.705 87.6147 118.852 87.6037 126C87.5968 130.463 87.5887 134.926 87.5804 139.389C87.555 153.346 87.536 167.303 87.5249 181.26C87.5119 197.384 87.4768 213.508 87.423 229.631C87.3829 242.085 87.3631 254.539 87.3587 266.993C87.3556 274.435 87.3436 281.877 87.3102 289.319C87.2792 296.321 87.2735 303.322 87.2872 310.324C87.2879 312.894 87.2794 315.464 87.2611 318.034C87.2376 321.543 87.247 325.05 87.2645 328.559C87.2499 329.576 87.2353 330.593 87.2202 331.64C87.3216 340.042 90.538 344.414 95.7399 350.656C100.943 354.941 105.867 355.95 112.474 355.568C118.876 354.65 123.259 352.138 127.875 347.659C133.153 340.446 133.401 333.951 133.39 325.232C133.394 324.173 133.398 323.115 133.402 322.024C133.414 318.473 133.416 314.921 133.418 311.37C133.424 308.825 133.431 306.281 133.438 303.736C133.455 296.82 133.464 289.904 133.47 282.987C133.474 278.667 133.479 274.346 133.485 270.025C133.503 256.507 133.516 242.989 133.521 229.471C133.527 213.865 133.551 198.259 133.589 182.653C133.618 170.591 133.632 158.528 133.633 146.466C133.635 139.261 133.643 132.056 133.666 124.852C133.688 118.074 133.691 111.297 133.68 104.519C133.679 102.034 133.684 99.5481 133.698 97.0626C133.714 93.6651 133.707 90.2686 133.693 86.8712C133.704 85.8913 133.714 84.9115 133.725 83.9019C133.645 75.4498 131.582 69.5036 126.21 62.9375C116.46 54.9601 104.456 53.2346 94.8189 62.1882ZM555.79 62.9375C549.64 70.4546 548.203 77.3091 548.29 86.8443C548.283 87.9064 548.277 88.9685 548.271 90.0627C548.255 93.6018 548.267 97.1402 548.28 100.679C548.275 103.225 548.267 105.77 548.259 108.315C548.241 115.215 548.248 122.114 548.26 129.013C548.27 136.239 548.261 143.465 548.255 150.691C548.247 162.824 548.257 174.958 548.276 187.092C548.298 201.113 548.291 215.134 548.269 229.156C548.251 241.201 548.248 253.247 548.259 265.293C548.265 272.484 548.266 279.675 548.252 286.866C548.241 293.627 548.249 300.388 548.272 307.149C548.277 309.629 548.276 312.108 548.267 314.587C548.256 317.975 548.27 321.363 548.29 324.751C548.281 325.729 548.272 326.706 548.263 327.712C548.358 336.15 550.427 342.103 555.79 348.658C561.535 353.359 566.762 356.164 574.272 355.485C583.305 353.445 587.299 349.453 592.754 342.331C594.827 338.185 594.283 333.787 594.282 329.236C594.287 328.146 594.292 327.056 594.297 325.933C594.312 322.26 594.317 318.587 594.322 314.914C594.33 312.289 594.339 309.663 594.348 307.038C594.372 299.891 594.386 292.743 594.397 285.596C594.403 281.133 594.412 276.67 594.42 272.207C594.445 258.25 594.464 244.293 594.475 230.336C594.488 214.212 594.523 198.088 594.577 181.964C594.617 169.51 594.637 157.057 594.642 144.603C594.645 137.161 594.657 129.719 594.69 122.276C594.721 115.275 594.727 108.273 594.713 101.272C594.712 98.7018 594.721 96.1318 594.739 93.5619C594.763 90.0529 594.753 86.5454 594.736 83.0363C594.75 82.0196 594.765 81.003 594.78 79.9555C594.697 73.0861 593.052 69.2473 588.758 63.9365C578.339 54.0662 566.924 53.8281 555.79 62.9375ZM302.98 99.1001C297.601 105.315 295.388 110.053 295.303 118.208C295.282 119.746 295.26 121.285 295.238 122.87C295.231 124.528 295.224 126.186 295.217 127.895C295.205 129.606 295.193 131.318 295.18 133.081C295.158 136.705 295.148 140.328 295.144 143.951C295.137 148.571 295.087 153.189 295.026 157.808C294.977 162.239 294.975 166.671 294.967 171.103C294.941 172.75 294.915 174.397 294.888 176.095C294.938 185.677 295.832 192.507 302.371 199.804C307.934 204.52 312.401 206.208 319.688 206.464C327.16 205.153 331.704 202.56 337.004 197.14C341.905 188.583 341.602 180.358 341.578 170.671C341.585 169.024 341.592 167.377 341.599 165.68C341.607 162.206 341.606 158.732 341.594 155.258C341.583 149.958 341.621 144.66 341.664 139.36C341.666 135.977 341.665 132.594 341.661 129.211C341.676 127.635 341.691 126.058 341.706 124.434C341.633 115.649 341.04 108.451 335.672 101.233C330.597 96.2781 325.569 93.5268 318.418 93.0695C312.524 93.4407 307.397 95.0972 302.98 99.1001ZM366.309 115.886C362.63 122.976 361.704 128.606 361.735 136.527C361.728 137.583 361.721 138.638 361.714 139.725C361.705 141.945 361.707 144.165 361.718 146.385C361.73 149.756 361.691 153.124 361.649 156.494C361.647 158.663 361.648 160.832 361.652 163.001C361.629 164.492 361.629 164.492 361.607 166.013C361.722 174.853 364.55 181.795 370.555 188.315C377.307 192.217 383.476 193.573 391.201 192.394C399.511 188.788 404.241 184.196 407.602 175.827C408.179 171.899 408.225 168.024 408.226 164.057C408.236 162.941 408.246 161.824 408.257 160.674C408.271 158.321 408.275 155.968 408.269 153.615C408.268 150.038 408.323 146.466 408.382 142.891C408.389 140.594 408.393 138.298 408.393 136.002C408.414 134.945 408.436 133.889 408.459 132.801C408.361 124.797 405.966 119.441 400.942 113.222C389.572 103.368 376.792 105.403 366.309 115.886ZM233.855 115.22C228.791 121.511 228.863 127.495 228.792 135.304C228.781 136.43 228.771 137.555 228.76 138.714C228.741 141.097 228.727 143.48 228.716 145.862C228.693 149.488 228.635 153.111 228.576 156.736C228.563 159.055 228.551 161.374 228.542 163.693C228.519 164.769 228.496 165.845 228.472 166.953C228.506 175.972 231.058 181.579 237.351 188.232C243.196 191.739 249.132 193.823 255.995 192.644C263.597 190.115 268.366 185.831 272.547 178.967C274.749 173.65 274.998 168.967 274.976 163.308C274.983 162.251 274.99 161.193 274.997 160.104C275.006 157.876 275.004 155.648 274.993 153.421C274.981 150.038 275.02 146.658 275.062 143.276C275.064 141.101 275.063 138.926 275.059 136.751C275.074 135.753 275.089 134.755 275.105 133.727C274.998 125.554 272.821 118.255 266.878 112.39C256.21 103.655 242.92 105.008 233.855 115.22ZM434.242 117.218C429.637 124.012 428.123 129.108 428.253 137.37C428.251 138.373 428.25 139.375 428.248 140.408C428.25 142.514 428.265 144.62 428.293 146.725C428.331 149.932 428.32 153.136 428.303 156.344C428.311 158.4 428.322 160.456 428.337 162.512C428.333 163.461 428.329 164.411 428.325 165.389C428.441 171.601 429.665 175.866 432.91 181.155C437.766 185.44 442.439 185.843 448.692 185.625C453.057 184.904 455.273 183.037 458.219 179.823C461.661 174.779 461.313 169.359 461.33 163.475C461.344 161.873 461.344 161.873 461.357 160.24C461.371 157.985 461.377 155.73 461.377 153.475C461.382 150.04 461.431 146.607 461.481 143.172C461.489 140.976 461.494 138.78 461.497 136.584C461.516 135.564 461.535 134.544 461.555 133.493C461.497 126.593 460.067 122.719 455.555 117.218C448.469 112.464 441.253 112.145 434.242 117.218ZM154.516 175.827C154.516 195.608 154.516 215.388 154.516 235.769C165.505 235.769 176.494 235.769 187.817 235.769C188.119 233.159 188.421 230.549 188.732 227.86C190.746 215.069 195.296 207.297 205.18 199.018C207.737 197.183 210.271 195.792 213.125 194.476C212.055 187.844 210.002 182.442 207.797 175.827C190.214 175.827 172.631 175.827 154.516 175.827ZM482.195 175.827C480.437 180.223 478.679 184.619 476.867 189.147C470.67 198.148 463.137 203.156 452.501 205.928C443.396 207.33 433.35 206.399 425.751 200.886C422.604 198.152 422.604 198.152 419.689 198.747C416.539 199.952 414.454 201.5 411.848 203.633C401.995 211.2 392.156 213.875 379.842 212.791C371.949 211.578 366.38 209.339 359.649 205.132C358.33 205.132 357.011 205.132 355.652 205.132C353.871 207.232 353.871 207.232 352.239 209.96C346.167 218.417 337.843 223.275 327.763 225.695C313.75 227.772 302.213 224.99 290.383 217.12C286.869 213.82 283.951 210.308 281.059 206.464C280.18 205.585 279.3 204.706 278.395 203.8C274.878 205.998 271.362 208.196 267.738 210.46C268.343 211.669 268.947 212.878 269.57 214.123C271.735 219.784 271.735 219.784 274.399 235.769C319.674 235.769 364.95 235.769 411.598 235.769C411.598 242.802 411.598 249.835 411.598 257.081C366.322 257.081 321.046 257.081 274.399 257.081C274.399 264.993 274.399 272.906 274.399 281.058C267.365 281.058 260.332 281.058 253.086 281.058C253.114 279.54 253.142 278.022 253.171 276.458C253.268 270.788 253.328 265.118 253.379 259.448C253.405 257.001 253.442 254.554 253.488 252.107C253.553 248.576 253.583 245.045 253.606 241.513C253.648 239.891 253.648 239.891 253.69 238.236C253.693 229.704 251.639 222.582 245.689 216.25C240.147 211.305 234.452 210.874 227.226 211.23C220.591 212.312 217.077 215.693 212.709 220.533C209.086 225.766 208.928 229.911 208.809 236.131C208.774 237.857 208.74 239.582 208.705 241.36C208.585 249.257 208.505 257.155 208.443 265.053C208.408 269.218 208.343 273.381 208.252 277.545C208.142 282.585 208.086 287.623 208.066 292.665C208.05 294.578 208.015 296.492 207.962 298.405C207.491 309.307 207.491 309.307 211.408 319.159C214.067 321.853 216.742 324.105 219.785 326.347C221.377 327.723 222.96 329.109 224.531 330.509C225.391 331.248 226.251 331.986 227.137 332.747C232.67 337.643 238.022 342.735 243.39 347.811C244.22 348.592 245.05 349.373 245.906 350.178C246.647 350.879 247.388 351.58 248.152 352.302C250.566 354.448 253.166 356.377 255.75 358.315C256.409 370.184 256.409 370.184 257.082 382.292C279.061 382.292 301.039 382.292 323.684 382.292C323.684 389.325 323.684 396.358 323.684 403.605C319.983 403.573 319.983 403.573 316.208 403.541C308.047 403.477 299.886 403.431 291.725 403.397C286.778 403.377 281.832 403.348 276.885 403.303C272.109 403.26 267.333 403.236 262.556 403.225C260.736 403.218 258.916 403.204 257.097 403.182C254.543 403.153 251.989 403.151 249.435 403.151C247.983 403.142 246.53 403.133 245.034 403.124C239.035 403.856 235.776 405.9 232.056 410.628C230.097 415.037 229.934 418.283 229.924 423.104C229.914 424.395 229.914 424.395 229.903 425.712C229.886 428.542 229.897 431.37 229.911 434.2C229.908 436.175 229.904 438.151 229.899 440.126C229.893 444.26 229.902 448.393 229.921 452.527C229.943 457.817 229.93 463.106 229.906 468.396C229.892 472.474 229.896 476.551 229.907 480.628C229.909 482.578 229.906 484.528 229.897 486.478C229.887 489.207 229.902 491.935 229.924 494.664C229.928 496.215 229.931 497.765 229.934 499.363C230.696 505.588 233.638 510.167 238.434 514.163C242.841 515.632 246.112 515.67 250.754 515.682C253.371 515.694 253.371 515.694 256.04 515.705C257.978 515.707 259.915 515.708 261.853 515.71C263.89 515.716 265.927 515.723 267.964 515.73C273.501 515.747 279.039 515.756 284.576 515.762C288.035 515.766 291.493 515.771 294.952 515.777C305.772 515.795 316.592 515.808 327.412 515.813C339.905 515.819 352.399 515.843 364.893 515.881C374.548 515.91 384.203 515.924 393.858 515.925C399.626 515.927 405.394 515.935 411.162 515.958C416.587 515.98 422.011 515.983 427.437 515.971C429.427 515.97 431.418 515.976 433.408 515.989C436.127 516.006 438.845 515.996 441.564 515.985C443.085 515.987 444.606 515.989 446.173 515.991C452.348 515.236 456.922 512.256 460.883 507.503C462.369 503.046 462.402 499.663 462.43 494.966C462.436 494.106 462.443 493.246 462.45 492.359C462.469 489.516 462.478 486.672 462.486 483.828C462.493 481.849 462.501 479.87 462.509 477.89C462.523 473.741 462.53 469.591 462.535 465.441C462.542 460.13 462.574 454.82 462.612 449.509C462.637 445.421 462.644 441.332 462.646 437.243C462.65 435.286 462.661 433.328 462.678 431.371C462.701 428.629 462.698 425.888 462.69 423.146C462.695 421.587 462.699 420.029 462.704 418.423C461.988 412.331 460.03 409.088 455.313 405.215C450.426 403.119 445.997 403.076 440.776 403.151C439.71 403.15 438.643 403.15 437.545 403.149C434.034 403.152 430.525 403.183 427.015 403.214C424.576 403.222 422.136 403.227 419.697 403.231C413.287 403.247 406.878 403.286 400.468 403.33C393.923 403.371 387.378 403.389 380.834 403.409C368 403.452 355.166 403.522 342.332 403.605C342.332 396.571 342.332 389.538 342.332 382.292C373.102 382.292 403.872 382.292 435.574 382.292C436.014 376.138 436.454 369.984 436.906 363.644C438.866 358.521 438.866 358.521 441.371 354.611C442.286 353.132 443.201 351.654 444.144 350.131C445.115 348.64 446.088 347.15 447.063 345.661C466.27 315.276 473.731 293.194 472.871 257.081C458.805 257.081 444.739 257.081 430.246 257.081C430.246 250.048 430.246 243.015 430.246 235.769C462.335 235.769 494.424 235.769 527.485 235.769C527.485 215.988 527.485 196.207 527.485 175.827C512.539 175.827 497.594 175.827 482.195 175.827Z" fill="#EF2626"/>
<path d="M352.988 555.457C360.021 555.457 367.055 555.457 374.301 555.457C374.301 562.49 374.301 569.523 374.301 576.77C367.268 576.77 360.235 576.77 352.988 576.77C352.988 569.736 352.988 562.703 352.988 555.457Z" fill="#EF2626"/>
<path d="M285.055 422.254C292.088 422.254 299.121 422.254 306.367 422.254C306.367 429.287 306.367 436.32 306.367 443.566C299.334 443.566 292.301 443.566 285.055 443.566C285.055 436.533 285.055 429.5 285.055 422.254Z" fill="#EF2626"/>
<path d="M245.094 422.254C252.127 422.254 259.16 422.254 266.406 422.254C266.406 429.287 266.406 436.32 266.406 443.566C259.373 443.566 252.34 443.566 245.094 443.566C245.094 436.533 245.094 429.5 245.094 422.254Z" fill="#EF2626"/>
</g>
<defs>
<clipPath id="clip0_965_6876">
<rect width="682" height="682" fill="white"/>
</clipPath>
</defs>
</svg>
