<?xml version="1.0" standalone="no"?>
<svg xmlns="http://www.w3.org/2000/svg" width="500" height="500"><defs><clipPath id="clip-path-dot-color"><rect x="24" y="112" width="11" height="11" transform="rotate(0,29.5,117.5)"/><rect x="24" y="123" width="11" height="11" transform="rotate(0,29.5,128.5)"/><rect x="24" y="134" width="11" height="11" transform="rotate(0,29.5,139.5)"/><rect x="24" y="145" width="11" height="11" transform="rotate(0,29.5,150.5)"/><rect x="24" y="189" width="11" height="11" transform="rotate(0,29.5,194.5)"/><rect x="24" y="244" width="11" height="11" transform="rotate(0,29.5,249.5)"/><rect x="24" y="255" width="11" height="11" transform="rotate(0,29.5,260.5)"/><rect x="24" y="266" width="11" height="11" transform="rotate(0,29.5,271.5)"/><rect x="24" y="277" width="11" height="11" transform="rotate(0,29.5,282.5)"/><rect x="24" y="288" width="11" height="11" transform="rotate(0,29.5,293.5)"/><rect x="24" y="332" width="11" height="11" transform="rotate(0,29.5,337.5)"/><rect x="24" y="343" width="11" height="11" transform="rotate(0,29.5,348.5)"/><rect x="24" y="354" width="11" height="11" transform="rotate(0,29.5,359.5)"/><rect x="24" y="365" width="11" height="11" transform="rotate(0,29.5,370.5)"/><rect x="24" y="376" width="11" height="11" transform="rotate(0,29.5,381.5)"/><rect x="35" y="123" width="11" height="11" transform="rotate(0,40.5,128.5)"/><rect x="35" y="156" width="11" height="11" transform="rotate(0,40.5,161.5)"/><rect x="35" y="222" width="11" height="11" transform="rotate(0,40.5,227.5)"/><rect x="35" y="233" width="11" height="11" transform="rotate(0,40.5,238.5)"/><rect x="35" y="255" width="11" height="11" transform="rotate(0,40.5,260.5)"/><rect x="35" y="288" width="11" height="11" transform="rotate(0,40.5,293.5)"/><rect x="35" y="321" width="11" height="11" transform="rotate(0,40.5,326.5)"/><rect x="35" y="354" width="11" height="11" transform="rotate(0,40.5,359.5)"/><rect x="35" y="376" width="11" height="11" transform="rotate(0,40.5,381.5)"/><rect x="46" y="123" width="11" height="11" transform="rotate(0,51.5,128.5)"/><rect x="46" y="134" width="11" height="11" transform="rotate(0,51.5,139.5)"/><rect x="46" y="145" width="11" height="11" transform="rotate(0,51.5,150.5)"/><rect x="46" y="156" width="11" height="11" transform="rotate(0,51.5,161.5)"/><rect x="46" y="167" width="11" height="11" transform="rotate(0,51.5,172.5)"/><rect x="46" y="189" width="11" height="11" transform="rotate(0,51.5,194.5)"/><rect x="46" y="233" width="11" height="11" transform="rotate(0,51.5,238.5)"/><rect x="46" y="244" width="11" height="11" transform="rotate(0,51.5,249.5)"/><rect x="46" y="277" width="11" height="11" transform="rotate(0,51.5,282.5)"/><rect x="46" y="288" width="11" height="11" transform="rotate(0,51.5,293.5)"/><rect x="46" y="310" width="11" height="11" transform="rotate(0,51.5,315.5)"/><rect x="46" y="332" width="11" height="11" transform="rotate(0,51.5,337.5)"/><rect x="46" y="376" width="11" height="11" transform="rotate(0,51.5,381.5)"/><rect x="57" y="123" width="11" height="11" transform="rotate(0,62.5,128.5)"/><rect x="57" y="134" width="11" height="11" transform="rotate(0,62.5,139.5)"/><rect x="57" y="145" width="11" height="11" transform="rotate(0,62.5,150.5)"/><rect x="57" y="167" width="11" height="11" transform="rotate(0,62.5,172.5)"/><rect x="57" y="178" width="11" height="11" transform="rotate(0,62.5,183.5)"/><rect x="57" y="200" width="11" height="11" transform="rotate(0,62.5,205.5)"/><rect x="57" y="211" width="11" height="11" transform="rotate(0,62.5,216.5)"/><rect x="57" y="222" width="11" height="11" transform="rotate(0,62.5,227.5)"/><rect x="57" y="233" width="11" height="11" transform="rotate(0,62.5,238.5)"/><rect x="57" y="244" width="11" height="11" transform="rotate(0,62.5,249.5)"/><rect x="57" y="332" width="11" height="11" transform="rotate(0,62.5,337.5)"/><rect x="57" y="365" width="11" height="11" transform="rotate(0,62.5,370.5)"/><rect x="57" y="376" width="11" height="11" transform="rotate(0,62.5,381.5)"/><rect x="68" y="112" width="11" height="11" transform="rotate(0,73.5,117.5)"/><rect x="68" y="145" width="11" height="11" transform="rotate(0,73.5,150.5)"/><rect x="68" y="156" width="11" height="11" transform="rotate(0,73.5,161.5)"/><rect x="68" y="167" width="11" height="11" transform="rotate(0,73.5,172.5)"/><rect x="68" y="178" width="11" height="11" transform="rotate(0,73.5,183.5)"/><rect x="68" y="189" width="11" height="11" transform="rotate(0,73.5,194.5)"/><rect x="68" y="200" width="11" height="11" transform="rotate(0,73.5,205.5)"/><rect x="68" y="211" width="11" height="11" transform="rotate(0,73.5,216.5)"/><rect x="68" y="222" width="11" height="11" transform="rotate(0,73.5,227.5)"/><rect x="68" y="277" width="11" height="11" transform="rotate(0,73.5,282.5)"/><rect x="68" y="288" width="11" height="11" transform="rotate(0,73.5,293.5)"/><rect x="68" y="310" width="11" height="11" transform="rotate(0,73.5,315.5)"/><rect x="68" y="332" width="11" height="11" transform="rotate(0,73.5,337.5)"/><rect x="68" y="354" width="11" height="11" transform="rotate(0,73.5,359.5)"/><rect x="68" y="365" width="11" height="11" transform="rotate(0,73.5,370.5)"/><rect x="68" y="376" width="11" height="11" transform="rotate(0,73.5,381.5)"/><rect x="79" y="112" width="11" height="11" transform="rotate(0,84.5,117.5)"/><rect x="79" y="178" width="11" height="11" transform="rotate(0,84.5,183.5)"/><rect x="79" y="189" width="11" height="11" transform="rotate(0,84.5,194.5)"/><rect x="79" y="200" width="11" height="11" transform="rotate(0,84.5,205.5)"/><rect x="79" y="244" width="11" height="11" transform="rotate(0,84.5,249.5)"/><rect x="79" y="255" width="11" height="11" transform="rotate(0,84.5,260.5)"/><rect x="79" y="277" width="11" height="11" transform="rotate(0,84.5,282.5)"/><rect x="79" y="288" width="11" height="11" transform="rotate(0,84.5,293.5)"/><rect x="79" y="299" width="11" height="11" transform="rotate(0,84.5,304.5)"/><rect x="79" y="310" width="11" height="11" transform="rotate(0,84.5,315.5)"/><rect x="79" y="321" width="11" height="11" transform="rotate(0,84.5,326.5)"/><rect x="79" y="354" width="11" height="11" transform="rotate(0,84.5,359.5)"/><rect x="79" y="376" width="11" height="11" transform="rotate(0,84.5,381.5)"/><rect x="90" y="112" width="11" height="11" transform="rotate(0,95.5,117.5)"/><rect x="90" y="134" width="11" height="11" transform="rotate(0,95.5,139.5)"/><rect x="90" y="156" width="11" height="11" transform="rotate(0,95.5,161.5)"/><rect x="90" y="178" width="11" height="11" transform="rotate(0,95.5,183.5)"/><rect x="90" y="200" width="11" height="11" transform="rotate(0,95.5,205.5)"/><rect x="90" y="222" width="11" height="11" transform="rotate(0,95.5,227.5)"/><rect x="90" y="244" width="11" height="11" transform="rotate(0,95.5,249.5)"/><rect x="90" y="266" width="11" height="11" transform="rotate(0,95.5,271.5)"/><rect x="90" y="288" width="11" height="11" transform="rotate(0,95.5,293.5)"/><rect x="90" y="310" width="11" height="11" transform="rotate(0,95.5,315.5)"/><rect x="90" y="332" width="11" height="11" transform="rotate(0,95.5,337.5)"/><rect x="90" y="354" width="11" height="11" transform="rotate(0,95.5,359.5)"/><rect x="90" y="376" width="11" height="11" transform="rotate(0,95.5,381.5)"/><rect x="101" y="123" width="11" height="11" transform="rotate(0,106.5,128.5)"/><rect x="101" y="156" width="11" height="11" transform="rotate(0,106.5,161.5)"/><rect x="101" y="167" width="11" height="11" transform="rotate(0,106.5,172.5)"/><rect x="101" y="178" width="11" height="11" transform="rotate(0,106.5,183.5)"/><rect x="101" y="189" width="11" height="11" transform="rotate(0,106.5,194.5)"/><rect x="101" y="200" width="11" height="11" transform="rotate(0,106.5,205.5)"/><rect x="101" y="211" width="11" height="11" transform="rotate(0,106.5,216.5)"/><rect x="101" y="244" width="11" height="11" transform="rotate(0,106.5,249.5)"/><rect x="101" y="255" width="11" height="11" transform="rotate(0,106.5,260.5)"/><rect x="101" y="310" width="11" height="11" transform="rotate(0,106.5,315.5)"/><rect x="101" y="321" width="11" height="11" transform="rotate(0,106.5,326.5)"/><rect x="101" y="354" width="11" height="11" transform="rotate(0,106.5,359.5)"/><rect x="101" y="365" width="11" height="11" transform="rotate(0,106.5,370.5)"/><rect x="101" y="376" width="11" height="11" transform="rotate(0,106.5,381.5)"/><rect x="112" y="35" width="11" height="11" transform="rotate(0,117.5,40.5)"/><rect x="112" y="46" width="11" height="11" transform="rotate(0,117.5,51.5)"/><rect x="112" y="57" width="11" height="11" transform="rotate(0,117.5,62.5)"/><rect x="112" y="68" width="11" height="11" transform="rotate(0,117.5,73.5)"/><rect x="112" y="79" width="11" height="11" transform="rotate(0,117.5,84.5)"/><rect x="112" y="90" width="11" height="11" transform="rotate(0,117.5,95.5)"/><rect x="112" y="101" width="11" height="11" transform="rotate(0,117.5,106.5)"/><rect x="112" y="123" width="11" height="11" transform="rotate(0,117.5,128.5)"/><rect x="112" y="145" width="11" height="11" transform="rotate(0,117.5,150.5)"/><rect x="112" y="156" width="11" height="11" transform="rotate(0,117.5,161.5)"/><rect x="112" y="167" width="11" height="11" transform="rotate(0,117.5,172.5)"/><rect x="112" y="200" width="11" height="11" transform="rotate(0,117.5,205.5)"/><rect x="112" y="211" width="11" height="11" transform="rotate(0,117.5,216.5)"/><rect x="112" y="277" width="11" height="11" transform="rotate(0,117.5,282.5)"/><rect x="112" y="299" width="11" height="11" transform="rotate(0,117.5,304.5)"/><rect x="112" y="310" width="11" height="11" transform="rotate(0,117.5,315.5)"/><rect x="112" y="321" width="11" height="11" transform="rotate(0,117.5,326.5)"/><rect x="112" y="343" width="11" height="11" transform="rotate(0,117.5,348.5)"/><rect x="112" y="365" width="11" height="11" transform="rotate(0,117.5,370.5)"/><rect x="112" y="376" width="11" height="11" transform="rotate(0,117.5,381.5)"/><rect x="112" y="409" width="11" height="11" transform="rotate(0,117.5,414.5)"/><rect x="112" y="420" width="11" height="11" transform="rotate(0,117.5,425.5)"/><rect x="112" y="464" width="11" height="11" transform="rotate(0,117.5,469.5)"/><rect x="123" y="24" width="11" height="11" transform="rotate(0,128.5,29.5)"/><rect x="123" y="79" width="11" height="11" transform="rotate(0,128.5,84.5)"/><rect x="123" y="112" width="11" height="11" transform="rotate(0,128.5,117.5)"/><rect x="123" y="134" width="11" height="11" transform="rotate(0,128.5,139.5)"/><rect x="123" y="211" width="11" height="11" transform="rotate(0,128.5,216.5)"/><rect x="123" y="233" width="11" height="11" transform="rotate(0,128.5,238.5)"/><rect x="123" y="332" width="11" height="11" transform="rotate(0,128.5,337.5)"/><rect x="123" y="354" width="11" height="11" transform="rotate(0,128.5,359.5)"/><rect x="123" y="365" width="11" height="11" transform="rotate(0,128.5,370.5)"/><rect x="123" y="376" width="11" height="11" transform="rotate(0,128.5,381.5)"/><rect x="123" y="398" width="11" height="11" transform="rotate(0,128.5,403.5)"/><rect x="123" y="420" width="11" height="11" transform="rotate(0,128.5,425.5)"/><rect x="123" y="442" width="11" height="11" transform="rotate(0,128.5,447.5)"/><rect x="123" y="453" width="11" height="11" transform="rotate(0,128.5,458.5)"/><rect x="123" y="464" width="11" height="11" transform="rotate(0,128.5,469.5)"/><rect x="134" y="24" width="11" height="11" transform="rotate(0,139.5,29.5)"/><rect x="134" y="35" width="11" height="11" transform="rotate(0,139.5,40.5)"/><rect x="134" y="46" width="11" height="11" transform="rotate(0,139.5,51.5)"/><rect x="134" y="57" width="11" height="11" transform="rotate(0,139.5,62.5)"/><rect x="134" y="68" width="11" height="11" transform="rotate(0,139.5,73.5)"/><rect x="134" y="79" width="11" height="11" transform="rotate(0,139.5,84.5)"/><rect x="134" y="90" width="11" height="11" transform="rotate(0,139.5,95.5)"/><rect x="134" y="112" width="11" height="11" transform="rotate(0,139.5,117.5)"/><rect x="134" y="134" width="11" height="11" transform="rotate(0,139.5,139.5)"/><rect x="134" y="145" width="11" height="11" transform="rotate(0,139.5,150.5)"/><rect x="134" y="167" width="11" height="11" transform="rotate(0,139.5,172.5)"/><rect x="134" y="178" width="11" height="11" transform="rotate(0,139.5,183.5)"/><rect x="134" y="189" width="11" height="11" transform="rotate(0,139.5,194.5)"/><rect x="134" y="200" width="11" height="11" transform="rotate(0,139.5,205.5)"/><rect x="134" y="222" width="11" height="11" transform="rotate(0,139.5,227.5)"/><rect x="134" y="233" width="11" height="11" transform="rotate(0,139.5,238.5)"/><rect x="134" y="244" width="11" height="11" transform="rotate(0,139.5,249.5)"/><rect x="134" y="255" width="11" height="11" transform="rotate(0,139.5,260.5)"/><rect x="134" y="277" width="11" height="11" transform="rotate(0,139.5,282.5)"/><rect x="134" y="288" width="11" height="11" transform="rotate(0,139.5,293.5)"/><rect x="134" y="321" width="11" height="11" transform="rotate(0,139.5,326.5)"/><rect x="134" y="343" width="11" height="11" transform="rotate(0,139.5,348.5)"/><rect x="134" y="354" width="11" height="11" transform="rotate(0,139.5,359.5)"/><rect x="134" y="376" width="11" height="11" transform="rotate(0,139.5,381.5)"/><rect x="134" y="398" width="11" height="11" transform="rotate(0,139.5,403.5)"/><rect x="134" y="409" width="11" height="11" transform="rotate(0,139.5,414.5)"/><rect x="134" y="453" width="11" height="11" transform="rotate(0,139.5,458.5)"/><rect x="145" y="24" width="11" height="11" transform="rotate(0,150.5,29.5)"/><rect x="145" y="46" width="11" height="11" transform="rotate(0,150.5,51.5)"/><rect x="145" y="57" width="11" height="11" transform="rotate(0,150.5,62.5)"/><rect x="145" y="68" width="11" height="11" transform="rotate(0,150.5,73.5)"/><rect x="145" y="79" width="11" height="11" transform="rotate(0,150.5,84.5)"/><rect x="145" y="123" width="11" height="11" transform="rotate(0,150.5,128.5)"/><rect x="145" y="134" width="11" height="11" transform="rotate(0,150.5,139.5)"/><rect x="145" y="145" width="11" height="11" transform="rotate(0,150.5,150.5)"/><rect x="145" y="178" width="11" height="11" transform="rotate(0,150.5,183.5)"/><rect x="145" y="200" width="11" height="11" transform="rotate(0,150.5,205.5)"/><rect x="145" y="211" width="11" height="11" transform="rotate(0,150.5,216.5)"/><rect x="145" y="222" width="11" height="11" transform="rotate(0,150.5,227.5)"/><rect x="145" y="233" width="11" height="11" transform="rotate(0,150.5,238.5)"/><rect x="145" y="288" width="11" height="11" transform="rotate(0,150.5,293.5)"/><rect x="145" y="332" width="11" height="11" transform="rotate(0,150.5,337.5)"/><rect x="145" y="354" width="11" height="11" transform="rotate(0,150.5,359.5)"/><rect x="145" y="365" width="11" height="11" transform="rotate(0,150.5,370.5)"/><rect x="145" y="376" width="11" height="11" transform="rotate(0,150.5,381.5)"/><rect x="145" y="420" width="11" height="11" transform="rotate(0,150.5,425.5)"/><rect x="145" y="431" width="11" height="11" transform="rotate(0,150.5,436.5)"/><rect x="156" y="35" width="11" height="11" transform="rotate(0,161.5,40.5)"/><rect x="156" y="46" width="11" height="11" transform="rotate(0,161.5,51.5)"/><rect x="156" y="57" width="11" height="11" transform="rotate(0,161.5,62.5)"/><rect x="156" y="68" width="11" height="11" transform="rotate(0,161.5,73.5)"/><rect x="156" y="90" width="11" height="11" transform="rotate(0,161.5,95.5)"/><rect x="156" y="101" width="11" height="11" transform="rotate(0,161.5,106.5)"/><rect x="156" y="123" width="11" height="11" transform="rotate(0,161.5,128.5)"/><rect x="156" y="134" width="11" height="11" transform="rotate(0,161.5,139.5)"/><rect x="156" y="145" width="11" height="11" transform="rotate(0,161.5,150.5)"/><rect x="156" y="156" width="11" height="11" transform="rotate(0,161.5,161.5)"/><rect x="156" y="167" width="11" height="11" transform="rotate(0,161.5,172.5)"/><rect x="156" y="178" width="11" height="11" transform="rotate(0,161.5,183.5)"/><rect x="156" y="189" width="11" height="11" transform="rotate(0,161.5,194.5)"/><rect x="156" y="200" width="11" height="11" transform="rotate(0,161.5,205.5)"/><rect x="156" y="233" width="11" height="11" transform="rotate(0,161.5,238.5)"/><rect x="156" y="244" width="11" height="11" transform="rotate(0,161.5,249.5)"/><rect x="156" y="255" width="11" height="11" transform="rotate(0,161.5,260.5)"/><rect x="156" y="299" width="11" height="11" transform="rotate(0,161.5,304.5)"/><rect x="156" y="310" width="11" height="11" transform="rotate(0,161.5,315.5)"/><rect x="156" y="343" width="11" height="11" transform="rotate(0,161.5,348.5)"/><rect x="156" y="365" width="11" height="11" transform="rotate(0,161.5,370.5)"/><rect x="156" y="431" width="11" height="11" transform="rotate(0,161.5,436.5)"/><rect x="156" y="442" width="11" height="11" transform="rotate(0,161.5,447.5)"/><rect x="167" y="24" width="11" height="11" transform="rotate(0,172.5,29.5)"/><rect x="167" y="46" width="11" height="11" transform="rotate(0,172.5,51.5)"/><rect x="167" y="101" width="11" height="11" transform="rotate(0,172.5,106.5)"/><rect x="167" y="112" width="11" height="11" transform="rotate(0,172.5,117.5)"/><rect x="167" y="123" width="11" height="11" transform="rotate(0,172.5,128.5)"/><rect x="167" y="145" width="11" height="11" transform="rotate(0,172.5,150.5)"/><rect x="167" y="156" width="11" height="11" transform="rotate(0,172.5,161.5)"/><rect x="167" y="189" width="11" height="11" transform="rotate(0,172.5,194.5)"/><rect x="167" y="200" width="11" height="11" transform="rotate(0,172.5,205.5)"/><rect x="167" y="222" width="11" height="11" transform="rotate(0,172.5,227.5)"/><rect x="167" y="233" width="11" height="11" transform="rotate(0,172.5,238.5)"/><rect x="167" y="244" width="11" height="11" transform="rotate(0,172.5,249.5)"/><rect x="167" y="255" width="11" height="11" transform="rotate(0,172.5,260.5)"/><rect x="167" y="288" width="11" height="11" transform="rotate(0,172.5,293.5)"/><rect x="167" y="310" width="11" height="11" transform="rotate(0,172.5,315.5)"/><rect x="167" y="321" width="11" height="11" transform="rotate(0,172.5,326.5)"/><rect x="167" y="332" width="11" height="11" transform="rotate(0,172.5,337.5)"/><rect x="167" y="354" width="11" height="11" transform="rotate(0,172.5,359.5)"/><rect x="167" y="376" width="11" height="11" transform="rotate(0,172.5,381.5)"/><rect x="167" y="387" width="11" height="11" transform="rotate(0,172.5,392.5)"/><rect x="167" y="398" width="11" height="11" transform="rotate(0,172.5,403.5)"/><rect x="167" y="420" width="11" height="11" transform="rotate(0,172.5,425.5)"/><rect x="167" y="431" width="11" height="11" transform="rotate(0,172.5,436.5)"/><rect x="167" y="442" width="11" height="11" transform="rotate(0,172.5,447.5)"/><rect x="167" y="453" width="11" height="11" transform="rotate(0,172.5,458.5)"/><rect x="167" y="464" width="11" height="11" transform="rotate(0,172.5,469.5)"/><rect x="178" y="35" width="11" height="11" transform="rotate(0,183.5,40.5)"/><rect x="178" y="46" width="11" height="11" transform="rotate(0,183.5,51.5)"/><rect x="178" y="68" width="11" height="11" transform="rotate(0,183.5,73.5)"/><rect x="178" y="90" width="11" height="11" transform="rotate(0,183.5,95.5)"/><rect x="178" y="101" width="11" height="11" transform="rotate(0,183.5,106.5)"/><rect x="178" y="112" width="11" height="11" transform="rotate(0,183.5,117.5)"/><rect x="178" y="123" width="11" height="11" transform="rotate(0,183.5,128.5)"/><rect x="178" y="134" width="11" height="11" transform="rotate(0,183.5,139.5)"/><rect x="178" y="156" width="11" height="11" transform="rotate(0,183.5,161.5)"/><rect x="178" y="178" width="11" height="11" transform="rotate(0,183.5,183.5)"/><rect x="178" y="222" width="11" height="11" transform="rotate(0,183.5,227.5)"/><rect x="178" y="244" width="11" height="11" transform="rotate(0,183.5,249.5)"/><rect x="178" y="343" width="11" height="11" transform="rotate(0,183.5,348.5)"/><rect x="178" y="354" width="11" height="11" transform="rotate(0,183.5,359.5)"/><rect x="178" y="376" width="11" height="11" transform="rotate(0,183.5,381.5)"/><rect x="178" y="387" width="11" height="11" transform="rotate(0,183.5,392.5)"/><rect x="178" y="409" width="11" height="11" transform="rotate(0,183.5,414.5)"/><rect x="178" y="420" width="11" height="11" transform="rotate(0,183.5,425.5)"/><rect x="178" y="442" width="11" height="11" transform="rotate(0,183.5,447.5)"/><rect x="189" y="24" width="11" height="11" transform="rotate(0,194.5,29.5)"/><rect x="189" y="35" width="11" height="11" transform="rotate(0,194.5,40.5)"/><rect x="189" y="46" width="11" height="11" transform="rotate(0,194.5,51.5)"/><rect x="189" y="79" width="11" height="11" transform="rotate(0,194.5,84.5)"/><rect x="189" y="101" width="11" height="11" transform="rotate(0,194.5,106.5)"/><rect x="189" y="123" width="11" height="11" transform="rotate(0,194.5,128.5)"/><rect x="189" y="134" width="11" height="11" transform="rotate(0,194.5,139.5)"/><rect x="189" y="145" width="11" height="11" transform="rotate(0,194.5,150.5)"/><rect x="189" y="167" width="11" height="11" transform="rotate(0,194.5,172.5)"/><rect x="189" y="178" width="11" height="11" transform="rotate(0,194.5,183.5)"/><rect x="189" y="189" width="11" height="11" transform="rotate(0,194.5,194.5)"/><rect x="189" y="211" width="11" height="11" transform="rotate(0,194.5,216.5)"/><rect x="189" y="222" width="11" height="11" transform="rotate(0,194.5,227.5)"/><rect x="189" y="266" width="11" height="11" transform="rotate(0,194.5,271.5)"/><rect x="189" y="288" width="11" height="11" transform="rotate(0,194.5,293.5)"/><rect x="189" y="310" width="11" height="11" transform="rotate(0,194.5,315.5)"/><rect x="189" y="332" width="11" height="11" transform="rotate(0,194.5,337.5)"/><rect x="189" y="365" width="11" height="11" transform="rotate(0,194.5,370.5)"/><rect x="189" y="376" width="11" height="11" transform="rotate(0,194.5,381.5)"/><rect x="189" y="398" width="11" height="11" transform="rotate(0,194.5,403.5)"/><rect x="189" y="409" width="11" height="11" transform="rotate(0,194.5,414.5)"/><rect x="189" y="431" width="11" height="11" transform="rotate(0,194.5,436.5)"/><rect x="189" y="453" width="11" height="11" transform="rotate(0,194.5,458.5)"/><rect x="200" y="68" width="11" height="11" transform="rotate(0,205.5,73.5)"/><rect x="200" y="79" width="11" height="11" transform="rotate(0,205.5,84.5)"/><rect x="200" y="90" width="11" height="11" transform="rotate(0,205.5,95.5)"/><rect x="200" y="101" width="11" height="11" transform="rotate(0,205.5,106.5)"/><rect x="200" y="112" width="11" height="11" transform="rotate(0,205.5,117.5)"/><rect x="200" y="134" width="11" height="11" transform="rotate(0,205.5,139.5)"/><rect x="200" y="145" width="11" height="11" transform="rotate(0,205.5,150.5)"/><rect x="200" y="167" width="11" height="11" transform="rotate(0,205.5,172.5)"/><rect x="200" y="189" width="11" height="11" transform="rotate(0,205.5,194.5)"/><rect x="200" y="200" width="11" height="11" transform="rotate(0,205.5,205.5)"/><rect x="200" y="222" width="11" height="11" transform="rotate(0,205.5,227.5)"/><rect x="200" y="233" width="11" height="11" transform="rotate(0,205.5,238.5)"/><rect x="200" y="244" width="11" height="11" transform="rotate(0,205.5,249.5)"/><rect x="200" y="288" width="11" height="11" transform="rotate(0,205.5,293.5)"/><rect x="200" y="299" width="11" height="11" transform="rotate(0,205.5,304.5)"/><rect x="200" y="310" width="11" height="11" transform="rotate(0,205.5,315.5)"/><rect x="200" y="343" width="11" height="11" transform="rotate(0,205.5,348.5)"/><rect x="200" y="365" width="11" height="11" transform="rotate(0,205.5,370.5)"/><rect x="200" y="376" width="11" height="11" transform="rotate(0,205.5,381.5)"/><rect x="200" y="387" width="11" height="11" transform="rotate(0,205.5,392.5)"/><rect x="200" y="409" width="11" height="11" transform="rotate(0,205.5,414.5)"/><rect x="200" y="442" width="11" height="11" transform="rotate(0,205.5,447.5)"/><rect x="211" y="35" width="11" height="11" transform="rotate(0,216.5,40.5)"/><rect x="211" y="57" width="11" height="11" transform="rotate(0,216.5,62.5)"/><rect x="211" y="68" width="11" height="11" transform="rotate(0,216.5,73.5)"/><rect x="211" y="79" width="11" height="11" transform="rotate(0,216.5,84.5)"/><rect x="211" y="101" width="11" height="11" transform="rotate(0,216.5,106.5)"/><rect x="211" y="134" width="11" height="11" transform="rotate(0,216.5,139.5)"/><rect x="211" y="156" width="11" height="11" transform="rotate(0,216.5,161.5)"/><rect x="211" y="167" width="11" height="11" transform="rotate(0,216.5,172.5)"/><rect x="211" y="178" width="11" height="11" transform="rotate(0,216.5,183.5)"/><rect x="211" y="200" width="11" height="11" transform="rotate(0,216.5,205.5)"/><rect x="211" y="222" width="11" height="11" transform="rotate(0,216.5,227.5)"/><rect x="211" y="233" width="11" height="11" transform="rotate(0,216.5,238.5)"/><rect x="211" y="244" width="11" height="11" transform="rotate(0,216.5,249.5)"/><rect x="211" y="255" width="11" height="11" transform="rotate(0,216.5,260.5)"/><rect x="211" y="277" width="11" height="11" transform="rotate(0,216.5,282.5)"/><rect x="211" y="299" width="11" height="11" transform="rotate(0,216.5,304.5)"/><rect x="211" y="332" width="11" height="11" transform="rotate(0,216.5,337.5)"/><rect x="211" y="343" width="11" height="11" transform="rotate(0,216.5,348.5)"/><rect x="211" y="354" width="11" height="11" transform="rotate(0,216.5,359.5)"/><rect x="211" y="365" width="11" height="11" transform="rotate(0,216.5,370.5)"/><rect x="211" y="398" width="11" height="11" transform="rotate(0,216.5,403.5)"/><rect x="211" y="409" width="11" height="11" transform="rotate(0,216.5,414.5)"/><rect x="211" y="420" width="11" height="11" transform="rotate(0,216.5,425.5)"/><rect x="211" y="453" width="11" height="11" transform="rotate(0,216.5,458.5)"/><rect x="211" y="464" width="11" height="11" transform="rotate(0,216.5,469.5)"/><rect x="222" y="46" width="11" height="11" transform="rotate(0,227.5,51.5)"/><rect x="222" y="57" width="11" height="11" transform="rotate(0,227.5,62.5)"/><rect x="222" y="90" width="11" height="11" transform="rotate(0,227.5,95.5)"/><rect x="222" y="123" width="11" height="11" transform="rotate(0,227.5,128.5)"/><rect x="222" y="134" width="11" height="11" transform="rotate(0,227.5,139.5)"/><rect x="222" y="145" width="11" height="11" transform="rotate(0,227.5,150.5)"/><rect x="222" y="156" width="11" height="11" transform="rotate(0,227.5,161.5)"/><rect x="222" y="189" width="11" height="11" transform="rotate(0,227.5,194.5)"/><rect x="222" y="299" width="11" height="11" transform="rotate(0,227.5,304.5)"/><rect x="222" y="310" width="11" height="11" transform="rotate(0,227.5,315.5)"/><rect x="222" y="321" width="11" height="11" transform="rotate(0,227.5,326.5)"/><rect x="222" y="343" width="11" height="11" transform="rotate(0,227.5,348.5)"/><rect x="222" y="398" width="11" height="11" transform="rotate(0,227.5,403.5)"/><rect x="222" y="420" width="11" height="11" transform="rotate(0,227.5,425.5)"/><rect x="222" y="431" width="11" height="11" transform="rotate(0,227.5,436.5)"/><rect x="222" y="453" width="11" height="11" transform="rotate(0,227.5,458.5)"/><rect x="233" y="24" width="11" height="11" transform="rotate(0,238.5,29.5)"/><rect x="233" y="35" width="11" height="11" transform="rotate(0,238.5,40.5)"/><rect x="233" y="57" width="11" height="11" transform="rotate(0,238.5,62.5)"/><rect x="233" y="79" width="11" height="11" transform="rotate(0,238.5,84.5)"/><rect x="233" y="112" width="11" height="11" transform="rotate(0,238.5,117.5)"/><rect x="233" y="145" width="11" height="11" transform="rotate(0,238.5,150.5)"/><rect x="233" y="156" width="11" height="11" transform="rotate(0,238.5,161.5)"/><rect x="233" y="178" width="11" height="11" transform="rotate(0,238.5,183.5)"/><rect x="233" y="189" width="11" height="11" transform="rotate(0,238.5,194.5)"/><rect x="233" y="200" width="11" height="11" transform="rotate(0,238.5,205.5)"/><rect x="233" y="233" width="11" height="11" transform="rotate(0,238.5,238.5)"/><rect x="233" y="244" width="11" height="11" transform="rotate(0,238.5,249.5)"/><rect x="233" y="255" width="11" height="11" transform="rotate(0,238.5,260.5)"/><rect x="233" y="299" width="11" height="11" transform="rotate(0,238.5,304.5)"/><rect x="233" y="332" width="11" height="11" transform="rotate(0,238.5,337.5)"/><rect x="233" y="354" width="11" height="11" transform="rotate(0,238.5,359.5)"/><rect x="233" y="376" width="11" height="11" transform="rotate(0,238.5,381.5)"/><rect x="233" y="398" width="11" height="11" transform="rotate(0,238.5,403.5)"/><rect x="233" y="420" width="11" height="11" transform="rotate(0,238.5,425.5)"/><rect x="233" y="431" width="11" height="11" transform="rotate(0,238.5,436.5)"/><rect x="244" y="35" width="11" height="11" transform="rotate(0,249.5,40.5)"/><rect x="244" y="90" width="11" height="11" transform="rotate(0,249.5,95.5)"/><rect x="244" y="101" width="11" height="11" transform="rotate(0,249.5,106.5)"/><rect x="244" y="112" width="11" height="11" transform="rotate(0,249.5,117.5)"/><rect x="244" y="134" width="11" height="11" transform="rotate(0,249.5,139.5)"/><rect x="244" y="156" width="11" height="11" transform="rotate(0,249.5,161.5)"/><rect x="244" y="189" width="11" height="11" transform="rotate(0,249.5,194.5)"/><rect x="244" y="233" width="11" height="11" transform="rotate(0,249.5,238.5)"/><rect x="244" y="244" width="11" height="11" transform="rotate(0,249.5,249.5)"/><rect x="244" y="255" width="11" height="11" transform="rotate(0,249.5,260.5)"/><rect x="244" y="288" width="11" height="11" transform="rotate(0,249.5,293.5)"/><rect x="244" y="310" width="11" height="11" transform="rotate(0,249.5,315.5)"/><rect x="244" y="332" width="11" height="11" transform="rotate(0,249.5,337.5)"/><rect x="244" y="354" width="11" height="11" transform="rotate(0,249.5,359.5)"/><rect x="244" y="409" width="11" height="11" transform="rotate(0,249.5,414.5)"/><rect x="244" y="442" width="11" height="11" transform="rotate(0,249.5,447.5)"/><rect x="255" y="79" width="11" height="11" transform="rotate(0,260.5,84.5)"/><rect x="255" y="112" width="11" height="11" transform="rotate(0,260.5,117.5)"/><rect x="255" y="145" width="11" height="11" transform="rotate(0,260.5,150.5)"/><rect x="255" y="156" width="11" height="11" transform="rotate(0,260.5,161.5)"/><rect x="255" y="167" width="11" height="11" transform="rotate(0,260.5,172.5)"/><rect x="255" y="200" width="11" height="11" transform="rotate(0,260.5,205.5)"/><rect x="255" y="211" width="11" height="11" transform="rotate(0,260.5,216.5)"/><rect x="255" y="244" width="11" height="11" transform="rotate(0,260.5,249.5)"/><rect x="255" y="266" width="11" height="11" transform="rotate(0,260.5,271.5)"/><rect x="255" y="277" width="11" height="11" transform="rotate(0,260.5,282.5)"/><rect x="255" y="299" width="11" height="11" transform="rotate(0,260.5,304.5)"/><rect x="255" y="332" width="11" height="11" transform="rotate(0,260.5,337.5)"/><rect x="255" y="343" width="11" height="11" transform="rotate(0,260.5,348.5)"/><rect x="255" y="354" width="11" height="11" transform="rotate(0,260.5,359.5)"/><rect x="255" y="365" width="11" height="11" transform="rotate(0,260.5,370.5)"/><rect x="255" y="376" width="11" height="11" transform="rotate(0,260.5,381.5)"/><rect x="255" y="398" width="11" height="11" transform="rotate(0,260.5,403.5)"/><rect x="255" y="420" width="11" height="11" transform="rotate(0,260.5,425.5)"/><rect x="255" y="431" width="11" height="11" transform="rotate(0,260.5,436.5)"/><rect x="255" y="453" width="11" height="11" transform="rotate(0,260.5,458.5)"/><rect x="255" y="464" width="11" height="11" transform="rotate(0,260.5,469.5)"/><rect x="266" y="35" width="11" height="11" transform="rotate(0,271.5,40.5)"/><rect x="266" y="46" width="11" height="11" transform="rotate(0,271.5,51.5)"/><rect x="266" y="57" width="11" height="11" transform="rotate(0,271.5,62.5)"/><rect x="266" y="79" width="11" height="11" transform="rotate(0,271.5,84.5)"/><rect x="266" y="90" width="11" height="11" transform="rotate(0,271.5,95.5)"/><rect x="266" y="101" width="11" height="11" transform="rotate(0,271.5,106.5)"/><rect x="266" y="112" width="11" height="11" transform="rotate(0,271.5,117.5)"/><rect x="266" y="167" width="11" height="11" transform="rotate(0,271.5,172.5)"/><rect x="266" y="178" width="11" height="11" transform="rotate(0,271.5,183.5)"/><rect x="266" y="200" width="11" height="11" transform="rotate(0,271.5,205.5)"/><rect x="266" y="233" width="11" height="11" transform="rotate(0,271.5,238.5)"/><rect x="266" y="255" width="11" height="11" transform="rotate(0,271.5,260.5)"/><rect x="266" y="266" width="11" height="11" transform="rotate(0,271.5,271.5)"/><rect x="266" y="288" width="11" height="11" transform="rotate(0,271.5,293.5)"/><rect x="266" y="299" width="11" height="11" transform="rotate(0,271.5,304.5)"/><rect x="266" y="310" width="11" height="11" transform="rotate(0,271.5,315.5)"/><rect x="266" y="321" width="11" height="11" transform="rotate(0,271.5,326.5)"/><rect x="266" y="332" width="11" height="11" transform="rotate(0,271.5,337.5)"/><rect x="266" y="398" width="11" height="11" transform="rotate(0,271.5,403.5)"/><rect x="266" y="420" width="11" height="11" transform="rotate(0,271.5,425.5)"/><rect x="266" y="442" width="11" height="11" transform="rotate(0,271.5,447.5)"/><rect x="277" y="46" width="11" height="11" transform="rotate(0,282.5,51.5)"/><rect x="277" y="57" width="11" height="11" transform="rotate(0,282.5,62.5)"/><rect x="277" y="79" width="11" height="11" transform="rotate(0,282.5,84.5)"/><rect x="277" y="101" width="11" height="11" transform="rotate(0,282.5,106.5)"/><rect x="277" y="112" width="11" height="11" transform="rotate(0,282.5,117.5)"/><rect x="277" y="123" width="11" height="11" transform="rotate(0,282.5,128.5)"/><rect x="277" y="145" width="11" height="11" transform="rotate(0,282.5,150.5)"/><rect x="277" y="189" width="11" height="11" transform="rotate(0,282.5,194.5)"/><rect x="277" y="200" width="11" height="11" transform="rotate(0,282.5,205.5)"/><rect x="277" y="211" width="11" height="11" transform="rotate(0,282.5,216.5)"/><rect x="277" y="222" width="11" height="11" transform="rotate(0,282.5,227.5)"/><rect x="277" y="233" width="11" height="11" transform="rotate(0,282.5,238.5)"/><rect x="277" y="244" width="11" height="11" transform="rotate(0,282.5,249.5)"/><rect x="277" y="266" width="11" height="11" transform="rotate(0,282.5,271.5)"/><rect x="277" y="310" width="11" height="11" transform="rotate(0,282.5,315.5)"/><rect x="277" y="321" width="11" height="11" transform="rotate(0,282.5,326.5)"/><rect x="277" y="354" width="11" height="11" transform="rotate(0,282.5,359.5)"/><rect x="277" y="376" width="11" height="11" transform="rotate(0,282.5,381.5)"/><rect x="277" y="398" width="11" height="11" transform="rotate(0,282.5,403.5)"/><rect x="277" y="409" width="11" height="11" transform="rotate(0,282.5,414.5)"/><rect x="277" y="431" width="11" height="11" transform="rotate(0,282.5,436.5)"/><rect x="277" y="453" width="11" height="11" transform="rotate(0,282.5,458.5)"/><rect x="277" y="464" width="11" height="11" transform="rotate(0,282.5,469.5)"/><rect x="288" y="35" width="11" height="11" transform="rotate(0,293.5,40.5)"/><rect x="288" y="57" width="11" height="11" transform="rotate(0,293.5,62.5)"/><rect x="288" y="90" width="11" height="11" transform="rotate(0,293.5,95.5)"/><rect x="288" y="134" width="11" height="11" transform="rotate(0,293.5,139.5)"/><rect x="288" y="145" width="11" height="11" transform="rotate(0,293.5,150.5)"/><rect x="288" y="156" width="11" height="11" transform="rotate(0,293.5,161.5)"/><rect x="288" y="178" width="11" height="11" transform="rotate(0,293.5,183.5)"/><rect x="288" y="189" width="11" height="11" transform="rotate(0,293.5,194.5)"/><rect x="288" y="233" width="11" height="11" transform="rotate(0,293.5,238.5)"/><rect x="288" y="266" width="11" height="11" transform="rotate(0,293.5,271.5)"/><rect x="288" y="288" width="11" height="11" transform="rotate(0,293.5,293.5)"/><rect x="288" y="299" width="11" height="11" transform="rotate(0,293.5,304.5)"/><rect x="288" y="310" width="11" height="11" transform="rotate(0,293.5,315.5)"/><rect x="288" y="321" width="11" height="11" transform="rotate(0,293.5,326.5)"/><rect x="288" y="343" width="11" height="11" transform="rotate(0,293.5,348.5)"/><rect x="288" y="409" width="11" height="11" transform="rotate(0,293.5,414.5)"/><rect x="288" y="442" width="11" height="11" transform="rotate(0,293.5,447.5)"/><rect x="288" y="453" width="11" height="11" transform="rotate(0,293.5,458.5)"/><rect x="299" y="24" width="11" height="11" transform="rotate(0,304.5,29.5)"/><rect x="299" y="35" width="11" height="11" transform="rotate(0,304.5,40.5)"/><rect x="299" y="79" width="11" height="11" transform="rotate(0,304.5,84.5)"/><rect x="299" y="101" width="11" height="11" transform="rotate(0,304.5,106.5)"/><rect x="299" y="112" width="11" height="11" transform="rotate(0,304.5,117.5)"/><rect x="299" y="123" width="11" height="11" transform="rotate(0,304.5,128.5)"/><rect x="299" y="145" width="11" height="11" transform="rotate(0,304.5,150.5)"/><rect x="299" y="189" width="11" height="11" transform="rotate(0,304.5,194.5)"/><rect x="299" y="211" width="11" height="11" transform="rotate(0,304.5,216.5)"/><rect x="299" y="222" width="11" height="11" transform="rotate(0,304.5,227.5)"/><rect x="299" y="233" width="11" height="11" transform="rotate(0,304.5,238.5)"/><rect x="299" y="244" width="11" height="11" transform="rotate(0,304.5,249.5)"/><rect x="299" y="266" width="11" height="11" transform="rotate(0,304.5,271.5)"/><rect x="299" y="277" width="11" height="11" transform="rotate(0,304.5,282.5)"/><rect x="299" y="354" width="11" height="11" transform="rotate(0,304.5,359.5)"/><rect x="299" y="365" width="11" height="11" transform="rotate(0,304.5,370.5)"/><rect x="299" y="387" width="11" height="11" transform="rotate(0,304.5,392.5)"/><rect x="299" y="398" width="11" height="11" transform="rotate(0,304.5,403.5)"/><rect x="299" y="409" width="11" height="11" transform="rotate(0,304.5,414.5)"/><rect x="299" y="420" width="11" height="11" transform="rotate(0,304.5,425.5)"/><rect x="299" y="431" width="11" height="11" transform="rotate(0,304.5,436.5)"/><rect x="299" y="464" width="11" height="11" transform="rotate(0,304.5,469.5)"/><rect x="310" y="46" width="11" height="11" transform="rotate(0,315.5,51.5)"/><rect x="310" y="57" width="11" height="11" transform="rotate(0,315.5,62.5)"/><rect x="310" y="68" width="11" height="11" transform="rotate(0,315.5,73.5)"/><rect x="310" y="90" width="11" height="11" transform="rotate(0,315.5,95.5)"/><rect x="310" y="145" width="11" height="11" transform="rotate(0,315.5,150.5)"/><rect x="310" y="167" width="11" height="11" transform="rotate(0,315.5,172.5)"/><rect x="310" y="222" width="11" height="11" transform="rotate(0,315.5,227.5)"/><rect x="310" y="233" width="11" height="11" transform="rotate(0,315.5,238.5)"/><rect x="310" y="244" width="11" height="11" transform="rotate(0,315.5,249.5)"/><rect x="310" y="255" width="11" height="11" transform="rotate(0,315.5,260.5)"/><rect x="310" y="266" width="11" height="11" transform="rotate(0,315.5,271.5)"/><rect x="310" y="299" width="11" height="11" transform="rotate(0,315.5,304.5)"/><rect x="310" y="321" width="11" height="11" transform="rotate(0,315.5,326.5)"/><rect x="310" y="332" width="11" height="11" transform="rotate(0,315.5,337.5)"/><rect x="310" y="376" width="11" height="11" transform="rotate(0,315.5,381.5)"/><rect x="310" y="420" width="11" height="11" transform="rotate(0,315.5,425.5)"/><rect x="321" y="24" width="11" height="11" transform="rotate(0,326.5,29.5)"/><rect x="321" y="35" width="11" height="11" transform="rotate(0,326.5,40.5)"/><rect x="321" y="57" width="11" height="11" transform="rotate(0,326.5,62.5)"/><rect x="321" y="123" width="11" height="11" transform="rotate(0,326.5,128.5)"/><rect x="321" y="134" width="11" height="11" transform="rotate(0,326.5,139.5)"/><rect x="321" y="145" width="11" height="11" transform="rotate(0,326.5,150.5)"/><rect x="321" y="156" width="11" height="11" transform="rotate(0,326.5,161.5)"/><rect x="321" y="167" width="11" height="11" transform="rotate(0,326.5,172.5)"/><rect x="321" y="189" width="11" height="11" transform="rotate(0,326.5,194.5)"/><rect x="321" y="200" width="11" height="11" transform="rotate(0,326.5,205.5)"/><rect x="321" y="222" width="11" height="11" transform="rotate(0,326.5,227.5)"/><rect x="321" y="233" width="11" height="11" transform="rotate(0,326.5,238.5)"/><rect x="321" y="244" width="11" height="11" transform="rotate(0,326.5,249.5)"/><rect x="321" y="277" width="11" height="11" transform="rotate(0,326.5,282.5)"/><rect x="321" y="310" width="11" height="11" transform="rotate(0,326.5,315.5)"/><rect x="321" y="321" width="11" height="11" transform="rotate(0,326.5,326.5)"/><rect x="321" y="365" width="11" height="11" transform="rotate(0,326.5,370.5)"/><rect x="321" y="376" width="11" height="11" transform="rotate(0,326.5,381.5)"/><rect x="321" y="409" width="11" height="11" transform="rotate(0,326.5,414.5)"/><rect x="321" y="431" width="11" height="11" transform="rotate(0,326.5,436.5)"/><rect x="332" y="24" width="11" height="11" transform="rotate(0,337.5,29.5)"/><rect x="332" y="57" width="11" height="11" transform="rotate(0,337.5,62.5)"/><rect x="332" y="90" width="11" height="11" transform="rotate(0,337.5,95.5)"/><rect x="332" y="101" width="11" height="11" transform="rotate(0,337.5,106.5)"/><rect x="332" y="112" width="11" height="11" transform="rotate(0,337.5,117.5)"/><rect x="332" y="123" width="11" height="11" transform="rotate(0,337.5,128.5)"/><rect x="332" y="134" width="11" height="11" transform="rotate(0,337.5,139.5)"/><rect x="332" y="145" width="11" height="11" transform="rotate(0,337.5,150.5)"/><rect x="332" y="178" width="11" height="11" transform="rotate(0,337.5,183.5)"/><rect x="332" y="189" width="11" height="11" transform="rotate(0,337.5,194.5)"/><rect x="332" y="200" width="11" height="11" transform="rotate(0,337.5,205.5)"/><rect x="332" y="233" width="11" height="11" transform="rotate(0,337.5,238.5)"/><rect x="332" y="244" width="11" height="11" transform="rotate(0,337.5,249.5)"/><rect x="332" y="255" width="11" height="11" transform="rotate(0,337.5,260.5)"/><rect x="332" y="288" width="11" height="11" transform="rotate(0,337.5,293.5)"/><rect x="332" y="299" width="11" height="11" transform="rotate(0,337.5,304.5)"/><rect x="332" y="332" width="11" height="11" transform="rotate(0,337.5,337.5)"/><rect x="332" y="343" width="11" height="11" transform="rotate(0,337.5,348.5)"/><rect x="332" y="354" width="11" height="11" transform="rotate(0,337.5,359.5)"/><rect x="332" y="365" width="11" height="11" transform="rotate(0,337.5,370.5)"/><rect x="332" y="376" width="11" height="11" transform="rotate(0,337.5,381.5)"/><rect x="332" y="431" width="11" height="11" transform="rotate(0,337.5,436.5)"/><rect x="332" y="442" width="11" height="11" transform="rotate(0,337.5,447.5)"/><rect x="332" y="453" width="11" height="11" transform="rotate(0,337.5,458.5)"/><rect x="343" y="24" width="11" height="11" transform="rotate(0,348.5,29.5)"/><rect x="343" y="57" width="11" height="11" transform="rotate(0,348.5,62.5)"/><rect x="343" y="68" width="11" height="11" transform="rotate(0,348.5,73.5)"/><rect x="343" y="79" width="11" height="11" transform="rotate(0,348.5,84.5)"/><rect x="343" y="101" width="11" height="11" transform="rotate(0,348.5,106.5)"/><rect x="343" y="112" width="11" height="11" transform="rotate(0,348.5,117.5)"/><rect x="343" y="134" width="11" height="11" transform="rotate(0,348.5,139.5)"/><rect x="343" y="145" width="11" height="11" transform="rotate(0,348.5,150.5)"/><rect x="343" y="167" width="11" height="11" transform="rotate(0,348.5,172.5)"/><rect x="343" y="189" width="11" height="11" transform="rotate(0,348.5,194.5)"/><rect x="343" y="222" width="11" height="11" transform="rotate(0,348.5,227.5)"/><rect x="343" y="299" width="11" height="11" transform="rotate(0,348.5,304.5)"/><rect x="343" y="321" width="11" height="11" transform="rotate(0,348.5,326.5)"/><rect x="343" y="343" width="11" height="11" transform="rotate(0,348.5,348.5)"/><rect x="343" y="354" width="11" height="11" transform="rotate(0,348.5,359.5)"/><rect x="343" y="376" width="11" height="11" transform="rotate(0,348.5,381.5)"/><rect x="343" y="387" width="11" height="11" transform="rotate(0,348.5,392.5)"/><rect x="343" y="398" width="11" height="11" transform="rotate(0,348.5,403.5)"/><rect x="343" y="409" width="11" height="11" transform="rotate(0,348.5,414.5)"/><rect x="343" y="420" width="11" height="11" transform="rotate(0,348.5,425.5)"/><rect x="343" y="464" width="11" height="11" transform="rotate(0,348.5,469.5)"/><rect x="354" y="24" width="11" height="11" transform="rotate(0,359.5,29.5)"/><rect x="354" y="79" width="11" height="11" transform="rotate(0,359.5,84.5)"/><rect x="354" y="90" width="11" height="11" transform="rotate(0,359.5,95.5)"/><rect x="354" y="101" width="11" height="11" transform="rotate(0,359.5,106.5)"/><rect x="354" y="112" width="11" height="11" transform="rotate(0,359.5,117.5)"/><rect x="354" y="123" width="11" height="11" transform="rotate(0,359.5,128.5)"/><rect x="354" y="167" width="11" height="11" transform="rotate(0,359.5,172.5)"/><rect x="354" y="178" width="11" height="11" transform="rotate(0,359.5,183.5)"/><rect x="354" y="189" width="11" height="11" transform="rotate(0,359.5,194.5)"/><rect x="354" y="200" width="11" height="11" transform="rotate(0,359.5,205.5)"/><rect x="354" y="211" width="11" height="11" transform="rotate(0,359.5,216.5)"/><rect x="354" y="244" width="11" height="11" transform="rotate(0,359.5,249.5)"/><rect x="354" y="277" width="11" height="11" transform="rotate(0,359.5,282.5)"/><rect x="354" y="288" width="11" height="11" transform="rotate(0,359.5,293.5)"/><rect x="354" y="321" width="11" height="11" transform="rotate(0,359.5,326.5)"/><rect x="354" y="332" width="11" height="11" transform="rotate(0,359.5,337.5)"/><rect x="354" y="343" width="11" height="11" transform="rotate(0,359.5,348.5)"/><rect x="354" y="387" width="11" height="11" transform="rotate(0,359.5,392.5)"/><rect x="354" y="398" width="11" height="11" transform="rotate(0,359.5,403.5)"/><rect x="354" y="409" width="11" height="11" transform="rotate(0,359.5,414.5)"/><rect x="354" y="431" width="11" height="11" transform="rotate(0,359.5,436.5)"/><rect x="354" y="442" width="11" height="11" transform="rotate(0,359.5,447.5)"/><rect x="365" y="24" width="11" height="11" transform="rotate(0,370.5,29.5)"/><rect x="365" y="46" width="11" height="11" transform="rotate(0,370.5,51.5)"/><rect x="365" y="57" width="11" height="11" transform="rotate(0,370.5,62.5)"/><rect x="365" y="79" width="11" height="11" transform="rotate(0,370.5,84.5)"/><rect x="365" y="101" width="11" height="11" transform="rotate(0,370.5,106.5)"/><rect x="365" y="112" width="11" height="11" transform="rotate(0,370.5,117.5)"/><rect x="365" y="123" width="11" height="11" transform="rotate(0,370.5,128.5)"/><rect x="365" y="134" width="11" height="11" transform="rotate(0,370.5,139.5)"/><rect x="365" y="145" width="11" height="11" transform="rotate(0,370.5,150.5)"/><rect x="365" y="156" width="11" height="11" transform="rotate(0,370.5,161.5)"/><rect x="365" y="167" width="11" height="11" transform="rotate(0,370.5,172.5)"/><rect x="365" y="189" width="11" height="11" transform="rotate(0,370.5,194.5)"/><rect x="365" y="222" width="11" height="11" transform="rotate(0,370.5,227.5)"/><rect x="365" y="255" width="11" height="11" transform="rotate(0,370.5,260.5)"/><rect x="365" y="266" width="11" height="11" transform="rotate(0,370.5,271.5)"/><rect x="365" y="277" width="11" height="11" transform="rotate(0,370.5,282.5)"/><rect x="365" y="310" width="11" height="11" transform="rotate(0,370.5,315.5)"/><rect x="365" y="321" width="11" height="11" transform="rotate(0,370.5,326.5)"/><rect x="365" y="365" width="11" height="11" transform="rotate(0,370.5,370.5)"/><rect x="365" y="376" width="11" height="11" transform="rotate(0,370.5,381.5)"/><rect x="365" y="387" width="11" height="11" transform="rotate(0,370.5,392.5)"/><rect x="365" y="398" width="11" height="11" transform="rotate(0,370.5,403.5)"/><rect x="365" y="409" width="11" height="11" transform="rotate(0,370.5,414.5)"/><rect x="365" y="431" width="11" height="11" transform="rotate(0,370.5,436.5)"/><rect x="376" y="24" width="11" height="11" transform="rotate(0,381.5,29.5)"/><rect x="376" y="46" width="11" height="11" transform="rotate(0,381.5,51.5)"/><rect x="376" y="79" width="11" height="11" transform="rotate(0,381.5,84.5)"/><rect x="376" y="90" width="11" height="11" transform="rotate(0,381.5,95.5)"/><rect x="376" y="156" width="11" height="11" transform="rotate(0,381.5,161.5)"/><rect x="376" y="167" width="11" height="11" transform="rotate(0,381.5,172.5)"/><rect x="376" y="189" width="11" height="11" transform="rotate(0,381.5,194.5)"/><rect x="376" y="211" width="11" height="11" transform="rotate(0,381.5,216.5)"/><rect x="376" y="222" width="11" height="11" transform="rotate(0,381.5,227.5)"/><rect x="376" y="244" width="11" height="11" transform="rotate(0,381.5,249.5)"/><rect x="376" y="266" width="11" height="11" transform="rotate(0,381.5,271.5)"/><rect x="376" y="277" width="11" height="11" transform="rotate(0,381.5,282.5)"/><rect x="376" y="288" width="11" height="11" transform="rotate(0,381.5,293.5)"/><rect x="376" y="299" width="11" height="11" transform="rotate(0,381.5,304.5)"/><rect x="376" y="310" width="11" height="11" transform="rotate(0,381.5,315.5)"/><rect x="376" y="321" width="11" height="11" transform="rotate(0,381.5,326.5)"/><rect x="376" y="343" width="11" height="11" transform="rotate(0,381.5,348.5)"/><rect x="376" y="365" width="11" height="11" transform="rotate(0,381.5,370.5)"/><rect x="376" y="376" width="11" height="11" transform="rotate(0,381.5,381.5)"/><rect x="376" y="387" width="11" height="11" transform="rotate(0,381.5,392.5)"/><rect x="376" y="398" width="11" height="11" transform="rotate(0,381.5,403.5)"/><rect x="376" y="409" width="11" height="11" transform="rotate(0,381.5,414.5)"/><rect x="376" y="420" width="11" height="11" transform="rotate(0,381.5,425.5)"/><rect x="376" y="442" width="11" height="11" transform="rotate(0,381.5,447.5)"/><rect x="387" y="112" width="11" height="11" transform="rotate(0,392.5,117.5)"/><rect x="387" y="123" width="11" height="11" transform="rotate(0,392.5,128.5)"/><rect x="387" y="134" width="11" height="11" transform="rotate(0,392.5,139.5)"/><rect x="387" y="145" width="11" height="11" transform="rotate(0,392.5,150.5)"/><rect x="387" y="156" width="11" height="11" transform="rotate(0,392.5,161.5)"/><rect x="387" y="178" width="11" height="11" transform="rotate(0,392.5,183.5)"/><rect x="387" y="189" width="11" height="11" transform="rotate(0,392.5,194.5)"/><rect x="387" y="200" width="11" height="11" transform="rotate(0,392.5,205.5)"/><rect x="387" y="211" width="11" height="11" transform="rotate(0,392.5,216.5)"/><rect x="387" y="222" width="11" height="11" transform="rotate(0,392.5,227.5)"/><rect x="387" y="233" width="11" height="11" transform="rotate(0,392.5,238.5)"/><rect x="387" y="255" width="11" height="11" transform="rotate(0,392.5,260.5)"/><rect x="387" y="277" width="11" height="11" transform="rotate(0,392.5,282.5)"/><rect x="387" y="343" width="11" height="11" transform="rotate(0,392.5,348.5)"/><rect x="387" y="354" width="11" height="11" transform="rotate(0,392.5,359.5)"/><rect x="387" y="376" width="11" height="11" transform="rotate(0,392.5,381.5)"/><rect x="387" y="420" width="11" height="11" transform="rotate(0,392.5,425.5)"/><rect x="387" y="442" width="11" height="11" transform="rotate(0,392.5,447.5)"/><rect x="387" y="453" width="11" height="11" transform="rotate(0,392.5,458.5)"/><rect x="387" y="464" width="11" height="11" transform="rotate(0,392.5,469.5)"/><rect x="398" y="112" width="11" height="11" transform="rotate(0,403.5,117.5)"/><rect x="398" y="134" width="11" height="11" transform="rotate(0,403.5,139.5)"/><rect x="398" y="145" width="11" height="11" transform="rotate(0,403.5,150.5)"/><rect x="398" y="156" width="11" height="11" transform="rotate(0,403.5,161.5)"/><rect x="398" y="167" width="11" height="11" transform="rotate(0,403.5,172.5)"/><rect x="398" y="178" width="11" height="11" transform="rotate(0,403.5,183.5)"/><rect x="398" y="222" width="11" height="11" transform="rotate(0,403.5,227.5)"/><rect x="398" y="255" width="11" height="11" transform="rotate(0,403.5,260.5)"/><rect x="398" y="288" width="11" height="11" transform="rotate(0,403.5,293.5)"/><rect x="398" y="321" width="11" height="11" transform="rotate(0,403.5,326.5)"/><rect x="398" y="332" width="11" height="11" transform="rotate(0,403.5,337.5)"/><rect x="398" y="343" width="11" height="11" transform="rotate(0,403.5,348.5)"/><rect x="398" y="365" width="11" height="11" transform="rotate(0,403.5,370.5)"/><rect x="398" y="376" width="11" height="11" transform="rotate(0,403.5,381.5)"/><rect x="398" y="398" width="11" height="11" transform="rotate(0,403.5,403.5)"/><rect x="398" y="420" width="11" height="11" transform="rotate(0,403.5,425.5)"/><rect x="398" y="431" width="11" height="11" transform="rotate(0,403.5,436.5)"/><rect x="409" y="112" width="11" height="11" transform="rotate(0,414.5,117.5)"/><rect x="409" y="123" width="11" height="11" transform="rotate(0,414.5,128.5)"/><rect x="409" y="134" width="11" height="11" transform="rotate(0,414.5,139.5)"/><rect x="409" y="156" width="11" height="11" transform="rotate(0,414.5,161.5)"/><rect x="409" y="189" width="11" height="11" transform="rotate(0,414.5,194.5)"/><rect x="409" y="266" width="11" height="11" transform="rotate(0,414.5,271.5)"/><rect x="409" y="277" width="11" height="11" transform="rotate(0,414.5,282.5)"/><rect x="409" y="288" width="11" height="11" transform="rotate(0,414.5,293.5)"/><rect x="409" y="310" width="11" height="11" transform="rotate(0,414.5,315.5)"/><rect x="409" y="321" width="11" height="11" transform="rotate(0,414.5,326.5)"/><rect x="409" y="332" width="11" height="11" transform="rotate(0,414.5,337.5)"/><rect x="409" y="343" width="11" height="11" transform="rotate(0,414.5,348.5)"/><rect x="409" y="354" width="11" height="11" transform="rotate(0,414.5,359.5)"/><rect x="409" y="365" width="11" height="11" transform="rotate(0,414.5,370.5)"/><rect x="409" y="376" width="11" height="11" transform="rotate(0,414.5,381.5)"/><rect x="409" y="420" width="11" height="11" transform="rotate(0,414.5,425.5)"/><rect x="409" y="431" width="11" height="11" transform="rotate(0,414.5,436.5)"/><rect x="409" y="453" width="11" height="11" transform="rotate(0,414.5,458.5)"/><rect x="420" y="112" width="11" height="11" transform="rotate(0,425.5,117.5)"/><rect x="420" y="123" width="11" height="11" transform="rotate(0,425.5,128.5)"/><rect x="420" y="134" width="11" height="11" transform="rotate(0,425.5,139.5)"/><rect x="420" y="167" width="11" height="11" transform="rotate(0,425.5,172.5)"/><rect x="420" y="200" width="11" height="11" transform="rotate(0,425.5,205.5)"/><rect x="420" y="211" width="11" height="11" transform="rotate(0,425.5,216.5)"/><rect x="420" y="255" width="11" height="11" transform="rotate(0,425.5,260.5)"/><rect x="420" y="288" width="11" height="11" transform="rotate(0,425.5,293.5)"/><rect x="420" y="376" width="11" height="11" transform="rotate(0,425.5,381.5)"/><rect x="420" y="387" width="11" height="11" transform="rotate(0,425.5,392.5)"/><rect x="420" y="398" width="11" height="11" transform="rotate(0,425.5,403.5)"/><rect x="420" y="409" width="11" height="11" transform="rotate(0,425.5,414.5)"/><rect x="420" y="420" width="11" height="11" transform="rotate(0,425.5,425.5)"/><rect x="420" y="442" width="11" height="11" transform="rotate(0,425.5,447.5)"/><rect x="420" y="464" width="11" height="11" transform="rotate(0,425.5,469.5)"/><rect x="431" y="112" width="11" height="11" transform="rotate(0,436.5,117.5)"/><rect x="431" y="123" width="11" height="11" transform="rotate(0,436.5,128.5)"/><rect x="431" y="134" width="11" height="11" transform="rotate(0,436.5,139.5)"/><rect x="431" y="145" width="11" height="11" transform="rotate(0,436.5,150.5)"/><rect x="431" y="156" width="11" height="11" transform="rotate(0,436.5,161.5)"/><rect x="431" y="178" width="11" height="11" transform="rotate(0,436.5,183.5)"/><rect x="431" y="200" width="11" height="11" transform="rotate(0,436.5,205.5)"/><rect x="431" y="211" width="11" height="11" transform="rotate(0,436.5,216.5)"/><rect x="431" y="222" width="11" height="11" transform="rotate(0,436.5,227.5)"/><rect x="431" y="244" width="11" height="11" transform="rotate(0,436.5,249.5)"/><rect x="431" y="255" width="11" height="11" transform="rotate(0,436.5,260.5)"/><rect x="431" y="277" width="11" height="11" transform="rotate(0,436.5,282.5)"/><rect x="431" y="299" width="11" height="11" transform="rotate(0,436.5,304.5)"/><rect x="431" y="310" width="11" height="11" transform="rotate(0,436.5,315.5)"/><rect x="431" y="332" width="11" height="11" transform="rotate(0,436.5,337.5)"/><rect x="431" y="354" width="11" height="11" transform="rotate(0,436.5,359.5)"/><rect x="431" y="365" width="11" height="11" transform="rotate(0,436.5,370.5)"/><rect x="431" y="387" width="11" height="11" transform="rotate(0,436.5,392.5)"/><rect x="431" y="409" width="11" height="11" transform="rotate(0,436.5,414.5)"/><rect x="431" y="442" width="11" height="11" transform="rotate(0,436.5,447.5)"/><rect x="431" y="453" width="11" height="11" transform="rotate(0,436.5,458.5)"/><rect x="442" y="112" width="11" height="11" transform="rotate(0,447.5,117.5)"/><rect x="442" y="134" width="11" height="11" transform="rotate(0,447.5,139.5)"/><rect x="442" y="145" width="11" height="11" transform="rotate(0,447.5,150.5)"/><rect x="442" y="178" width="11" height="11" transform="rotate(0,447.5,183.5)"/><rect x="442" y="189" width="11" height="11" transform="rotate(0,447.5,194.5)"/><rect x="442" y="200" width="11" height="11" transform="rotate(0,447.5,205.5)"/><rect x="442" y="233" width="11" height="11" transform="rotate(0,447.5,238.5)"/><rect x="442" y="299" width="11" height="11" transform="rotate(0,447.5,304.5)"/><rect x="442" y="310" width="11" height="11" transform="rotate(0,447.5,315.5)"/><rect x="442" y="321" width="11" height="11" transform="rotate(0,447.5,326.5)"/><rect x="442" y="332" width="11" height="11" transform="rotate(0,447.5,337.5)"/><rect x="442" y="354" width="11" height="11" transform="rotate(0,447.5,359.5)"/><rect x="442" y="376" width="11" height="11" transform="rotate(0,447.5,381.5)"/><rect x="442" y="387" width="11" height="11" transform="rotate(0,447.5,392.5)"/><rect x="442" y="398" width="11" height="11" transform="rotate(0,447.5,403.5)"/><rect x="442" y="409" width="11" height="11" transform="rotate(0,447.5,414.5)"/><rect x="442" y="420" width="11" height="11" transform="rotate(0,447.5,425.5)"/><rect x="453" y="112" width="11" height="11" transform="rotate(0,458.5,117.5)"/><rect x="453" y="134" width="11" height="11" transform="rotate(0,458.5,139.5)"/><rect x="453" y="156" width="11" height="11" transform="rotate(0,458.5,161.5)"/><rect x="453" y="178" width="11" height="11" transform="rotate(0,458.5,183.5)"/><rect x="453" y="200" width="11" height="11" transform="rotate(0,458.5,205.5)"/><rect x="453" y="211" width="11" height="11" transform="rotate(0,458.5,216.5)"/><rect x="453" y="266" width="11" height="11" transform="rotate(0,458.5,271.5)"/><rect x="453" y="277" width="11" height="11" transform="rotate(0,458.5,282.5)"/><rect x="453" y="310" width="11" height="11" transform="rotate(0,458.5,315.5)"/><rect x="453" y="332" width="11" height="11" transform="rotate(0,458.5,337.5)"/><rect x="453" y="365" width="11" height="11" transform="rotate(0,458.5,370.5)"/><rect x="453" y="376" width="11" height="11" transform="rotate(0,458.5,381.5)"/><rect x="453" y="387" width="11" height="11" transform="rotate(0,458.5,392.5)"/><rect x="453" y="420" width="11" height="11" transform="rotate(0,458.5,425.5)"/><rect x="453" y="431" width="11" height="11" transform="rotate(0,458.5,436.5)"/><rect x="453" y="453" width="11" height="11" transform="rotate(0,458.5,458.5)"/><rect x="464" y="123" width="11" height="11" transform="rotate(0,469.5,128.5)"/><rect x="464" y="189" width="11" height="11" transform="rotate(0,469.5,194.5)"/><rect x="464" y="200" width="11" height="11" transform="rotate(0,469.5,205.5)"/><rect x="464" y="211" width="11" height="11" transform="rotate(0,469.5,216.5)"/><rect x="464" y="244" width="11" height="11" transform="rotate(0,469.5,249.5)"/><rect x="464" y="266" width="11" height="11" transform="rotate(0,469.5,271.5)"/><rect x="464" y="277" width="11" height="11" transform="rotate(0,469.5,282.5)"/><rect x="464" y="288" width="11" height="11" transform="rotate(0,469.5,293.5)"/><rect x="464" y="299" width="11" height="11" transform="rotate(0,469.5,304.5)"/><rect x="464" y="310" width="11" height="11" transform="rotate(0,469.5,315.5)"/><rect x="464" y="332" width="11" height="11" transform="rotate(0,469.5,337.5)"/><rect x="464" y="343" width="11" height="11" transform="rotate(0,469.5,348.5)"/><rect x="464" y="365" width="11" height="11" transform="rotate(0,469.5,370.5)"/><rect x="464" y="398" width="11" height="11" transform="rotate(0,469.5,403.5)"/><rect x="464" y="409" width="11" height="11" transform="rotate(0,469.5,414.5)"/><rect x="464" y="420" width="11" height="11" transform="rotate(0,469.5,425.5)"/><rect x="464" y="442" width="11" height="11" transform="rotate(0,469.5,447.5)"/></clipPath><clipPath id="clip-path-corners-square-color-0-0"><path clip-rule="evenodd" d="M 24 51.5v 22a 27.5 27.5, 0, 0, 0, 27.5 27.5h 22a 27.5 27.5, 0, 0, 0, 27.5 -27.5v -22a 27.5 27.5, 0, 0, 0, -27.5 -27.5h -22a 27.5 27.5, 0, 0, 0, -27.5 27.5M 51.5 35h 22a 16.5 16.5, 0, 0, 1, 16.5 16.5v 22a 16.5 16.5, 0, 0, 1, -16.5 16.5h -22a 16.5 16.5, 0, 0, 1, -16.5 -16.5v -22a 16.5 16.5, 0, 0, 1, 16.5 -16.5" transform="rotate(0,62.5,62.5)"/></clipPath><clipPath id="clip-path-corners-dot-color-0-0"><circle cx="62.5" cy="62.5" r="16.5" transform="rotate(0,62.5,62.5)"/></clipPath><clipPath id="clip-path-corners-square-color-1-0"><path clip-rule="evenodd" d="M 398 51.5v 22a 27.5 27.5, 0, 0, 0, 27.5 27.5h 22a 27.5 27.5, 0, 0, 0, 27.5 -27.5v -22a 27.5 27.5, 0, 0, 0, -27.5 -27.5h -22a 27.5 27.5, 0, 0, 0, -27.5 27.5M 425.5 35h 22a 16.5 16.5, 0, 0, 1, 16.5 16.5v 22a 16.5 16.5, 0, 0, 1, -16.5 16.5h -22a 16.5 16.5, 0, 0, 1, -16.5 -16.5v -22a 16.5 16.5, 0, 0, 1, 16.5 -16.5" transform="rotate(90,436.5,62.5)"/></clipPath><clipPath id="clip-path-corners-dot-color-1-0"><circle cx="436.5" cy="62.5" r="16.5" transform="rotate(90,436.5,62.5)"/></clipPath><clipPath id="clip-path-corners-square-color-0-1"><path clip-rule="evenodd" d="M 24 425.5v 22a 27.5 27.5, 0, 0, 0, 27.5 27.5h 22a 27.5 27.5, 0, 0, 0, 27.5 -27.5v -22a 27.5 27.5, 0, 0, 0, -27.5 -27.5h -22a 27.5 27.5, 0, 0, 0, -27.5 27.5M 51.5 409h 22a 16.5 16.5, 0, 0, 1, 16.5 16.5v 22a 16.5 16.5, 0, 0, 1, -16.5 16.5h -22a 16.5 16.5, 0, 0, 1, -16.5 -16.5v -22a 16.5 16.5, 0, 0, 1, 16.5 -16.5" transform="rotate(-90,62.5,436.5)"/></clipPath><clipPath id="clip-path-corners-dot-color-0-1"><circle cx="62.5" cy="436.5" r="16.5" transform="rotate(-90,62.5,436.5)"/></clipPath></defs><rect x="0" y="0" height="500" width="500" clip-path="url('#clip-path-background-color')" fill="#fff"/><rect x="0" y="0" height="500" width="500" clip-path="url('#clip-path-dot-color')" fill="#000000"/><rect x="24" y="24" height="77" width="77" clip-path="url('#clip-path-corners-square-color-0-0')" fill="#000000"/><rect x="46" y="46" height="33" width="33" clip-path="url('#clip-path-corners-dot-color-0-0')" fill="#000000"/><rect x="398" y="24" height="77" width="77" clip-path="url('#clip-path-corners-square-color-1-0')" fill="#000000"/><rect x="420" y="46" height="33" width="33" clip-path="url('#clip-path-corners-dot-color-1-0')" fill="#000000"/><rect x="24" y="398" height="77" width="77" clip-path="url('#clip-path-corners-square-color-0-1')" fill="#000000"/><rect x="46" y="420" height="33" width="33" clip-path="url('#clip-path-corners-dot-color-0-1')" fill="#000000"/></svg>