<svg width="32" height="32" viewBox="0 0 32 32" fill="none" xmlns="http://www.w3.org/2000/svg">
<rect width="32" height="32" fill="white"/>
<rect width="32" height="32" fill="#FF0000"/>
<path d="M0.9375 17.7661V12.7099H2.24366V13.2424H2.25849C2.59779 12.7891 2.95892 12.5625 3.34229 12.5625C3.53006 12.5625 3.71618 12.5955 3.90066 12.6615C4.08514 12.7264 4.26179 12.8276 4.43103 12.9651C4.60109 13.1032 4.73904 13.299 4.84446 13.5526C4.94987 13.8051 5.00258 14.0994 5.00258 14.4349V17.7661H3.69642V14.908C3.69642 14.6456 3.63383 14.4162 3.50865 14.2193C3.38347 14.0213 3.21958 13.9223 3.01781 13.9223C2.82098 13.9223 2.64268 14.0246 2.48249 14.2281C2.32314 14.4322 2.24366 14.6588 2.24366 14.908V17.7661H0.9375Z" fill="black"/>
<path d="M6.03037 17.0787C5.67665 16.5628 5.5 15.9296 5.5 15.1799C5.5 14.4307 5.67665 13.7971 6.03037 13.2789C6.38491 12.7596 6.83499 12.5 7.381 12.5C7.88255 12.5 8.29598 12.7101 8.62128 13.1293V12.6474H9.92744V17.7036H8.63611V17.1315H8.62128C8.29598 17.6112 7.88255 17.851 7.381 17.851C6.83499 17.851 6.38491 17.5936 6.03037 17.0787ZM7.14053 14.324C6.97128 14.5473 6.88687 14.8334 6.88687 15.1821C6.88687 15.5298 6.96799 15.8136 7.13064 16.0336C7.29288 16.2536 7.50701 16.3636 7.77302 16.3636C8.02873 16.3636 8.23915 16.2525 8.40386 16.0292C8.56857 15.8048 8.65093 15.5221 8.65093 15.1799C8.65093 14.8323 8.56569 14.5473 8.39563 14.324C8.22639 14.0996 8.01885 13.9874 7.77302 13.9874C7.52142 13.9874 7.31059 14.0996 7.14053 14.324Z" fill="black"/>
<path d="M10.6664 9.86834C10.8188 9.66481 11.0008 9.5625 11.2116 9.5625C11.4233 9.5625 11.6057 9.66481 11.7585 9.86834C11.9108 10.0708 11.9874 10.3139 11.9874 10.5966C11.9874 10.8799 11.9108 11.1236 11.7585 11.3271C11.6057 11.5295 11.4233 11.6307 11.2116 11.6307C11.0008 11.6307 10.8188 11.5295 10.6664 11.3271C10.5137 11.1236 10.4375 10.8799 10.4375 10.5966C10.4375 10.3139 10.5137 10.0708 10.6664 9.86834ZM10.5413 12.6869V17.743H11.8474V12.6869H10.5413Z" fill="black"/>
<path d="M16.3329 13.3029C16.6875 13.821 16.8649 14.4547 16.8649 15.2039C16.8649 15.9536 16.6875 16.5868 16.3329 17.1027C15.9792 17.6176 15.5291 17.875 14.9823 17.875C14.4803 17.875 14.0673 17.6352 13.7437 17.1555H13.7288V17.7276H12.4375V9.25H13.7437V13.1533C14.0673 12.7341 14.4803 12.524 14.9823 12.524C15.5291 12.524 15.9792 12.7836 16.3329 13.3029ZM15.2343 16.0576C15.3965 15.8376 15.4781 15.5537 15.4781 15.2061C15.4781 14.8574 15.3928 14.5713 15.2228 14.348C15.0523 14.1236 14.8423 14.0114 14.5919 14.0114C14.3457 14.0114 14.1377 14.1236 13.9677 14.348C13.7984 14.5713 13.714 14.8563 13.714 15.2039C13.714 15.546 13.7964 15.8288 13.9611 16.0532C14.1258 16.2765 14.3358 16.3876 14.5919 16.3876C14.8575 16.3876 15.0716 16.2776 15.2343 16.0576Z" fill="white"/>
<path d="M21.353 15.4175H18.6072C18.6072 15.7729 18.6933 16.0358 18.8658 16.2074C19.0379 16.3779 19.2253 16.4627 19.4275 16.4627C19.6383 16.4627 19.8051 16.4247 19.9282 16.3482C20.0509 16.2723 20.1917 16.1227 20.3499 15.8994L21.2937 16.5309C20.9004 17.411 20.2461 17.851 19.3303 17.851C18.7604 17.851 18.2712 17.5903 17.8627 17.0677C17.4542 16.5457 17.25 15.9164 17.25 15.1799C17.25 14.4439 17.4542 13.813 17.8627 13.2877C18.2712 12.7629 18.7604 12.5 19.3303 12.5C19.9307 12.5 20.419 12.7321 20.7946 13.1953C21.171 13.6573 21.3596 14.3191 21.3596 15.1799C21.3596 15.2987 21.3571 15.3779 21.353 15.4175ZM18.6451 14.4516H20.083C20.0534 14.1876 19.976 13.9852 19.8508 13.8444C19.7256 13.7035 19.5646 13.6331 19.3682 13.6331C19.1516 13.6331 18.9795 13.709 18.851 13.8598C18.7233 14.011 18.655 14.2085 18.6451 14.4516Z" fill="white"/>
<path d="M22.2804 17.0787C21.9267 16.5628 21.75 15.9296 21.75 15.1799C21.75 14.4307 21.9267 13.7971 22.2804 13.2789C22.6349 12.7596 23.085 12.5 23.631 12.5C24.1326 12.5 24.546 12.7101 24.8713 13.1293V12.6474H26.1774V17.7036H24.8861V17.1315H24.8713C24.546 17.6112 24.1326 17.851 23.631 17.851C23.085 17.851 22.6349 17.5936 22.2804 17.0787ZM23.3905 14.324C23.2213 14.5473 23.1369 14.8334 23.1369 15.1821C23.1369 15.5298 23.218 15.8136 23.3806 16.0336C23.5429 16.2536 23.757 16.3636 24.023 16.3636C24.2787 16.3636 24.4892 16.2525 24.6539 16.0292C24.8186 15.8048 24.9009 15.5221 24.9009 15.1799C24.9009 14.8323 24.8157 14.5473 24.6456 14.324C24.4764 14.0996 24.2688 13.9874 24.023 13.9874C23.7714 13.9874 23.5606 14.0996 23.3905 14.324Z" fill="white"/>
<path d="M27.9937 12.6875V15.0924C27.9937 15.5913 28.0501 15.9461 28.1633 16.1573C28.2761 16.3674 28.468 16.4719 28.7382 16.4719C29.0091 16.4719 29.2014 16.3674 29.3146 16.1573C29.4275 15.9461 29.4843 15.5913 29.4843 15.0924V12.6875H30.7905V15.517C30.7905 16.3575 30.6266 16.9637 30.2996 17.3344C29.9723 17.7057 29.4518 17.8911 28.7382 17.8911C28.0254 17.8911 27.5053 17.7057 27.1783 17.3344C26.851 16.9637 26.6875 16.3575 26.6875 15.517V12.6875H27.9937Z" fill="white"/>
</svg>
