<svg width="63" height="67" viewBox="0 0 63 67" fill="none" xmlns="http://www.w3.org/2000/svg">
<path d="M45.4709 1.65039C45.3598 4.79304 43.9478 7.28427 42.1174 9.26562L41.6877 9.71387L41.6809 9.7207C39.5923 11.8504 36.9465 13.8006 32.8479 13.9131C32.9657 10.807 34.3821 8.45084 36.2532 6.45117L36.6868 6.00195L36.6897 5.99902C38.576 4.09122 42.0121 2.29268 45.4709 1.65039Z" fill="black" stroke="black" stroke-width="3"/>
<path d="M36.3818 18.9121C40.2382 17.7093 43.6248 16.4818 48.1328 17.0674V17.0684C52.9135 17.6926 56.3498 19.3262 58.668 21.7051C56.6643 22.9909 54.8369 24.5751 53.4824 26.5801C51.8668 28.9717 50.9794 31.8803 51.1777 35.4082L51.2314 36.1221C51.8485 42.7144 56.0297 46.7143 61.1074 49.1182C59.6716 52.4661 57.7434 55.4155 55.416 58.1973C52.8536 61.2433 50.2888 64.5 45.7383 64.5C43.6957 64.5 41.9831 63.9395 40.0225 63.2812C38.2162 62.6748 36.1983 61.9852 33.7764 61.8691L33.2871 61.8535H32.7754C30.2592 61.8897 28.2694 62.4526 26.4424 63.0479C24.5016 63.6802 22.853 64.3032 20.7773 64.5674H19.4092C16.7913 64.2105 14.5315 62.4773 12.6738 60.6006L12.3037 60.2197C6.64569 54.2757 2.31801 46.6566 1.5 36.9238V34.0537C1.83032 27.5332 5.39276 22.2394 10.125 19.5381L10.5869 19.2842L10.5918 19.2822C13.2884 17.8507 16.9147 16.6756 20.9004 17.2012V17.2021C22.6429 17.4354 24.4606 17.9557 26.1211 18.498V18.499C26.4924 18.6223 26.8881 18.7698 27.3428 18.9365C27.7861 19.0991 28.2727 19.2757 28.7764 19.4346C29.7711 19.7483 30.9289 20.026 32.1201 19.9951L32.1211 19.9961V19.9951L32.123 19.9961L32.1221 19.9951C32.9663 19.9738 33.7593 19.7767 34.4512 19.5615C34.7993 19.4533 35.1435 19.3335 35.4619 19.2227C35.7863 19.1097 36.0846 19.0046 36.3809 18.9111L36.3818 18.9121Z" fill="black" stroke="black" stroke-width="3"/>
</svg>
