<svg width="520" height="520" viewBox="0 0 520 520" fill="none" xmlns="http://www.w3.org/2000/svg">
<circle cx="260" cy="260" r="260" fill="#FF0000"/>
<path d="M44 318.265V248.049H62.9451V255.444H63.1601C68.0816 249.149 73.3195 246.002 78.88 246.002C81.6036 246.002 84.3032 246.46 86.9789 247.377C89.6546 248.278 92.2169 249.684 94.6716 251.594C97.1383 253.511 99.1391 256.23 100.668 259.752C102.197 263.258 102.962 267.345 102.962 272.004V318.265H84.0165V278.574C84.0165 274.93 83.1087 271.745 81.293 269.01C79.4773 266.26 77.1002 264.885 74.1736 264.885C71.3187 264.885 68.7326 266.306 66.4092 269.132C64.0978 271.966 62.9451 275.113 62.9451 278.574V318.265H44Z" fill="black"/>
<path d="M117.869 308.718C112.739 301.553 110.176 292.761 110.176 282.349C110.176 271.945 112.739 263.145 117.869 255.949C123.011 248.738 129.539 245.133 137.459 245.133C144.734 245.133 150.73 248.051 155.449 253.872V247.18H174.394V317.396H155.664V309.452H155.449C150.73 316.113 144.734 319.443 137.459 319.443C129.539 319.443 123.011 315.868 117.869 308.718ZM133.971 270.463C131.516 273.564 130.292 277.537 130.292 282.38C130.292 287.207 131.469 291.149 133.828 294.204C136.181 297.26 139.287 298.788 143.145 298.788C146.854 298.788 149.906 297.245 152.295 294.143C154.684 291.027 155.879 287.1 155.879 282.349C155.879 277.521 154.642 273.564 152.176 270.463C149.721 267.346 146.711 265.788 143.145 265.788C139.496 265.788 136.438 267.346 133.971 270.463Z" fill="black"/>
<path d="M185.113 208.587C187.323 205.761 189.963 204.34 193.021 204.34C196.09 204.34 198.736 205.761 200.952 208.587C203.162 211.398 204.273 214.774 204.273 218.701C204.273 222.635 203.162 226.019 200.952 228.845C198.736 231.656 196.09 233.062 193.021 233.062C189.963 233.062 187.323 231.656 185.113 228.845C182.897 226.019 181.792 222.635 181.792 218.701C181.792 214.774 182.897 211.398 185.113 208.587ZM183.297 247.728V317.944H202.242V247.728H183.297Z" fill="black"/>
<path d="M267.303 256.283C272.445 263.478 275.019 272.278 275.019 282.682C275.019 293.094 272.445 301.886 267.303 309.051C262.172 316.201 255.644 319.776 247.712 319.776C240.432 319.776 234.441 316.446 229.747 309.785H229.532V317.729H210.802V200H229.747V254.205C234.441 248.384 240.432 245.466 247.712 245.466C255.644 245.466 262.172 249.072 267.303 256.283ZM251.368 294.538C253.721 291.482 254.904 287.541 254.904 282.713C254.904 277.87 253.667 273.898 251.201 270.796C248.728 267.68 245.682 266.121 242.05 266.121C238.479 266.121 235.463 267.68 232.996 270.796C230.541 273.898 229.317 277.855 229.317 282.682C229.317 287.434 230.511 291.36 232.9 294.477C235.289 297.578 238.335 299.121 242.05 299.121C245.903 299.121 249.009 297.593 251.368 294.538Z" fill="white"/>
<path d="M340.114 285.649H300.288C300.288 290.584 301.537 294.235 304.039 296.618C306.536 298.986 309.253 300.163 312.186 300.163C315.244 300.163 317.663 299.636 319.448 298.574C321.228 297.52 323.271 295.442 325.564 292.341L339.254 301.11C333.55 313.332 324.059 319.443 310.776 319.443C302.51 319.443 295.415 315.822 289.49 308.565C283.565 301.316 280.603 292.577 280.603 282.349C280.603 272.128 283.565 263.367 289.49 256.072C295.415 248.784 302.51 245.133 310.776 245.133C319.484 245.133 326.568 248.356 332.015 254.788C337.474 261.205 340.209 270.394 340.209 282.349C340.209 283.999 340.173 285.099 340.114 285.649ZM300.838 272.235H321.694C321.264 268.569 320.141 265.758 318.326 263.802C316.51 261.847 314.175 260.869 311.326 260.869C308.184 260.869 305.688 261.923 303.824 264.016C301.973 266.117 300.981 268.859 300.838 272.235Z" fill="white"/>
<path d="M353.566 308.718C348.436 301.553 345.874 292.761 345.874 282.349C345.874 271.945 348.436 263.145 353.566 255.949C358.709 248.738 365.237 245.133 373.156 245.133C380.431 245.133 386.428 248.051 391.146 253.872V247.18H410.091V317.396H391.361V309.452H391.146C386.428 316.113 380.431 319.443 373.156 319.443C365.237 319.443 358.709 315.868 353.566 308.718ZM369.668 270.463C367.214 273.564 365.989 277.537 365.989 282.38C365.989 287.207 367.166 291.149 369.525 294.204C371.878 297.26 374.984 298.788 378.842 298.788C382.551 298.788 385.603 297.245 387.992 294.143C390.381 291.027 391.576 287.1 391.576 282.349C391.576 277.521 390.34 273.564 387.873 270.463C385.418 267.346 382.408 265.788 378.842 265.788C375.193 265.788 372.135 267.346 369.668 270.463Z" fill="white"/>
<path d="M436.434 247.736V281.133C436.434 288.062 437.252 292.989 438.895 295.922C440.531 298.84 443.314 300.291 447.232 300.291C451.162 300.291 453.952 298.84 455.594 295.922C457.231 292.989 458.055 288.062 458.055 281.133V247.736H477V287.03C477 298.702 474.623 307.12 469.881 312.269C465.132 317.425 457.583 319.999 447.232 319.999C436.894 319.999 429.35 317.425 424.608 312.269C419.86 307.12 417.489 298.702 417.489 287.03V247.736H436.434Z" fill="white"/>
</svg>
