<svg width="512" height="512" viewBox="0 0 512 512" fill="none" xmlns="http://www.w3.org/2000/svg">
<rect width="512" height="512" fill="white"/>
<rect width="512" height="512" fill="#FF0000"/>
<path d="M15 284.258V203.359H35.8986V211.878H36.1358C41.5647 204.626 47.3427 201 53.4766 201C56.4809 201 59.4589 201.528 62.4105 202.584C65.3622 203.623 68.1886 205.242 70.8965 207.442C73.6175 209.651 75.8246 212.785 77.5113 216.842C79.1979 220.882 80.0413 225.59 80.0413 230.959V284.258H59.1427V238.528C59.1427 234.329 58.1412 230.659 56.1383 227.509C54.1354 224.34 51.5132 222.756 48.2849 222.756C45.1356 222.756 42.2828 224.393 39.7199 227.649C37.1702 230.915 35.8986 234.541 35.8986 238.528V284.258H15Z" fill="black"/>
<path d="M96.4859 273.26C90.8264 265.004 88 254.874 88 242.879C88 230.892 90.8264 220.753 96.4859 212.462C102.159 204.154 109.36 200 118.096 200C126.121 200 132.736 203.362 137.941 210.068V202.359H158.839V283.258H138.178V274.105H137.941C132.736 281.779 126.121 285.616 118.096 285.616C109.36 285.616 102.159 281.497 96.4859 273.26ZM114.248 229.184C111.541 232.757 110.19 237.334 110.19 242.914C110.19 248.476 111.488 253.017 114.09 256.538C116.686 260.058 120.112 261.818 124.368 261.818C128.46 261.818 131.826 260.041 134.462 256.467C137.097 252.877 138.415 248.353 138.415 242.879C138.415 237.316 137.051 232.757 134.33 229.184C131.622 225.593 128.302 223.798 124.368 223.798C120.343 223.798 116.969 225.593 114.248 229.184Z" fill="black"/>
<path d="M170.663 157.893C173.101 154.637 176.013 153 179.386 153C182.773 153 185.691 154.637 188.136 157.893C190.574 161.132 191.799 165.022 191.799 169.546C191.799 174.078 190.574 177.977 188.136 181.234C185.691 184.472 182.773 186.092 179.386 186.092C176.013 186.092 173.101 184.472 170.663 181.234C168.219 177.977 167 174.078 167 169.546C167 165.022 168.219 161.132 170.663 157.893ZM168.66 202.99V283.889H189.559V202.99H168.66Z" fill="black"/>
<path d="M261.327 212.846C266.999 221.136 269.839 231.275 269.839 243.262C269.839 255.258 266.999 265.388 261.327 273.643C255.667 281.881 248.466 286 239.717 286C231.685 286 225.077 282.163 219.899 274.488H219.661V283.641H199V148H219.899V210.452C225.077 203.746 231.685 200.384 239.717 200.384C248.466 200.384 255.667 204.538 261.327 212.846ZM243.749 256.921C246.345 253.401 247.649 248.86 247.649 243.297C247.649 237.718 246.285 233.141 243.564 229.568C240.837 225.977 237.477 224.182 233.471 224.182C229.531 224.182 226.204 225.977 223.483 229.568C220.775 233.141 219.424 237.7 219.424 243.262C219.424 248.736 220.742 253.26 223.377 256.851C226.013 260.424 229.373 262.202 233.471 262.202C237.72 262.202 241.146 260.442 243.749 256.921Z" fill="white"/>
<path d="M341.647 246.681H297.716C297.716 252.366 299.093 256.573 301.853 259.319C304.607 262.047 307.605 263.403 310.84 263.403C314.213 263.403 316.881 262.795 318.851 261.572C320.815 260.357 323.068 257.964 325.598 254.39L340.699 264.494C334.407 278.576 323.938 285.616 309.285 285.616C300.166 285.616 292.339 281.445 285.804 273.084C279.268 264.732 276 254.663 276 242.879C276 231.103 279.268 221.008 285.804 212.603C292.339 204.207 300.166 200 309.285 200C318.891 200 326.705 203.714 332.713 211.124C338.735 218.517 341.753 229.105 341.753 242.879C341.753 244.78 341.713 246.047 341.647 246.681ZM298.322 231.226H321.329C320.854 227.002 319.616 223.763 317.613 221.51C315.61 219.257 313.034 218.13 309.891 218.13C306.426 218.13 303.672 219.345 301.616 221.756C299.574 224.176 298.48 227.336 298.322 231.226Z" fill="white"/>
<path d="M356.486 273.26C350.826 265.004 348 254.874 348 242.879C348 230.892 350.826 220.753 356.486 212.462C362.159 204.154 369.36 200 378.096 200C386.121 200 392.736 203.362 397.941 210.068V202.359H418.839V283.258H398.178V274.105H397.941C392.736 281.779 386.121 285.616 378.096 285.616C369.36 285.616 362.159 281.497 356.486 273.26ZM374.248 229.184C371.541 232.757 370.19 237.334 370.19 242.914C370.19 248.476 371.488 253.017 374.09 256.538C376.686 260.058 380.112 261.818 384.368 261.818C388.46 261.818 391.826 260.041 394.462 256.467C397.097 252.877 398.415 248.353 398.415 242.879C398.415 237.316 397.051 232.757 394.33 229.184C391.622 225.593 388.302 223.798 384.368 223.798C380.343 223.798 376.969 225.593 374.248 229.184Z" fill="white"/>
<path d="M447.899 203V241.478C447.899 249.461 448.801 255.137 450.613 258.517C452.418 261.879 455.488 263.551 459.811 263.551C464.146 263.551 467.223 261.879 469.034 258.517C470.84 255.137 471.749 249.461 471.749 241.478V203H492.647V248.272C492.647 261.72 490.025 271.419 484.794 277.351C479.556 283.292 471.228 286.258 459.811 286.258C448.406 286.258 440.085 283.292 434.853 277.351C429.616 271.419 427 261.72 427 248.272V203H447.899Z" fill="white"/>
</svg>
