<svg width="1398" height="427" viewBox="0 0 1398 427" fill="none" xmlns="http://www.w3.org/2000/svg">
<path d="M1388.73 376.594C1388.73 381.968 1387.7 387.29 1385.7 392.254C1383.71 397.219 1380.78 401.729 1377.09 405.527C1373.4 409.325 1369.02 412.337 1364.2 414.39C1359.38 416.442 1354.22 417.496 1349 417.49H49.0001C38.4635 417.502 28.354 413.2 20.8947 405.53C13.4355 397.861 9.23736 387.453 9.22363 376.594V50.4577C9.23736 39.5941 13.4338 29.18 20.8916 21.5023C28.3493 13.8245 38.4588 9.51063 49.0001 9.50781H1348.99C1354.21 9.50781 1359.38 10.5671 1364.2 12.6251C1369.02 14.6832 1373.4 17.6997 1377.09 21.5024C1380.78 25.3051 1383.7 29.8195 1385.7 34.7877C1387.69 39.7559 1388.72 45.0806 1388.72 50.4577L1388.73 376.594Z" fill="white"/>
<path d="M1349 427H48.9979C36.0181 426.997 23.5694 421.688 14.3835 412.237C5.19753 402.786 0.0246971 389.966 0 376.589L0 50.4639C0.0192018 37.0806 5.18862 24.2515 14.3742 14.7911C23.5599 5.33062 36.0116 0.011296 48.9979 0L1348.99 0C1361.98 0.0169325 1374.43 5.33807 1383.61 14.7973C1392.79 24.2565 1397.97 37.0823 1397.99 50.4639V376.589C1398.01 404.395 1375.99 427 1349 427Z" fill="#A6A6A6"/>
<path d="M1388.73 376.594C1388.73 381.968 1387.7 387.29 1385.7 392.254C1383.71 397.219 1380.78 401.729 1377.09 405.527C1373.4 409.325 1369.02 412.337 1364.2 414.39C1359.38 416.442 1354.22 417.496 1349 417.49H49.0001C38.4635 417.502 28.354 413.2 20.8947 405.53C13.4355 397.861 9.23736 387.453 9.22363 376.594V50.4577C9.23736 39.5941 13.4338 29.18 20.8916 21.5023C28.3493 13.8245 38.4588 9.51063 49.0001 9.50781H1348.99C1354.21 9.50781 1359.38 10.5671 1364.2 12.6251C1369.02 14.6832 1373.4 17.6997 1377.09 21.5024C1380.78 25.3051 1383.7 29.8195 1385.7 34.7877C1387.69 39.7559 1388.72 45.0806 1388.72 50.4577L1388.73 376.594Z" fill="black"/>
<path d="M312.159 211.25C311.859 176.835 339.502 160.092 340.766 159.313C325.111 135.789 300.845 132.575 292.318 132.319C271.937 130.109 252.168 144.887 241.786 144.887C231.197 144.887 215.21 132.533 197.979 132.896C175.806 133.248 155.063 146.478 143.687 167.022C120.208 208.912 137.719 270.47 160.213 304.33C171.465 320.923 184.613 339.428 201.823 338.777C218.66 338.072 224.949 327.725 245.268 327.725C265.399 327.725 271.305 338.777 288.857 338.361C306.927 338.072 318.303 321.703 329.162 304.971C342.165 285.975 347.387 267.245 347.594 266.284C347.18 266.135 312.511 252.489 312.159 211.25ZM279.003 110.045C288.059 98.3739 294.255 82.4958 292.535 66.3828C279.428 66.9808 263.037 75.726 253.598 87.1407C245.247 97.1993 237.787 113.686 239.714 129.19C254.437 130.322 269.554 121.534 279.003 110.045Z" fill="white"/>
<path d="M1349 0H652.681L925.417 427H1349C1361.98 426.989 1374.43 421.672 1383.62 412.216C1392.8 402.761 1397.98 389.937 1398 376.557V50.4639C1397.98 37.0815 1392.81 24.254 1383.62 14.7942C1374.44 5.33435 1361.99 0.0141153 1349 0Z" fill="url(#paint0_linear_758_2979)"/>
<path d="M556.029 336.405H532.499L519.609 294.665H474.808L462.53 336.405H439.621L484.019 194.303H511.434L556.029 336.405ZM515.724 277.153L504.068 240.047C502.835 236.256 500.514 227.33 497.115 213.277H496.701C495.333 219.321 493.147 228.248 490.152 240.047L478.693 277.153H515.724ZM669.981 283.912C669.981 301.338 665.391 315.113 656.2 325.225C647.974 334.226 637.747 338.722 625.552 338.722C612.383 338.722 602.913 333.885 597.162 324.189V377.953H575.072V267.617C575.072 256.673 574.793 245.45 574.254 233.939H593.681L594.914 250.18H595.329C602.695 237.944 613.875 231.825 628.878 231.825C640.607 231.825 650.398 236.598 658.231 246.155C666.054 255.733 669.981 268.312 669.981 283.912ZM647.476 284.745C647.476 274.772 645.3 266.55 640.928 260.068C636.152 253.33 629.738 249.956 621.698 249.956C616.248 249.956 611.295 251.835 606.871 255.541C602.436 259.278 599.535 264.158 598.178 270.202C597.572 272.462 597.228 274.788 597.152 277.132V294.227C597.152 301.669 599.369 307.959 603.804 313.105C608.239 318.231 613.999 320.804 621.086 320.804C629.406 320.804 635.882 317.483 640.514 310.895C645.155 304.286 647.476 295.572 647.476 284.745ZM784.337 283.912C784.337 301.338 779.747 315.113 770.557 325.225C762.319 334.226 752.103 338.722 739.898 338.722C726.729 338.722 717.259 333.885 711.508 324.189V377.953H689.418V267.617C689.418 256.673 689.138 245.45 688.6 233.939H708.027L709.26 250.18H709.674C717.031 237.944 728.21 231.825 743.224 231.825C754.942 231.825 764.734 236.598 772.587 246.155C780.4 255.733 784.337 268.312 784.337 283.912ZM761.822 284.745C761.822 274.772 759.636 266.55 755.263 260.068C750.487 253.33 744.094 249.956 736.054 249.956C730.604 249.956 725.651 251.835 721.206 255.541C716.772 259.278 713.881 264.158 712.524 270.202C711.85 273.021 711.488 275.316 711.488 277.132V294.227C711.488 301.669 713.715 307.959 718.129 313.105C722.564 318.22 728.324 320.804 735.432 320.804C743.763 320.804 750.238 317.483 754.859 310.895C759.501 304.286 761.822 295.572 761.822 284.745ZM912.194 296.544C912.194 308.642 908.091 318.476 899.936 326.068C890.964 334.355 878.437 338.508 862.377 338.508C847.54 338.508 835.645 335.561 826.673 329.656L831.781 310.682C841.468 316.597 852.109 319.544 863.693 319.544C872.023 319.544 878.499 317.601 883.12 313.746C887.752 309.881 890.093 304.713 890.093 298.263C890.093 292.486 888.156 287.649 884.353 283.709C880.53 279.78 874.209 276.117 865.33 272.754C841.188 263.474 829.107 249.903 829.107 232.049C829.107 220.389 833.376 210.843 841.893 203.379C850.41 195.926 861.704 192.199 875.753 192.199C888.301 192.199 898.755 194.452 907.054 198.948L901.511 217.506C893.699 213.149 884.882 210.971 875.018 210.971C867.226 210.971 861.113 212.946 856.741 216.876C853.062 220.389 851.197 224.671 851.197 229.754C851.197 235.359 853.321 240.015 857.549 243.667C861.217 247.03 867.91 250.693 877.587 254.622C889.461 259.556 898.185 265.3 903.77 271.899C909.396 278.498 912.194 286.731 912.194 296.544ZM985.416 251.024H961.067V300.772C961.067 313.426 965.357 319.736 973.956 319.736C977.904 319.736 981.178 319.395 983.768 318.679L984.38 335.967C980.028 337.643 974.298 338.487 967.201 338.487C958.477 338.487 951.659 335.743 946.738 330.254C941.837 324.766 939.371 315.572 939.371 302.63V250.981H924.865V233.897H939.371V215.135L961.067 208.387V233.897H985.416V251.024ZM1095.06 284.328C1095.06 300.078 1090.69 313.009 1081.96 323.121C1072.83 333.532 1060.69 338.722 1045.55 338.722C1030.94 338.722 1019.33 333.735 1010.67 323.773C1002 313.789 997.673 301.21 997.673 286.037C997.673 270.159 1002.15 257.153 1011.07 247.041C1020.01 236.918 1032.05 231.857 1047.19 231.857C1061.78 231.857 1073.5 236.854 1082.37 246.828C1090.84 256.502 1095.06 268.995 1095.06 284.328ZM1072.16 284.852C1072.16 275.466 1070.19 267.415 1066.24 260.677C1061.61 252.54 1054.98 248.472 1046.39 248.472C1037.54 248.472 1030.76 252.54 1026.14 260.677C1022.18 267.415 1020.21 275.605 1020.21 285.279C1020.21 294.675 1022.18 302.748 1026.14 309.464C1030.91 317.601 1037.57 321.669 1046.2 321.669C1054.65 321.669 1061.27 317.515 1066.06 309.261C1070.12 302.363 1072.16 294.259 1072.16 284.852ZM1166.89 253.96C1164.59 253.533 1162.26 253.322 1159.93 253.33C1152.16 253.33 1146.15 256.342 1141.92 262.407C1138.25 267.746 1136.41 274.494 1136.41 282.641V336.405H1114.32V266.208C1114.34 255.452 1114.12 244.696 1113.68 233.95H1132.92L1133.73 253.555H1134.34C1136.68 246.817 1140.35 241.382 1145.38 237.314C1149.99 233.759 1155.59 231.833 1161.35 231.825C1163.39 231.825 1165.23 231.975 1166.87 232.241L1166.89 253.96ZM1265.69 280.324C1265.74 283.785 1265.47 287.243 1264.88 290.65H1198.61C1198.86 300.772 1202.07 308.525 1208.22 313.864C1213.81 318.626 1221.03 321.018 1229.9 321.018C1239.71 321.018 1248.66 319.416 1256.71 316.181L1260.17 331.973C1250.77 336.202 1239.66 338.305 1226.84 338.305C1211.42 338.305 1199.32 333.628 1190.51 324.296C1181.73 314.953 1177.33 302.396 1177.33 286.667C1177.33 271.227 1181.42 258.36 1189.61 248.098C1198.19 237.143 1209.79 231.665 1224.38 231.665C1238.7 231.665 1249.55 237.143 1256.92 248.098C1262.75 256.779 1265.69 267.543 1265.69 280.324ZM1244.62 274.419C1244.78 267.66 1243.33 261.841 1240.33 256.918C1236.51 250.575 1230.62 247.415 1222.74 247.415C1215.52 247.415 1209.63 250.501 1205.16 256.694C1201.48 261.616 1199.29 267.532 1198.62 274.398L1244.62 274.419Z" fill="white"/>
<path d="M468.436 144.056C462.292 144.056 456.977 143.747 452.553 143.223V74.5215C458.741 73.5364 464.993 73.0508 471.255 73.0693C496.588 73.0693 508.254 85.9148 508.254 106.854C508.254 131.008 494.474 144.056 468.436 144.056ZM472.146 81.8786C468.726 81.8786 465.815 82.0921 463.401 82.6047V134.83C464.706 135.044 467.214 135.14 470.737 135.14C487.335 135.14 496.784 125.402 496.784 107.164C496.784 90.9014 488.237 81.8786 472.146 81.8786ZM544.612 144.579C530.334 144.579 521.081 133.592 521.081 118.675C521.081 103.128 530.531 92.044 545.42 92.044C559.49 92.044 568.95 102.508 568.95 117.853C568.95 133.592 559.2 144.579 544.612 144.579ZM545.026 100.223C537.183 100.223 532.157 107.783 532.157 118.354C532.157 128.723 537.286 136.283 544.922 136.283C552.559 136.283 557.687 128.199 557.687 118.141C557.687 107.89 552.662 100.223 545.026 100.223ZM650.368 93.0797L635.085 143.437H625.128L618.797 121.568C617.223 116.219 615.913 110.792 614.871 105.306H614.663C613.866 110.794 612.353 116.294 610.747 121.568L604.012 143.437H593.951L579.57 93.0797H590.729L596.262 117.02C597.567 122.722 598.666 128.103 599.578 133.186H599.785C600.583 128.947 601.888 123.651 603.805 117.126L610.747 93.0904H619.595L626.237 116.614C627.843 122.316 629.148 127.911 630.164 133.197H630.454C631.158 128.018 632.267 122.519 633.769 116.614L639.706 93.0904L650.368 93.0797ZM706.629 143.437H695.771V114.521C695.771 105.616 692.455 101.152 685.917 101.152C679.483 101.152 675.059 106.854 675.059 113.485V143.437H664.2V107.474C664.2 103.021 664.096 98.2478 663.796 93.069H673.349L673.857 100.843H674.157C677.079 95.4609 683.006 92.044 689.647 92.044C699.905 92.044 706.639 100.127 706.639 113.282L706.629 143.437ZM736.573 143.437H725.704V69.9727H736.573V143.437ZM776.163 144.579C761.895 144.579 752.633 133.592 752.633 118.675C752.633 103.128 762.082 92.044 776.961 92.044C791.041 92.044 800.491 102.508 800.491 117.853C800.501 133.592 790.741 144.579 776.163 144.579ZM776.567 100.223C768.723 100.223 763.698 107.783 763.698 118.354C763.698 128.723 768.837 136.283 776.453 136.283C784.099 136.283 789.218 128.199 789.218 118.141C789.228 107.89 784.213 100.223 776.567 100.223ZM843.303 143.437L842.516 137.639H842.226C838.91 142.305 834.071 144.579 827.937 144.579C819.182 144.579 812.966 138.258 812.966 129.758C812.966 117.329 823.42 110.901 841.521 110.901V109.972C841.521 103.341 838.112 100.02 831.377 100.02C826.559 100.02 822.332 101.27 818.612 103.758L816.405 96.4006C820.923 93.4962 826.559 92.044 833.18 92.044C845.945 92.044 852.39 98.9846 852.39 112.877V131.424C852.39 136.507 852.607 140.447 853.094 143.448L843.303 143.437ZM841.811 118.354C829.751 118.354 823.7 121.366 823.7 128.509C823.7 133.795 826.818 136.379 831.149 136.379C836.672 136.379 841.811 132.033 841.811 126.128V118.354ZM905.118 143.437L904.61 135.354H904.31C901.191 141.461 895.948 144.579 888.623 144.579C876.842 144.579 868.118 133.901 868.118 118.878C868.118 103.128 877.163 92.0333 889.514 92.0333C896.052 92.0333 900.683 94.3077 903.294 98.8778H903.512V69.9727H914.381V129.865C914.381 134.734 914.495 139.294 914.785 143.437H905.118ZM903.512 113.806C903.512 106.758 898.984 100.746 892.073 100.746C884.022 100.746 879.101 108.104 879.101 118.461C879.101 128.616 884.209 135.567 891.855 135.567C898.683 135.567 903.512 129.449 903.512 122.198V113.806ZM983.293 144.579C969.025 144.579 959.773 133.592 959.773 118.675C959.773 103.128 969.222 92.044 984.101 92.044C998.182 92.044 1007.63 102.508 1007.63 117.853C1007.64 133.592 997.892 144.579 983.293 144.579ZM983.697 100.223C975.864 100.223 970.839 107.783 970.839 118.354C970.839 128.723 975.967 136.283 983.593 136.283C991.24 136.283 996.358 128.199 996.358 118.141C996.379 107.89 991.354 100.223 983.697 100.223ZM1066.03 143.437H1055.16V114.521C1055.16 105.616 1051.84 101.152 1045.3 101.152C1038.87 101.152 1034.46 106.854 1034.46 113.485V143.437H1023.59V107.474C1023.59 103.021 1023.48 98.2478 1023.18 93.069H1032.74L1033.24 100.843H1033.54C1036.46 95.4609 1042.39 92.0333 1049.02 92.0333C1059.28 92.0333 1066.03 100.116 1066.03 113.272V143.437ZM1139.08 101.473H1127.14V125.925C1127.14 132.15 1129.23 135.258 1133.46 135.258C1135.37 135.258 1136.98 135.044 1138.27 134.734L1138.58 143.234C1136.47 144.067 1133.65 144.483 1130.15 144.483C1121.59 144.483 1116.47 139.614 1116.47 126.865V101.473H1109.35V93.0797H1116.47V83.854L1127.14 80.5331V93.069H1139.08V101.473ZM1196.57 143.437H1185.72V114.735C1185.72 105.722 1182.41 101.163 1175.87 101.163C1170.24 101.163 1165 105.103 1165 113.079V143.437H1154.15V69.9727H1165V100.223H1165.21C1168.63 94.7348 1173.59 92.0333 1179.91 92.0333C1190.25 92.0333 1196.57 100.319 1196.57 113.485V143.437ZM1255.46 120.949H1222.87C1223.08 130.485 1229.2 135.866 1238.27 135.866C1243.09 135.866 1247.52 135.033 1251.44 133.485L1253.13 141.259C1248.51 143.33 1243.07 144.366 1236.74 144.366C1221.45 144.366 1212.41 134.414 1212.41 118.984C1212.41 103.544 1221.67 91.9372 1235.51 91.9372C1248 91.9372 1255.83 101.473 1255.83 115.877C1255.9 117.577 1255.78 119.28 1255.46 120.949ZM1245.5 112.973C1245.5 105.199 1241.7 99.7107 1234.76 99.7107C1228.52 99.7107 1223.59 105.306 1222.88 112.973H1245.5Z" fill="white"/>
<defs>
<linearGradient id="paint0_linear_758_2979" x1="1025.33" y1="428.134" x2="1025.33" y2="-1111.83" gradientUnits="userSpaceOnUse">
<stop stop-color="#1A1A1A" stop-opacity="0.1"/>
<stop offset="0.123" stop-color="#212121" stop-opacity="0.151"/>
<stop offset="0.308" stop-color="#353535" stop-opacity="0.227"/>
<stop offset="0.532" stop-color="#575757" stop-opacity="0.318"/>
<stop offset="0.783" stop-color="#858585" stop-opacity="0.421"/>
<stop offset="1" stop-color="#B3B3B3" stop-opacity="0.51"/>
</linearGradient>
</defs>
</svg>
