<svg width="648" height="108" viewBox="0 0 648 108" fill="none" xmlns="http://www.w3.org/2000/svg">
<path d="M567.248 2.47631C566.78 2.64818 566.717 2.78881 566.545 3.96068C566.201 6.42943 564.389 8.21068 561.92 8.50756C560.608 8.64818 560.108 9.33568 560.748 10.1013C560.936 10.3513 561.295 10.4763 562.014 10.5857C564.561 10.9451 566.201 12.6013 566.561 15.1638C566.67 15.8513 566.795 16.2107 567.045 16.3982C567.811 17.0388 568.498 16.5388 568.639 15.2263C568.78 14.0544 569.233 13.0857 570.03 12.2107C570.858 11.3044 571.889 10.7888 573.201 10.6013C574.436 10.4294 574.686 10.2419 574.686 9.57006C574.686 8.89818 574.311 8.61693 573.264 8.49193C570.826 8.19506 568.936 6.28881 568.655 3.83568C568.53 2.69506 567.998 2.19506 567.248 2.47631ZM568.108 7.71068C568.405 8.13256 569.608 9.24193 569.967 9.42943C569.983 9.42943 569.451 10.0076 568.764 10.6951L567.53 11.9451L567.326 11.5701C567.092 11.1326 565.53 9.64818 565.295 9.64818C565.17 9.64818 567.483 7.21068 567.655 7.16381C567.701 7.16381 567.905 7.39818 568.108 7.71068Z" fill="black"/>
<path d="M567.248 2.47631C566.78 2.64818 566.717 2.78881 566.545 3.96068C566.201 6.42943 564.389 8.21068 561.92 8.50756C560.608 8.64818 560.108 9.33568 560.748 10.1013C560.936 10.3513 561.295 10.4763 562.014 10.5857C564.561 10.9451 566.201 12.6013 566.561 15.1638C566.67 15.8513 566.795 16.2107 567.045 16.3982C567.811 17.0388 568.498 16.5388 568.639 15.2263C568.78 14.0544 569.233 13.0857 570.03 12.2107C570.858 11.3044 571.889 10.7888 573.201 10.6013C574.436 10.4294 574.686 10.2419 574.686 9.57006C574.686 8.89818 574.311 8.61693 573.264 8.49193C570.826 8.19506 568.936 6.28881 568.655 3.83568C568.53 2.69506 567.998 2.19506 567.248 2.47631ZM568.108 7.71068C568.405 8.13256 569.608 9.24193 569.967 9.42943C569.983 9.42943 569.451 10.0076 568.764 10.6951L567.53 11.9451L567.326 11.5701C567.092 11.1326 565.53 9.64818 565.295 9.64818C565.17 9.64818 567.483 7.21068 567.655 7.16381C567.701 7.16381 567.905 7.39818 568.108 7.71068Z" fill="#FF0000"/>
<path d="M592.982 13.1944C592.732 13.3975 592.607 13.7569 592.482 14.5537C592.139 17.0225 590.514 18.6475 587.92 19.0694C586.967 19.2256 586.779 19.3194 586.561 19.6787C586.357 20.0694 586.357 20.1631 586.561 20.5381C586.764 20.8975 586.967 20.9756 587.889 21.1319C588.498 21.2412 589.342 21.5069 589.779 21.7256C591.076 22.3819 592.201 23.8506 592.404 25.1631C592.451 25.4756 592.529 25.9912 592.576 26.2881C592.701 27.0537 593.264 27.4131 593.904 27.1475C594.404 26.9444 594.451 26.835 594.607 25.6631C594.826 24.0225 595.92 22.3975 597.295 21.71C597.623 21.5381 598.311 21.3194 598.826 21.2256C599.342 21.1162 599.92 21.0069 600.107 20.9756C600.498 20.8819 600.795 20.1787 600.607 19.6944C600.482 19.3662 599.67 19.0225 598.967 19.0225C597.811 19.0225 595.998 17.7725 595.217 16.4287C594.998 16.0381 594.732 15.2256 594.607 14.5381C594.342 12.9756 593.795 12.5381 592.982 13.1944ZM594.529 18.8819C594.529 18.9287 594.842 19.1944 595.232 19.4912C595.623 19.7881 595.936 20.0537 595.936 20.1006C595.936 20.1475 595.639 20.3975 595.295 20.6631C594.951 20.9131 594.404 21.46 594.107 21.8662L593.545 22.6006L593.107 22.0069C592.873 21.6787 592.326 21.1006 591.904 20.7412L591.123 20.0694L591.701 19.6475C592.357 19.1631 593.436 17.96 593.436 17.71C593.436 17.5381 594.514 18.6944 594.529 18.8819Z" fill="#FF0000"/>
<path d="M541.061 13.9766C540.92 14.1328 540.764 14.6641 540.717 15.1484C540.498 16.9297 539.264 18.6797 537.733 19.3516C537.358 19.5078 536.623 19.7109 536.108 19.7734C535.03 19.9297 534.655 20.1953 534.655 20.8203C534.639 21.4453 535.03 21.7109 536.123 21.8672C538.608 22.1953 540.452 24.0703 540.733 26.5547C540.842 27.5234 541.123 27.9297 541.733 27.9297C542.311 27.9297 542.811 27.2891 542.811 26.5234C542.811 24.3359 544.967 22.1016 547.295 21.8828C548.295 21.7891 548.905 21.3828 548.905 20.8203C548.905 20.1953 548.545 19.9297 547.498 19.7734C545.03 19.4453 543.092 17.6797 542.858 15.5391C542.748 14.4922 542.67 14.2109 542.405 13.9609C542.077 13.6328 541.358 13.6484 541.061 13.9766ZM542.327 19.1016C542.592 19.4766 543.139 20.0234 543.514 20.2891C543.905 20.5703 544.217 20.8047 544.217 20.8203C544.217 20.8359 543.905 21.0703 543.514 21.3516C543.139 21.6172 542.592 22.1641 542.311 22.5547L541.811 23.2578L540.936 22.2734C540.436 21.7266 539.858 21.1953 539.639 21.0703L539.233 20.8516L540.014 20.2422C540.452 19.8984 540.983 19.3516 541.217 19.0234C541.452 18.6797 541.686 18.4141 541.733 18.3984C541.78 18.3984 542.045 18.7109 542.327 19.1016Z" fill="black"/>
<path d="M541.061 13.9766C540.92 14.1328 540.764 14.6641 540.717 15.1484C540.498 16.9297 539.264 18.6797 537.733 19.3516C537.358 19.5078 536.623 19.7109 536.108 19.7734C535.03 19.9297 534.655 20.1953 534.655 20.8203C534.639 21.4453 535.03 21.7109 536.123 21.8672C538.608 22.1953 540.452 24.0703 540.733 26.5547C540.842 27.5234 541.123 27.9297 541.733 27.9297C542.311 27.9297 542.811 27.2891 542.811 26.5234C542.811 24.3359 544.967 22.1016 547.295 21.8828C548.295 21.7891 548.905 21.3828 548.905 20.8203C548.905 20.1953 548.545 19.9297 547.498 19.7734C545.03 19.4453 543.092 17.6797 542.858 15.5391C542.748 14.4922 542.67 14.2109 542.405 13.9609C542.077 13.6328 541.358 13.6484 541.061 13.9766ZM542.327 19.1016C542.592 19.4766 543.139 20.0234 543.514 20.2891C543.905 20.5703 544.217 20.8047 544.217 20.8203C544.217 20.8359 543.905 21.0703 543.514 21.3516C543.139 21.6172 542.592 22.1641 542.311 22.5547L541.811 23.2578L540.936 22.2734C540.436 21.7266 539.858 21.1953 539.639 21.0703L539.233 20.8516L540.014 20.2422C540.452 19.8984 540.983 19.3516 541.217 19.0234C541.452 18.6797 541.686 18.4141 541.733 18.3984C541.78 18.3984 542.045 18.7109 542.327 19.1016Z" fill="#FF0000"/>
<path d="M562.842 24.1016L558.451 28.5547L554.217 27.5391C551.873 26.9766 549.811 26.5234 549.623 26.5234C549.17 26.5234 548.748 26.9922 548.748 27.4922C548.748 27.6953 549.389 30.1328 550.154 32.8984C550.936 35.6641 551.561 38.0078 551.561 38.1328C551.561 38.2578 551.404 38.4766 551.232 38.6484C550.639 39.1797 550.467 39.8516 550.467 41.6797C550.467 43.6797 550.717 44.3984 551.607 44.9453C552.139 45.2734 552.17 45.2734 567.654 45.2734C583.139 45.2734 583.17 45.2734 583.701 44.9453C584.592 44.3984 584.842 43.6797 584.842 41.6797C584.842 39.8516 584.67 39.1797 584.076 38.6484C583.904 38.4766 583.748 38.2578 583.748 38.1328C583.748 38.0078 584.389 35.6641 585.154 32.8984C585.936 30.1328 586.561 27.6797 586.561 27.4609C586.561 26.9766 586.123 26.5234 585.67 26.5234C585.482 26.5234 583.436 26.9766 581.092 27.5391L576.857 28.5547L572.467 24.1016C568.826 20.3984 568.014 19.6484 567.654 19.6484C567.295 19.6484 566.482 20.3984 562.842 24.1016ZM571.904 26.3672C575.467 29.9922 576.107 30.5859 576.498 30.5859C576.748 30.5859 578.561 30.1953 580.529 29.7266C582.498 29.2578 584.139 28.8828 584.154 28.9141C584.186 28.9453 584.076 29.4141 583.904 29.9609C583.748 30.5234 583.17 32.5391 582.639 34.4453L581.67 37.9297H567.654H553.639L552.67 34.4453C552.139 32.5391 551.561 30.5234 551.404 29.9609C551.232 29.4141 551.123 28.9453 551.154 28.9141C551.186 28.8828 552.811 29.2422 554.779 29.7266C556.748 30.1953 558.561 30.5859 558.811 30.5859C559.201 30.5859 559.857 29.9922 563.404 26.3672C565.67 24.0391 567.592 22.1484 567.654 22.1484C567.717 22.1484 569.639 24.0391 571.904 26.3672ZM582.779 41.5859C582.811 42.7266 582.764 43.1797 582.623 43.2734C582.389 43.4141 553.123 43.4453 552.748 43.3047C552.545 43.2266 552.498 42.9297 552.498 41.6953C552.498 40.8516 552.545 40.1172 552.607 40.0703C552.654 40.0078 559.467 39.9766 567.717 39.9922L582.732 40.0391L582.779 41.5859Z" fill="#FF0000"/>
<path d="M535.279 31.8516C534.561 32.0547 533.514 32.9609 533.139 33.6953C532.545 34.8828 532.545 34.8672 534.686 45.3203C535.795 50.7734 536.826 55.5078 536.967 55.8359C537.498 57.1016 538.264 57.8828 542.951 61.8359C547.701 65.8359 547.795 65.9141 547.951 66.6484C548.029 67.0547 548.061 67.4141 547.998 67.4766C547.936 67.5234 547.389 67.7109 546.779 67.8984C545.576 68.2734 545.264 68.5078 545.279 69.0703C545.279 69.6016 547.483 76.7266 547.733 76.9766C547.842 77.0859 548.108 77.1953 548.326 77.1953C548.904 77.1953 566.92 71.6797 567.233 71.3984C567.373 71.2734 567.498 70.9922 567.498 70.7891C567.498 70.2109 565.311 63.1953 565.014 62.8672C564.764 62.5859 564.092 62.5859 563.201 62.8516C562.92 62.9297 562.717 62.5234 561.186 58.8047C559.389 54.4297 558.889 53.5547 557.654 52.6484C556.592 51.8672 544.529 44.9766 543.904 44.8047C543.608 44.7266 543.17 44.6484 542.936 44.6484C542.576 44.6484 542.483 44.5547 542.358 44.0547C542.279 43.7422 541.654 41.3359 540.998 38.7266C539.654 33.4922 539.42 32.9297 538.217 32.2266C537.42 31.7578 536.186 31.6016 535.279 31.8516ZM537.092 33.8984C537.311 33.9922 537.592 34.2266 537.733 34.4297C537.858 34.6172 538.561 37.1953 539.295 40.1328C540.623 45.4297 540.639 45.4766 540.342 45.8047C539.717 46.4766 539.467 47.1953 539.467 48.3203C539.451 49.5078 539.779 50.3516 540.498 51.0078C541.108 51.5703 550.123 56.6797 550.498 56.6797C550.701 56.6797 550.936 56.6172 551.045 56.5547C551.326 56.3672 551.529 55.6953 551.404 55.3359C551.326 55.1328 549.608 54.0547 546.592 52.3359C544.014 50.8516 541.826 49.5391 541.717 49.4141C541.451 49.0859 541.358 48.0703 541.545 47.5859C541.748 47.0391 542.561 46.6172 543.186 46.7266C543.67 46.8047 555.529 53.5234 556.529 54.2891C556.811 54.4922 557.217 54.9297 557.42 55.2422C557.967 56.0703 560.983 63.4141 560.826 63.5547C560.639 63.7109 550.139 66.8828 550.061 66.8047C550.029 66.7578 549.936 66.3672 549.842 65.9141C549.764 65.4609 549.639 65.0078 549.576 64.8984C549.498 64.7891 547.186 62.7891 544.42 60.4453C539.967 56.6953 539.358 56.1172 538.998 55.3828C538.498 54.3516 534.623 35.6016 534.764 34.9297C534.983 33.9922 536.154 33.4609 537.092 33.8984ZM564.498 67.4141C564.936 68.8516 565.279 70.0391 565.264 70.0547C565.248 70.0703 561.623 71.1797 557.201 72.5234C551.826 74.1641 549.123 74.9141 549.061 74.8047C548.904 74.5547 547.467 69.7891 547.529 69.7422C547.561 69.7266 550.639 68.7734 554.373 67.6484C558.108 66.5078 561.701 65.4141 562.342 65.2109C562.983 64.9922 563.561 64.8203 563.608 64.8203C563.654 64.8047 564.061 65.9766 564.498 67.4141Z" fill="#FF0000"/>
<path d="M597.795 31.8984C596.936 32.1953 596.295 32.7266 595.873 33.4453C595.639 33.8516 595.029 35.9453 594.295 38.7891C593.639 41.3672 593.029 43.7422 592.951 44.0547C592.811 44.5859 592.748 44.6484 592.295 44.6484C592.014 44.6641 591.545 44.7578 591.248 44.8672C590.311 45.1953 577.967 52.3516 577.264 52.9609C576.248 53.8516 575.811 54.6797 574.045 58.9922C572.592 62.5391 572.389 62.9297 572.107 62.8516C571.217 62.5859 570.545 62.5859 570.295 62.8672C569.998 63.1953 567.811 70.2109 567.811 70.7891C567.811 70.9922 567.936 71.2734 568.092 71.3984C568.404 71.6641 586.42 77.1797 586.998 77.1797C587.201 77.1797 587.467 77.0859 587.576 76.9766C587.857 76.6953 589.998 69.6641 589.998 69.0391C589.998 68.4609 589.686 68.2266 588.357 67.8359C587.842 67.6797 587.373 67.5234 587.311 67.4766C587.248 67.4297 587.279 67.0547 587.357 66.6484C587.514 65.9453 587.623 65.8359 592.342 61.8516C597.029 57.8828 597.811 57.1172 598.342 55.8359C598.482 55.5078 599.514 50.7734 600.623 45.3203C602.139 37.9766 602.639 35.2422 602.561 34.8203C602.154 32.5859 599.842 31.1641 597.795 31.8984ZM599.967 34.1016C600.232 34.3203 600.482 34.6953 600.545 34.9453C600.686 35.6172 596.811 54.3359 596.311 55.3984C595.951 56.1328 595.357 56.6797 590.857 60.4766C585.639 64.8672 585.623 64.8672 585.389 66.2422C585.342 66.5703 585.248 66.8359 585.186 66.8359C584.982 66.8203 574.529 63.6016 574.436 63.5234C574.326 63.3984 577.436 55.9453 577.889 55.2422C578.092 54.9297 578.498 54.5078 578.779 54.2891C579.811 53.5078 591.654 46.8047 592.123 46.7266C592.748 46.6172 593.561 47.0391 593.764 47.5859C593.951 48.0703 593.857 49.0859 593.592 49.4141C593.482 49.5391 591.295 50.8516 588.717 52.3359C583.826 55.1484 583.545 55.3672 583.92 56.1016C584.154 56.5391 584.357 56.6797 584.811 56.6797C585.186 56.6797 594.201 51.5703 594.811 51.0078C596.154 49.7734 596.232 47.1797 594.967 45.8047C594.67 45.4766 594.686 45.4297 596.014 40.1172C596.748 37.1641 597.451 34.6172 597.576 34.4453C598.139 33.6328 599.232 33.4922 599.967 34.1016ZM579.842 67.3047C584.186 68.6328 587.748 69.7266 587.779 69.7422C587.842 69.7891 586.404 74.5547 586.264 74.7891C586.186 74.8984 583.232 74.0703 578.123 72.5234C573.701 71.1797 570.061 70.0703 570.045 70.0547C569.936 69.9609 571.654 64.8047 571.779 64.8516C571.873 64.8828 575.498 65.9922 579.842 67.3047Z" fill="#FF0000"/>
<path d="M234.625 0.093755C229.594 0.718755 225.391 2.76563 221.891 6.3125C218.781 9.45313 217 12.7969 216.078 17.1875C215.703 19.0313 215.703 23.1563 216.078 25C216.953 29.1875 218.734 32.6094 221.562 35.5938C224.656 38.8281 228.344 40.875 232.797 41.8281C234.609 42.2187 239.031 42.2187 240.875 41.8281C245.234 40.8906 248.891 38.875 251.938 35.7188C254.891 32.6406 256.719 29.1719 257.547 25.0313C257.922 23.1563 257.922 19.0313 257.547 17.1875C256.641 12.8125 254.766 9.34375 251.672 6.23438C250.031 4.59375 248.016 3.10938 246.188 2.1875C244.922 1.54688 242.344 0.67188 240.844 0.39063C239.578 0.14063 235.719 -0.04687 234.625 0.093755ZM239.953 3.51563C243.703 4.21875 246.75 5.82813 249.484 8.57813C252.953 12.0781 254.625 16.1406 254.625 21.0938C254.625 26.2031 252.797 30.4688 249.125 34C246.875 36.1406 244.266 37.625 241.375 38.3906C239.328 38.9219 235.688 39.0625 233.641 38.6875C229.859 37.9688 226.938 36.4063 224.156 33.5938C221.75 31.1719 220.328 28.7031 219.453 25.3594C218.984 23.6094 218.875 19.9531 219.219 18.0625C220.609 10.6875 226 5.125 233.234 3.60938C235.078 3.21875 238.125 3.1875 239.953 3.51563Z" fill="#FF0000"/>
<path d="M229.687 10.92C229 11.3419 228.75 12.1231 229.062 12.8575C229.437 13.7637 229.906 13.9044 232.453 13.9044C233.75 13.9044 234.937 13.9825 235.312 14.0919C235.953 14.295 237.437 15.545 237.437 15.9044C237.437 16.045 236.5 16.0919 233.843 16.0919C229.781 16.0919 229.468 16.1544 229.062 17.1387C228.75 17.8731 229 18.6544 229.687 19.0762C230.125 19.3419 230.5 19.3731 233.812 19.3731C235.796 19.3731 237.437 19.42 237.437 19.4825C237.437 19.795 236.546 20.6544 235.843 20.9981C235.078 21.3731 234.89 21.4044 232.718 21.4044C229.968 21.4044 229.421 21.5606 229.062 22.42C228.625 23.4825 228.765 23.67 233.843 28.4669C236.656 31.1231 238.734 32.9669 239.062 33.1075C239.546 33.295 239.671 33.2794 240.203 33.0294C240.921 32.67 241.281 31.8575 241.015 31.1075C240.921 30.8262 239.656 29.5137 237.734 27.7169L234.609 24.7794L235.75 24.4981C237.14 24.1544 238.343 23.4512 239.281 22.42C239.937 21.7012 240.875 20.0137 240.875 19.5606C240.875 19.4356 241.234 19.3731 242.171 19.3731C243.703 19.3731 244.343 19.0762 244.609 18.2325C244.765 17.795 244.75 17.5762 244.562 17.1387C244.234 16.3419 243.64 16.0919 242.125 16.0919C241.125 16.0919 240.875 16.045 240.875 15.8575C240.875 15.7325 240.703 15.2481 240.5 14.7637L240.109 13.9044H241.781C243.156 13.9044 243.546 13.8419 243.937 13.6075C244.625 13.1856 244.875 12.4044 244.562 11.67C244.125 10.6231 244.156 10.6231 236.781 10.6231C230.546 10.6231 230.14 10.6387 229.687 10.92Z" fill="#FF0000"/>
<path d="M216.516 42.6875C214.734 42.8906 212.078 43.5781 210.172 44.3281C209.312 44.6719 207.031 45.7188 205.109 46.6562C202.406 47.9688 201.578 48.2969 201.531 48.125C201.359 47.6094 199.875 46.2656 199.109 45.9219C198.312 45.5625 198.188 45.5469 193.766 45.5469H189.234L188.344 45.9844C187.219 46.5312 186.141 47.7031 185.766 48.7969C185.5 49.5625 185.484 50.4375 185.484 62.7344C185.484 75.0312 185.5 75.9062 185.766 76.6719C186.141 77.7656 187.219 78.9375 188.344 79.4844L189.234 79.9219H193.688C198.844 79.9219 199.125 79.8594 200.5 78.5625C201.594 77.5312 202 76.5625 202.094 74.75L202.172 73.3281L205.391 72.7656C211.297 71.7031 210.828 71.7031 222.594 72.2812C231.984 72.7344 234.859 72.7188 237.359 72.1875C241.562 71.2969 245.078 69.5938 248.531 66.7969C253.547 62.7031 260.906 56.5 261.234 56.0625C262.5 54.3594 262.844 52.1094 262.094 50.2344C261.469 48.625 259.875 47.1562 258.25 46.625C257.047 46.25 255.141 46.375 254 46.9219C253.5 47.1562 250.906 49.1562 247.828 51.6562C240.047 57.9688 239.953 58.0469 237.516 58.7969C235.922 59.2812 235.328 59.3438 230.031 59.5312C225.016 59.7031 225.438 59.8125 224.516 58.1562L223.953 57.1562L224.266 56.75C224.547 56.375 224.875 56.2812 229.266 55.4531C231.859 54.9531 234.297 54.4062 234.688 54.2344C235.688 53.7969 236.984 52.5156 237.531 51.4531C237.938 50.625 237.984 50.4062 237.984 48.9062C237.984 47.3594 237.953 47.2031 237.469 46.2188C236.859 44.9844 236.031 44.1875 234.656 43.5469L233.625 43.0625L227.141 42.7969C219.969 42.4844 218.453 42.4688 216.516 42.6875ZM227.344 46.0156C232.344 46.2344 233.016 46.2969 233.562 46.5781C235.5 47.5625 235.266 50.5469 233.172 51.3125C232.812 51.4531 230.578 51.9062 228.219 52.3438C223.219 53.2656 222.516 53.5156 221.703 54.75C220.625 56.3281 220.625 57.7344 221.672 59.6406C222.547 61.2188 223.344 62.0625 224.359 62.5C225.156 62.8438 225.25 62.8438 229.391 62.75C236.172 62.5781 238.016 62.2812 240.797 60.9375C242.391 60.1719 242.922 59.7812 249.297 54.625C255.047 49.9688 255.125 49.9062 255.891 49.6719C257.484 49.2188 259.312 50.6875 259.312 52.4062C259.312 53.6094 259.078 53.8594 252.281 59.5C248.719 62.4688 245.172 65.2969 244.406 65.8125C241.875 67.4844 238.891 68.6562 235.906 69.1562C233.922 69.4688 230.734 69.4219 219.625 68.9062C211.016 68.4844 210.375 68.5156 205.391 69.4531C203.812 69.75 202.422 70 202.328 70C202.172 70 202.125 68.0625 202.125 60.8125V51.6406L205.688 49.9375C210.25 47.7344 211.688 47.1094 213.344 46.625C216.484 45.7188 218.359 45.6406 227.344 46.0156ZM198.312 49.2812L198.844 49.8125V62.7344V75.6562L198.312 76.1875L197.781 76.7188H193.812C189.484 76.7188 189.406 76.7031 188.922 75.7812C188.562 75.0938 188.562 50.375 188.922 49.6875C189.406 48.7656 189.484 48.75 193.812 48.75H197.781L198.312 49.2812Z" fill="#FF0000"/>
<path d="M68.3281 0.375C67.8594 0.734375 67.75 1.51562 67.75 4.45312C67.75 8.07812 67.9375 8.73438 69 8.73438C70.0625 8.73438 70.25 8.07812 70.25 4.45312C70.25 0.828125 70.0625 0.171875 69 0.171875C68.7812 0.171875 68.4844 0.265625 68.3281 0.375Z" fill="black"/>
<path d="M68.3281 0.375C67.8594 0.734375 67.75 1.51562 67.75 4.45312C67.75 8.07812 67.9375 8.73438 69 8.73438C70.0625 8.73438 70.25 8.07812 70.25 4.45312C70.25 0.828125 70.0625 0.171875 69 0.171875C68.7812 0.171875 68.4844 0.265625 68.3281 0.375Z" fill="#FF0000"/>
<path d="M58.4062 3.17111C58.2188 3.37423 58.0625 3.70236 58.0625 3.92111C58.0625 4.28048 60.9688 9.48361 61.5469 10.1555C61.9531 10.6399 62.7969 10.5774 63.2188 10.0461C63.4375 9.76486 63.5312 9.48361 63.4688 9.21798C63.3906 8.79611 60.4062 3.54611 59.9844 3.09298C59.625 2.68673 58.8125 2.73361 58.4062 3.17111Z" fill="black"/>
<path d="M58.4062 3.17111C58.2188 3.37423 58.0625 3.70236 58.0625 3.92111C58.0625 4.28048 60.9688 9.48361 61.5469 10.1555C61.9531 10.6399 62.7969 10.5774 63.2188 10.0461C63.4375 9.76486 63.5312 9.48361 63.4688 9.21798C63.3906 8.79611 60.4062 3.54611 59.9844 3.09298C59.625 2.68673 58.8125 2.73361 58.4062 3.17111Z" fill="#FF0000"/>
<path d="M78.0161 3.09298C77.5942 3.54611 74.6098 8.79611 74.5317 9.21798C74.4692 9.48361 74.563 9.76486 74.7817 10.0461C75.2036 10.5774 76.0473 10.6399 76.4536 10.1555C77.0473 9.46798 79.938 4.26486 79.938 3.88986C79.938 3.01486 78.5942 2.45236 78.0161 3.09298Z" fill="black"/>
<path d="M78.0161 3.09298C77.5942 3.54611 74.6098 8.79611 74.5317 9.21798C74.4692 9.48361 74.563 9.76486 74.7817 10.0461C75.2036 10.5774 76.0473 10.6399 76.4536 10.1555C77.0473 9.46798 79.938 4.26486 79.938 3.88986C79.938 3.01486 78.5942 2.45236 78.0161 3.09298Z" fill="#FF0000"/>
<path d="M47.6094 8.0627C44.1406 9.0002 41.6562 12.2033 41.6562 15.7814C41.6562 17.7033 42.1406 19.1877 43.2656 20.6564L43.7969 21.3439L42.8438 21.8439C40.4062 23.1096 38.4062 25.5002 37.5156 28.2346L37.25 29.0627H36.2656C35.0312 29.0627 31.875 29.4689 31.0781 29.7346C30.7344 29.8439 30.4062 30.0783 30.2969 30.3127C30.1406 30.6252 30.0938 33.9221 30.0938 45.5939V60.5002L30.5469 60.9533L31 61.4064H36.4688C42.7188 61.4064 42.5 61.4533 42.9844 60.0002L43.2344 59.2189L43.8125 59.4689C44.9844 59.9533 46.4688 60.8439 47.8594 61.8908C48.8281 62.6408 51.4844 65.2189 56.0625 69.8908C65.5469 79.5939 65.2344 79.2814 66.1094 79.5939C68.0312 80.2346 70.0156 79.5314 70.9844 77.8439C71.2031 77.4377 71.4219 77.0783 71.4375 77.0471C71.4688 77.0158 71.7656 77.1096 72.125 77.2502C72.4844 77.3908 73.2031 77.5002 73.8125 77.5002C75.9531 77.5002 77.7969 76.1096 78.2969 74.1096L78.4688 73.4221L79.875 73.3908C81.4688 73.3439 82.125 73.0783 83.125 72.0783C83.7969 71.4221 84.4688 70.1408 84.4688 69.5158C84.4688 69.1096 84.5 69.0939 85.6875 69.0314C87.5938 68.9221 88.9219 68.0627 89.8125 66.3596C90.3438 65.3439 90.3125 63.5002 89.75 62.3283C89.5 61.8439 89.3125 61.4221 89.3125 61.3752C89.3125 61.3283 89.5312 61.2502 89.7969 61.1877C90.0625 61.1408 91.2344 60.6408 92.4062 60.0783C93.5625 59.5158 94.5625 59.0627 94.625 59.0627C94.6719 59.0627 94.8438 59.4533 95 59.9221C95.4844 61.4689 95.2344 61.4064 101.531 61.4064H107L107.453 60.9533L107.906 60.5002V45.5939C107.906 33.9221 107.859 30.6252 107.703 30.3127C107.594 30.0783 107.266 29.8439 106.922 29.7346C106.125 29.4689 102.969 29.0627 101.734 29.0627H100.75L100.484 28.2346C99.5938 25.5002 97.5938 23.1096 95.1562 21.8439L94.2031 21.3439L94.7344 20.6564C95.8594 19.1877 96.3438 17.7033 96.3438 15.7814C96.3438 11.3439 92.7344 7.8127 88.2188 7.8127C85.9688 7.8127 84.1719 8.5627 82.5625 10.1721C79.7188 13.0002 79.3438 17.3908 81.6719 20.4689C82.0312 20.9377 82.2656 21.3283 82.1719 21.3596C82.0938 21.3908 81.5781 21.6721 81.0156 22.0002C79.625 22.7971 77.6406 24.8127 76.9688 26.1252L76.4375 27.1564L75.6875 26.7814L74.9375 26.4064L75.5156 25.6564C77.3281 23.2971 77.6094 20.2033 76.2812 17.4221C73.9062 12.4221 67.2031 11.2971 63.25 15.2502C60.4219 18.0783 60.0938 22.5314 62.4844 25.6564L63.0625 26.4064L62.3125 26.7814L61.5625 27.1564L61.0312 26.1252C60.3594 24.8127 58.375 22.7971 56.9844 22.0002C56.4219 21.6721 55.9062 21.3908 55.8281 21.3596C55.7344 21.3283 55.9688 20.9377 56.3281 20.4689C57.0938 19.4377 57.5469 18.3283 57.7812 16.8127C58.3594 13.0002 55.6875 9.07832 51.7969 8.04707C50.7344 7.7502 48.7031 7.76582 47.6094 8.0627ZM52.125 10.6564C53.7812 11.4064 54.875 12.7346 55.3438 14.5158C55.8438 16.4846 55.1875 18.5314 53.6094 19.9846C52.4531 21.0314 51.3281 21.4533 49.7031 21.4689C48.6094 21.4689 48.2969 21.4064 47.4062 20.9846C46.0781 20.3596 45.2656 19.6096 44.625 18.4064C44.1875 17.5783 44.0781 17.2189 44.0312 16.1564C43.9531 14.6564 44.2188 13.7033 45 12.5783C45.6562 11.6721 46.9219 10.7033 47.875 10.3908C49.0156 10.0314 51.0469 10.1564 52.125 10.6564ZM90.7656 10.6877C91.9062 11.2346 92.9219 12.2658 93.4844 13.4064C93.875 14.1877 93.9219 14.4689 93.9219 15.7814C93.9219 17.1408 93.875 17.3596 93.4062 18.3127C92.7969 19.5471 91.9688 20.3439 90.5938 20.9846C89.7031 21.4064 89.3906 21.4689 88.2969 21.4689C85.9688 21.4533 84.0625 20.2658 83.0469 18.1877C81.8438 15.7658 82.7031 12.6721 85 11.1252C86.125 10.3752 86.9844 10.1564 88.5469 10.2033C89.6406 10.2346 90.0469 10.3283 90.7656 10.6877ZM71.6094 15.8596C72.875 16.4846 73.625 17.2502 74.2812 18.5939C74.6406 19.3283 74.7031 19.6408 74.7031 20.8596C74.7031 22.1408 74.6562 22.3752 74.2031 23.2971C73.5938 24.5314 72.6094 25.4846 71.375 26.0627C70.6094 26.4221 70.2812 26.4846 69 26.4846C67.7188 26.4846 67.3906 26.4221 66.625 26.0627C65.3906 25.4846 64.4062 24.5314 63.7969 23.2971C63.3438 22.3752 63.2969 22.1408 63.2969 20.8596C63.2969 19.6408 63.3594 19.3283 63.7188 18.5939C64.3281 17.3596 65.0938 16.5314 66.1562 15.9689C67.3906 15.3127 68.0781 15.1564 69.3906 15.2346C70.2344 15.2814 70.7344 15.4221 71.6094 15.8596ZM47.2812 23.4689C48.6875 23.9221 50.8906 23.9221 52.2344 23.4533C52.7656 23.2814 53.375 23.1252 53.5938 23.1252C53.7969 23.1252 54.5469 23.4221 55.2656 23.7814C56.9062 24.5939 58.375 26.0158 59.1406 27.5314L59.6562 28.5783L58.9531 29.4064C57.4531 31.1721 56.3438 33.9377 56.3438 35.9689V36.8752H55.8125C55 36.8752 51.7188 36.1252 51.3906 35.8596C51.3594 35.8439 51.5625 35.1877 51.8281 34.4064C52.4844 32.4689 52.4062 32.3127 50.4062 31.5158C47.6094 30.3908 44.2031 29.5783 40.5312 29.1252C40.0781 29.0783 39.7812 28.9689 39.7812 28.8439C39.7812 28.3752 40.8281 26.6252 41.625 25.7658C42.6406 24.6564 43.5938 23.9846 44.7812 23.4846C45.8438 23.0471 46.0156 23.0471 47.2812 23.4689ZM85.7656 23.4533C87.1719 23.9377 89.1562 23.9377 90.7656 23.4533C91.9531 23.0783 92.0156 23.0783 92.8125 23.3283C94.6719 23.9221 96.8594 25.8596 97.75 27.7189C98 28.2658 98.2188 28.7814 98.2188 28.8752C98.2188 29.0314 97.7969 29.1252 96.1094 29.2971C92.6719 29.6721 86.4844 31.5783 85.9219 32.4533C85.6719 32.8283 85.6875 32.9064 86.0938 34.1721C86.3281 34.8908 86.4844 35.5314 86.4375 35.5783C86.3438 35.6877 83.5625 35.3596 82.4531 35.1096L81.625 34.9221L81.3281 33.7814C80.9688 32.3439 80 30.4689 79.0625 29.4064L78.3438 28.5783L78.8438 27.5471C79.5781 26.0471 81.0781 24.5939 82.7344 23.7814C83.4531 23.4221 84.2031 23.1252 84.4062 23.1252C84.625 23.1252 85.2344 23.2814 85.7656 23.4533ZM66.2656 28.4689C67.6094 28.9689 70.375 28.9689 71.75 28.4689C72.6719 28.1252 72.7344 28.1252 73.4688 28.3752C75.5938 29.0783 77.5 30.7502 78.4531 32.7346C78.7812 33.3908 78.9844 33.9689 78.9375 34.0158C78.8906 34.0627 77.9844 33.8439 76.9375 33.5314C74.4688 32.7971 72.9219 32.6096 71.25 32.8127C69.0312 33.0939 66.7812 34.0783 65.2344 35.4533C64.4688 36.1408 64.25 36.2502 63.1406 36.4689C61.9219 36.7033 59.5312 37.0314 58.9688 37.0314C58.7344 37.0314 58.6875 36.8908 58.6875 36.1252C58.6875 32.8439 61.0781 29.6096 64.375 28.4221C65.3594 28.0627 65.1719 28.0627 66.2656 28.4689ZM41.1875 31.5627C44.5312 31.9846 49.6094 33.4064 49.5 33.9064C49.4688 34.0314 47.5156 39.7502 45.1406 46.6096L40.8281 59.0627L36.6719 59.0314L32.5156 58.9846L32.4688 45.4221C32.4375 34.6564 32.4688 31.8439 32.625 31.7971C33.5781 31.4377 39 31.2971 41.1875 31.5627ZM104.859 31.6721L105.484 31.7971V45.3908V58.9846L101.328 59.0314L97.1719 59.0627L92.8594 46.6096C90.4844 39.7502 88.5312 34.0314 88.5 33.9064C88.4062 33.4377 93.2969 32.0314 96.5938 31.5783C97.7969 31.4064 103.891 31.4846 104.859 31.6721ZM76.0312 35.7189C77.0156 36.0158 78.6562 36.5002 79.6562 36.7971C81.8281 37.4377 83.6562 37.7658 85.8125 37.9064L87.4062 38.0158L90.625 47.3283C92.4062 52.4533 93.8438 56.6877 93.8438 56.7346C93.8438 56.7814 92.8125 57.3127 91.5469 57.9064C89.6406 58.7814 89.0625 58.9846 88.25 59.0314C86.3594 59.1564 86.6094 59.3596 78.4375 51.2346C73.4375 46.2346 70.9844 43.9064 70.7656 43.9064C70.3125 43.9064 68.75 45.1096 67.6562 46.2814C66.4531 47.5939 65.8906 48.8127 65.7188 50.5783C65.6406 51.3439 65.4688 52.2814 65.3281 52.6564C64.6719 54.5158 62.5 56.2189 60.0625 56.7971C59.5156 56.9221 59.0312 57.0314 58.9688 57.0314C58.7656 57.0314 58.8281 45.8283 59.0312 45.0939C59.1719 44.5939 59.6094 44.0627 61.0938 42.5783C64.3594 39.3439 67.2031 36.7814 68.0781 36.2814C70.5312 34.9064 72.7031 34.7502 76.0312 35.7189ZM52.5938 38.6721C54.7969 39.2346 56.7656 39.4221 59.0781 39.3283L61.1094 39.2346L59.375 40.9221C58 42.2658 57.5156 42.8596 57.1094 43.6877L56.5781 44.7658L56.5312 51.7502L56.4844 58.7346L56.8281 59.0783C57.1406 59.3908 57.2812 59.4064 58.6719 59.3439C61.3125 59.2033 63.7969 58.1252 65.6406 56.3283C67.1406 54.8596 68.0469 52.7033 68.0625 50.6564C68.0625 49.7189 68.6094 48.6564 69.6562 47.5783L70.5625 46.6564L77.4062 53.4689C81.5469 57.5939 84.5156 60.4377 84.9688 60.6877C86.0312 61.2971 87.7031 63.1408 87.8438 63.8283C87.9688 64.5471 87.8281 65.2189 87.4375 65.7814C86.8438 66.6252 85.4219 66.9689 84.5 66.5002C84.2656 66.3752 82.2656 64.4377 80.0469 62.2033C76.7031 58.7971 75.9688 58.1252 75.5938 58.1252C74.7031 58.1252 74.1094 59.0002 74.4844 59.7346C74.5938 59.9221 76.2031 61.6408 78.0938 63.5627C79.9688 65.4689 81.6406 67.2658 81.8125 67.5471C82.4688 68.6096 82.0781 70.1252 81 70.7814C80.4375 71.1252 79.3438 71.2033 78.7969 70.9221C78.6094 70.8439 76.5625 68.8283 74.2344 66.4689C70.5312 62.7033 69.9531 62.1877 69.5312 62.1877C68.8906 62.1877 68.375 62.6877 68.375 63.3439C68.375 63.7971 68.7656 64.2502 72.1094 67.6721C76 71.6721 76.3281 72.1096 76.125 73.1721C75.8281 74.7658 74.0781 75.6408 72.6719 74.9064C72.4219 74.7814 70.2031 72.6252 67.7812 70.1408C63.6875 65.9689 63.3125 65.6252 62.8125 65.6252C62.1406 65.6252 61.6562 66.0939 61.6562 66.7346C61.6562 67.1408 62.1719 67.7346 65.3906 71.0783C69.4375 75.2658 69.5625 75.4533 69.0625 76.4846C68.625 77.4377 67.4688 77.7814 66.6562 77.2189C66.4375 77.0783 63.1094 73.7189 59.25 69.7658C55.4062 65.8127 51.6719 62.0627 50.9844 61.4377C49.1406 59.7971 47.4375 58.6252 45.625 57.7346L44.0469 56.9377L47.2188 47.7346C48.9844 42.6564 50.4531 38.4221 50.4844 38.2971C50.5312 38.1721 50.6719 38.1408 50.8438 38.2033C50.9844 38.2502 51.7812 38.4689 52.5938 38.6721Z" fill="#FF0000"/>
<path d="M3.23959 104V93.5H4.84459L9.43459 101.165H8.59459L13.1096 93.5H14.7146L14.7296 104H12.8846L12.8696 96.395H13.2596L9.41959 102.8H8.54959L4.64959 96.395H5.09959V104H3.23959ZM20.7758 104.105C20.0958 104.105 19.4958 103.98 18.9758 103.73C18.4558 103.47 18.0508 103.08 17.7608 102.56C17.4708 102.03 17.3258 101.365 17.3258 100.565V95.99H19.2008V100.31C19.2008 101.03 19.3608 101.57 19.6808 101.93C20.0108 102.28 20.4758 102.455 21.0758 102.455C21.5158 102.455 21.8958 102.365 22.2158 102.185C22.5458 102.005 22.8008 101.735 22.9808 101.375C23.1708 101.015 23.2658 100.57 23.2658 100.04V95.99H25.1408V104H23.3558V101.84L23.6708 102.5C23.4008 103.02 23.0058 103.42 22.4858 103.7C21.9658 103.97 21.3958 104.105 20.7758 104.105ZM27.5957 104V92.87H29.4707V104H27.5957ZM35.3422 104.105C34.4622 104.105 33.7822 103.88 33.3022 103.43C32.8222 102.97 32.5822 102.295 32.5822 101.405V94.22H34.4572V101.36C34.4572 101.74 34.5522 102.035 34.7422 102.245C34.9422 102.455 35.2172 102.56 35.5672 102.56C35.9872 102.56 36.3372 102.45 36.6172 102.23L37.1422 103.565C36.9222 103.745 36.6522 103.88 36.3322 103.97C36.0122 104.06 35.6822 104.105 35.3422 104.105ZM31.2622 97.55V96.05H36.6022V97.55H31.2622ZM38.6846 104V95.99H40.5596V104H38.6846ZM39.6296 94.67C39.2796 94.67 38.9896 94.56 38.7596 94.34C38.5396 94.12 38.4296 93.855 38.4296 93.545C38.4296 93.225 38.5396 92.96 38.7596 92.75C38.9896 92.53 39.2796 92.42 39.6296 92.42C39.9796 92.42 40.2646 92.525 40.4846 92.735C40.7146 92.935 40.8296 93.19 40.8296 93.5C40.8296 93.83 40.7196 94.11 40.4996 94.34C40.2796 94.56 39.9896 94.67 39.6296 94.67ZM47.4605 104.105C46.8105 104.105 46.2155 103.955 45.6755 103.655C45.1455 103.355 44.7205 102.905 44.4005 102.305C44.0905 101.695 43.9355 100.925 43.9355 99.995C43.9355 99.055 44.0855 98.285 44.3855 97.685C44.6955 97.085 45.1155 96.64 45.6455 96.35C46.1755 96.05 46.7805 95.9 47.4605 95.9C48.2505 95.9 48.9455 96.07 49.5455 96.41C50.1555 96.75 50.6355 97.225 50.9855 97.835C51.3455 98.445 51.5255 99.165 51.5255 99.995C51.5255 100.825 51.3455 101.55 50.9855 102.17C50.6355 102.78 50.1555 103.255 49.5455 103.595C48.9455 103.935 48.2505 104.105 47.4605 104.105ZM43.0205 106.91V95.99H44.8055V97.88L44.7455 100.01L44.8955 102.14V106.91H43.0205ZM47.2505 102.5C47.7005 102.5 48.1005 102.4 48.4505 102.2C48.8105 102 49.0955 101.71 49.3055 101.33C49.5155 100.95 49.6205 100.505 49.6205 99.995C49.6205 99.475 49.5155 99.03 49.3055 98.66C49.0955 98.28 48.8105 97.99 48.4505 97.79C48.1005 97.59 47.7005 97.49 47.2505 97.49C46.8005 97.49 46.3955 97.59 46.0355 97.79C45.6755 97.99 45.3905 98.28 45.1805 98.66C44.9705 99.03 44.8655 99.475 44.8655 99.995C44.8655 100.505 44.9705 100.95 45.1805 101.33C45.3905 101.71 45.6755 102 46.0355 102.2C46.3955 102.4 46.8005 102.5 47.2505 102.5ZM53.3037 104V92.87H55.1787V104H53.3037ZM61.4047 104.105C60.5147 104.105 59.7347 103.93 59.0647 103.58C58.4047 103.22 57.8897 102.73 57.5197 102.11C57.1597 101.49 56.9797 100.785 56.9797 99.995C56.9797 99.195 57.1547 98.49 57.5047 97.88C57.8647 97.26 58.3547 96.775 58.9747 96.425C59.6047 96.075 60.3197 95.9 61.1197 95.9C61.8997 95.9 62.5947 96.07 63.2047 96.41C63.8147 96.75 64.2947 97.23 64.6447 97.85C64.9947 98.47 65.1697 99.2 65.1697 100.04C65.1697 100.12 65.1647 100.21 65.1547 100.31C65.1547 100.41 65.1497 100.505 65.1397 100.595H58.4647V99.35H64.1497L63.4147 99.74C63.4247 99.28 63.3297 98.875 63.1297 98.525C62.9297 98.175 62.6547 97.9 62.3047 97.7C61.9647 97.5 61.5697 97.4 61.1197 97.4C60.6597 97.4 60.2547 97.5 59.9047 97.7C59.5647 97.9 59.2947 98.18 59.0947 98.54C58.9047 98.89 58.8097 99.305 58.8097 99.785V100.085C58.8097 100.565 58.9197 100.99 59.1397 101.36C59.3597 101.73 59.6697 102.015 60.0697 102.215C60.4697 102.415 60.9297 102.515 61.4497 102.515C61.8997 102.515 62.3047 102.445 62.6647 102.305C63.0247 102.165 63.3447 101.945 63.6247 101.645L64.6297 102.8C64.2697 103.22 63.8147 103.545 63.2647 103.775C62.7247 103.995 62.1047 104.105 61.4047 104.105ZM71.2962 104V93.5H75.6162C76.5462 93.5 77.3412 93.65 78.0012 93.95C78.6712 94.25 79.1862 94.68 79.5462 95.24C79.9062 95.8 80.0862 96.465 80.0862 97.235C80.0862 98.005 79.9062 98.67 79.5462 99.23C79.1862 99.79 78.6712 100.22 78.0012 100.52C77.3412 100.82 76.5462 100.97 75.6162 100.97H72.3762L73.2462 100.055V104H71.2962ZM73.2462 100.265L72.3762 99.32H75.5262C76.3862 99.32 77.0312 99.14 77.4612 98.78C77.9012 98.41 78.1212 97.895 78.1212 97.235C78.1212 96.565 77.9012 96.05 77.4612 95.69C77.0312 95.33 76.3862 95.15 75.5262 95.15H72.3762L73.2462 94.19V100.265ZM86.7153 104V102.38L86.6103 102.035V99.2C86.6103 98.65 86.4453 98.225 86.1153 97.925C85.7853 97.615 85.2853 97.46 84.6153 97.46C84.1653 97.46 83.7203 97.53 83.2803 97.67C82.8503 97.81 82.4853 98.005 82.1853 98.255L81.4503 96.89C81.8803 96.56 82.3903 96.315 82.9803 96.155C83.5803 95.985 84.2003 95.9 84.8403 95.9C86.0003 95.9 86.8953 96.18 87.5253 96.74C88.1653 97.29 88.4853 98.145 88.4853 99.305V104H86.7153ZM84.1953 104.105C83.5953 104.105 83.0703 104.005 82.6203 103.805C82.1703 103.595 81.8203 103.31 81.5703 102.95C81.3303 102.58 81.2103 102.165 81.2103 101.705C81.2103 101.255 81.3153 100.85 81.5253 100.49C81.7453 100.13 82.1003 99.845 82.5903 99.635C83.0803 99.425 83.7303 99.32 84.5403 99.32H86.8653V100.565H84.6753C84.0353 100.565 83.6053 100.67 83.3853 100.88C83.1653 101.08 83.0553 101.33 83.0553 101.63C83.0553 101.97 83.1903 102.24 83.4603 102.44C83.7303 102.64 84.1053 102.74 84.5853 102.74C85.0453 102.74 85.4553 102.635 85.8153 102.425C86.1853 102.215 86.4503 101.905 86.6103 101.495L86.9253 102.62C86.7453 103.09 86.4203 103.455 85.9503 103.715C85.4903 103.975 84.9053 104.105 84.1953 104.105ZM90.8916 104V95.99H92.6766V98.195L92.4666 97.55C92.7066 97.01 93.0816 96.6 93.5916 96.32C94.1116 96.04 94.7566 95.9 95.5266 95.9V97.685C95.4466 97.665 95.3716 97.655 95.3016 97.655C95.2316 97.645 95.1616 97.64 95.0916 97.64C94.3816 97.64 93.8166 97.85 93.3966 98.27C92.9766 98.68 92.7666 99.295 92.7666 100.115V104H90.8916ZM100.425 104.105C99.5452 104.105 98.8652 103.88 98.3852 103.43C97.9052 102.97 97.6652 102.295 97.6652 101.405V94.22H99.5402V101.36C99.5402 101.74 99.6352 102.035 99.8252 102.245C100.025 102.455 100.3 102.56 100.65 102.56C101.07 102.56 101.42 102.45 101.7 102.23L102.225 103.565C102.005 103.745 101.735 103.88 101.415 103.97C101.095 104.06 100.765 104.105 100.425 104.105ZM96.3452 97.55V96.05H101.685V97.55H96.3452ZM108.313 95.9C108.953 95.9 109.523 96.025 110.023 96.275C110.533 96.525 110.933 96.91 111.223 97.43C111.513 97.94 111.658 98.6 111.658 99.41V104H109.783V99.65C109.783 98.94 109.613 98.41 109.273 98.06C108.943 97.71 108.478 97.535 107.878 97.535C107.438 97.535 107.048 97.625 106.708 97.805C106.368 97.985 106.103 98.255 105.913 98.615C105.733 98.965 105.643 99.41 105.643 99.95V104H103.768V95.99H105.553V98.15L105.238 97.49C105.518 96.98 105.923 96.59 106.453 96.32C106.993 96.04 107.613 95.9 108.313 95.9ZM117.816 104.105C116.926 104.105 116.146 103.93 115.476 103.58C114.816 103.22 114.301 102.73 113.931 102.11C113.571 101.49 113.391 100.785 113.391 99.995C113.391 99.195 113.566 98.49 113.916 97.88C114.276 97.26 114.766 96.775 115.386 96.425C116.016 96.075 116.731 95.9 117.531 95.9C118.311 95.9 119.006 96.07 119.616 96.41C120.226 96.75 120.706 97.23 121.056 97.85C121.406 98.47 121.581 99.2 121.581 100.04C121.581 100.12 121.576 100.21 121.566 100.31C121.566 100.41 121.561 100.505 121.551 100.595H114.876V99.35H120.561L119.826 99.74C119.836 99.28 119.741 98.875 119.541 98.525C119.341 98.175 119.066 97.9 118.716 97.7C118.376 97.5 117.981 97.4 117.531 97.4C117.071 97.4 116.666 97.5 116.316 97.7C115.976 97.9 115.706 98.18 115.506 98.54C115.316 98.89 115.221 99.305 115.221 99.785V100.085C115.221 100.565 115.331 100.99 115.551 101.36C115.771 101.73 116.081 102.015 116.481 102.215C116.881 102.415 117.341 102.515 117.861 102.515C118.311 102.515 118.716 102.445 119.076 102.305C119.436 102.165 119.756 101.945 120.036 101.645L121.041 102.8C120.681 103.22 120.226 103.545 119.676 103.775C119.136 103.995 118.516 104.105 117.816 104.105ZM123.382 104V95.99H125.167V98.195L124.957 97.55C125.197 97.01 125.572 96.6 126.082 96.32C126.602 96.04 127.247 95.9 128.017 95.9V97.685C127.937 97.665 127.862 97.655 127.792 97.655C127.722 97.645 127.652 97.64 127.582 97.64C126.872 97.64 126.307 97.85 125.887 98.27C125.467 98.68 125.257 99.295 125.257 100.115V104H123.382ZM132.156 104.105C131.486 104.105 130.841 104.02 130.221 103.85C129.611 103.67 129.126 103.455 128.766 103.205L129.486 101.78C129.846 102.01 130.276 102.2 130.776 102.35C131.276 102.5 131.776 102.575 132.276 102.575C132.866 102.575 133.291 102.495 133.551 102.335C133.821 102.175 133.956 101.96 133.956 101.69C133.956 101.47 133.866 101.305 133.686 101.195C133.506 101.075 133.271 100.985 132.981 100.925C132.691 100.865 132.366 100.81 132.006 100.76C131.656 100.71 131.301 100.645 130.941 100.565C130.591 100.475 130.271 100.35 129.981 100.19C129.691 100.02 129.456 99.795 129.276 99.515C129.096 99.235 129.006 98.865 129.006 98.405C129.006 97.895 129.151 97.455 129.441 97.085C129.731 96.705 130.136 96.415 130.656 96.215C131.186 96.005 131.811 95.9 132.531 95.9C133.071 95.9 133.616 95.96 134.166 96.08C134.716 96.2 135.171 96.37 135.531 96.59L134.811 98.015C134.431 97.785 134.046 97.63 133.656 97.55C133.276 97.46 132.896 97.415 132.516 97.415C131.946 97.415 131.521 97.5 131.241 97.67C130.971 97.84 130.836 98.055 130.836 98.315C130.836 98.555 130.926 98.735 131.106 98.855C131.286 98.975 131.521 99.07 131.811 99.14C132.101 99.21 132.421 99.27 132.771 99.32C133.131 99.36 133.486 99.425 133.836 99.515C134.186 99.605 134.506 99.73 134.796 99.89C135.096 100.04 135.336 100.255 135.516 100.535C135.696 100.815 135.786 101.18 135.786 101.63C135.786 102.13 135.636 102.565 135.336 102.935C135.046 103.305 134.631 103.595 134.091 103.805C133.551 104.005 132.906 104.105 132.156 104.105Z" fill="black"/>
<path d="M153.693 104L158.418 93.5H160.338L165.078 104H163.038L158.973 94.535H159.753L155.703 104H153.693ZM155.868 101.57L156.393 100.04H162.063L162.588 101.57H155.868ZM166.488 104V95.54C166.488 94.7 166.733 94.03 167.223 93.53C167.723 93.02 168.433 92.765 169.353 92.765C169.683 92.765 169.993 92.8 170.283 92.87C170.583 92.94 170.833 93.05 171.033 93.2L170.523 94.61C170.383 94.5 170.223 94.42 170.043 94.37C169.863 94.31 169.678 94.28 169.488 94.28C169.098 94.28 168.803 94.39 168.603 94.61C168.403 94.82 168.303 95.14 168.303 95.57V96.47L168.363 97.31V104H166.488ZM165.168 97.55V96.05H170.508V97.55H165.168ZM172.069 104V95.54C172.069 94.7 172.314 94.03 172.804 93.53C173.304 93.02 174.014 92.765 174.934 92.765C175.264 92.765 175.574 92.8 175.864 92.87C176.164 92.94 176.414 93.05 176.614 93.2L176.104 94.61C175.964 94.5 175.804 94.42 175.624 94.37C175.444 94.31 175.259 94.28 175.069 94.28C174.679 94.28 174.384 94.39 174.184 94.61C173.984 94.82 173.884 95.14 173.884 95.57V96.47L173.944 97.31V104H172.069ZM170.749 97.55V96.05H176.089V97.55H170.749ZM180.834 104.105C180.014 104.105 179.284 103.93 178.644 103.58C178.004 103.22 177.499 102.73 177.129 102.11C176.759 101.49 176.574 100.785 176.574 99.995C176.574 99.195 176.759 98.49 177.129 97.88C177.499 97.26 178.004 96.775 178.644 96.425C179.284 96.075 180.014 95.9 180.834 95.9C181.664 95.9 182.399 96.075 183.039 96.425C183.689 96.775 184.194 97.255 184.554 97.865C184.924 98.475 185.109 99.185 185.109 99.995C185.109 100.785 184.924 101.49 184.554 102.11C184.194 102.73 183.689 103.22 183.039 103.58C182.399 103.93 181.664 104.105 180.834 104.105ZM180.834 102.5C181.294 102.5 181.704 102.4 182.064 102.2C182.424 102 182.704 101.71 182.904 101.33C183.114 100.95 183.219 100.505 183.219 99.995C183.219 99.475 183.114 99.03 182.904 98.66C182.704 98.28 182.424 97.99 182.064 97.79C181.704 97.59 181.299 97.49 180.849 97.49C180.389 97.49 179.979 97.59 179.619 97.79C179.269 97.99 178.989 98.28 178.779 98.66C178.569 99.03 178.464 99.475 178.464 99.995C178.464 100.505 178.569 100.95 178.779 101.33C178.989 101.71 179.269 102 179.619 102.2C179.979 102.4 180.384 102.5 180.834 102.5ZM186.902 104V95.99H188.687V98.195L188.477 97.55C188.717 97.01 189.092 96.6 189.602 96.32C190.122 96.04 190.767 95.9 191.537 95.9V97.685C191.457 97.665 191.382 97.655 191.312 97.655C191.242 97.645 191.172 97.64 191.102 97.64C190.392 97.64 189.827 97.85 189.407 98.27C188.987 98.68 188.777 99.295 188.777 100.115V104H186.902ZM196.445 104.105C195.675 104.105 194.98 103.935 194.36 103.595C193.75 103.245 193.27 102.765 192.92 102.155C192.57 101.545 192.395 100.825 192.395 99.995C192.395 99.165 192.57 98.445 192.92 97.835C193.27 97.225 193.75 96.75 194.36 96.41C194.98 96.07 195.675 95.9 196.445 95.9C197.115 95.9 197.715 96.05 198.245 96.35C198.775 96.64 199.195 97.085 199.505 97.685C199.815 98.285 199.97 99.055 199.97 99.995C199.97 100.925 199.82 101.695 199.52 102.305C199.22 102.905 198.805 103.355 198.275 103.655C197.745 103.955 197.135 104.105 196.445 104.105ZM196.67 102.5C197.12 102.5 197.52 102.4 197.87 102.2C198.23 102 198.515 101.71 198.725 101.33C198.945 100.95 199.055 100.505 199.055 99.995C199.055 99.475 198.945 99.03 198.725 98.66C198.515 98.28 198.23 97.99 197.87 97.79C197.52 97.59 197.12 97.49 196.67 97.49C196.22 97.49 195.815 97.59 195.455 97.79C195.105 97.99 194.82 98.28 194.6 98.66C194.39 99.03 194.285 99.475 194.285 99.995C194.285 100.505 194.39 100.95 194.6 101.33C194.82 101.71 195.105 102 195.455 102.2C195.815 102.4 196.22 102.5 196.67 102.5ZM199.1 104V102.11L199.175 99.98L199.025 97.85V92.87H200.885V104H199.1ZM208.288 104V102.38L208.183 102.035V99.2C208.183 98.65 208.018 98.225 207.688 97.925C207.358 97.615 206.858 97.46 206.188 97.46C205.738 97.46 205.293 97.53 204.853 97.67C204.423 97.81 204.058 98.005 203.758 98.255L203.023 96.89C203.453 96.56 203.963 96.315 204.553 96.155C205.153 95.985 205.773 95.9 206.413 95.9C207.573 95.9 208.468 96.18 209.098 96.74C209.738 97.29 210.058 98.145 210.058 99.305V104H208.288ZM205.768 104.105C205.168 104.105 204.643 104.005 204.193 103.805C203.743 103.595 203.393 103.31 203.143 102.95C202.903 102.58 202.783 102.165 202.783 101.705C202.783 101.255 202.888 100.85 203.098 100.49C203.318 100.13 203.673 99.845 204.163 99.635C204.653 99.425 205.303 99.32 206.113 99.32H208.438V100.565H206.248C205.608 100.565 205.178 100.67 204.958 100.88C204.738 101.08 204.628 101.33 204.628 101.63C204.628 101.97 204.763 102.24 205.033 102.44C205.303 102.64 205.678 102.74 206.158 102.74C206.618 102.74 207.028 102.635 207.388 102.425C207.758 102.215 208.023 101.905 208.183 101.495L208.498 102.62C208.318 103.09 207.993 103.455 207.523 103.715C207.063 103.975 206.478 104.105 205.768 104.105ZM216.904 104.105C216.224 104.105 215.619 103.955 215.089 103.655C214.559 103.355 214.139 102.905 213.829 102.305C213.529 101.695 213.379 100.925 213.379 99.995C213.379 99.055 213.534 98.285 213.844 97.685C214.164 97.085 214.589 96.64 215.119 96.35C215.659 96.05 216.254 95.9 216.904 95.9C217.694 95.9 218.389 96.07 218.989 96.41C219.599 96.75 220.079 97.225 220.429 97.835C220.789 98.445 220.969 99.165 220.969 99.995C220.969 100.825 220.789 101.545 220.429 102.155C220.079 102.765 219.599 103.245 218.989 103.595C218.389 103.935 217.694 104.105 216.904 104.105ZM212.464 104V92.87H214.339V97.85L214.189 99.98L214.249 102.11V104H212.464ZM216.694 102.5C217.144 102.5 217.544 102.4 217.894 102.2C218.254 102 218.539 101.71 218.749 101.33C218.959 100.95 219.064 100.505 219.064 99.995C219.064 99.475 218.959 99.03 218.749 98.66C218.539 98.28 218.254 97.99 217.894 97.79C217.544 97.59 217.144 97.49 216.694 97.49C216.244 97.49 215.839 97.59 215.479 97.79C215.119 97.99 214.834 98.28 214.624 98.66C214.414 99.03 214.309 99.475 214.309 99.995C214.309 100.505 214.414 100.95 214.624 101.33C214.834 101.71 215.119 102 215.479 102.2C215.839 102.4 216.244 102.5 216.694 102.5ZM222.747 104V92.87H224.622V104H222.747ZM230.848 104.105C229.958 104.105 229.178 103.93 228.508 103.58C227.848 103.22 227.333 102.73 226.963 102.11C226.603 101.49 226.423 100.785 226.423 99.995C226.423 99.195 226.598 98.49 226.948 97.88C227.308 97.26 227.798 96.775 228.418 96.425C229.048 96.075 229.763 95.9 230.563 95.9C231.343 95.9 232.038 96.07 232.648 96.41C233.258 96.75 233.738 97.23 234.088 97.85C234.438 98.47 234.613 99.2 234.613 100.04C234.613 100.12 234.608 100.21 234.598 100.31C234.598 100.41 234.593 100.505 234.583 100.595H227.908V99.35H233.593L232.858 99.74C232.868 99.28 232.773 98.875 232.573 98.525C232.373 98.175 232.098 97.9 231.748 97.7C231.408 97.5 231.013 97.4 230.563 97.4C230.103 97.4 229.698 97.5 229.348 97.7C229.008 97.9 228.738 98.18 228.538 98.54C228.348 98.89 228.253 99.305 228.253 99.785V100.085C228.253 100.565 228.363 100.99 228.583 101.36C228.803 101.73 229.113 102.015 229.513 102.215C229.913 102.415 230.373 102.515 230.893 102.515C231.343 102.515 231.748 102.445 232.108 102.305C232.468 102.165 232.788 101.945 233.068 101.645L234.073 102.8C233.713 103.22 233.258 103.545 232.708 103.775C232.168 103.995 231.548 104.105 230.848 104.105ZM240.74 104V93.5H245.06C245.99 93.5 246.785 93.65 247.445 93.95C248.115 94.25 248.63 94.68 248.99 95.24C249.35 95.8 249.53 96.465 249.53 97.235C249.53 98.005 249.35 98.67 248.99 99.23C248.63 99.79 248.115 100.22 247.445 100.52C246.785 100.82 245.99 100.97 245.06 100.97H241.82L242.69 100.055V104H240.74ZM242.69 100.265L241.82 99.32H244.97C245.83 99.32 246.475 99.14 246.905 98.78C247.345 98.41 247.565 97.895 247.565 97.235C247.565 96.565 247.345 96.05 246.905 95.69C246.475 95.33 245.83 95.15 244.97 95.15H241.82L242.69 94.19V100.265ZM251.224 104V95.99H253.009V98.195L252.799 97.55C253.039 97.01 253.414 96.6 253.924 96.32C254.444 96.04 255.089 95.9 255.859 95.9V97.685C255.779 97.665 255.704 97.655 255.634 97.655C255.564 97.645 255.494 97.64 255.424 97.64C254.714 97.64 254.149 97.85 253.729 98.27C253.309 98.68 253.099 99.295 253.099 100.115V104H251.224ZM257.449 104V95.99H259.324V104H257.449ZM258.394 94.67C258.044 94.67 257.754 94.56 257.524 94.34C257.304 94.12 257.194 93.855 257.194 93.545C257.194 93.225 257.304 92.96 257.524 92.75C257.754 92.53 258.044 92.42 258.394 92.42C258.744 92.42 259.029 92.525 259.249 92.735C259.479 92.935 259.594 93.19 259.594 93.5C259.594 93.83 259.484 94.11 259.264 94.34C259.044 94.56 258.754 94.67 258.394 94.67ZM265.46 104.105C264.62 104.105 263.87 103.93 263.21 103.58C262.56 103.22 262.05 102.73 261.68 102.11C261.31 101.49 261.125 100.785 261.125 99.995C261.125 99.195 261.31 98.49 261.68 97.88C262.05 97.26 262.56 96.775 263.21 96.425C263.87 96.075 264.62 95.9 265.46 95.9C266.24 95.9 266.925 96.06 267.515 96.38C268.115 96.69 268.57 97.15 268.88 97.76L267.44 98.6C267.2 98.22 266.905 97.94 266.555 97.76C266.215 97.58 265.845 97.49 265.445 97.49C264.985 97.49 264.57 97.59 264.2 97.79C263.83 97.99 263.54 98.28 263.33 98.66C263.12 99.03 263.015 99.475 263.015 99.995C263.015 100.515 263.12 100.965 263.33 101.345C263.54 101.715 263.83 102 264.2 102.2C264.57 102.4 264.985 102.5 265.445 102.5C265.845 102.5 266.215 102.41 266.555 102.23C266.905 102.05 267.2 101.77 267.44 101.39L268.88 102.23C268.57 102.83 268.115 103.295 267.515 103.625C266.925 103.945 266.24 104.105 265.46 104.105ZM270.428 104V95.99H272.303V104H270.428ZM271.373 94.67C271.023 94.67 270.733 94.56 270.503 94.34C270.283 94.12 270.173 93.855 270.173 93.545C270.173 93.225 270.283 92.96 270.503 92.75C270.733 92.53 271.023 92.42 271.373 92.42C271.723 92.42 272.008 92.525 272.228 92.735C272.458 92.935 272.573 93.19 272.573 93.5C272.573 93.83 272.463 94.11 272.243 94.34C272.023 94.56 271.733 94.67 271.373 94.67ZM279.309 95.9C279.949 95.9 280.519 96.025 281.019 96.275C281.529 96.525 281.929 96.91 282.219 97.43C282.509 97.94 282.654 98.6 282.654 99.41V104H280.779V99.65C280.779 98.94 280.609 98.41 280.269 98.06C279.939 97.71 279.474 97.535 278.874 97.535C278.434 97.535 278.044 97.625 277.704 97.805C277.364 97.985 277.099 98.255 276.909 98.615C276.729 98.965 276.639 99.41 276.639 99.95V104H274.764V95.99H276.549V98.15L276.234 97.49C276.514 96.98 276.919 96.59 277.449 96.32C277.989 96.04 278.609 95.9 279.309 95.9ZM288.677 107.015C287.937 107.015 287.212 106.915 286.502 106.715C285.802 106.525 285.227 106.245 284.777 105.875L285.617 104.465C285.967 104.755 286.407 104.985 286.937 105.155C287.477 105.335 288.022 105.425 288.572 105.425C289.452 105.425 290.097 105.22 290.507 104.81C290.917 104.41 291.122 103.805 291.122 102.995V101.57L291.272 99.755L291.212 97.94V95.99H292.997V102.785C292.997 104.235 292.627 105.3 291.887 105.98C291.147 106.67 290.077 107.015 288.677 107.015ZM288.437 103.64C287.677 103.64 286.987 103.48 286.367 103.16C285.757 102.83 285.272 102.375 284.912 101.795C284.562 101.215 284.387 100.535 284.387 99.755C284.387 98.985 284.562 98.31 284.912 97.73C285.272 97.15 285.757 96.7 286.367 96.38C286.987 96.06 287.677 95.9 288.437 95.9C289.117 95.9 289.727 96.035 290.267 96.305C290.807 96.575 291.237 96.995 291.557 97.565C291.887 98.135 292.052 98.865 292.052 99.755C292.052 100.645 291.887 101.38 291.557 101.96C291.237 102.53 290.807 102.955 290.267 103.235C289.727 103.505 289.117 103.64 288.437 103.64ZM288.722 102.05C289.192 102.05 289.612 101.955 289.982 101.765C290.352 101.565 290.637 101.295 290.837 100.955C291.047 100.605 291.152 100.205 291.152 99.755C291.152 99.305 291.047 98.91 290.837 98.57C290.637 98.22 290.352 97.955 289.982 97.775C289.612 97.585 289.192 97.49 288.722 97.49C288.252 97.49 287.827 97.585 287.447 97.775C287.077 97.955 286.787 98.22 286.577 98.57C286.377 98.91 286.277 99.305 286.277 99.755C286.277 100.205 286.377 100.605 286.577 100.955C286.787 101.295 287.077 101.565 287.447 101.765C287.827 101.955 288.252 102.05 288.722 102.05Z" fill="black"/>
<path d="M387.5 5.20312C386.734 5.45312 385.422 6.79688 385.188 7.59375C385.047 8.09375 385 15.5938 385 40.375V72.5H380.625H376.25V60V47.5H377.719C378.875 47.5 379.25 47.4375 379.516 47.2188C379.922 46.8906 380.859 43.3125 381.891 38.1719L382.547 34.8594L381.094 31.4688C379.234 27.1562 378.734 26.4844 376.609 25.5156C375.891 25.1875 375.406 25.0938 374.141 25.0312L372.578 24.9688L373.125 23.8594L373.672 22.75L373.734 20.125L373.781 17.5H375.875C377.906 17.5 378 17.4844 378.359 17.1094C378.875 16.6094 378.875 15.8906 378.359 15.3906C378 15.0156 377.906 15 375.891 15H373.797L373.719 13.6094C373.563 11.0781 372.375 9.25 370.188 8.15625C369.063 7.60938 368.922 7.57812 367.516 7.57812C366.156 7.57812 365.922 7.625 364.969 8.07812C363.516 8.76562 362.609 9.64062 361.906 11.0625L361.328 12.25L361.281 16.9375C361.219 22.0625 361.297 22.7969 362.016 24.1562L362.453 24.9688L360.859 25.0312C359.5 25.0938 359.125 25.1719 358.234 25.5781C356.172 26.5469 355.625 27.3281 353.594 32.1562L352.453 34.8594L353.109 38.1719C354.141 43.3125 355.078 46.8906 355.484 47.2188C355.75 47.4375 356.125 47.5 357.281 47.5H358.75V60V72.5H356.016C353.313 72.5 353.266 72.5 352.891 72.8906C352.375 73.3906 352.375 74.1094 352.891 74.6094L353.266 75H390H426.734L427.109 74.6094C427.625 74.1094 427.625 73.3906 427.109 72.8906C426.75 72.5156 426.656 72.5 424.609 72.5H422.5V40.375C422.5 16 422.453 8.09375 422.313 7.625C422.219 7.28125 421.828 6.65625 421.453 6.25C420.25 4.92188 421.422 5 403.688 5.01562C392.766 5.03125 387.875 5.07812 387.5 5.20312ZM419.609 7.89062L420 8.26562V40.3906V72.5H418.75H417.5V46.6406V20.7656L417.109 20.3906C416.875 20.1406 416.547 20 416.25 20C415.953 20 415.625 20.1406 415.391 20.3906L415 20.7656V46.6406V72.5H403.75H392.5V42.5V12.5H403.75H415V14.6094C415 16.6562 415.016 16.75 415.391 17.1094C415.625 17.3594 415.953 17.5 416.25 17.5C416.547 17.5 416.875 17.3594 417.109 17.1094C417.5 16.7344 417.5 16.7031 417.5 13.75C417.5 10.7969 417.5 10.7656 417.109 10.3906L416.734 10H403.75H390.766L390.391 10.3906L390 10.7656V41.6406V72.5H388.75H387.5V40.3906V8.26562L387.891 7.89062L388.266 7.5H403.75H419.234L419.609 7.89062ZM368.656 10.1875C369.516 10.4375 370.813 11.7344 371.063 12.5938C371.172 12.9531 371.25 13.6406 371.25 14.125V15H367.5H363.75V14.125C363.75 12.7656 364.031 12.0469 364.922 11.1719C366.016 10.0625 367.188 9.76562 368.656 10.1875ZM371.25 19.6719C371.25 22.2344 371.063 22.8906 370.125 23.8594C368.734 25.2812 366.641 25.375 365.156 24.0938C364.016 23.125 363.844 22.5938 363.781 19.875L363.719 17.5H367.484H371.25V19.6719ZM375.328 27.6875C376.125 27.9219 377.109 28.7812 377.516 29.5625C377.688 29.9062 378.313 31.2969 378.891 32.6562L379.953 35.125L379.469 37.5625L379 40H378.25H377.5V35.3906V30.7656L377.109 30.3906L376.734 30H367.5H358.266L357.891 30.3906L357.5 30.7656V35.3906V40H356.75H356L355.531 37.5625L355.047 35.125L356.109 32.6562C356.688 31.2969 357.313 29.9062 357.484 29.5625C357.859 28.8281 358.797 27.9844 359.547 27.7188C360.281 27.4531 374.469 27.4219 375.328 27.6875ZM363.75 34.6094C363.75 36.6562 363.766 36.75 364.141 37.1094C364.516 37.5 364.547 37.5 367.5 37.5C370.453 37.5 370.484 37.5 370.859 37.1094C371.234 36.75 371.25 36.6562 371.25 34.6094V32.5H373.125H375V36.4062C375 39.6406 374.969 40.3125 374.781 40.3125C374.656 40.3125 374.203 40.625 373.781 41.0156C372.797 41.9062 372.406 42.8906 372.563 44.1562L372.656 45H367.5H362.344L362.438 44.1562C362.594 42.8906 362.203 41.9062 361.219 41.0156C360.797 40.625 360.344 40.3125 360.219 40.3125C360.031 40.3125 360 39.6406 360 36.4062V32.5H361.875H363.75V34.6094ZM368.75 33.75V35H367.5H366.25V33.75V32.5H367.5H368.75V33.75ZM359.609 42.8906C360.125 43.3906 360.125 44.1094 359.609 44.6094C359.281 44.9375 359.094 45 358.234 45H357.219L356.906 43.75L356.594 42.5H357.922C359.109 42.5 359.266 42.5312 359.609 42.8906ZM378.094 43.75L377.781 45H376.766C375.906 45 375.719 44.9375 375.391 44.6094C375.141 44.375 375 44.0469 375 43.75C375 43.4531 375.141 43.125 375.391 42.8906C375.734 42.5312 375.891 42.5 377.078 42.5H378.406L378.094 43.75ZM373.75 60V72.5H372.5H371.25V62.875C371.25 55.875 371.203 53.0625 371.063 52.625C370.797 51.7031 369.688 50.5469 368.797 50.25C367.281 49.7344 366.063 50.0156 364.922 51.1719C364.422 51.6562 364.063 52.1875 363.938 52.5938C363.797 53.0781 363.75 55.7656 363.75 62.875V72.5H362.5H361.25V60V47.5H367.5H373.75V60ZM368.359 52.8906L368.75 53.2656V62.8906V72.5H367.5H366.25V62.8906V53.2656L366.641 52.8906C366.875 52.6406 367.203 52.5 367.5 52.5C367.797 52.5 368.125 52.6406 368.359 52.8906Z" fill="black"/>
<path d="M387.5 5.20312C386.734 5.45312 385.422 6.79688 385.188 7.59375C385.047 8.09375 385 15.5938 385 40.375V72.5H380.625H376.25V60V47.5H377.719C378.875 47.5 379.25 47.4375 379.516 47.2188C379.922 46.8906 380.859 43.3125 381.891 38.1719L382.547 34.8594L381.094 31.4688C379.234 27.1562 378.734 26.4844 376.609 25.5156C375.891 25.1875 375.406 25.0938 374.141 25.0312L372.578 24.9688L373.125 23.8594L373.672 22.75L373.734 20.125L373.781 17.5H375.875C377.906 17.5 378 17.4844 378.359 17.1094C378.875 16.6094 378.875 15.8906 378.359 15.3906C378 15.0156 377.906 15 375.891 15H373.797L373.719 13.6094C373.563 11.0781 372.375 9.25 370.188 8.15625C369.063 7.60938 368.922 7.57812 367.516 7.57812C366.156 7.57812 365.922 7.625 364.969 8.07812C363.516 8.76562 362.609 9.64062 361.906 11.0625L361.328 12.25L361.281 16.9375C361.219 22.0625 361.297 22.7969 362.016 24.1562L362.453 24.9688L360.859 25.0312C359.5 25.0938 359.125 25.1719 358.234 25.5781C356.172 26.5469 355.625 27.3281 353.594 32.1562L352.453 34.8594L353.109 38.1719C354.141 43.3125 355.078 46.8906 355.484 47.2188C355.75 47.4375 356.125 47.5 357.281 47.5H358.75V60V72.5H356.016C353.313 72.5 353.266 72.5 352.891 72.8906C352.375 73.3906 352.375 74.1094 352.891 74.6094L353.266 75H390H426.734L427.109 74.6094C427.625 74.1094 427.625 73.3906 427.109 72.8906C426.75 72.5156 426.656 72.5 424.609 72.5H422.5V40.375C422.5 16 422.453 8.09375 422.313 7.625C422.219 7.28125 421.828 6.65625 421.453 6.25C420.25 4.92188 421.422 5 403.688 5.01562C392.766 5.03125 387.875 5.07812 387.5 5.20312ZM419.609 7.89062L420 8.26562V40.3906V72.5H418.75H417.5V46.6406V20.7656L417.109 20.3906C416.875 20.1406 416.547 20 416.25 20C415.953 20 415.625 20.1406 415.391 20.3906L415 20.7656V46.6406V72.5H403.75H392.5V42.5V12.5H403.75H415V14.6094C415 16.6562 415.016 16.75 415.391 17.1094C415.625 17.3594 415.953 17.5 416.25 17.5C416.547 17.5 416.875 17.3594 417.109 17.1094C417.5 16.7344 417.5 16.7031 417.5 13.75C417.5 10.7969 417.5 10.7656 417.109 10.3906L416.734 10H403.75H390.766L390.391 10.3906L390 10.7656V41.6406V72.5H388.75H387.5V40.3906V8.26562L387.891 7.89062L388.266 7.5H403.75H419.234L419.609 7.89062ZM368.656 10.1875C369.516 10.4375 370.813 11.7344 371.063 12.5938C371.172 12.9531 371.25 13.6406 371.25 14.125V15H367.5H363.75V14.125C363.75 12.7656 364.031 12.0469 364.922 11.1719C366.016 10.0625 367.188 9.76562 368.656 10.1875ZM371.25 19.6719C371.25 22.2344 371.063 22.8906 370.125 23.8594C368.734 25.2812 366.641 25.375 365.156 24.0938C364.016 23.125 363.844 22.5938 363.781 19.875L363.719 17.5H367.484H371.25V19.6719ZM375.328 27.6875C376.125 27.9219 377.109 28.7812 377.516 29.5625C377.688 29.9062 378.313 31.2969 378.891 32.6562L379.953 35.125L379.469 37.5625L379 40H378.25H377.5V35.3906V30.7656L377.109 30.3906L376.734 30H367.5H358.266L357.891 30.3906L357.5 30.7656V35.3906V40H356.75H356L355.531 37.5625L355.047 35.125L356.109 32.6562C356.688 31.2969 357.313 29.9062 357.484 29.5625C357.859 28.8281 358.797 27.9844 359.547 27.7188C360.281 27.4531 374.469 27.4219 375.328 27.6875ZM363.75 34.6094C363.75 36.6562 363.766 36.75 364.141 37.1094C364.516 37.5 364.547 37.5 367.5 37.5C370.453 37.5 370.484 37.5 370.859 37.1094C371.234 36.75 371.25 36.6562 371.25 34.6094V32.5H373.125H375V36.4062C375 39.6406 374.969 40.3125 374.781 40.3125C374.656 40.3125 374.203 40.625 373.781 41.0156C372.797 41.9062 372.406 42.8906 372.563 44.1562L372.656 45H367.5H362.344L362.438 44.1562C362.594 42.8906 362.203 41.9062 361.219 41.0156C360.797 40.625 360.344 40.3125 360.219 40.3125C360.031 40.3125 360 39.6406 360 36.4062V32.5H361.875H363.75V34.6094ZM368.75 33.75V35H367.5H366.25V33.75V32.5H367.5H368.75V33.75ZM359.609 42.8906C360.125 43.3906 360.125 44.1094 359.609 44.6094C359.281 44.9375 359.094 45 358.234 45H357.219L356.906 43.75L356.594 42.5H357.922C359.109 42.5 359.266 42.5312 359.609 42.8906ZM378.094 43.75L377.781 45H376.766C375.906 45 375.719 44.9375 375.391 44.6094C375.141 44.375 375 44.0469 375 43.75C375 43.4531 375.141 43.125 375.391 42.8906C375.734 42.5312 375.891 42.5 377.078 42.5H378.406L378.094 43.75ZM373.75 60V72.5H372.5H371.25V62.875C371.25 55.875 371.203 53.0625 371.063 52.625C370.797 51.7031 369.688 50.5469 368.797 50.25C367.281 49.7344 366.063 50.0156 364.922 51.1719C364.422 51.6562 364.063 52.1875 363.938 52.5938C363.797 53.0781 363.75 55.7656 363.75 62.875V72.5H362.5H361.25V60V47.5H367.5H373.75V60ZM368.359 52.8906L368.75 53.2656V62.8906V72.5H367.5H366.25V62.8906V53.2656L366.641 52.8906C366.875 52.6406 367.203 52.5 367.5 52.5C367.797 52.5 368.125 52.6406 368.359 52.8906Z" fill="#FF0000"/>
<path d="M410.391 32.8906C410.016 33.25 410 33.375 410 35C410 36.625 410.016 36.75 410.391 37.1094C410.625 37.3594 410.953 37.5 411.25 37.5C411.547 37.5 411.875 37.3594 412.109 37.1094C412.484 36.75 412.5 36.625 412.5 35C412.5 33.375 412.484 33.25 412.109 32.8906C411.875 32.6406 411.547 32.5 411.25 32.5C410.953 32.5 410.625 32.6406 410.391 32.8906Z" fill="black"/>
<path d="M410.391 32.8906C410.016 33.25 410 33.375 410 35C410 36.625 410.016 36.75 410.391 37.1094C410.625 37.3594 410.953 37.5 411.25 37.5C411.547 37.5 411.875 37.3594 412.109 37.1094C412.484 36.75 412.5 36.625 412.5 35C412.5 33.375 412.484 33.25 412.109 32.8906C411.875 32.6406 411.547 32.5 411.25 32.5C410.953 32.5 410.625 32.6406 410.391 32.8906Z" fill="#FF0000"/>
<path d="M312.44 104V93.5H317.03C318.17 93.5 319.17 93.72 320.03 94.16C320.89 94.6 321.56 95.21 322.04 95.99C322.52 96.77 322.76 97.69 322.76 98.75C322.76 99.8 322.52 100.72 322.04 101.51C321.56 102.29 320.89 102.9 320.03 103.34C319.17 103.78 318.17 104 317.03 104H312.44ZM314.39 102.35H316.94C317.73 102.35 318.41 102.2 318.98 101.9C319.56 101.6 320.005 101.18 320.315 100.64C320.635 100.1 320.795 99.47 320.795 98.75C320.795 98.02 320.635 97.39 320.315 96.86C320.005 96.32 319.56 95.9 318.98 95.6C318.41 95.3 317.73 95.15 316.94 95.15H314.39V102.35ZM328.253 104.105C327.433 104.105 326.703 103.93 326.063 103.58C325.423 103.22 324.918 102.73 324.548 102.11C324.178 101.49 323.993 100.785 323.993 99.995C323.993 99.195 324.178 98.49 324.548 97.88C324.918 97.26 325.423 96.775 326.063 96.425C326.703 96.075 327.433 95.9 328.253 95.9C329.083 95.9 329.818 96.075 330.458 96.425C331.108 96.775 331.613 97.255 331.973 97.865C332.343 98.475 332.528 99.185 332.528 99.995C332.528 100.785 332.343 101.49 331.973 102.11C331.613 102.73 331.108 103.22 330.458 103.58C329.818 103.93 329.083 104.105 328.253 104.105ZM328.253 102.5C328.713 102.5 329.123 102.4 329.483 102.2C329.843 102 330.123 101.71 330.323 101.33C330.533 100.95 330.638 100.505 330.638 99.995C330.638 99.475 330.533 99.03 330.323 98.66C330.123 98.28 329.843 97.99 329.483 97.79C329.123 97.59 328.718 97.49 328.268 97.49C327.808 97.49 327.398 97.59 327.038 97.79C326.688 97.99 326.408 98.28 326.198 98.66C325.988 99.03 325.883 99.475 325.883 99.995C325.883 100.505 325.988 100.95 326.198 101.33C326.408 101.71 326.688 102 327.038 102.2C327.398 102.4 327.803 102.5 328.253 102.5ZM337.921 104.105C337.101 104.105 336.371 103.93 335.731 103.58C335.091 103.22 334.586 102.73 334.216 102.11C333.846 101.49 333.661 100.785 333.661 99.995C333.661 99.195 333.846 98.49 334.216 97.88C334.586 97.26 335.091 96.775 335.731 96.425C336.371 96.075 337.101 95.9 337.921 95.9C338.751 95.9 339.486 96.075 340.126 96.425C340.776 96.775 341.281 97.255 341.641 97.865C342.011 98.475 342.196 99.185 342.196 99.995C342.196 100.785 342.011 101.49 341.641 102.11C341.281 102.73 340.776 103.22 340.126 103.58C339.486 103.93 338.751 104.105 337.921 104.105ZM337.921 102.5C338.381 102.5 338.791 102.4 339.151 102.2C339.511 102 339.791 101.71 339.991 101.33C340.201 100.95 340.306 100.505 340.306 99.995C340.306 99.475 340.201 99.03 339.991 98.66C339.791 98.28 339.511 97.99 339.151 97.79C338.791 97.59 338.386 97.49 337.936 97.49C337.476 97.49 337.066 97.59 336.706 97.79C336.356 97.99 336.076 98.28 335.866 98.66C335.656 99.03 335.551 99.475 335.551 99.995C335.551 100.505 335.656 100.95 335.866 101.33C336.076 101.71 336.356 102 336.706 102.2C337.066 102.4 337.471 102.5 337.921 102.5ZM343.989 104V95.99H345.774V98.195L345.564 97.55C345.804 97.01 346.179 96.6 346.689 96.32C347.209 96.04 347.854 95.9 348.624 95.9V97.685C348.544 97.665 348.469 97.655 348.399 97.655C348.329 97.645 348.259 97.64 348.189 97.64C347.479 97.64 346.914 97.85 346.494 98.27C346.074 98.68 345.864 99.295 345.864 100.115V104H343.989ZM352.763 104.105C352.093 104.105 351.448 104.02 350.828 103.85C350.218 103.67 349.733 103.455 349.373 103.205L350.093 101.78C350.453 102.01 350.883 102.2 351.383 102.35C351.883 102.5 352.383 102.575 352.883 102.575C353.473 102.575 353.898 102.495 354.158 102.335C354.428 102.175 354.563 101.96 354.563 101.69C354.563 101.47 354.473 101.305 354.293 101.195C354.113 101.075 353.878 100.985 353.588 100.925C353.298 100.865 352.973 100.81 352.613 100.76C352.263 100.71 351.908 100.645 351.548 100.565C351.198 100.475 350.878 100.35 350.588 100.19C350.298 100.02 350.063 99.795 349.883 99.515C349.703 99.235 349.613 98.865 349.613 98.405C349.613 97.895 349.758 97.455 350.048 97.085C350.338 96.705 350.743 96.415 351.263 96.215C351.793 96.005 352.418 95.9 353.138 95.9C353.678 95.9 354.223 95.96 354.773 96.08C355.323 96.2 355.778 96.37 356.138 96.59L355.418 98.015C355.038 97.785 354.653 97.63 354.263 97.55C353.883 97.46 353.503 97.415 353.123 97.415C352.553 97.415 352.128 97.5 351.848 97.67C351.578 97.84 351.443 98.055 351.443 98.315C351.443 98.555 351.533 98.735 351.713 98.855C351.893 98.975 352.128 99.07 352.418 99.14C352.708 99.21 353.028 99.27 353.378 99.32C353.738 99.36 354.093 99.425 354.443 99.515C354.793 99.605 355.113 99.73 355.403 99.89C355.703 100.04 355.943 100.255 356.123 100.535C356.303 100.815 356.393 101.18 356.393 101.63C356.393 102.13 356.243 102.565 355.943 102.935C355.653 103.305 355.238 103.595 354.698 103.805C354.158 104.005 353.513 104.105 352.763 104.105ZM361.022 104.105C360.142 104.105 359.462 103.88 358.982 103.43C358.502 102.97 358.262 102.295 358.262 101.405V94.22H360.137V101.36C360.137 101.74 360.232 102.035 360.422 102.245C360.622 102.455 360.897 102.56 361.247 102.56C361.667 102.56 362.017 102.45 362.297 102.23L362.822 103.565C362.602 103.745 362.332 103.88 362.012 103.97C361.692 104.06 361.362 104.105 361.022 104.105ZM356.942 97.55V96.05H362.282V97.55H356.942ZM367.866 104.105C366.976 104.105 366.196 103.93 365.526 103.58C364.866 103.22 364.351 102.73 363.981 102.11C363.621 101.49 363.441 100.785 363.441 99.995C363.441 99.195 363.616 98.49 363.966 97.88C364.326 97.26 364.816 96.775 365.436 96.425C366.066 96.075 366.781 95.9 367.581 95.9C368.361 95.9 369.056 96.07 369.666 96.41C370.276 96.75 370.756 97.23 371.106 97.85C371.456 98.47 371.631 99.2 371.631 100.04C371.631 100.12 371.626 100.21 371.616 100.31C371.616 100.41 371.611 100.505 371.601 100.595H364.926V99.35H370.611L369.876 99.74C369.886 99.28 369.791 98.875 369.591 98.525C369.391 98.175 369.116 97.9 368.766 97.7C368.426 97.5 368.031 97.4 367.581 97.4C367.121 97.4 366.716 97.5 366.366 97.7C366.026 97.9 365.756 98.18 365.556 98.54C365.366 98.89 365.271 99.305 365.271 99.785V100.085C365.271 100.565 365.381 100.99 365.601 101.36C365.821 101.73 366.131 102.015 366.531 102.215C366.931 102.415 367.391 102.515 367.911 102.515C368.361 102.515 368.766 102.445 369.126 102.305C369.486 102.165 369.806 101.945 370.086 101.645L371.091 102.8C370.731 103.22 370.276 103.545 369.726 103.775C369.186 103.995 368.566 104.105 367.866 104.105ZM377.872 104.105C377.222 104.105 376.627 103.955 376.087 103.655C375.557 103.355 375.132 102.905 374.812 102.305C374.502 101.695 374.347 100.925 374.347 99.995C374.347 99.055 374.497 98.285 374.797 97.685C375.107 97.085 375.527 96.64 376.057 96.35C376.587 96.05 377.192 95.9 377.872 95.9C378.662 95.9 379.357 96.07 379.957 96.41C380.567 96.75 381.047 97.225 381.397 97.835C381.757 98.445 381.937 99.165 381.937 99.995C381.937 100.825 381.757 101.55 381.397 102.17C381.047 102.78 380.567 103.255 379.957 103.595C379.357 103.935 378.662 104.105 377.872 104.105ZM373.432 106.91V95.99H375.217V97.88L375.157 100.01L375.307 102.14V106.91H373.432ZM377.662 102.5C378.112 102.5 378.512 102.4 378.862 102.2C379.222 102 379.507 101.71 379.717 101.33C379.927 100.95 380.032 100.505 380.032 99.995C380.032 99.475 379.927 99.03 379.717 98.66C379.507 98.28 379.222 97.99 378.862 97.79C378.512 97.59 378.112 97.49 377.662 97.49C377.212 97.49 376.807 97.59 376.447 97.79C376.087 97.99 375.802 98.28 375.592 98.66C375.382 99.03 375.277 99.475 375.277 99.995C375.277 100.505 375.382 100.95 375.592 101.33C375.802 101.71 376.087 102 376.447 102.2C376.807 102.4 377.212 102.5 377.662 102.5ZM386.556 104L391.281 93.5H393.201L397.941 104H395.901L391.836 94.535H392.616L388.566 104H386.556ZM388.731 101.57L389.256 100.04H394.926L395.451 101.57H388.731ZM401.498 104.105C400.828 104.105 400.183 104.02 399.563 103.85C398.953 103.67 398.468 103.455 398.108 103.205L398.828 101.78C399.188 102.01 399.618 102.2 400.118 102.35C400.618 102.5 401.118 102.575 401.618 102.575C402.208 102.575 402.633 102.495 402.893 102.335C403.163 102.175 403.298 101.96 403.298 101.69C403.298 101.47 403.208 101.305 403.028 101.195C402.848 101.075 402.613 100.985 402.323 100.925C402.033 100.865 401.708 100.81 401.348 100.76C400.998 100.71 400.643 100.645 400.283 100.565C399.933 100.475 399.613 100.35 399.323 100.19C399.033 100.02 398.798 99.795 398.618 99.515C398.438 99.235 398.348 98.865 398.348 98.405C398.348 97.895 398.493 97.455 398.783 97.085C399.073 96.705 399.478 96.415 399.998 96.215C400.528 96.005 401.153 95.9 401.873 95.9C402.413 95.9 402.958 95.96 403.508 96.08C404.058 96.2 404.513 96.37 404.873 96.59L404.153 98.015C403.773 97.785 403.388 97.63 402.998 97.55C402.618 97.46 402.238 97.415 401.858 97.415C401.288 97.415 400.863 97.5 400.583 97.67C400.313 97.84 400.178 98.055 400.178 98.315C400.178 98.555 400.268 98.735 400.448 98.855C400.628 98.975 400.863 99.07 401.153 99.14C401.443 99.21 401.763 99.27 402.113 99.32C402.473 99.36 402.828 99.425 403.178 99.515C403.528 99.605 403.848 99.73 404.138 99.89C404.438 100.04 404.678 100.255 404.858 100.535C405.038 100.815 405.128 101.18 405.128 101.63C405.128 102.13 404.978 102.565 404.678 102.935C404.388 103.305 403.973 103.595 403.433 103.805C402.893 104.005 402.248 104.105 401.498 104.105ZM409.218 104.105C408.548 104.105 407.903 104.02 407.283 103.85C406.673 103.67 406.188 103.455 405.828 103.205L406.548 101.78C406.908 102.01 407.338 102.2 407.838 102.35C408.338 102.5 408.838 102.575 409.338 102.575C409.928 102.575 410.353 102.495 410.613 102.335C410.883 102.175 411.018 101.96 411.018 101.69C411.018 101.47 410.928 101.305 410.748 101.195C410.568 101.075 410.333 100.985 410.043 100.925C409.753 100.865 409.428 100.81 409.068 100.76C408.718 100.71 408.363 100.645 408.003 100.565C407.653 100.475 407.333 100.35 407.043 100.19C406.753 100.02 406.518 99.795 406.338 99.515C406.158 99.235 406.068 98.865 406.068 98.405C406.068 97.895 406.213 97.455 406.503 97.085C406.793 96.705 407.198 96.415 407.718 96.215C408.248 96.005 408.873 95.9 409.593 95.9C410.133 95.9 410.678 95.96 411.228 96.08C411.778 96.2 412.233 96.37 412.593 96.59L411.873 98.015C411.493 97.785 411.108 97.63 410.718 97.55C410.338 97.46 409.958 97.415 409.578 97.415C409.008 97.415 408.583 97.5 408.303 97.67C408.033 97.84 407.898 98.055 407.898 98.315C407.898 98.555 407.988 98.735 408.168 98.855C408.348 98.975 408.583 99.07 408.873 99.14C409.163 99.21 409.483 99.27 409.833 99.32C410.193 99.36 410.548 99.425 410.898 99.515C411.248 99.605 411.568 99.73 411.858 99.89C412.158 100.04 412.398 100.255 412.578 100.535C412.758 100.815 412.848 101.18 412.848 101.63C412.848 102.13 412.698 102.565 412.398 102.935C412.108 103.305 411.693 103.595 411.153 103.805C410.613 104.005 409.968 104.105 409.218 104.105ZM414.462 104V95.99H416.337V104H414.462ZM415.407 94.67C415.057 94.67 414.767 94.56 414.537 94.34C414.317 94.12 414.207 93.855 414.207 93.545C414.207 93.225 414.317 92.96 414.537 92.75C414.767 92.53 415.057 92.42 415.407 92.42C415.757 92.42 416.042 92.525 416.262 92.735C416.492 92.935 416.607 93.19 416.607 93.5C416.607 93.83 416.497 94.11 416.277 94.34C416.057 94.56 415.767 94.67 415.407 94.67ZM421.273 104.105C420.603 104.105 419.958 104.02 419.338 103.85C418.728 103.67 418.243 103.455 417.883 103.205L418.603 101.78C418.963 102.01 419.393 102.2 419.893 102.35C420.393 102.5 420.893 102.575 421.393 102.575C421.983 102.575 422.408 102.495 422.668 102.335C422.938 102.175 423.073 101.96 423.073 101.69C423.073 101.47 422.983 101.305 422.803 101.195C422.623 101.075 422.388 100.985 422.098 100.925C421.808 100.865 421.483 100.81 421.123 100.76C420.773 100.71 420.418 100.645 420.058 100.565C419.708 100.475 419.388 100.35 419.098 100.19C418.808 100.02 418.573 99.795 418.393 99.515C418.213 99.235 418.123 98.865 418.123 98.405C418.123 97.895 418.268 97.455 418.558 97.085C418.848 96.705 419.253 96.415 419.773 96.215C420.303 96.005 420.928 95.9 421.648 95.9C422.188 95.9 422.733 95.96 423.283 96.08C423.833 96.2 424.288 96.37 424.648 96.59L423.928 98.015C423.548 97.785 423.163 97.63 422.773 97.55C422.393 97.46 422.013 97.415 421.633 97.415C421.063 97.415 420.638 97.5 420.358 97.67C420.088 97.84 419.953 98.055 419.953 98.315C419.953 98.555 420.043 98.735 420.223 98.855C420.403 98.975 420.638 99.07 420.928 99.14C421.218 99.21 421.538 99.27 421.888 99.32C422.248 99.36 422.603 99.425 422.953 99.515C423.303 99.605 423.623 99.73 423.913 99.89C424.213 100.04 424.453 100.255 424.633 100.535C424.813 100.815 424.903 101.18 424.903 101.63C424.903 102.13 424.753 102.565 424.453 102.935C424.163 103.305 423.748 103.595 423.208 103.805C422.668 104.005 422.023 104.105 421.273 104.105ZM429.533 104.105C428.653 104.105 427.973 103.88 427.493 103.43C427.013 102.97 426.773 102.295 426.773 101.405V94.22H428.648V101.36C428.648 101.74 428.743 102.035 428.933 102.245C429.133 102.455 429.408 102.56 429.758 102.56C430.178 102.56 430.528 102.45 430.808 102.23L431.333 103.565C431.113 103.745 430.843 103.88 430.523 103.97C430.203 104.06 429.873 104.105 429.533 104.105ZM425.453 97.55V96.05H430.793V97.55H425.453ZM437.811 104V102.38L437.706 102.035V99.2C437.706 98.65 437.541 98.225 437.211 97.925C436.881 97.615 436.381 97.46 435.711 97.46C435.261 97.46 434.816 97.53 434.376 97.67C433.946 97.81 433.581 98.005 433.281 98.255L432.546 96.89C432.976 96.56 433.486 96.315 434.076 96.155C434.676 95.985 435.296 95.9 435.936 95.9C437.096 95.9 437.991 96.18 438.621 96.74C439.261 97.29 439.581 98.145 439.581 99.305V104H437.811ZM435.291 104.105C434.691 104.105 434.166 104.005 433.716 103.805C433.266 103.595 432.916 103.31 432.666 102.95C432.426 102.58 432.306 102.165 432.306 101.705C432.306 101.255 432.411 100.85 432.621 100.49C432.841 100.13 433.196 99.845 433.686 99.635C434.176 99.425 434.826 99.32 435.636 99.32H437.961V100.565H435.771C435.131 100.565 434.701 100.67 434.481 100.88C434.261 101.08 434.151 101.33 434.151 101.63C434.151 101.97 434.286 102.24 434.556 102.44C434.826 102.64 435.201 102.74 435.681 102.74C436.141 102.74 436.551 102.635 436.911 102.425C437.281 102.215 437.546 101.905 437.706 101.495L438.021 102.62C437.841 103.09 437.516 103.455 437.046 103.715C436.586 103.975 436.001 104.105 435.291 104.105ZM446.532 95.9C447.172 95.9 447.742 96.025 448.242 96.275C448.752 96.525 449.152 96.91 449.442 97.43C449.732 97.94 449.877 98.6 449.877 99.41V104H448.002V99.65C448.002 98.94 447.832 98.41 447.492 98.06C447.162 97.71 446.697 97.535 446.097 97.535C445.657 97.535 445.267 97.625 444.927 97.805C444.587 97.985 444.322 98.255 444.132 98.615C443.952 98.965 443.862 99.41 443.862 99.95V104H441.987V95.99H443.772V98.15L443.457 97.49C443.737 96.98 444.142 96.59 444.672 96.32C445.212 96.04 445.832 95.9 446.532 95.9ZM455.945 104.105C455.105 104.105 454.355 103.93 453.695 103.58C453.045 103.22 452.535 102.73 452.165 102.11C451.795 101.49 451.61 100.785 451.61 99.995C451.61 99.195 451.795 98.49 452.165 97.88C452.535 97.26 453.045 96.775 453.695 96.425C454.355 96.075 455.105 95.9 455.945 95.9C456.725 95.9 457.41 96.06 458 96.38C458.6 96.69 459.055 97.15 459.365 97.76L457.925 98.6C457.685 98.22 457.39 97.94 457.04 97.76C456.7 97.58 456.33 97.49 455.93 97.49C455.47 97.49 455.055 97.59 454.685 97.79C454.315 97.99 454.025 98.28 453.815 98.66C453.605 99.03 453.5 99.475 453.5 99.995C453.5 100.515 453.605 100.965 453.815 101.345C454.025 101.715 454.315 102 454.685 102.2C455.055 102.4 455.47 102.5 455.93 102.5C456.33 102.5 456.7 102.41 457.04 102.23C457.39 102.05 457.685 101.77 457.925 101.39L459.365 102.23C459.055 102.83 458.6 103.295 458 103.625C457.41 103.945 456.725 104.105 455.945 104.105ZM464.634 104.105C463.744 104.105 462.964 103.93 462.294 103.58C461.634 103.22 461.119 102.73 460.749 102.11C460.389 101.49 460.209 100.785 460.209 99.995C460.209 99.195 460.384 98.49 460.734 97.88C461.094 97.26 461.584 96.775 462.204 96.425C462.834 96.075 463.549 95.9 464.349 95.9C465.129 95.9 465.824 96.07 466.434 96.41C467.044 96.75 467.524 97.23 467.874 97.85C468.224 98.47 468.399 99.2 468.399 100.04C468.399 100.12 468.394 100.21 468.384 100.31C468.384 100.41 468.379 100.505 468.369 100.595H461.694V99.35H467.379L466.644 99.74C466.654 99.28 466.559 98.875 466.359 98.525C466.159 98.175 465.884 97.9 465.534 97.7C465.194 97.5 464.799 97.4 464.349 97.4C463.889 97.4 463.484 97.5 463.134 97.7C462.794 97.9 462.524 98.18 462.324 98.54C462.134 98.89 462.039 99.305 462.039 99.785V100.085C462.039 100.565 462.149 100.99 462.369 101.36C462.589 101.73 462.899 102.015 463.299 102.215C463.699 102.415 464.159 102.515 464.679 102.515C465.129 102.515 465.534 102.445 465.894 102.305C466.254 102.165 466.574 101.945 466.854 101.645L467.859 102.8C467.499 103.22 467.044 103.545 466.494 103.775C465.954 103.995 465.334 104.105 464.634 104.105Z" fill="black"/>
<path d="M499.229 104V93.5H503.549C504.479 93.5 505.274 93.65 505.934 93.95C506.604 94.25 507.119 94.68 507.479 95.24C507.839 95.8 508.019 96.465 508.019 97.235C508.019 98.005 507.839 98.67 507.479 99.23C507.119 99.79 506.604 100.22 505.934 100.52C505.274 100.82 504.479 100.97 503.549 100.97H500.309L501.179 100.055V104H499.229ZM501.179 100.265L500.309 99.32H503.459C504.319 99.32 504.964 99.14 505.394 98.78C505.834 98.41 506.054 97.895 506.054 97.235C506.054 96.565 505.834 96.05 505.394 95.69C504.964 95.33 504.319 95.15 503.459 95.15H500.309L501.179 94.19V100.265ZM509.713 104V95.99H511.498V98.195L511.288 97.55C511.528 97.01 511.903 96.6 512.413 96.32C512.933 96.04 513.578 95.9 514.348 95.9V97.685C514.268 97.665 514.193 97.655 514.123 97.655C514.053 97.645 513.983 97.64 513.913 97.64C513.203 97.64 512.638 97.85 512.218 98.27C511.798 98.68 511.588 99.295 511.588 100.115V104H509.713ZM519.631 104.105C518.741 104.105 517.961 103.93 517.291 103.58C516.631 103.22 516.116 102.73 515.746 102.11C515.386 101.49 515.206 100.785 515.206 99.995C515.206 99.195 515.381 98.49 515.731 97.88C516.091 97.26 516.581 96.775 517.201 96.425C517.831 96.075 518.546 95.9 519.346 95.9C520.126 95.9 520.821 96.07 521.431 96.41C522.041 96.75 522.521 97.23 522.871 97.85C523.221 98.47 523.396 99.2 523.396 100.04C523.396 100.12 523.391 100.21 523.381 100.31C523.381 100.41 523.376 100.505 523.366 100.595H516.691V99.35H522.376L521.641 99.74C521.651 99.28 521.556 98.875 521.356 98.525C521.156 98.175 520.881 97.9 520.531 97.7C520.191 97.5 519.796 97.4 519.346 97.4C518.886 97.4 518.481 97.5 518.131 97.7C517.791 97.9 517.521 98.18 517.321 98.54C517.131 98.89 517.036 99.305 517.036 99.785V100.085C517.036 100.565 517.146 100.99 517.366 101.36C517.586 101.73 517.896 102.015 518.296 102.215C518.696 102.415 519.156 102.515 519.676 102.515C520.126 102.515 520.531 102.445 520.891 102.305C521.251 102.165 521.571 101.945 521.851 101.645L522.856 102.8C522.496 103.22 522.041 103.545 521.491 103.775C520.951 103.995 520.331 104.105 519.631 104.105ZM535.307 95.9C535.947 95.9 536.512 96.025 537.002 96.275C537.502 96.525 537.892 96.91 538.172 97.43C538.452 97.94 538.592 98.6 538.592 99.41V104H536.717V99.65C536.717 98.94 536.562 98.41 536.252 98.06C535.942 97.71 535.497 97.535 534.917 97.535C534.507 97.535 534.142 97.625 533.822 97.805C533.512 97.985 533.267 98.25 533.087 98.6C532.917 98.95 532.832 99.395 532.832 99.935V104H530.957V99.65C530.957 98.94 530.802 98.41 530.492 98.06C530.182 97.71 529.737 97.535 529.157 97.535C528.747 97.535 528.382 97.625 528.062 97.805C527.752 97.985 527.507 98.25 527.327 98.6C527.157 98.95 527.072 99.395 527.072 99.935V104H525.197V95.99H526.982V98.12L526.667 97.49C526.937 96.97 527.327 96.575 527.837 96.305C528.357 96.035 528.947 95.9 529.607 95.9C530.357 95.9 531.007 96.085 531.557 96.455C532.117 96.825 532.487 97.385 532.667 98.135L531.932 97.88C532.192 97.28 532.622 96.8 533.222 96.44C533.822 96.08 534.517 95.9 535.307 95.9ZM540.988 104V95.99H542.863V104H540.988ZM541.933 94.67C541.583 94.67 541.293 94.56 541.063 94.34C540.843 94.12 540.733 93.855 540.733 93.545C540.733 93.225 540.843 92.96 541.063 92.75C541.293 92.53 541.583 92.42 541.933 92.42C542.283 92.42 542.568 92.525 542.788 92.735C543.018 92.935 543.133 93.19 543.133 93.5C543.133 93.83 543.023 94.11 542.803 94.34C542.583 94.56 542.293 94.67 541.933 94.67ZM548.714 104.105C548.034 104.105 547.434 103.98 546.914 103.73C546.394 103.47 545.989 103.08 545.699 102.56C545.409 102.03 545.264 101.365 545.264 100.565V95.99H547.139V100.31C547.139 101.03 547.299 101.57 547.619 101.93C547.949 102.28 548.414 102.455 549.014 102.455C549.454 102.455 549.834 102.365 550.154 102.185C550.484 102.005 550.739 101.735 550.919 101.375C551.109 101.015 551.204 100.57 551.204 100.04V95.99H553.079V104H551.294V101.84L551.609 102.5C551.339 103.02 550.944 103.42 550.424 103.7C549.904 103.97 549.334 104.105 548.714 104.105ZM565.644 95.9C566.284 95.9 566.849 96.025 567.339 96.275C567.839 96.525 568.229 96.91 568.509 97.43C568.789 97.94 568.929 98.6 568.929 99.41V104H567.054V99.65C567.054 98.94 566.899 98.41 566.589 98.06C566.279 97.71 565.834 97.535 565.254 97.535C564.844 97.535 564.479 97.625 564.159 97.805C563.849 97.985 563.604 98.25 563.424 98.6C563.254 98.95 563.169 99.395 563.169 99.935V104H561.294V99.65C561.294 98.94 561.139 98.41 560.829 98.06C560.519 97.71 560.074 97.535 559.494 97.535C559.084 97.535 558.719 97.625 558.399 97.805C558.089 97.985 557.844 98.25 557.664 98.6C557.494 98.95 557.409 99.395 557.409 99.935V104H555.534V95.99H557.319V98.12L557.004 97.49C557.274 96.97 557.664 96.575 558.174 96.305C558.694 96.035 559.284 95.9 559.944 95.9C560.694 95.9 561.344 96.085 561.894 96.455C562.454 96.825 562.824 97.385 563.004 98.135L562.269 97.88C562.529 97.28 562.959 96.8 563.559 96.44C564.159 96.08 564.854 95.9 565.644 95.9ZM578.905 104.15C578.085 104.15 577.3 104.035 576.55 103.805C575.8 103.565 575.205 103.26 574.765 102.89L575.44 101.375C575.86 101.705 576.38 101.98 577 102.2C577.62 102.42 578.255 102.53 578.905 102.53C579.455 102.53 579.9 102.47 580.24 102.35C580.58 102.23 580.83 102.07 580.99 101.87C581.15 101.66 581.23 101.425 581.23 101.165C581.23 100.845 581.115 100.59 580.885 100.4C580.655 100.2 580.355 100.045 579.985 99.935C579.625 99.815 579.22 99.705 578.77 99.605C578.33 99.505 577.885 99.39 577.435 99.26C576.995 99.12 576.59 98.945 576.22 98.735C575.86 98.515 575.565 98.225 575.335 97.865C575.105 97.505 574.99 97.045 574.99 96.485C574.99 95.915 575.14 95.395 575.44 94.925C575.75 94.445 576.215 94.065 576.835 93.785C577.465 93.495 578.26 93.35 579.22 93.35C579.85 93.35 580.475 93.43 581.095 93.59C581.715 93.75 582.255 93.98 582.715 94.28L582.1 95.795C581.63 95.515 581.145 95.31 580.645 95.18C580.145 95.04 579.665 94.97 579.205 94.97C578.665 94.97 578.225 95.035 577.885 95.165C577.555 95.295 577.31 95.465 577.15 95.675C577 95.885 576.925 96.125 576.925 96.395C576.925 96.715 577.035 96.975 577.255 97.175C577.485 97.365 577.78 97.515 578.14 97.625C578.51 97.735 578.92 97.845 579.37 97.955C579.82 98.055 580.265 98.17 580.705 98.3C581.155 98.43 581.56 98.6 581.92 98.81C582.29 99.02 582.585 99.305 582.805 99.665C583.035 100.025 583.15 100.48 583.15 101.03C583.15 101.59 582.995 102.11 582.685 102.59C582.385 103.06 581.92 103.44 581.29 103.73C580.66 104.01 579.865 104.15 578.905 104.15ZM588.669 104.105C587.779 104.105 586.999 103.93 586.329 103.58C585.669 103.22 585.154 102.73 584.784 102.11C584.424 101.49 584.244 100.785 584.244 99.995C584.244 99.195 584.419 98.49 584.769 97.88C585.129 97.26 585.619 96.775 586.239 96.425C586.869 96.075 587.584 95.9 588.384 95.9C589.164 95.9 589.859 96.07 590.469 96.41C591.079 96.75 591.559 97.23 591.909 97.85C592.259 98.47 592.434 99.2 592.434 100.04C592.434 100.12 592.429 100.21 592.419 100.31C592.419 100.41 592.414 100.505 592.404 100.595H585.729V99.35H591.414L590.679 99.74C590.689 99.28 590.594 98.875 590.394 98.525C590.194 98.175 589.919 97.9 589.569 97.7C589.229 97.5 588.834 97.4 588.384 97.4C587.924 97.4 587.519 97.5 587.169 97.7C586.829 97.9 586.559 98.18 586.359 98.54C586.169 98.89 586.074 99.305 586.074 99.785V100.085C586.074 100.565 586.184 100.99 586.404 101.36C586.624 101.73 586.934 102.015 587.334 102.215C587.734 102.415 588.194 102.515 588.714 102.515C589.164 102.515 589.569 102.445 589.929 102.305C590.289 102.165 590.609 101.945 590.889 101.645L591.894 102.8C591.534 103.22 591.079 103.545 590.529 103.775C589.989 103.995 589.369 104.105 588.669 104.105ZM594.235 104V95.99H596.02V98.195L595.81 97.55C596.05 97.01 596.425 96.6 596.935 96.32C597.455 96.04 598.1 95.9 598.87 95.9V97.685C598.79 97.665 598.715 97.655 598.645 97.655C598.575 97.645 598.505 97.64 598.435 97.64C597.725 97.64 597.16 97.85 596.74 98.27C596.32 98.68 596.11 99.295 596.11 100.115V104H594.235ZM602.883 104L599.448 95.99H601.398L604.353 103.055H603.393L606.453 95.99H608.253L604.818 104H602.883ZM609.425 104V95.99H611.3V104H609.425ZM610.37 94.67C610.02 94.67 609.73 94.56 609.5 94.34C609.28 94.12 609.17 93.855 609.17 93.545C609.17 93.225 609.28 92.96 609.5 92.75C609.73 92.53 610.02 92.42 610.37 92.42C610.72 92.42 611.005 92.525 611.225 92.735C611.455 92.935 611.57 93.19 611.57 93.5C611.57 93.83 611.46 94.11 611.24 94.34C611.02 94.56 610.73 94.67 610.37 94.67ZM617.436 104.105C616.596 104.105 615.846 103.93 615.186 103.58C614.536 103.22 614.026 102.73 613.656 102.11C613.286 101.49 613.101 100.785 613.101 99.995C613.101 99.195 613.286 98.49 613.656 97.88C614.026 97.26 614.536 96.775 615.186 96.425C615.846 96.075 616.596 95.9 617.436 95.9C618.216 95.9 618.901 96.06 619.491 96.38C620.091 96.69 620.546 97.15 620.856 97.76L619.416 98.6C619.176 98.22 618.881 97.94 618.531 97.76C618.191 97.58 617.821 97.49 617.421 97.49C616.961 97.49 616.546 97.59 616.176 97.79C615.806 97.99 615.516 98.28 615.306 98.66C615.096 99.03 614.991 99.475 614.991 99.995C614.991 100.515 615.096 100.965 615.306 101.345C615.516 101.715 615.806 102 616.176 102.2C616.546 102.4 616.961 102.5 617.421 102.5C617.821 102.5 618.191 102.41 618.531 102.23C618.881 102.05 619.176 101.77 619.416 101.39L620.856 102.23C620.546 102.83 620.091 103.295 619.491 103.625C618.901 103.945 618.216 104.105 617.436 104.105ZM626.125 104.105C625.235 104.105 624.455 103.93 623.785 103.58C623.125 103.22 622.61 102.73 622.24 102.11C621.88 101.49 621.7 100.785 621.7 99.995C621.7 99.195 621.875 98.49 622.225 97.88C622.585 97.26 623.075 96.775 623.695 96.425C624.325 96.075 625.04 95.9 625.84 95.9C626.62 95.9 627.315 96.07 627.925 96.41C628.535 96.75 629.015 97.23 629.365 97.85C629.715 98.47 629.89 99.2 629.89 100.04C629.89 100.12 629.885 100.21 629.875 100.31C629.875 100.41 629.87 100.505 629.86 100.595H623.185V99.35H628.87L628.135 99.74C628.145 99.28 628.05 98.875 627.85 98.525C627.65 98.175 627.375 97.9 627.025 97.7C626.685 97.5 626.29 97.4 625.84 97.4C625.38 97.4 624.975 97.5 624.625 97.7C624.285 97.9 624.015 98.18 623.815 98.54C623.625 98.89 623.53 99.305 623.53 99.785V100.085C623.53 100.565 623.64 100.99 623.86 101.36C624.08 101.73 624.39 102.015 624.79 102.215C625.19 102.415 625.65 102.515 626.17 102.515C626.62 102.515 627.025 102.445 627.385 102.305C627.745 102.165 628.065 101.945 628.345 101.645L629.35 102.8C628.99 103.22 628.535 103.545 627.985 103.775C627.445 103.995 626.825 104.105 626.125 104.105ZM634.166 104.105C633.496 104.105 632.851 104.02 632.231 103.85C631.621 103.67 631.136 103.455 630.776 103.205L631.496 101.78C631.856 102.01 632.286 102.2 632.786 102.35C633.286 102.5 633.786 102.575 634.286 102.575C634.876 102.575 635.301 102.495 635.561 102.335C635.831 102.175 635.966 101.96 635.966 101.69C635.966 101.47 635.876 101.305 635.696 101.195C635.516 101.075 635.281 100.985 634.991 100.925C634.701 100.865 634.376 100.81 634.016 100.76C633.666 100.71 633.311 100.645 632.951 100.565C632.601 100.475 632.281 100.35 631.991 100.19C631.701 100.02 631.466 99.795 631.286 99.515C631.106 99.235 631.016 98.865 631.016 98.405C631.016 97.895 631.161 97.455 631.451 97.085C631.741 96.705 632.146 96.415 632.666 96.215C633.196 96.005 633.821 95.9 634.541 95.9C635.081 95.9 635.626 95.96 636.176 96.08C636.726 96.2 637.181 96.37 637.541 96.59L636.821 98.015C636.441 97.785 636.056 97.63 635.666 97.55C635.286 97.46 634.906 97.415 634.526 97.415C633.956 97.415 633.531 97.5 633.251 97.67C632.981 97.84 632.846 98.055 632.846 98.315C632.846 98.555 632.936 98.735 633.116 98.855C633.296 98.975 633.531 99.07 633.821 99.14C634.111 99.21 634.431 99.27 634.781 99.32C635.141 99.36 635.496 99.425 635.846 99.515C636.196 99.605 636.516 99.73 636.806 99.89C637.106 100.04 637.346 100.255 637.526 100.535C637.706 100.815 637.796 101.18 637.796 101.63C637.796 102.13 637.646 102.565 637.346 102.935C637.056 103.305 636.641 103.595 636.101 103.805C635.561 104.005 634.916 104.105 634.166 104.105Z" fill="black"/>
</svg>
