<svg width="604" height="111" viewBox="0 0 604 111" fill="none" xmlns="http://www.w3.org/2000/svg">
<path d="M20.5522 107.15C19.7322 107.15 18.9772 107.015 18.2872 106.745C17.5972 106.475 16.9972 106.1 16.4872 105.62C15.9772 105.13 15.5822 104.56 15.3022 103.91C15.0222 103.25 14.8822 102.53 14.8822 101.75C14.8822 100.97 15.0222 100.255 15.3022 99.605C15.5822 98.945 15.9772 98.375 16.4872 97.895C16.9972 97.405 17.5972 97.025 18.2872 96.755C18.9772 96.485 19.7272 96.35 20.5372 96.35C21.3572 96.35 22.1072 96.485 22.7872 96.755C23.4772 97.025 24.0772 97.405 24.5872 97.895C25.0972 98.375 25.4922 98.945 25.7722 99.605C26.0522 100.255 26.1922 100.97 26.1922 101.75C26.1922 102.53 26.0522 103.25 25.7722 103.91C25.4922 104.57 25.0972 105.14 24.5872 105.62C24.0772 106.1 23.4772 106.475 22.7872 106.745C22.1072 107.015 21.3622 107.15 20.5522 107.15ZM20.5372 105.44C21.0672 105.44 21.5572 105.35 22.0072 105.17C22.4572 104.99 22.8472 104.735 23.1772 104.405C23.5072 104.065 23.7622 103.675 23.9422 103.235C24.1322 102.785 24.2272 102.29 24.2272 101.75C24.2272 101.21 24.1322 100.72 23.9422 100.28C23.7622 99.83 23.5072 99.44 23.1772 99.11C22.8472 98.77 22.4572 98.51 22.0072 98.33C21.5572 98.15 21.0672 98.06 20.5372 98.06C20.0072 98.06 19.5172 98.15 19.0672 98.33C18.6272 98.51 18.2372 98.77 17.8972 99.11C17.5672 99.44 17.3072 99.83 17.1172 100.28C16.9372 100.72 16.8472 101.21 16.8472 101.75C16.8472 102.28 16.9372 102.77 17.1172 103.22C17.3072 103.67 17.5672 104.065 17.8972 104.405C18.2272 104.735 18.6172 104.99 19.0672 105.17C19.5172 105.35 20.0072 105.44 20.5372 105.44ZM29.8491 107L26.9091 98.99H28.6791L31.1991 106.055H30.3591L32.9991 98.99H34.5741L37.1391 106.055H36.3141L38.9091 98.99H40.5741L37.6191 107H35.8191L33.4791 100.745H34.0341L31.6491 107H29.8491ZM46.4083 98.9C47.0483 98.9 47.6183 99.025 48.1183 99.275C48.6283 99.525 49.0283 99.91 49.3183 100.43C49.6083 100.94 49.7533 101.6 49.7533 102.41V107H47.8783V102.65C47.8783 101.94 47.7083 101.41 47.3683 101.06C47.0383 100.71 46.5733 100.535 45.9733 100.535C45.5333 100.535 45.1433 100.625 44.8033 100.805C44.4633 100.985 44.1983 101.255 44.0083 101.615C43.8283 101.965 43.7383 102.41 43.7383 102.95V107H41.8633V98.99H43.6483V101.15L43.3333 100.49C43.6133 99.98 44.0183 99.59 44.5483 99.32C45.0883 99.04 45.7083 98.9 46.4083 98.9ZM56.4574 107V96.5H61.3774C62.6374 96.5 63.5974 96.75 64.2574 97.25C64.9174 97.74 65.2474 98.4 65.2474 99.23C65.2474 99.79 65.1174 100.27 64.8574 100.67C64.5974 101.06 64.2474 101.365 63.8074 101.585C63.3774 101.795 62.9074 101.9 62.3974 101.9L62.6674 101.36C63.2574 101.36 63.7874 101.47 64.2574 101.69C64.7274 101.9 65.0974 102.21 65.3674 102.62C65.6474 103.03 65.7874 103.54 65.7874 104.15C65.7874 105.05 65.4424 105.75 64.7524 106.25C64.0624 106.75 63.0374 107 61.6774 107H56.4574ZM58.4074 105.47H61.5574C62.2874 105.47 62.8474 105.35 63.2374 105.11C63.6274 104.87 63.8224 104.485 63.8224 103.955C63.8224 103.435 63.6274 103.055 63.2374 102.815C62.8474 102.565 62.2874 102.44 61.5574 102.44H58.2574V100.925H61.1674C61.8474 100.925 62.3674 100.805 62.7274 100.565C63.0974 100.325 63.2824 99.965 63.2824 99.485C63.2824 98.995 63.0974 98.63 62.7274 98.39C62.3674 98.15 61.8474 98.03 61.1674 98.03H58.4074V105.47ZM71.0785 107.105C70.3985 107.105 69.7985 106.98 69.2785 106.73C68.7585 106.47 68.3535 106.08 68.0635 105.56C67.7735 105.03 67.6285 104.365 67.6285 103.565V98.99H69.5035V103.31C69.5035 104.03 69.6635 104.57 69.9835 104.93C70.3135 105.28 70.7785 105.455 71.3785 105.455C71.8185 105.455 72.1985 105.365 72.5185 105.185C72.8485 105.005 73.1035 104.735 73.2835 104.375C73.4735 104.015 73.5685 103.57 73.5685 103.04V98.99H75.4435V107H73.6585V104.84L73.9735 105.5C73.7035 106.02 73.3085 106.42 72.7885 106.7C72.2685 106.97 71.6985 107.105 71.0785 107.105ZM80.3735 107.105C79.7035 107.105 79.0585 107.02 78.4385 106.85C77.8285 106.67 77.3435 106.455 76.9835 106.205L77.7035 104.78C78.0635 105.01 78.4935 105.2 78.9935 105.35C79.4935 105.5 79.9935 105.575 80.4935 105.575C81.0835 105.575 81.5085 105.495 81.7685 105.335C82.0385 105.175 82.1735 104.96 82.1735 104.69C82.1735 104.47 82.0835 104.305 81.9035 104.195C81.7235 104.075 81.4885 103.985 81.1985 103.925C80.9085 103.865 80.5835 103.81 80.2235 103.76C79.8735 103.71 79.5185 103.645 79.1585 103.565C78.8085 103.475 78.4885 103.35 78.1985 103.19C77.9085 103.02 77.6735 102.795 77.4935 102.515C77.3135 102.235 77.2235 101.865 77.2235 101.405C77.2235 100.895 77.3685 100.455 77.6585 100.085C77.9485 99.705 78.3535 99.415 78.8735 99.215C79.4035 99.005 80.0285 98.9 80.7485 98.9C81.2885 98.9 81.8335 98.96 82.3835 99.08C82.9335 99.2 83.3885 99.37 83.7485 99.59L83.0285 101.015C82.6485 100.785 82.2635 100.63 81.8735 100.55C81.4935 100.46 81.1135 100.415 80.7335 100.415C80.1635 100.415 79.7385 100.5 79.4585 100.67C79.1885 100.84 79.0535 101.055 79.0535 101.315C79.0535 101.555 79.1435 101.735 79.3235 101.855C79.5035 101.975 79.7385 102.07 80.0285 102.14C80.3185 102.21 80.6385 102.27 80.9885 102.32C81.3485 102.36 81.7035 102.425 82.0535 102.515C82.4035 102.605 82.7235 102.73 83.0135 102.89C83.3135 103.04 83.5535 103.255 83.7335 103.535C83.9135 103.815 84.0035 104.18 84.0035 104.63C84.0035 105.13 83.8535 105.565 83.5535 105.935C83.2635 106.305 82.8485 106.595 82.3085 106.805C81.7685 107.005 81.1235 107.105 80.3735 107.105ZM85.6182 107V98.99H87.4932V107H85.6182ZM86.5632 97.67C86.2132 97.67 85.9232 97.56 85.6932 97.34C85.4732 97.12 85.3632 96.855 85.3632 96.545C85.3632 96.225 85.4732 95.96 85.6932 95.75C85.9232 95.53 86.2132 95.42 86.5632 95.42C86.9132 95.42 87.1982 95.525 87.4182 95.735C87.6482 95.935 87.7632 96.19 87.7632 96.5C87.7632 96.83 87.6532 97.11 87.4332 97.34C87.2132 97.56 86.9232 97.67 86.5632 97.67ZM94.4991 98.9C95.1391 98.9 95.7091 99.025 96.2091 99.275C96.7191 99.525 97.1191 99.91 97.4091 100.43C97.6991 100.94 97.8441 101.6 97.8441 102.41V107H95.9691V102.65C95.9691 101.94 95.7991 101.41 95.4591 101.06C95.1291 100.71 94.6641 100.535 94.0641 100.535C93.6241 100.535 93.2341 100.625 92.8941 100.805C92.5541 100.985 92.2891 101.255 92.0991 101.615C91.9191 101.965 91.8291 102.41 91.8291 102.95V107H89.9541V98.99H91.7391V101.15L91.4241 100.49C91.7041 99.98 92.1091 99.59 92.6391 99.32C93.1791 99.04 93.7991 98.9 94.4991 98.9ZM104.002 107.105C103.112 107.105 102.332 106.93 101.662 106.58C101.002 106.22 100.487 105.73 100.117 105.11C99.7573 104.49 99.5773 103.785 99.5773 102.995C99.5773 102.195 99.7523 101.49 100.102 100.88C100.462 100.26 100.952 99.775 101.572 99.425C102.202 99.075 102.917 98.9 103.717 98.9C104.497 98.9 105.192 99.07 105.802 99.41C106.412 99.75 106.892 100.23 107.242 100.85C107.592 101.47 107.767 102.2 107.767 103.04C107.767 103.12 107.762 103.21 107.752 103.31C107.752 103.41 107.747 103.505 107.737 103.595H101.062V102.35H106.747L106.012 102.74C106.022 102.28 105.927 101.875 105.727 101.525C105.527 101.175 105.252 100.9 104.902 100.7C104.562 100.5 104.167 100.4 103.717 100.4C103.257 100.4 102.852 100.5 102.502 100.7C102.162 100.9 101.892 101.18 101.692 101.54C101.502 101.89 101.407 102.305 101.407 102.785V103.085C101.407 103.565 101.517 103.99 101.737 104.36C101.957 104.73 102.267 105.015 102.667 105.215C103.067 105.415 103.527 105.515 104.047 105.515C104.497 105.515 104.902 105.445 105.262 105.305C105.622 105.165 105.942 104.945 106.222 104.645L107.227 105.8C106.867 106.22 106.412 106.545 105.862 106.775C105.322 106.995 104.702 107.105 104.002 107.105ZM112.043 107.105C111.373 107.105 110.728 107.02 110.108 106.85C109.498 106.67 109.013 106.455 108.653 106.205L109.373 104.78C109.733 105.01 110.163 105.2 110.663 105.35C111.163 105.5 111.663 105.575 112.163 105.575C112.753 105.575 113.178 105.495 113.438 105.335C113.708 105.175 113.843 104.96 113.843 104.69C113.843 104.47 113.753 104.305 113.573 104.195C113.393 104.075 113.158 103.985 112.868 103.925C112.578 103.865 112.253 103.81 111.893 103.76C111.543 103.71 111.188 103.645 110.828 103.565C110.478 103.475 110.158 103.35 109.868 103.19C109.578 103.02 109.343 102.795 109.163 102.515C108.983 102.235 108.893 101.865 108.893 101.405C108.893 100.895 109.038 100.455 109.328 100.085C109.618 99.705 110.023 99.415 110.543 99.215C111.073 99.005 111.698 98.9 112.418 98.9C112.958 98.9 113.503 98.96 114.053 99.08C114.603 99.2 115.058 99.37 115.418 99.59L114.698 101.015C114.318 100.785 113.933 100.63 113.543 100.55C113.163 100.46 112.783 100.415 112.403 100.415C111.833 100.415 111.408 100.5 111.128 100.67C110.858 100.84 110.723 101.055 110.723 101.315C110.723 101.555 110.813 101.735 110.993 101.855C111.173 101.975 111.408 102.07 111.698 102.14C111.988 102.21 112.308 102.27 112.658 102.32C113.018 102.36 113.373 102.425 113.723 102.515C114.073 102.605 114.393 102.73 114.683 102.89C114.983 103.04 115.223 103.255 115.403 103.535C115.583 103.815 115.673 104.18 115.673 104.63C115.673 105.13 115.523 105.565 115.223 105.935C114.933 106.305 114.518 106.595 113.978 106.805C113.438 107.005 112.793 107.105 112.043 107.105ZM119.763 107.105C119.093 107.105 118.448 107.02 117.828 106.85C117.218 106.67 116.733 106.455 116.373 106.205L117.093 104.78C117.453 105.01 117.883 105.2 118.383 105.35C118.883 105.5 119.383 105.575 119.883 105.575C120.473 105.575 120.898 105.495 121.158 105.335C121.428 105.175 121.563 104.96 121.563 104.69C121.563 104.47 121.473 104.305 121.293 104.195C121.113 104.075 120.878 103.985 120.588 103.925C120.298 103.865 119.973 103.81 119.613 103.76C119.263 103.71 118.908 103.645 118.548 103.565C118.198 103.475 117.878 103.35 117.588 103.19C117.298 103.02 117.063 102.795 116.883 102.515C116.703 102.235 116.613 101.865 116.613 101.405C116.613 100.895 116.758 100.455 117.048 100.085C117.338 99.705 117.743 99.415 118.263 99.215C118.793 99.005 119.418 98.9 120.138 98.9C120.678 98.9 121.223 98.96 121.773 99.08C122.323 99.2 122.778 99.37 123.138 99.59L122.418 101.015C122.038 100.785 121.653 100.63 121.263 100.55C120.883 100.46 120.503 100.415 120.123 100.415C119.553 100.415 119.128 100.5 118.848 100.67C118.578 100.84 118.443 101.055 118.443 101.315C118.443 101.555 118.533 101.735 118.713 101.855C118.893 101.975 119.128 102.07 119.418 102.14C119.708 102.21 120.028 102.27 120.378 102.32C120.738 102.36 121.093 102.425 121.443 102.515C121.793 102.605 122.113 102.73 122.403 102.89C122.703 103.04 122.943 103.255 123.123 103.535C123.303 103.815 123.393 104.18 123.393 104.63C123.393 105.13 123.243 105.565 122.943 105.935C122.653 106.305 122.238 106.595 121.698 106.805C121.158 107.005 120.513 107.105 119.763 107.105Z" fill="black"/>
<rect x="27.5" y="1.5" width="83" height="83" stroke="#FF0000" stroke-width="3"/>
<path d="M58.9219 8.625C50.2969 9.98438 43.5469 16.5 42.0469 24.9531C41.7188 26.7969 41.7188 30.1563 42.0469 31.9844C43.0469 37.5938 46.5782 42.6875 51.4844 45.5781C52.4376 46.1406 52.5938 46.2969 52.3438 46.375C47.9376 47.9687 44.7188 49.9687 41.4376 53.1406C36.2813 58.1719 33.3438 64.4375 32.7344 71.7656C32.5313 74.1563 32.6563 74.8281 33.3594 75.3281C33.8594 75.6875 34.7188 75.75 35.3126 75.4687C36.0469 75.1406 36.2188 74.6719 36.3594 72.4688C36.4219 71.3438 36.5938 69.8594 36.7188 69.1719C39.6407 54.0781 55.0157 45 69.6719 49.7344C71.5157 50.3281 74.5157 51.8125 76.1094 52.9062C78.5157 54.5781 81.0782 57.1406 82.6876 59.4844C85.1563 63.0781 86.8438 67.8594 87.0626 71.9063C87.1876 74.3906 87.2501 74.6719 87.7657 75.1875C88.1719 75.5781 88.3594 75.6562 89.0001 75.6562C89.6251 75.6562 89.8282 75.5781 90.2188 75.1875C90.8282 74.5781 90.9063 74.0625 90.7188 71.8125C90.3907 67.7344 89.4688 64.4375 87.6407 60.8125C86.2657 58.0781 84.9063 56.1406 82.8282 53.9687C79.4688 50.4375 75.6563 47.9687 71.1251 46.375C70.8751 46.2969 71.0157 46.1563 71.8594 45.6563C76.0313 43.2188 79.3282 39.0938 80.7813 34.4375C81.3907 32.4844 81.6563 30.6875 81.6563 28.4688C81.6563 25.0781 81.0157 22.3281 79.5469 19.4375C76.7969 14.0312 71.9688 10.2813 66.0313 8.92188C64.4844 8.5625 60.4219 8.39063 58.9219 8.625ZM65.0313 12.4375C70.8282 13.6563 75.3907 17.75 77.2813 23.4375C79.2344 29.3125 77.4219 36.2812 72.8594 40.4375C67.6719 45.1562 60.4063 46.1406 54.2344 42.9688C52.0157 41.8281 49.5469 39.6719 48.2657 37.7656C43.8907 31.2344 44.5782 22.7344 49.9219 17.1719C52.3438 14.6406 55.5469 12.9219 58.7813 12.3906C59.3751 12.2969 60.0313 12.1875 60.2501 12.1563C60.9688 12.0313 63.9219 12.2031 65.0313 12.4375Z" fill="#FF0000"/>
<path d="M85.9374 19.9375C85.3281 20.5469 85.2343 21.2812 85.6406 22.0625C86.1406 23.0156 85.9687 23 95.3593 23C101.891 23 104.016 22.9531 104.312 22.7969C104.766 22.5625 105.406 21.6719 105.406 21.25C105.406 20.7031 104.906 19.875 104.453 19.6406C104.078 19.4375 102.609 19.4062 95.2343 19.4062H86.4687L85.9374 19.9375Z" fill="#FF0000"/>
<path d="M86.3906 32.2969C85.7969 32.5469 85.4062 33.2344 85.4062 34.0312C85.4062 34.4688 85.5312 34.7188 85.9375 35.125L86.4688 35.6562H95.3281C104.016 35.6562 104.188 35.6562 104.641 35.3281C104.891 35.1562 105.156 34.7656 105.266 34.4375C105.5 33.6562 105.156 32.8125 104.438 32.375C103.938 32.0781 103.672 32.0625 95.4062 32.0625C88.5 32.0781 86.7969 32.1094 86.3906 32.2969Z" fill="#FF0000"/>
<path d="M84.2814 45.1875C83.3908 45.8906 83.3283 47.1406 84.172 47.9375L84.6408 48.3906H94.4689H104.281L104.688 48.0156C105.594 47.1562 105.531 45.7656 104.563 45.1719C104.094 44.8906 103.672 44.875 94.3751 44.875C84.9533 44.875 84.6564 44.8906 84.2814 45.1875Z" fill="#FF0000"/>
<path d="M91.7031 57.8281C91.0781 58.2188 90.875 58.5938 90.875 59.4062C90.875 59.9375 90.9688 60.1562 91.4062 60.5938L91.9375 61.125H98.0156C103.719 61.125 104.109 61.1094 104.562 60.8281C105.531 60.2344 105.594 58.8438 104.688 57.9844L104.281 57.6094L98.25 57.5625C92.4688 57.5312 92.1875 57.5469 91.7031 57.8281Z" fill="black"/>
<path d="M91.7031 57.8281C91.0781 58.2188 90.875 58.5938 90.875 59.4062C90.875 59.9375 90.9688 60.1562 91.4062 60.5938L91.9375 61.125H98.0156C103.719 61.125 104.109 61.1094 104.562 60.8281C105.531 60.2344 105.594 58.8438 104.688 57.9844L104.281 57.6094L98.25 57.5625C92.4688 57.5312 92.1875 57.5469 91.7031 57.8281Z" fill="#FF0000"/>
<path d="M169.466 107.15C168.646 107.15 167.891 107.015 167.201 106.745C166.511 106.475 165.911 106.1 165.401 105.62C164.891 105.13 164.496 104.56 164.216 103.91C163.936 103.25 163.796 102.53 163.796 101.75C163.796 100.97 163.936 100.255 164.216 99.605C164.496 98.945 164.891 98.375 165.401 97.895C165.911 97.405 166.511 97.025 167.201 96.755C167.891 96.485 168.641 96.35 169.451 96.35C170.271 96.35 171.021 96.485 171.701 96.755C172.391 97.025 172.991 97.405 173.501 97.895C174.011 98.375 174.406 98.945 174.686 99.605C174.966 100.255 175.106 100.97 175.106 101.75C175.106 102.53 174.966 103.25 174.686 103.91C174.406 104.57 174.011 105.14 173.501 105.62C172.991 106.1 172.391 106.475 171.701 106.745C171.021 107.015 170.276 107.15 169.466 107.15ZM169.451 105.44C169.981 105.44 170.471 105.35 170.921 105.17C171.371 104.99 171.761 104.735 172.091 104.405C172.421 104.065 172.676 103.675 172.856 103.235C173.046 102.785 173.141 102.29 173.141 101.75C173.141 101.21 173.046 100.72 172.856 100.28C172.676 99.83 172.421 99.44 172.091 99.11C171.761 98.77 171.371 98.51 170.921 98.33C170.471 98.15 169.981 98.06 169.451 98.06C168.921 98.06 168.431 98.15 167.981 98.33C167.541 98.51 167.151 98.77 166.811 99.11C166.481 99.44 166.221 99.83 166.031 100.28C165.851 100.72 165.761 101.21 165.761 101.75C165.761 102.28 165.851 102.77 166.031 103.22C166.221 103.67 166.481 104.065 166.811 104.405C167.141 104.735 167.531 104.99 167.981 105.17C168.431 105.35 168.921 105.44 169.451 105.44ZM178.763 107L175.823 98.99H177.593L180.113 106.055H179.273L181.913 98.99H183.488L186.053 106.055H185.228L187.823 98.99H189.488L186.533 107H184.733L182.393 100.745H182.948L180.563 107H178.763ZM195.322 98.9C195.962 98.9 196.532 99.025 197.032 99.275C197.542 99.525 197.942 99.91 198.232 100.43C198.522 100.94 198.667 101.6 198.667 102.41V107H196.792V102.65C196.792 101.94 196.622 101.41 196.282 101.06C195.952 100.71 195.487 100.535 194.887 100.535C194.447 100.535 194.057 100.625 193.717 100.805C193.377 100.985 193.112 101.255 192.922 101.615C192.742 101.965 192.652 102.41 192.652 102.95V107H190.777V98.99H192.562V101.15L192.247 100.49C192.527 99.98 192.932 99.59 193.462 99.32C194.002 99.04 194.622 98.9 195.322 98.9ZM205.371 107V96.5H209.691C210.621 96.5 211.416 96.65 212.076 96.95C212.746 97.25 213.261 97.68 213.621 98.24C213.981 98.8 214.161 99.465 214.161 100.235C214.161 101.005 213.981 101.67 213.621 102.23C213.261 102.79 212.746 103.22 212.076 103.52C211.416 103.82 210.621 103.97 209.691 103.97H206.451L207.321 103.055V107H205.371ZM207.321 103.265L206.451 102.32H209.601C210.461 102.32 211.106 102.14 211.536 101.78C211.976 101.41 212.196 100.895 212.196 100.235C212.196 99.565 211.976 99.05 211.536 98.69C211.106 98.33 210.461 98.15 209.601 98.15H206.451L207.321 97.19V103.265ZM215.855 107V98.99H217.64V101.195L217.43 100.55C217.67 100.01 218.045 99.6 218.555 99.32C219.075 99.04 219.72 98.9 220.49 98.9V100.685C220.41 100.665 220.335 100.655 220.265 100.655C220.195 100.645 220.125 100.64 220.055 100.64C219.345 100.64 218.78 100.85 218.36 101.27C217.94 101.68 217.73 102.295 217.73 103.115V107H215.855ZM222.081 107V98.99H223.956V107H222.081ZM223.026 97.67C222.676 97.67 222.386 97.56 222.156 97.34C221.936 97.12 221.826 96.855 221.826 96.545C221.826 96.225 221.936 95.96 222.156 95.75C222.386 95.53 222.676 95.42 223.026 95.42C223.376 95.42 223.661 95.525 223.881 95.735C224.111 95.935 224.226 96.19 224.226 96.5C224.226 96.83 224.116 97.11 223.896 97.34C223.676 97.56 223.386 97.67 223.026 97.67ZM230.092 107.105C229.252 107.105 228.502 106.93 227.842 106.58C227.192 106.22 226.682 105.73 226.312 105.11C225.942 104.49 225.757 103.785 225.757 102.995C225.757 102.195 225.942 101.49 226.312 100.88C226.682 100.26 227.192 99.775 227.842 99.425C228.502 99.075 229.252 98.9 230.092 98.9C230.872 98.9 231.557 99.06 232.147 99.38C232.747 99.69 233.202 100.15 233.512 100.76L232.072 101.6C231.832 101.22 231.537 100.94 231.187 100.76C230.847 100.58 230.477 100.49 230.077 100.49C229.617 100.49 229.202 100.59 228.832 100.79C228.462 100.99 228.172 101.28 227.962 101.66C227.752 102.03 227.647 102.475 227.647 102.995C227.647 103.515 227.752 103.965 227.962 104.345C228.172 104.715 228.462 105 228.832 105.2C229.202 105.4 229.617 105.5 230.077 105.5C230.477 105.5 230.847 105.41 231.187 105.23C231.537 105.05 231.832 104.77 232.072 104.39L233.512 105.23C233.202 105.83 232.747 106.295 232.147 106.625C231.557 106.945 230.872 107.105 230.092 107.105ZM235.06 107V98.99H236.935V107H235.06ZM236.005 97.67C235.655 97.67 235.365 97.56 235.135 97.34C234.915 97.12 234.805 96.855 234.805 96.545C234.805 96.225 234.915 95.96 235.135 95.75C235.365 95.53 235.655 95.42 236.005 95.42C236.355 95.42 236.64 95.525 236.86 95.735C237.09 95.935 237.205 96.19 237.205 96.5C237.205 96.83 237.095 97.11 236.875 97.34C236.655 97.56 236.365 97.67 236.005 97.67ZM243.941 98.9C244.581 98.9 245.151 99.025 245.651 99.275C246.161 99.525 246.561 99.91 246.851 100.43C247.141 100.94 247.286 101.6 247.286 102.41V107H245.411V102.65C245.411 101.94 245.241 101.41 244.901 101.06C244.571 100.71 244.106 100.535 243.506 100.535C243.066 100.535 242.676 100.625 242.336 100.805C241.996 100.985 241.731 101.255 241.541 101.615C241.361 101.965 241.271 102.41 241.271 102.95V107H239.396V98.99H241.181V101.15L240.866 100.49C241.146 99.98 241.551 99.59 242.081 99.32C242.621 99.04 243.241 98.9 243.941 98.9ZM253.309 110.015C252.569 110.015 251.844 109.915 251.134 109.715C250.434 109.525 249.859 109.245 249.409 108.875L250.249 107.465C250.599 107.755 251.039 107.985 251.569 108.155C252.109 108.335 252.654 108.425 253.204 108.425C254.084 108.425 254.729 108.22 255.139 107.81C255.549 107.41 255.754 106.805 255.754 105.995V104.57L255.904 102.755L255.844 100.94V98.99H257.629V105.785C257.629 107.235 257.259 108.3 256.519 108.98C255.779 109.67 254.709 110.015 253.309 110.015ZM253.069 106.64C252.309 106.64 251.619 106.48 250.999 106.16C250.389 105.83 249.904 105.375 249.544 104.795C249.194 104.215 249.019 103.535 249.019 102.755C249.019 101.985 249.194 101.31 249.544 100.73C249.904 100.15 250.389 99.7 250.999 99.38C251.619 99.06 252.309 98.9 253.069 98.9C253.749 98.9 254.359 99.035 254.899 99.305C255.439 99.575 255.869 99.995 256.189 100.565C256.519 101.135 256.684 101.865 256.684 102.755C256.684 103.645 256.519 104.38 256.189 104.96C255.869 105.53 255.439 105.955 254.899 106.235C254.359 106.505 253.749 106.64 253.069 106.64ZM253.354 105.05C253.824 105.05 254.244 104.955 254.614 104.765C254.984 104.565 255.269 104.295 255.469 103.955C255.679 103.605 255.784 103.205 255.784 102.755C255.784 102.305 255.679 101.91 255.469 101.57C255.269 101.22 254.984 100.955 254.614 100.775C254.244 100.585 253.824 100.49 253.354 100.49C252.884 100.49 252.459 100.585 252.079 100.775C251.709 100.955 251.419 101.22 251.209 101.57C251.009 101.91 250.909 102.305 250.909 102.755C250.909 103.205 251.009 103.605 251.209 103.955C251.419 104.295 251.709 104.565 252.079 104.765C252.459 104.955 252.884 105.05 253.354 105.05Z" fill="black"/>
<rect x="172.5" y="4.5" width="77" height="77" stroke="black" stroke-width="3"/>
<rect x="172.5" y="4.5" width="77" height="77" stroke="#FF0000" stroke-width="3"/>
<path d="M182.406 11.8906C181.328 12.2188 180.375 13.0312 179.812 14.0938C179.531 14.625 179.516 15.5781 179.516 40.2656V65.8906L179.953 67.1719C181 70.2656 183.344 72.5938 186.547 73.7344L187.797 74.1719H211.859H235.922L236.984 73.75C239 72.9375 240.578 71.5469 241.531 69.7344C242.578 67.7344 242.562 68.125 242.562 53.3438C242.562 40.2344 242.562 40.0312 242.25 39.7188C241.953 39.4219 241.734 39.4062 234.672 39.4062H227.406L227.375 27.0156C227.328 15.2969 227.312 14.6094 227.031 14.0938C226.562 13.1875 225.672 12.3906 224.797 12.0625C223.969 11.75 223.562 11.75 203.375 11.7656C192.062 11.7656 182.625 11.8281 182.406 11.8906ZM224.266 13.9062C224.562 14.0469 224.953 14.375 225.125 14.6094C225.453 15.0469 225.453 15.0625 225.531 41.3281L225.609 67.6094L225.953 68.5C226.422 69.75 227 70.6719 227.859 71.5938L228.594 72.375L208.281 72.3438L187.953 72.2969L186.875 71.875C184.406 70.9219 182.703 69.2031 181.75 66.6562L181.391 65.7344L181.344 40.5C181.312 15.5156 181.312 15.2656 181.625 14.75C181.797 14.4688 182.156 14.1094 182.438 13.9375C182.938 13.625 183.266 13.625 203.344 13.625C222.453 13.625 223.766 13.6406 224.266 13.9062ZM240.656 54.2812C240.609 67.1719 240.609 67.2969 240.281 68.1094C238.922 71.3906 235.391 73.0938 232.062 72.0625C230.203 71.4844 228.594 70 227.812 68.1094C227.484 67.2969 227.484 67.1719 227.438 54.2812L227.391 41.2812H234.047H240.703L240.656 54.2812Z" fill="black"/>
<path d="M182.406 11.8906C181.328 12.2188 180.375 13.0312 179.812 14.0938C179.531 14.625 179.516 15.5781 179.516 40.2656V65.8906L179.953 67.1719C181 70.2656 183.344 72.5938 186.547 73.7344L187.797 74.1719H211.859H235.922L236.984 73.75C239 72.9375 240.578 71.5469 241.531 69.7344C242.578 67.7344 242.562 68.125 242.562 53.3438C242.562 40.2344 242.562 40.0312 242.25 39.7188C241.953 39.4219 241.734 39.4062 234.672 39.4062H227.406L227.375 27.0156C227.328 15.2969 227.312 14.6094 227.031 14.0938C226.562 13.1875 225.672 12.3906 224.797 12.0625C223.969 11.75 223.562 11.75 203.375 11.7656C192.062 11.7656 182.625 11.8281 182.406 11.8906ZM224.266 13.9062C224.562 14.0469 224.953 14.375 225.125 14.6094C225.453 15.0469 225.453 15.0625 225.531 41.3281L225.609 67.6094L225.953 68.5C226.422 69.75 227 70.6719 227.859 71.5938L228.594 72.375L208.281 72.3438L187.953 72.2969L186.875 71.875C184.406 70.9219 182.703 69.2031 181.75 66.6562L181.391 65.7344L181.344 40.5C181.312 15.5156 181.312 15.2656 181.625 14.75C181.797 14.4688 182.156 14.1094 182.438 13.9375C182.938 13.625 183.266 13.625 203.344 13.625C222.453 13.625 223.766 13.6406 224.266 13.9062ZM240.656 54.2812C240.609 67.1719 240.609 67.2969 240.281 68.1094C238.922 71.3906 235.391 73.0938 232.062 72.0625C230.203 71.4844 228.594 70 227.812 68.1094C227.484 67.2969 227.484 67.1719 227.438 54.2812L227.391 41.2812H234.047H240.703L240.656 54.2812Z" fill="#FF0000"/>
<path d="M194.453 17.8591C191.234 18.4841 188.5 20.5466 187.109 23.3748C186.328 24.9529 186 26.2966 186 27.9998C186 33.4998 190.234 37.9373 195.766 38.2654C200.531 38.531 204.844 35.4373 206.25 30.7341C206.641 29.4373 206.641 26.5623 206.25 25.2654C205.75 23.5623 204.781 21.9373 203.547 20.7185C201.219 18.3748 197.594 17.2341 194.453 17.8591ZM199.078 20.0779C202.859 21.3904 205.219 25.2966 204.625 29.2029C204.141 32.3123 202.016 34.8748 199.078 35.9373C197.516 36.4998 195.172 36.531 193.609 35.9841C190.203 34.8279 187.875 31.5779 187.875 27.9998C187.875 23.9998 190.688 20.5779 194.672 19.7185C195.781 19.4685 197.844 19.6404 199.078 20.0779Z" fill="black"/>
<path d="M194.453 17.8591C191.234 18.4841 188.5 20.5466 187.109 23.3748C186.328 24.9529 186 26.2966 186 27.9998C186 33.4998 190.234 37.9373 195.766 38.2654C200.531 38.531 204.844 35.4373 206.25 30.7341C206.641 29.4373 206.641 26.5623 206.25 25.2654C205.75 23.5623 204.781 21.9373 203.547 20.7185C201.219 18.3748 197.594 17.2341 194.453 17.8591ZM199.078 20.0779C202.859 21.3904 205.219 25.2966 204.625 29.2029C204.141 32.3123 202.016 34.8748 199.078 35.9373C197.516 36.4998 195.172 36.531 193.609 35.9841C190.203 34.8279 187.875 31.5779 187.875 27.9998C187.875 23.9998 190.688 20.5779 194.672 19.7185C195.781 19.4685 197.844 19.6404 199.078 20.0779Z" fill="#FF0000"/>
<path d="M192.312 21.718C191.734 22.093 191.75 23.1398 192.328 23.3742C192.469 23.4211 193.156 23.468 193.859 23.468C195.25 23.468 196.015 23.7336 196.437 24.3742L196.656 24.718H194.531C192.609 24.718 192.375 24.7492 192.094 25.0305C191.765 25.3586 191.703 25.7648 191.906 26.0617C192.172 26.4836 192.781 26.593 194.687 26.593H196.672L196.375 26.9211C195.828 27.5305 195.297 27.6867 193.812 27.6867C192.609 27.6867 192.359 27.7336 192.094 27.9992C191.469 28.6242 191.625 28.8742 194.547 31.7023C197.469 34.5305 197.828 34.7492 198.39 34.1242C198.969 33.4992 198.75 33.1242 196.828 31.2961C195.531 30.0773 195.078 29.5617 195.297 29.5617C195.812 29.5617 197.14 28.843 197.672 28.2961C197.953 27.9992 198.281 27.4992 198.422 27.1711C198.656 26.6086 198.687 26.593 199.422 26.593C200.062 26.593 200.25 26.5305 200.515 26.1867C201.078 25.468 200.531 24.718 199.437 24.718C198.765 24.718 198.703 24.6867 198.453 24.1711L198.187 23.6242H199.187C200.234 23.6242 200.562 23.4523 200.765 22.8273C200.828 22.6555 200.765 22.3586 200.64 22.1555C200.422 21.8273 200.25 21.7961 198.484 21.7023C195.953 21.5617 192.531 21.5617 192.312 21.718Z" fill="black"/>
<path d="M192.312 21.718C191.734 22.093 191.75 23.1398 192.328 23.3742C192.469 23.4211 193.156 23.468 193.859 23.468C195.25 23.468 196.015 23.7336 196.437 24.3742L196.656 24.718H194.531C192.609 24.718 192.375 24.7492 192.094 25.0305C191.765 25.3586 191.703 25.7648 191.906 26.0617C192.172 26.4836 192.781 26.593 194.687 26.593H196.672L196.375 26.9211C195.828 27.5305 195.297 27.6867 193.812 27.6867C192.609 27.6867 192.359 27.7336 192.094 27.9992C191.469 28.6242 191.625 28.8742 194.547 31.7023C197.469 34.5305 197.828 34.7492 198.39 34.1242C198.969 33.4992 198.75 33.1242 196.828 31.2961C195.531 30.0773 195.078 29.5617 195.297 29.5617C195.812 29.5617 197.14 28.843 197.672 28.2961C197.953 27.9992 198.281 27.4992 198.422 27.1711C198.656 26.6086 198.687 26.593 199.422 26.593C200.062 26.593 200.25 26.5305 200.515 26.1867C201.078 25.468 200.531 24.718 199.437 24.718C198.765 24.718 198.703 24.6867 198.453 24.1711L198.187 23.6242H199.187C200.234 23.6242 200.562 23.4523 200.765 22.8273C200.828 22.6555 200.765 22.3586 200.64 22.1555C200.422 21.8273 200.25 21.7961 198.484 21.7023C195.953 21.5617 192.531 21.5617 192.312 21.718Z" fill="#FF0000"/>
<path d="M208.344 18.7812C208.172 18.9531 208.031 19.2344 208.031 19.4062C208.031 19.5781 208.172 19.8594 208.344 20.0312C208.641 20.3281 208.859 20.3438 211.438 20.3438C213.953 20.3438 214.266 20.3125 214.484 20.0625C214.828 19.6875 214.812 19.0469 214.469 18.7344C214.219 18.5 213.766 18.4688 211.422 18.4688C208.859 18.4688 208.625 18.5 208.344 18.7812Z" fill="black"/>
<path d="M208.344 18.7812C208.172 18.9531 208.031 19.2344 208.031 19.4062C208.031 19.5781 208.172 19.8594 208.344 20.0312C208.641 20.3281 208.859 20.3438 211.438 20.3438C213.953 20.3438 214.266 20.3125 214.484 20.0625C214.828 19.6875 214.812 19.0469 214.469 18.7344C214.219 18.5 213.766 18.4688 211.422 18.4688C208.859 18.4688 208.625 18.5 208.344 18.7812Z" fill="#FF0000"/>
<path d="M216.891 18.7493C216.547 19.1243 216.563 19.7649 216.906 20.0774C217.36 20.4837 219.485 20.4524 219.906 20.0306C220.078 19.8587 220.219 19.5774 220.219 19.4056C220.219 19.2337 220.078 18.9524 219.906 18.7806C219.469 18.3431 217.281 18.3274 216.891 18.7493Z" fill="black"/>
<path d="M216.891 18.7493C216.547 19.1243 216.563 19.7649 216.906 20.0774C217.36 20.4837 219.485 20.4524 219.906 20.0306C220.078 19.8587 220.219 19.5774 220.219 19.4056C220.219 19.2337 220.078 18.9524 219.906 18.7806C219.469 18.3431 217.281 18.3274 216.891 18.7493Z" fill="#FF0000"/>
<path d="M208.344 24.5625C208.172 24.7344 208.031 25.0156 208.031 25.1875C208.031 25.3594 208.172 25.6406 208.344 25.8125C208.641 26.1094 208.859 26.125 214.125 26.125C219.391 26.125 219.609 26.1094 219.906 25.8125C220.078 25.6406 220.219 25.3594 220.219 25.1875C220.219 25.0156 220.078 24.7344 219.906 24.5625C219.609 24.2656 219.391 24.25 214.125 24.25C208.859 24.25 208.641 24.2656 208.344 24.5625Z" fill="black"/>
<path d="M208.344 24.5625C208.172 24.7344 208.031 25.0156 208.031 25.1875C208.031 25.3594 208.172 25.6406 208.344 25.8125C208.641 26.1094 208.859 26.125 214.125 26.125C219.391 26.125 219.609 26.1094 219.906 25.8125C220.078 25.6406 220.219 25.3594 220.219 25.1875C220.219 25.0156 220.078 24.7344 219.906 24.5625C219.609 24.2656 219.391 24.25 214.125 24.25C208.859 24.25 208.641 24.2656 208.344 24.5625Z" fill="#FF0000"/>
<path d="M208.344 30.1875C208.172 30.3594 208.031 30.6406 208.031 30.8125C208.031 30.9844 208.172 31.2656 208.344 31.4375C208.641 31.7344 208.859 31.75 214.125 31.75C219.391 31.75 219.609 31.7344 219.906 31.4375C220.078 31.2656 220.219 30.9844 220.219 30.8125C220.219 30.6406 220.078 30.3594 219.906 30.1875C219.609 29.8906 219.391 29.875 214.125 29.875C208.859 29.875 208.641 29.8906 208.344 30.1875Z" fill="black"/>
<path d="M208.344 30.1875C208.172 30.3594 208.031 30.6406 208.031 30.8125C208.031 30.9844 208.172 31.2656 208.344 31.4375C208.641 31.7344 208.859 31.75 214.125 31.75C219.391 31.75 219.609 31.7344 219.906 31.4375C220.078 31.2656 220.219 30.9844 220.219 30.8125C220.219 30.6406 220.078 30.3594 219.906 30.1875C219.609 29.8906 219.391 29.875 214.125 29.875C208.859 29.875 208.641 29.8906 208.344 30.1875Z" fill="#FF0000"/>
<path d="M205.688 35.9688C205.516 36.1406 205.375 36.4219 205.375 36.5938C205.375 36.7656 205.516 37.0469 205.688 37.2188C205.969 37.5 206.203 37.5312 208.078 37.5312C209.906 37.5312 210.203 37.5 210.422 37.25C210.766 36.875 210.75 36.2344 210.406 35.9219C210.172 35.7031 209.75 35.6562 208.062 35.6562C206.203 35.6562 205.969 35.6875 205.688 35.9688Z" fill="black"/>
<path d="M205.688 35.9688C205.516 36.1406 205.375 36.4219 205.375 36.5938C205.375 36.7656 205.516 37.0469 205.688 37.2188C205.969 37.5 206.203 37.5312 208.078 37.5312C209.906 37.5312 210.203 37.5 210.422 37.25C210.766 36.875 210.75 36.2344 210.406 35.9219C210.172 35.7031 209.75 35.6562 208.062 35.6562C206.203 35.6562 205.969 35.6875 205.688 35.9688Z" fill="#FF0000"/>
<path d="M212.906 35.9062C212.688 36.0625 212.562 36.3125 212.562 36.5938C212.562 37.4531 212.891 37.5312 216.422 37.5312C219.391 37.5312 219.609 37.5156 219.906 37.2188C220.078 37.0469 220.219 36.7656 220.219 36.5938C220.219 36.4219 220.078 36.1406 219.906 35.9688C219.609 35.6719 219.391 35.6562 216.422 35.6562C213.812 35.6562 213.203 35.7031 212.906 35.9062Z" fill="black"/>
<path d="M212.906 35.9062C212.688 36.0625 212.562 36.3125 212.562 36.5938C212.562 37.4531 212.891 37.5312 216.422 37.5312C219.391 37.5312 219.609 37.5156 219.906 37.2188C220.078 37.0469 220.219 36.7656 220.219 36.5938C220.219 36.4219 220.078 36.1406 219.906 35.9688C219.609 35.6719 219.391 35.6562 216.422 35.6562C213.812 35.6562 213.203 35.7031 212.906 35.9062Z" fill="#FF0000"/>
<path d="M186.344 42.625C185.906 42.9219 185.891 43.5156 186.313 43.9375C186.578 44.2031 186.828 44.25 188.266 44.25C189.703 44.25 189.953 44.2031 190.219 43.9375C190.391 43.7656 190.531 43.4844 190.531 43.3125C190.531 43.1406 190.391 42.8594 190.219 42.6875C189.953 42.4219 189.703 42.375 188.297 42.375C187.094 42.375 186.61 42.4375 186.344 42.625Z" fill="black"/>
<path d="M186.344 42.625C185.906 42.9219 185.891 43.5156 186.313 43.9375C186.578 44.2031 186.828 44.25 188.266 44.25C189.703 44.25 189.953 44.2031 190.219 43.9375C190.391 43.7656 190.531 43.4844 190.531 43.3125C190.531 43.1406 190.391 42.8594 190.219 42.6875C189.953 42.4219 189.703 42.375 188.297 42.375C187.094 42.375 186.61 42.4375 186.344 42.625Z" fill="#FF0000"/>
<path d="M192.516 42.6562C192.172 43.0312 192.188 43.6718 192.531 43.9843C192.922 44.3437 194.547 44.3437 195.031 44C195.5 43.6875 195.5 42.9375 195.031 42.625C194.516 42.2656 192.844 42.2812 192.516 42.6562Z" fill="black"/>
<path d="M192.516 42.6562C192.172 43.0312 192.188 43.6718 192.531 43.9843C192.922 44.3437 194.547 44.3437 195.031 44C195.5 43.6875 195.5 42.9375 195.031 42.625C194.516 42.2656 192.844 42.2812 192.516 42.6562Z" fill="#FF0000"/>
<path d="M197.594 42.625C197.125 42.9375 197.125 43.6875 197.594 44C197.906 44.2188 199.219 44.25 208.766 44.25C219.391 44.25 219.594 44.25 219.906 43.9375C220.078 43.7656 220.219 43.4844 220.219 43.3125C220.219 43.1406 220.078 42.8594 219.906 42.6875C219.594 42.375 219.391 42.375 208.766 42.375C199.219 42.375 197.906 42.4062 197.594 42.625Z" fill="black"/>
<path d="M197.594 42.625C197.125 42.9375 197.125 43.6875 197.594 44C197.906 44.2188 199.219 44.25 208.766 44.25C219.391 44.25 219.594 44.25 219.906 43.9375C220.078 43.7656 220.219 43.4844 220.219 43.3125C220.219 43.1406 220.078 42.8594 219.906 42.6875C219.594 42.375 219.391 42.375 208.766 42.375C199.219 42.375 197.906 42.4062 197.594 42.625Z" fill="#FF0000"/>
<path d="M207.797 47.7492C204.312 48.5461 201.625 50.8429 200.328 54.0929C198.375 59.0148 200.547 64.6867 205.297 67.0304C206.969 67.8742 207.922 68.0773 209.984 68.0617C211.594 68.0617 212.031 67.9992 213.047 67.6554C216.312 66.5148 218.578 64.2492 219.719 60.9836C220.078 59.9367 220.125 59.5461 220.125 57.8429C220.125 56.1398 220.078 55.7492 219.719 54.7023C218.234 50.4367 214.672 47.7492 210.297 47.5929C209.312 47.5617 208.39 47.6086 207.797 47.7492ZM212.719 49.9054C215.14 50.7961 216.89 52.5304 217.812 54.9992C219.922 60.5773 215.359 66.6398 209.344 66.2336C205.984 65.9992 203.172 63.8898 201.953 60.6554C201.453 59.3117 201.39 56.6711 201.844 55.3429C202.859 52.3429 205.219 50.2179 208.265 49.5461C209.359 49.3117 211.594 49.4992 212.719 49.9054Z" fill="black"/>
<path d="M207.797 47.7492C204.312 48.5461 201.625 50.8429 200.328 54.0929C198.375 59.0148 200.547 64.6867 205.297 67.0304C206.969 67.8742 207.922 68.0773 209.984 68.0617C211.594 68.0617 212.031 67.9992 213.047 67.6554C216.312 66.5148 218.578 64.2492 219.719 60.9836C220.078 59.9367 220.125 59.5461 220.125 57.8429C220.125 56.1398 220.078 55.7492 219.719 54.7023C218.234 50.4367 214.672 47.7492 210.297 47.5929C209.312 47.5617 208.39 47.6086 207.797 47.7492ZM212.719 49.9054C215.14 50.7961 216.89 52.5304 217.812 54.9992C219.922 60.5773 215.359 66.6398 209.344 66.2336C205.984 65.9992 203.172 63.8898 201.953 60.6554C201.453 59.3117 201.39 56.6711 201.844 55.3429C202.859 52.3429 205.219 50.2179 208.265 49.5461C209.359 49.3117 211.594 49.4992 212.719 49.9054Z" fill="#FF0000"/>
<path d="M205.797 51.7186C205.453 52.0936 205.469 52.7342 205.812 53.0467C206.031 53.2498 206.406 53.3123 207.375 53.3123C208.062 53.3123 208.828 53.3905 209.078 53.4842C209.547 53.6561 210.219 54.2186 210.219 54.4373C210.219 54.5155 209.25 54.5623 208.078 54.5467C206.031 54.5155 205.937 54.5311 205.656 54.8748C205.297 55.3123 205.297 55.5311 205.672 55.9842C205.953 56.328 206.094 56.3592 208.094 56.4061C210.219 56.4686 210.234 56.4842 209.953 56.7811C209.422 57.3748 208.875 57.5311 207.406 57.5311C206.203 57.5311 205.953 57.578 205.687 57.8436C205.015 58.5155 205.047 58.5623 208.906 62.2811C211.062 64.3436 211.453 64.5623 211.984 63.9686C212.531 63.3748 212.328 62.9998 210.547 61.2186L208.828 59.4998L209.703 59.1561C210.719 58.7342 211.625 57.9061 212.015 57.0467C212.281 56.4686 212.328 56.4373 213.015 56.4373C213.828 56.4373 214 56.3436 214.265 55.8592C214.469 55.453 214.281 54.8123 213.89 54.6561C213.75 54.6092 213.328 54.5623 212.969 54.5623C212.328 54.5623 212.281 54.5311 212.047 53.9373L211.812 53.3123H212.812C213.875 53.3123 214.437 52.9998 214.437 52.4061C214.422 51.5311 213.969 51.4373 209.781 51.4373C206.359 51.4373 206.031 51.4686 205.797 51.7186Z" fill="black"/>
<path d="M205.797 51.7186C205.453 52.0936 205.469 52.7342 205.812 53.0467C206.031 53.2498 206.406 53.3123 207.375 53.3123C208.062 53.3123 208.828 53.3905 209.078 53.4842C209.547 53.6561 210.219 54.2186 210.219 54.4373C210.219 54.5155 209.25 54.5623 208.078 54.5467C206.031 54.5155 205.937 54.5311 205.656 54.8748C205.297 55.3123 205.297 55.5311 205.672 55.9842C205.953 56.328 206.094 56.3592 208.094 56.4061C210.219 56.4686 210.234 56.4842 209.953 56.7811C209.422 57.3748 208.875 57.5311 207.406 57.5311C206.203 57.5311 205.953 57.578 205.687 57.8436C205.015 58.5155 205.047 58.5623 208.906 62.2811C211.062 64.3436 211.453 64.5623 211.984 63.9686C212.531 63.3748 212.328 62.9998 210.547 61.2186L208.828 59.4998L209.703 59.1561C210.719 58.7342 211.625 57.9061 212.015 57.0467C212.281 56.4686 212.328 56.4373 213.015 56.4373C213.828 56.4373 214 56.3436 214.265 55.8592C214.469 55.453 214.281 54.8123 213.89 54.6561C213.75 54.6092 213.328 54.5623 212.969 54.5623C212.328 54.5623 212.281 54.5311 212.047 53.9373L211.812 53.3123H212.812C213.875 53.3123 214.437 52.9998 214.437 52.4061C214.422 51.5311 213.969 51.4373 209.781 51.4373C206.359 51.4373 206.031 51.4686 205.797 51.7186Z" fill="#FF0000"/>
<path d="M186.312 49.4062C186.141 49.5781 186 49.8594 186 50.0312C186 50.625 186.547 50.9688 187.484 50.9688C188.422 50.9688 188.969 50.625 188.969 50.0312C188.969 49.4375 188.422 49.0938 187.484 49.0938C186.828 49.0938 186.547 49.1719 186.312 49.4062Z" fill="black"/>
<path d="M186.312 49.4062C186.141 49.5781 186 49.8594 186 50.0312C186 50.625 186.547 50.9688 187.484 50.9688C188.422 50.9688 188.969 50.625 188.969 50.0312C188.969 49.4375 188.422 49.0938 187.484 49.0938C186.828 49.0938 186.547 49.1719 186.312 49.4062Z" fill="#FF0000"/>
<path d="M190.953 49.375C190.61 49.75 190.625 50.3906 190.969 50.7031C191.219 50.9375 191.766 50.9688 195.5 50.9688C199.547 50.9688 199.766 50.9531 200.063 50.6562C200.235 50.4844 200.375 50.2031 200.375 50.0312C200.375 49.8594 200.235 49.5781 200.063 49.4062C199.766 49.1094 199.547 49.0938 195.485 49.0938C191.531 49.0938 191.188 49.1094 190.953 49.375Z" fill="black"/>
<path d="M190.953 49.375C190.61 49.75 190.625 50.3906 190.969 50.7031C191.219 50.9375 191.766 50.9688 195.5 50.9688C199.547 50.9688 199.766 50.9531 200.063 50.6562C200.235 50.4844 200.375 50.2031 200.375 50.0312C200.375 49.8594 200.235 49.5781 200.063 49.4062C199.766 49.1094 199.547 49.0938 195.485 49.0938C191.531 49.0938 191.188 49.1094 190.953 49.375Z" fill="#FF0000"/>
<path d="M186.312 54.0938C186.141 54.2656 186 54.5469 186 54.7188C186 54.8906 186.141 55.1719 186.312 55.3438C186.609 55.6406 186.828 55.6562 191.625 55.6562C196.422 55.6562 196.641 55.6406 196.938 55.3438C197.109 55.1719 197.25 54.8906 197.25 54.7188C197.25 54.5469 197.109 54.2656 196.938 54.0938C196.641 53.7969 196.422 53.7812 191.625 53.7812C186.828 53.7812 186.609 53.7969 186.312 54.0938Z" fill="black"/>
<path d="M186.312 54.0938C186.141 54.2656 186 54.5469 186 54.7188C186 54.8906 186.141 55.1719 186.312 55.3438C186.609 55.6406 186.828 55.6562 191.625 55.6562C196.422 55.6562 196.641 55.6406 196.938 55.3438C197.109 55.1719 197.25 54.8906 197.25 54.7188C197.25 54.5469 197.109 54.2656 196.938 54.0938C196.641 53.7969 196.422 53.7812 191.625 53.7812C186.828 53.7812 186.609 53.7969 186.312 54.0938Z" fill="#FF0000"/>
<path d="M186.312 60.3438C186.141 60.5156 186 60.7969 186 60.9688C186 61.1406 186.141 61.4219 186.312 61.5938C186.594 61.875 186.828 61.9062 189.172 61.9062C191.453 61.9062 191.766 61.875 191.984 61.625C192.328 61.25 192.312 60.6094 191.969 60.2969C191.719 60.0781 191.281 60.0312 189.156 60.0312C186.828 60.0312 186.594 60.0625 186.312 60.3438Z" fill="black"/>
<path d="M186.312 60.3438C186.141 60.5156 186 60.7969 186 60.9688C186 61.1406 186.141 61.4219 186.312 61.5938C186.594 61.875 186.828 61.9062 189.172 61.9062C191.453 61.9062 191.766 61.875 191.984 61.625C192.328 61.25 192.312 60.6094 191.969 60.2969C191.719 60.0781 191.281 60.0312 189.156 60.0312C186.828 60.0312 186.594 60.0625 186.312 60.3438Z" fill="#FF0000"/>
<path d="M194.125 60.3438C193.953 60.5156 193.812 60.7969 193.812 60.9688C193.812 61.6094 194.344 61.9062 195.531 61.9062C196.719 61.9062 197.25 61.6094 197.25 60.9688C197.25 60.3281 196.719 60.0312 195.531 60.0312C194.641 60.0312 194.375 60.0938 194.125 60.3438Z" fill="black"/>
<path d="M194.125 60.3438C193.953 60.5156 193.812 60.7969 193.812 60.9688C193.812 61.6094 194.344 61.9062 195.531 61.9062C196.719 61.9062 197.25 61.6094 197.25 60.9688C197.25 60.3281 196.719 60.0312 195.531 60.0312C194.641 60.0312 194.375 60.0938 194.125 60.3438Z" fill="#FF0000"/>
<path d="M186.312 66.5938C186.141 66.7656 186 67.0469 186 67.2188C186 67.3906 186.141 67.6719 186.312 67.8438C186.609 68.1406 186.828 68.1562 190.844 68.1562C194.859 68.1562 195.078 68.1406 195.375 67.8438C195.547 67.6719 195.688 67.3906 195.688 67.2188C195.688 67.0469 195.547 66.7656 195.375 66.5938C195.078 66.2969 194.859 66.2812 190.844 66.2812C186.828 66.2812 186.609 66.2969 186.312 66.5938Z" fill="black"/>
<path d="M186.312 66.5938C186.141 66.7656 186 67.0469 186 67.2188C186 67.3906 186.141 67.6719 186.312 67.8438C186.609 68.1406 186.828 68.1562 190.844 68.1562C194.859 68.1562 195.078 68.1406 195.375 67.8438C195.547 67.6719 195.688 67.3906 195.688 67.2188C195.688 67.0469 195.547 66.7656 195.375 66.5938C195.078 66.2969 194.859 66.2812 190.844 66.2812C186.828 66.2812 186.609 66.2969 186.312 66.5938Z" fill="#FF0000"/>
<path d="M197.203 66.5618C196.86 66.9368 196.875 67.5774 197.219 67.8899C197.672 68.2962 199.641 68.2649 200.063 67.8431C200.235 67.6712 200.375 67.3899 200.375 67.2181C200.375 67.0462 200.235 66.7649 200.063 66.5931C199.625 66.1556 197.594 66.1399 197.203 66.5618Z" fill="black"/>
<path d="M197.203 66.5618C196.86 66.9368 196.875 67.5774 197.219 67.8899C197.672 68.2962 199.641 68.2649 200.063 67.8431C200.235 67.6712 200.375 67.3899 200.375 67.2181C200.375 67.0462 200.235 66.7649 200.063 66.5931C199.625 66.1556 197.594 66.1399 197.203 66.5618Z" fill="#FF0000"/>
<path d="M307.878 107L304.398 96.5H306.423L309.528 105.995H308.523L311.748 96.5H313.548L316.683 105.995H315.708L318.888 96.5H320.748L317.268 107H315.198L312.333 98.435H312.873L309.963 107H307.878ZM325.156 107.105C324.336 107.105 323.606 106.93 322.966 106.58C322.326 106.22 321.821 105.73 321.451 105.11C321.081 104.49 320.896 103.785 320.896 102.995C320.896 102.195 321.081 101.49 321.451 100.88C321.821 100.26 322.326 99.775 322.966 99.425C323.606 99.075 324.336 98.9 325.156 98.9C325.986 98.9 326.721 99.075 327.361 99.425C328.011 99.775 328.516 100.255 328.876 100.865C329.246 101.475 329.431 102.185 329.431 102.995C329.431 103.785 329.246 104.49 328.876 105.11C328.516 105.73 328.011 106.22 327.361 106.58C326.721 106.93 325.986 107.105 325.156 107.105ZM325.156 105.5C325.616 105.5 326.026 105.4 326.386 105.2C326.746 105 327.026 104.71 327.226 104.33C327.436 103.95 327.541 103.505 327.541 102.995C327.541 102.475 327.436 102.03 327.226 101.66C327.026 101.28 326.746 100.99 326.386 100.79C326.026 100.59 325.621 100.49 325.171 100.49C324.711 100.49 324.301 100.59 323.941 100.79C323.591 100.99 323.311 101.28 323.101 101.66C322.891 102.03 322.786 102.475 322.786 102.995C322.786 103.505 322.891 103.95 323.101 104.33C323.311 104.71 323.591 105 323.941 105.2C324.301 105.4 324.706 105.5 325.156 105.5ZM331.224 107V98.99H333.009V101.195L332.799 100.55C333.039 100.01 333.414 99.6 333.924 99.32C334.444 99.04 335.089 98.9 335.859 98.9V100.685C335.779 100.665 335.704 100.655 335.634 100.655C335.564 100.645 335.494 100.64 335.424 100.64C334.714 100.64 334.149 100.85 333.729 101.27C333.309 101.68 333.099 102.295 333.099 103.115V107H331.224ZM338.979 105.215L339.024 102.86L343.209 98.99H345.459L341.904 102.56L340.914 103.385L338.979 105.215ZM337.449 107V95.87H339.324V107H337.449ZM343.494 107L340.569 103.385L341.754 101.885L345.774 107H343.494ZM353.096 101.33H358.331V102.98H353.096V101.33ZM353.261 107H351.311V96.5H358.976V98.135H353.261V107ZM360.682 107V95.87H362.557V107H360.682ZM368.783 107.105C367.893 107.105 367.113 106.93 366.443 106.58C365.783 106.22 365.268 105.73 364.898 105.11C364.538 104.49 364.358 103.785 364.358 102.995C364.358 102.195 364.533 101.49 364.883 100.88C365.243 100.26 365.733 99.775 366.353 99.425C366.983 99.075 367.698 98.9 368.498 98.9C369.278 98.9 369.973 99.07 370.583 99.41C371.193 99.75 371.673 100.23 372.023 100.85C372.373 101.47 372.548 102.2 372.548 103.04C372.548 103.12 372.543 103.21 372.533 103.31C372.533 103.41 372.528 103.505 372.518 103.595H365.843V102.35H371.528L370.793 102.74C370.803 102.28 370.708 101.875 370.508 101.525C370.308 101.175 370.033 100.9 369.683 100.7C369.343 100.5 368.948 100.4 368.498 100.4C368.038 100.4 367.633 100.5 367.283 100.7C366.943 100.9 366.673 101.18 366.473 101.54C366.283 101.89 366.188 102.305 366.188 102.785V103.085C366.188 103.565 366.298 103.99 366.518 104.36C366.738 104.73 367.048 105.015 367.448 105.215C367.848 105.415 368.308 105.515 368.828 105.515C369.278 105.515 369.683 105.445 370.043 105.305C370.403 105.165 370.723 104.945 371.003 104.645L372.008 105.8C371.648 106.22 371.193 106.545 370.643 106.775C370.103 106.995 369.483 107.105 368.783 107.105ZM373.034 107L376.559 102.41L376.529 103.415L373.169 98.99H375.254L377.609 102.14H376.814L379.184 98.99H381.209L377.819 103.415L377.834 102.41L381.344 107H379.229L376.754 103.655L377.534 103.76L375.104 107H373.034ZM382.728 107V98.99H384.603V107H382.728ZM383.673 97.67C383.323 97.67 383.033 97.56 382.803 97.34C382.583 97.12 382.473 96.855 382.473 96.545C382.473 96.225 382.583 95.96 382.803 95.75C383.033 95.53 383.323 95.42 383.673 95.42C384.023 95.42 384.308 95.525 384.528 95.735C384.758 95.935 384.873 96.19 384.873 96.5C384.873 96.83 384.763 97.11 384.543 97.34C384.323 97.56 384.033 97.67 383.673 97.67ZM391.503 107.105C390.823 107.105 390.218 106.955 389.688 106.655C389.158 106.355 388.738 105.905 388.428 105.305C388.128 104.695 387.978 103.925 387.978 102.995C387.978 102.055 388.133 101.285 388.443 100.685C388.763 100.085 389.188 99.64 389.718 99.35C390.258 99.05 390.853 98.9 391.503 98.9C392.293 98.9 392.988 99.07 393.588 99.41C394.198 99.75 394.678 100.225 395.028 100.835C395.388 101.445 395.568 102.165 395.568 102.995C395.568 103.825 395.388 104.545 395.028 105.155C394.678 105.765 394.198 106.245 393.588 106.595C392.988 106.935 392.293 107.105 391.503 107.105ZM387.063 107V95.87H388.938V100.85L388.788 102.98L388.848 105.11V107H387.063ZM391.293 105.5C391.743 105.5 392.143 105.4 392.493 105.2C392.853 105 393.138 104.71 393.348 104.33C393.558 103.95 393.663 103.505 393.663 102.995C393.663 102.475 393.558 102.03 393.348 101.66C393.138 101.28 392.853 100.99 392.493 100.79C392.143 100.59 391.743 100.49 391.293 100.49C390.843 100.49 390.438 100.59 390.078 100.79C389.718 100.99 389.433 101.28 389.223 101.66C389.013 102.03 388.908 102.475 388.908 102.995C388.908 103.505 389.013 103.95 389.223 104.33C389.433 104.71 389.718 105 390.078 105.2C390.438 105.4 390.843 105.5 391.293 105.5ZM397.347 107V98.99H399.222V107H397.347ZM398.292 97.67C397.942 97.67 397.652 97.56 397.422 97.34C397.202 97.12 397.092 96.855 397.092 96.545C397.092 96.225 397.202 95.96 397.422 95.75C397.652 95.53 397.942 95.42 398.292 95.42C398.642 95.42 398.927 95.525 399.147 95.735C399.377 95.935 399.492 96.19 399.492 96.5C399.492 96.83 399.382 97.11 399.162 97.34C398.942 97.56 398.652 97.67 398.292 97.67ZM401.683 107V95.87H403.558V107H401.683ZM406.019 107V98.99H407.894V107H406.019ZM406.964 97.67C406.614 97.67 406.324 97.56 406.094 97.34C405.874 97.12 405.764 96.855 405.764 96.545C405.764 96.225 405.874 95.96 406.094 95.75C406.324 95.53 406.614 95.42 406.964 95.42C407.314 95.42 407.599 95.525 407.819 95.735C408.049 95.935 408.164 96.19 408.164 96.5C408.164 96.83 408.054 97.11 407.834 97.34C407.614 97.56 407.324 97.67 406.964 97.67ZM413.37 107.105C412.49 107.105 411.81 106.88 411.33 106.43C410.85 105.97 410.61 105.295 410.61 104.405V97.22H412.485V104.36C412.485 104.74 412.58 105.035 412.77 105.245C412.97 105.455 413.245 105.56 413.595 105.56C414.015 105.56 414.365 105.45 414.645 105.23L415.17 106.565C414.95 106.745 414.68 106.88 414.36 106.97C414.04 107.06 413.71 107.105 413.37 107.105ZM409.29 100.55V99.05H414.63V100.55H409.29ZM417.225 110.015C416.835 110.015 416.445 109.95 416.055 109.82C415.665 109.69 415.34 109.51 415.08 109.28L415.83 107.9C416.02 108.07 416.235 108.205 416.475 108.305C416.715 108.405 416.96 108.455 417.21 108.455C417.55 108.455 417.825 108.37 418.035 108.2C418.245 108.03 418.44 107.745 418.62 107.345L419.085 106.295L419.235 106.07L422.265 98.99H424.065L420.315 107.645C420.065 108.245 419.785 108.72 419.475 109.07C419.175 109.42 418.835 109.665 418.455 109.805C418.085 109.945 417.675 110.015 417.225 110.015ZM418.875 107.285L415.26 98.99H417.21L420.15 105.905L418.875 107.285Z" fill="black"/>
<rect x="325.5" y="4.5" width="77" height="77" stroke="#FF0000" stroke-width="3"/>
<path d="M356.344 9.26562C356.125 9.35938 355.781 9.57812 355.594 9.76562C354.75 10.5469 354.781 10.2031 354.781 20.8594V30.7656L355.141 31.2969C355.328 31.5781 355.735 31.9844 356.016 32.1719L356.547 32.5312H365.297H374.047L374.703 32.1406C376 31.3906 375.953 31.8281 376 21.1562C376.031 14.9062 375.985 11.5312 375.875 11.125C375.672 10.3594 375.031 9.57812 374.36 9.3125C373.953 9.14062 372.188 9.09375 365.297 9.10938C360 9.10938 356.578 9.17188 356.344 9.26562ZM373.844 11.4219C374.094 11.9062 374.063 29.8906 373.813 30.2344C373.625 30.4844 372.969 30.5 365.25 30.4688L356.891 30.4219L356.844 20.9688C356.828 15.7656 356.844 11.4219 356.891 11.3125C356.938 11.1719 358.781 11.125 365.313 11.125C373.422 11.125 373.688 11.1406 373.844 11.4219Z" fill="black"/>
<path d="M356.344 9.26562C356.125 9.35938 355.781 9.57812 355.594 9.76562C354.75 10.5469 354.781 10.2031 354.781 20.8594V30.7656L355.141 31.2969C355.328 31.5781 355.735 31.9844 356.016 32.1719L356.547 32.5312H365.297H374.047L374.703 32.1406C376 31.3906 375.953 31.8281 376 21.1562C376.031 14.9062 375.985 11.5312 375.875 11.125C375.672 10.3594 375.031 9.57812 374.36 9.3125C373.953 9.14062 372.188 9.09375 365.297 9.10938C360 9.10938 356.578 9.17188 356.344 9.26562ZM373.844 11.4219C374.094 11.9062 374.063 29.8906 373.813 30.2344C373.625 30.4844 372.969 30.5 365.25 30.4688L356.891 30.4219L356.844 20.9688C356.828 15.7656 356.844 11.4219 356.891 11.3125C356.938 11.1719 358.781 11.125 365.313 11.125C373.422 11.125 373.688 11.1406 373.844 11.4219Z" fill="#FF0000"/>
<path d="M363.188 12.2184C363.047 12.3121 362.469 12.9371 361.891 13.6246L360.844 14.8746L360.406 14.5621C359.953 14.2496 359.375 14.1559 359.063 14.3746C358.719 14.5934 358.531 15.1559 358.672 15.5309C358.844 15.9528 360.203 17.2809 360.594 17.4215C361.11 17.609 361.5 17.2965 363.063 15.4215C364.313 13.9215 364.625 13.4528 364.625 13.0465C364.625 12.2809 363.844 11.8434 363.188 12.2184Z" fill="black"/>
<path d="M363.188 12.2184C363.047 12.3121 362.469 12.9371 361.891 13.6246L360.844 14.8746L360.406 14.5621C359.953 14.2496 359.375 14.1559 359.063 14.3746C358.719 14.5934 358.531 15.1559 358.672 15.5309C358.844 15.9528 360.203 17.2809 360.594 17.4215C361.11 17.609 361.5 17.2965 363.063 15.4215C364.313 13.9215 364.625 13.4528 364.625 13.0465C364.625 12.2809 363.844 11.8434 363.188 12.2184Z" fill="#FF0000"/>
<path d="M366.61 14.9998C366.188 15.4529 366.266 16.2029 366.766 16.5935C367.172 16.906 367.344 16.9216 369.672 16.8747C372.063 16.8279 372.172 16.8122 372.453 16.4529C372.828 15.9841 372.828 15.6404 372.422 15.1248L372.11 14.7185H369.485C367.141 14.7185 366.828 14.7498 366.61 14.9998Z" fill="#FF0000"/>
<path d="M362.953 17.7796C362.844 17.8264 362.266 18.4514 361.656 19.1858L360.547 20.4983L360.141 20.1858C359.344 19.5608 358.375 19.9514 358.375 20.9046C358.375 21.2639 358.578 21.5608 359.203 22.1702C360.125 23.0764 360.484 23.2327 361 22.9514C361.188 22.8577 362.016 21.9514 362.828 20.9671C364.031 19.5296 364.312 19.0764 364.312 18.6702C364.312 17.9671 363.625 17.5139 362.953 17.7796Z" fill="black"/>
<path d="M362.953 17.7796C362.844 17.8264 362.266 18.4514 361.656 19.1858L360.547 20.4983L360.141 20.1858C359.344 19.5608 358.375 19.9514 358.375 20.9046C358.375 21.2639 358.578 21.5608 359.203 22.1702C360.125 23.0764 360.484 23.2327 361 22.9514C361.188 22.8577 362.016 21.9514 362.828 20.9671C364.031 19.5296 364.312 19.0764 364.312 18.6702C364.312 17.9671 363.625 17.5139 362.953 17.7796Z" fill="#FF0000"/>
<path d="M367.125 19.3593C366.344 19.6405 366.063 20.6718 366.625 21.1718C367.047 21.5468 371.969 21.5624 372.344 21.1874C372.938 20.6093 372.766 19.6874 372.031 19.4061C371.625 19.2499 367.531 19.2186 367.125 19.3593Z" fill="black"/>
<path d="M367.125 19.3593C366.344 19.6405 366.063 20.6718 366.625 21.1718C367.047 21.5468 371.969 21.5624 372.344 21.1874C372.938 20.6093 372.766 19.6874 372.031 19.4061C371.625 19.2499 367.531 19.2186 367.125 19.3593Z" fill="#FF0000"/>
<path d="M362.391 23.6556C362.094 23.9368 360.5 25.8118 360.297 26.1087C360.281 26.14 360.078 26.015 359.844 25.8275C359.047 25.2025 358.062 25.5618 358.062 26.4993C358.062 27.015 359.438 28.5462 360.047 28.7025C360.594 28.8275 360.828 28.64 362.516 26.5931C363.719 25.1556 364 24.7025 364 24.2962C364 23.9525 363.891 23.7181 363.656 23.5618C363.172 23.2181 362.828 23.2493 362.391 23.6556Z" fill="#FF0000"/>
<path d="M367.125 24.9844C366.344 25.2656 366.063 26.2969 366.625 26.7969C366.875 27.0156 367.313 27.0625 369.484 27.0625C370.891 27.0625 372.125 27 372.219 26.9375C372.922 26.4687 372.813 25.4219 372.031 25.0937C371.516 24.875 367.656 24.7969 367.125 24.9844Z" fill="black"/>
<path d="M367.125 24.9844C366.344 25.2656 366.063 26.2969 366.625 26.7969C366.875 27.0156 367.313 27.0625 369.484 27.0625C370.891 27.0625 372.125 27 372.219 26.9375C372.922 26.4687 372.813 25.4219 372.031 25.0937C371.516 24.875 367.656 24.7969 367.125 24.9844Z" fill="#FF0000"/>
<path d="M349.469 21.389C347.25 23.0765 343.984 26.6546 342.969 28.5452C342.64 29.1702 342.765 29.8265 343.297 30.0608C343.984 30.3733 344.359 30.1077 345.328 28.6702C346.484 26.9671 348.781 24.5608 350.687 23.0452C351.89 22.0765 352.125 21.8108 352.125 21.4515C352.125 21.2171 352 20.9046 351.844 20.764C351.312 20.2796 350.719 20.4515 349.469 21.389Z" fill="black"/>
<path d="M349.469 21.389C347.25 23.0765 343.984 26.6546 342.969 28.5452C342.64 29.1702 342.765 29.8265 343.297 30.0608C343.984 30.3733 344.359 30.1077 345.328 28.6702C346.484 26.9671 348.781 24.5608 350.687 23.0452C351.89 22.0765 352.125 21.8108 352.125 21.4515C352.125 21.2171 352 20.9046 351.844 20.764C351.312 20.2796 350.719 20.4515 349.469 21.389Z" fill="#FF0000"/>
<path d="M379.688 20.8906C379.344 21.4219 379.5 21.9375 380.203 22.4531C382.672 24.2969 384.734 26.4219 386.375 28.7969C387.281 30.1094 387.359 30.1875 387.922 30.1875C388.422 30.1875 388.844 29.75 388.844 29.2344C388.844 28.4531 386.469 25.3125 384.375 23.3125C381.594 20.6562 380.281 19.9844 379.688 20.8906Z" fill="black"/>
<path d="M379.688 20.8906C379.344 21.4219 379.5 21.9375 380.203 22.4531C382.672 24.2969 384.734 26.4219 386.375 28.7969C387.281 30.1094 387.359 30.1875 387.922 30.1875C388.422 30.1875 388.844 29.75 388.844 29.2344C388.844 28.4531 386.469 25.3125 384.375 23.3125C381.594 20.6562 380.281 19.9844 379.688 20.8906Z" fill="#FF0000"/>
<path d="M336.5 30.6719C331.547 31.9531 328.219 36.2187 328.219 41.2812C328.219 44.3125 329.281 46.8906 331.422 49.0156C333.547 51.1562 336.125 52.2188 339.156 52.2188C344.047 52.2188 348.172 49.1406 349.656 44.4062C349.953 43.4375 350.016 42.8906 350.016 41.2812C350.016 39.5469 349.969 39.1719 349.562 37.9375C348.578 34.9219 346.188 32.3281 343.328 31.1719C341.188 30.2969 338.625 30.1094 336.5 30.6719ZM341.141 32.6094C345.141 33.5469 348.047 37.2031 348.062 41.2969C348.062 42.625 347.578 44.5156 346.938 45.6406C346.156 47.0312 344.453 48.6406 343.062 49.2969C341.656 49.9531 340.625 50.1875 339.047 50.1875C336.703 50.1875 334.531 49.2812 332.844 47.5937C329.453 44.1875 329.344 38.8125 332.594 35.2812C333.938 33.8281 335.812 32.7812 337.594 32.4844C338.484 32.3281 340.234 32.3906 341.141 32.6094Z" fill="black"/>
<path d="M336.5 30.6719C331.547 31.9531 328.219 36.2187 328.219 41.2812C328.219 44.3125 329.281 46.8906 331.422 49.0156C333.547 51.1562 336.125 52.2188 339.156 52.2188C344.047 52.2188 348.172 49.1406 349.656 44.4062C349.953 43.4375 350.016 42.8906 350.016 41.2812C350.016 39.5469 349.969 39.1719 349.562 37.9375C348.578 34.9219 346.188 32.3281 343.328 31.1719C341.188 30.2969 338.625 30.1094 336.5 30.6719ZM341.141 32.6094C345.141 33.5469 348.047 37.2031 348.062 41.2969C348.062 42.625 347.578 44.5156 346.938 45.6406C346.156 47.0312 344.453 48.6406 343.062 49.2969C341.656 49.9531 340.625 50.1875 339.047 50.1875C336.703 50.1875 334.531 49.2812 332.844 47.5937C329.453 44.1875 329.344 38.8125 332.594 35.2812C333.938 33.8281 335.812 32.7812 337.594 32.4844C338.484 32.3281 340.234 32.3906 341.141 32.6094Z" fill="#FF0000"/>
<path d="M338.391 33.4045C337.844 34.092 337.985 35.9045 338.594 36.3108C338.906 36.5295 339.578 36.4358 339.828 36.1545C340.031 35.9358 340.094 35.5608 340.094 34.6702C340.094 33.6233 340.047 33.4514 339.75 33.2483C339.235 32.8889 338.75 32.9514 338.391 33.4045Z" fill="black"/>
<path d="M338.391 33.4045C337.844 34.092 337.985 35.9045 338.594 36.3108C338.906 36.5295 339.578 36.4358 339.828 36.1545C340.031 35.9358 340.094 35.5608 340.094 34.6702C340.094 33.6233 340.047 33.4514 339.75 33.2483C339.235 32.8889 338.75 32.9514 338.391 33.4045Z" fill="#FF0000"/>
<path d="M340.734 38.2188C338.547 40.3906 338.172 40.8438 338.172 41.25C338.172 41.5938 338.453 42.0781 339.281 43.125C340.406 44.5156 340.641 44.7188 341.188 44.7188C341.5 44.7188 342.125 44.0312 342.125 43.6875C342.125 43.5781 341.766 43.0156 341.328 42.4531L340.531 41.4062L342.656 39.25C344.922 36.9531 345.109 36.6094 344.469 35.9688C343.797 35.2969 343.484 35.4844 340.734 38.2188Z" fill="black"/>
<path d="M340.734 38.2188C338.547 40.3906 338.172 40.8438 338.172 41.25C338.172 41.5938 338.453 42.0781 339.281 43.125C340.406 44.5156 340.641 44.7188 341.188 44.7188C341.5 44.7188 342.125 44.0312 342.125 43.6875C342.125 43.5781 341.766 43.0156 341.328 42.4531L340.531 41.4062L342.656 39.25C344.922 36.9531 345.109 36.6094 344.469 35.9688C343.797 35.2969 343.484 35.4844 340.734 38.2188Z" fill="#FF0000"/>
<path d="M331.141 40.625C330.859 40.9219 330.797 41.5469 331 41.8438C331.219 42.1875 331.813 42.375 332.641 42.375C334.031 42.375 334.703 41.5938 334.063 40.6875C333.859 40.375 333.688 40.3438 332.609 40.3438C331.625 40.3438 331.344 40.4062 331.141 40.625Z" fill="black"/>
<path d="M331.141 40.625C330.859 40.9219 330.797 41.5469 331 41.8438C331.219 42.1875 331.813 42.375 332.641 42.375C334.031 42.375 334.703 41.5938 334.063 40.6875C333.859 40.375 333.688 40.3438 332.609 40.3438C331.625 40.3438 331.344 40.4062 331.141 40.625Z" fill="#FF0000"/>
<path d="M344.266 40.6244C343.938 40.9838 343.922 41.6557 344.25 41.9682C344.594 42.3119 345.141 42.4213 346.047 42.3432C347.281 42.2182 347.766 41.5151 347.188 40.6869C346.985 40.3744 346.813 40.3432 345.735 40.3432C344.75 40.3432 344.469 40.4057 344.266 40.6244Z" fill="black"/>
<path d="M344.266 40.6244C343.938 40.9838 343.922 41.6557 344.25 41.9682C344.594 42.3119 345.141 42.4213 346.047 42.3432C347.281 42.2182 347.766 41.5151 347.188 40.6869C346.985 40.3744 346.813 40.3432 345.735 40.3432C344.75 40.3432 344.469 40.4057 344.266 40.6244Z" fill="#FF0000"/>
<path d="M338.391 46.5295C337.844 47.217 337.985 49.0295 338.594 49.4358C338.906 49.6545 339.578 49.5608 339.828 49.2795C340.031 49.0608 340.094 48.6858 340.094 47.7952C340.094 46.7483 340.047 46.5764 339.75 46.3733C339.235 46.0139 338.75 46.0764 338.391 46.5295Z" fill="black"/>
<path d="M338.391 46.5295C337.844 47.217 337.985 49.0295 338.594 49.4358C338.906 49.6545 339.578 49.5608 339.828 49.2795C340.031 49.0608 340.094 48.6858 340.094 47.7952C340.094 46.7483 340.047 46.5764 339.75 46.3733C339.235 46.0139 338.75 46.0764 338.391 46.5295Z" fill="#FF0000"/>
<path d="M386.422 32.6716C385.547 33.2029 385.344 33.5623 385.281 34.7185L385.219 35.781L383.219 35.8435C381.047 35.8904 380.75 35.9998 380.031 36.9685C379.719 37.3748 379.703 37.6248 379.656 42.8904C379.625 48.3435 379.625 48.3904 379.969 48.9998C380.688 50.2341 380.359 50.1873 389.781 50.1873C397.844 50.1873 398.156 50.1716 398.656 49.8748C398.938 49.7029 399.297 49.3435 399.469 49.0623C399.766 48.5779 399.781 48.2654 399.781 43.0154C399.781 37.7341 399.766 37.4685 399.469 36.9685C398.922 36.0935 398.078 35.8123 396.063 35.8123H394.313V35.0623C394.313 34.0623 393.781 33.031 393.063 32.656C392.594 32.4216 392.125 32.3748 389.703 32.3748C387.234 32.3748 386.828 32.406 386.422 32.6716ZM392.25 35.1404L392.297 35.8123H389.797H387.281V35.1091V34.3904L389.75 34.4373L392.203 34.4841L392.25 35.1404ZM397.047 37.9841C396.953 38.0623 395.531 38.8435 393.859 39.7185L390.844 41.3123L390.5 40.9841C390.031 40.5466 389.25 40.5466 388.938 40.9998C388.75 41.2498 388.625 41.2966 388.406 41.1873C387.031 40.4998 382.281 37.9685 382.281 37.906C382.281 37.8748 385.641 37.8435 389.734 37.8435C394.156 37.8435 397.125 37.906 397.047 37.9841ZM385.25 41.8123C388.25 43.406 388.609 43.6404 388.719 44.0466C388.781 44.3123 388.953 44.6091 389.078 44.7185C389.641 45.1873 390.719 44.7185 390.719 43.9998C390.719 43.7029 391.234 43.3904 394.156 41.8435C396.047 40.8435 397.641 40.031 397.672 40.031C397.719 40.031 397.75 41.8591 397.75 44.0935V48.156L389.75 48.1248L381.734 48.0779L381.688 44.0466C381.672 41.8435 381.703 40.031 381.766 40.031C381.844 40.031 383.406 40.8435 385.25 41.8123Z" fill="black"/>
<path d="M386.422 32.6716C385.547 33.2029 385.344 33.5623 385.281 34.7185L385.219 35.781L383.219 35.8435C381.047 35.8904 380.75 35.9998 380.031 36.9685C379.719 37.3748 379.703 37.6248 379.656 42.8904C379.625 48.3435 379.625 48.3904 379.969 48.9998C380.688 50.2341 380.359 50.1873 389.781 50.1873C397.844 50.1873 398.156 50.1716 398.656 49.8748C398.938 49.7029 399.297 49.3435 399.469 49.0623C399.766 48.5779 399.781 48.2654 399.781 43.0154C399.781 37.7341 399.766 37.4685 399.469 36.9685C398.922 36.0935 398.078 35.8123 396.063 35.8123H394.313V35.0623C394.313 34.0623 393.781 33.031 393.063 32.656C392.594 32.4216 392.125 32.3748 389.703 32.3748C387.234 32.3748 386.828 32.406 386.422 32.6716ZM392.25 35.1404L392.297 35.8123H389.797H387.281V35.1091V34.3904L389.75 34.4373L392.203 34.4841L392.25 35.1404ZM397.047 37.9841C396.953 38.0623 395.531 38.8435 393.859 39.7185L390.844 41.3123L390.5 40.9841C390.031 40.5466 389.25 40.5466 388.938 40.9998C388.75 41.2498 388.625 41.2966 388.406 41.1873C387.031 40.4998 382.281 37.9685 382.281 37.906C382.281 37.8748 385.641 37.8435 389.734 37.8435C394.156 37.8435 397.125 37.906 397.047 37.9841ZM385.25 41.8123C388.25 43.406 388.609 43.6404 388.719 44.0466C388.781 44.3123 388.953 44.6091 389.078 44.7185C389.641 45.1873 390.719 44.7185 390.719 43.9998C390.719 43.7029 391.234 43.3904 394.156 41.8435C396.047 40.8435 397.641 40.031 397.672 40.031C397.719 40.031 397.75 41.8591 397.75 44.0935V48.156L389.75 48.1248L381.734 48.0779L381.688 44.0466C381.672 41.8435 381.703 40.031 381.766 40.031C381.844 40.031 383.406 40.8435 385.25 41.8123Z" fill="#FF0000"/>
<path d="M364.109 48.2954C362.656 48.7798 361.469 49.8267 360.75 51.2798C360.391 52.0298 360.328 52.3267 360.328 53.5454C360.328 54.8267 360.375 55.0611 360.844 55.9986C361.406 57.1548 362.344 58.0923 363.5 58.6548C364.594 59.1704 366.594 59.2329 367.781 58.7798C368.969 58.3423 370.266 57.1548 370.828 55.9986C371.219 55.2173 371.266 54.9361 371.266 53.6236C371.266 52.3423 371.203 52.0142 370.844 51.2486C369.672 48.7329 366.703 47.4361 364.109 48.2954ZM366.984 50.2642C369.703 51.2329 370.141 54.9517 367.719 56.5454C367.141 56.9361 366.922 56.9829 365.797 56.9829C364.672 56.9829 364.453 56.9361 363.875 56.5611C362.016 55.3267 361.766 52.7173 363.359 51.1236C364.422 50.0767 365.625 49.7954 366.984 50.2642Z" fill="black"/>
<path d="M364.109 48.2954C362.656 48.7798 361.469 49.8267 360.75 51.2798C360.391 52.0298 360.328 52.3267 360.328 53.5454C360.328 54.8267 360.375 55.0611 360.844 55.9986C361.406 57.1548 362.344 58.0923 363.5 58.6548C364.594 59.1704 366.594 59.2329 367.781 58.7798C368.969 58.3423 370.266 57.1548 370.828 55.9986C371.219 55.2173 371.266 54.9361 371.266 53.6236C371.266 52.3423 371.203 52.0142 370.844 51.2486C369.672 48.7329 366.703 47.4361 364.109 48.2954ZM366.984 50.2642C369.703 51.2329 370.141 54.9517 367.719 56.5454C367.141 56.9361 366.922 56.9829 365.797 56.9829C364.672 56.9829 364.453 56.9361 363.875 56.5611C362.016 55.3267 361.766 52.7173 363.359 51.1236C364.422 50.0767 365.625 49.7954 366.984 50.2642Z" fill="#FF0000"/>
<path d="M351.969 50.6398C351.312 50.8585 350.656 51.2335 350.297 51.6241C349.469 52.5148 349.234 54.1241 349.766 55.2648C349.937 55.6085 351.734 57.8898 353.766 60.3429C355.797 62.796 357.609 65.0773 357.797 65.421C358.125 66.0148 358.141 66.296 358.219 70.5773C358.312 75.6241 358.281 75.5304 359.422 76.3898L359.984 76.8273L365.391 76.8741C368.359 76.9054 371.031 76.8741 371.312 76.8273C371.844 76.7335 372.781 75.9991 373.109 75.4366C373.234 75.2179 373.328 73.7335 373.375 70.6554C373.453 66.421 373.469 66.171 373.812 65.4991C374 65.1085 375.812 62.796 377.844 60.3429C379.875 57.8898 381.672 55.6241 381.828 55.3116C382.234 54.5304 382.219 53.171 381.812 52.3898C381.187 51.1554 379.562 50.3116 378.344 50.5773C377.172 50.8429 376.766 51.2179 372.891 55.6866C370.75 58.1554 368.766 60.3585 368.5 60.5773C367.312 61.5773 365.484 61.7804 363.969 61.0929C363.187 60.7335 362.703 60.2335 359 55.9835C356.172 52.7491 354.703 51.171 354.281 50.9523C353.594 50.5929 352.531 50.4523 351.969 50.6398ZM353.312 52.7335C353.5 52.8429 355.141 54.6398 356.969 56.7491C361.125 61.546 361.859 62.296 362.828 62.796C363.266 63.0148 363.625 63.2179 363.656 63.2335C363.687 63.2648 363.391 64.8273 363 66.7335C362.609 68.6241 362.328 70.2804 362.375 70.421C362.562 70.9054 365.422 73.3116 365.812 73.3116C366.156 73.3116 367.984 71.8429 368.984 70.7491L369.359 70.3429L368.703 67.0616C368.328 65.2648 368 63.6554 367.953 63.4835C367.891 63.2491 368 63.1554 368.406 63.0148C369.344 62.7023 370.516 61.5616 374.234 57.2491C376.266 54.9054 378.094 52.8898 378.297 52.7491C379.094 52.2335 380.094 52.8585 380.094 53.8898C380.094 54.4523 380.094 54.4366 375.344 60.1866C373.75 62.1241 372.266 64.046 372.047 64.4835C371.453 65.6866 371.344 66.6398 371.344 70.7179C371.344 73.4523 371.297 74.546 371.156 74.6866C370.875 74.9679 360.891 74.9523 360.516 74.671C360.297 74.5148 360.266 73.9523 360.219 70.1085L360.172 65.7335L359.687 64.7179C359.344 64.0148 358.016 62.2648 355.344 59.046C352.078 55.0773 351.5 54.3116 351.5 53.8741C351.5 52.8741 352.484 52.2491 353.312 52.7335ZM366.578 66.796L367.187 69.7491L366.562 70.2804C366.234 70.5616 365.875 70.796 365.797 70.8116C365.703 70.8116 365.359 70.546 365.047 70.2179L364.469 69.6241L365.016 66.9679C365.734 63.4679 365.719 63.5616 365.859 63.7179C365.922 63.796 366.25 65.1866 366.578 66.796Z" fill="black"/>
<path d="M351.969 50.6398C351.312 50.8585 350.656 51.2335 350.297 51.6241C349.469 52.5148 349.234 54.1241 349.766 55.2648C349.937 55.6085 351.734 57.8898 353.766 60.3429C355.797 62.796 357.609 65.0773 357.797 65.421C358.125 66.0148 358.141 66.296 358.219 70.5773C358.312 75.6241 358.281 75.5304 359.422 76.3898L359.984 76.8273L365.391 76.8741C368.359 76.9054 371.031 76.8741 371.312 76.8273C371.844 76.7335 372.781 75.9991 373.109 75.4366C373.234 75.2179 373.328 73.7335 373.375 70.6554C373.453 66.421 373.469 66.171 373.812 65.4991C374 65.1085 375.812 62.796 377.844 60.3429C379.875 57.8898 381.672 55.6241 381.828 55.3116C382.234 54.5304 382.219 53.171 381.812 52.3898C381.187 51.1554 379.562 50.3116 378.344 50.5773C377.172 50.8429 376.766 51.2179 372.891 55.6866C370.75 58.1554 368.766 60.3585 368.5 60.5773C367.312 61.5773 365.484 61.7804 363.969 61.0929C363.187 60.7335 362.703 60.2335 359 55.9835C356.172 52.7491 354.703 51.171 354.281 50.9523C353.594 50.5929 352.531 50.4523 351.969 50.6398ZM353.312 52.7335C353.5 52.8429 355.141 54.6398 356.969 56.7491C361.125 61.546 361.859 62.296 362.828 62.796C363.266 63.0148 363.625 63.2179 363.656 63.2335C363.687 63.2648 363.391 64.8273 363 66.7335C362.609 68.6241 362.328 70.2804 362.375 70.421C362.562 70.9054 365.422 73.3116 365.812 73.3116C366.156 73.3116 367.984 71.8429 368.984 70.7491L369.359 70.3429L368.703 67.0616C368.328 65.2648 368 63.6554 367.953 63.4835C367.891 63.2491 368 63.1554 368.406 63.0148C369.344 62.7023 370.516 61.5616 374.234 57.2491C376.266 54.9054 378.094 52.8898 378.297 52.7491C379.094 52.2335 380.094 52.8585 380.094 53.8898C380.094 54.4523 380.094 54.4366 375.344 60.1866C373.75 62.1241 372.266 64.046 372.047 64.4835C371.453 65.6866 371.344 66.6398 371.344 70.7179C371.344 73.4523 371.297 74.546 371.156 74.6866C370.875 74.9679 360.891 74.9523 360.516 74.671C360.297 74.5148 360.266 73.9523 360.219 70.1085L360.172 65.7335L359.687 64.7179C359.344 64.0148 358.016 62.2648 355.344 59.046C352.078 55.0773 351.5 54.3116 351.5 53.8741C351.5 52.8741 352.484 52.2491 353.312 52.7335ZM366.578 66.796L367.187 69.7491L366.562 70.2804C366.234 70.5616 365.875 70.796 365.797 70.8116C365.703 70.8116 365.359 70.546 365.047 70.2179L364.469 69.6241L365.016 66.9679C365.734 63.4679 365.719 63.5616 365.859 63.7179C365.922 63.796 366.25 65.1866 366.578 66.796Z" fill="#FF0000"/>
<path d="M459.324 107V96.5H461.274V105.35H466.764V107H459.324ZM471.65 107.105C470.83 107.105 470.1 106.93 469.46 106.58C468.82 106.22 468.315 105.73 467.945 105.11C467.575 104.49 467.39 103.785 467.39 102.995C467.39 102.195 467.575 101.49 467.945 100.88C468.315 100.26 468.82 99.775 469.46 99.425C470.1 99.075 470.83 98.9 471.65 98.9C472.48 98.9 473.215 99.075 473.855 99.425C474.505 99.775 475.01 100.255 475.37 100.865C475.74 101.475 475.925 102.185 475.925 102.995C475.925 103.785 475.74 104.49 475.37 105.11C475.01 105.73 474.505 106.22 473.855 106.58C473.215 106.93 472.48 107.105 471.65 107.105ZM471.65 105.5C472.11 105.5 472.52 105.4 472.88 105.2C473.24 105 473.52 104.71 473.72 104.33C473.93 103.95 474.035 103.505 474.035 102.995C474.035 102.475 473.93 102.03 473.72 101.66C473.52 101.28 473.24 100.99 472.88 100.79C472.52 100.59 472.115 100.49 471.665 100.49C471.205 100.49 470.795 100.59 470.435 100.79C470.085 100.99 469.805 101.28 469.595 101.66C469.385 102.03 469.28 102.475 469.28 102.995C469.28 103.505 469.385 103.95 469.595 104.33C469.805 104.71 470.085 105 470.435 105.2C470.795 105.4 471.2 105.5 471.65 105.5ZM479.268 107L476.328 98.99H478.098L480.618 106.055H479.778L482.418 98.99H483.993L486.558 106.055H485.733L488.328 98.99H489.993L487.038 107H485.238L482.898 100.745H483.453L481.068 107H479.268ZM500.468 107.15C499.668 107.15 498.923 107.02 498.233 106.76C497.553 106.49 496.958 106.115 496.448 105.635C495.948 105.145 495.558 104.57 495.278 103.91C494.998 103.25 494.858 102.53 494.858 101.75C494.858 100.97 494.998 100.25 495.278 99.59C495.558 98.93 495.953 98.36 496.463 97.88C496.973 97.39 497.568 97.015 498.248 96.755C498.928 96.485 499.673 96.35 500.483 96.35C501.343 96.35 502.128 96.5 502.838 96.8C503.548 97.09 504.148 97.525 504.638 98.105L503.378 99.29C502.998 98.88 502.573 98.575 502.103 98.375C501.633 98.165 501.123 98.06 500.573 98.06C500.023 98.06 499.518 98.15 499.058 98.33C498.608 98.51 498.213 98.765 497.873 99.095C497.543 99.425 497.283 99.815 497.093 100.265C496.913 100.715 496.823 101.21 496.823 101.75C496.823 102.29 496.913 102.785 497.093 103.235C497.283 103.685 497.543 104.075 497.873 104.405C498.213 104.735 498.608 104.99 499.058 105.17C499.518 105.35 500.023 105.44 500.573 105.44C501.123 105.44 501.633 105.34 502.103 105.14C502.573 104.93 502.998 104.615 503.378 104.195L504.638 105.395C504.148 105.965 503.548 106.4 502.838 106.7C502.128 107 501.338 107.15 500.468 107.15ZM509.619 107.105C508.799 107.105 508.069 106.93 507.429 106.58C506.789 106.22 506.284 105.73 505.914 105.11C505.544 104.49 505.359 103.785 505.359 102.995C505.359 102.195 505.544 101.49 505.914 100.88C506.284 100.26 506.789 99.775 507.429 99.425C508.069 99.075 508.799 98.9 509.619 98.9C510.449 98.9 511.184 99.075 511.824 99.425C512.474 99.775 512.979 100.255 513.339 100.865C513.709 101.475 513.894 102.185 513.894 102.995C513.894 103.785 513.709 104.49 513.339 105.11C512.979 105.73 512.474 106.22 511.824 106.58C511.184 106.93 510.449 107.105 509.619 107.105ZM509.619 105.5C510.079 105.5 510.489 105.4 510.849 105.2C511.209 105 511.489 104.71 511.689 104.33C511.899 103.95 512.004 103.505 512.004 102.995C512.004 102.475 511.899 102.03 511.689 101.66C511.489 101.28 511.209 100.99 510.849 100.79C510.489 100.59 510.084 100.49 509.634 100.49C509.174 100.49 508.764 100.59 508.404 100.79C508.054 100.99 507.774 101.28 507.564 101.66C507.354 102.03 507.249 102.475 507.249 102.995C507.249 103.505 507.354 103.95 507.564 104.33C507.774 104.71 508.054 105 508.404 105.2C508.764 105.4 509.169 105.5 509.619 105.5ZM525.797 98.9C526.437 98.9 527.002 99.025 527.492 99.275C527.992 99.525 528.382 99.91 528.662 100.43C528.942 100.94 529.082 101.6 529.082 102.41V107H527.207V102.65C527.207 101.94 527.052 101.41 526.742 101.06C526.432 100.71 525.987 100.535 525.407 100.535C524.997 100.535 524.632 100.625 524.312 100.805C524.002 100.985 523.757 101.25 523.577 101.6C523.407 101.95 523.322 102.395 523.322 102.935V107H521.447V102.65C521.447 101.94 521.292 101.41 520.982 101.06C520.672 100.71 520.227 100.535 519.647 100.535C519.237 100.535 518.872 100.625 518.552 100.805C518.242 100.985 517.997 101.25 517.817 101.6C517.647 101.95 517.562 102.395 517.562 102.935V107H515.687V98.99H517.472V101.12L517.157 100.49C517.427 99.97 517.817 99.575 518.327 99.305C518.847 99.035 519.437 98.9 520.097 98.9C520.847 98.9 521.497 99.085 522.047 99.455C522.607 99.825 522.977 100.385 523.157 101.135L522.422 100.88C522.682 100.28 523.112 99.8 523.712 99.44C524.312 99.08 525.007 98.9 525.797 98.9ZM541.588 98.9C542.228 98.9 542.793 99.025 543.283 99.275C543.783 99.525 544.173 99.91 544.453 100.43C544.733 100.94 544.873 101.6 544.873 102.41V107H542.998V102.65C542.998 101.94 542.843 101.41 542.533 101.06C542.223 100.71 541.778 100.535 541.198 100.535C540.788 100.535 540.423 100.625 540.103 100.805C539.793 100.985 539.548 101.25 539.368 101.6C539.198 101.95 539.113 102.395 539.113 102.935V107H537.238V102.65C537.238 101.94 537.083 101.41 536.773 101.06C536.463 100.71 536.018 100.535 535.438 100.535C535.028 100.535 534.663 100.625 534.343 100.805C534.033 100.985 533.788 101.25 533.608 101.6C533.438 101.95 533.353 102.395 533.353 102.935V107H531.478V98.99H533.263V101.12L532.948 100.49C533.218 99.97 533.608 99.575 534.118 99.305C534.638 99.035 535.228 98.9 535.888 98.9C536.638 98.9 537.288 99.085 537.838 99.455C538.398 99.825 538.768 100.385 538.948 101.135L538.213 100.88C538.473 100.28 538.903 99.8 539.503 99.44C540.103 99.08 540.798 98.9 541.588 98.9ZM547.269 107V98.99H549.144V107H547.269ZM548.214 97.67C547.864 97.67 547.574 97.56 547.344 97.34C547.124 97.12 547.014 96.855 547.014 96.545C547.014 96.225 547.124 95.96 547.344 95.75C547.574 95.53 547.864 95.42 548.214 95.42C548.564 95.42 548.849 95.525 549.069 95.735C549.299 95.935 549.414 96.19 549.414 96.5C549.414 96.83 549.304 97.11 549.084 97.34C548.864 97.56 548.574 97.67 548.214 97.67ZM554.08 107.105C553.41 107.105 552.765 107.02 552.145 106.85C551.535 106.67 551.05 106.455 550.69 106.205L551.41 104.78C551.77 105.01 552.2 105.2 552.7 105.35C553.2 105.5 553.7 105.575 554.2 105.575C554.79 105.575 555.215 105.495 555.475 105.335C555.745 105.175 555.88 104.96 555.88 104.69C555.88 104.47 555.79 104.305 555.61 104.195C555.43 104.075 555.195 103.985 554.905 103.925C554.615 103.865 554.29 103.81 553.93 103.76C553.58 103.71 553.225 103.645 552.865 103.565C552.515 103.475 552.195 103.35 551.905 103.19C551.615 103.02 551.38 102.795 551.2 102.515C551.02 102.235 550.93 101.865 550.93 101.405C550.93 100.895 551.075 100.455 551.365 100.085C551.655 99.705 552.06 99.415 552.58 99.215C553.11 99.005 553.735 98.9 554.455 98.9C554.995 98.9 555.54 98.96 556.09 99.08C556.64 99.2 557.095 99.37 557.455 99.59L556.735 101.015C556.355 100.785 555.97 100.63 555.58 100.55C555.2 100.46 554.82 100.415 554.44 100.415C553.87 100.415 553.445 100.5 553.165 100.67C552.895 100.84 552.76 101.055 552.76 101.315C552.76 101.555 552.85 101.735 553.03 101.855C553.21 101.975 553.445 102.07 553.735 102.14C554.025 102.21 554.345 102.27 554.695 102.32C555.055 102.36 555.41 102.425 555.76 102.515C556.11 102.605 556.43 102.73 556.72 102.89C557.02 103.04 557.26 103.255 557.44 103.535C557.62 103.815 557.71 104.18 557.71 104.63C557.71 105.13 557.56 105.565 557.26 105.935C556.97 106.305 556.555 106.595 556.015 106.805C555.475 107.005 554.83 107.105 554.08 107.105ZM561.799 107.105C561.129 107.105 560.484 107.02 559.864 106.85C559.254 106.67 558.769 106.455 558.409 106.205L559.129 104.78C559.489 105.01 559.919 105.2 560.419 105.35C560.919 105.5 561.419 105.575 561.919 105.575C562.509 105.575 562.934 105.495 563.194 105.335C563.464 105.175 563.599 104.96 563.599 104.69C563.599 104.47 563.509 104.305 563.329 104.195C563.149 104.075 562.914 103.985 562.624 103.925C562.334 103.865 562.009 103.81 561.649 103.76C561.299 103.71 560.944 103.645 560.584 103.565C560.234 103.475 559.914 103.35 559.624 103.19C559.334 103.02 559.099 102.795 558.919 102.515C558.739 102.235 558.649 101.865 558.649 101.405C558.649 100.895 558.794 100.455 559.084 100.085C559.374 99.705 559.779 99.415 560.299 99.215C560.829 99.005 561.454 98.9 562.174 98.9C562.714 98.9 563.259 98.96 563.809 99.08C564.359 99.2 564.814 99.37 565.174 99.59L564.454 101.015C564.074 100.785 563.689 100.63 563.299 100.55C562.919 100.46 562.539 100.415 562.159 100.415C561.589 100.415 561.164 100.5 560.884 100.67C560.614 100.84 560.479 101.055 560.479 101.315C560.479 101.555 560.569 101.735 560.749 101.855C560.929 101.975 561.164 102.07 561.454 102.14C561.744 102.21 562.064 102.27 562.414 102.32C562.774 102.36 563.129 102.425 563.479 102.515C563.829 102.605 564.149 102.73 564.439 102.89C564.739 103.04 564.979 103.255 565.159 103.535C565.339 103.815 565.429 104.18 565.429 104.63C565.429 105.13 565.279 105.565 564.979 105.935C564.689 106.305 564.274 106.595 563.734 106.805C563.194 107.005 562.549 107.105 561.799 107.105ZM567.044 107V98.99H568.919V107H567.044ZM567.989 97.67C567.639 97.67 567.349 97.56 567.119 97.34C566.899 97.12 566.789 96.855 566.789 96.545C566.789 96.225 566.899 95.96 567.119 95.75C567.349 95.53 567.639 95.42 567.989 95.42C568.339 95.42 568.624 95.525 568.844 95.735C569.074 95.935 569.189 96.19 569.189 96.5C569.189 96.83 569.079 97.11 568.859 97.34C568.639 97.56 568.349 97.67 567.989 97.67ZM574.98 107.105C574.16 107.105 573.43 106.93 572.79 106.58C572.15 106.22 571.645 105.73 571.275 105.11C570.905 104.49 570.72 103.785 570.72 102.995C570.72 102.195 570.905 101.49 571.275 100.88C571.645 100.26 572.15 99.775 572.79 99.425C573.43 99.075 574.16 98.9 574.98 98.9C575.81 98.9 576.545 99.075 577.185 99.425C577.835 99.775 578.34 100.255 578.7 100.865C579.07 101.475 579.255 102.185 579.255 102.995C579.255 103.785 579.07 104.49 578.7 105.11C578.34 105.73 577.835 106.22 577.185 106.58C576.545 106.93 575.81 107.105 574.98 107.105ZM574.98 105.5C575.44 105.5 575.85 105.4 576.21 105.2C576.57 105 576.85 104.71 577.05 104.33C577.26 103.95 577.365 103.505 577.365 102.995C577.365 102.475 577.26 102.03 577.05 101.66C576.85 101.28 576.57 100.99 576.21 100.79C575.85 100.59 575.445 100.49 574.995 100.49C574.535 100.49 574.125 100.59 573.765 100.79C573.415 100.99 573.135 101.28 572.925 101.66C572.715 102.03 572.61 102.475 572.61 102.995C572.61 103.505 572.715 103.95 572.925 104.33C573.135 104.71 573.415 105 573.765 105.2C574.125 105.4 574.53 105.5 574.98 105.5ZM585.593 98.9C586.233 98.9 586.803 99.025 587.303 99.275C587.813 99.525 588.213 99.91 588.503 100.43C588.793 100.94 588.938 101.6 588.938 102.41V107H587.063V102.65C587.063 101.94 586.893 101.41 586.553 101.06C586.223 100.71 585.758 100.535 585.158 100.535C584.718 100.535 584.328 100.625 583.988 100.805C583.648 100.985 583.383 101.255 583.193 101.615C583.013 101.965 582.923 102.41 582.923 102.95V107H581.048V98.99H582.833V101.15L582.518 100.49C582.798 99.98 583.203 99.59 583.733 99.32C584.273 99.04 584.893 98.9 585.593 98.9Z" fill="black"/>
<rect x="482.5" y="1.5" width="83" height="83" stroke="#FF0000" stroke-width="3"/>
<path d="M506.469 3.26562C506.234 3.42188 505.984 3.64062 505.922 3.78125C505.844 3.90625 505.766 9.78125 505.719 16.8281L505.641 29.6406L501.953 29.7188C497.922 29.7969 497.891 29.8125 497.5 30.7656C497.328 31.1719 497.328 31.375 497.484 31.8438C497.656 32.375 498.531 33 510.016 40.6719C516.813 45.2188 522.734 49.125 523.188 49.375L524 49.7969L524.844 49.3594C525.313 49.1094 531.234 45.2031 538.016 40.6719C549.563 32.9531 550.344 32.4062 550.516 31.8438C550.672 31.375 550.672 31.1719 550.5 30.7656C550.109 29.8125 550.078 29.7969 546.047 29.7188L542.359 29.6406L542.281 16.8281C542.234 9.78125 542.141 3.89062 542.063 3.73438C541.703 2.98438 542.219 3 523.969 3C508.203 3.01562 506.859 3.03125 506.469 3.26562ZM539.031 19.1719L539.078 32.0625L539.516 32.4844C539.922 32.8906 540.047 32.9219 541.688 33L543.422 33.0781L533.734 39.5312L524.031 46L514.344 39.5312L504.656 33.0781L506.359 33C507.953 32.9219 508.078 32.8906 508.484 32.4844L508.922 32.0625L508.969 19.1719L509 6.28125H524H539L539.031 19.1719Z" fill="#FF0000"/>
<path d="M515.516 10.0317C513.875 10.6724 512.61 12.313 512.36 14.1099C512.156 15.4849 512.875 17.3599 513.938 18.3286C515.016 19.2817 516.625 19.8286 517.891 19.6411C520.406 19.2817 522.141 17.3755 522.25 14.8442C522.313 13.813 522.266 13.5317 521.906 12.7349C521.031 10.8442 519.328 9.71924 517.36 9.71924C516.672 9.73487 515.985 9.84424 515.516 10.0317ZM518.469 13.4849C519.25 14.2036 519.047 15.688 518.125 16.1099C516.61 16.7974 515.203 15.4067 515.891 13.8911C516.297 12.9849 517.703 12.7661 518.469 13.4849Z" fill="black"/>
<path d="M515.516 10.0317C513.875 10.6724 512.61 12.313 512.36 14.1099C512.156 15.4849 512.875 17.3599 513.938 18.3286C515.016 19.2817 516.625 19.8286 517.891 19.6411C520.406 19.2817 522.141 17.3755 522.25 14.8442C522.313 13.813 522.266 13.5317 521.906 12.7349C521.031 10.8442 519.328 9.71924 517.36 9.71924C516.672 9.73487 515.985 9.84424 515.516 10.0317ZM518.469 13.4849C519.25 14.2036 519.047 15.688 518.125 16.1099C516.61 16.7974 515.203 15.4067 515.891 13.8911C516.297 12.9849 517.703 12.7661 518.469 13.4849Z" fill="#FF0000"/>
<path d="M529.656 10.1248C529.453 10.2654 526.266 14.9216 522.547 20.4841C514.969 31.8279 515.188 31.406 516.235 32.4529C517.016 33.2341 517.735 33.2185 518.5 32.406C519.125 31.7654 531.906 12.5623 532.141 11.9373C532.5 10.9841 531.703 9.87477 530.641 9.87477C530.297 9.87477 529.844 9.98414 529.656 10.1248Z" fill="black"/>
<path d="M529.656 10.1248C529.453 10.2654 526.266 14.9216 522.547 20.4841C514.969 31.8279 515.188 31.406 516.235 32.4529C517.016 33.2341 517.735 33.2185 518.5 32.406C519.125 31.7654 531.906 12.5623 532.141 11.9373C532.5 10.9841 531.703 9.87477 530.641 9.87477C530.297 9.87477 529.844 9.98414 529.656 10.1248Z" fill="#FF0000"/>
<path d="M529.031 23.2807C528 23.6557 527.188 24.2964 526.547 25.2495C525.875 26.2339 525.672 27.062 525.75 28.3901C525.875 30.2026 526.86 31.687 528.5 32.4839C529.703 33.0776 531.469 33.0932 532.703 32.5464C534.735 31.6401 536 29.2495 535.563 27.1089C534.953 24.1089 531.828 22.2807 529.031 23.2807ZM531.25 26.4995C532.703 27.1089 532.61 29.062 531.125 29.562C530.125 29.8901 529 29.0464 529 27.9995C529 27.437 529.469 26.7339 529.985 26.5151C530.61 26.2339 530.625 26.2339 531.25 26.4995Z" fill="black"/>
<path d="M529.031 23.2807C528 23.6557 527.188 24.2964 526.547 25.2495C525.875 26.2339 525.672 27.062 525.75 28.3901C525.875 30.2026 526.86 31.687 528.5 32.4839C529.703 33.0776 531.469 33.0932 532.703 32.5464C534.735 31.6401 536 29.2495 535.563 27.1089C534.953 24.1089 531.828 22.2807 529.031 23.2807ZM531.25 26.4995C532.703 27.1089 532.61 29.062 531.125 29.562C530.125 29.8901 529 29.0464 529 27.9995C529 27.437 529.469 26.7339 529.985 26.5151C530.61 26.2339 530.625 26.2339 531.25 26.4995Z" fill="#FF0000"/>
<path d="M554.351 44.4422C552.557 44.8956 552.751 44.7236 543.673 53.7142C541.744 55.6374 540.128 57.201 540.084 57.201C540.039 57.201 539.829 56.8726 539.62 56.4661C538.842 54.9338 537.092 53.5579 535.417 53.1513C534.535 52.9324 516.064 52.9324 514.03 53.1357C510.785 53.4797 508.407 54.0895 506.149 55.184C505.446 55.5123 504.862 55.7938 504.832 55.7938C504.803 55.7938 504.773 55.0902 504.773 54.2302C504.773 52.3852 504.563 51.8223 503.8 51.4783C503.038 51.1499 487.364 51.1499 486.601 51.4783C485.569 51.9317 485.614 51.0405 485.659 67.3643L485.704 82.0619L486.123 82.4841L486.526 82.9219H495.201H503.875L504.279 82.4841C504.638 82.1088 504.698 81.9212 504.743 80.8892L504.803 79.7165H518.218C526.518 79.7165 532.112 79.654 532.89 79.5602C534.385 79.3726 535.447 79.0755 536.778 78.5126C539.276 77.4493 539.141 77.5588 550.433 65.8007C562.039 53.7142 561.725 54.0895 562.084 51.8223C562.293 50.4932 562.099 49.2267 561.441 47.8508C560.169 45.1302 557.208 43.7073 554.351 44.4422ZM557.387 48.0853C558.315 48.6326 558.808 49.5082 558.883 50.7121C558.943 51.5565 558.883 51.8067 558.539 52.479C558.255 53.0262 555.249 56.2629 548.175 63.6429C537.362 74.932 537.466 74.8225 534.909 75.7607L533.712 76.1985L519.235 76.2454L504.773 76.2923V67.9428V59.6089L505.939 58.9678C508.392 57.5919 511.204 56.7163 514.03 56.4192C515.915 56.2316 532.994 56.2159 534.43 56.4036C535.701 56.5756 536.3 57.029 536.868 58.2173C537.212 58.9522 537.257 59.218 537.182 59.9529C537.077 61.0161 536.569 61.8761 535.701 62.4703L535.073 62.9081L527.236 62.9862L519.399 63.0644L518.966 63.5804C518.368 64.284 518.368 65.1127 518.966 65.785L519.414 66.2854L527.535 66.2385L535.657 66.1916L536.659 65.6912C537.93 65.0658 538.992 64.0338 539.605 62.8455C539.994 62.0637 541.175 60.8129 546.933 55.0745C550.717 51.3063 553.992 48.1322 554.232 47.9915C555.264 47.4286 556.341 47.4443 557.387 48.0853ZM501.602 67.161L501.557 79.6384H495.201H488.845L488.8 67.161L488.77 54.6993H495.201H501.632L501.602 67.161Z" fill="black"/>
<path d="M554.351 44.4422C552.557 44.8956 552.751 44.7236 543.673 53.7142C541.744 55.6374 540.128 57.201 540.084 57.201C540.039 57.201 539.829 56.8726 539.62 56.4661C538.842 54.9338 537.092 53.5579 535.417 53.1513C534.535 52.9324 516.064 52.9324 514.03 53.1357C510.785 53.4797 508.407 54.0895 506.149 55.184C505.446 55.5123 504.862 55.7938 504.832 55.7938C504.803 55.7938 504.773 55.0902 504.773 54.2302C504.773 52.3852 504.563 51.8223 503.8 51.4783C503.038 51.1499 487.364 51.1499 486.601 51.4783C485.569 51.9317 485.614 51.0405 485.659 67.3643L485.704 82.0619L486.123 82.4841L486.526 82.9219H495.201H503.875L504.279 82.4841C504.638 82.1088 504.698 81.9212 504.743 80.8892L504.803 79.7165H518.218C526.518 79.7165 532.112 79.654 532.89 79.5602C534.385 79.3726 535.447 79.0755 536.778 78.5126C539.276 77.4493 539.141 77.5588 550.433 65.8007C562.039 53.7142 561.725 54.0895 562.084 51.8223C562.293 50.4932 562.099 49.2267 561.441 47.8508C560.169 45.1302 557.208 43.7073 554.351 44.4422ZM557.387 48.0853C558.315 48.6326 558.808 49.5082 558.883 50.7121C558.943 51.5565 558.883 51.8067 558.539 52.479C558.255 53.0262 555.249 56.2629 548.175 63.6429C537.362 74.932 537.466 74.8225 534.909 75.7607L533.712 76.1985L519.235 76.2454L504.773 76.2923V67.9428V59.6089L505.939 58.9678C508.392 57.5919 511.204 56.7163 514.03 56.4192C515.915 56.2316 532.994 56.2159 534.43 56.4036C535.701 56.5756 536.3 57.029 536.868 58.2173C537.212 58.9522 537.257 59.218 537.182 59.9529C537.077 61.0161 536.569 61.8761 535.701 62.4703L535.073 62.9081L527.236 62.9862L519.399 63.0644L518.966 63.5804C518.368 64.284 518.368 65.1127 518.966 65.785L519.414 66.2854L527.535 66.2385L535.657 66.1916L536.659 65.6912C537.93 65.0658 538.992 64.0338 539.605 62.8455C539.994 62.0637 541.175 60.8129 546.933 55.0745C550.717 51.3063 553.992 48.1322 554.232 47.9915C555.264 47.4286 556.341 47.4443 557.387 48.0853ZM501.602 67.161L501.557 79.6384H495.201H488.845L488.8 67.161L488.77 54.6993H495.201H501.632L501.602 67.161Z" fill="#FF0000"/>
</svg>
