<svg width="648" height="111" viewBox="0 0 648 111" fill="none" xmlns="http://www.w3.org/2000/svg">
<rect x="526.5" y="1.5" width="83" height="83" stroke="#FF2E2E" stroke-width="3"/>
<rect x="526.5" y="1.5" width="83" height="83" stroke="#FF0000" stroke-width="3"/>
<path d="M567.248 5.47631C566.78 5.64818 566.717 5.78881 566.545 6.96068C566.201 9.42943 564.389 11.2107 561.92 11.5076C560.608 11.6482 560.108 12.3357 560.748 13.1013C560.936 13.3513 561.295 13.4763 562.014 13.5857C564.561 13.9451 566.201 15.6013 566.561 18.1638C566.67 18.8513 566.795 19.2107 567.045 19.3982C567.811 20.0388 568.498 19.5388 568.639 18.2263C568.78 17.0544 569.233 16.0857 570.03 15.2107C570.858 14.3044 571.889 13.7888 573.201 13.6013C574.436 13.4294 574.686 13.2419 574.686 12.5701C574.686 11.8982 574.311 11.6169 573.264 11.4919C570.826 11.1951 568.936 9.28881 568.655 6.83568C568.53 5.69506 567.998 5.19506 567.248 5.47631ZM568.108 10.7107C568.405 11.1326 569.608 12.2419 569.967 12.4294C569.983 12.4294 569.451 13.0076 568.764 13.6951L567.53 14.9451L567.326 14.5701C567.092 14.1326 565.53 12.6482 565.295 12.6482C565.17 12.6482 567.483 10.2107 567.655 10.1638C567.701 10.1638 567.905 10.3982 568.108 10.7107Z" fill="black"/>
<path d="M567.248 5.47631C566.78 5.64818 566.717 5.78881 566.545 6.96068C566.201 9.42943 564.389 11.2107 561.92 11.5076C560.608 11.6482 560.108 12.3357 560.748 13.1013C560.936 13.3513 561.295 13.4763 562.014 13.5857C564.561 13.9451 566.201 15.6013 566.561 18.1638C566.67 18.8513 566.795 19.2107 567.045 19.3982C567.811 20.0388 568.498 19.5388 568.639 18.2263C568.78 17.0544 569.233 16.0857 570.03 15.2107C570.858 14.3044 571.889 13.7888 573.201 13.6013C574.436 13.4294 574.686 13.2419 574.686 12.5701C574.686 11.8982 574.311 11.6169 573.264 11.4919C570.826 11.1951 568.936 9.28881 568.655 6.83568C568.53 5.69506 567.998 5.19506 567.248 5.47631ZM568.108 10.7107C568.405 11.1326 569.608 12.2419 569.967 12.4294C569.983 12.4294 569.451 13.0076 568.764 13.6951L567.53 14.9451L567.326 14.5701C567.092 14.1326 565.53 12.6482 565.295 12.6482C565.17 12.6482 567.483 10.2107 567.655 10.1638C567.701 10.1638 567.905 10.3982 568.108 10.7107Z" fill="#FF0000"/>
<path d="M592.982 16.1944C592.732 16.3975 592.607 16.7569 592.482 17.5537C592.139 20.0225 590.514 21.6475 587.92 22.0694C586.967 22.2256 586.779 22.3194 586.561 22.6787C586.357 23.0694 586.357 23.1631 586.561 23.5381C586.764 23.8975 586.967 23.9756 587.889 24.1319C588.498 24.2412 589.342 24.5069 589.779 24.7256C591.076 25.3819 592.201 26.8506 592.404 28.1631C592.451 28.4756 592.529 28.9912 592.576 29.2881C592.701 30.0537 593.264 30.4131 593.904 30.1475C594.404 29.9444 594.451 29.835 594.607 28.6631C594.826 27.0225 595.92 25.3975 597.295 24.71C597.623 24.5381 598.311 24.3194 598.826 24.2256C599.342 24.1162 599.92 24.0069 600.107 23.9756C600.498 23.8819 600.795 23.1787 600.607 22.6944C600.482 22.3662 599.67 22.0225 598.967 22.0225C597.811 22.0225 595.998 20.7725 595.217 19.4287C594.998 19.0381 594.732 18.2256 594.607 17.5381C594.342 15.9756 593.795 15.5381 592.982 16.1944ZM594.529 21.8819C594.529 21.9287 594.842 22.1944 595.232 22.4912C595.623 22.7881 595.936 23.0537 595.936 23.1006C595.936 23.1475 595.639 23.3975 595.295 23.6631C594.951 23.9131 594.404 24.46 594.107 24.8662L593.545 25.6006L593.107 25.0069C592.873 24.6787 592.326 24.1006 591.904 23.7412L591.123 23.0694L591.701 22.6475C592.357 22.1631 593.436 20.96 593.436 20.71C593.436 20.5381 594.514 21.6944 594.529 21.8819Z" fill="#FF0000"/>
<path d="M541.061 16.9766C540.92 17.1328 540.764 17.6641 540.717 18.1484C540.498 19.9297 539.264 21.6797 537.732 22.3516C537.357 22.5078 536.623 22.7109 536.107 22.7734C535.029 22.9297 534.654 23.1953 534.654 23.8203C534.639 24.4453 535.029 24.7109 536.123 24.8672C538.607 25.1953 540.451 27.0703 540.732 29.5547C540.842 30.5234 541.123 30.9297 541.732 30.9297C542.311 30.9297 542.811 30.2891 542.811 29.5234C542.811 27.3359 544.967 25.1016 547.295 24.8828C548.295 24.7891 548.904 24.3828 548.904 23.8203C548.904 23.1953 548.545 22.9297 547.498 22.7734C545.029 22.4453 543.092 20.6797 542.857 18.5391C542.748 17.4922 542.67 17.2109 542.404 16.9609C542.076 16.6328 541.357 16.6484 541.061 16.9766ZM542.326 22.1016C542.592 22.4766 543.139 23.0234 543.514 23.2891C543.904 23.5703 544.217 23.8047 544.217 23.8203C544.217 23.8359 543.904 24.0703 543.514 24.3516C543.139 24.6172 542.592 25.1641 542.311 25.5547L541.811 26.2578L540.936 25.2734C540.436 24.7266 539.857 24.1953 539.639 24.0703L539.232 23.8516L540.014 23.2422C540.451 22.8984 540.982 22.3516 541.217 22.0234C541.451 21.6797 541.686 21.4141 541.732 21.3984C541.779 21.3984 542.045 21.7109 542.326 22.1016Z" fill="black"/>
<path d="M541.061 16.9766C540.92 17.1328 540.764 17.6641 540.717 18.1484C540.498 19.9297 539.264 21.6797 537.732 22.3516C537.357 22.5078 536.623 22.7109 536.107 22.7734C535.029 22.9297 534.654 23.1953 534.654 23.8203C534.639 24.4453 535.029 24.7109 536.123 24.8672C538.607 25.1953 540.451 27.0703 540.732 29.5547C540.842 30.5234 541.123 30.9297 541.732 30.9297C542.311 30.9297 542.811 30.2891 542.811 29.5234C542.811 27.3359 544.967 25.1016 547.295 24.8828C548.295 24.7891 548.904 24.3828 548.904 23.8203C548.904 23.1953 548.545 22.9297 547.498 22.7734C545.029 22.4453 543.092 20.6797 542.857 18.5391C542.748 17.4922 542.67 17.2109 542.404 16.9609C542.076 16.6328 541.357 16.6484 541.061 16.9766ZM542.326 22.1016C542.592 22.4766 543.139 23.0234 543.514 23.2891C543.904 23.5703 544.217 23.8047 544.217 23.8203C544.217 23.8359 543.904 24.0703 543.514 24.3516C543.139 24.6172 542.592 25.1641 542.311 25.5547L541.811 26.2578L540.936 25.2734C540.436 24.7266 539.857 24.1953 539.639 24.0703L539.232 23.8516L540.014 23.2422C540.451 22.8984 540.982 22.3516 541.217 22.0234C541.451 21.6797 541.686 21.4141 541.732 21.3984C541.779 21.3984 542.045 21.7109 542.326 22.1016Z" fill="#FF0000"/>
<path d="M562.842 27.1016L558.451 31.5547L554.217 30.5391C551.873 29.9766 549.811 29.5234 549.623 29.5234C549.17 29.5234 548.748 29.9922 548.748 30.4922C548.748 30.6953 549.389 33.1328 550.154 35.8984C550.936 38.6641 551.561 41.0078 551.561 41.1328C551.561 41.2578 551.404 41.4766 551.232 41.6484C550.639 42.1797 550.467 42.8516 550.467 44.6797C550.467 46.6797 550.717 47.3984 551.607 47.9453C552.139 48.2734 552.17 48.2734 567.654 48.2734C583.139 48.2734 583.17 48.2734 583.701 47.9453C584.592 47.3984 584.842 46.6797 584.842 44.6797C584.842 42.8516 584.67 42.1797 584.076 41.6484C583.904 41.4766 583.748 41.2578 583.748 41.1328C583.748 41.0078 584.389 38.6641 585.154 35.8984C585.936 33.1328 586.561 30.6797 586.561 30.4609C586.561 29.9766 586.123 29.5234 585.67 29.5234C585.482 29.5234 583.436 29.9766 581.092 30.5391L576.857 31.5547L572.467 27.1016C568.826 23.3984 568.014 22.6484 567.654 22.6484C567.295 22.6484 566.482 23.3984 562.842 27.1016ZM571.904 29.3672C575.467 32.9922 576.107 33.5859 576.498 33.5859C576.748 33.5859 578.561 33.1953 580.529 32.7266C582.498 32.2578 584.139 31.8828 584.154 31.9141C584.186 31.9453 584.076 32.4141 583.904 32.9609C583.748 33.5234 583.17 35.5391 582.639 37.4453L581.67 40.9297H567.654H553.639L552.67 37.4453C552.139 35.5391 551.561 33.5234 551.404 32.9609C551.232 32.4141 551.123 31.9453 551.154 31.9141C551.186 31.8828 552.811 32.2422 554.779 32.7266C556.748 33.1953 558.561 33.5859 558.811 33.5859C559.201 33.5859 559.857 32.9922 563.404 29.3672C565.67 27.0391 567.592 25.1484 567.654 25.1484C567.717 25.1484 569.639 27.0391 571.904 29.3672ZM582.779 44.5859C582.811 45.7266 582.764 46.1797 582.623 46.2734C582.389 46.4141 553.123 46.4453 552.748 46.3047C552.545 46.2266 552.498 45.9297 552.498 44.6953C552.498 43.8516 552.545 43.1172 552.607 43.0703C552.654 43.0078 559.467 42.9766 567.717 42.9922L582.732 43.0391L582.779 44.5859Z" fill="#FF0000"/>
<path d="M535.279 34.8516C534.561 35.0547 533.514 35.9609 533.139 36.6953C532.545 37.8828 532.545 37.8672 534.686 48.3203C535.795 53.7734 536.826 58.5078 536.967 58.8359C537.498 60.1016 538.264 60.8828 542.951 64.8359C547.701 68.8359 547.795 68.9141 547.951 69.6484C548.029 70.0547 548.061 70.4141 547.998 70.4766C547.936 70.5234 547.389 70.7109 546.779 70.8984C545.576 71.2734 545.264 71.5078 545.279 72.0703C545.279 72.6016 547.483 79.7266 547.733 79.9766C547.842 80.0859 548.108 80.1953 548.326 80.1953C548.904 80.1953 566.92 74.6797 567.233 74.3984C567.373 74.2734 567.498 73.9922 567.498 73.7891C567.498 73.2109 565.311 66.1953 565.014 65.8672C564.764 65.5859 564.092 65.5859 563.201 65.8516C562.92 65.9297 562.717 65.5234 561.186 61.8047C559.389 57.4297 558.889 56.5547 557.654 55.6484C556.592 54.8672 544.529 47.9766 543.904 47.8047C543.608 47.7266 543.17 47.6484 542.936 47.6484C542.576 47.6484 542.483 47.5547 542.358 47.0547C542.279 46.7422 541.654 44.3359 540.998 41.7266C539.654 36.4922 539.42 35.9297 538.217 35.2266C537.42 34.7578 536.186 34.6016 535.279 34.8516ZM537.092 36.8984C537.311 36.9922 537.592 37.2266 537.733 37.4297C537.858 37.6172 538.561 40.1953 539.295 43.1328C540.623 48.4297 540.639 48.4766 540.342 48.8047C539.717 49.4766 539.467 50.1953 539.467 51.3203C539.451 52.5078 539.779 53.3516 540.498 54.0078C541.108 54.5703 550.123 59.6797 550.498 59.6797C550.701 59.6797 550.936 59.6172 551.045 59.5547C551.326 59.3672 551.529 58.6953 551.404 58.3359C551.326 58.1328 549.608 57.0547 546.592 55.3359C544.014 53.8516 541.826 52.5391 541.717 52.4141C541.451 52.0859 541.358 51.0703 541.545 50.5859C541.748 50.0391 542.561 49.6172 543.186 49.7266C543.67 49.8047 555.529 56.5234 556.529 57.2891C556.811 57.4922 557.217 57.9297 557.42 58.2422C557.967 59.0703 560.983 66.4141 560.826 66.5547C560.639 66.7109 550.139 69.8828 550.061 69.8047C550.029 69.7578 549.936 69.3672 549.842 68.9141C549.764 68.4609 549.639 68.0078 549.576 67.8984C549.498 67.7891 547.186 65.7891 544.42 63.4453C539.967 59.6953 539.358 59.1172 538.998 58.3828C538.498 57.3516 534.623 38.6016 534.764 37.9297C534.983 36.9922 536.154 36.4609 537.092 36.8984ZM564.498 70.4141C564.936 71.8516 565.279 73.0391 565.264 73.0547C565.248 73.0703 561.623 74.1797 557.201 75.5234C551.826 77.1641 549.123 77.9141 549.061 77.8047C548.904 77.5547 547.467 72.7891 547.529 72.7422C547.561 72.7266 550.639 71.7734 554.373 70.6484C558.108 69.5078 561.701 68.4141 562.342 68.2109C562.983 67.9922 563.561 67.8203 563.608 67.8203C563.654 67.8047 564.061 68.9766 564.498 70.4141Z" fill="#FF0000"/>
<path d="M597.795 34.8984C596.936 35.1953 596.295 35.7266 595.873 36.4453C595.639 36.8516 595.029 38.9453 594.295 41.7891C593.639 44.3672 593.029 46.7422 592.951 47.0547C592.811 47.5859 592.748 47.6484 592.295 47.6484C592.014 47.6641 591.545 47.7578 591.248 47.8672C590.311 48.1953 577.967 55.3516 577.264 55.9609C576.248 56.8516 575.811 57.6797 574.045 61.9922C572.592 65.5391 572.389 65.9297 572.107 65.8516C571.217 65.5859 570.545 65.5859 570.295 65.8672C569.998 66.1953 567.811 73.2109 567.811 73.7891C567.811 73.9922 567.936 74.2734 568.092 74.3984C568.404 74.6641 586.42 80.1797 586.998 80.1797C587.201 80.1797 587.467 80.0859 587.576 79.9766C587.857 79.6953 589.998 72.6641 589.998 72.0391C589.998 71.4609 589.686 71.2266 588.357 70.8359C587.842 70.6797 587.373 70.5234 587.311 70.4766C587.248 70.4297 587.279 70.0547 587.357 69.6484C587.514 68.9453 587.623 68.8359 592.342 64.8516C597.029 60.8828 597.811 60.1172 598.342 58.8359C598.482 58.5078 599.514 53.7734 600.623 48.3203C602.139 40.9766 602.639 38.2422 602.561 37.8203C602.154 35.5859 599.842 34.1641 597.795 34.8984ZM599.967 37.1016C600.232 37.3203 600.482 37.6953 600.545 37.9453C600.686 38.6172 596.811 57.3359 596.311 58.3984C595.951 59.1328 595.357 59.6797 590.857 63.4766C585.639 67.8672 585.623 67.8672 585.389 69.2422C585.342 69.5703 585.248 69.8359 585.186 69.8359C584.982 69.8203 574.529 66.6016 574.436 66.5234C574.326 66.3984 577.436 58.9453 577.889 58.2422C578.092 57.9297 578.498 57.5078 578.779 57.2891C579.811 56.5078 591.654 49.8047 592.123 49.7266C592.748 49.6172 593.561 50.0391 593.764 50.5859C593.951 51.0703 593.857 52.0859 593.592 52.4141C593.482 52.5391 591.295 53.8516 588.717 55.3359C583.826 58.1484 583.545 58.3672 583.92 59.1016C584.154 59.5391 584.357 59.6797 584.811 59.6797C585.186 59.6797 594.201 54.5703 594.811 54.0078C596.154 52.7734 596.232 50.1797 594.967 48.8047C594.67 48.4766 594.686 48.4297 596.014 43.1172C596.748 40.1641 597.451 37.6172 597.576 37.4453C598.139 36.6328 599.232 36.4922 599.967 37.1016ZM579.842 70.3047C584.186 71.6328 587.748 72.7266 587.779 72.7422C587.842 72.7891 586.404 77.5547 586.264 77.7891C586.186 77.8984 583.232 77.0703 578.123 75.5234C573.701 74.1797 570.061 73.0703 570.045 73.0547C569.936 72.9609 571.654 67.8047 571.779 67.8516C571.873 67.8828 575.498 68.9922 579.842 70.3047Z" fill="#FF0000"/>
<rect x="182.5" y="1.5" width="83" height="83" stroke="#FF0000" stroke-width="3"/>
<path d="M234.625 3.09376C229.594 3.71875 225.391 5.76563 221.891 9.3125C218.781 12.4531 217 15.7969 216.078 20.1875C215.703 22.0313 215.703 26.1563 216.078 28C216.953 32.1875 218.734 35.6094 221.562 38.5938C224.656 41.8281 228.344 43.875 232.797 44.8281C234.609 45.2187 239.031 45.2187 240.875 44.8281C245.234 43.8906 248.891 41.875 251.938 38.7188C254.891 35.6406 256.719 32.1719 257.547 28.0313C257.922 26.1563 257.922 22.0313 257.547 20.1875C256.641 15.8125 254.766 12.3438 251.672 9.23438C250.031 7.59375 248.016 6.10938 246.188 5.1875C244.922 4.54688 242.344 3.67188 240.844 3.39063C239.578 3.14063 235.719 2.95313 234.625 3.09376ZM239.953 6.51563C243.703 7.21875 246.75 8.82813 249.484 11.5781C252.953 15.0781 254.625 19.1406 254.625 24.0938C254.625 29.2031 252.797 33.4688 249.125 37C246.875 39.1406 244.266 40.625 241.375 41.3906C239.328 41.9219 235.688 42.0625 233.641 41.6875C229.859 40.9688 226.938 39.4063 224.156 36.5938C221.75 34.1719 220.328 31.7031 219.453 28.3594C218.984 26.6094 218.875 22.9531 219.219 21.0625C220.609 13.6875 226 8.125 233.234 6.60938C235.078 6.21875 238.125 6.1875 239.953 6.51563Z" fill="#FF0000"/>
<path d="M229.688 13.9219C229 14.3438 228.75 15.1251 229.063 15.8594C229.438 16.7657 229.906 16.9063 232.453 16.9063C233.75 16.9063 234.938 16.9844 235.313 17.0938C235.953 17.2969 237.438 18.5469 237.438 18.9063C237.438 19.0469 236.5 19.0938 233.844 19.0938C229.781 19.0938 229.469 19.1563 229.063 20.1407C228.75 20.8751 229 21.6563 229.688 22.0782C230.125 22.3438 230.5 22.3751 233.813 22.3751C235.797 22.3751 237.438 22.4219 237.438 22.4844C237.438 22.7969 236.547 23.6563 235.844 24.0001C235.078 24.3751 234.891 24.4063 232.719 24.4063C229.969 24.4063 229.422 24.5626 229.063 25.4219C228.625 26.4844 228.766 26.6719 233.844 31.4688C236.656 34.1251 238.734 35.9688 239.063 36.1094C239.547 36.2969 239.672 36.2813 240.203 36.0313C240.922 35.6719 241.281 34.8594 241.016 34.1094C240.922 33.8282 239.656 32.5157 237.734 30.7188L234.609 27.7813L235.75 27.5001C237.141 27.1563 238.344 26.4532 239.281 25.4219C239.938 24.7032 240.875 23.0157 240.875 22.5626C240.875 22.4376 241.234 22.3751 242.172 22.3751C243.703 22.3751 244.344 22.0782 244.609 21.2344C244.766 20.7969 244.75 20.5782 244.563 20.1407C244.234 19.3438 243.641 19.0938 242.125 19.0938C241.125 19.0938 240.875 19.0469 240.875 18.8594C240.875 18.7344 240.703 18.2501 240.5 17.7657L240.109 16.9063H241.781C243.156 16.9063 243.547 16.8438 243.938 16.6094C244.625 16.1876 244.875 15.4063 244.563 14.6719C244.125 13.6251 244.156 13.6251 236.781 13.6251C230.547 13.6251 230.141 13.6407 229.688 13.9219Z" fill="#FF0000"/>
<path d="M216.516 45.6875C214.734 45.8906 212.078 46.5781 210.172 47.3281C209.312 47.6719 207.031 48.7188 205.109 49.6562C202.406 50.9688 201.578 51.2969 201.531 51.125C201.359 50.6094 199.875 49.2656 199.109 48.9219C198.312 48.5625 198.188 48.5469 193.766 48.5469H189.234L188.344 48.9844C187.219 49.5312 186.141 50.7031 185.766 51.7969C185.5 52.5625 185.484 53.4375 185.484 65.7344C185.484 78.0312 185.5 78.9062 185.766 79.6719C186.141 80.7656 187.219 81.9375 188.344 82.4844L189.234 82.9219H193.688C198.844 82.9219 199.125 82.8594 200.5 81.5625C201.594 80.5312 202 79.5625 202.094 77.75L202.172 76.3281L205.391 75.7656C211.297 74.7031 210.828 74.7031 222.594 75.2812C231.984 75.7344 234.859 75.7188 237.359 75.1875C241.562 74.2969 245.078 72.5938 248.531 69.7969C253.547 65.7031 260.906 59.5 261.234 59.0625C262.5 57.3594 262.844 55.1094 262.094 53.2344C261.469 51.625 259.875 50.1562 258.25 49.625C257.047 49.25 255.141 49.375 254 49.9219C253.5 50.1562 250.906 52.1562 247.828 54.6562C240.047 60.9688 239.953 61.0469 237.516 61.7969C235.922 62.2812 235.328 62.3438 230.031 62.5312C225.016 62.7031 225.438 62.8125 224.516 61.1562L223.953 60.1562L224.266 59.75C224.547 59.375 224.875 59.2812 229.266 58.4531C231.859 57.9531 234.297 57.4062 234.688 57.2344C235.688 56.7969 236.984 55.5156 237.531 54.4531C237.938 53.625 237.984 53.4062 237.984 51.9062C237.984 50.3594 237.953 50.2031 237.469 49.2188C236.859 47.9844 236.031 47.1875 234.656 46.5469L233.625 46.0625L227.141 45.7969C219.969 45.4844 218.453 45.4688 216.516 45.6875ZM227.344 49.0156C232.344 49.2344 233.016 49.2969 233.562 49.5781C235.5 50.5625 235.266 53.5469 233.172 54.3125C232.812 54.4531 230.578 54.9062 228.219 55.3438C223.219 56.2656 222.516 56.5156 221.703 57.75C220.625 59.3281 220.625 60.7344 221.672 62.6406C222.547 64.2188 223.344 65.0625 224.359 65.5C225.156 65.8438 225.25 65.8438 229.391 65.75C236.172 65.5781 238.016 65.2812 240.797 63.9375C242.391 63.1719 242.922 62.7812 249.297 57.625C255.047 52.9688 255.125 52.9062 255.891 52.6719C257.484 52.2188 259.312 53.6875 259.312 55.4062C259.312 56.6094 259.078 56.8594 252.281 62.5C248.719 65.4688 245.172 68.2969 244.406 68.8125C241.875 70.4844 238.891 71.6562 235.906 72.1562C233.922 72.4688 230.734 72.4219 219.625 71.9062C211.016 71.4844 210.375 71.5156 205.391 72.4531C203.812 72.75 202.422 73 202.328 73C202.172 73 202.125 71.0625 202.125 63.8125V54.6406L205.688 52.9375C210.25 50.7344 211.688 50.1094 213.344 49.625C216.484 48.7188 218.359 48.6406 227.344 49.0156ZM198.312 52.2812L198.844 52.8125V65.7344V78.6562L198.312 79.1875L197.781 79.7188H193.812C189.484 79.7188 189.406 79.7031 188.922 78.7812C188.562 78.0938 188.562 53.375 188.922 52.6875C189.406 51.7656 189.484 51.75 193.812 51.75H197.781L198.312 52.2812Z" fill="#FF0000"/>
<rect x="27.5" y="1.5" width="83" height="83" stroke="#FF0000" stroke-width="3"/>
<path d="M68.3281 3.375C67.8594 3.73438 67.75 4.51562 67.75 7.45312C67.75 11.0781 67.9375 11.7344 69 11.7344C70.0625 11.7344 70.25 11.0781 70.25 7.45312C70.25 3.82812 70.0625 3.17188 69 3.17188C68.7812 3.17188 68.4844 3.26562 68.3281 3.375Z" fill="black"/>
<path d="M68.3281 3.375C67.8594 3.73438 67.75 4.51562 67.75 7.45312C67.75 11.0781 67.9375 11.7344 69 11.7344C70.0625 11.7344 70.25 11.0781 70.25 7.45312C70.25 3.82812 70.0625 3.17188 69 3.17188C68.7812 3.17188 68.4844 3.26562 68.3281 3.375Z" fill="#FF0000"/>
<path d="M58.4062 6.17111C58.2188 6.37423 58.0625 6.70236 58.0625 6.92111C58.0625 7.28048 60.9688 12.4836 61.5469 13.1555C61.9531 13.6399 62.7969 13.5774 63.2188 13.0461C63.4375 12.7649 63.5312 12.4836 63.4688 12.218C63.3906 11.7961 60.4062 6.54611 59.9844 6.09298C59.625 5.68673 58.8125 5.73361 58.4062 6.17111Z" fill="black"/>
<path d="M58.4062 6.17111C58.2188 6.37423 58.0625 6.70236 58.0625 6.92111C58.0625 7.28048 60.9688 12.4836 61.5469 13.1555C61.9531 13.6399 62.7969 13.5774 63.2188 13.0461C63.4375 12.7649 63.5312 12.4836 63.4688 12.218C63.3906 11.7961 60.4062 6.54611 59.9844 6.09298C59.625 5.68673 58.8125 5.73361 58.4062 6.17111Z" fill="#FF0000"/>
<path d="M78.0156 6.09298C77.5937 6.54611 74.6093 11.7961 74.5312 12.218C74.4687 12.4836 74.5625 12.7649 74.7812 13.0461C75.2031 13.5774 76.0468 13.6399 76.4531 13.1555C77.0468 12.468 79.9375 7.26486 79.9375 6.88986C79.9375 6.01486 78.5937 5.45236 78.0156 6.09298Z" fill="black"/>
<path d="M78.0156 6.09298C77.5937 6.54611 74.6093 11.7961 74.5312 12.218C74.4687 12.4836 74.5625 12.7649 74.7812 13.0461C75.2031 13.5774 76.0468 13.6399 76.4531 13.1555C77.0468 12.468 79.9375 7.26486 79.9375 6.88986C79.9375 6.01486 78.5937 5.45236 78.0156 6.09298Z" fill="#FF0000"/>
<path d="M47.6094 11.0627C44.1406 12.0002 41.6562 15.2033 41.6562 18.7814C41.6562 20.7033 42.1406 22.1877 43.2656 23.6564L43.7969 24.3439L42.8438 24.8439C40.4062 26.1096 38.4062 28.5002 37.5156 31.2346L37.25 32.0627H36.2656C35.0312 32.0627 31.875 32.4689 31.0781 32.7346C30.7344 32.8439 30.4062 33.0783 30.2969 33.3127C30.1406 33.6252 30.0938 36.9221 30.0938 48.5939V63.5002L30.5469 63.9533L31 64.4064H36.4688C42.7188 64.4064 42.5 64.4533 42.9844 63.0002L43.2344 62.2189L43.8125 62.4689C44.9844 62.9533 46.4688 63.8439 47.8594 64.8908C48.8281 65.6408 51.4844 68.2189 56.0625 72.8908C65.5469 82.5939 65.2344 82.2814 66.1094 82.5939C68.0312 83.2346 70.0156 82.5314 70.9844 80.8439C71.2031 80.4377 71.4219 80.0783 71.4375 80.0471C71.4688 80.0158 71.7656 80.1096 72.125 80.2502C72.4844 80.3908 73.2031 80.5002 73.8125 80.5002C75.9531 80.5002 77.7969 79.1096 78.2969 77.1096L78.4688 76.4221L79.875 76.3908C81.4688 76.3439 82.125 76.0783 83.125 75.0783C83.7969 74.4221 84.4688 73.1408 84.4688 72.5158C84.4688 72.1096 84.5 72.0939 85.6875 72.0314C87.5938 71.9221 88.9219 71.0627 89.8125 69.3596C90.3438 68.3439 90.3125 66.5002 89.75 65.3283C89.5 64.8439 89.3125 64.4221 89.3125 64.3752C89.3125 64.3283 89.5312 64.2502 89.7969 64.1877C90.0625 64.1408 91.2344 63.6408 92.4062 63.0783C93.5625 62.5158 94.5625 62.0627 94.625 62.0627C94.6719 62.0627 94.8438 62.4533 95 62.9221C95.4844 64.4689 95.2344 64.4064 101.531 64.4064H107L107.453 63.9533L107.906 63.5002V48.5939C107.906 36.9221 107.859 33.6252 107.703 33.3127C107.594 33.0783 107.266 32.8439 106.922 32.7346C106.125 32.4689 102.969 32.0627 101.734 32.0627H100.75L100.484 31.2346C99.5938 28.5002 97.5938 26.1096 95.1562 24.8439L94.2031 24.3439L94.7344 23.6564C95.8594 22.1877 96.3438 20.7033 96.3438 18.7814C96.3438 14.3439 92.7344 10.8127 88.2188 10.8127C85.9688 10.8127 84.1719 11.5627 82.5625 13.1721C79.7188 16.0002 79.3438 20.3908 81.6719 23.4689C82.0312 23.9377 82.2656 24.3283 82.1719 24.3596C82.0938 24.3908 81.5781 24.6721 81.0156 25.0002C79.625 25.7971 77.6406 27.8127 76.9688 29.1252L76.4375 30.1564L75.6875 29.7814L74.9375 29.4064L75.5156 28.6564C77.3281 26.2971 77.6094 23.2033 76.2812 20.4221C73.9062 15.4221 67.2031 14.2971 63.25 18.2502C60.4219 21.0783 60.0938 25.5314 62.4844 28.6564L63.0625 29.4064L62.3125 29.7814L61.5625 30.1564L61.0312 29.1252C60.3594 27.8127 58.375 25.7971 56.9844 25.0002C56.4219 24.6721 55.9062 24.3908 55.8281 24.3596C55.7344 24.3283 55.9688 23.9377 56.3281 23.4689C57.0938 22.4377 57.5469 21.3283 57.7812 19.8127C58.3594 16.0002 55.6875 12.0783 51.7969 11.0471C50.7344 10.7502 48.7031 10.7658 47.6094 11.0627ZM52.125 13.6564C53.7812 14.4064 54.875 15.7346 55.3438 17.5158C55.8438 19.4846 55.1875 21.5314 53.6094 22.9846C52.4531 24.0314 51.3281 24.4533 49.7031 24.4689C48.6094 24.4689 48.2969 24.4064 47.4062 23.9846C46.0781 23.3596 45.2656 22.6096 44.625 21.4064C44.1875 20.5783 44.0781 20.2189 44.0312 19.1564C43.9531 17.6564 44.2188 16.7033 45 15.5783C45.6562 14.6721 46.9219 13.7033 47.875 13.3908C49.0156 13.0314 51.0469 13.1564 52.125 13.6564ZM90.7656 13.6877C91.9062 14.2346 92.9219 15.2658 93.4844 16.4064C93.875 17.1877 93.9219 17.4689 93.9219 18.7814C93.9219 20.1408 93.875 20.3596 93.4062 21.3127C92.7969 22.5471 91.9688 23.3439 90.5938 23.9846C89.7031 24.4064 89.3906 24.4689 88.2969 24.4689C85.9688 24.4533 84.0625 23.2658 83.0469 21.1877C81.8438 18.7658 82.7031 15.6721 85 14.1252C86.125 13.3752 86.9844 13.1564 88.5469 13.2033C89.6406 13.2346 90.0469 13.3283 90.7656 13.6877ZM71.6094 18.8596C72.875 19.4846 73.625 20.2502 74.2812 21.5939C74.6406 22.3283 74.7031 22.6408 74.7031 23.8596C74.7031 25.1408 74.6562 25.3752 74.2031 26.2971C73.5938 27.5314 72.6094 28.4846 71.375 29.0627C70.6094 29.4221 70.2812 29.4846 69 29.4846C67.7188 29.4846 67.3906 29.4221 66.625 29.0627C65.3906 28.4846 64.4062 27.5314 63.7969 26.2971C63.3438 25.3752 63.2969 25.1408 63.2969 23.8596C63.2969 22.6408 63.3594 22.3283 63.7188 21.5939C64.3281 20.3596 65.0938 19.5314 66.1562 18.9689C67.3906 18.3127 68.0781 18.1564 69.3906 18.2346C70.2344 18.2814 70.7344 18.4221 71.6094 18.8596ZM47.2812 26.4689C48.6875 26.9221 50.8906 26.9221 52.2344 26.4533C52.7656 26.2814 53.375 26.1252 53.5938 26.1252C53.7969 26.1252 54.5469 26.4221 55.2656 26.7814C56.9062 27.5939 58.375 29.0158 59.1406 30.5314L59.6562 31.5783L58.9531 32.4064C57.4531 34.1721 56.3438 36.9377 56.3438 38.9689V39.8752H55.8125C55 39.8752 51.7188 39.1252 51.3906 38.8596C51.3594 38.8439 51.5625 38.1877 51.8281 37.4064C52.4844 35.4689 52.4062 35.3127 50.4062 34.5158C47.6094 33.3908 44.2031 32.5783 40.5312 32.1252C40.0781 32.0783 39.7812 31.9689 39.7812 31.8439C39.7812 31.3752 40.8281 29.6252 41.625 28.7658C42.6406 27.6564 43.5938 26.9846 44.7812 26.4846C45.8438 26.0471 46.0156 26.0471 47.2812 26.4689ZM85.7656 26.4533C87.1719 26.9377 89.1562 26.9377 90.7656 26.4533C91.9531 26.0783 92.0156 26.0783 92.8125 26.3283C94.6719 26.9221 96.8594 28.8596 97.75 30.7189C98 31.2658 98.2188 31.7814 98.2188 31.8752C98.2188 32.0314 97.7969 32.1252 96.1094 32.2971C92.6719 32.6721 86.4844 34.5783 85.9219 35.4533C85.6719 35.8283 85.6875 35.9064 86.0938 37.1721C86.3281 37.8908 86.4844 38.5314 86.4375 38.5783C86.3438 38.6877 83.5625 38.3596 82.4531 38.1096L81.625 37.9221L81.3281 36.7814C80.9688 35.3439 80 33.4689 79.0625 32.4064L78.3438 31.5783L78.8438 30.5471C79.5781 29.0471 81.0781 27.5939 82.7344 26.7814C83.4531 26.4221 84.2031 26.1252 84.4062 26.1252C84.625 26.1252 85.2344 26.2814 85.7656 26.4533ZM66.2656 31.4689C67.6094 31.9689 70.375 31.9689 71.75 31.4689C72.6719 31.1252 72.7344 31.1252 73.4688 31.3752C75.5938 32.0783 77.5 33.7502 78.4531 35.7346C78.7812 36.3908 78.9844 36.9689 78.9375 37.0158C78.8906 37.0627 77.9844 36.8439 76.9375 36.5314C74.4688 35.7971 72.9219 35.6096 71.25 35.8127C69.0312 36.0939 66.7812 37.0783 65.2344 38.4533C64.4688 39.1408 64.25 39.2502 63.1406 39.4689C61.9219 39.7033 59.5312 40.0314 58.9688 40.0314C58.7344 40.0314 58.6875 39.8908 58.6875 39.1252C58.6875 35.8439 61.0781 32.6096 64.375 31.4221C65.3594 31.0627 65.1719 31.0627 66.2656 31.4689ZM41.1875 34.5627C44.5312 34.9846 49.6094 36.4064 49.5 36.9064C49.4688 37.0314 47.5156 42.7502 45.1406 49.6096L40.8281 62.0627L36.6719 62.0314L32.5156 61.9846L32.4688 48.4221C32.4375 37.6564 32.4688 34.8439 32.625 34.7971C33.5781 34.4377 39 34.2971 41.1875 34.5627ZM104.859 34.6721L105.484 34.7971V48.3908V61.9846L101.328 62.0314L97.1719 62.0627L92.8594 49.6096C90.4844 42.7502 88.5312 37.0314 88.5 36.9064C88.4062 36.4377 93.2969 35.0314 96.5938 34.5783C97.7969 34.4064 103.891 34.4846 104.859 34.6721ZM76.0312 38.7189C77.0156 39.0158 78.6562 39.5002 79.6562 39.7971C81.8281 40.4377 83.6562 40.7658 85.8125 40.9064L87.4062 41.0158L90.625 50.3283C92.4062 55.4533 93.8438 59.6877 93.8438 59.7346C93.8438 59.7814 92.8125 60.3127 91.5469 60.9064C89.6406 61.7814 89.0625 61.9846 88.25 62.0314C86.3594 62.1564 86.6094 62.3596 78.4375 54.2346C73.4375 49.2346 70.9844 46.9064 70.7656 46.9064C70.3125 46.9064 68.75 48.1096 67.6562 49.2814C66.4531 50.5939 65.8906 51.8127 65.7188 53.5783C65.6406 54.3439 65.4688 55.2814 65.3281 55.6564C64.6719 57.5158 62.5 59.2189 60.0625 59.7971C59.5156 59.9221 59.0312 60.0314 58.9688 60.0314C58.7656 60.0314 58.8281 48.8283 59.0312 48.0939C59.1719 47.5939 59.6094 47.0627 61.0938 45.5783C64.3594 42.3439 67.2031 39.7814 68.0781 39.2814C70.5312 37.9064 72.7031 37.7502 76.0312 38.7189ZM52.5938 41.6721C54.7969 42.2346 56.7656 42.4221 59.0781 42.3283L61.1094 42.2346L59.375 43.9221C58 45.2658 57.5156 45.8596 57.1094 46.6877L56.5781 47.7658L56.5312 54.7502L56.4844 61.7346L56.8281 62.0783C57.1406 62.3908 57.2812 62.4064 58.6719 62.3439C61.3125 62.2033 63.7969 61.1252 65.6406 59.3283C67.1406 57.8596 68.0469 55.7033 68.0625 53.6564C68.0625 52.7189 68.6094 51.6564 69.6562 50.5783L70.5625 49.6564L77.4062 56.4689C81.5469 60.5939 84.5156 63.4377 84.9688 63.6877C86.0312 64.2971 87.7031 66.1408 87.8438 66.8283C87.9688 67.5471 87.8281 68.2189 87.4375 68.7814C86.8438 69.6252 85.4219 69.9689 84.5 69.5002C84.2656 69.3752 82.2656 67.4377 80.0469 65.2033C76.7031 61.7971 75.9688 61.1252 75.5938 61.1252C74.7031 61.1252 74.1094 62.0002 74.4844 62.7346C74.5938 62.9221 76.2031 64.6408 78.0938 66.5627C79.9688 68.4689 81.6406 70.2658 81.8125 70.5471C82.4688 71.6096 82.0781 73.1252 81 73.7814C80.4375 74.1252 79.3438 74.2033 78.7969 73.9221C78.6094 73.8439 76.5625 71.8283 74.2344 69.4689C70.5312 65.7033 69.9531 65.1877 69.5312 65.1877C68.8906 65.1877 68.375 65.6877 68.375 66.3439C68.375 66.7971 68.7656 67.2502 72.1094 70.6721C76 74.6721 76.3281 75.1096 76.125 76.1721C75.8281 77.7658 74.0781 78.6408 72.6719 77.9064C72.4219 77.7814 70.2031 75.6252 67.7812 73.1408C63.6875 68.9689 63.3125 68.6252 62.8125 68.6252C62.1406 68.6252 61.6562 69.0939 61.6562 69.7346C61.6562 70.1408 62.1719 70.7346 65.3906 74.0783C69.4375 78.2658 69.5625 78.4533 69.0625 79.4846C68.625 80.4377 67.4688 80.7814 66.6562 80.2189C66.4375 80.0783 63.1094 76.7189 59.25 72.7658C55.4062 68.8127 51.6719 65.0627 50.9844 64.4377C49.1406 62.7971 47.4375 61.6252 45.625 60.7346L44.0469 59.9377L47.2188 50.7346C48.9844 45.6564 50.4531 41.4221 50.4844 41.2971C50.5312 41.1721 50.6719 41.1408 50.8438 41.2033C50.9844 41.2502 51.7812 41.4689 52.5938 41.6721Z" fill="#FF0000"/>
<path d="M3.23959 107V96.5H4.84459L9.43459 104.165H8.59459L13.1096 96.5H14.7146L14.7296 107H12.8846L12.8696 99.395H13.2596L9.41959 105.8H8.54959L4.64959 99.395H5.09959V107H3.23959ZM20.7758 107.105C20.0958 107.105 19.4958 106.98 18.9758 106.73C18.4558 106.47 18.0508 106.08 17.7608 105.56C17.4708 105.03 17.3258 104.365 17.3258 103.565V98.99H19.2008V103.31C19.2008 104.03 19.3608 104.57 19.6808 104.93C20.0108 105.28 20.4758 105.455 21.0758 105.455C21.5158 105.455 21.8958 105.365 22.2158 105.185C22.5458 105.005 22.8008 104.735 22.9808 104.375C23.1708 104.015 23.2658 103.57 23.2658 103.04V98.99H25.1408V107H23.3558V104.84L23.6708 105.5C23.4008 106.02 23.0058 106.42 22.4858 106.7C21.9658 106.97 21.3958 107.105 20.7758 107.105ZM27.5957 107V95.87H29.4707V107H27.5957ZM35.3422 107.105C34.4622 107.105 33.7822 106.88 33.3022 106.43C32.8222 105.97 32.5822 105.295 32.5822 104.405V97.22H34.4572V104.36C34.4572 104.74 34.5522 105.035 34.7422 105.245C34.9422 105.455 35.2172 105.56 35.5672 105.56C35.9872 105.56 36.3372 105.45 36.6172 105.23L37.1422 106.565C36.9222 106.745 36.6522 106.88 36.3322 106.97C36.0122 107.06 35.6822 107.105 35.3422 107.105ZM31.2622 100.55V99.05H36.6022V100.55H31.2622ZM38.6846 107V98.99H40.5596V107H38.6846ZM39.6296 97.67C39.2796 97.67 38.9896 97.56 38.7596 97.34C38.5396 97.12 38.4296 96.855 38.4296 96.545C38.4296 96.225 38.5396 95.96 38.7596 95.75C38.9896 95.53 39.2796 95.42 39.6296 95.42C39.9796 95.42 40.2646 95.525 40.4846 95.735C40.7146 95.935 40.8296 96.19 40.8296 96.5C40.8296 96.83 40.7196 97.11 40.4996 97.34C40.2796 97.56 39.9896 97.67 39.6296 97.67ZM47.4605 107.105C46.8105 107.105 46.2155 106.955 45.6755 106.655C45.1455 106.355 44.7205 105.905 44.4005 105.305C44.0905 104.695 43.9355 103.925 43.9355 102.995C43.9355 102.055 44.0855 101.285 44.3855 100.685C44.6955 100.085 45.1155 99.64 45.6455 99.35C46.1755 99.05 46.7805 98.9 47.4605 98.9C48.2505 98.9 48.9455 99.07 49.5455 99.41C50.1555 99.75 50.6355 100.225 50.9855 100.835C51.3455 101.445 51.5255 102.165 51.5255 102.995C51.5255 103.825 51.3455 104.55 50.9855 105.17C50.6355 105.78 50.1555 106.255 49.5455 106.595C48.9455 106.935 48.2505 107.105 47.4605 107.105ZM43.0205 109.91V98.99H44.8055V100.88L44.7455 103.01L44.8955 105.14V109.91H43.0205ZM47.2505 105.5C47.7005 105.5 48.1005 105.4 48.4505 105.2C48.8105 105 49.0955 104.71 49.3055 104.33C49.5155 103.95 49.6205 103.505 49.6205 102.995C49.6205 102.475 49.5155 102.03 49.3055 101.66C49.0955 101.28 48.8105 100.99 48.4505 100.79C48.1005 100.59 47.7005 100.49 47.2505 100.49C46.8005 100.49 46.3955 100.59 46.0355 100.79C45.6755 100.99 45.3905 101.28 45.1805 101.66C44.9705 102.03 44.8655 102.475 44.8655 102.995C44.8655 103.505 44.9705 103.95 45.1805 104.33C45.3905 104.71 45.6755 105 46.0355 105.2C46.3955 105.4 46.8005 105.5 47.2505 105.5ZM53.3037 107V95.87H55.1787V107H53.3037ZM61.4047 107.105C60.5147 107.105 59.7347 106.93 59.0647 106.58C58.4047 106.22 57.8897 105.73 57.5197 105.11C57.1597 104.49 56.9797 103.785 56.9797 102.995C56.9797 102.195 57.1547 101.49 57.5047 100.88C57.8647 100.26 58.3547 99.775 58.9747 99.425C59.6047 99.075 60.3197 98.9 61.1197 98.9C61.8997 98.9 62.5947 99.07 63.2047 99.41C63.8147 99.75 64.2947 100.23 64.6447 100.85C64.9947 101.47 65.1697 102.2 65.1697 103.04C65.1697 103.12 65.1647 103.21 65.1547 103.31C65.1547 103.41 65.1497 103.505 65.1397 103.595H58.4647V102.35H64.1497L63.4147 102.74C63.4247 102.28 63.3297 101.875 63.1297 101.525C62.9297 101.175 62.6547 100.9 62.3047 100.7C61.9647 100.5 61.5697 100.4 61.1197 100.4C60.6597 100.4 60.2547 100.5 59.9047 100.7C59.5647 100.9 59.2947 101.18 59.0947 101.54C58.9047 101.89 58.8097 102.305 58.8097 102.785V103.085C58.8097 103.565 58.9197 103.99 59.1397 104.36C59.3597 104.73 59.6697 105.015 60.0697 105.215C60.4697 105.415 60.9297 105.515 61.4497 105.515C61.8997 105.515 62.3047 105.445 62.6647 105.305C63.0247 105.165 63.3447 104.945 63.6247 104.645L64.6297 105.8C64.2697 106.22 63.8147 106.545 63.2647 106.775C62.7247 106.995 62.1047 107.105 61.4047 107.105ZM71.2962 107V96.5H75.6162C76.5462 96.5 77.3412 96.65 78.0012 96.95C78.6712 97.25 79.1862 97.68 79.5462 98.24C79.9062 98.8 80.0862 99.465 80.0862 100.235C80.0862 101.005 79.9062 101.67 79.5462 102.23C79.1862 102.79 78.6712 103.22 78.0012 103.52C77.3412 103.82 76.5462 103.97 75.6162 103.97H72.3762L73.2462 103.055V107H71.2962ZM73.2462 103.265L72.3762 102.32H75.5262C76.3862 102.32 77.0312 102.14 77.4612 101.78C77.9012 101.41 78.1212 100.895 78.1212 100.235C78.1212 99.565 77.9012 99.05 77.4612 98.69C77.0312 98.33 76.3862 98.15 75.5262 98.15H72.3762L73.2462 97.19V103.265ZM86.7153 107V105.38L86.6103 105.035V102.2C86.6103 101.65 86.4453 101.225 86.1153 100.925C85.7853 100.615 85.2853 100.46 84.6153 100.46C84.1653 100.46 83.7203 100.53 83.2803 100.67C82.8503 100.81 82.4853 101.005 82.1853 101.255L81.4503 99.89C81.8803 99.56 82.3903 99.315 82.9803 99.155C83.5803 98.985 84.2003 98.9 84.8403 98.9C86.0003 98.9 86.8953 99.18 87.5253 99.74C88.1653 100.29 88.4853 101.145 88.4853 102.305V107H86.7153ZM84.1953 107.105C83.5953 107.105 83.0703 107.005 82.6203 106.805C82.1703 106.595 81.8203 106.31 81.5703 105.95C81.3303 105.58 81.2103 105.165 81.2103 104.705C81.2103 104.255 81.3153 103.85 81.5253 103.49C81.7453 103.13 82.1003 102.845 82.5903 102.635C83.0803 102.425 83.7303 102.32 84.5403 102.32H86.8653V103.565H84.6753C84.0353 103.565 83.6053 103.67 83.3853 103.88C83.1653 104.08 83.0553 104.33 83.0553 104.63C83.0553 104.97 83.1903 105.24 83.4603 105.44C83.7303 105.64 84.1053 105.74 84.5853 105.74C85.0453 105.74 85.4553 105.635 85.8153 105.425C86.1853 105.215 86.4503 104.905 86.6103 104.495L86.9253 105.62C86.7453 106.09 86.4203 106.455 85.9503 106.715C85.4903 106.975 84.9053 107.105 84.1953 107.105ZM90.8916 107V98.99H92.6766V101.195L92.4666 100.55C92.7066 100.01 93.0816 99.6 93.5916 99.32C94.1116 99.04 94.7566 98.9 95.5266 98.9V100.685C95.4466 100.665 95.3716 100.655 95.3016 100.655C95.2316 100.645 95.1616 100.64 95.0916 100.64C94.3816 100.64 93.8166 100.85 93.3966 101.27C92.9766 101.68 92.7666 102.295 92.7666 103.115V107H90.8916ZM100.425 107.105C99.5452 107.105 98.8652 106.88 98.3852 106.43C97.9052 105.97 97.6652 105.295 97.6652 104.405V97.22H99.5402V104.36C99.5402 104.74 99.6352 105.035 99.8252 105.245C100.025 105.455 100.3 105.56 100.65 105.56C101.07 105.56 101.42 105.45 101.7 105.23L102.225 106.565C102.005 106.745 101.735 106.88 101.415 106.97C101.095 107.06 100.765 107.105 100.425 107.105ZM96.3452 100.55V99.05H101.685V100.55H96.3452ZM108.313 98.9C108.953 98.9 109.523 99.025 110.023 99.275C110.533 99.525 110.933 99.91 111.223 100.43C111.513 100.94 111.658 101.6 111.658 102.41V107H109.783V102.65C109.783 101.94 109.613 101.41 109.273 101.06C108.943 100.71 108.478 100.535 107.878 100.535C107.438 100.535 107.048 100.625 106.708 100.805C106.368 100.985 106.103 101.255 105.913 101.615C105.733 101.965 105.643 102.41 105.643 102.95V107H103.768V98.99H105.553V101.15L105.238 100.49C105.518 99.98 105.923 99.59 106.453 99.32C106.993 99.04 107.613 98.9 108.313 98.9ZM117.816 107.105C116.926 107.105 116.146 106.93 115.476 106.58C114.816 106.22 114.301 105.73 113.931 105.11C113.571 104.49 113.391 103.785 113.391 102.995C113.391 102.195 113.566 101.49 113.916 100.88C114.276 100.26 114.766 99.775 115.386 99.425C116.016 99.075 116.731 98.9 117.531 98.9C118.311 98.9 119.006 99.07 119.616 99.41C120.226 99.75 120.706 100.23 121.056 100.85C121.406 101.47 121.581 102.2 121.581 103.04C121.581 103.12 121.576 103.21 121.566 103.31C121.566 103.41 121.561 103.505 121.551 103.595H114.876V102.35H120.561L119.826 102.74C119.836 102.28 119.741 101.875 119.541 101.525C119.341 101.175 119.066 100.9 118.716 100.7C118.376 100.5 117.981 100.4 117.531 100.4C117.071 100.4 116.666 100.5 116.316 100.7C115.976 100.9 115.706 101.18 115.506 101.54C115.316 101.89 115.221 102.305 115.221 102.785V103.085C115.221 103.565 115.331 103.99 115.551 104.36C115.771 104.73 116.081 105.015 116.481 105.215C116.881 105.415 117.341 105.515 117.861 105.515C118.311 105.515 118.716 105.445 119.076 105.305C119.436 105.165 119.756 104.945 120.036 104.645L121.041 105.8C120.681 106.22 120.226 106.545 119.676 106.775C119.136 106.995 118.516 107.105 117.816 107.105ZM123.382 107V98.99H125.167V101.195L124.957 100.55C125.197 100.01 125.572 99.6 126.082 99.32C126.602 99.04 127.247 98.9 128.017 98.9V100.685C127.937 100.665 127.862 100.655 127.792 100.655C127.722 100.645 127.652 100.64 127.582 100.64C126.872 100.64 126.307 100.85 125.887 101.27C125.467 101.68 125.257 102.295 125.257 103.115V107H123.382ZM132.156 107.105C131.486 107.105 130.841 107.02 130.221 106.85C129.611 106.67 129.126 106.455 128.766 106.205L129.486 104.78C129.846 105.01 130.276 105.2 130.776 105.35C131.276 105.5 131.776 105.575 132.276 105.575C132.866 105.575 133.291 105.495 133.551 105.335C133.821 105.175 133.956 104.96 133.956 104.69C133.956 104.47 133.866 104.305 133.686 104.195C133.506 104.075 133.271 103.985 132.981 103.925C132.691 103.865 132.366 103.81 132.006 103.76C131.656 103.71 131.301 103.645 130.941 103.565C130.591 103.475 130.271 103.35 129.981 103.19C129.691 103.02 129.456 102.795 129.276 102.515C129.096 102.235 129.006 101.865 129.006 101.405C129.006 100.895 129.151 100.455 129.441 100.085C129.731 99.705 130.136 99.415 130.656 99.215C131.186 99.005 131.811 98.9 132.531 98.9C133.071 98.9 133.616 98.96 134.166 99.08C134.716 99.2 135.171 99.37 135.531 99.59L134.811 101.015C134.431 100.785 134.046 100.63 133.656 100.55C133.276 100.46 132.896 100.415 132.516 100.415C131.946 100.415 131.521 100.5 131.241 100.67C130.971 100.84 130.836 101.055 130.836 101.315C130.836 101.555 130.926 101.735 131.106 101.855C131.286 101.975 131.521 102.07 131.811 102.14C132.101 102.21 132.421 102.27 132.771 102.32C133.131 102.36 133.486 102.425 133.836 102.515C134.186 102.605 134.506 102.73 134.796 102.89C135.096 103.04 135.336 103.255 135.516 103.535C135.696 103.815 135.786 104.18 135.786 104.63C135.786 105.13 135.636 105.565 135.336 105.935C135.046 106.305 134.631 106.595 134.091 106.805C133.551 107.005 132.906 107.105 132.156 107.105Z" fill="black"/>
<path d="M153.693 107L158.418 96.5H160.338L165.078 107H163.038L158.973 97.535H159.753L155.703 107H153.693ZM155.868 104.57L156.393 103.04H162.063L162.588 104.57H155.868ZM166.488 107V98.54C166.488 97.7 166.733 97.03 167.223 96.53C167.723 96.02 168.433 95.765 169.353 95.765C169.683 95.765 169.993 95.8 170.283 95.87C170.583 95.94 170.833 96.05 171.033 96.2L170.523 97.61C170.383 97.5 170.223 97.42 170.043 97.37C169.863 97.31 169.678 97.28 169.488 97.28C169.098 97.28 168.803 97.39 168.603 97.61C168.403 97.82 168.303 98.14 168.303 98.57V99.47L168.363 100.31V107H166.488ZM165.168 100.55V99.05H170.508V100.55H165.168ZM172.069 107V98.54C172.069 97.7 172.314 97.03 172.804 96.53C173.304 96.02 174.014 95.765 174.934 95.765C175.264 95.765 175.574 95.8 175.864 95.87C176.164 95.94 176.414 96.05 176.614 96.2L176.104 97.61C175.964 97.5 175.804 97.42 175.624 97.37C175.444 97.31 175.259 97.28 175.069 97.28C174.679 97.28 174.384 97.39 174.184 97.61C173.984 97.82 173.884 98.14 173.884 98.57V99.47L173.944 100.31V107H172.069ZM170.749 100.55V99.05H176.089V100.55H170.749ZM180.834 107.105C180.014 107.105 179.284 106.93 178.644 106.58C178.004 106.22 177.499 105.73 177.129 105.11C176.759 104.49 176.574 103.785 176.574 102.995C176.574 102.195 176.759 101.49 177.129 100.88C177.499 100.26 178.004 99.775 178.644 99.425C179.284 99.075 180.014 98.9 180.834 98.9C181.664 98.9 182.399 99.075 183.039 99.425C183.689 99.775 184.194 100.255 184.554 100.865C184.924 101.475 185.109 102.185 185.109 102.995C185.109 103.785 184.924 104.49 184.554 105.11C184.194 105.73 183.689 106.22 183.039 106.58C182.399 106.93 181.664 107.105 180.834 107.105ZM180.834 105.5C181.294 105.5 181.704 105.4 182.064 105.2C182.424 105 182.704 104.71 182.904 104.33C183.114 103.95 183.219 103.505 183.219 102.995C183.219 102.475 183.114 102.03 182.904 101.66C182.704 101.28 182.424 100.99 182.064 100.79C181.704 100.59 181.299 100.49 180.849 100.49C180.389 100.49 179.979 100.59 179.619 100.79C179.269 100.99 178.989 101.28 178.779 101.66C178.569 102.03 178.464 102.475 178.464 102.995C178.464 103.505 178.569 103.95 178.779 104.33C178.989 104.71 179.269 105 179.619 105.2C179.979 105.4 180.384 105.5 180.834 105.5ZM186.902 107V98.99H188.687V101.195L188.477 100.55C188.717 100.01 189.092 99.6 189.602 99.32C190.122 99.04 190.767 98.9 191.537 98.9V100.685C191.457 100.665 191.382 100.655 191.312 100.655C191.242 100.645 191.172 100.64 191.102 100.64C190.392 100.64 189.827 100.85 189.407 101.27C188.987 101.68 188.777 102.295 188.777 103.115V107H186.902ZM196.445 107.105C195.675 107.105 194.98 106.935 194.36 106.595C193.75 106.245 193.27 105.765 192.92 105.155C192.57 104.545 192.395 103.825 192.395 102.995C192.395 102.165 192.57 101.445 192.92 100.835C193.27 100.225 193.75 99.75 194.36 99.41C194.98 99.07 195.675 98.9 196.445 98.9C197.115 98.9 197.715 99.05 198.245 99.35C198.775 99.64 199.195 100.085 199.505 100.685C199.815 101.285 199.97 102.055 199.97 102.995C199.97 103.925 199.82 104.695 199.52 105.305C199.22 105.905 198.805 106.355 198.275 106.655C197.745 106.955 197.135 107.105 196.445 107.105ZM196.67 105.5C197.12 105.5 197.52 105.4 197.87 105.2C198.23 105 198.515 104.71 198.725 104.33C198.945 103.95 199.055 103.505 199.055 102.995C199.055 102.475 198.945 102.03 198.725 101.66C198.515 101.28 198.23 100.99 197.87 100.79C197.52 100.59 197.12 100.49 196.67 100.49C196.22 100.49 195.815 100.59 195.455 100.79C195.105 100.99 194.82 101.28 194.6 101.66C194.39 102.03 194.285 102.475 194.285 102.995C194.285 103.505 194.39 103.95 194.6 104.33C194.82 104.71 195.105 105 195.455 105.2C195.815 105.4 196.22 105.5 196.67 105.5ZM199.1 107V105.11L199.175 102.98L199.025 100.85V95.87H200.885V107H199.1ZM208.288 107V105.38L208.183 105.035V102.2C208.183 101.65 208.018 101.225 207.688 100.925C207.358 100.615 206.858 100.46 206.188 100.46C205.738 100.46 205.293 100.53 204.853 100.67C204.423 100.81 204.058 101.005 203.758 101.255L203.023 99.89C203.453 99.56 203.963 99.315 204.553 99.155C205.153 98.985 205.773 98.9 206.413 98.9C207.573 98.9 208.468 99.18 209.098 99.74C209.738 100.29 210.058 101.145 210.058 102.305V107H208.288ZM205.768 107.105C205.168 107.105 204.643 107.005 204.193 106.805C203.743 106.595 203.393 106.31 203.143 105.95C202.903 105.58 202.783 105.165 202.783 104.705C202.783 104.255 202.888 103.85 203.098 103.49C203.318 103.13 203.673 102.845 204.163 102.635C204.653 102.425 205.303 102.32 206.113 102.32H208.438V103.565H206.248C205.608 103.565 205.178 103.67 204.958 103.88C204.738 104.08 204.628 104.33 204.628 104.63C204.628 104.97 204.763 105.24 205.033 105.44C205.303 105.64 205.678 105.74 206.158 105.74C206.618 105.74 207.028 105.635 207.388 105.425C207.758 105.215 208.023 104.905 208.183 104.495L208.498 105.62C208.318 106.09 207.993 106.455 207.523 106.715C207.063 106.975 206.478 107.105 205.768 107.105ZM216.904 107.105C216.224 107.105 215.619 106.955 215.089 106.655C214.559 106.355 214.139 105.905 213.829 105.305C213.529 104.695 213.379 103.925 213.379 102.995C213.379 102.055 213.534 101.285 213.844 100.685C214.164 100.085 214.589 99.64 215.119 99.35C215.659 99.05 216.254 98.9 216.904 98.9C217.694 98.9 218.389 99.07 218.989 99.41C219.599 99.75 220.079 100.225 220.429 100.835C220.789 101.445 220.969 102.165 220.969 102.995C220.969 103.825 220.789 104.545 220.429 105.155C220.079 105.765 219.599 106.245 218.989 106.595C218.389 106.935 217.694 107.105 216.904 107.105ZM212.464 107V95.87H214.339V100.85L214.189 102.98L214.249 105.11V107H212.464ZM216.694 105.5C217.144 105.5 217.544 105.4 217.894 105.2C218.254 105 218.539 104.71 218.749 104.33C218.959 103.95 219.064 103.505 219.064 102.995C219.064 102.475 218.959 102.03 218.749 101.66C218.539 101.28 218.254 100.99 217.894 100.79C217.544 100.59 217.144 100.49 216.694 100.49C216.244 100.49 215.839 100.59 215.479 100.79C215.119 100.99 214.834 101.28 214.624 101.66C214.414 102.03 214.309 102.475 214.309 102.995C214.309 103.505 214.414 103.95 214.624 104.33C214.834 104.71 215.119 105 215.479 105.2C215.839 105.4 216.244 105.5 216.694 105.5ZM222.747 107V95.87H224.622V107H222.747ZM230.848 107.105C229.958 107.105 229.178 106.93 228.508 106.58C227.848 106.22 227.333 105.73 226.963 105.11C226.603 104.49 226.423 103.785 226.423 102.995C226.423 102.195 226.598 101.49 226.948 100.88C227.308 100.26 227.798 99.775 228.418 99.425C229.048 99.075 229.763 98.9 230.563 98.9C231.343 98.9 232.038 99.07 232.648 99.41C233.258 99.75 233.738 100.23 234.088 100.85C234.438 101.47 234.613 102.2 234.613 103.04C234.613 103.12 234.608 103.21 234.598 103.31C234.598 103.41 234.593 103.505 234.583 103.595H227.908V102.35H233.593L232.858 102.74C232.868 102.28 232.773 101.875 232.573 101.525C232.373 101.175 232.098 100.9 231.748 100.7C231.408 100.5 231.013 100.4 230.563 100.4C230.103 100.4 229.698 100.5 229.348 100.7C229.008 100.9 228.738 101.18 228.538 101.54C228.348 101.89 228.253 102.305 228.253 102.785V103.085C228.253 103.565 228.363 103.99 228.583 104.36C228.803 104.73 229.113 105.015 229.513 105.215C229.913 105.415 230.373 105.515 230.893 105.515C231.343 105.515 231.748 105.445 232.108 105.305C232.468 105.165 232.788 104.945 233.068 104.645L234.073 105.8C233.713 106.22 233.258 106.545 232.708 106.775C232.168 106.995 231.548 107.105 230.848 107.105ZM240.74 107V96.5H245.06C245.99 96.5 246.785 96.65 247.445 96.95C248.115 97.25 248.63 97.68 248.99 98.24C249.35 98.8 249.53 99.465 249.53 100.235C249.53 101.005 249.35 101.67 248.99 102.23C248.63 102.79 248.115 103.22 247.445 103.52C246.785 103.82 245.99 103.97 245.06 103.97H241.82L242.69 103.055V107H240.74ZM242.69 103.265L241.82 102.32H244.97C245.83 102.32 246.475 102.14 246.905 101.78C247.345 101.41 247.565 100.895 247.565 100.235C247.565 99.565 247.345 99.05 246.905 98.69C246.475 98.33 245.83 98.15 244.97 98.15H241.82L242.69 97.19V103.265ZM251.224 107V98.99H253.009V101.195L252.799 100.55C253.039 100.01 253.414 99.6 253.924 99.32C254.444 99.04 255.089 98.9 255.859 98.9V100.685C255.779 100.665 255.704 100.655 255.634 100.655C255.564 100.645 255.494 100.64 255.424 100.64C254.714 100.64 254.149 100.85 253.729 101.27C253.309 101.68 253.099 102.295 253.099 103.115V107H251.224ZM257.449 107V98.99H259.324V107H257.449ZM258.394 97.67C258.044 97.67 257.754 97.56 257.524 97.34C257.304 97.12 257.194 96.855 257.194 96.545C257.194 96.225 257.304 95.96 257.524 95.75C257.754 95.53 258.044 95.42 258.394 95.42C258.744 95.42 259.029 95.525 259.249 95.735C259.479 95.935 259.594 96.19 259.594 96.5C259.594 96.83 259.484 97.11 259.264 97.34C259.044 97.56 258.754 97.67 258.394 97.67ZM265.46 107.105C264.62 107.105 263.87 106.93 263.21 106.58C262.56 106.22 262.05 105.73 261.68 105.11C261.31 104.49 261.125 103.785 261.125 102.995C261.125 102.195 261.31 101.49 261.68 100.88C262.05 100.26 262.56 99.775 263.21 99.425C263.87 99.075 264.62 98.9 265.46 98.9C266.24 98.9 266.925 99.06 267.515 99.38C268.115 99.69 268.57 100.15 268.88 100.76L267.44 101.6C267.2 101.22 266.905 100.94 266.555 100.76C266.215 100.58 265.845 100.49 265.445 100.49C264.985 100.49 264.57 100.59 264.2 100.79C263.83 100.99 263.54 101.28 263.33 101.66C263.12 102.03 263.015 102.475 263.015 102.995C263.015 103.515 263.12 103.965 263.33 104.345C263.54 104.715 263.83 105 264.2 105.2C264.57 105.4 264.985 105.5 265.445 105.5C265.845 105.5 266.215 105.41 266.555 105.23C266.905 105.05 267.2 104.77 267.44 104.39L268.88 105.23C268.57 105.83 268.115 106.295 267.515 106.625C266.925 106.945 266.24 107.105 265.46 107.105ZM270.428 107V98.99H272.303V107H270.428ZM271.373 97.67C271.023 97.67 270.733 97.56 270.503 97.34C270.283 97.12 270.173 96.855 270.173 96.545C270.173 96.225 270.283 95.96 270.503 95.75C270.733 95.53 271.023 95.42 271.373 95.42C271.723 95.42 272.008 95.525 272.228 95.735C272.458 95.935 272.573 96.19 272.573 96.5C272.573 96.83 272.463 97.11 272.243 97.34C272.023 97.56 271.733 97.67 271.373 97.67ZM279.309 98.9C279.949 98.9 280.519 99.025 281.019 99.275C281.529 99.525 281.929 99.91 282.219 100.43C282.509 100.94 282.654 101.6 282.654 102.41V107H280.779V102.65C280.779 101.94 280.609 101.41 280.269 101.06C279.939 100.71 279.474 100.535 278.874 100.535C278.434 100.535 278.044 100.625 277.704 100.805C277.364 100.985 277.099 101.255 276.909 101.615C276.729 101.965 276.639 102.41 276.639 102.95V107H274.764V98.99H276.549V101.15L276.234 100.49C276.514 99.98 276.919 99.59 277.449 99.32C277.989 99.04 278.609 98.9 279.309 98.9ZM288.677 110.015C287.937 110.015 287.212 109.915 286.502 109.715C285.802 109.525 285.227 109.245 284.777 108.875L285.617 107.465C285.967 107.755 286.407 107.985 286.937 108.155C287.477 108.335 288.022 108.425 288.572 108.425C289.452 108.425 290.097 108.22 290.507 107.81C290.917 107.41 291.122 106.805 291.122 105.995V104.57L291.272 102.755L291.212 100.94V98.99H292.997V105.785C292.997 107.235 292.627 108.3 291.887 108.98C291.147 109.67 290.077 110.015 288.677 110.015ZM288.437 106.64C287.677 106.64 286.987 106.48 286.367 106.16C285.757 105.83 285.272 105.375 284.912 104.795C284.562 104.215 284.387 103.535 284.387 102.755C284.387 101.985 284.562 101.31 284.912 100.73C285.272 100.15 285.757 99.7 286.367 99.38C286.987 99.06 287.677 98.9 288.437 98.9C289.117 98.9 289.727 99.035 290.267 99.305C290.807 99.575 291.237 99.995 291.557 100.565C291.887 101.135 292.052 101.865 292.052 102.755C292.052 103.645 291.887 104.38 291.557 104.96C291.237 105.53 290.807 105.955 290.267 106.235C289.727 106.505 289.117 106.64 288.437 106.64ZM288.722 105.05C289.192 105.05 289.612 104.955 289.982 104.765C290.352 104.565 290.637 104.295 290.837 103.955C291.047 103.605 291.152 103.205 291.152 102.755C291.152 102.305 291.047 101.91 290.837 101.57C290.637 101.22 290.352 100.955 289.982 100.775C289.612 100.585 289.192 100.49 288.722 100.49C288.252 100.49 287.827 100.585 287.447 100.775C287.077 100.955 286.787 101.22 286.577 101.57C286.377 101.91 286.277 102.305 286.277 102.755C286.277 103.205 286.377 103.605 286.577 103.955C286.787 104.295 287.077 104.565 287.447 104.765C287.827 104.955 288.252 105.05 288.722 105.05Z" fill="black"/>
<rect x="348.5" y="1.5" width="83" height="83" stroke="#FF0000" stroke-width="3"/>
<path d="M387.5 8.20312C386.734 8.45312 385.422 9.79688 385.188 10.5938C385.047 11.0938 385 18.5938 385 43.375V75.5H380.625H376.25V63V50.5H377.719C378.875 50.5 379.25 50.4375 379.516 50.2188C379.922 49.8906 380.859 46.3125 381.891 41.1719L382.547 37.8594L381.094 34.4688C379.234 30.1562 378.734 29.4844 376.609 28.5156C375.891 28.1875 375.406 28.0938 374.141 28.0312L372.578 27.9688L373.125 26.8594L373.672 25.75L373.734 23.125L373.781 20.5H375.875C377.906 20.5 378 20.4844 378.359 20.1094C378.875 19.6094 378.875 18.8906 378.359 18.3906C378 18.0156 377.906 18 375.891 18H373.797L373.719 16.6094C373.563 14.0781 372.375 12.25 370.188 11.1562C369.063 10.6094 368.922 10.5781 367.516 10.5781C366.156 10.5781 365.922 10.625 364.969 11.0781C363.516 11.7656 362.609 12.6406 361.906 14.0625L361.328 15.25L361.281 19.9375C361.219 25.0625 361.297 25.7969 362.016 27.1562L362.453 27.9688L360.859 28.0312C359.5 28.0938 359.125 28.1719 358.234 28.5781C356.172 29.5469 355.625 30.3281 353.594 35.1562L352.453 37.8594L353.109 41.1719C354.141 46.3125 355.078 49.8906 355.484 50.2188C355.75 50.4375 356.125 50.5 357.281 50.5H358.75V63V75.5H356.016C353.313 75.5 353.266 75.5 352.891 75.8906C352.375 76.3906 352.375 77.1094 352.891 77.6094L353.266 78H390H426.734L427.109 77.6094C427.625 77.1094 427.625 76.3906 427.109 75.8906C426.75 75.5156 426.656 75.5 424.609 75.5H422.5V43.375C422.5 19 422.453 11.0938 422.313 10.625C422.219 10.2812 421.828 9.65625 421.453 9.25C420.25 7.92188 421.422 8 403.688 8.01562C392.766 8.03125 387.875 8.07812 387.5 8.20312ZM419.609 10.8906L420 11.2656V43.3906V75.5H418.75H417.5V49.6406V23.7656L417.109 23.3906C416.875 23.1406 416.547 23 416.25 23C415.953 23 415.625 23.1406 415.391 23.3906L415 23.7656V49.6406V75.5H403.75H392.5V45.5V15.5H403.75H415V17.6094C415 19.6562 415.016 19.75 415.391 20.1094C415.625 20.3594 415.953 20.5 416.25 20.5C416.547 20.5 416.875 20.3594 417.109 20.1094C417.5 19.7344 417.5 19.7031 417.5 16.75C417.5 13.7969 417.5 13.7656 417.109 13.3906L416.734 13H403.75H390.766L390.391 13.3906L390 13.7656V44.6406V75.5H388.75H387.5V43.3906V11.2656L387.891 10.8906L388.266 10.5H403.75H419.234L419.609 10.8906ZM368.656 13.1875C369.516 13.4375 370.813 14.7344 371.063 15.5938C371.172 15.9531 371.25 16.6406 371.25 17.125V18H367.5H363.75V17.125C363.75 15.7656 364.031 15.0469 364.922 14.1719C366.016 13.0625 367.188 12.7656 368.656 13.1875ZM371.25 22.6719C371.25 25.2344 371.063 25.8906 370.125 26.8594C368.734 28.2812 366.641 28.375 365.156 27.0938C364.016 26.125 363.844 25.5938 363.781 22.875L363.719 20.5H367.484H371.25V22.6719ZM375.328 30.6875C376.125 30.9219 377.109 31.7812 377.516 32.5625C377.688 32.9062 378.313 34.2969 378.891 35.6562L379.953 38.125L379.469 40.5625L379 43H378.25H377.5V38.3906V33.7656L377.109 33.3906L376.734 33H367.5H358.266L357.891 33.3906L357.5 33.7656V38.3906V43H356.75H356L355.531 40.5625L355.047 38.125L356.109 35.6562C356.688 34.2969 357.313 32.9062 357.484 32.5625C357.859 31.8281 358.797 30.9844 359.547 30.7188C360.281 30.4531 374.469 30.4219 375.328 30.6875ZM363.75 37.6094C363.75 39.6562 363.766 39.75 364.141 40.1094C364.516 40.5 364.547 40.5 367.5 40.5C370.453 40.5 370.484 40.5 370.859 40.1094C371.234 39.75 371.25 39.6562 371.25 37.6094V35.5H373.125H375V39.4062C375 42.6406 374.969 43.3125 374.781 43.3125C374.656 43.3125 374.203 43.625 373.781 44.0156C372.797 44.9062 372.406 45.8906 372.563 47.1562L372.656 48H367.5H362.344L362.438 47.1562C362.594 45.8906 362.203 44.9062 361.219 44.0156C360.797 43.625 360.344 43.3125 360.219 43.3125C360.031 43.3125 360 42.6406 360 39.4062V35.5H361.875H363.75V37.6094ZM368.75 36.75V38H367.5H366.25V36.75V35.5H367.5H368.75V36.75ZM359.609 45.8906C360.125 46.3906 360.125 47.1094 359.609 47.6094C359.281 47.9375 359.094 48 358.234 48H357.219L356.906 46.75L356.594 45.5H357.922C359.109 45.5 359.266 45.5312 359.609 45.8906ZM378.094 46.75L377.781 48H376.766C375.906 48 375.719 47.9375 375.391 47.6094C375.141 47.375 375 47.0469 375 46.75C375 46.4531 375.141 46.125 375.391 45.8906C375.734 45.5312 375.891 45.5 377.078 45.5H378.406L378.094 46.75ZM373.75 63V75.5H372.5H371.25V65.875C371.25 58.875 371.203 56.0625 371.063 55.625C370.797 54.7031 369.688 53.5469 368.797 53.25C367.281 52.7344 366.063 53.0156 364.922 54.1719C364.422 54.6562 364.063 55.1875 363.938 55.5938C363.797 56.0781 363.75 58.7656 363.75 65.875V75.5H362.5H361.25V63V50.5H367.5H373.75V63ZM368.359 55.8906L368.75 56.2656V65.8906V75.5H367.5H366.25V65.8906V56.2656L366.641 55.8906C366.875 55.6406 367.203 55.5 367.5 55.5C367.797 55.5 368.125 55.6406 368.359 55.8906Z" fill="black"/>
<path d="M387.5 8.20312C386.734 8.45312 385.422 9.79688 385.188 10.5938C385.047 11.0938 385 18.5938 385 43.375V75.5H380.625H376.25V63V50.5H377.719C378.875 50.5 379.25 50.4375 379.516 50.2188C379.922 49.8906 380.859 46.3125 381.891 41.1719L382.547 37.8594L381.094 34.4688C379.234 30.1562 378.734 29.4844 376.609 28.5156C375.891 28.1875 375.406 28.0938 374.141 28.0312L372.578 27.9688L373.125 26.8594L373.672 25.75L373.734 23.125L373.781 20.5H375.875C377.906 20.5 378 20.4844 378.359 20.1094C378.875 19.6094 378.875 18.8906 378.359 18.3906C378 18.0156 377.906 18 375.891 18H373.797L373.719 16.6094C373.563 14.0781 372.375 12.25 370.188 11.1562C369.063 10.6094 368.922 10.5781 367.516 10.5781C366.156 10.5781 365.922 10.625 364.969 11.0781C363.516 11.7656 362.609 12.6406 361.906 14.0625L361.328 15.25L361.281 19.9375C361.219 25.0625 361.297 25.7969 362.016 27.1562L362.453 27.9688L360.859 28.0312C359.5 28.0938 359.125 28.1719 358.234 28.5781C356.172 29.5469 355.625 30.3281 353.594 35.1562L352.453 37.8594L353.109 41.1719C354.141 46.3125 355.078 49.8906 355.484 50.2188C355.75 50.4375 356.125 50.5 357.281 50.5H358.75V63V75.5H356.016C353.313 75.5 353.266 75.5 352.891 75.8906C352.375 76.3906 352.375 77.1094 352.891 77.6094L353.266 78H390H426.734L427.109 77.6094C427.625 77.1094 427.625 76.3906 427.109 75.8906C426.75 75.5156 426.656 75.5 424.609 75.5H422.5V43.375C422.5 19 422.453 11.0938 422.313 10.625C422.219 10.2812 421.828 9.65625 421.453 9.25C420.25 7.92188 421.422 8 403.688 8.01562C392.766 8.03125 387.875 8.07812 387.5 8.20312ZM419.609 10.8906L420 11.2656V43.3906V75.5H418.75H417.5V49.6406V23.7656L417.109 23.3906C416.875 23.1406 416.547 23 416.25 23C415.953 23 415.625 23.1406 415.391 23.3906L415 23.7656V49.6406V75.5H403.75H392.5V45.5V15.5H403.75H415V17.6094C415 19.6562 415.016 19.75 415.391 20.1094C415.625 20.3594 415.953 20.5 416.25 20.5C416.547 20.5 416.875 20.3594 417.109 20.1094C417.5 19.7344 417.5 19.7031 417.5 16.75C417.5 13.7969 417.5 13.7656 417.109 13.3906L416.734 13H403.75H390.766L390.391 13.3906L390 13.7656V44.6406V75.5H388.75H387.5V43.3906V11.2656L387.891 10.8906L388.266 10.5H403.75H419.234L419.609 10.8906ZM368.656 13.1875C369.516 13.4375 370.813 14.7344 371.063 15.5938C371.172 15.9531 371.25 16.6406 371.25 17.125V18H367.5H363.75V17.125C363.75 15.7656 364.031 15.0469 364.922 14.1719C366.016 13.0625 367.188 12.7656 368.656 13.1875ZM371.25 22.6719C371.25 25.2344 371.063 25.8906 370.125 26.8594C368.734 28.2812 366.641 28.375 365.156 27.0938C364.016 26.125 363.844 25.5938 363.781 22.875L363.719 20.5H367.484H371.25V22.6719ZM375.328 30.6875C376.125 30.9219 377.109 31.7812 377.516 32.5625C377.688 32.9062 378.313 34.2969 378.891 35.6562L379.953 38.125L379.469 40.5625L379 43H378.25H377.5V38.3906V33.7656L377.109 33.3906L376.734 33H367.5H358.266L357.891 33.3906L357.5 33.7656V38.3906V43H356.75H356L355.531 40.5625L355.047 38.125L356.109 35.6562C356.688 34.2969 357.313 32.9062 357.484 32.5625C357.859 31.8281 358.797 30.9844 359.547 30.7188C360.281 30.4531 374.469 30.4219 375.328 30.6875ZM363.75 37.6094C363.75 39.6562 363.766 39.75 364.141 40.1094C364.516 40.5 364.547 40.5 367.5 40.5C370.453 40.5 370.484 40.5 370.859 40.1094C371.234 39.75 371.25 39.6562 371.25 37.6094V35.5H373.125H375V39.4062C375 42.6406 374.969 43.3125 374.781 43.3125C374.656 43.3125 374.203 43.625 373.781 44.0156C372.797 44.9062 372.406 45.8906 372.563 47.1562L372.656 48H367.5H362.344L362.438 47.1562C362.594 45.8906 362.203 44.9062 361.219 44.0156C360.797 43.625 360.344 43.3125 360.219 43.3125C360.031 43.3125 360 42.6406 360 39.4062V35.5H361.875H363.75V37.6094ZM368.75 36.75V38H367.5H366.25V36.75V35.5H367.5H368.75V36.75ZM359.609 45.8906C360.125 46.3906 360.125 47.1094 359.609 47.6094C359.281 47.9375 359.094 48 358.234 48H357.219L356.906 46.75L356.594 45.5H357.922C359.109 45.5 359.266 45.5312 359.609 45.8906ZM378.094 46.75L377.781 48H376.766C375.906 48 375.719 47.9375 375.391 47.6094C375.141 47.375 375 47.0469 375 46.75C375 46.4531 375.141 46.125 375.391 45.8906C375.734 45.5312 375.891 45.5 377.078 45.5H378.406L378.094 46.75ZM373.75 63V75.5H372.5H371.25V65.875C371.25 58.875 371.203 56.0625 371.063 55.625C370.797 54.7031 369.688 53.5469 368.797 53.25C367.281 52.7344 366.063 53.0156 364.922 54.1719C364.422 54.6562 364.063 55.1875 363.938 55.5938C363.797 56.0781 363.75 58.7656 363.75 65.875V75.5H362.5H361.25V63V50.5H367.5H373.75V63ZM368.359 55.8906L368.75 56.2656V65.8906V75.5H367.5H366.25V65.8906V56.2656L366.641 55.8906C366.875 55.6406 367.203 55.5 367.5 55.5C367.797 55.5 368.125 55.6406 368.359 55.8906Z" fill="#FF0000"/>
<path d="M410.391 35.8906C410.016 36.25 410 36.375 410 38C410 39.625 410.016 39.75 410.391 40.1094C410.625 40.3594 410.953 40.5 411.25 40.5C411.547 40.5 411.875 40.3594 412.109 40.1094C412.484 39.75 412.5 39.625 412.5 38C412.5 36.375 412.484 36.25 412.109 35.8906C411.875 35.6406 411.547 35.5 411.25 35.5C410.953 35.5 410.625 35.6406 410.391 35.8906Z" fill="black"/>
<path d="M410.391 35.8906C410.016 36.25 410 36.375 410 38C410 39.625 410.016 39.75 410.391 40.1094C410.625 40.3594 410.953 40.5 411.25 40.5C411.547 40.5 411.875 40.3594 412.109 40.1094C412.484 39.75 412.5 39.625 412.5 38C412.5 36.375 412.484 36.25 412.109 35.8906C411.875 35.6406 411.547 35.5 411.25 35.5C410.953 35.5 410.625 35.6406 410.391 35.8906Z" fill="#FF0000"/>
<path d="M312.44 107V96.5H317.03C318.17 96.5 319.17 96.72 320.03 97.16C320.89 97.6 321.56 98.21 322.04 98.99C322.52 99.77 322.76 100.69 322.76 101.75C322.76 102.8 322.52 103.72 322.04 104.51C321.56 105.29 320.89 105.9 320.03 106.34C319.17 106.78 318.17 107 317.03 107H312.44ZM314.39 105.35H316.94C317.73 105.35 318.41 105.2 318.98 104.9C319.56 104.6 320.005 104.18 320.315 103.64C320.635 103.1 320.795 102.47 320.795 101.75C320.795 101.02 320.635 100.39 320.315 99.86C320.005 99.32 319.56 98.9 318.98 98.6C318.41 98.3 317.73 98.15 316.94 98.15H314.39V105.35ZM328.253 107.105C327.433 107.105 326.703 106.93 326.063 106.58C325.423 106.22 324.918 105.73 324.548 105.11C324.178 104.49 323.993 103.785 323.993 102.995C323.993 102.195 324.178 101.49 324.548 100.88C324.918 100.26 325.423 99.775 326.063 99.425C326.703 99.075 327.433 98.9 328.253 98.9C329.083 98.9 329.818 99.075 330.458 99.425C331.108 99.775 331.613 100.255 331.973 100.865C332.343 101.475 332.528 102.185 332.528 102.995C332.528 103.785 332.343 104.49 331.973 105.11C331.613 105.73 331.108 106.22 330.458 106.58C329.818 106.93 329.083 107.105 328.253 107.105ZM328.253 105.5C328.713 105.5 329.123 105.4 329.483 105.2C329.843 105 330.123 104.71 330.323 104.33C330.533 103.95 330.638 103.505 330.638 102.995C330.638 102.475 330.533 102.03 330.323 101.66C330.123 101.28 329.843 100.99 329.483 100.79C329.123 100.59 328.718 100.49 328.268 100.49C327.808 100.49 327.398 100.59 327.038 100.79C326.688 100.99 326.408 101.28 326.198 101.66C325.988 102.03 325.883 102.475 325.883 102.995C325.883 103.505 325.988 103.95 326.198 104.33C326.408 104.71 326.688 105 327.038 105.2C327.398 105.4 327.803 105.5 328.253 105.5ZM337.921 107.105C337.101 107.105 336.371 106.93 335.731 106.58C335.091 106.22 334.586 105.73 334.216 105.11C333.846 104.49 333.661 103.785 333.661 102.995C333.661 102.195 333.846 101.49 334.216 100.88C334.586 100.26 335.091 99.775 335.731 99.425C336.371 99.075 337.101 98.9 337.921 98.9C338.751 98.9 339.486 99.075 340.126 99.425C340.776 99.775 341.281 100.255 341.641 100.865C342.011 101.475 342.196 102.185 342.196 102.995C342.196 103.785 342.011 104.49 341.641 105.11C341.281 105.73 340.776 106.22 340.126 106.58C339.486 106.93 338.751 107.105 337.921 107.105ZM337.921 105.5C338.381 105.5 338.791 105.4 339.151 105.2C339.511 105 339.791 104.71 339.991 104.33C340.201 103.95 340.306 103.505 340.306 102.995C340.306 102.475 340.201 102.03 339.991 101.66C339.791 101.28 339.511 100.99 339.151 100.79C338.791 100.59 338.386 100.49 337.936 100.49C337.476 100.49 337.066 100.59 336.706 100.79C336.356 100.99 336.076 101.28 335.866 101.66C335.656 102.03 335.551 102.475 335.551 102.995C335.551 103.505 335.656 103.95 335.866 104.33C336.076 104.71 336.356 105 336.706 105.2C337.066 105.4 337.471 105.5 337.921 105.5ZM343.989 107V98.99H345.774V101.195L345.564 100.55C345.804 100.01 346.179 99.6 346.689 99.32C347.209 99.04 347.854 98.9 348.624 98.9V100.685C348.544 100.665 348.469 100.655 348.399 100.655C348.329 100.645 348.259 100.64 348.189 100.64C347.479 100.64 346.914 100.85 346.494 101.27C346.074 101.68 345.864 102.295 345.864 103.115V107H343.989ZM352.763 107.105C352.093 107.105 351.448 107.02 350.828 106.85C350.218 106.67 349.733 106.455 349.373 106.205L350.093 104.78C350.453 105.01 350.883 105.2 351.383 105.35C351.883 105.5 352.383 105.575 352.883 105.575C353.473 105.575 353.898 105.495 354.158 105.335C354.428 105.175 354.563 104.96 354.563 104.69C354.563 104.47 354.473 104.305 354.293 104.195C354.113 104.075 353.878 103.985 353.588 103.925C353.298 103.865 352.973 103.81 352.613 103.76C352.263 103.71 351.908 103.645 351.548 103.565C351.198 103.475 350.878 103.35 350.588 103.19C350.298 103.02 350.063 102.795 349.883 102.515C349.703 102.235 349.613 101.865 349.613 101.405C349.613 100.895 349.758 100.455 350.048 100.085C350.338 99.705 350.743 99.415 351.263 99.215C351.793 99.005 352.418 98.9 353.138 98.9C353.678 98.9 354.223 98.96 354.773 99.08C355.323 99.2 355.778 99.37 356.138 99.59L355.418 101.015C355.038 100.785 354.653 100.63 354.263 100.55C353.883 100.46 353.503 100.415 353.123 100.415C352.553 100.415 352.128 100.5 351.848 100.67C351.578 100.84 351.443 101.055 351.443 101.315C351.443 101.555 351.533 101.735 351.713 101.855C351.893 101.975 352.128 102.07 352.418 102.14C352.708 102.21 353.028 102.27 353.378 102.32C353.738 102.36 354.093 102.425 354.443 102.515C354.793 102.605 355.113 102.73 355.403 102.89C355.703 103.04 355.943 103.255 356.123 103.535C356.303 103.815 356.393 104.18 356.393 104.63C356.393 105.13 356.243 105.565 355.943 105.935C355.653 106.305 355.238 106.595 354.698 106.805C354.158 107.005 353.513 107.105 352.763 107.105ZM361.022 107.105C360.142 107.105 359.462 106.88 358.982 106.43C358.502 105.97 358.262 105.295 358.262 104.405V97.22H360.137V104.36C360.137 104.74 360.232 105.035 360.422 105.245C360.622 105.455 360.897 105.56 361.247 105.56C361.667 105.56 362.017 105.45 362.297 105.23L362.822 106.565C362.602 106.745 362.332 106.88 362.012 106.97C361.692 107.06 361.362 107.105 361.022 107.105ZM356.942 100.55V99.05H362.282V100.55H356.942ZM367.866 107.105C366.976 107.105 366.196 106.93 365.526 106.58C364.866 106.22 364.351 105.73 363.981 105.11C363.621 104.49 363.441 103.785 363.441 102.995C363.441 102.195 363.616 101.49 363.966 100.88C364.326 100.26 364.816 99.775 365.436 99.425C366.066 99.075 366.781 98.9 367.581 98.9C368.361 98.9 369.056 99.07 369.666 99.41C370.276 99.75 370.756 100.23 371.106 100.85C371.456 101.47 371.631 102.2 371.631 103.04C371.631 103.12 371.626 103.21 371.616 103.31C371.616 103.41 371.611 103.505 371.601 103.595H364.926V102.35H370.611L369.876 102.74C369.886 102.28 369.791 101.875 369.591 101.525C369.391 101.175 369.116 100.9 368.766 100.7C368.426 100.5 368.031 100.4 367.581 100.4C367.121 100.4 366.716 100.5 366.366 100.7C366.026 100.9 365.756 101.18 365.556 101.54C365.366 101.89 365.271 102.305 365.271 102.785V103.085C365.271 103.565 365.381 103.99 365.601 104.36C365.821 104.73 366.131 105.015 366.531 105.215C366.931 105.415 367.391 105.515 367.911 105.515C368.361 105.515 368.766 105.445 369.126 105.305C369.486 105.165 369.806 104.945 370.086 104.645L371.091 105.8C370.731 106.22 370.276 106.545 369.726 106.775C369.186 106.995 368.566 107.105 367.866 107.105ZM377.872 107.105C377.222 107.105 376.627 106.955 376.087 106.655C375.557 106.355 375.132 105.905 374.812 105.305C374.502 104.695 374.347 103.925 374.347 102.995C374.347 102.055 374.497 101.285 374.797 100.685C375.107 100.085 375.527 99.64 376.057 99.35C376.587 99.05 377.192 98.9 377.872 98.9C378.662 98.9 379.357 99.07 379.957 99.41C380.567 99.75 381.047 100.225 381.397 100.835C381.757 101.445 381.937 102.165 381.937 102.995C381.937 103.825 381.757 104.55 381.397 105.17C381.047 105.78 380.567 106.255 379.957 106.595C379.357 106.935 378.662 107.105 377.872 107.105ZM373.432 109.91V98.99H375.217V100.88L375.157 103.01L375.307 105.14V109.91H373.432ZM377.662 105.5C378.112 105.5 378.512 105.4 378.862 105.2C379.222 105 379.507 104.71 379.717 104.33C379.927 103.95 380.032 103.505 380.032 102.995C380.032 102.475 379.927 102.03 379.717 101.66C379.507 101.28 379.222 100.99 378.862 100.79C378.512 100.59 378.112 100.49 377.662 100.49C377.212 100.49 376.807 100.59 376.447 100.79C376.087 100.99 375.802 101.28 375.592 101.66C375.382 102.03 375.277 102.475 375.277 102.995C375.277 103.505 375.382 103.95 375.592 104.33C375.802 104.71 376.087 105 376.447 105.2C376.807 105.4 377.212 105.5 377.662 105.5ZM386.556 107L391.281 96.5H393.201L397.941 107H395.901L391.836 97.535H392.616L388.566 107H386.556ZM388.731 104.57L389.256 103.04H394.926L395.451 104.57H388.731ZM401.498 107.105C400.828 107.105 400.183 107.02 399.563 106.85C398.953 106.67 398.468 106.455 398.108 106.205L398.828 104.78C399.188 105.01 399.618 105.2 400.118 105.35C400.618 105.5 401.118 105.575 401.618 105.575C402.208 105.575 402.633 105.495 402.893 105.335C403.163 105.175 403.298 104.96 403.298 104.69C403.298 104.47 403.208 104.305 403.028 104.195C402.848 104.075 402.613 103.985 402.323 103.925C402.033 103.865 401.708 103.81 401.348 103.76C400.998 103.71 400.643 103.645 400.283 103.565C399.933 103.475 399.613 103.35 399.323 103.19C399.033 103.02 398.798 102.795 398.618 102.515C398.438 102.235 398.348 101.865 398.348 101.405C398.348 100.895 398.493 100.455 398.783 100.085C399.073 99.705 399.478 99.415 399.998 99.215C400.528 99.005 401.153 98.9 401.873 98.9C402.413 98.9 402.958 98.96 403.508 99.08C404.058 99.2 404.513 99.37 404.873 99.59L404.153 101.015C403.773 100.785 403.388 100.63 402.998 100.55C402.618 100.46 402.238 100.415 401.858 100.415C401.288 100.415 400.863 100.5 400.583 100.67C400.313 100.84 400.178 101.055 400.178 101.315C400.178 101.555 400.268 101.735 400.448 101.855C400.628 101.975 400.863 102.07 401.153 102.14C401.443 102.21 401.763 102.27 402.113 102.32C402.473 102.36 402.828 102.425 403.178 102.515C403.528 102.605 403.848 102.73 404.138 102.89C404.438 103.04 404.678 103.255 404.858 103.535C405.038 103.815 405.128 104.18 405.128 104.63C405.128 105.13 404.978 105.565 404.678 105.935C404.388 106.305 403.973 106.595 403.433 106.805C402.893 107.005 402.248 107.105 401.498 107.105ZM409.218 107.105C408.548 107.105 407.903 107.02 407.283 106.85C406.673 106.67 406.188 106.455 405.828 106.205L406.548 104.78C406.908 105.01 407.338 105.2 407.838 105.35C408.338 105.5 408.838 105.575 409.338 105.575C409.928 105.575 410.353 105.495 410.613 105.335C410.883 105.175 411.018 104.96 411.018 104.69C411.018 104.47 410.928 104.305 410.748 104.195C410.568 104.075 410.333 103.985 410.043 103.925C409.753 103.865 409.428 103.81 409.068 103.76C408.718 103.71 408.363 103.645 408.003 103.565C407.653 103.475 407.333 103.35 407.043 103.19C406.753 103.02 406.518 102.795 406.338 102.515C406.158 102.235 406.068 101.865 406.068 101.405C406.068 100.895 406.213 100.455 406.503 100.085C406.793 99.705 407.198 99.415 407.718 99.215C408.248 99.005 408.873 98.9 409.593 98.9C410.133 98.9 410.678 98.96 411.228 99.08C411.778 99.2 412.233 99.37 412.593 99.59L411.873 101.015C411.493 100.785 411.108 100.63 410.718 100.55C410.338 100.46 409.958 100.415 409.578 100.415C409.008 100.415 408.583 100.5 408.303 100.67C408.033 100.84 407.898 101.055 407.898 101.315C407.898 101.555 407.988 101.735 408.168 101.855C408.348 101.975 408.583 102.07 408.873 102.14C409.163 102.21 409.483 102.27 409.833 102.32C410.193 102.36 410.548 102.425 410.898 102.515C411.248 102.605 411.568 102.73 411.858 102.89C412.158 103.04 412.398 103.255 412.578 103.535C412.758 103.815 412.848 104.18 412.848 104.63C412.848 105.13 412.698 105.565 412.398 105.935C412.108 106.305 411.693 106.595 411.153 106.805C410.613 107.005 409.968 107.105 409.218 107.105ZM414.462 107V98.99H416.337V107H414.462ZM415.407 97.67C415.057 97.67 414.767 97.56 414.537 97.34C414.317 97.12 414.207 96.855 414.207 96.545C414.207 96.225 414.317 95.96 414.537 95.75C414.767 95.53 415.057 95.42 415.407 95.42C415.757 95.42 416.042 95.525 416.262 95.735C416.492 95.935 416.607 96.19 416.607 96.5C416.607 96.83 416.497 97.11 416.277 97.34C416.057 97.56 415.767 97.67 415.407 97.67ZM421.273 107.105C420.603 107.105 419.958 107.02 419.338 106.85C418.728 106.67 418.243 106.455 417.883 106.205L418.603 104.78C418.963 105.01 419.393 105.2 419.893 105.35C420.393 105.5 420.893 105.575 421.393 105.575C421.983 105.575 422.408 105.495 422.668 105.335C422.938 105.175 423.073 104.96 423.073 104.69C423.073 104.47 422.983 104.305 422.803 104.195C422.623 104.075 422.388 103.985 422.098 103.925C421.808 103.865 421.483 103.81 421.123 103.76C420.773 103.71 420.418 103.645 420.058 103.565C419.708 103.475 419.388 103.35 419.098 103.19C418.808 103.02 418.573 102.795 418.393 102.515C418.213 102.235 418.123 101.865 418.123 101.405C418.123 100.895 418.268 100.455 418.558 100.085C418.848 99.705 419.253 99.415 419.773 99.215C420.303 99.005 420.928 98.9 421.648 98.9C422.188 98.9 422.733 98.96 423.283 99.08C423.833 99.2 424.288 99.37 424.648 99.59L423.928 101.015C423.548 100.785 423.163 100.63 422.773 100.55C422.393 100.46 422.013 100.415 421.633 100.415C421.063 100.415 420.638 100.5 420.358 100.67C420.088 100.84 419.953 101.055 419.953 101.315C419.953 101.555 420.043 101.735 420.223 101.855C420.403 101.975 420.638 102.07 420.928 102.14C421.218 102.21 421.538 102.27 421.888 102.32C422.248 102.36 422.603 102.425 422.953 102.515C423.303 102.605 423.623 102.73 423.913 102.89C424.213 103.04 424.453 103.255 424.633 103.535C424.813 103.815 424.903 104.18 424.903 104.63C424.903 105.13 424.753 105.565 424.453 105.935C424.163 106.305 423.748 106.595 423.208 106.805C422.668 107.005 422.023 107.105 421.273 107.105ZM429.533 107.105C428.653 107.105 427.973 106.88 427.493 106.43C427.013 105.97 426.773 105.295 426.773 104.405V97.22H428.648V104.36C428.648 104.74 428.743 105.035 428.933 105.245C429.133 105.455 429.408 105.56 429.758 105.56C430.178 105.56 430.528 105.45 430.808 105.23L431.333 106.565C431.113 106.745 430.843 106.88 430.523 106.97C430.203 107.06 429.873 107.105 429.533 107.105ZM425.453 100.55V99.05H430.793V100.55H425.453ZM437.811 107V105.38L437.706 105.035V102.2C437.706 101.65 437.541 101.225 437.211 100.925C436.881 100.615 436.381 100.46 435.711 100.46C435.261 100.46 434.816 100.53 434.376 100.67C433.946 100.81 433.581 101.005 433.281 101.255L432.546 99.89C432.976 99.56 433.486 99.315 434.076 99.155C434.676 98.985 435.296 98.9 435.936 98.9C437.096 98.9 437.991 99.18 438.621 99.74C439.261 100.29 439.581 101.145 439.581 102.305V107H437.811ZM435.291 107.105C434.691 107.105 434.166 107.005 433.716 106.805C433.266 106.595 432.916 106.31 432.666 105.95C432.426 105.58 432.306 105.165 432.306 104.705C432.306 104.255 432.411 103.85 432.621 103.49C432.841 103.13 433.196 102.845 433.686 102.635C434.176 102.425 434.826 102.32 435.636 102.32H437.961V103.565H435.771C435.131 103.565 434.701 103.67 434.481 103.88C434.261 104.08 434.151 104.33 434.151 104.63C434.151 104.97 434.286 105.24 434.556 105.44C434.826 105.64 435.201 105.74 435.681 105.74C436.141 105.74 436.551 105.635 436.911 105.425C437.281 105.215 437.546 104.905 437.706 104.495L438.021 105.62C437.841 106.09 437.516 106.455 437.046 106.715C436.586 106.975 436.001 107.105 435.291 107.105ZM446.532 98.9C447.172 98.9 447.742 99.025 448.242 99.275C448.752 99.525 449.152 99.91 449.442 100.43C449.732 100.94 449.877 101.6 449.877 102.41V107H448.002V102.65C448.002 101.94 447.832 101.41 447.492 101.06C447.162 100.71 446.697 100.535 446.097 100.535C445.657 100.535 445.267 100.625 444.927 100.805C444.587 100.985 444.322 101.255 444.132 101.615C443.952 101.965 443.862 102.41 443.862 102.95V107H441.987V98.99H443.772V101.15L443.457 100.49C443.737 99.98 444.142 99.59 444.672 99.32C445.212 99.04 445.832 98.9 446.532 98.9ZM455.945 107.105C455.105 107.105 454.355 106.93 453.695 106.58C453.045 106.22 452.535 105.73 452.165 105.11C451.795 104.49 451.61 103.785 451.61 102.995C451.61 102.195 451.795 101.49 452.165 100.88C452.535 100.26 453.045 99.775 453.695 99.425C454.355 99.075 455.105 98.9 455.945 98.9C456.725 98.9 457.41 99.06 458 99.38C458.6 99.69 459.055 100.15 459.365 100.76L457.925 101.6C457.685 101.22 457.39 100.94 457.04 100.76C456.7 100.58 456.33 100.49 455.93 100.49C455.47 100.49 455.055 100.59 454.685 100.79C454.315 100.99 454.025 101.28 453.815 101.66C453.605 102.03 453.5 102.475 453.5 102.995C453.5 103.515 453.605 103.965 453.815 104.345C454.025 104.715 454.315 105 454.685 105.2C455.055 105.4 455.47 105.5 455.93 105.5C456.33 105.5 456.7 105.41 457.04 105.23C457.39 105.05 457.685 104.77 457.925 104.39L459.365 105.23C459.055 105.83 458.6 106.295 458 106.625C457.41 106.945 456.725 107.105 455.945 107.105ZM464.634 107.105C463.744 107.105 462.964 106.93 462.294 106.58C461.634 106.22 461.119 105.73 460.749 105.11C460.389 104.49 460.209 103.785 460.209 102.995C460.209 102.195 460.384 101.49 460.734 100.88C461.094 100.26 461.584 99.775 462.204 99.425C462.834 99.075 463.549 98.9 464.349 98.9C465.129 98.9 465.824 99.07 466.434 99.41C467.044 99.75 467.524 100.23 467.874 100.85C468.224 101.47 468.399 102.2 468.399 103.04C468.399 103.12 468.394 103.21 468.384 103.31C468.384 103.41 468.379 103.505 468.369 103.595H461.694V102.35H467.379L466.644 102.74C466.654 102.28 466.559 101.875 466.359 101.525C466.159 101.175 465.884 100.9 465.534 100.7C465.194 100.5 464.799 100.4 464.349 100.4C463.889 100.4 463.484 100.5 463.134 100.7C462.794 100.9 462.524 101.18 462.324 101.54C462.134 101.89 462.039 102.305 462.039 102.785V103.085C462.039 103.565 462.149 103.99 462.369 104.36C462.589 104.73 462.899 105.015 463.299 105.215C463.699 105.415 464.159 105.515 464.679 105.515C465.129 105.515 465.534 105.445 465.894 105.305C466.254 105.165 466.574 104.945 466.854 104.645L467.859 105.8C467.499 106.22 467.044 106.545 466.494 106.775C465.954 106.995 465.334 107.105 464.634 107.105Z" fill="black"/>
<path d="M499.229 107V96.5H503.549C504.479 96.5 505.274 96.65 505.934 96.95C506.604 97.25 507.119 97.68 507.479 98.24C507.839 98.8 508.019 99.465 508.019 100.235C508.019 101.005 507.839 101.67 507.479 102.23C507.119 102.79 506.604 103.22 505.934 103.52C505.274 103.82 504.479 103.97 503.549 103.97H500.309L501.179 103.055V107H499.229ZM501.179 103.265L500.309 102.32H503.459C504.319 102.32 504.964 102.14 505.394 101.78C505.834 101.41 506.054 100.895 506.054 100.235C506.054 99.565 505.834 99.05 505.394 98.69C504.964 98.33 504.319 98.15 503.459 98.15H500.309L501.179 97.19V103.265ZM509.713 107V98.99H511.498V101.195L511.288 100.55C511.528 100.01 511.903 99.6 512.413 99.32C512.933 99.04 513.578 98.9 514.348 98.9V100.685C514.268 100.665 514.193 100.655 514.123 100.655C514.053 100.645 513.983 100.64 513.913 100.64C513.203 100.64 512.638 100.85 512.218 101.27C511.798 101.68 511.588 102.295 511.588 103.115V107H509.713ZM519.631 107.105C518.741 107.105 517.961 106.93 517.291 106.58C516.631 106.22 516.116 105.73 515.746 105.11C515.386 104.49 515.206 103.785 515.206 102.995C515.206 102.195 515.381 101.49 515.731 100.88C516.091 100.26 516.581 99.775 517.201 99.425C517.831 99.075 518.546 98.9 519.346 98.9C520.126 98.9 520.821 99.07 521.431 99.41C522.041 99.75 522.521 100.23 522.871 100.85C523.221 101.47 523.396 102.2 523.396 103.04C523.396 103.12 523.391 103.21 523.381 103.31C523.381 103.41 523.376 103.505 523.366 103.595H516.691V102.35H522.376L521.641 102.74C521.651 102.28 521.556 101.875 521.356 101.525C521.156 101.175 520.881 100.9 520.531 100.7C520.191 100.5 519.796 100.4 519.346 100.4C518.886 100.4 518.481 100.5 518.131 100.7C517.791 100.9 517.521 101.18 517.321 101.54C517.131 101.89 517.036 102.305 517.036 102.785V103.085C517.036 103.565 517.146 103.99 517.366 104.36C517.586 104.73 517.896 105.015 518.296 105.215C518.696 105.415 519.156 105.515 519.676 105.515C520.126 105.515 520.531 105.445 520.891 105.305C521.251 105.165 521.571 104.945 521.851 104.645L522.856 105.8C522.496 106.22 522.041 106.545 521.491 106.775C520.951 106.995 520.331 107.105 519.631 107.105ZM535.307 98.9C535.947 98.9 536.512 99.025 537.002 99.275C537.502 99.525 537.892 99.91 538.172 100.43C538.452 100.94 538.592 101.6 538.592 102.41V107H536.717V102.65C536.717 101.94 536.562 101.41 536.252 101.06C535.942 100.71 535.497 100.535 534.917 100.535C534.507 100.535 534.142 100.625 533.822 100.805C533.512 100.985 533.267 101.25 533.087 101.6C532.917 101.95 532.832 102.395 532.832 102.935V107H530.957V102.65C530.957 101.94 530.802 101.41 530.492 101.06C530.182 100.71 529.737 100.535 529.157 100.535C528.747 100.535 528.382 100.625 528.062 100.805C527.752 100.985 527.507 101.25 527.327 101.6C527.157 101.95 527.072 102.395 527.072 102.935V107H525.197V98.99H526.982V101.12L526.667 100.49C526.937 99.97 527.327 99.575 527.837 99.305C528.357 99.035 528.947 98.9 529.607 98.9C530.357 98.9 531.007 99.085 531.557 99.455C532.117 99.825 532.487 100.385 532.667 101.135L531.932 100.88C532.192 100.28 532.622 99.8 533.222 99.44C533.822 99.08 534.517 98.9 535.307 98.9ZM540.988 107V98.99H542.863V107H540.988ZM541.933 97.67C541.583 97.67 541.293 97.56 541.063 97.34C540.843 97.12 540.733 96.855 540.733 96.545C540.733 96.225 540.843 95.96 541.063 95.75C541.293 95.53 541.583 95.42 541.933 95.42C542.283 95.42 542.568 95.525 542.788 95.735C543.018 95.935 543.133 96.19 543.133 96.5C543.133 96.83 543.023 97.11 542.803 97.34C542.583 97.56 542.293 97.67 541.933 97.67ZM548.714 107.105C548.034 107.105 547.434 106.98 546.914 106.73C546.394 106.47 545.989 106.08 545.699 105.56C545.409 105.03 545.264 104.365 545.264 103.565V98.99H547.139V103.31C547.139 104.03 547.299 104.57 547.619 104.93C547.949 105.28 548.414 105.455 549.014 105.455C549.454 105.455 549.834 105.365 550.154 105.185C550.484 105.005 550.739 104.735 550.919 104.375C551.109 104.015 551.204 103.57 551.204 103.04V98.99H553.079V107H551.294V104.84L551.609 105.5C551.339 106.02 550.944 106.42 550.424 106.7C549.904 106.97 549.334 107.105 548.714 107.105ZM565.644 98.9C566.284 98.9 566.849 99.025 567.339 99.275C567.839 99.525 568.229 99.91 568.509 100.43C568.789 100.94 568.929 101.6 568.929 102.41V107H567.054V102.65C567.054 101.94 566.899 101.41 566.589 101.06C566.279 100.71 565.834 100.535 565.254 100.535C564.844 100.535 564.479 100.625 564.159 100.805C563.849 100.985 563.604 101.25 563.424 101.6C563.254 101.95 563.169 102.395 563.169 102.935V107H561.294V102.65C561.294 101.94 561.139 101.41 560.829 101.06C560.519 100.71 560.074 100.535 559.494 100.535C559.084 100.535 558.719 100.625 558.399 100.805C558.089 100.985 557.844 101.25 557.664 101.6C557.494 101.95 557.409 102.395 557.409 102.935V107H555.534V98.99H557.319V101.12L557.004 100.49C557.274 99.97 557.664 99.575 558.174 99.305C558.694 99.035 559.284 98.9 559.944 98.9C560.694 98.9 561.344 99.085 561.894 99.455C562.454 99.825 562.824 100.385 563.004 101.135L562.269 100.88C562.529 100.28 562.959 99.8 563.559 99.44C564.159 99.08 564.854 98.9 565.644 98.9ZM578.905 107.15C578.085 107.15 577.3 107.035 576.55 106.805C575.8 106.565 575.205 106.26 574.765 105.89L575.44 104.375C575.86 104.705 576.38 104.98 577 105.2C577.62 105.42 578.255 105.53 578.905 105.53C579.455 105.53 579.9 105.47 580.24 105.35C580.58 105.23 580.83 105.07 580.99 104.87C581.15 104.66 581.23 104.425 581.23 104.165C581.23 103.845 581.115 103.59 580.885 103.4C580.655 103.2 580.355 103.045 579.985 102.935C579.625 102.815 579.22 102.705 578.77 102.605C578.33 102.505 577.885 102.39 577.435 102.26C576.995 102.12 576.59 101.945 576.22 101.735C575.86 101.515 575.565 101.225 575.335 100.865C575.105 100.505 574.99 100.045 574.99 99.485C574.99 98.915 575.14 98.395 575.44 97.925C575.75 97.445 576.215 97.065 576.835 96.785C577.465 96.495 578.26 96.35 579.22 96.35C579.85 96.35 580.475 96.43 581.095 96.59C581.715 96.75 582.255 96.98 582.715 97.28L582.1 98.795C581.63 98.515 581.145 98.31 580.645 98.18C580.145 98.04 579.665 97.97 579.205 97.97C578.665 97.97 578.225 98.035 577.885 98.165C577.555 98.295 577.31 98.465 577.15 98.675C577 98.885 576.925 99.125 576.925 99.395C576.925 99.715 577.035 99.975 577.255 100.175C577.485 100.365 577.78 100.515 578.14 100.625C578.51 100.735 578.92 100.845 579.37 100.955C579.82 101.055 580.265 101.17 580.705 101.3C581.155 101.43 581.56 101.6 581.92 101.81C582.29 102.02 582.585 102.305 582.805 102.665C583.035 103.025 583.15 103.48 583.15 104.03C583.15 104.59 582.995 105.11 582.685 105.59C582.385 106.06 581.92 106.44 581.29 106.73C580.66 107.01 579.865 107.15 578.905 107.15ZM588.669 107.105C587.779 107.105 586.999 106.93 586.329 106.58C585.669 106.22 585.154 105.73 584.784 105.11C584.424 104.49 584.244 103.785 584.244 102.995C584.244 102.195 584.419 101.49 584.769 100.88C585.129 100.26 585.619 99.775 586.239 99.425C586.869 99.075 587.584 98.9 588.384 98.9C589.164 98.9 589.859 99.07 590.469 99.41C591.079 99.75 591.559 100.23 591.909 100.85C592.259 101.47 592.434 102.2 592.434 103.04C592.434 103.12 592.429 103.21 592.419 103.31C592.419 103.41 592.414 103.505 592.404 103.595H585.729V102.35H591.414L590.679 102.74C590.689 102.28 590.594 101.875 590.394 101.525C590.194 101.175 589.919 100.9 589.569 100.7C589.229 100.5 588.834 100.4 588.384 100.4C587.924 100.4 587.519 100.5 587.169 100.7C586.829 100.9 586.559 101.18 586.359 101.54C586.169 101.89 586.074 102.305 586.074 102.785V103.085C586.074 103.565 586.184 103.99 586.404 104.36C586.624 104.73 586.934 105.015 587.334 105.215C587.734 105.415 588.194 105.515 588.714 105.515C589.164 105.515 589.569 105.445 589.929 105.305C590.289 105.165 590.609 104.945 590.889 104.645L591.894 105.8C591.534 106.22 591.079 106.545 590.529 106.775C589.989 106.995 589.369 107.105 588.669 107.105ZM594.235 107V98.99H596.02V101.195L595.81 100.55C596.05 100.01 596.425 99.6 596.935 99.32C597.455 99.04 598.1 98.9 598.87 98.9V100.685C598.79 100.665 598.715 100.655 598.645 100.655C598.575 100.645 598.505 100.64 598.435 100.64C597.725 100.64 597.16 100.85 596.74 101.27C596.32 101.68 596.11 102.295 596.11 103.115V107H594.235ZM602.883 107L599.448 98.99H601.398L604.353 106.055H603.393L606.453 98.99H608.253L604.818 107H602.883ZM609.425 107V98.99H611.3V107H609.425ZM610.37 97.67C610.02 97.67 609.73 97.56 609.5 97.34C609.28 97.12 609.17 96.855 609.17 96.545C609.17 96.225 609.28 95.96 609.5 95.75C609.73 95.53 610.02 95.42 610.37 95.42C610.72 95.42 611.005 95.525 611.225 95.735C611.455 95.935 611.57 96.19 611.57 96.5C611.57 96.83 611.46 97.11 611.24 97.34C611.02 97.56 610.73 97.67 610.37 97.67ZM617.436 107.105C616.596 107.105 615.846 106.93 615.186 106.58C614.536 106.22 614.026 105.73 613.656 105.11C613.286 104.49 613.101 103.785 613.101 102.995C613.101 102.195 613.286 101.49 613.656 100.88C614.026 100.26 614.536 99.775 615.186 99.425C615.846 99.075 616.596 98.9 617.436 98.9C618.216 98.9 618.901 99.06 619.491 99.38C620.091 99.69 620.546 100.15 620.856 100.76L619.416 101.6C619.176 101.22 618.881 100.94 618.531 100.76C618.191 100.58 617.821 100.49 617.421 100.49C616.961 100.49 616.546 100.59 616.176 100.79C615.806 100.99 615.516 101.28 615.306 101.66C615.096 102.03 614.991 102.475 614.991 102.995C614.991 103.515 615.096 103.965 615.306 104.345C615.516 104.715 615.806 105 616.176 105.2C616.546 105.4 616.961 105.5 617.421 105.5C617.821 105.5 618.191 105.41 618.531 105.23C618.881 105.05 619.176 104.77 619.416 104.39L620.856 105.23C620.546 105.83 620.091 106.295 619.491 106.625C618.901 106.945 618.216 107.105 617.436 107.105ZM626.125 107.105C625.235 107.105 624.455 106.93 623.785 106.58C623.125 106.22 622.61 105.73 622.24 105.11C621.88 104.49 621.7 103.785 621.7 102.995C621.7 102.195 621.875 101.49 622.225 100.88C622.585 100.26 623.075 99.775 623.695 99.425C624.325 99.075 625.04 98.9 625.84 98.9C626.62 98.9 627.315 99.07 627.925 99.41C628.535 99.75 629.015 100.23 629.365 100.85C629.715 101.47 629.89 102.2 629.89 103.04C629.89 103.12 629.885 103.21 629.875 103.31C629.875 103.41 629.87 103.505 629.86 103.595H623.185V102.35H628.87L628.135 102.74C628.145 102.28 628.05 101.875 627.85 101.525C627.65 101.175 627.375 100.9 627.025 100.7C626.685 100.5 626.29 100.4 625.84 100.4C625.38 100.4 624.975 100.5 624.625 100.7C624.285 100.9 624.015 101.18 623.815 101.54C623.625 101.89 623.53 102.305 623.53 102.785V103.085C623.53 103.565 623.64 103.99 623.86 104.36C624.08 104.73 624.39 105.015 624.79 105.215C625.19 105.415 625.65 105.515 626.17 105.515C626.62 105.515 627.025 105.445 627.385 105.305C627.745 105.165 628.065 104.945 628.345 104.645L629.35 105.8C628.99 106.22 628.535 106.545 627.985 106.775C627.445 106.995 626.825 107.105 626.125 107.105ZM634.166 107.105C633.496 107.105 632.851 107.02 632.231 106.85C631.621 106.67 631.136 106.455 630.776 106.205L631.496 104.78C631.856 105.01 632.286 105.2 632.786 105.35C633.286 105.5 633.786 105.575 634.286 105.575C634.876 105.575 635.301 105.495 635.561 105.335C635.831 105.175 635.966 104.96 635.966 104.69C635.966 104.47 635.876 104.305 635.696 104.195C635.516 104.075 635.281 103.985 634.991 103.925C634.701 103.865 634.376 103.81 634.016 103.76C633.666 103.71 633.311 103.645 632.951 103.565C632.601 103.475 632.281 103.35 631.991 103.19C631.701 103.02 631.466 102.795 631.286 102.515C631.106 102.235 631.016 101.865 631.016 101.405C631.016 100.895 631.161 100.455 631.451 100.085C631.741 99.705 632.146 99.415 632.666 99.215C633.196 99.005 633.821 98.9 634.541 98.9C635.081 98.9 635.626 98.96 636.176 99.08C636.726 99.2 637.181 99.37 637.541 99.59L636.821 101.015C636.441 100.785 636.056 100.63 635.666 100.55C635.286 100.46 634.906 100.415 634.526 100.415C633.956 100.415 633.531 100.5 633.251 100.67C632.981 100.84 632.846 101.055 632.846 101.315C632.846 101.555 632.936 101.735 633.116 101.855C633.296 101.975 633.531 102.07 633.821 102.14C634.111 102.21 634.431 102.27 634.781 102.32C635.141 102.36 635.496 102.425 635.846 102.515C636.196 102.605 636.516 102.73 636.806 102.89C637.106 103.04 637.346 103.255 637.526 103.535C637.706 103.815 637.796 104.18 637.796 104.63C637.796 105.13 637.646 105.565 637.346 105.935C637.056 106.305 636.641 106.595 636.101 106.805C635.561 107.005 634.916 107.105 634.166 107.105Z" fill="black"/>
</svg>
