<svg width="604" height="108" viewBox="0 0 604 108" fill="none" xmlns="http://www.w3.org/2000/svg">
<path d="M20.5522 104.15C19.7322 104.15 18.9772 104.015 18.2872 103.745C17.5972 103.475 16.9972 103.1 16.4872 102.62C15.9772 102.13 15.5822 101.56 15.3022 100.91C15.0222 100.25 14.8822 99.53 14.8822 98.75C14.8822 97.97 15.0222 97.255 15.3022 96.605C15.5822 95.945 15.9772 95.375 16.4872 94.895C16.9972 94.405 17.5972 94.025 18.2872 93.755C18.9772 93.485 19.7272 93.35 20.5372 93.35C21.3572 93.35 22.1072 93.485 22.7872 93.755C23.4772 94.025 24.0772 94.405 24.5872 94.895C25.0972 95.375 25.4922 95.945 25.7722 96.605C26.0522 97.255 26.1922 97.97 26.1922 98.75C26.1922 99.53 26.0522 100.25 25.7722 100.91C25.4922 101.57 25.0972 102.14 24.5872 102.62C24.0772 103.1 23.4772 103.475 22.7872 103.745C22.1072 104.015 21.3622 104.15 20.5522 104.15ZM20.5372 102.44C21.0672 102.44 21.5572 102.35 22.0072 102.17C22.4572 101.99 22.8472 101.735 23.1772 101.405C23.5072 101.065 23.7622 100.675 23.9422 100.235C24.1322 99.785 24.2272 99.29 24.2272 98.75C24.2272 98.21 24.1322 97.72 23.9422 97.28C23.7622 96.83 23.5072 96.44 23.1772 96.11C22.8472 95.77 22.4572 95.51 22.0072 95.33C21.5572 95.15 21.0672 95.06 20.5372 95.06C20.0072 95.06 19.5172 95.15 19.0672 95.33C18.6272 95.51 18.2372 95.77 17.8972 96.11C17.5672 96.44 17.3072 96.83 17.1172 97.28C16.9372 97.72 16.8472 98.21 16.8472 98.75C16.8472 99.28 16.9372 99.77 17.1172 100.22C17.3072 100.67 17.5672 101.065 17.8972 101.405C18.2272 101.735 18.6172 101.99 19.0672 102.17C19.5172 102.35 20.0072 102.44 20.5372 102.44ZM29.8491 104L26.9091 95.99H28.6791L31.1991 103.055H30.3591L32.9991 95.99H34.5741L37.1391 103.055H36.3141L38.9091 95.99H40.5741L37.6191 104H35.8191L33.4791 97.745H34.0341L31.6491 104H29.8491ZM46.4083 95.9C47.0483 95.9 47.6183 96.025 48.1183 96.275C48.6283 96.525 49.0283 96.91 49.3183 97.43C49.6083 97.94 49.7533 98.6 49.7533 99.41V104H47.8783V99.65C47.8783 98.94 47.7083 98.41 47.3683 98.06C47.0383 97.71 46.5733 97.535 45.9733 97.535C45.5333 97.535 45.1433 97.625 44.8033 97.805C44.4633 97.985 44.1983 98.255 44.0083 98.615C43.8283 98.965 43.7383 99.41 43.7383 99.95V104H41.8633V95.99H43.6483V98.15L43.3333 97.49C43.6133 96.98 44.0183 96.59 44.5483 96.32C45.0883 96.04 45.7083 95.9 46.4083 95.9ZM56.4574 104V93.5H61.3774C62.6374 93.5 63.5974 93.75 64.2574 94.25C64.9174 94.74 65.2474 95.4 65.2474 96.23C65.2474 96.79 65.1174 97.27 64.8574 97.67C64.5974 98.06 64.2474 98.365 63.8074 98.585C63.3774 98.795 62.9074 98.9 62.3974 98.9L62.6674 98.36C63.2574 98.36 63.7874 98.47 64.2574 98.69C64.7274 98.9 65.0974 99.21 65.3674 99.62C65.6474 100.03 65.7874 100.54 65.7874 101.15C65.7874 102.05 65.4424 102.75 64.7524 103.25C64.0624 103.75 63.0374 104 61.6774 104H56.4574ZM58.4074 102.47H61.5574C62.2874 102.47 62.8474 102.35 63.2374 102.11C63.6274 101.87 63.8224 101.485 63.8224 100.955C63.8224 100.435 63.6274 100.055 63.2374 99.815C62.8474 99.565 62.2874 99.44 61.5574 99.44H58.2574V97.925H61.1674C61.8474 97.925 62.3674 97.805 62.7274 97.565C63.0974 97.325 63.2824 96.965 63.2824 96.485C63.2824 95.995 63.0974 95.63 62.7274 95.39C62.3674 95.15 61.8474 95.03 61.1674 95.03H58.4074V102.47ZM71.0785 104.105C70.3985 104.105 69.7985 103.98 69.2785 103.73C68.7585 103.47 68.3535 103.08 68.0635 102.56C67.7735 102.03 67.6285 101.365 67.6285 100.565V95.99H69.5035V100.31C69.5035 101.03 69.6635 101.57 69.9835 101.93C70.3135 102.28 70.7785 102.455 71.3785 102.455C71.8185 102.455 72.1985 102.365 72.5185 102.185C72.8485 102.005 73.1035 101.735 73.2835 101.375C73.4735 101.015 73.5685 100.57 73.5685 100.04V95.99H75.4435V104H73.6585V101.84L73.9735 102.5C73.7035 103.02 73.3085 103.42 72.7885 103.7C72.2685 103.97 71.6985 104.105 71.0785 104.105ZM80.3735 104.105C79.7035 104.105 79.0585 104.02 78.4385 103.85C77.8285 103.67 77.3435 103.455 76.9835 103.205L77.7035 101.78C78.0635 102.01 78.4935 102.2 78.9935 102.35C79.4935 102.5 79.9935 102.575 80.4935 102.575C81.0835 102.575 81.5085 102.495 81.7685 102.335C82.0385 102.175 82.1735 101.96 82.1735 101.69C82.1735 101.47 82.0835 101.305 81.9035 101.195C81.7235 101.075 81.4885 100.985 81.1985 100.925C80.9085 100.865 80.5835 100.81 80.2235 100.76C79.8735 100.71 79.5185 100.645 79.1585 100.565C78.8085 100.475 78.4885 100.35 78.1985 100.19C77.9085 100.02 77.6735 99.795 77.4935 99.515C77.3135 99.235 77.2235 98.865 77.2235 98.405C77.2235 97.895 77.3685 97.455 77.6585 97.085C77.9485 96.705 78.3535 96.415 78.8735 96.215C79.4035 96.005 80.0285 95.9 80.7485 95.9C81.2885 95.9 81.8335 95.96 82.3835 96.08C82.9335 96.2 83.3885 96.37 83.7485 96.59L83.0285 98.015C82.6485 97.785 82.2635 97.63 81.8735 97.55C81.4935 97.46 81.1135 97.415 80.7335 97.415C80.1635 97.415 79.7385 97.5 79.4585 97.67C79.1885 97.84 79.0535 98.055 79.0535 98.315C79.0535 98.555 79.1435 98.735 79.3235 98.855C79.5035 98.975 79.7385 99.07 80.0285 99.14C80.3185 99.21 80.6385 99.27 80.9885 99.32C81.3485 99.36 81.7035 99.425 82.0535 99.515C82.4035 99.605 82.7235 99.73 83.0135 99.89C83.3135 100.04 83.5535 100.255 83.7335 100.535C83.9135 100.815 84.0035 101.18 84.0035 101.63C84.0035 102.13 83.8535 102.565 83.5535 102.935C83.2635 103.305 82.8485 103.595 82.3085 103.805C81.7685 104.005 81.1235 104.105 80.3735 104.105ZM85.6182 104V95.99H87.4932V104H85.6182ZM86.5632 94.67C86.2132 94.67 85.9232 94.56 85.6932 94.34C85.4732 94.12 85.3632 93.855 85.3632 93.545C85.3632 93.225 85.4732 92.96 85.6932 92.75C85.9232 92.53 86.2132 92.42 86.5632 92.42C86.9132 92.42 87.1982 92.525 87.4182 92.735C87.6482 92.935 87.7632 93.19 87.7632 93.5C87.7632 93.83 87.6532 94.11 87.4332 94.34C87.2132 94.56 86.9232 94.67 86.5632 94.67ZM94.4991 95.9C95.1391 95.9 95.7091 96.025 96.2091 96.275C96.7191 96.525 97.1191 96.91 97.4091 97.43C97.6991 97.94 97.8441 98.6 97.8441 99.41V104H95.9691V99.65C95.9691 98.94 95.7991 98.41 95.4591 98.06C95.1291 97.71 94.6641 97.535 94.0641 97.535C93.6241 97.535 93.2341 97.625 92.8941 97.805C92.5541 97.985 92.2891 98.255 92.0991 98.615C91.9191 98.965 91.8291 99.41 91.8291 99.95V104H89.9541V95.99H91.7391V98.15L91.4241 97.49C91.7041 96.98 92.1091 96.59 92.6391 96.32C93.1791 96.04 93.7991 95.9 94.4991 95.9ZM104.002 104.105C103.112 104.105 102.332 103.93 101.662 103.58C101.002 103.22 100.487 102.73 100.117 102.11C99.7573 101.49 99.5773 100.785 99.5773 99.995C99.5773 99.195 99.7523 98.49 100.102 97.88C100.462 97.26 100.952 96.775 101.572 96.425C102.202 96.075 102.917 95.9 103.717 95.9C104.497 95.9 105.192 96.07 105.802 96.41C106.412 96.75 106.892 97.23 107.242 97.85C107.592 98.47 107.767 99.2 107.767 100.04C107.767 100.12 107.762 100.21 107.752 100.31C107.752 100.41 107.747 100.505 107.737 100.595H101.062V99.35H106.747L106.012 99.74C106.022 99.28 105.927 98.875 105.727 98.525C105.527 98.175 105.252 97.9 104.902 97.7C104.562 97.5 104.167 97.4 103.717 97.4C103.257 97.4 102.852 97.5 102.502 97.7C102.162 97.9 101.892 98.18 101.692 98.54C101.502 98.89 101.407 99.305 101.407 99.785V100.085C101.407 100.565 101.517 100.99 101.737 101.36C101.957 101.73 102.267 102.015 102.667 102.215C103.067 102.415 103.527 102.515 104.047 102.515C104.497 102.515 104.902 102.445 105.262 102.305C105.622 102.165 105.942 101.945 106.222 101.645L107.227 102.8C106.867 103.22 106.412 103.545 105.862 103.775C105.322 103.995 104.702 104.105 104.002 104.105ZM112.043 104.105C111.373 104.105 110.728 104.02 110.108 103.85C109.498 103.67 109.013 103.455 108.653 103.205L109.373 101.78C109.733 102.01 110.163 102.2 110.663 102.35C111.163 102.5 111.663 102.575 112.163 102.575C112.753 102.575 113.178 102.495 113.438 102.335C113.708 102.175 113.843 101.96 113.843 101.69C113.843 101.47 113.753 101.305 113.573 101.195C113.393 101.075 113.158 100.985 112.868 100.925C112.578 100.865 112.253 100.81 111.893 100.76C111.543 100.71 111.188 100.645 110.828 100.565C110.478 100.475 110.158 100.35 109.868 100.19C109.578 100.02 109.343 99.795 109.163 99.515C108.983 99.235 108.893 98.865 108.893 98.405C108.893 97.895 109.038 97.455 109.328 97.085C109.618 96.705 110.023 96.415 110.543 96.215C111.073 96.005 111.698 95.9 112.418 95.9C112.958 95.9 113.503 95.96 114.053 96.08C114.603 96.2 115.058 96.37 115.418 96.59L114.698 98.015C114.318 97.785 113.933 97.63 113.543 97.55C113.163 97.46 112.783 97.415 112.403 97.415C111.833 97.415 111.408 97.5 111.128 97.67C110.858 97.84 110.723 98.055 110.723 98.315C110.723 98.555 110.813 98.735 110.993 98.855C111.173 98.975 111.408 99.07 111.698 99.14C111.988 99.21 112.308 99.27 112.658 99.32C113.018 99.36 113.373 99.425 113.723 99.515C114.073 99.605 114.393 99.73 114.683 99.89C114.983 100.04 115.223 100.255 115.403 100.535C115.583 100.815 115.673 101.18 115.673 101.63C115.673 102.13 115.523 102.565 115.223 102.935C114.933 103.305 114.518 103.595 113.978 103.805C113.438 104.005 112.793 104.105 112.043 104.105ZM119.763 104.105C119.093 104.105 118.448 104.02 117.828 103.85C117.218 103.67 116.733 103.455 116.373 103.205L117.093 101.78C117.453 102.01 117.883 102.2 118.383 102.35C118.883 102.5 119.383 102.575 119.883 102.575C120.473 102.575 120.898 102.495 121.158 102.335C121.428 102.175 121.563 101.96 121.563 101.69C121.563 101.47 121.473 101.305 121.293 101.195C121.113 101.075 120.878 100.985 120.588 100.925C120.298 100.865 119.973 100.81 119.613 100.76C119.263 100.71 118.908 100.645 118.548 100.565C118.198 100.475 117.878 100.35 117.588 100.19C117.298 100.02 117.063 99.795 116.883 99.515C116.703 99.235 116.613 98.865 116.613 98.405C116.613 97.895 116.758 97.455 117.048 97.085C117.338 96.705 117.743 96.415 118.263 96.215C118.793 96.005 119.418 95.9 120.138 95.9C120.678 95.9 121.223 95.96 121.773 96.08C122.323 96.2 122.778 96.37 123.138 96.59L122.418 98.015C122.038 97.785 121.653 97.63 121.263 97.55C120.883 97.46 120.503 97.415 120.123 97.415C119.553 97.415 119.128 97.5 118.848 97.67C118.578 97.84 118.443 98.055 118.443 98.315C118.443 98.555 118.533 98.735 118.713 98.855C118.893 98.975 119.128 99.07 119.418 99.14C119.708 99.21 120.028 99.27 120.378 99.32C120.738 99.36 121.093 99.425 121.443 99.515C121.793 99.605 122.113 99.73 122.403 99.89C122.703 100.04 122.943 100.255 123.123 100.535C123.303 100.815 123.393 101.18 123.393 101.63C123.393 102.13 123.243 102.565 122.943 102.935C122.653 103.305 122.238 103.595 121.698 103.805C121.158 104.005 120.513 104.105 119.763 104.105Z" fill="black"/>
<path d="M58.9219 5.625C50.2969 6.98438 43.5469 13.5 42.0469 21.9531C41.7188 23.7969 41.7188 27.1563 42.0469 28.9844C43.0469 34.5938 46.5782 39.6875 51.4844 42.5781C52.4376 43.1406 52.5938 43.2969 52.3438 43.375C47.9376 44.9687 44.7188 46.9687 41.4376 50.1406C36.2813 55.1719 33.3438 61.4375 32.7344 68.7656C32.5313 71.1563 32.6563 71.8281 33.3594 72.3281C33.8594 72.6875 34.7188 72.75 35.3126 72.4687C36.0469 72.1406 36.2188 71.6719 36.3594 69.4688C36.4219 68.3438 36.5938 66.8594 36.7188 66.1719C39.6407 51.0781 55.0157 42 69.6719 46.7344C71.5157 47.3281 74.5157 48.8125 76.1094 49.9062C78.5157 51.5781 81.0782 54.1406 82.6876 56.4844C85.1563 60.0781 86.8438 64.8594 87.0626 68.9063C87.1876 71.3906 87.2501 71.6719 87.7657 72.1875C88.1719 72.5781 88.3594 72.6562 89.0001 72.6562C89.6251 72.6562 89.8282 72.5781 90.2188 72.1875C90.8282 71.5781 90.9063 71.0625 90.7188 68.8125C90.3907 64.7344 89.4688 61.4375 87.6407 57.8125C86.2657 55.0781 84.9063 53.1406 82.8282 50.9687C79.4688 47.4375 75.6563 44.9687 71.1251 43.375C70.8751 43.2969 71.0157 43.1563 71.8594 42.6563C76.0313 40.2188 79.3282 36.0938 80.7813 31.4375C81.3907 29.4844 81.6563 27.6875 81.6563 25.4688C81.6563 22.0781 81.0157 19.3281 79.5469 16.4375C76.7969 11.0312 71.9688 7.28125 66.0313 5.92188C64.4844 5.5625 60.4219 5.39063 58.9219 5.625ZM65.0313 9.4375C70.8282 10.6563 75.3907 14.75 77.2813 20.4375C79.2344 26.3125 77.4219 33.2812 72.8594 37.4375C67.6719 42.1562 60.4063 43.1406 54.2344 39.9688C52.0157 38.8281 49.5469 36.6719 48.2657 34.7656C43.8907 28.2344 44.5782 19.7344 49.9219 14.1719C52.3438 11.6406 55.5469 9.92188 58.7813 9.39063C59.3751 9.29688 60.0313 9.1875 60.2501 9.15625C60.9688 9.03125 63.9219 9.20313 65.0313 9.4375Z" fill="#FF0000"/>
<path d="M85.9379 16.9375C85.3286 17.5469 85.2348 18.2812 85.6411 19.0625C86.1411 20.0156 85.9692 20 95.3598 20C101.891 20 104.016 19.9531 104.313 19.7969C104.766 19.5625 105.407 18.6719 105.407 18.25C105.407 17.7031 104.907 16.875 104.454 16.6406C104.079 16.4375 102.61 16.4062 95.2348 16.4062H86.4692L85.9379 16.9375Z" fill="#FF0000"/>
<path d="M86.3906 29.2969C85.7969 29.5469 85.4062 30.2344 85.4062 31.0312C85.4062 31.4688 85.5312 31.7188 85.9375 32.125L86.4688 32.6562H95.3281C104.016 32.6562 104.188 32.6562 104.641 32.3281C104.891 32.1562 105.156 31.7656 105.266 31.4375C105.5 30.6562 105.156 29.8125 104.438 29.375C103.938 29.0781 103.672 29.0625 95.4062 29.0625C88.5 29.0781 86.7969 29.1094 86.3906 29.2969Z" fill="#FF0000"/>
<path d="M84.2809 42.1875C83.3903 42.8906 83.3278 44.1406 84.1715 44.9375L84.6403 45.3906H94.4684H104.281L104.687 45.0156C105.593 44.1562 105.531 42.7656 104.562 42.1719C104.093 41.8906 103.672 41.875 94.3746 41.875C84.9528 41.875 84.6559 41.8906 84.2809 42.1875Z" fill="#FF0000"/>
<path d="M91.7031 54.8281C91.0781 55.2188 90.875 55.5938 90.875 56.4062C90.875 56.9375 90.9688 57.1562 91.4062 57.5938L91.9375 58.125H98.0156C103.719 58.125 104.109 58.1094 104.562 57.8281C105.531 57.2344 105.594 55.8438 104.688 54.9844L104.281 54.6094L98.25 54.5625C92.4688 54.5312 92.1875 54.5469 91.7031 54.8281Z" fill="black"/>
<path d="M91.7031 54.8281C91.0781 55.2188 90.875 55.5938 90.875 56.4062C90.875 56.9375 90.9688 57.1562 91.4062 57.5938L91.9375 58.125H98.0156C103.719 58.125 104.109 58.1094 104.562 57.8281C105.531 57.2344 105.594 55.8438 104.688 54.9844L104.281 54.6094L98.25 54.5625C92.4688 54.5312 92.1875 54.5469 91.7031 54.8281Z" fill="#FF0000"/>
<path d="M169.466 104.15C168.646 104.15 167.891 104.015 167.201 103.745C166.511 103.475 165.911 103.1 165.401 102.62C164.891 102.13 164.496 101.56 164.216 100.91C163.936 100.25 163.796 99.53 163.796 98.75C163.796 97.97 163.936 97.255 164.216 96.605C164.496 95.945 164.891 95.375 165.401 94.895C165.911 94.405 166.511 94.025 167.201 93.755C167.891 93.485 168.641 93.35 169.451 93.35C170.271 93.35 171.021 93.485 171.701 93.755C172.391 94.025 172.991 94.405 173.501 94.895C174.011 95.375 174.406 95.945 174.686 96.605C174.966 97.255 175.106 97.97 175.106 98.75C175.106 99.53 174.966 100.25 174.686 100.91C174.406 101.57 174.011 102.14 173.501 102.62C172.991 103.1 172.391 103.475 171.701 103.745C171.021 104.015 170.276 104.15 169.466 104.15ZM169.451 102.44C169.981 102.44 170.471 102.35 170.921 102.17C171.371 101.99 171.761 101.735 172.091 101.405C172.421 101.065 172.676 100.675 172.856 100.235C173.046 99.785 173.141 99.29 173.141 98.75C173.141 98.21 173.046 97.72 172.856 97.28C172.676 96.83 172.421 96.44 172.091 96.11C171.761 95.77 171.371 95.51 170.921 95.33C170.471 95.15 169.981 95.06 169.451 95.06C168.921 95.06 168.431 95.15 167.981 95.33C167.541 95.51 167.151 95.77 166.811 96.11C166.481 96.44 166.221 96.83 166.031 97.28C165.851 97.72 165.761 98.21 165.761 98.75C165.761 99.28 165.851 99.77 166.031 100.22C166.221 100.67 166.481 101.065 166.811 101.405C167.141 101.735 167.531 101.99 167.981 102.17C168.431 102.35 168.921 102.44 169.451 102.44ZM178.763 104L175.823 95.99H177.593L180.113 103.055H179.273L181.913 95.99H183.488L186.053 103.055H185.228L187.823 95.99H189.488L186.533 104H184.733L182.393 97.745H182.948L180.563 104H178.763ZM195.322 95.9C195.962 95.9 196.532 96.025 197.032 96.275C197.542 96.525 197.942 96.91 198.232 97.43C198.522 97.94 198.667 98.6 198.667 99.41V104H196.792V99.65C196.792 98.94 196.622 98.41 196.282 98.06C195.952 97.71 195.487 97.535 194.887 97.535C194.447 97.535 194.057 97.625 193.717 97.805C193.377 97.985 193.112 98.255 192.922 98.615C192.742 98.965 192.652 99.41 192.652 99.95V104H190.777V95.99H192.562V98.15L192.247 97.49C192.527 96.98 192.932 96.59 193.462 96.32C194.002 96.04 194.622 95.9 195.322 95.9ZM205.371 104V93.5H209.691C210.621 93.5 211.416 93.65 212.076 93.95C212.746 94.25 213.261 94.68 213.621 95.24C213.981 95.8 214.161 96.465 214.161 97.235C214.161 98.005 213.981 98.67 213.621 99.23C213.261 99.79 212.746 100.22 212.076 100.52C211.416 100.82 210.621 100.97 209.691 100.97H206.451L207.321 100.055V104H205.371ZM207.321 100.265L206.451 99.32H209.601C210.461 99.32 211.106 99.14 211.536 98.78C211.976 98.41 212.196 97.895 212.196 97.235C212.196 96.565 211.976 96.05 211.536 95.69C211.106 95.33 210.461 95.15 209.601 95.15H206.451L207.321 94.19V100.265ZM215.855 104V95.99H217.64V98.195L217.43 97.55C217.67 97.01 218.045 96.6 218.555 96.32C219.075 96.04 219.72 95.9 220.49 95.9V97.685C220.41 97.665 220.335 97.655 220.265 97.655C220.195 97.645 220.125 97.64 220.055 97.64C219.345 97.64 218.78 97.85 218.36 98.27C217.94 98.68 217.73 99.295 217.73 100.115V104H215.855ZM222.081 104V95.99H223.956V104H222.081ZM223.026 94.67C222.676 94.67 222.386 94.56 222.156 94.34C221.936 94.12 221.826 93.855 221.826 93.545C221.826 93.225 221.936 92.96 222.156 92.75C222.386 92.53 222.676 92.42 223.026 92.42C223.376 92.42 223.661 92.525 223.881 92.735C224.111 92.935 224.226 93.19 224.226 93.5C224.226 93.83 224.116 94.11 223.896 94.34C223.676 94.56 223.386 94.67 223.026 94.67ZM230.092 104.105C229.252 104.105 228.502 103.93 227.842 103.58C227.192 103.22 226.682 102.73 226.312 102.11C225.942 101.49 225.757 100.785 225.757 99.995C225.757 99.195 225.942 98.49 226.312 97.88C226.682 97.26 227.192 96.775 227.842 96.425C228.502 96.075 229.252 95.9 230.092 95.9C230.872 95.9 231.557 96.06 232.147 96.38C232.747 96.69 233.202 97.15 233.512 97.76L232.072 98.6C231.832 98.22 231.537 97.94 231.187 97.76C230.847 97.58 230.477 97.49 230.077 97.49C229.617 97.49 229.202 97.59 228.832 97.79C228.462 97.99 228.172 98.28 227.962 98.66C227.752 99.03 227.647 99.475 227.647 99.995C227.647 100.515 227.752 100.965 227.962 101.345C228.172 101.715 228.462 102 228.832 102.2C229.202 102.4 229.617 102.5 230.077 102.5C230.477 102.5 230.847 102.41 231.187 102.23C231.537 102.05 231.832 101.77 232.072 101.39L233.512 102.23C233.202 102.83 232.747 103.295 232.147 103.625C231.557 103.945 230.872 104.105 230.092 104.105ZM235.06 104V95.99H236.935V104H235.06ZM236.005 94.67C235.655 94.67 235.365 94.56 235.135 94.34C234.915 94.12 234.805 93.855 234.805 93.545C234.805 93.225 234.915 92.96 235.135 92.75C235.365 92.53 235.655 92.42 236.005 92.42C236.355 92.42 236.64 92.525 236.86 92.735C237.09 92.935 237.205 93.19 237.205 93.5C237.205 93.83 237.095 94.11 236.875 94.34C236.655 94.56 236.365 94.67 236.005 94.67ZM243.941 95.9C244.581 95.9 245.151 96.025 245.651 96.275C246.161 96.525 246.561 96.91 246.851 97.43C247.141 97.94 247.286 98.6 247.286 99.41V104H245.411V99.65C245.411 98.94 245.241 98.41 244.901 98.06C244.571 97.71 244.106 97.535 243.506 97.535C243.066 97.535 242.676 97.625 242.336 97.805C241.996 97.985 241.731 98.255 241.541 98.615C241.361 98.965 241.271 99.41 241.271 99.95V104H239.396V95.99H241.181V98.15L240.866 97.49C241.146 96.98 241.551 96.59 242.081 96.32C242.621 96.04 243.241 95.9 243.941 95.9ZM253.309 107.015C252.569 107.015 251.844 106.915 251.134 106.715C250.434 106.525 249.859 106.245 249.409 105.875L250.249 104.465C250.599 104.755 251.039 104.985 251.569 105.155C252.109 105.335 252.654 105.425 253.204 105.425C254.084 105.425 254.729 105.22 255.139 104.81C255.549 104.41 255.754 103.805 255.754 102.995V101.57L255.904 99.755L255.844 97.94V95.99H257.629V102.785C257.629 104.235 257.259 105.3 256.519 105.98C255.779 106.67 254.709 107.015 253.309 107.015ZM253.069 103.64C252.309 103.64 251.619 103.48 250.999 103.16C250.389 102.83 249.904 102.375 249.544 101.795C249.194 101.215 249.019 100.535 249.019 99.755C249.019 98.985 249.194 98.31 249.544 97.73C249.904 97.15 250.389 96.7 250.999 96.38C251.619 96.06 252.309 95.9 253.069 95.9C253.749 95.9 254.359 96.035 254.899 96.305C255.439 96.575 255.869 96.995 256.189 97.565C256.519 98.135 256.684 98.865 256.684 99.755C256.684 100.645 256.519 101.38 256.189 101.96C255.869 102.53 255.439 102.955 254.899 103.235C254.359 103.505 253.749 103.64 253.069 103.64ZM253.354 102.05C253.824 102.05 254.244 101.955 254.614 101.765C254.984 101.565 255.269 101.295 255.469 100.955C255.679 100.605 255.784 100.205 255.784 99.755C255.784 99.305 255.679 98.91 255.469 98.57C255.269 98.22 254.984 97.955 254.614 97.775C254.244 97.585 253.824 97.49 253.354 97.49C252.884 97.49 252.459 97.585 252.079 97.775C251.709 97.955 251.419 98.22 251.209 98.57C251.009 98.91 250.909 99.305 250.909 99.755C250.909 100.205 251.009 100.605 251.209 100.955C251.419 101.295 251.709 101.565 252.079 101.765C252.459 101.955 252.884 102.05 253.354 102.05Z" fill="black"/>
<path d="M182.406 8.89062C181.328 9.21875 180.375 10.0312 179.812 11.0938C179.531 11.625 179.516 12.5781 179.516 37.2656V62.8906L179.953 64.1719C181 67.2656 183.344 69.5938 186.547 70.7344L187.797 71.1719H211.859H235.922L236.984 70.75C239 69.9375 240.578 68.5469 241.531 66.7344C242.578 64.7344 242.562 65.125 242.562 50.3438C242.562 37.2344 242.562 37.0312 242.25 36.7188C241.953 36.4219 241.734 36.4062 234.672 36.4062H227.406L227.375 24.0156C227.328 12.2969 227.312 11.6094 227.031 11.0938C226.562 10.1875 225.672 9.39062 224.797 9.0625C223.969 8.75 223.562 8.75 203.375 8.76562C192.062 8.76562 182.625 8.82812 182.406 8.89062ZM224.266 10.9062C224.562 11.0469 224.953 11.375 225.125 11.6094C225.453 12.0469 225.453 12.0625 225.531 38.3281L225.609 64.6094L225.953 65.5C226.422 66.75 227 67.6719 227.859 68.5938L228.594 69.375L208.281 69.3438L187.953 69.2969L186.875 68.875C184.406 67.9219 182.703 66.2031 181.75 63.6562L181.391 62.7344L181.344 37.5C181.312 12.5156 181.312 12.2656 181.625 11.75C181.797 11.4688 182.156 11.1094 182.438 10.9375C182.938 10.625 183.266 10.625 203.344 10.625C222.453 10.625 223.766 10.6406 224.266 10.9062ZM240.656 51.2812C240.609 64.1719 240.609 64.2969 240.281 65.1094C238.922 68.3906 235.391 70.0938 232.062 69.0625C230.203 68.4844 228.594 67 227.812 65.1094C227.484 64.2969 227.484 64.1719 227.438 51.2812L227.391 38.2812H234.047H240.703L240.656 51.2812Z" fill="black"/>
<path d="M182.406 8.89062C181.328 9.21875 180.375 10.0312 179.812 11.0938C179.531 11.625 179.516 12.5781 179.516 37.2656V62.8906L179.953 64.1719C181 67.2656 183.344 69.5938 186.547 70.7344L187.797 71.1719H211.859H235.922L236.984 70.75C239 69.9375 240.578 68.5469 241.531 66.7344C242.578 64.7344 242.562 65.125 242.562 50.3438C242.562 37.2344 242.562 37.0312 242.25 36.7188C241.953 36.4219 241.734 36.4062 234.672 36.4062H227.406L227.375 24.0156C227.328 12.2969 227.312 11.6094 227.031 11.0938C226.562 10.1875 225.672 9.39062 224.797 9.0625C223.969 8.75 223.562 8.75 203.375 8.76562C192.062 8.76562 182.625 8.82812 182.406 8.89062ZM224.266 10.9062C224.562 11.0469 224.953 11.375 225.125 11.6094C225.453 12.0469 225.453 12.0625 225.531 38.3281L225.609 64.6094L225.953 65.5C226.422 66.75 227 67.6719 227.859 68.5938L228.594 69.375L208.281 69.3438L187.953 69.2969L186.875 68.875C184.406 67.9219 182.703 66.2031 181.75 63.6562L181.391 62.7344L181.344 37.5C181.312 12.5156 181.312 12.2656 181.625 11.75C181.797 11.4688 182.156 11.1094 182.438 10.9375C182.938 10.625 183.266 10.625 203.344 10.625C222.453 10.625 223.766 10.6406 224.266 10.9062ZM240.656 51.2812C240.609 64.1719 240.609 64.2969 240.281 65.1094C238.922 68.3906 235.391 70.0938 232.062 69.0625C230.203 68.4844 228.594 67 227.812 65.1094C227.484 64.2969 227.484 64.1719 227.438 51.2812L227.391 38.2812H234.047H240.703L240.656 51.2812Z" fill="#FF0000"/>
<path d="M194.453 14.8591C191.234 15.4841 188.5 17.5466 187.109 20.3748C186.328 21.9529 186 23.2966 186 24.9998C186 30.4998 190.234 34.9373 195.766 35.2654C200.531 35.531 204.844 32.4373 206.25 27.7341C206.641 26.4373 206.641 23.5623 206.25 22.2654C205.75 20.5623 204.781 18.9373 203.547 17.7185C201.219 15.3748 197.594 14.2341 194.453 14.8591ZM199.078 17.0779C202.859 18.3904 205.219 22.2966 204.625 26.2029C204.141 29.3123 202.016 31.8748 199.078 32.9373C197.516 33.4998 195.172 33.531 193.609 32.9841C190.203 31.8279 187.875 28.5779 187.875 24.9998C187.875 20.9998 190.688 17.5779 194.672 16.7185C195.781 16.4685 197.844 16.6404 199.078 17.0779Z" fill="black"/>
<path d="M194.453 14.8591C191.234 15.4841 188.5 17.5466 187.109 20.3748C186.328 21.9529 186 23.2966 186 24.9998C186 30.4998 190.234 34.9373 195.766 35.2654C200.531 35.531 204.844 32.4373 206.25 27.7341C206.641 26.4373 206.641 23.5623 206.25 22.2654C205.75 20.5623 204.781 18.9373 203.547 17.7185C201.219 15.3748 197.594 14.2341 194.453 14.8591ZM199.078 17.0779C202.859 18.3904 205.219 22.2966 204.625 26.2029C204.141 29.3123 202.016 31.8748 199.078 32.9373C197.516 33.4998 195.172 33.531 193.609 32.9841C190.203 31.8279 187.875 28.5779 187.875 24.9998C187.875 20.9998 190.688 17.5779 194.672 16.7185C195.781 16.4685 197.844 16.6404 199.078 17.0779Z" fill="#FF0000"/>
<path d="M192.313 18.7199C191.735 19.0949 191.75 20.1418 192.328 20.3762C192.469 20.423 193.157 20.4699 193.86 20.4699C195.25 20.4699 196.016 20.7355 196.438 21.3762L196.657 21.7199H194.532C192.61 21.7199 192.375 21.7512 192.094 22.0324C191.766 22.3605 191.703 22.7668 191.907 23.0637C192.172 23.4855 192.782 23.5949 194.688 23.5949H196.672L196.375 23.923C195.828 24.5324 195.297 24.6887 193.813 24.6887C192.61 24.6887 192.36 24.7355 192.094 25.0012C191.469 25.6262 191.625 25.8762 194.547 28.7043C197.469 31.5324 197.828 31.7512 198.391 31.1262C198.969 30.5012 198.75 30.1262 196.828 28.298C195.532 27.0793 195.078 26.5637 195.297 26.5637C195.813 26.5637 197.141 25.8449 197.672 25.298C197.953 25.0012 198.282 24.5012 198.422 24.173C198.657 23.6105 198.688 23.5949 199.422 23.5949C200.063 23.5949 200.25 23.5324 200.516 23.1887C201.078 22.4699 200.532 21.7199 199.438 21.7199C198.766 21.7199 198.703 21.6887 198.453 21.173L198.188 20.6262H199.188C200.235 20.6262 200.563 20.4543 200.766 19.8293C200.828 19.6574 200.766 19.3605 200.641 19.1574C200.422 18.8293 200.25 18.798 198.485 18.7043C195.953 18.5637 192.532 18.5637 192.313 18.7199Z" fill="black"/>
<path d="M192.313 18.7199C191.735 19.0949 191.75 20.1418 192.328 20.3762C192.469 20.423 193.157 20.4699 193.86 20.4699C195.25 20.4699 196.016 20.7355 196.438 21.3762L196.657 21.7199H194.532C192.61 21.7199 192.375 21.7512 192.094 22.0324C191.766 22.3605 191.703 22.7668 191.907 23.0637C192.172 23.4855 192.782 23.5949 194.688 23.5949H196.672L196.375 23.923C195.828 24.5324 195.297 24.6887 193.813 24.6887C192.61 24.6887 192.36 24.7355 192.094 25.0012C191.469 25.6262 191.625 25.8762 194.547 28.7043C197.469 31.5324 197.828 31.7512 198.391 31.1262C198.969 30.5012 198.75 30.1262 196.828 28.298C195.532 27.0793 195.078 26.5637 195.297 26.5637C195.813 26.5637 197.141 25.8449 197.672 25.298C197.953 25.0012 198.282 24.5012 198.422 24.173C198.657 23.6105 198.688 23.5949 199.422 23.5949C200.063 23.5949 200.25 23.5324 200.516 23.1887C201.078 22.4699 200.532 21.7199 199.438 21.7199C198.766 21.7199 198.703 21.6887 198.453 21.173L198.188 20.6262H199.188C200.235 20.6262 200.563 20.4543 200.766 19.8293C200.828 19.6574 200.766 19.3605 200.641 19.1574C200.422 18.8293 200.25 18.798 198.485 18.7043C195.953 18.5637 192.532 18.5637 192.313 18.7199Z" fill="#FF0000"/>
<path d="M208.344 15.7812C208.172 15.9531 208.031 16.2344 208.031 16.4062C208.031 16.5781 208.172 16.8594 208.344 17.0312C208.641 17.3281 208.859 17.3438 211.438 17.3438C213.953 17.3438 214.266 17.3125 214.484 17.0625C214.828 16.6875 214.812 16.0469 214.469 15.7344C214.219 15.5 213.766 15.4688 211.422 15.4688C208.859 15.4688 208.625 15.5 208.344 15.7812Z" fill="black"/>
<path d="M208.344 15.7812C208.172 15.9531 208.031 16.2344 208.031 16.4062C208.031 16.5781 208.172 16.8594 208.344 17.0312C208.641 17.3281 208.859 17.3438 211.438 17.3438C213.953 17.3438 214.266 17.3125 214.484 17.0625C214.828 16.6875 214.812 16.0469 214.469 15.7344C214.219 15.5 213.766 15.4688 211.422 15.4688C208.859 15.4688 208.625 15.5 208.344 15.7812Z" fill="#FF0000"/>
<path d="M216.891 15.7513C216.547 16.1263 216.563 16.7669 216.906 17.0794C217.36 17.4856 219.485 17.4544 219.906 17.0325C220.078 16.8606 220.219 16.5794 220.219 16.4075C220.219 16.2356 220.078 15.9544 219.906 15.7825C219.469 15.345 217.281 15.3294 216.891 15.7513Z" fill="black"/>
<path d="M216.891 15.7513C216.547 16.1263 216.563 16.7669 216.906 17.0794C217.36 17.4856 219.485 17.4544 219.906 17.0325C220.078 16.8606 220.219 16.5794 220.219 16.4075C220.219 16.2356 220.078 15.9544 219.906 15.7825C219.469 15.345 217.281 15.3294 216.891 15.7513Z" fill="#FF0000"/>
<path d="M208.344 21.5625C208.172 21.7344 208.031 22.0156 208.031 22.1875C208.031 22.3594 208.172 22.6406 208.344 22.8125C208.641 23.1094 208.859 23.125 214.125 23.125C219.391 23.125 219.609 23.1094 219.906 22.8125C220.078 22.6406 220.219 22.3594 220.219 22.1875C220.219 22.0156 220.078 21.7344 219.906 21.5625C219.609 21.2656 219.391 21.25 214.125 21.25C208.859 21.25 208.641 21.2656 208.344 21.5625Z" fill="black"/>
<path d="M208.344 21.5625C208.172 21.7344 208.031 22.0156 208.031 22.1875C208.031 22.3594 208.172 22.6406 208.344 22.8125C208.641 23.1094 208.859 23.125 214.125 23.125C219.391 23.125 219.609 23.1094 219.906 22.8125C220.078 22.6406 220.219 22.3594 220.219 22.1875C220.219 22.0156 220.078 21.7344 219.906 21.5625C219.609 21.2656 219.391 21.25 214.125 21.25C208.859 21.25 208.641 21.2656 208.344 21.5625Z" fill="#FF0000"/>
<path d="M208.344 27.1875C208.172 27.3594 208.031 27.6406 208.031 27.8125C208.031 27.9844 208.172 28.2656 208.344 28.4375C208.641 28.7344 208.859 28.75 214.125 28.75C219.391 28.75 219.609 28.7344 219.906 28.4375C220.078 28.2656 220.219 27.9844 220.219 27.8125C220.219 27.6406 220.078 27.3594 219.906 27.1875C219.609 26.8906 219.391 26.875 214.125 26.875C208.859 26.875 208.641 26.8906 208.344 27.1875Z" fill="black"/>
<path d="M208.344 27.1875C208.172 27.3594 208.031 27.6406 208.031 27.8125C208.031 27.9844 208.172 28.2656 208.344 28.4375C208.641 28.7344 208.859 28.75 214.125 28.75C219.391 28.75 219.609 28.7344 219.906 28.4375C220.078 28.2656 220.219 27.9844 220.219 27.8125C220.219 27.6406 220.078 27.3594 219.906 27.1875C219.609 26.8906 219.391 26.875 214.125 26.875C208.859 26.875 208.641 26.8906 208.344 27.1875Z" fill="#FF0000"/>
<path d="M205.688 32.9688C205.516 33.1406 205.375 33.4219 205.375 33.5938C205.375 33.7656 205.516 34.0469 205.688 34.2188C205.969 34.5 206.203 34.5312 208.078 34.5312C209.906 34.5312 210.203 34.5 210.422 34.25C210.766 33.875 210.75 33.2344 210.406 32.9219C210.172 32.7031 209.75 32.6562 208.062 32.6562C206.203 32.6562 205.969 32.6875 205.688 32.9688Z" fill="black"/>
<path d="M205.688 32.9688C205.516 33.1406 205.375 33.4219 205.375 33.5938C205.375 33.7656 205.516 34.0469 205.688 34.2188C205.969 34.5 206.203 34.5312 208.078 34.5312C209.906 34.5312 210.203 34.5 210.422 34.25C210.766 33.875 210.75 33.2344 210.406 32.9219C210.172 32.7031 209.75 32.6562 208.062 32.6562C206.203 32.6562 205.969 32.6875 205.688 32.9688Z" fill="#FF0000"/>
<path d="M212.906 32.9062C212.688 33.0625 212.562 33.3125 212.562 33.5938C212.562 34.4531 212.891 34.5312 216.422 34.5312C219.391 34.5312 219.609 34.5156 219.906 34.2188C220.078 34.0469 220.219 33.7656 220.219 33.5938C220.219 33.4219 220.078 33.1406 219.906 32.9688C219.609 32.6719 219.391 32.6562 216.422 32.6562C213.812 32.6562 213.203 32.7031 212.906 32.9062Z" fill="black"/>
<path d="M212.906 32.9062C212.688 33.0625 212.562 33.3125 212.562 33.5938C212.562 34.4531 212.891 34.5312 216.422 34.5312C219.391 34.5312 219.609 34.5156 219.906 34.2188C220.078 34.0469 220.219 33.7656 220.219 33.5938C220.219 33.4219 220.078 33.1406 219.906 32.9688C219.609 32.6719 219.391 32.6562 216.422 32.6562C213.812 32.6562 213.203 32.7031 212.906 32.9062Z" fill="#FF0000"/>
<path d="M186.344 39.625C185.906 39.9219 185.891 40.5156 186.313 40.9375C186.578 41.2031 186.828 41.25 188.266 41.25C189.703 41.25 189.953 41.2031 190.219 40.9375C190.391 40.7656 190.531 40.4844 190.531 40.3125C190.531 40.1406 190.391 39.8594 190.219 39.6875C189.953 39.4219 189.703 39.375 188.297 39.375C187.094 39.375 186.61 39.4375 186.344 39.625Z" fill="black"/>
<path d="M186.344 39.625C185.906 39.9219 185.891 40.5156 186.313 40.9375C186.578 41.2031 186.828 41.25 188.266 41.25C189.703 41.25 189.953 41.2031 190.219 40.9375C190.391 40.7656 190.531 40.4844 190.531 40.3125C190.531 40.1406 190.391 39.8594 190.219 39.6875C189.953 39.4219 189.703 39.375 188.297 39.375C187.094 39.375 186.61 39.4375 186.344 39.625Z" fill="#FF0000"/>
<path d="M192.516 39.6582C192.172 40.0332 192.188 40.6738 192.531 40.9863C192.922 41.3457 194.547 41.3457 195.031 41.0019C195.5 40.6894 195.5 39.9394 195.031 39.6269C194.516 39.2675 192.844 39.2832 192.516 39.6582Z" fill="black"/>
<path d="M192.516 39.6582C192.172 40.0332 192.188 40.6738 192.531 40.9863C192.922 41.3457 194.547 41.3457 195.031 41.0019C195.5 40.6894 195.5 39.9394 195.031 39.6269C194.516 39.2675 192.844 39.2832 192.516 39.6582Z" fill="#FF0000"/>
<path d="M197.594 39.625C197.125 39.9375 197.125 40.6875 197.594 41C197.906 41.2188 199.219 41.25 208.766 41.25C219.391 41.25 219.594 41.25 219.906 40.9375C220.078 40.7656 220.219 40.4844 220.219 40.3125C220.219 40.1406 220.078 39.8594 219.906 39.6875C219.594 39.375 219.391 39.375 208.766 39.375C199.219 39.375 197.906 39.4062 197.594 39.625Z" fill="black"/>
<path d="M197.594 39.625C197.125 39.9375 197.125 40.6875 197.594 41C197.906 41.2188 199.219 41.25 208.766 41.25C219.391 41.25 219.594 41.25 219.906 40.9375C220.078 40.7656 220.219 40.4844 220.219 40.3125C220.219 40.1406 220.078 39.8594 219.906 39.6875C219.594 39.375 219.391 39.375 208.766 39.375C199.219 39.375 197.906 39.4062 197.594 39.625Z" fill="#FF0000"/>
<path d="M207.797 44.7492C204.312 45.5461 201.625 47.8429 200.328 51.0929C198.375 56.0148 200.547 61.6867 205.297 64.0304C206.969 64.8742 207.922 65.0773 209.984 65.0617C211.594 65.0617 212.031 64.9992 213.047 64.6554C216.312 63.5148 218.578 61.2492 219.719 57.9836C220.078 56.9367 220.125 56.5461 220.125 54.8429C220.125 53.1398 220.078 52.7492 219.719 51.7023C218.234 47.4367 214.672 44.7492 210.297 44.5929C209.312 44.5617 208.39 44.6086 207.797 44.7492ZM212.719 46.9054C215.14 47.7961 216.89 49.5304 217.812 51.9992C219.922 57.5773 215.359 63.6398 209.344 63.2336C205.984 62.9992 203.172 60.8898 201.953 57.6554C201.453 56.3117 201.39 53.6711 201.844 52.3429C202.859 49.3429 205.219 47.2179 208.265 46.5461C209.359 46.3117 211.594 46.4992 212.719 46.9054Z" fill="black"/>
<path d="M207.797 44.7492C204.312 45.5461 201.625 47.8429 200.328 51.0929C198.375 56.0148 200.547 61.6867 205.297 64.0304C206.969 64.8742 207.922 65.0773 209.984 65.0617C211.594 65.0617 212.031 64.9992 213.047 64.6554C216.312 63.5148 218.578 61.2492 219.719 57.9836C220.078 56.9367 220.125 56.5461 220.125 54.8429C220.125 53.1398 220.078 52.7492 219.719 51.7023C218.234 47.4367 214.672 44.7492 210.297 44.5929C209.312 44.5617 208.39 44.6086 207.797 44.7492ZM212.719 46.9054C215.14 47.7961 216.89 49.5304 217.812 51.9992C219.922 57.5773 215.359 63.6398 209.344 63.2336C205.984 62.9992 203.172 60.8898 201.953 57.6554C201.453 56.3117 201.39 53.6711 201.844 52.3429C202.859 49.3429 205.219 47.2179 208.265 46.5461C209.359 46.3117 211.594 46.4992 212.719 46.9054Z" fill="#FF0000"/>
<path d="M205.797 48.7205C205.453 49.0955 205.469 49.7362 205.812 50.0487C206.031 50.2518 206.406 50.3143 207.375 50.3143C208.062 50.3143 208.828 50.3924 209.078 50.4862C209.547 50.658 210.219 51.2205 210.219 51.4393C210.219 51.5174 209.25 51.5643 208.078 51.5487C206.031 51.5174 205.937 51.533 205.656 51.8768C205.297 52.3143 205.297 52.533 205.672 52.9862C205.953 53.3299 206.094 53.3612 208.094 53.408C210.219 53.4705 210.234 53.4862 209.953 53.783C209.422 54.3768 208.875 54.533 207.406 54.533C206.203 54.533 205.953 54.5799 205.687 54.8455C205.015 55.5174 205.047 55.5643 208.906 59.283C211.062 61.3455 211.453 61.5643 211.984 60.9705C212.531 60.3768 212.328 60.0018 210.547 58.2205L208.828 56.5018L209.703 56.158C210.719 55.7362 211.625 54.908 212.015 54.0487C212.281 53.4705 212.328 53.4393 213.015 53.4393C213.828 53.4393 214 53.3455 214.265 52.8612C214.469 52.4549 214.281 51.8143 213.89 51.658C213.75 51.6112 213.328 51.5643 212.969 51.5643C212.328 51.5643 212.281 51.533 212.047 50.9393L211.812 50.3143H212.812C213.875 50.3143 214.437 50.0018 214.437 49.408C214.422 48.533 213.969 48.4393 209.781 48.4393C206.359 48.4393 206.031 48.4705 205.797 48.7205Z" fill="black"/>
<path d="M205.797 48.7205C205.453 49.0955 205.469 49.7362 205.812 50.0487C206.031 50.2518 206.406 50.3143 207.375 50.3143C208.062 50.3143 208.828 50.3924 209.078 50.4862C209.547 50.658 210.219 51.2205 210.219 51.4393C210.219 51.5174 209.25 51.5643 208.078 51.5487C206.031 51.5174 205.937 51.533 205.656 51.8768C205.297 52.3143 205.297 52.533 205.672 52.9862C205.953 53.3299 206.094 53.3612 208.094 53.408C210.219 53.4705 210.234 53.4862 209.953 53.783C209.422 54.3768 208.875 54.533 207.406 54.533C206.203 54.533 205.953 54.5799 205.687 54.8455C205.015 55.5174 205.047 55.5643 208.906 59.283C211.062 61.3455 211.453 61.5643 211.984 60.9705C212.531 60.3768 212.328 60.0018 210.547 58.2205L208.828 56.5018L209.703 56.158C210.719 55.7362 211.625 54.908 212.015 54.0487C212.281 53.4705 212.328 53.4393 213.015 53.4393C213.828 53.4393 214 53.3455 214.265 52.8612C214.469 52.4549 214.281 51.8143 213.89 51.658C213.75 51.6112 213.328 51.5643 212.969 51.5643C212.328 51.5643 212.281 51.533 212.047 50.9393L211.812 50.3143H212.812C213.875 50.3143 214.437 50.0018 214.437 49.408C214.422 48.533 213.969 48.4393 209.781 48.4393C206.359 48.4393 206.031 48.4705 205.797 48.7205Z" fill="#FF0000"/>
<path d="M186.312 46.4062C186.141 46.5781 186 46.8594 186 47.0312C186 47.625 186.547 47.9688 187.484 47.9688C188.422 47.9688 188.969 47.625 188.969 47.0312C188.969 46.4375 188.422 46.0938 187.484 46.0938C186.828 46.0938 186.547 46.1719 186.312 46.4062Z" fill="black"/>
<path d="M186.312 46.4062C186.141 46.5781 186 46.8594 186 47.0312C186 47.625 186.547 47.9688 187.484 47.9688C188.422 47.9688 188.969 47.625 188.969 47.0312C188.969 46.4375 188.422 46.0938 187.484 46.0938C186.828 46.0938 186.547 46.1719 186.312 46.4062Z" fill="#FF0000"/>
<path d="M190.953 46.375C190.61 46.75 190.625 47.3906 190.969 47.7031C191.219 47.9375 191.766 47.9688 195.5 47.9688C199.547 47.9688 199.766 47.9531 200.063 47.6562C200.235 47.4844 200.375 47.2031 200.375 47.0312C200.375 46.8594 200.235 46.5781 200.063 46.4062C199.766 46.1094 199.547 46.0938 195.485 46.0938C191.531 46.0938 191.188 46.1094 190.953 46.375Z" fill="black"/>
<path d="M190.953 46.375C190.61 46.75 190.625 47.3906 190.969 47.7031C191.219 47.9375 191.766 47.9688 195.5 47.9688C199.547 47.9688 199.766 47.9531 200.063 47.6562C200.235 47.4844 200.375 47.2031 200.375 47.0312C200.375 46.8594 200.235 46.5781 200.063 46.4062C199.766 46.1094 199.547 46.0938 195.485 46.0938C191.531 46.0938 191.188 46.1094 190.953 46.375Z" fill="#FF0000"/>
<path d="M186.312 51.0938C186.141 51.2656 186 51.5469 186 51.7188C186 51.8906 186.141 52.1719 186.312 52.3438C186.609 52.6406 186.828 52.6562 191.625 52.6562C196.422 52.6562 196.641 52.6406 196.938 52.3438C197.109 52.1719 197.25 51.8906 197.25 51.7188C197.25 51.5469 197.109 51.2656 196.938 51.0938C196.641 50.7969 196.422 50.7812 191.625 50.7812C186.828 50.7812 186.609 50.7969 186.312 51.0938Z" fill="black"/>
<path d="M186.312 51.0938C186.141 51.2656 186 51.5469 186 51.7188C186 51.8906 186.141 52.1719 186.312 52.3438C186.609 52.6406 186.828 52.6562 191.625 52.6562C196.422 52.6562 196.641 52.6406 196.938 52.3438C197.109 52.1719 197.25 51.8906 197.25 51.7188C197.25 51.5469 197.109 51.2656 196.938 51.0938C196.641 50.7969 196.422 50.7812 191.625 50.7812C186.828 50.7812 186.609 50.7969 186.312 51.0938Z" fill="#FF0000"/>
<path d="M186.312 57.3438C186.141 57.5156 186 57.7969 186 57.9688C186 58.1406 186.141 58.4219 186.312 58.5938C186.594 58.875 186.828 58.9062 189.172 58.9062C191.453 58.9062 191.766 58.875 191.984 58.625C192.328 58.25 192.312 57.6094 191.969 57.2969C191.719 57.0781 191.281 57.0312 189.156 57.0312C186.828 57.0312 186.594 57.0625 186.312 57.3438Z" fill="black"/>
<path d="M186.312 57.3438C186.141 57.5156 186 57.7969 186 57.9688C186 58.1406 186.141 58.4219 186.312 58.5938C186.594 58.875 186.828 58.9062 189.172 58.9062C191.453 58.9062 191.766 58.875 191.984 58.625C192.328 58.25 192.312 57.6094 191.969 57.2969C191.719 57.0781 191.281 57.0312 189.156 57.0312C186.828 57.0312 186.594 57.0625 186.312 57.3438Z" fill="#FF0000"/>
<path d="M194.125 57.3438C193.953 57.5156 193.812 57.7969 193.812 57.9688C193.812 58.6094 194.344 58.9062 195.531 58.9062C196.719 58.9062 197.25 58.6094 197.25 57.9688C197.25 57.3281 196.719 57.0312 195.531 57.0312C194.641 57.0312 194.375 57.0938 194.125 57.3438Z" fill="black"/>
<path d="M194.125 57.3438C193.953 57.5156 193.812 57.7969 193.812 57.9688C193.812 58.6094 194.344 58.9062 195.531 58.9062C196.719 58.9062 197.25 58.6094 197.25 57.9688C197.25 57.3281 196.719 57.0312 195.531 57.0312C194.641 57.0312 194.375 57.0938 194.125 57.3438Z" fill="#FF0000"/>
<path d="M186.312 63.5938C186.141 63.7656 186 64.0469 186 64.2188C186 64.3906 186.141 64.6719 186.312 64.8438C186.609 65.1406 186.828 65.1562 190.844 65.1562C194.859 65.1562 195.078 65.1406 195.375 64.8438C195.547 64.6719 195.688 64.3906 195.688 64.2188C195.688 64.0469 195.547 63.7656 195.375 63.5938C195.078 63.2969 194.859 63.2812 190.844 63.2812C186.828 63.2812 186.609 63.2969 186.312 63.5938Z" fill="black"/>
<path d="M186.312 63.5938C186.141 63.7656 186 64.0469 186 64.2188C186 64.3906 186.141 64.6719 186.312 64.8438C186.609 65.1406 186.828 65.1562 190.844 65.1562C194.859 65.1562 195.078 65.1406 195.375 64.8438C195.547 64.6719 195.688 64.3906 195.688 64.2188C195.688 64.0469 195.547 63.7656 195.375 63.5938C195.078 63.2969 194.859 63.2812 190.844 63.2812C186.828 63.2812 186.609 63.2969 186.312 63.5938Z" fill="#FF0000"/>
<path d="M197.203 63.5638C196.86 63.9388 196.875 64.5794 197.219 64.8919C197.672 65.2981 199.641 65.2669 200.063 64.845C200.235 64.6731 200.375 64.3919 200.375 64.22C200.375 64.0481 200.235 63.7669 200.063 63.595C199.625 63.1575 197.594 63.1419 197.203 63.5638Z" fill="black"/>
<path d="M197.203 63.5638C196.86 63.9388 196.875 64.5794 197.219 64.8919C197.672 65.2981 199.641 65.2669 200.063 64.845C200.235 64.6731 200.375 64.3919 200.375 64.22C200.375 64.0481 200.235 63.7669 200.063 63.595C199.625 63.1575 197.594 63.1419 197.203 63.5638Z" fill="#FF0000"/>
<path d="M459.324 104V93.5H461.274V102.35H466.764V104H459.324ZM471.65 104.105C470.83 104.105 470.1 103.93 469.46 103.58C468.82 103.22 468.315 102.73 467.945 102.11C467.575 101.49 467.39 100.785 467.39 99.995C467.39 99.195 467.575 98.49 467.945 97.88C468.315 97.26 468.82 96.775 469.46 96.425C470.1 96.075 470.83 95.9 471.65 95.9C472.48 95.9 473.215 96.075 473.855 96.425C474.505 96.775 475.01 97.255 475.37 97.865C475.74 98.475 475.925 99.185 475.925 99.995C475.925 100.785 475.74 101.49 475.37 102.11C475.01 102.73 474.505 103.22 473.855 103.58C473.215 103.93 472.48 104.105 471.65 104.105ZM471.65 102.5C472.11 102.5 472.52 102.4 472.88 102.2C473.24 102 473.52 101.71 473.72 101.33C473.93 100.95 474.035 100.505 474.035 99.995C474.035 99.475 473.93 99.03 473.72 98.66C473.52 98.28 473.24 97.99 472.88 97.79C472.52 97.59 472.115 97.49 471.665 97.49C471.205 97.49 470.795 97.59 470.435 97.79C470.085 97.99 469.805 98.28 469.595 98.66C469.385 99.03 469.28 99.475 469.28 99.995C469.28 100.505 469.385 100.95 469.595 101.33C469.805 101.71 470.085 102 470.435 102.2C470.795 102.4 471.2 102.5 471.65 102.5ZM479.268 104L476.328 95.99H478.098L480.618 103.055H479.778L482.418 95.99H483.993L486.558 103.055H485.733L488.328 95.99H489.993L487.038 104H485.238L482.898 97.745H483.453L481.068 104H479.268ZM500.468 104.15C499.668 104.15 498.923 104.02 498.233 103.76C497.553 103.49 496.958 103.115 496.448 102.635C495.948 102.145 495.558 101.57 495.278 100.91C494.998 100.25 494.858 99.53 494.858 98.75C494.858 97.97 494.998 97.25 495.278 96.59C495.558 95.93 495.953 95.36 496.463 94.88C496.973 94.39 497.568 94.015 498.248 93.755C498.928 93.485 499.673 93.35 500.483 93.35C501.343 93.35 502.128 93.5 502.838 93.8C503.548 94.09 504.148 94.525 504.638 95.105L503.378 96.29C502.998 95.88 502.573 95.575 502.103 95.375C501.633 95.165 501.123 95.06 500.573 95.06C500.023 95.06 499.518 95.15 499.058 95.33C498.608 95.51 498.213 95.765 497.873 96.095C497.543 96.425 497.283 96.815 497.093 97.265C496.913 97.715 496.823 98.21 496.823 98.75C496.823 99.29 496.913 99.785 497.093 100.235C497.283 100.685 497.543 101.075 497.873 101.405C498.213 101.735 498.608 101.99 499.058 102.17C499.518 102.35 500.023 102.44 500.573 102.44C501.123 102.44 501.633 102.34 502.103 102.14C502.573 101.93 502.998 101.615 503.378 101.195L504.638 102.395C504.148 102.965 503.548 103.4 502.838 103.7C502.128 104 501.338 104.15 500.468 104.15ZM509.619 104.105C508.799 104.105 508.069 103.93 507.429 103.58C506.789 103.22 506.284 102.73 505.914 102.11C505.544 101.49 505.359 100.785 505.359 99.995C505.359 99.195 505.544 98.49 505.914 97.88C506.284 97.26 506.789 96.775 507.429 96.425C508.069 96.075 508.799 95.9 509.619 95.9C510.449 95.9 511.184 96.075 511.824 96.425C512.474 96.775 512.979 97.255 513.339 97.865C513.709 98.475 513.894 99.185 513.894 99.995C513.894 100.785 513.709 101.49 513.339 102.11C512.979 102.73 512.474 103.22 511.824 103.58C511.184 103.93 510.449 104.105 509.619 104.105ZM509.619 102.5C510.079 102.5 510.489 102.4 510.849 102.2C511.209 102 511.489 101.71 511.689 101.33C511.899 100.95 512.004 100.505 512.004 99.995C512.004 99.475 511.899 99.03 511.689 98.66C511.489 98.28 511.209 97.99 510.849 97.79C510.489 97.59 510.084 97.49 509.634 97.49C509.174 97.49 508.764 97.59 508.404 97.79C508.054 97.99 507.774 98.28 507.564 98.66C507.354 99.03 507.249 99.475 507.249 99.995C507.249 100.505 507.354 100.95 507.564 101.33C507.774 101.71 508.054 102 508.404 102.2C508.764 102.4 509.169 102.5 509.619 102.5ZM525.797 95.9C526.437 95.9 527.002 96.025 527.492 96.275C527.992 96.525 528.382 96.91 528.662 97.43C528.942 97.94 529.082 98.6 529.082 99.41V104H527.207V99.65C527.207 98.94 527.052 98.41 526.742 98.06C526.432 97.71 525.987 97.535 525.407 97.535C524.997 97.535 524.632 97.625 524.312 97.805C524.002 97.985 523.757 98.25 523.577 98.6C523.407 98.95 523.322 99.395 523.322 99.935V104H521.447V99.65C521.447 98.94 521.292 98.41 520.982 98.06C520.672 97.71 520.227 97.535 519.647 97.535C519.237 97.535 518.872 97.625 518.552 97.805C518.242 97.985 517.997 98.25 517.817 98.6C517.647 98.95 517.562 99.395 517.562 99.935V104H515.687V95.99H517.472V98.12L517.157 97.49C517.427 96.97 517.817 96.575 518.327 96.305C518.847 96.035 519.437 95.9 520.097 95.9C520.847 95.9 521.497 96.085 522.047 96.455C522.607 96.825 522.977 97.385 523.157 98.135L522.422 97.88C522.682 97.28 523.112 96.8 523.712 96.44C524.312 96.08 525.007 95.9 525.797 95.9ZM541.588 95.9C542.228 95.9 542.793 96.025 543.283 96.275C543.783 96.525 544.173 96.91 544.453 97.43C544.733 97.94 544.873 98.6 544.873 99.41V104H542.998V99.65C542.998 98.94 542.843 98.41 542.533 98.06C542.223 97.71 541.778 97.535 541.198 97.535C540.788 97.535 540.423 97.625 540.103 97.805C539.793 97.985 539.548 98.25 539.368 98.6C539.198 98.95 539.113 99.395 539.113 99.935V104H537.238V99.65C537.238 98.94 537.083 98.41 536.773 98.06C536.463 97.71 536.018 97.535 535.438 97.535C535.028 97.535 534.663 97.625 534.343 97.805C534.033 97.985 533.788 98.25 533.608 98.6C533.438 98.95 533.353 99.395 533.353 99.935V104H531.478V95.99H533.263V98.12L532.948 97.49C533.218 96.97 533.608 96.575 534.118 96.305C534.638 96.035 535.228 95.9 535.888 95.9C536.638 95.9 537.288 96.085 537.838 96.455C538.398 96.825 538.768 97.385 538.948 98.135L538.213 97.88C538.473 97.28 538.903 96.8 539.503 96.44C540.103 96.08 540.798 95.9 541.588 95.9ZM547.269 104V95.99H549.144V104H547.269ZM548.214 94.67C547.864 94.67 547.574 94.56 547.344 94.34C547.124 94.12 547.014 93.855 547.014 93.545C547.014 93.225 547.124 92.96 547.344 92.75C547.574 92.53 547.864 92.42 548.214 92.42C548.564 92.42 548.849 92.525 549.069 92.735C549.299 92.935 549.414 93.19 549.414 93.5C549.414 93.83 549.304 94.11 549.084 94.34C548.864 94.56 548.574 94.67 548.214 94.67ZM554.08 104.105C553.41 104.105 552.765 104.02 552.145 103.85C551.535 103.67 551.05 103.455 550.69 103.205L551.41 101.78C551.77 102.01 552.2 102.2 552.7 102.35C553.2 102.5 553.7 102.575 554.2 102.575C554.79 102.575 555.215 102.495 555.475 102.335C555.745 102.175 555.88 101.96 555.88 101.69C555.88 101.47 555.79 101.305 555.61 101.195C555.43 101.075 555.195 100.985 554.905 100.925C554.615 100.865 554.29 100.81 553.93 100.76C553.58 100.71 553.225 100.645 552.865 100.565C552.515 100.475 552.195 100.35 551.905 100.19C551.615 100.02 551.38 99.795 551.2 99.515C551.02 99.235 550.93 98.865 550.93 98.405C550.93 97.895 551.075 97.455 551.365 97.085C551.655 96.705 552.06 96.415 552.58 96.215C553.11 96.005 553.735 95.9 554.455 95.9C554.995 95.9 555.54 95.96 556.09 96.08C556.64 96.2 557.095 96.37 557.455 96.59L556.735 98.015C556.355 97.785 555.97 97.63 555.58 97.55C555.2 97.46 554.82 97.415 554.44 97.415C553.87 97.415 553.445 97.5 553.165 97.67C552.895 97.84 552.76 98.055 552.76 98.315C552.76 98.555 552.85 98.735 553.03 98.855C553.21 98.975 553.445 99.07 553.735 99.14C554.025 99.21 554.345 99.27 554.695 99.32C555.055 99.36 555.41 99.425 555.76 99.515C556.11 99.605 556.43 99.73 556.72 99.89C557.02 100.04 557.26 100.255 557.44 100.535C557.62 100.815 557.71 101.18 557.71 101.63C557.71 102.13 557.56 102.565 557.26 102.935C556.97 103.305 556.555 103.595 556.015 103.805C555.475 104.005 554.83 104.105 554.08 104.105ZM561.799 104.105C561.129 104.105 560.484 104.02 559.864 103.85C559.254 103.67 558.769 103.455 558.409 103.205L559.129 101.78C559.489 102.01 559.919 102.2 560.419 102.35C560.919 102.5 561.419 102.575 561.919 102.575C562.509 102.575 562.934 102.495 563.194 102.335C563.464 102.175 563.599 101.96 563.599 101.69C563.599 101.47 563.509 101.305 563.329 101.195C563.149 101.075 562.914 100.985 562.624 100.925C562.334 100.865 562.009 100.81 561.649 100.76C561.299 100.71 560.944 100.645 560.584 100.565C560.234 100.475 559.914 100.35 559.624 100.19C559.334 100.02 559.099 99.795 558.919 99.515C558.739 99.235 558.649 98.865 558.649 98.405C558.649 97.895 558.794 97.455 559.084 97.085C559.374 96.705 559.779 96.415 560.299 96.215C560.829 96.005 561.454 95.9 562.174 95.9C562.714 95.9 563.259 95.96 563.809 96.08C564.359 96.2 564.814 96.37 565.174 96.59L564.454 98.015C564.074 97.785 563.689 97.63 563.299 97.55C562.919 97.46 562.539 97.415 562.159 97.415C561.589 97.415 561.164 97.5 560.884 97.67C560.614 97.84 560.479 98.055 560.479 98.315C560.479 98.555 560.569 98.735 560.749 98.855C560.929 98.975 561.164 99.07 561.454 99.14C561.744 99.21 562.064 99.27 562.414 99.32C562.774 99.36 563.129 99.425 563.479 99.515C563.829 99.605 564.149 99.73 564.439 99.89C564.739 100.04 564.979 100.255 565.159 100.535C565.339 100.815 565.429 101.18 565.429 101.63C565.429 102.13 565.279 102.565 564.979 102.935C564.689 103.305 564.274 103.595 563.734 103.805C563.194 104.005 562.549 104.105 561.799 104.105ZM567.044 104V95.99H568.919V104H567.044ZM567.989 94.67C567.639 94.67 567.349 94.56 567.119 94.34C566.899 94.12 566.789 93.855 566.789 93.545C566.789 93.225 566.899 92.96 567.119 92.75C567.349 92.53 567.639 92.42 567.989 92.42C568.339 92.42 568.624 92.525 568.844 92.735C569.074 92.935 569.189 93.19 569.189 93.5C569.189 93.83 569.079 94.11 568.859 94.34C568.639 94.56 568.349 94.67 567.989 94.67ZM574.98 104.105C574.16 104.105 573.43 103.93 572.79 103.58C572.15 103.22 571.645 102.73 571.275 102.11C570.905 101.49 570.72 100.785 570.72 99.995C570.72 99.195 570.905 98.49 571.275 97.88C571.645 97.26 572.15 96.775 572.79 96.425C573.43 96.075 574.16 95.9 574.98 95.9C575.81 95.9 576.545 96.075 577.185 96.425C577.835 96.775 578.34 97.255 578.7 97.865C579.07 98.475 579.255 99.185 579.255 99.995C579.255 100.785 579.07 101.49 578.7 102.11C578.34 102.73 577.835 103.22 577.185 103.58C576.545 103.93 575.81 104.105 574.98 104.105ZM574.98 102.5C575.44 102.5 575.85 102.4 576.21 102.2C576.57 102 576.85 101.71 577.05 101.33C577.26 100.95 577.365 100.505 577.365 99.995C577.365 99.475 577.26 99.03 577.05 98.66C576.85 98.28 576.57 97.99 576.21 97.79C575.85 97.59 575.445 97.49 574.995 97.49C574.535 97.49 574.125 97.59 573.765 97.79C573.415 97.99 573.135 98.28 572.925 98.66C572.715 99.03 572.61 99.475 572.61 99.995C572.61 100.505 572.715 100.95 572.925 101.33C573.135 101.71 573.415 102 573.765 102.2C574.125 102.4 574.53 102.5 574.98 102.5ZM585.593 95.9C586.233 95.9 586.803 96.025 587.303 96.275C587.813 96.525 588.213 96.91 588.503 97.43C588.793 97.94 588.938 98.6 588.938 99.41V104H587.063V99.65C587.063 98.94 586.893 98.41 586.553 98.06C586.223 97.71 585.758 97.535 585.158 97.535C584.718 97.535 584.328 97.625 583.988 97.805C583.648 97.985 583.383 98.255 583.193 98.615C583.013 98.965 582.923 99.41 582.923 99.95V104H581.048V95.99H582.833V98.15L582.518 97.49C582.798 96.98 583.203 96.59 583.733 96.32C584.273 96.04 584.893 95.9 585.593 95.9Z" fill="black"/>
<path d="M506.469 0.265625C506.234 0.421875 505.984 0.640625 505.922 0.78125C505.844 0.90625 505.766 6.78125 505.719 13.8281L505.641 26.6406L501.953 26.7188C497.922 26.7969 497.891 26.8125 497.5 27.7656C497.328 28.1719 497.328 28.375 497.484 28.8438C497.656 29.375 498.531 30 510.016 37.6719C516.813 42.2188 522.734 46.125 523.188 46.375L524 46.7969L524.844 46.3594C525.313 46.1094 531.234 42.2031 538.016 37.6719C549.563 29.9531 550.344 29.4062 550.516 28.8438C550.672 28.375 550.672 28.1719 550.5 27.7656C550.109 26.8125 550.078 26.7969 546.047 26.7188L542.359 26.6406L542.281 13.8281C542.234 6.78125 542.141 0.890625 542.063 0.734375C541.703 -0.015625 542.219 0 523.969 0C508.203 0.015625 506.859 0.03125 506.469 0.265625ZM539.031 16.1719L539.078 29.0625L539.516 29.4844C539.922 29.8906 540.047 29.9219 541.688 30L543.422 30.0781L533.734 36.5312L524.031 43L514.344 36.5312L504.656 30.0781L506.359 30C507.953 29.9219 508.078 29.8906 508.484 29.4844L508.922 29.0625L508.969 16.1719L509 3.28125H524H539L539.031 16.1719Z" fill="#FF0000"/>
<path d="M515.516 7.02979C513.875 7.67041 512.61 9.31104 512.36 11.1079C512.156 12.4829 512.875 14.3579 513.938 15.3267C515.016 16.2798 516.625 16.8267 517.891 16.6392C520.406 16.2798 522.141 14.3735 522.25 11.8423C522.313 10.811 522.266 10.5298 521.906 9.73291C521.031 7.84229 519.328 6.71729 517.36 6.71729C516.672 6.73291 515.985 6.84229 515.516 7.02979ZM518.469 10.4829C519.25 11.2017 519.047 12.686 518.125 13.1079C516.61 13.7954 515.203 12.4048 515.891 10.8892C516.297 9.98291 517.703 9.76416 518.469 10.4829Z" fill="black"/>
<path d="M515.516 7.02979C513.875 7.67041 512.61 9.31104 512.36 11.1079C512.156 12.4829 512.875 14.3579 513.938 15.3267C515.016 16.2798 516.625 16.8267 517.891 16.6392C520.406 16.2798 522.141 14.3735 522.25 11.8423C522.313 10.811 522.266 10.5298 521.906 9.73291C521.031 7.84229 519.328 6.71729 517.36 6.71729C516.672 6.73291 515.985 6.84229 515.516 7.02979ZM518.469 10.4829C519.25 11.2017 519.047 12.686 518.125 13.1079C516.61 13.7954 515.203 12.4048 515.891 10.8892C516.297 9.98291 517.703 9.76416 518.469 10.4829Z" fill="#FF0000"/>
<path d="M529.656 7.12477C529.453 7.26539 526.265 11.9216 522.547 17.4841C514.969 28.8279 515.187 28.406 516.234 29.4529C517.015 30.2341 517.734 30.2185 518.5 29.406C519.125 28.7654 531.906 9.56227 532.14 8.93727C532.5 7.98414 531.703 6.87477 530.64 6.87477C530.297 6.87477 529.844 6.98414 529.656 7.12477Z" fill="black"/>
<path d="M529.656 7.12477C529.453 7.26539 526.265 11.9216 522.547 17.4841C514.969 28.8279 515.187 28.406 516.234 29.4529C517.015 30.2341 517.734 30.2185 518.5 29.406C519.125 28.7654 531.906 9.56227 532.14 8.93727C532.5 7.98414 531.703 6.87477 530.64 6.87477C530.297 6.87477 529.844 6.98414 529.656 7.12477Z" fill="#FF0000"/>
<path d="M529.031 20.2827C528 20.6577 527.188 21.2983 526.547 22.2515C525.875 23.2358 525.672 24.064 525.75 25.3921C525.875 27.2046 526.86 28.689 528.5 29.4858C529.703 30.0796 531.469 30.0952 532.703 29.5483C534.735 28.6421 536 26.2515 535.563 24.1108C534.953 21.1108 531.828 19.2827 529.031 20.2827ZM531.25 23.5015C532.703 24.1108 532.61 26.064 531.125 26.564C530.125 26.8921 529 26.0483 529 25.0015C529 24.439 529.469 23.7358 529.985 23.5171C530.61 23.2358 530.625 23.2358 531.25 23.5015Z" fill="black"/>
<path d="M529.031 20.2827C528 20.6577 527.188 21.2983 526.547 22.2515C525.875 23.2358 525.672 24.064 525.75 25.3921C525.875 27.2046 526.86 28.689 528.5 29.4858C529.703 30.0796 531.469 30.0952 532.703 29.5483C534.735 28.6421 536 26.2515 535.563 24.1108C534.953 21.1108 531.828 19.2827 529.031 20.2827ZM531.25 23.5015C532.703 24.1108 532.61 26.064 531.125 26.564C530.125 26.8921 529 26.0483 529 25.0015C529 24.439 529.469 23.7358 529.985 23.5171C530.61 23.2358 530.625 23.2358 531.25 23.5015Z" fill="#FF0000"/>
<path d="M554.351 41.4422C552.557 41.8956 552.751 41.7236 543.673 50.7142C541.744 52.6374 540.128 54.201 540.084 54.201C540.039 54.201 539.829 53.8726 539.62 53.4661C538.842 51.9338 537.092 50.5579 535.417 50.1513C534.535 49.9324 516.064 49.9324 514.03 50.1357C510.785 50.4797 508.407 51.0895 506.149 52.184C505.446 52.5123 504.862 52.7938 504.832 52.7938C504.803 52.7938 504.773 52.0902 504.773 51.2302C504.773 49.3852 504.563 48.8223 503.8 48.4783C503.038 48.1499 487.364 48.1499 486.601 48.4783C485.569 48.9317 485.614 48.0405 485.659 64.3643L485.704 79.0619L486.123 79.4841L486.526 79.9219H495.201H503.875L504.279 79.4841C504.638 79.1088 504.698 78.9212 504.743 77.8892L504.803 76.7165H518.218C526.518 76.7165 532.112 76.654 532.89 76.5602C534.385 76.3726 535.447 76.0755 536.778 75.5126C539.276 74.4493 539.141 74.5588 550.433 62.8007C562.039 50.7142 561.725 51.0895 562.084 48.8223C562.293 47.4932 562.099 46.2267 561.441 44.8508C560.169 42.1302 557.208 40.7073 554.351 41.4422ZM557.387 45.0853C558.315 45.6326 558.808 46.5082 558.883 47.7121C558.943 48.5565 558.883 48.8067 558.539 49.479C558.255 50.0262 555.249 53.2629 548.175 60.6429C537.362 71.932 537.466 71.8225 534.909 72.7607L533.712 73.1985L519.235 73.2454L504.773 73.2923V64.9428V56.6089L505.939 55.9678C508.392 54.5919 511.204 53.7163 514.03 53.4192C515.915 53.2316 532.994 53.2159 534.43 53.4036C535.701 53.5756 536.3 54.029 536.868 55.2173C537.212 55.9522 537.257 56.218 537.182 56.9529C537.077 58.0161 536.569 58.8761 535.701 59.4703L535.073 59.9081L527.236 59.9862L519.399 60.0644L518.966 60.5804C518.368 61.284 518.368 62.1127 518.966 62.785L519.414 63.2854L527.535 63.2385L535.657 63.1916L536.659 62.6912C537.93 62.0658 538.992 61.0338 539.605 59.8455C539.994 59.0637 541.175 57.8129 546.933 52.0745C550.717 48.3063 553.992 45.1322 554.232 44.9915C555.264 44.4286 556.341 44.4443 557.387 45.0853ZM501.602 64.161L501.557 76.6384H495.201H488.845L488.8 64.161L488.77 51.6993H495.201H501.632L501.602 64.161Z" fill="black"/>
<path d="M554.351 41.4422C552.557 41.8956 552.751 41.7236 543.673 50.7142C541.744 52.6374 540.128 54.201 540.084 54.201C540.039 54.201 539.829 53.8726 539.62 53.4661C538.842 51.9338 537.092 50.5579 535.417 50.1513C534.535 49.9324 516.064 49.9324 514.03 50.1357C510.785 50.4797 508.407 51.0895 506.149 52.184C505.446 52.5123 504.862 52.7938 504.832 52.7938C504.803 52.7938 504.773 52.0902 504.773 51.2302C504.773 49.3852 504.563 48.8223 503.8 48.4783C503.038 48.1499 487.364 48.1499 486.601 48.4783C485.569 48.9317 485.614 48.0405 485.659 64.3643L485.704 79.0619L486.123 79.4841L486.526 79.9219H495.201H503.875L504.279 79.4841C504.638 79.1088 504.698 78.9212 504.743 77.8892L504.803 76.7165H518.218C526.518 76.7165 532.112 76.654 532.89 76.5602C534.385 76.3726 535.447 76.0755 536.778 75.5126C539.276 74.4493 539.141 74.5588 550.433 62.8007C562.039 50.7142 561.725 51.0895 562.084 48.8223C562.293 47.4932 562.099 46.2267 561.441 44.8508C560.169 42.1302 557.208 40.7073 554.351 41.4422ZM557.387 45.0853C558.315 45.6326 558.808 46.5082 558.883 47.7121C558.943 48.5565 558.883 48.8067 558.539 49.479C558.255 50.0262 555.249 53.2629 548.175 60.6429C537.362 71.932 537.466 71.8225 534.909 72.7607L533.712 73.1985L519.235 73.2454L504.773 73.2923V64.9428V56.6089L505.939 55.9678C508.392 54.5919 511.204 53.7163 514.03 53.4192C515.915 53.2316 532.994 53.2159 534.43 53.4036C535.701 53.5756 536.3 54.029 536.868 55.2173C537.212 55.9522 537.257 56.218 537.182 56.9529C537.077 58.0161 536.569 58.8761 535.701 59.4703L535.073 59.9081L527.236 59.9862L519.399 60.0644L518.966 60.5804C518.368 61.284 518.368 62.1127 518.966 62.785L519.414 63.2854L527.535 63.2385L535.657 63.1916L536.659 62.6912C537.93 62.0658 538.992 61.0338 539.605 59.8455C539.994 59.0637 541.175 57.8129 546.933 52.0745C550.717 48.3063 553.992 45.1322 554.232 44.9915C555.264 44.4286 556.341 44.4443 557.387 45.0853ZM501.602 64.161L501.557 76.6384H495.201H488.845L488.8 64.161L488.77 51.6993H495.201H501.632L501.602 64.161Z" fill="#FF0000"/>
<path d="M307.878 104L304.398 93.5H306.423L309.528 102.995H308.523L311.748 93.5H313.548L316.683 102.995H315.708L318.888 93.5H320.748L317.268 104H315.198L312.333 95.435H312.873L309.963 104H307.878ZM325.156 104.105C324.336 104.105 323.606 103.93 322.966 103.58C322.326 103.22 321.821 102.73 321.451 102.11C321.081 101.49 320.896 100.785 320.896 99.995C320.896 99.195 321.081 98.49 321.451 97.88C321.821 97.26 322.326 96.775 322.966 96.425C323.606 96.075 324.336 95.9 325.156 95.9C325.986 95.9 326.721 96.075 327.361 96.425C328.011 96.775 328.516 97.255 328.876 97.865C329.246 98.475 329.431 99.185 329.431 99.995C329.431 100.785 329.246 101.49 328.876 102.11C328.516 102.73 328.011 103.22 327.361 103.58C326.721 103.93 325.986 104.105 325.156 104.105ZM325.156 102.5C325.616 102.5 326.026 102.4 326.386 102.2C326.746 102 327.026 101.71 327.226 101.33C327.436 100.95 327.541 100.505 327.541 99.995C327.541 99.475 327.436 99.03 327.226 98.66C327.026 98.28 326.746 97.99 326.386 97.79C326.026 97.59 325.621 97.49 325.171 97.49C324.711 97.49 324.301 97.59 323.941 97.79C323.591 97.99 323.311 98.28 323.101 98.66C322.891 99.03 322.786 99.475 322.786 99.995C322.786 100.505 322.891 100.95 323.101 101.33C323.311 101.71 323.591 102 323.941 102.2C324.301 102.4 324.706 102.5 325.156 102.5ZM331.224 104V95.99H333.009V98.195L332.799 97.55C333.039 97.01 333.414 96.6 333.924 96.32C334.444 96.04 335.089 95.9 335.859 95.9V97.685C335.779 97.665 335.704 97.655 335.634 97.655C335.564 97.645 335.494 97.64 335.424 97.64C334.714 97.64 334.149 97.85 333.729 98.27C333.309 98.68 333.099 99.295 333.099 100.115V104H331.224ZM338.979 102.215L339.024 99.86L343.209 95.99H345.459L341.904 99.56L340.914 100.385L338.979 102.215ZM337.449 104V92.87H339.324V104H337.449ZM343.494 104L340.569 100.385L341.754 98.885L345.774 104H343.494ZM353.096 98.33H358.331V99.98H353.096V98.33ZM353.261 104H351.311V93.5H358.976V95.135H353.261V104ZM360.682 104V92.87H362.557V104H360.682ZM368.783 104.105C367.893 104.105 367.113 103.93 366.443 103.58C365.783 103.22 365.268 102.73 364.898 102.11C364.538 101.49 364.358 100.785 364.358 99.995C364.358 99.195 364.533 98.49 364.883 97.88C365.243 97.26 365.733 96.775 366.353 96.425C366.983 96.075 367.698 95.9 368.498 95.9C369.278 95.9 369.973 96.07 370.583 96.41C371.193 96.75 371.673 97.23 372.023 97.85C372.373 98.47 372.548 99.2 372.548 100.04C372.548 100.12 372.543 100.21 372.533 100.31C372.533 100.41 372.528 100.505 372.518 100.595H365.843V99.35H371.528L370.793 99.74C370.803 99.28 370.708 98.875 370.508 98.525C370.308 98.175 370.033 97.9 369.683 97.7C369.343 97.5 368.948 97.4 368.498 97.4C368.038 97.4 367.633 97.5 367.283 97.7C366.943 97.9 366.673 98.18 366.473 98.54C366.283 98.89 366.188 99.305 366.188 99.785V100.085C366.188 100.565 366.298 100.99 366.518 101.36C366.738 101.73 367.048 102.015 367.448 102.215C367.848 102.415 368.308 102.515 368.828 102.515C369.278 102.515 369.683 102.445 370.043 102.305C370.403 102.165 370.723 101.945 371.003 101.645L372.008 102.8C371.648 103.22 371.193 103.545 370.643 103.775C370.103 103.995 369.483 104.105 368.783 104.105ZM373.034 104L376.559 99.41L376.529 100.415L373.169 95.99H375.254L377.609 99.14H376.814L379.184 95.99H381.209L377.819 100.415L377.834 99.41L381.344 104H379.229L376.754 100.655L377.534 100.76L375.104 104H373.034ZM382.728 104V95.99H384.603V104H382.728ZM383.673 94.67C383.323 94.67 383.033 94.56 382.803 94.34C382.583 94.12 382.473 93.855 382.473 93.545C382.473 93.225 382.583 92.96 382.803 92.75C383.033 92.53 383.323 92.42 383.673 92.42C384.023 92.42 384.308 92.525 384.528 92.735C384.758 92.935 384.873 93.19 384.873 93.5C384.873 93.83 384.763 94.11 384.543 94.34C384.323 94.56 384.033 94.67 383.673 94.67ZM391.503 104.105C390.823 104.105 390.218 103.955 389.688 103.655C389.158 103.355 388.738 102.905 388.428 102.305C388.128 101.695 387.978 100.925 387.978 99.995C387.978 99.055 388.133 98.285 388.443 97.685C388.763 97.085 389.188 96.64 389.718 96.35C390.258 96.05 390.853 95.9 391.503 95.9C392.293 95.9 392.988 96.07 393.588 96.41C394.198 96.75 394.678 97.225 395.028 97.835C395.388 98.445 395.568 99.165 395.568 99.995C395.568 100.825 395.388 101.545 395.028 102.155C394.678 102.765 394.198 103.245 393.588 103.595C392.988 103.935 392.293 104.105 391.503 104.105ZM387.063 104V92.87H388.938V97.85L388.788 99.98L388.848 102.11V104H387.063ZM391.293 102.5C391.743 102.5 392.143 102.4 392.493 102.2C392.853 102 393.138 101.71 393.348 101.33C393.558 100.95 393.663 100.505 393.663 99.995C393.663 99.475 393.558 99.03 393.348 98.66C393.138 98.28 392.853 97.99 392.493 97.79C392.143 97.59 391.743 97.49 391.293 97.49C390.843 97.49 390.438 97.59 390.078 97.79C389.718 97.99 389.433 98.28 389.223 98.66C389.013 99.03 388.908 99.475 388.908 99.995C388.908 100.505 389.013 100.95 389.223 101.33C389.433 101.71 389.718 102 390.078 102.2C390.438 102.4 390.843 102.5 391.293 102.5ZM397.347 104V95.99H399.222V104H397.347ZM398.292 94.67C397.942 94.67 397.652 94.56 397.422 94.34C397.202 94.12 397.092 93.855 397.092 93.545C397.092 93.225 397.202 92.96 397.422 92.75C397.652 92.53 397.942 92.42 398.292 92.42C398.642 92.42 398.927 92.525 399.147 92.735C399.377 92.935 399.492 93.19 399.492 93.5C399.492 93.83 399.382 94.11 399.162 94.34C398.942 94.56 398.652 94.67 398.292 94.67ZM401.683 104V92.87H403.558V104H401.683ZM406.019 104V95.99H407.894V104H406.019ZM406.964 94.67C406.614 94.67 406.324 94.56 406.094 94.34C405.874 94.12 405.764 93.855 405.764 93.545C405.764 93.225 405.874 92.96 406.094 92.75C406.324 92.53 406.614 92.42 406.964 92.42C407.314 92.42 407.599 92.525 407.819 92.735C408.049 92.935 408.164 93.19 408.164 93.5C408.164 93.83 408.054 94.11 407.834 94.34C407.614 94.56 407.324 94.67 406.964 94.67ZM413.37 104.105C412.49 104.105 411.81 103.88 411.33 103.43C410.85 102.97 410.61 102.295 410.61 101.405V94.22H412.485V101.36C412.485 101.74 412.58 102.035 412.77 102.245C412.97 102.455 413.245 102.56 413.595 102.56C414.015 102.56 414.365 102.45 414.645 102.23L415.17 103.565C414.95 103.745 414.68 103.88 414.36 103.97C414.04 104.06 413.71 104.105 413.37 104.105ZM409.29 97.55V96.05H414.63V97.55H409.29ZM417.225 107.015C416.835 107.015 416.445 106.95 416.055 106.82C415.665 106.69 415.34 106.51 415.08 106.28L415.83 104.9C416.02 105.07 416.235 105.205 416.475 105.305C416.715 105.405 416.96 105.455 417.21 105.455C417.55 105.455 417.825 105.37 418.035 105.2C418.245 105.03 418.44 104.745 418.62 104.345L419.085 103.295L419.235 103.07L422.265 95.99H424.065L420.315 104.645C420.065 105.245 419.785 105.72 419.475 106.07C419.175 106.42 418.835 106.665 418.455 106.805C418.085 106.945 417.675 107.015 417.225 107.015ZM418.875 104.285L415.26 95.99H417.21L420.15 102.905L418.875 104.285Z" fill="black"/>
<path d="M356.344 6.26562C356.125 6.35938 355.781 6.57812 355.594 6.76562C354.75 7.54688 354.781 7.20312 354.781 17.8594V27.7656L355.141 28.2969C355.328 28.5781 355.735 28.9844 356.016 29.1719L356.547 29.5312H365.297H374.047L374.703 29.1406C376 28.3906 375.953 28.8281 376 18.1562C376.031 11.9062 375.985 8.53125 375.875 8.125C375.672 7.35938 375.031 6.57812 374.36 6.3125C373.953 6.14062 372.188 6.09375 365.297 6.10938C360 6.10938 356.578 6.17188 356.344 6.26562ZM373.844 8.42188C374.094 8.90625 374.063 26.8906 373.813 27.2344C373.625 27.4844 372.969 27.5 365.25 27.4688L356.891 27.4219L356.844 17.9688C356.828 12.7656 356.844 8.42188 356.891 8.3125C356.938 8.17188 358.781 8.125 365.313 8.125C373.422 8.125 373.688 8.14062 373.844 8.42188Z" fill="black"/>
<path d="M356.344 6.26562C356.125 6.35938 355.781 6.57812 355.594 6.76562C354.75 7.54688 354.781 7.20312 354.781 17.8594V27.7656L355.141 28.2969C355.328 28.5781 355.735 28.9844 356.016 29.1719L356.547 29.5312H365.297H374.047L374.703 29.1406C376 28.3906 375.953 28.8281 376 18.1562C376.031 11.9062 375.985 8.53125 375.875 8.125C375.672 7.35938 375.031 6.57812 374.36 6.3125C373.953 6.14062 372.188 6.09375 365.297 6.10938C360 6.10938 356.578 6.17188 356.344 6.26562ZM373.844 8.42188C374.094 8.90625 374.063 26.8906 373.813 27.2344C373.625 27.4844 372.969 27.5 365.25 27.4688L356.891 27.4219L356.844 17.9688C356.828 12.7656 356.844 8.42188 356.891 8.3125C356.938 8.17188 358.781 8.125 365.313 8.125C373.422 8.125 373.688 8.14062 373.844 8.42188Z" fill="#FF0000"/>
<path d="M363.188 9.21838C363.047 9.31213 362.469 9.93713 361.891 10.6246L360.844 11.8746L360.406 11.5621C359.953 11.2496 359.375 11.1559 359.063 11.3746C358.719 11.5934 358.531 12.1559 358.672 12.5309C358.844 12.9528 360.203 14.2809 360.594 14.4215C361.11 14.609 361.5 14.2965 363.063 12.4215C364.313 10.9215 364.625 10.4528 364.625 10.0465C364.625 9.28088 363.844 8.84338 363.188 9.21838Z" fill="black"/>
<path d="M363.188 9.21838C363.047 9.31213 362.469 9.93713 361.891 10.6246L360.844 11.8746L360.406 11.5621C359.953 11.2496 359.375 11.1559 359.063 11.3746C358.719 11.5934 358.531 12.1559 358.672 12.5309C358.844 12.9528 360.203 14.2809 360.594 14.4215C361.11 14.609 361.5 14.2965 363.063 12.4215C364.313 10.9215 364.625 10.4528 364.625 10.0465C364.625 9.28088 363.844 8.84338 363.188 9.21838Z" fill="#FF0000"/>
<path d="M366.609 11.9998C366.187 12.4529 366.265 13.2029 366.765 13.5935C367.172 13.906 367.343 13.9216 369.672 13.8747C372.062 13.8279 372.172 13.8122 372.453 13.4529C372.828 12.9841 372.828 12.6404 372.422 12.1248L372.109 11.7185H369.484C367.14 11.7185 366.828 11.7498 366.609 11.9998Z" fill="#FF0000"/>
<path d="M362.953 14.7796C362.844 14.8264 362.266 15.4514 361.656 16.1858L360.547 17.4983L360.141 17.1858C359.344 16.5608 358.375 16.9514 358.375 17.9046C358.375 18.2639 358.578 18.5608 359.203 19.1702C360.125 20.0764 360.484 20.2327 361 19.9514C361.188 19.8577 362.016 18.9514 362.828 17.9671C364.031 16.5296 364.312 16.0764 364.312 15.6702C364.312 14.9671 363.625 14.5139 362.953 14.7796Z" fill="black"/>
<path d="M362.953 14.7796C362.844 14.8264 362.266 15.4514 361.656 16.1858L360.547 17.4983L360.141 17.1858C359.344 16.5608 358.375 16.9514 358.375 17.9046C358.375 18.2639 358.578 18.5608 359.203 19.1702C360.125 20.0764 360.484 20.2327 361 19.9514C361.188 19.8577 362.016 18.9514 362.828 17.9671C364.031 16.5296 364.312 16.0764 364.312 15.6702C364.312 14.9671 363.625 14.5139 362.953 14.7796Z" fill="#FF0000"/>
<path d="M367.125 16.3593C366.343 16.6405 366.062 17.6718 366.625 18.1718C367.046 18.5468 371.968 18.5624 372.343 18.1874C372.937 17.6093 372.765 16.6874 372.031 16.4061C371.625 16.2499 367.531 16.2186 367.125 16.3593Z" fill="black"/>
<path d="M367.125 16.3593C366.343 16.6405 366.062 17.6718 366.625 18.1718C367.046 18.5468 371.968 18.5624 372.343 18.1874C372.937 17.6093 372.765 16.6874 372.031 16.4061C371.625 16.2499 367.531 16.2186 367.125 16.3593Z" fill="#FF0000"/>
<path d="M362.391 20.6536C362.094 20.9349 360.5 22.8099 360.297 23.1068C360.281 23.138 360.078 23.013 359.844 22.8255C359.047 22.2005 358.062 22.5599 358.062 23.4974C358.062 24.013 359.438 25.5443 360.047 25.7005C360.594 25.8255 360.828 25.638 362.516 23.5911C363.719 22.1536 364 21.7005 364 21.2943C364 20.9505 363.891 20.7161 363.656 20.5599C363.172 20.2161 362.828 20.2474 362.391 20.6536Z" fill="#FF0000"/>
<path d="M367.125 21.9844C366.343 22.2656 366.062 23.2969 366.625 23.7969C366.875 24.0156 367.312 24.0625 369.484 24.0625C370.89 24.0625 372.125 24 372.218 23.9375C372.921 23.4687 372.812 22.4219 372.031 22.0937C371.515 21.875 367.656 21.7969 367.125 21.9844Z" fill="black"/>
<path d="M367.125 21.9844C366.343 22.2656 366.062 23.2969 366.625 23.7969C366.875 24.0156 367.312 24.0625 369.484 24.0625C370.89 24.0625 372.125 24 372.218 23.9375C372.921 23.4687 372.812 22.4219 372.031 22.0937C371.515 21.875 367.656 21.7969 367.125 21.9844Z" fill="#FF0000"/>
<path d="M349.469 18.3909C347.25 20.0784 343.984 23.6565 342.969 25.5472C342.64 26.1722 342.765 26.8284 343.297 27.0628C343.984 27.3753 344.359 27.1097 345.328 25.6722C346.484 23.969 348.781 21.5628 350.687 20.0472C351.89 19.0784 352.125 18.8128 352.125 18.4534C352.125 18.219 352 17.9065 351.844 17.7659C351.312 17.2815 350.719 17.4534 349.469 18.3909Z" fill="black"/>
<path d="M349.469 18.3909C347.25 20.0784 343.984 23.6565 342.969 25.5472C342.64 26.1722 342.765 26.8284 343.297 27.0628C343.984 27.3753 344.359 27.1097 345.328 25.6722C346.484 23.969 348.781 21.5628 350.687 20.0472C351.89 19.0784 352.125 18.8128 352.125 18.4534C352.125 18.219 352 17.9065 351.844 17.7659C351.312 17.2815 350.719 17.4534 349.469 18.3909Z" fill="#FF0000"/>
<path d="M379.687 17.8906C379.343 18.4219 379.5 18.9375 380.203 19.4531C382.671 21.2969 384.734 23.4219 386.375 25.7969C387.281 27.1094 387.359 27.1875 387.921 27.1875C388.421 27.1875 388.843 26.75 388.843 26.2344C388.843 25.4531 386.468 22.3125 384.375 20.3125C381.593 17.6562 380.281 16.9844 379.687 17.8906Z" fill="black"/>
<path d="M379.687 17.8906C379.343 18.4219 379.5 18.9375 380.203 19.4531C382.671 21.2969 384.734 23.4219 386.375 25.7969C387.281 27.1094 387.359 27.1875 387.921 27.1875C388.421 27.1875 388.843 26.75 388.843 26.2344C388.843 25.4531 386.468 22.3125 384.375 20.3125C381.593 17.6562 380.281 16.9844 379.687 17.8906Z" fill="#FF0000"/>
<path d="M336.5 27.6719C331.547 28.9531 328.219 33.2187 328.219 38.2812C328.219 41.3125 329.281 43.8906 331.422 46.0156C333.547 48.1562 336.125 49.2188 339.156 49.2188C344.047 49.2188 348.172 46.1406 349.656 41.4062C349.953 40.4375 350.016 39.8906 350.016 38.2812C350.016 36.5469 349.969 36.1719 349.562 34.9375C348.578 31.9219 346.188 29.3281 343.328 28.1719C341.188 27.2969 338.625 27.1094 336.5 27.6719ZM341.141 29.6094C345.141 30.5469 348.047 34.2031 348.062 38.2969C348.062 39.625 347.578 41.5156 346.938 42.6406C346.156 44.0312 344.453 45.6406 343.062 46.2969C341.656 46.9531 340.625 47.1875 339.047 47.1875C336.703 47.1875 334.531 46.2812 332.844 44.5937C329.453 41.1875 329.344 35.8125 332.594 32.2812C333.938 30.8281 335.812 29.7812 337.594 29.4844C338.484 29.3281 340.234 29.3906 341.141 29.6094Z" fill="black"/>
<path d="M336.5 27.6719C331.547 28.9531 328.219 33.2187 328.219 38.2812C328.219 41.3125 329.281 43.8906 331.422 46.0156C333.547 48.1562 336.125 49.2188 339.156 49.2188C344.047 49.2188 348.172 46.1406 349.656 41.4062C349.953 40.4375 350.016 39.8906 350.016 38.2812C350.016 36.5469 349.969 36.1719 349.562 34.9375C348.578 31.9219 346.188 29.3281 343.328 28.1719C341.188 27.2969 338.625 27.1094 336.5 27.6719ZM341.141 29.6094C345.141 30.5469 348.047 34.2031 348.062 38.2969C348.062 39.625 347.578 41.5156 346.938 42.6406C346.156 44.0312 344.453 45.6406 343.062 46.2969C341.656 46.9531 340.625 47.1875 339.047 47.1875C336.703 47.1875 334.531 46.2812 332.844 44.5937C329.453 41.1875 329.344 35.8125 332.594 32.2812C333.938 30.8281 335.812 29.7812 337.594 29.4844C338.484 29.3281 340.234 29.3906 341.141 29.6094Z" fill="#FF0000"/>
<path d="M338.39 30.4065C337.843 31.094 337.984 32.9065 338.593 33.3127C338.906 33.5315 339.578 33.4377 339.828 33.1565C340.031 32.9377 340.093 32.5627 340.093 31.6721C340.093 30.6252 340.047 30.4534 339.75 30.2502C339.234 29.8909 338.75 29.9534 338.39 30.4065Z" fill="black"/>
<path d="M338.39 30.4065C337.843 31.094 337.984 32.9065 338.593 33.3127C338.906 33.5315 339.578 33.4377 339.828 33.1565C340.031 32.9377 340.093 32.5627 340.093 31.6721C340.093 30.6252 340.047 30.4534 339.75 30.2502C339.234 29.8909 338.75 29.9534 338.39 30.4065Z" fill="#FF0000"/>
<path d="M340.734 35.2188C338.547 37.3906 338.172 37.8438 338.172 38.25C338.172 38.5938 338.453 39.0781 339.281 40.125C340.406 41.5156 340.641 41.7188 341.188 41.7188C341.5 41.7188 342.125 41.0312 342.125 40.6875C342.125 40.5781 341.766 40.0156 341.328 39.4531L340.531 38.4062L342.656 36.25C344.922 33.9531 345.109 33.6094 344.469 32.9688C343.797 32.2969 343.484 32.4844 340.734 35.2188Z" fill="black"/>
<path d="M340.734 35.2188C338.547 37.3906 338.172 37.8438 338.172 38.25C338.172 38.5938 338.453 39.0781 339.281 40.125C340.406 41.5156 340.641 41.7188 341.188 41.7188C341.5 41.7188 342.125 41.0312 342.125 40.6875C342.125 40.5781 341.766 40.0156 341.328 39.4531L340.531 38.4062L342.656 36.25C344.922 33.9531 345.109 33.6094 344.469 32.9688C343.797 32.2969 343.484 32.4844 340.734 35.2188Z" fill="#FF0000"/>
<path d="M331.141 37.625C330.859 37.9219 330.797 38.5469 331 38.8438C331.219 39.1875 331.813 39.375 332.641 39.375C334.031 39.375 334.703 38.5938 334.063 37.6875C333.859 37.375 333.688 37.3438 332.609 37.3438C331.625 37.3438 331.344 37.4062 331.141 37.625Z" fill="black"/>
<path d="M331.141 37.625C330.859 37.9219 330.797 38.5469 331 38.8438C331.219 39.1875 331.813 39.375 332.641 39.375C334.031 39.375 334.703 38.5938 334.063 37.6875C333.859 37.375 333.688 37.3438 332.609 37.3438C331.625 37.3438 331.344 37.4062 331.141 37.625Z" fill="#FF0000"/>
<path d="M344.266 37.6244C343.938 37.9838 343.922 38.6557 344.25 38.9682C344.594 39.3119 345.141 39.4213 346.047 39.3432C347.281 39.2182 347.766 38.5151 347.188 37.6869C346.985 37.3744 346.813 37.3432 345.735 37.3432C344.75 37.3432 344.469 37.4057 344.266 37.6244Z" fill="black"/>
<path d="M344.266 37.6244C343.938 37.9838 343.922 38.6557 344.25 38.9682C344.594 39.3119 345.141 39.4213 346.047 39.3432C347.281 39.2182 347.766 38.5151 347.188 37.6869C346.985 37.3744 346.813 37.3432 345.735 37.3432C344.75 37.3432 344.469 37.4057 344.266 37.6244Z" fill="#FF0000"/>
<path d="M338.39 43.5315C337.843 44.219 337.984 46.0315 338.593 46.4377C338.906 46.6565 339.578 46.5627 339.828 46.2815C340.031 46.0627 340.093 45.6877 340.093 44.7971C340.093 43.7502 340.047 43.5784 339.75 43.3752C339.234 43.0159 338.75 43.0784 338.39 43.5315Z" fill="black"/>
<path d="M338.39 43.5315C337.843 44.219 337.984 46.0315 338.593 46.4377C338.906 46.6565 339.578 46.5627 339.828 46.2815C340.031 46.0627 340.093 45.6877 340.093 44.7971C340.093 43.7502 340.047 43.5784 339.75 43.3752C339.234 43.0159 338.75 43.0784 338.39 43.5315Z" fill="#FF0000"/>
<path d="M386.422 29.6716C385.547 30.2029 385.344 30.5623 385.281 31.7185L385.219 32.781L383.219 32.8435C381.047 32.8904 380.75 32.9998 380.031 33.9685C379.719 34.3748 379.703 34.6248 379.656 39.8904C379.625 45.3435 379.625 45.3904 379.969 45.9998C380.688 47.2341 380.359 47.1873 389.781 47.1873C397.844 47.1873 398.156 47.1716 398.656 46.8748C398.938 46.7029 399.297 46.3435 399.469 46.0623C399.766 45.5779 399.781 45.2654 399.781 40.0154C399.781 34.7341 399.766 34.4685 399.469 33.9685C398.922 33.0935 398.078 32.8123 396.063 32.8123H394.313V32.0623C394.313 31.0623 393.781 30.031 393.063 29.656C392.594 29.4216 392.125 29.3748 389.703 29.3748C387.234 29.3748 386.828 29.406 386.422 29.6716ZM392.25 32.1404L392.297 32.8123H389.797H387.281V32.1091V31.3904L389.75 31.4373L392.203 31.4841L392.25 32.1404ZM397.047 34.9841C396.953 35.0623 395.531 35.8435 393.859 36.7185L390.844 38.3123L390.5 37.9841C390.031 37.5466 389.25 37.5466 388.938 37.9998C388.75 38.2498 388.625 38.2966 388.406 38.1873C387.031 37.4998 382.281 34.9685 382.281 34.906C382.281 34.8748 385.641 34.8435 389.734 34.8435C394.156 34.8435 397.125 34.906 397.047 34.9841ZM385.25 38.8123C388.25 40.406 388.609 40.6404 388.719 41.0466C388.781 41.3123 388.953 41.6091 389.078 41.7185C389.641 42.1873 390.719 41.7185 390.719 40.9998C390.719 40.7029 391.234 40.3904 394.156 38.8435C396.047 37.8435 397.641 37.031 397.672 37.031C397.719 37.031 397.75 38.8591 397.75 41.0935V45.156L389.75 45.1248L381.734 45.0779L381.688 41.0466C381.672 38.8435 381.703 37.031 381.766 37.031C381.844 37.031 383.406 37.8435 385.25 38.8123Z" fill="black"/>
<path d="M386.422 29.6716C385.547 30.2029 385.344 30.5623 385.281 31.7185L385.219 32.781L383.219 32.8435C381.047 32.8904 380.75 32.9998 380.031 33.9685C379.719 34.3748 379.703 34.6248 379.656 39.8904C379.625 45.3435 379.625 45.3904 379.969 45.9998C380.688 47.2341 380.359 47.1873 389.781 47.1873C397.844 47.1873 398.156 47.1716 398.656 46.8748C398.938 46.7029 399.297 46.3435 399.469 46.0623C399.766 45.5779 399.781 45.2654 399.781 40.0154C399.781 34.7341 399.766 34.4685 399.469 33.9685C398.922 33.0935 398.078 32.8123 396.063 32.8123H394.313V32.0623C394.313 31.0623 393.781 30.031 393.063 29.656C392.594 29.4216 392.125 29.3748 389.703 29.3748C387.234 29.3748 386.828 29.406 386.422 29.6716ZM392.25 32.1404L392.297 32.8123H389.797H387.281V32.1091V31.3904L389.75 31.4373L392.203 31.4841L392.25 32.1404ZM397.047 34.9841C396.953 35.0623 395.531 35.8435 393.859 36.7185L390.844 38.3123L390.5 37.9841C390.031 37.5466 389.25 37.5466 388.938 37.9998C388.75 38.2498 388.625 38.2966 388.406 38.1873C387.031 37.4998 382.281 34.9685 382.281 34.906C382.281 34.8748 385.641 34.8435 389.734 34.8435C394.156 34.8435 397.125 34.906 397.047 34.9841ZM385.25 38.8123C388.25 40.406 388.609 40.6404 388.719 41.0466C388.781 41.3123 388.953 41.6091 389.078 41.7185C389.641 42.1873 390.719 41.7185 390.719 40.9998C390.719 40.7029 391.234 40.3904 394.156 38.8435C396.047 37.8435 397.641 37.031 397.672 37.031C397.719 37.031 397.75 38.8591 397.75 41.0935V45.156L389.75 45.1248L381.734 45.0779L381.688 41.0466C381.672 38.8435 381.703 37.031 381.766 37.031C381.844 37.031 383.406 37.8435 385.25 38.8123Z" fill="#FF0000"/>
<path d="M364.109 45.2974C362.656 45.7818 361.469 46.8286 360.75 48.2818C360.391 49.0318 360.328 49.3286 360.328 50.5474C360.328 51.8286 360.375 52.063 360.844 53.0005C361.406 54.1568 362.344 55.0943 363.5 55.6568C364.594 56.1724 366.594 56.2349 367.781 55.7818C368.969 55.3443 370.266 54.1568 370.828 53.0005C371.219 52.2193 371.266 51.938 371.266 50.6255C371.266 49.3443 371.203 49.0161 370.844 48.2505C369.672 45.7349 366.703 44.438 364.109 45.2974ZM366.984 47.2661C369.703 48.2349 370.141 51.9536 367.719 53.5474C367.141 53.938 366.922 53.9849 365.797 53.9849C364.672 53.9849 364.453 53.938 363.875 53.563C362.016 52.3286 361.766 49.7193 363.359 48.1255C364.422 47.0786 365.625 46.7974 366.984 47.2661Z" fill="black"/>
<path d="M364.109 45.2974C362.656 45.7818 361.469 46.8286 360.75 48.2818C360.391 49.0318 360.328 49.3286 360.328 50.5474C360.328 51.8286 360.375 52.063 360.844 53.0005C361.406 54.1568 362.344 55.0943 363.5 55.6568C364.594 56.1724 366.594 56.2349 367.781 55.7818C368.969 55.3443 370.266 54.1568 370.828 53.0005C371.219 52.2193 371.266 51.938 371.266 50.6255C371.266 49.3443 371.203 49.0161 370.844 48.2505C369.672 45.7349 366.703 44.438 364.109 45.2974ZM366.984 47.2661C369.703 48.2349 370.141 51.9536 367.719 53.5474C367.141 53.938 366.922 53.9849 365.797 53.9849C364.672 53.9849 364.453 53.938 363.875 53.563C362.016 52.3286 361.766 49.7193 363.359 48.1255C364.422 47.0786 365.625 46.7974 366.984 47.2661Z" fill="#FF0000"/>
<path d="M351.969 47.6398C351.312 47.8585 350.656 48.2335 350.297 48.6241C349.469 49.5148 349.234 51.1241 349.766 52.2648C349.937 52.6085 351.734 54.8898 353.766 57.3429C355.797 59.796 357.609 62.0773 357.797 62.421C358.125 63.0148 358.141 63.296 358.219 67.5773C358.312 72.6241 358.281 72.5304 359.422 73.3898L359.984 73.8273L365.391 73.8741C368.359 73.9054 371.031 73.8741 371.312 73.8273C371.844 73.7335 372.781 72.9991 373.109 72.4366C373.234 72.2179 373.328 70.7335 373.375 67.6554C373.453 63.421 373.469 63.171 373.812 62.4991C374 62.1085 375.812 59.796 377.844 57.3429C379.875 54.8898 381.672 52.6241 381.828 52.3116C382.234 51.5304 382.219 50.171 381.812 49.3898C381.187 48.1554 379.562 47.3116 378.344 47.5773C377.172 47.8429 376.766 48.2179 372.891 52.6866C370.75 55.1554 368.766 57.3585 368.5 57.5773C367.312 58.5773 365.484 58.7804 363.969 58.0929C363.187 57.7335 362.703 57.2335 359 52.9835C356.172 49.7491 354.703 48.171 354.281 47.9523C353.594 47.5929 352.531 47.4523 351.969 47.6398ZM353.312 49.7335C353.5 49.8429 355.141 51.6398 356.969 53.7491C361.125 58.546 361.859 59.296 362.828 59.796C363.266 60.0148 363.625 60.2179 363.656 60.2335C363.687 60.2648 363.391 61.8273 363 63.7335C362.609 65.6241 362.328 67.2804 362.375 67.421C362.562 67.9054 365.422 70.3116 365.812 70.3116C366.156 70.3116 367.984 68.8429 368.984 67.7491L369.359 67.3429L368.703 64.0616C368.328 62.2648 368 60.6554 367.953 60.4835C367.891 60.2491 368 60.1554 368.406 60.0148C369.344 59.7023 370.516 58.5616 374.234 54.2491C376.266 51.9054 378.094 49.8898 378.297 49.7491C379.094 49.2335 380.094 49.8585 380.094 50.8898C380.094 51.4523 380.094 51.4366 375.344 57.1866C373.75 59.1241 372.266 61.046 372.047 61.4835C371.453 62.6866 371.344 63.6398 371.344 67.7179C371.344 70.4523 371.297 71.546 371.156 71.6866C370.875 71.9679 360.891 71.9523 360.516 71.671C360.297 71.5148 360.266 70.9523 360.219 67.1085L360.172 62.7335L359.687 61.7179C359.344 61.0148 358.016 59.2648 355.344 56.046C352.078 52.0773 351.5 51.3116 351.5 50.8741C351.5 49.8741 352.484 49.2491 353.312 49.7335ZM366.578 63.796L367.187 66.7491L366.562 67.2804C366.234 67.5616 365.875 67.796 365.797 67.8116C365.703 67.8116 365.359 67.546 365.047 67.2179L364.469 66.6241L365.016 63.9679C365.734 60.4679 365.719 60.5616 365.859 60.7179C365.922 60.796 366.25 62.1866 366.578 63.796Z" fill="black"/>
<path d="M351.969 47.6398C351.312 47.8585 350.656 48.2335 350.297 48.6241C349.469 49.5148 349.234 51.1241 349.766 52.2648C349.937 52.6085 351.734 54.8898 353.766 57.3429C355.797 59.796 357.609 62.0773 357.797 62.421C358.125 63.0148 358.141 63.296 358.219 67.5773C358.312 72.6241 358.281 72.5304 359.422 73.3898L359.984 73.8273L365.391 73.8741C368.359 73.9054 371.031 73.8741 371.312 73.8273C371.844 73.7335 372.781 72.9991 373.109 72.4366C373.234 72.2179 373.328 70.7335 373.375 67.6554C373.453 63.421 373.469 63.171 373.812 62.4991C374 62.1085 375.812 59.796 377.844 57.3429C379.875 54.8898 381.672 52.6241 381.828 52.3116C382.234 51.5304 382.219 50.171 381.812 49.3898C381.187 48.1554 379.562 47.3116 378.344 47.5773C377.172 47.8429 376.766 48.2179 372.891 52.6866C370.75 55.1554 368.766 57.3585 368.5 57.5773C367.312 58.5773 365.484 58.7804 363.969 58.0929C363.187 57.7335 362.703 57.2335 359 52.9835C356.172 49.7491 354.703 48.171 354.281 47.9523C353.594 47.5929 352.531 47.4523 351.969 47.6398ZM353.312 49.7335C353.5 49.8429 355.141 51.6398 356.969 53.7491C361.125 58.546 361.859 59.296 362.828 59.796C363.266 60.0148 363.625 60.2179 363.656 60.2335C363.687 60.2648 363.391 61.8273 363 63.7335C362.609 65.6241 362.328 67.2804 362.375 67.421C362.562 67.9054 365.422 70.3116 365.812 70.3116C366.156 70.3116 367.984 68.8429 368.984 67.7491L369.359 67.3429L368.703 64.0616C368.328 62.2648 368 60.6554 367.953 60.4835C367.891 60.2491 368 60.1554 368.406 60.0148C369.344 59.7023 370.516 58.5616 374.234 54.2491C376.266 51.9054 378.094 49.8898 378.297 49.7491C379.094 49.2335 380.094 49.8585 380.094 50.8898C380.094 51.4523 380.094 51.4366 375.344 57.1866C373.75 59.1241 372.266 61.046 372.047 61.4835C371.453 62.6866 371.344 63.6398 371.344 67.7179C371.344 70.4523 371.297 71.546 371.156 71.6866C370.875 71.9679 360.891 71.9523 360.516 71.671C360.297 71.5148 360.266 70.9523 360.219 67.1085L360.172 62.7335L359.687 61.7179C359.344 61.0148 358.016 59.2648 355.344 56.046C352.078 52.0773 351.5 51.3116 351.5 50.8741C351.5 49.8741 352.484 49.2491 353.312 49.7335ZM366.578 63.796L367.187 66.7491L366.562 67.2804C366.234 67.5616 365.875 67.796 365.797 67.8116C365.703 67.8116 365.359 67.546 365.047 67.2179L364.469 66.6241L365.016 63.9679C365.734 60.4679 365.719 60.5616 365.859 60.7179C365.922 60.796 366.25 62.1866 366.578 63.796Z" fill="#FF0000"/>
</svg>
