<svg width="2589" height="2644" viewBox="0 0 2589 2644" fill="none" xmlns="http://www.w3.org/2000/svg">
<g filter="url(#filter0_f_479_2566)">
<path d="M1561.81 1273.17C1698 1273.17 1808.4 1162.77 1808.4 1026.59C1808.4 890.401 1698 780 1561.81 780C1425.63 780 1315.23 890.401 1315.23 1026.59C1315.23 1162.77 1425.63 1273.17 1561.81 1273.17Z" fill="#5C1313"/>
</g>
<g filter="url(#filter1_f_479_2566)">
<path d="M1273.17 1617.07C1273.17 1753.25 1162.77 1863.65 1026.58 1863.65C890.4 1863.65 780 1753.25 780 1617.07C780 1480.88 890.4 1370.48 1026.58 1370.48C1162.77 1370.48 1273.17 1480.88 1273.17 1617.07Z" fill="#FBC7C7"/>
</g>
<path d="M1668.47 1436.01C1668.47 1602.73 1533.32 1737.87 1366.61 1737.87C1199.9 1737.87 1064.75 1602.73 1064.75 1436.01C1064.75 1269.3 1199.9 1134.15 1366.61 1134.15C1533.32 1134.15 1668.47 1269.3 1668.47 1436.01ZM1115.9 1436.01C1115.9 1574.48 1228.15 1686.72 1366.61 1686.72C1505.07 1686.72 1617.32 1574.48 1617.32 1436.01C1617.32 1297.55 1505.07 1185.3 1366.61 1185.3C1228.15 1185.3 1115.9 1297.55 1115.9 1436.01Z" fill="url(#paint0_linear_479_2566)"/>
<path d="M1583.6 1436.01C1583.6 1555.85 1486.45 1653 1366.61 1653C1246.77 1653 1149.62 1555.85 1149.62 1436.01C1149.62 1316.18 1246.77 1219.03 1366.61 1219.03C1486.45 1219.03 1583.6 1316.18 1583.6 1436.01ZM1186.4 1436.01C1186.4 1535.55 1267.08 1616.23 1366.61 1616.23C1466.14 1616.23 1546.84 1535.55 1546.84 1436.01C1546.84 1336.48 1466.14 1255.79 1366.61 1255.79C1267.08 1255.79 1186.4 1336.48 1186.4 1436.01Z" fill="url(#paint1_linear_479_2566)"/>
<defs>
<filter id="filter0_f_479_2566" x="535.227" y="0" width="2053.17" height="2053.17" filterUnits="userSpaceOnUse" color-interpolation-filters="sRGB">
<feFlood flood-opacity="0" result="BackgroundImageFix"/>
<feBlend mode="normal" in="SourceGraphic" in2="BackgroundImageFix" result="shape"/>
<feGaussianBlur stdDeviation="390" result="effect1_foregroundBlur_479_2566"/>
</filter>
<filter id="filter1_f_479_2566" x="0" y="590.477" width="2053.17" height="2053.17" filterUnits="userSpaceOnUse" color-interpolation-filters="sRGB">
<feFlood flood-opacity="0" result="BackgroundImageFix"/>
<feBlend mode="normal" in="SourceGraphic" in2="BackgroundImageFix" result="shape"/>
<feGaussianBlur stdDeviation="390" result="effect1_foregroundBlur_479_2566"/>
</filter>
<linearGradient id="paint0_linear_479_2566" x1="1366.61" y1="1134.15" x2="1366.61" y2="1737.87" gradientUnits="userSpaceOnUse">
<stop stop-color="#FEBFBF"/>
<stop offset="1" stop-color="white" stop-opacity="0.09"/>
</linearGradient>
<linearGradient id="paint1_linear_479_2566" x1="1366.62" y1="1219.03" x2="1366.62" y2="1653" gradientUnits="userSpaceOnUse">
<stop stop-color="#FEBFBF"/>
<stop offset="1" stop-color="white" stop-opacity="0.09"/>
</linearGradient>
</defs>
</svg>
