<svg width="45" height="48" viewBox="0 0 45 48" fill="none" xmlns="http://www.w3.org/2000/svg">
<mask id="path-1-inside-1_242_5061" fill="white">
<path d="M27.8127 31.0873C27.7144 31.072 27.6144 31.0851 27.5213 31.1256C27.4281 31.166 27.3446 31.2327 27.2776 31.3198C27.2099 31.406 27.1603 31.5101 27.1327 31.6234C27.1052 31.7368 27.1005 31.8564 27.119 31.9723C27.4665 34.1474 28.636 37.1325 32.2265 38.9911C32.652 39.2101 33.3092 39.3811 34.1426 39.5956C37.2623 40.3997 42.4794 41.7467 43.761 47.444C43.7825 47.5392 43.8195 47.6285 43.8699 47.7067C43.9204 47.7849 43.9833 47.8505 44.055 47.8997C44.1267 47.9489 44.2059 47.9809 44.2879 47.9937C44.37 48.0064 44.4534 47.9999 44.5333 47.9742C44.6133 47.9486 44.6882 47.9045 44.7538 47.8444C44.8195 47.7843 44.8745 47.7094 44.9158 47.6239C44.9571 47.5385 44.9839 47.4441 44.9947 47.3463C45.0054 47.2486 44.9999 47.1492 44.9784 47.054C43.4966 40.4732 37.5859 38.9476 34.4095 38.1286C33.6743 37.9381 33.0385 37.7746 32.7276 37.6126C30.5698 36.4965 29.1761 34.8405 28.5718 32.6834C34.5669 33.2144 37.2812 30.3688 37.4008 30.2398C37.4745 30.1602 37.5314 30.0609 37.5667 29.9501C37.602 29.8393 37.6148 29.7201 37.604 29.6023C37.5932 29.4845 37.5591 29.3714 37.5045 29.2723C37.4499 29.1732 37.3764 29.0909 37.29 29.0322C33.8304 26.6771 33.8304 18.5393 33.8304 15.4746C33.8304 6.90479 28.986 0.111005 22.7756 0.00450019L22.5981 0C16.2971 0.0420017 11.1694 6.84329 11.1694 15.1626C11.1694 18.2273 11.1694 26.3666 7.70983 28.7202C7.62065 28.7819 7.54547 28.8686 7.49083 28.9729C7.43618 29.0771 7.40373 29.1956 7.39628 29.3182C7.38884 29.4408 7.40663 29.5636 7.44811 29.6761C7.48959 29.7886 7.5535 29.8874 7.63429 29.9637C7.80803 30.1243 11.6478 33.6254 16.3726 32.5619C15.7406 34.6289 14.3659 36.219 12.271 37.3036C11.9676 37.4611 11.3633 37.6336 10.6633 37.8316C7.4656 38.7376 1.51205 40.4252 0.0214552 47.0525C4.53666e-05 47.1477 -0.00541034 47.247 0.00539958 47.3448C0.0162095 47.4426 0.0430733 47.5368 0.0844573 47.6222C0.168036 47.7946 0.305685 47.9205 0.467122 47.972C0.628559 48.0235 0.800561 47.9965 0.945289 47.8969C1.09002 47.7973 1.19562 47.6333 1.23886 47.441C2.53431 41.6747 7.80677 40.1822 10.9554 39.2881C11.7448 39.0646 12.3679 38.8876 12.7733 38.6791C16.3638 36.8205 17.5321 33.8354 17.8808 31.6603C17.9012 31.5329 17.8934 31.4014 17.8583 31.2786C17.8232 31.1558 17.762 31.046 17.6807 30.9598C17.5995 30.8735 17.5009 30.8138 17.3945 30.7865C17.2882 30.7591 17.1777 30.7651 17.0739 30.8038C13.6659 32.0818 10.5173 30.3238 9.14125 29.3487C12.4284 26.0696 12.4284 18.5228 12.4284 15.1626C12.4284 7.66682 16.9933 1.53756 22.651 1.49706L22.7844 1.50606C28.3641 1.60057 32.5715 7.60532 32.5715 15.4746C32.5715 18.8363 32.5715 26.3996 35.8724 29.6787C34.7356 30.4528 32.1434 31.7053 27.8127 31.0873Z"/>
</mask>
<path d="M27.8127 31.0873C27.7144 31.072 27.6144 31.0851 27.5213 31.1256C27.4281 31.166 27.3446 31.2327 27.2776 31.3198C27.2099 31.406 27.1603 31.5101 27.1327 31.6234C27.1052 31.7368 27.1005 31.8564 27.119 31.9723C27.4665 34.1474 28.636 37.1325 32.2265 38.9911C32.652 39.2101 33.3092 39.3811 34.1426 39.5956C37.2623 40.3997 42.4794 41.7467 43.761 47.444C43.7825 47.5392 43.8195 47.6285 43.8699 47.7067C43.9204 47.7849 43.9833 47.8505 44.055 47.8997C44.1267 47.9489 44.2059 47.9809 44.2879 47.9937C44.37 48.0064 44.4534 47.9999 44.5333 47.9742C44.6133 47.9486 44.6882 47.9045 44.7538 47.8444C44.8195 47.7843 44.8745 47.7094 44.9158 47.6239C44.9571 47.5385 44.9839 47.4441 44.9947 47.3463C45.0054 47.2486 44.9999 47.1492 44.9784 47.054C43.4966 40.4732 37.5859 38.9476 34.4095 38.1286C33.6743 37.9381 33.0385 37.7746 32.7276 37.6126C30.5698 36.4965 29.1761 34.8405 28.5718 32.6834C34.5669 33.2144 37.2812 30.3688 37.4008 30.2398C37.4745 30.1602 37.5314 30.0609 37.5667 29.9501C37.602 29.8393 37.6148 29.7201 37.604 29.6023C37.5932 29.4845 37.5591 29.3714 37.5045 29.2723C37.4499 29.1732 37.3764 29.0909 37.29 29.0322C33.8304 26.6771 33.8304 18.5393 33.8304 15.4746C33.8304 6.90479 28.986 0.111005 22.7756 0.00450019L22.5981 0C16.2971 0.0420017 11.1694 6.84329 11.1694 15.1626C11.1694 18.2273 11.1694 26.3666 7.70983 28.7202C7.62065 28.7819 7.54547 28.8686 7.49083 28.9729C7.43618 29.0771 7.40373 29.1956 7.39628 29.3182C7.38884 29.4408 7.40663 29.5636 7.44811 29.6761C7.48959 29.7886 7.5535 29.8874 7.63429 29.9637C7.80803 30.1243 11.6478 33.6254 16.3726 32.5619C15.7406 34.6289 14.3659 36.219 12.271 37.3036C11.9676 37.4611 11.3633 37.6336 10.6633 37.8316C7.4656 38.7376 1.51205 40.4252 0.0214552 47.0525C4.53666e-05 47.1477 -0.00541034 47.247 0.00539958 47.3448C0.0162095 47.4426 0.0430733 47.5368 0.0844573 47.6222C0.168036 47.7946 0.305685 47.9205 0.467122 47.972C0.628559 48.0235 0.800561 47.9965 0.945289 47.8969C1.09002 47.7973 1.19562 47.6333 1.23886 47.441C2.53431 41.6747 7.80677 40.1822 10.9554 39.2881C11.7448 39.0646 12.3679 38.8876 12.7733 38.6791C16.3638 36.8205 17.5321 33.8354 17.8808 31.6603C17.9012 31.5329 17.8934 31.4014 17.8583 31.2786C17.8232 31.1558 17.762 31.046 17.6807 30.9598C17.5995 30.8735 17.5009 30.8138 17.3945 30.7865C17.2882 30.7591 17.1777 30.7651 17.0739 30.8038C13.6659 32.0818 10.5173 30.3238 9.14125 29.3487C12.4284 26.0696 12.4284 18.5228 12.4284 15.1626C12.4284 7.66682 16.9933 1.53756 22.651 1.49706L22.7844 1.50606C28.3641 1.60057 32.5715 7.60532 32.5715 15.4746C32.5715 18.8363 32.5715 26.3996 35.8724 29.6787C34.7356 30.4528 32.1434 31.7053 27.8127 31.0873Z" fill="white"/>
<path d="M27.8127 31.0873L27.0425 36.0276L27.0744 36.0326L27.1063 36.0371L27.8127 31.0873ZM27.2776 31.3198L31.2108 34.4069L31.2268 34.3865L31.2426 34.366L27.2776 31.3198ZM27.119 31.9723L22.1816 32.7609L22.1816 32.7611L27.119 31.9723ZM32.2265 38.9911L29.928 43.4315L29.9384 43.4368L32.2265 38.9911ZM34.1426 39.5956L35.3905 34.7539L35.3889 34.7535L34.1426 39.5956ZM43.761 47.444L38.8829 48.5413L38.8836 48.5446L43.761 47.444ZM44.9784 47.054L40.1005 48.1523L40.101 48.1546L44.9784 47.054ZM34.4095 38.1286L33.1554 42.9687L33.1611 42.9702L34.4095 38.1286ZM32.7276 37.6126L35.0378 33.1783L35.0312 33.1748L35.0246 33.1714L32.7276 37.6126ZM28.5718 32.6834L29.013 27.7029L21.8052 27.0644L23.7572 34.0322L28.5718 32.6834ZM37.4008 30.2398L41.0675 33.6391L41.068 33.6385L37.4008 30.2398ZM37.29 29.0322L34.4763 33.1654L34.4806 33.1683L37.29 29.0322ZM22.7756 0.00450019L22.6489 5.00289L22.6694 5.00341L22.6899 5.00377L22.7756 0.00450019ZM22.5981 0L22.7248 -4.99839L22.6448 -5.00042L22.5648 -4.99989L22.5981 0ZM7.70983 28.7202L4.8974 24.5862L4.88089 24.5974L4.86447 24.6088L7.70983 28.7202ZM7.63429 29.9637L4.19945 33.5972L4.22028 33.6169L4.24134 33.6363L7.63429 29.9637ZM16.3726 32.5619L21.1541 34.0238L23.6703 25.7941L15.2746 27.6839L16.3726 32.5619ZM12.271 37.3036L9.97223 32.8633L9.96727 32.8659L12.271 37.3036ZM10.6633 37.8316L9.30233 33.0204L9.30028 33.0209L10.6633 37.8316ZM0.0214552 47.0525L-4.85668 45.9553L-4.85682 45.9559L0.0214552 47.0525ZM0.0844573 47.6222L4.58385 45.4415L0.0844573 47.6222ZM1.23886 47.441L6.11713 48.5375L6.11726 48.537L1.23886 47.441ZM10.9554 39.2881L9.59318 34.4773L9.58965 34.4783L10.9554 39.2881ZM12.7733 38.6791L15.0603 43.1254L15.0718 43.1195L12.7733 38.6791ZM17.8808 31.6603L22.8178 32.4518L22.8185 32.4476L17.8808 31.6603ZM17.6807 30.9598L14.0399 34.3869L14.0448 34.3921L17.6807 30.9598ZM17.0739 30.8038L15.3278 26.1186L15.3182 26.1222L17.0739 30.8038ZM9.14125 29.3487L5.61001 25.8089L1.41017 29.9986L6.25047 33.4283L9.14125 29.3487ZM22.651 1.49706L22.9875 -3.4916L22.8015 -3.50414L22.6152 -3.50281L22.651 1.49706ZM22.7844 1.50606L22.448 6.49473L22.5737 6.50321L22.6998 6.50535L22.7844 1.50606ZM35.8724 29.6787L38.6864 33.8117L43.6948 30.4017L39.3962 26.1315L35.8724 29.6787ZM27.8127 31.0873L28.5828 26.147C27.5283 25.9826 26.4714 26.1301 25.5285 26.5398L27.5213 31.1256L29.514 35.7113C28.7574 36.0401 27.9005 36.1614 27.0425 36.0276L27.8127 31.0873ZM27.5213 31.1256L25.5285 26.5398C24.5951 26.9454 23.8524 27.5711 23.3127 28.2736L27.2776 31.3198L31.2426 34.366C30.8367 34.8942 30.2611 35.3866 29.514 35.7113L27.5213 31.1256ZM27.2776 31.3198L23.3444 28.2327C22.8076 28.9166 22.4595 29.6804 22.2742 30.4424L27.1327 31.6234L31.9912 32.8045C31.8611 33.3397 31.6123 33.8954 31.2108 34.4069L27.2776 31.3198ZM27.1327 31.6234L22.2742 30.4424C22.0889 31.2049 22.0591 31.9941 22.1816 32.7609L27.119 31.9723L32.0564 31.1838C32.1418 31.7187 32.1215 32.2688 31.9912 32.8045L27.1327 31.6234ZM27.119 31.9723L22.1816 32.7611C22.6974 35.99 24.5229 40.6336 29.928 43.4315L32.2265 38.9911L34.525 34.5507C33.5468 34.0444 33.0162 33.4598 32.6919 32.9429C32.3447 32.3896 32.1508 31.7745 32.0564 31.1836L27.119 31.9723ZM32.2265 38.9911L29.9384 43.4368C30.9843 43.9751 32.3077 44.2863 32.8963 44.4378L34.1426 39.5956L35.3889 34.7535C34.949 34.6402 34.68 34.5697 34.4744 34.5078C34.4296 34.4943 34.3961 34.4836 34.3719 34.4756C34.3601 34.4717 34.3512 34.4686 34.3451 34.4665C34.339 34.4643 34.3362 34.4633 34.3364 34.4634C34.3365 34.4634 34.3403 34.4648 34.3473 34.4676C34.3542 34.4704 34.3651 34.4749 34.3795 34.4811C34.4073 34.4931 34.4539 34.5141 34.5147 34.5454L32.2265 38.9911ZM34.1426 39.5956L32.8948 44.4374C34.5273 44.8582 35.891 45.243 37.0069 45.9347C37.9362 46.5107 38.588 47.2304 38.8829 48.5413L43.761 47.444L48.6391 46.3466C46.6126 37.338 38.1115 35.4552 35.3905 34.7539L34.1426 39.5956ZM43.761 47.444L38.8836 48.5446C39.0278 49.1833 39.2845 49.8221 39.6684 50.4172L43.8699 47.7067L48.0715 44.9961C48.3545 45.4349 48.5372 45.8951 48.6383 46.3434L43.761 47.444ZM43.8699 47.7067L39.6684 50.4172C40.0527 51.013 40.5699 51.572 41.225 52.0217L44.055 47.8997L46.885 43.7777C47.3966 44.1289 47.788 44.5568 48.0715 44.9961L43.8699 47.7067ZM44.055 47.8997L41.225 52.0217C41.8837 52.474 42.6618 52.8006 43.5181 52.934L44.2879 47.9937L45.0578 43.0533C45.7499 43.1611 46.3697 43.4239 46.885 43.7777L44.055 47.8997ZM44.2879 47.9937L43.5181 52.934C44.3769 53.0679 45.246 52.9963 46.0588 52.7359L44.5333 47.9742L43.0079 43.2126C43.6608 43.0034 44.3631 42.945 45.0578 43.0533L44.2879 47.9937ZM44.5333 47.9742L46.0588 52.7359C46.8673 52.4768 47.5656 52.0493 48.131 51.5316L44.7538 47.8444L41.3767 44.1573C41.8108 43.7597 42.3592 43.4204 43.0079 43.2126L44.5333 47.9742ZM44.7538 47.8444L48.131 51.5316C48.6941 51.0158 49.1187 50.4178 49.4171 49.8007L44.9158 47.6239L40.4145 45.4472C40.6303 45.001 40.9448 44.5528 41.3767 44.1573L44.7538 47.8444ZM44.9158 47.6239L49.4171 49.8007C49.7156 49.1836 49.8942 48.5352 49.9648 47.8918L44.9947 47.3463L40.0245 46.8008C40.0737 46.3531 40.1987 45.8934 40.4145 45.4472L44.9158 47.6239ZM44.9947 47.3463L49.9648 47.8918C50.0355 47.2483 50 46.5926 49.8557 45.9534L44.9784 47.054L40.101 48.1546C39.9998 47.7059 39.9754 47.2488 40.0245 46.8008L44.9947 47.3463ZM44.9784 47.054L49.8563 45.9556C47.6394 36.1103 38.5417 34.0305 35.658 33.287L34.4095 38.1286L33.1611 42.9702C36.63 43.8647 39.3538 44.8361 40.1005 48.1523L44.9784 47.054ZM34.4095 38.1286L35.6637 33.2884C35.4745 33.2394 35.3145 33.198 35.1656 33.1584C35.0174 33.119 34.9042 33.0877 34.8162 33.0619C34.7243 33.0349 34.6933 33.0237 34.7028 33.0271C34.7098 33.0296 34.7412 33.0409 34.7906 33.0616C34.8379 33.0814 34.925 33.1195 35.0378 33.1783L32.7276 37.6126L30.4174 42.0468C31.0473 42.375 31.7022 42.5698 32.0027 42.6579C32.3853 42.7701 32.8152 42.8806 33.1554 42.9687L34.4095 38.1286ZM32.7276 37.6126L35.0246 33.1714C33.987 32.6348 33.5841 32.0401 33.3864 31.3346L28.5718 32.6834L23.7572 34.0322C24.7681 37.6408 27.1525 40.3583 30.4306 42.0537L32.7276 37.6126ZM28.5718 32.6834L28.1307 37.6639C36.0965 38.3694 40.2305 34.5419 41.0675 33.6391L37.4008 30.2398L33.7341 26.8404C34.3319 26.1957 33.0373 28.0593 29.013 27.7029L28.5718 32.6834ZM37.4008 30.2398L41.068 33.6385C41.6763 32.9822 42.0885 32.2279 42.3305 31.4688L37.5667 29.9501L32.8029 28.4315C32.9743 27.894 33.2728 27.3382 33.7336 26.841L37.4008 30.2398ZM37.5667 29.9501L42.3305 31.4688C42.5726 30.7093 42.6539 29.9177 42.5831 29.1455L37.604 29.6023L32.6249 30.0591C32.5757 29.5225 32.6314 28.9694 32.8029 28.4315L37.5667 29.9501ZM37.604 29.6023L42.5831 29.1455C42.5123 28.3736 42.2863 27.5902 41.8841 26.86L37.5045 29.2723L33.1249 31.6846C32.8319 31.1525 32.6741 30.5954 32.6249 30.0591L37.604 29.6023ZM37.5045 29.2723L41.8841 26.86C41.4815 26.129 40.8908 25.4336 40.0994 24.8961L37.29 29.0322L34.4806 33.1683C33.8621 32.7482 33.4184 32.2174 33.1249 31.6846L37.5045 29.2723ZM37.29 29.0322L40.1037 24.899C40.3286 25.0521 40.1738 25.0579 39.8899 24.3916C39.6215 23.7616 39.381 22.8641 39.2005 21.7321C38.8384 19.4613 38.8304 17.0306 38.8304 15.4746H33.8304H28.8304C28.8304 16.9833 28.8225 20.1539 29.3253 23.3069C29.5772 24.8869 29.9853 26.6569 30.69 28.3109C31.3791 29.9286 32.5217 31.8348 34.4763 33.1654L37.29 29.0322ZM33.8304 15.4746H38.8304C38.8304 10.2889 37.371 5.39903 34.7009 1.66006C32.0228 -2.09006 27.9094 -4.90819 22.8614 -4.99476L22.7756 0.00450019L22.6899 5.00377C23.8522 5.0237 25.2662 5.65571 26.5629 7.47157C27.8676 9.29858 28.8304 12.0905 28.8304 15.4746H33.8304ZM22.7756 0.00450019L22.9023 -4.99389L22.7248 -4.99839L22.5981 0L22.4714 4.99839L22.6489 5.00289L22.7756 0.00450019ZM22.5981 0L22.5648 -4.99989C17.5088 -4.96619 13.3042 -2.21508 10.5282 1.46761C7.75104 5.15179 6.16941 10.01 6.16941 15.1626H11.1694H16.1694C16.1694 11.9959 17.1516 9.29381 18.5136 7.48701C19.8767 5.67872 21.3864 5.00819 22.6314 4.99989L22.5981 0ZM11.1694 15.1626H6.16941C6.16941 16.7186 6.16146 19.1497 5.79934 21.4207C5.61883 22.5528 5.37828 23.4503 5.10997 24.0801C4.82614 24.7463 4.67163 24.7398 4.8974 24.5862L7.70983 28.7202L10.5223 32.8542C12.4778 31.5238 13.6207 29.6173 14.3098 27.9996C15.0145 26.3456 15.4227 24.5754 15.6746 22.9954C16.1774 19.8422 16.1694 16.6713 16.1694 15.1626H11.1694ZM7.70983 28.7202L4.86447 24.6088C4.05535 25.1687 3.45989 25.8933 3.06263 26.651L7.49083 28.9729L11.919 31.2947C11.6311 31.844 11.186 32.3951 10.5552 32.8316L7.70983 28.7202ZM7.49083 28.9729L3.06263 26.651C2.66567 27.4081 2.45385 28.2188 2.40548 29.015L7.39628 29.3182L12.3871 29.6213C12.3536 30.1725 12.2067 30.7461 11.919 31.2947L7.49083 28.9729ZM7.39628 29.3182L2.40548 29.015C2.3571 29.8116 2.47001 30.6279 2.75681 31.4058L7.44811 29.6761L12.1394 27.9465C12.3433 28.4993 12.4206 29.0699 12.3871 29.6213L7.39628 29.3182ZM7.44811 29.6761L2.75681 31.4058C3.04346 32.1833 3.51554 32.9506 4.19945 33.5972L7.63429 29.9637L11.0691 26.3303C11.5915 26.8241 11.9357 27.394 12.1394 27.9465L7.44811 29.6761ZM7.63429 29.9637L4.24134 33.6363C4.51708 33.8911 5.93034 35.1613 8.11522 36.2208C10.2958 37.2782 13.6285 38.3047 17.4706 37.4398L16.3726 32.5619L15.2746 27.6839C14.3919 27.8826 13.4423 27.6903 12.4784 27.2229C11.5187 26.7575 10.9252 26.1969 11.0273 26.2912L7.63429 29.9637ZM16.3726 32.5619L11.5911 31.1C11.39 31.7576 10.992 32.3354 9.97223 32.8633L12.271 37.3036L14.5698 41.7438C17.7398 40.1026 20.0912 37.5002 21.1541 34.0238L16.3726 32.5619ZM12.271 37.3036L9.96727 32.8659C10.0607 32.8174 10.1315 32.7858 10.1685 32.7699C10.2072 32.7533 10.2301 32.7447 10.232 32.744C10.232 32.744 10.1956 32.7574 10.1063 32.7857C9.91739 32.8455 9.66898 32.9166 9.30233 33.0204L10.6633 37.8316L12.0243 42.6428C12.4385 42.5256 13.6964 42.1972 14.5747 41.7412L12.271 37.3036ZM10.6633 37.8316L9.30028 33.0209C6.38403 33.8472 -2.64972 36.143 -4.85668 45.9553L0.0214552 47.0525L4.89959 48.1496C5.67381 44.7074 8.54717 43.628 12.0264 42.6422L10.6633 37.8316ZM0.0214552 47.0525L-4.85682 45.9559C-5.0005 46.5951 -5.03547 47.2508 -4.96431 47.8943L0.00539958 47.3448L4.97511 46.7952C5.02465 47.2433 5.00059 47.7003 4.89973 48.149L0.0214552 47.0525ZM0.00539958 47.3448L-4.96431 47.8943C-4.89317 48.5377 -4.71396 49.1859 -4.41494 49.8029L0.0844573 47.6222L4.58385 45.4415C4.80011 45.8877 4.92559 46.3474 4.97511 46.7952L0.00539958 47.3448ZM0.0844573 47.6222L-4.41494 49.8029C-3.81986 51.0307 -2.69583 52.211 -1.05302 52.7353L0.467122 47.972L1.98727 43.2087C3.3072 43.6299 4.15593 44.5586 4.58385 45.4415L0.0844573 47.6222ZM0.467122 47.972L-1.05302 52.7353C0.643387 53.2767 2.41562 52.9545 3.77958 52.016L0.945289 47.8969L-1.88901 43.7779C-0.814499 43.0385 0.613731 42.7703 1.98727 43.2087L0.467122 47.972ZM0.945289 47.8969L3.77958 52.016C5.09132 51.1134 5.83408 49.7967 6.11713 48.5375L1.23886 47.441L-3.63942 46.3444C-3.44285 45.4699 -2.91129 44.4813 -1.88901 43.7779L0.945289 47.8969ZM1.23886 47.441L6.11726 48.537C6.68735 45.9994 8.78754 45.1013 12.3211 44.098L10.9554 39.2881L9.58965 34.4783C6.82601 35.263 -1.61874 37.3501 -3.63955 46.345L1.23886 47.441ZM10.9554 39.2881L12.3176 44.099C12.8823 43.9391 14.1006 43.619 15.0603 43.1254L12.7733 38.6791L10.4863 34.2328C10.5848 34.1821 10.6404 34.1617 10.6258 34.1674C10.6139 34.172 10.569 34.1886 10.4758 34.2186C10.2723 34.2842 10.0112 34.3589 9.59318 34.4773L10.9554 39.2881ZM12.7733 38.6791L15.0718 43.1195C20.4781 40.321 22.3008 35.6766 22.8178 32.4518L17.8808 31.6603L12.9439 30.8688C12.8488 31.462 12.6545 32.0778 12.3072 32.6313C11.9829 33.1482 11.4527 33.7325 10.4748 34.2387L12.7733 38.6791ZM17.8808 31.6603L22.8185 32.4476C22.9525 31.6068 22.9038 30.7374 22.6659 29.9048L17.8583 31.2786L13.0507 32.6523C12.883 32.0654 12.8498 31.459 12.9432 30.873L17.8808 31.6603ZM17.8583 31.2786L22.6659 29.9048C22.4282 29.0731 21.9897 28.2406 21.3165 27.5275L17.6807 30.9598L14.0448 34.3921C13.5343 33.8513 13.2183 33.2386 13.0507 32.6523L17.8583 31.2786ZM17.6807 30.9598L21.3214 27.5327C20.645 26.8141 19.7349 26.2255 18.6395 25.9439L17.3945 30.7865L16.1496 35.629C15.2669 35.4021 14.5539 34.9329 14.0399 34.3869L17.6807 30.9598ZM17.3945 30.7865L18.6395 25.9439C17.5338 25.6597 16.3798 25.7265 15.3278 26.1186L17.0739 30.8038L18.8199 35.489C17.9756 35.8036 17.0425 35.8586 16.1496 35.629L17.3945 30.7865ZM17.0739 30.8038L15.3182 26.1222C14.8628 26.293 14.3644 26.3006 13.738 26.119C13.0688 25.9249 12.4473 25.5633 12.032 25.2691L9.14125 29.3487L6.25047 33.4283C7.90265 34.5991 12.9457 37.692 18.8296 35.4854L17.0739 30.8038ZM9.14125 29.3487L12.6725 32.8885C15.5162 30.0517 16.52 25.9512 16.9612 23.0338C17.4355 19.8981 17.4284 16.8205 17.4284 15.1626H12.4284H7.42836C7.42836 16.8649 7.4212 19.2408 7.0737 21.5383C6.69318 24.0541 6.05338 25.3666 5.61001 25.8089L9.14125 29.3487ZM12.4284 15.1626H17.4284C17.4284 12.3936 18.278 10.0602 19.4237 8.52652C20.5692 6.99322 21.775 6.50346 22.6868 6.49693L22.651 1.49706L22.6152 -3.50281C17.8693 -3.46884 13.9638 -0.873715 11.4124 2.54169C8.86116 5.95676 7.42836 10.4358 7.42836 15.1626H12.4284ZM22.651 1.49706L22.3145 6.48573L22.448 6.49473L22.7844 1.50606L23.1209 -3.4826L22.9875 -3.4916L22.651 1.49706ZM22.7844 1.50606L22.6998 6.50535C23.5538 6.51981 24.6339 6.95734 25.6754 8.44391C26.7394 9.96252 27.5715 12.3851 27.5715 15.4746H32.5715H37.5715C37.5715 10.6948 36.2998 6.18041 33.8652 2.70568C31.4082 -0.801088 27.5947 -3.41318 22.8691 -3.49322L22.7844 1.50606ZM32.5715 15.4746H27.5715C27.5715 17.1333 27.5643 20.2163 28.0406 23.3573C28.4838 26.2795 29.4921 30.3883 32.3486 33.226L35.8724 29.6787L39.3962 26.1315C38.9518 25.69 38.3097 24.3776 37.9276 21.858C37.5787 19.5572 37.5715 17.1777 37.5715 15.4746H32.5715ZM35.8724 29.6787L33.0584 25.5458C32.8507 25.6872 31.4992 26.5627 28.519 26.1374L27.8127 31.0873L27.1063 36.0371C32.7877 36.8479 36.6205 35.2183 38.6864 33.8117L35.8724 29.6787Z" fill="white" mask="url(#path-1-inside-1_242_5061)"/>
</svg>
