<svg width="654" height="184" viewBox="0 0 654 184" fill="none" xmlns="http://www.w3.org/2000/svg">
<g filter="url(#filter0_d_619_3452)">
<rect x="5.5" y="1.5" width="642.029" height="173" rx="16.5" fill="white"/>
<rect x="5.5" y="1.5" width="642.029" height="173" rx="16.5" fill="#FF0000" fill-opacity="0.71"/>
<rect x="5.5" y="1.5" width="642.029" height="173" rx="16.5" stroke="#F7A9A0" stroke-width="3"/>
<path d="M149.993 66L143.729 47.1H147.374L152.963 64.191H151.154L156.959 47.1H160.199L165.842 64.191H164.087L169.811 47.1H173.159L166.895 66H163.169L158.012 50.583H158.984L153.746 66H149.993ZM175.376 66V51.582H178.751V66H175.376ZM177.077 49.206C176.447 49.206 175.925 49.008 175.511 48.612C175.115 48.216 174.917 47.739 174.917 47.181C174.917 46.605 175.115 46.128 175.511 45.75C175.925 45.354 176.447 45.156 177.077 45.156C177.707 45.156 178.22 45.345 178.616 45.723C179.03 46.083 179.237 46.542 179.237 47.1C179.237 47.694 179.039 48.198 178.643 48.612C178.247 49.008 177.725 49.206 177.077 49.206ZM188.833 66.189C187.447 66.189 186.196 65.883 185.08 65.271C183.982 64.641 183.118 63.777 182.488 62.679C181.858 61.581 181.543 60.285 181.543 58.791C181.543 57.297 181.858 56.001 182.488 54.903C183.118 53.805 183.982 52.95 185.08 52.338C186.196 51.726 187.447 51.42 188.833 51.42C190.039 51.42 191.119 51.69 192.073 52.23C193.027 52.752 193.783 53.553 194.341 54.633C194.899 55.713 195.178 57.099 195.178 58.791C195.178 60.465 194.908 61.851 194.368 62.949C193.828 64.029 193.081 64.839 192.127 65.379C191.173 65.919 190.075 66.189 188.833 66.189ZM189.238 63.3C190.048 63.3 190.768 63.12 191.398 62.76C192.046 62.4 192.559 61.878 192.937 61.194C193.333 60.51 193.531 59.709 193.531 58.791C193.531 57.855 193.333 57.054 192.937 56.388C192.559 55.704 192.046 55.182 191.398 54.822C190.768 54.462 190.048 54.282 189.238 54.282C188.428 54.282 187.699 54.462 187.051 54.822C186.421 55.182 185.908 55.704 185.512 56.388C185.134 57.054 184.945 57.855 184.945 58.791C184.945 59.709 185.134 60.51 185.512 61.194C185.908 61.878 186.421 62.4 187.051 62.76C187.699 63.12 188.428 63.3 189.238 63.3ZM193.612 66V62.598L193.747 58.764L193.477 54.93V45.966H196.825V66H193.612ZM207.594 66.189C205.992 66.189 204.588 65.874 203.382 65.244C202.194 64.596 201.267 63.714 200.601 62.598C199.953 61.482 199.629 60.213 199.629 58.791C199.629 57.351 199.944 56.082 200.574 54.984C201.222 53.868 202.104 52.995 203.22 52.365C204.354 51.735 205.641 51.42 207.081 51.42C208.485 51.42 209.736 51.726 210.834 52.338C211.932 52.95 212.796 53.814 213.426 54.93C214.056 56.046 214.371 57.36 214.371 58.872C214.371 59.016 214.362 59.178 214.344 59.358C214.344 59.538 214.335 59.709 214.317 59.871H202.302V57.63H212.535L211.212 58.332C211.23 57.504 211.059 56.775 210.699 56.145C210.339 55.515 209.844 55.02 209.214 54.66C208.602 54.3 207.891 54.12 207.081 54.12C206.253 54.12 205.524 54.3 204.894 54.66C204.282 55.02 203.796 55.524 203.436 56.172C203.094 56.802 202.923 57.549 202.923 58.413V58.953C202.923 59.817 203.121 60.582 203.517 61.248C203.913 61.914 204.471 62.427 205.191 62.787C205.911 63.147 206.739 63.327 207.675 63.327C208.485 63.327 209.214 63.201 209.862 62.949C210.51 62.697 211.086 62.301 211.59 61.761L213.399 63.84C212.751 64.596 211.932 65.181 210.942 65.595C209.97 65.991 208.854 66.189 207.594 66.189ZM230.358 66.27C228.882 66.27 227.469 66.063 226.119 65.649C224.769 65.217 223.698 64.668 222.906 64.002L224.121 61.275C224.877 61.869 225.813 62.364 226.929 62.76C228.045 63.156 229.188 63.354 230.358 63.354C231.348 63.354 232.149 63.246 232.761 63.03C233.373 62.814 233.823 62.526 234.111 62.166C234.399 61.788 234.543 61.365 234.543 60.897C234.543 60.321 234.336 59.862 233.922 59.52C233.508 59.16 232.968 58.881 232.302 58.683C231.654 58.467 230.925 58.269 230.115 58.089C229.323 57.909 228.522 57.702 227.712 57.468C226.92 57.216 226.191 56.901 225.525 56.523C224.877 56.127 224.346 55.605 223.932 54.957C223.518 54.309 223.311 53.481 223.311 52.473C223.311 51.447 223.581 50.511 224.121 49.665C224.679 48.801 225.516 48.117 226.632 47.613C227.766 47.091 229.197 46.83 230.925 46.83C232.059 46.83 233.184 46.974 234.3 47.262C235.416 47.55 236.388 47.964 237.216 48.504L236.109 51.231C235.263 50.727 234.39 50.358 233.49 50.124C232.59 49.872 231.726 49.746 230.898 49.746C229.926 49.746 229.134 49.863 228.522 50.097C227.928 50.331 227.487 50.637 227.199 51.015C226.929 51.393 226.794 51.825 226.794 52.311C226.794 52.887 226.992 53.355 227.388 53.715C227.802 54.057 228.333 54.327 228.981 54.525C229.647 54.723 230.385 54.921 231.195 55.119C232.005 55.299 232.806 55.506 233.598 55.74C234.408 55.974 235.137 56.28 235.785 56.658C236.451 57.036 236.982 57.549 237.378 58.197C237.792 58.845 237.999 59.664 237.999 60.654C237.999 61.662 237.72 62.598 237.162 63.462C236.622 64.308 235.785 64.992 234.651 65.514C233.517 66.018 232.086 66.27 230.358 66.27ZM247.482 66.189C245.88 66.189 244.476 65.874 243.27 65.244C242.082 64.596 241.155 63.714 240.489 62.598C239.841 61.482 239.517 60.213 239.517 58.791C239.517 57.351 239.832 56.082 240.462 54.984C241.11 53.868 241.992 52.995 243.108 52.365C244.242 51.735 245.529 51.42 246.969 51.42C248.373 51.42 249.624 51.726 250.722 52.338C251.82 52.95 252.684 53.814 253.314 54.93C253.944 56.046 254.259 57.36 254.259 58.872C254.259 59.016 254.25 59.178 254.232 59.358C254.232 59.538 254.223 59.709 254.205 59.871H242.19V57.63H252.423L251.1 58.332C251.118 57.504 250.947 56.775 250.587 56.145C250.227 55.515 249.732 55.02 249.102 54.66C248.49 54.3 247.779 54.12 246.969 54.12C246.141 54.12 245.412 54.3 244.782 54.66C244.17 55.02 243.684 55.524 243.324 56.172C242.982 56.802 242.811 57.549 242.811 58.413V58.953C242.811 59.817 243.009 60.582 243.405 61.248C243.801 61.914 244.359 62.427 245.079 62.787C245.799 63.147 246.627 63.327 247.563 63.327C248.373 63.327 249.102 63.201 249.75 62.949C250.398 62.697 250.974 62.301 251.478 61.761L253.287 63.84C252.639 64.596 251.82 65.181 250.83 65.595C249.858 65.991 248.742 66.189 247.482 66.189ZM257.051 66V45.966H260.426V66H257.051ZM271.183 66.189C269.581 66.189 268.177 65.874 266.971 65.244C265.783 64.596 264.856 63.714 264.19 62.598C263.542 61.482 263.218 60.213 263.218 58.791C263.218 57.351 263.533 56.082 264.163 54.984C264.811 53.868 265.693 52.995 266.809 52.365C267.943 51.735 269.23 51.42 270.67 51.42C272.074 51.42 273.325 51.726 274.423 52.338C275.521 52.95 276.385 53.814 277.015 54.93C277.645 56.046 277.96 57.36 277.96 58.872C277.96 59.016 277.951 59.178 277.933 59.358C277.933 59.538 277.924 59.709 277.906 59.871H265.891V57.63H276.124L274.801 58.332C274.819 57.504 274.648 56.775 274.288 56.145C273.928 55.515 273.433 55.02 272.803 54.66C272.191 54.3 271.48 54.12 270.67 54.12C269.842 54.12 269.113 54.3 268.483 54.66C267.871 55.02 267.385 55.524 267.025 56.172C266.683 56.802 266.512 57.549 266.512 58.413V58.953C266.512 59.817 266.71 60.582 267.106 61.248C267.502 61.914 268.06 62.427 268.78 62.787C269.5 63.147 270.328 63.327 271.264 63.327C272.074 63.327 272.803 63.201 273.451 62.949C274.099 62.697 274.675 62.301 275.179 61.761L276.988 63.84C276.34 64.596 275.521 65.181 274.531 65.595C273.559 65.991 272.443 66.189 271.183 66.189ZM287.367 66.189C285.855 66.189 284.505 65.874 283.317 65.244C282.147 64.596 281.229 63.714 280.563 62.598C279.897 61.482 279.564 60.213 279.564 58.791C279.564 57.351 279.897 56.082 280.563 54.984C281.229 53.868 282.147 52.995 283.317 52.365C284.505 51.735 285.855 51.42 287.367 51.42C288.771 51.42 290.004 51.708 291.066 52.284C292.146 52.842 292.965 53.67 293.523 54.768L290.931 56.28C290.499 55.596 289.968 55.092 289.338 54.768C288.726 54.444 288.06 54.282 287.34 54.282C286.512 54.282 285.765 54.462 285.099 54.822C284.433 55.182 283.911 55.704 283.533 56.388C283.155 57.054 282.966 57.855 282.966 58.791C282.966 59.727 283.155 60.537 283.533 61.221C283.911 61.887 284.433 62.4 285.099 62.76C285.765 63.12 286.512 63.3 287.34 63.3C288.06 63.3 288.726 63.138 289.338 62.814C289.968 62.49 290.499 61.986 290.931 61.302L293.523 62.814C292.965 63.894 292.146 64.731 291.066 65.325C290.004 65.901 288.771 66.189 287.367 66.189ZM301.602 66.189C300.018 66.189 298.794 65.784 297.93 64.974C297.066 64.146 296.634 62.931 296.634 61.329V48.396H300.009V61.248C300.009 61.932 300.18 62.463 300.522 62.841C300.882 63.219 301.377 63.408 302.007 63.408C302.763 63.408 303.393 63.21 303.897 62.814L304.842 65.217C304.446 65.541 303.96 65.784 303.384 65.946C302.808 66.108 302.214 66.189 301.602 66.189ZM294.258 54.39V51.69H303.87V54.39H294.258ZM307.168 66V51.582H310.543V66H307.168ZM308.869 49.206C308.239 49.206 307.717 49.008 307.303 48.612C306.907 48.216 306.709 47.739 306.709 47.181C306.709 46.605 306.907 46.128 307.303 45.75C307.717 45.354 308.239 45.156 308.869 45.156C309.499 45.156 310.012 45.345 310.408 45.723C310.822 46.083 311.029 46.542 311.029 47.1C311.029 47.694 310.831 48.198 310.435 48.612C310.039 49.008 309.517 49.206 308.869 49.206ZM321.003 66.189C319.527 66.189 318.213 65.874 317.061 65.244C315.909 64.596 315 63.714 314.334 62.598C313.668 61.482 313.335 60.213 313.335 58.791C313.335 57.351 313.668 56.082 314.334 54.984C315 53.868 315.909 52.995 317.061 52.365C318.213 51.735 319.527 51.42 321.003 51.42C322.497 51.42 323.82 51.735 324.972 52.365C326.142 52.995 327.051 53.859 327.699 54.957C328.365 56.055 328.698 57.333 328.698 58.791C328.698 60.213 328.365 61.482 327.699 62.598C327.051 63.714 326.142 64.596 324.972 65.244C323.82 65.874 322.497 66.189 321.003 66.189ZM321.003 63.3C321.831 63.3 322.569 63.12 323.217 62.76C323.865 62.4 324.369 61.878 324.729 61.194C325.107 60.51 325.296 59.709 325.296 58.791C325.296 57.855 325.107 57.054 324.729 56.388C324.369 55.704 323.865 55.182 323.217 54.822C322.569 54.462 321.84 54.282 321.03 54.282C320.202 54.282 319.464 54.462 318.816 54.822C318.186 55.182 317.682 55.704 317.304 56.388C316.926 57.054 316.737 57.855 316.737 58.791C316.737 59.709 316.926 60.51 317.304 61.194C317.682 61.878 318.186 62.4 318.816 62.76C319.464 63.12 320.193 63.3 321.003 63.3ZM339.656 51.42C340.808 51.42 341.834 51.645 342.734 52.095C343.652 52.545 344.372 53.238 344.894 54.174C345.416 55.092 345.677 56.28 345.677 57.738V66H342.302V58.17C342.302 56.892 341.996 55.938 341.384 55.308C340.79 54.678 339.953 54.363 338.873 54.363C338.081 54.363 337.379 54.525 336.767 54.849C336.155 55.173 335.678 55.659 335.336 56.307C335.012 56.937 334.85 57.738 334.85 58.71V66H331.475V51.582H334.688V55.47L334.121 54.282C334.625 53.364 335.354 52.662 336.308 52.176C337.28 51.672 338.396 51.42 339.656 51.42ZM365.701 66.27C364.225 66.27 362.866 66.027 361.624 65.541C360.382 65.055 359.302 64.38 358.384 63.516C357.466 62.634 356.755 61.608 356.251 60.438C355.747 59.25 355.495 57.954 355.495 56.55C355.495 55.146 355.747 53.859 356.251 52.689C356.755 51.501 357.466 50.475 358.384 49.611C359.302 48.729 360.382 48.045 361.624 47.559C362.866 47.073 364.216 46.83 365.674 46.83C367.15 46.83 368.5 47.073 369.724 47.559C370.966 48.045 372.046 48.729 372.964 49.611C373.882 50.475 374.593 51.501 375.097 52.689C375.601 53.859 375.853 55.146 375.853 56.55C375.853 57.954 375.601 59.25 375.097 60.438C374.593 61.626 373.882 62.652 372.964 63.516C372.046 64.38 370.966 65.055 369.724 65.541C368.5 66.027 367.159 66.27 365.701 66.27ZM365.674 63.192C366.628 63.192 367.51 63.03 368.32 62.706C369.13 62.382 369.832 61.923 370.426 61.329C371.02 60.717 371.479 60.015 371.803 59.223C372.145 58.413 372.316 57.522 372.316 56.55C372.316 55.578 372.145 54.696 371.803 53.904C371.479 53.094 371.02 52.392 370.426 51.798C369.832 51.186 369.13 50.718 368.32 50.394C367.51 50.07 366.628 49.908 365.674 49.908C364.72 49.908 363.838 50.07 363.028 50.394C362.236 50.718 361.534 51.186 360.922 51.798C360.328 52.392 359.86 53.094 359.518 53.904C359.194 54.696 359.032 55.578 359.032 56.55C359.032 57.504 359.194 58.386 359.518 59.196C359.86 60.006 360.328 60.717 360.922 61.329C361.516 61.923 362.218 62.382 363.028 62.706C363.838 63.03 364.72 63.192 365.674 63.192ZM379.258 66V50.772C379.258 49.26 379.699 48.054 380.581 47.154C381.481 46.236 382.759 45.777 384.415 45.777C385.009 45.777 385.567 45.84 386.089 45.966C386.629 46.092 387.079 46.29 387.439 46.56L386.521 49.098C386.269 48.9 385.981 48.756 385.657 48.666C385.333 48.558 385 48.504 384.658 48.504C383.956 48.504 383.425 48.702 383.065 49.098C382.705 49.476 382.525 50.052 382.525 50.826V52.446L382.633 53.958V66H379.258ZM376.882 54.39V51.69H386.494V54.39H376.882ZM401.511 66.27C400.035 66.27 398.622 66.063 397.272 65.649C395.922 65.217 394.851 64.668 394.059 64.002L395.274 61.275C396.03 61.869 396.966 62.364 398.082 62.76C399.198 63.156 400.341 63.354 401.511 63.354C402.501 63.354 403.302 63.246 403.914 63.03C404.526 62.814 404.976 62.526 405.264 62.166C405.552 61.788 405.696 61.365 405.696 60.897C405.696 60.321 405.489 59.862 405.075 59.52C404.661 59.16 404.121 58.881 403.455 58.683C402.807 58.467 402.078 58.269 401.268 58.089C400.476 57.909 399.675 57.702 398.865 57.468C398.073 57.216 397.344 56.901 396.678 56.523C396.03 56.127 395.499 55.605 395.085 54.957C394.671 54.309 394.464 53.481 394.464 52.473C394.464 51.447 394.734 50.511 395.274 49.665C395.832 48.801 396.669 48.117 397.785 47.613C398.919 47.091 400.35 46.83 402.078 46.83C403.212 46.83 404.337 46.974 405.453 47.262C406.569 47.55 407.541 47.964 408.369 48.504L407.262 51.231C406.416 50.727 405.543 50.358 404.643 50.124C403.743 49.872 402.879 49.746 402.051 49.746C401.079 49.746 400.287 49.863 399.675 50.097C399.081 50.331 398.64 50.637 398.352 51.015C398.082 51.393 397.947 51.825 397.947 52.311C397.947 52.887 398.145 53.355 398.541 53.715C398.955 54.057 399.486 54.327 400.134 54.525C400.8 54.723 401.538 54.921 402.348 55.119C403.158 55.299 403.959 55.506 404.751 55.74C405.561 55.974 406.29 56.28 406.938 56.658C407.604 57.036 408.135 57.549 408.531 58.197C408.945 58.845 409.152 59.664 409.152 60.654C409.152 61.662 408.873 62.598 408.315 63.462C407.775 64.308 406.938 64.992 405.804 65.514C404.67 66.018 403.239 66.27 401.511 66.27ZM418.635 66.189C417.033 66.189 415.629 65.874 414.423 65.244C413.235 64.596 412.308 63.714 411.642 62.598C410.994 61.482 410.67 60.213 410.67 58.791C410.67 57.351 410.985 56.082 411.615 54.984C412.263 53.868 413.145 52.995 414.261 52.365C415.395 51.735 416.682 51.42 418.122 51.42C419.526 51.42 420.777 51.726 421.875 52.338C422.973 52.95 423.837 53.814 424.467 54.93C425.097 56.046 425.412 57.36 425.412 58.872C425.412 59.016 425.403 59.178 425.385 59.358C425.385 59.538 425.376 59.709 425.358 59.871H413.343V57.63H423.576L422.253 58.332C422.271 57.504 422.1 56.775 421.74 56.145C421.38 55.515 420.885 55.02 420.255 54.66C419.643 54.3 418.932 54.12 418.122 54.12C417.294 54.12 416.565 54.3 415.935 54.66C415.323 55.02 414.837 55.524 414.477 56.172C414.135 56.802 413.964 57.549 413.964 58.413V58.953C413.964 59.817 414.162 60.582 414.558 61.248C414.954 61.914 415.512 62.427 416.232 62.787C416.952 63.147 417.78 63.327 418.716 63.327C419.526 63.327 420.255 63.201 420.903 62.949C421.551 62.697 422.127 62.301 422.631 61.761L424.44 63.84C423.792 64.596 422.973 65.181 421.983 65.595C421.011 65.991 419.895 66.189 418.635 66.189ZM428.204 66V51.582H431.417V55.551L431.039 54.39C431.471 53.418 432.146 52.68 433.064 52.176C434 51.672 435.161 51.42 436.547 51.42V54.633C436.403 54.597 436.268 54.579 436.142 54.579C436.016 54.561 435.89 54.552 435.764 54.552C434.486 54.552 433.469 54.93 432.713 55.686C431.957 56.424 431.579 57.531 431.579 59.007V66H428.204ZM443.322 66L437.139 51.582H440.649L445.968 64.299H444.24L449.748 51.582H452.988L446.805 66H443.322ZM454.647 66V51.582H458.022V66H454.647ZM456.348 49.206C455.718 49.206 455.196 49.008 454.782 48.612C454.386 48.216 454.188 47.739 454.188 47.181C454.188 46.605 454.386 46.128 454.782 45.75C455.196 45.354 455.718 45.156 456.348 45.156C456.978 45.156 457.491 45.345 457.887 45.723C458.301 46.083 458.508 46.542 458.508 47.1C458.508 47.694 458.31 48.198 457.914 48.612C457.518 49.008 456.996 49.206 456.348 49.206ZM468.617 66.189C467.105 66.189 465.755 65.874 464.567 65.244C463.397 64.596 462.479 63.714 461.813 62.598C461.147 61.482 460.814 60.213 460.814 58.791C460.814 57.351 461.147 56.082 461.813 54.984C462.479 53.868 463.397 52.995 464.567 52.365C465.755 51.735 467.105 51.42 468.617 51.42C470.021 51.42 471.254 51.708 472.316 52.284C473.396 52.842 474.215 53.67 474.773 54.768L472.181 56.28C471.749 55.596 471.218 55.092 470.588 54.768C469.976 54.444 469.31 54.282 468.59 54.282C467.762 54.282 467.015 54.462 466.349 54.822C465.683 55.182 465.161 55.704 464.783 56.388C464.405 57.054 464.216 57.855 464.216 58.791C464.216 59.727 464.405 60.537 464.783 61.221C465.161 61.887 465.683 62.4 466.349 62.76C467.015 63.12 467.762 63.3 468.59 63.3C469.31 63.3 469.976 63.138 470.588 62.814C471.218 62.49 471.749 61.986 472.181 61.302L474.773 62.814C474.215 63.894 473.396 64.731 472.316 65.325C471.254 65.901 470.021 66.189 468.617 66.189ZM483.806 66.189C482.204 66.189 480.8 65.874 479.594 65.244C478.406 64.596 477.479 63.714 476.813 62.598C476.165 61.482 475.841 60.213 475.841 58.791C475.841 57.351 476.156 56.082 476.786 54.984C477.434 53.868 478.316 52.995 479.432 52.365C480.566 51.735 481.853 51.42 483.293 51.42C484.697 51.42 485.948 51.726 487.046 52.338C488.144 52.95 489.008 53.814 489.638 54.93C490.268 56.046 490.583 57.36 490.583 58.872C490.583 59.016 490.574 59.178 490.556 59.358C490.556 59.538 490.547 59.709 490.529 59.871H478.514V57.63H488.747L487.424 58.332C487.442 57.504 487.271 56.775 486.911 56.145C486.551 55.515 486.056 55.02 485.426 54.66C484.814 54.3 484.103 54.12 483.293 54.12C482.465 54.12 481.736 54.3 481.106 54.66C480.494 55.02 480.008 55.524 479.648 56.172C479.306 56.802 479.135 57.549 479.135 58.413V58.953C479.135 59.817 479.333 60.582 479.729 61.248C480.125 61.914 480.683 62.427 481.403 62.787C482.123 63.147 482.951 63.327 483.887 63.327C484.697 63.327 485.426 63.201 486.074 62.949C486.722 62.697 487.298 62.301 487.802 61.761L489.611 63.84C488.963 64.596 488.144 65.181 487.154 65.595C486.182 65.991 485.066 66.189 483.806 66.189ZM500.711 66V47.1H508.487C510.161 47.1 511.592 47.37 512.78 47.91C513.986 48.45 514.913 49.224 515.561 50.232C516.209 51.24 516.533 52.437 516.533 53.823C516.533 55.209 516.209 56.406 515.561 57.414C514.913 58.422 513.986 59.196 512.78 59.736C511.592 60.276 510.161 60.546 508.487 60.546H502.655L504.221 58.899V66H500.711ZM504.221 59.277L502.655 57.576H508.325C509.873 57.576 511.034 57.252 511.808 56.604C512.6 55.938 512.996 55.011 512.996 53.823C512.996 52.617 512.6 51.69 511.808 51.042C511.034 50.394 509.873 50.07 508.325 50.07H502.655L504.221 48.342V59.277ZM528.015 66V63.084L527.826 62.463V57.36C527.826 56.37 527.529 55.605 526.935 55.065C526.341 54.507 525.441 54.228 524.235 54.228C523.425 54.228 522.624 54.354 521.832 54.606C521.058 54.858 520.401 55.209 519.861 55.659L518.538 53.202C519.312 52.608 520.23 52.167 521.292 51.879C522.372 51.573 523.488 51.42 524.64 51.42C526.728 51.42 528.339 51.924 529.473 52.932C530.625 53.922 531.201 55.461 531.201 57.549V66H528.015ZM523.479 66.189C522.399 66.189 521.454 66.009 520.644 65.649C519.834 65.271 519.204 64.758 518.754 64.11C518.322 63.444 518.106 62.697 518.106 61.869C518.106 61.059 518.295 60.33 518.673 59.682C519.069 59.034 519.708 58.521 520.59 58.143C521.472 57.765 522.642 57.576 524.1 57.576H528.285V59.817H524.343C523.191 59.817 522.417 60.006 522.021 60.384C521.625 60.744 521.427 61.194 521.427 61.734C521.427 62.346 521.67 62.832 522.156 63.192C522.642 63.552 523.317 63.732 524.181 63.732C525.009 63.732 525.747 63.543 526.395 63.165C527.061 62.787 527.538 62.229 527.826 61.491L528.393 63.516C528.069 64.362 527.484 65.019 526.638 65.487C525.81 65.955 524.757 66.189 523.479 66.189ZM535.083 66V51.582H538.296V55.551L537.918 54.39C538.35 53.418 539.025 52.68 539.943 52.176C540.879 51.672 542.04 51.42 543.426 51.42V54.633C543.282 54.597 543.147 54.579 543.021 54.579C542.895 54.561 542.769 54.552 542.643 54.552C541.365 54.552 540.348 54.93 539.592 55.686C538.836 56.424 538.458 57.531 538.458 59.007V66H535.083ZM551.793 66.189C550.209 66.189 548.985 65.784 548.121 64.974C547.257 64.146 546.825 62.931 546.825 61.329V48.396H550.2V61.248C550.2 61.932 550.371 62.463 550.713 62.841C551.073 63.219 551.568 63.408 552.198 63.408C552.954 63.408 553.584 63.21 554.088 62.814L555.033 65.217C554.637 65.541 554.151 65.784 553.575 65.946C552.999 66.108 552.405 66.189 551.793 66.189ZM544.449 54.39V51.69H554.061V54.39H544.449ZM565.541 51.42C566.693 51.42 567.719 51.645 568.619 52.095C569.537 52.545 570.257 53.238 570.779 54.174C571.301 55.092 571.562 56.28 571.562 57.738V66H568.187V58.17C568.187 56.892 567.881 55.938 567.269 55.308C566.675 54.678 565.838 54.363 564.758 54.363C563.966 54.363 563.264 54.525 562.652 54.849C562.04 55.173 561.563 55.659 561.221 56.307C560.897 56.937 560.735 57.738 560.735 58.71V66H557.36V51.582H560.573V55.47L560.006 54.282C560.51 53.364 561.239 52.662 562.193 52.176C563.165 51.672 564.281 51.42 565.541 51.42ZM582.196 66.189C580.594 66.189 579.19 65.874 577.984 65.244C576.796 64.596 575.869 63.714 575.203 62.598C574.555 61.482 574.231 60.213 574.231 58.791C574.231 57.351 574.546 56.082 575.176 54.984C575.824 53.868 576.706 52.995 577.822 52.365C578.956 51.735 580.243 51.42 581.683 51.42C583.087 51.42 584.338 51.726 585.436 52.338C586.534 52.95 587.398 53.814 588.028 54.93C588.658 56.046 588.973 57.36 588.973 58.872C588.973 59.016 588.964 59.178 588.946 59.358C588.946 59.538 588.937 59.709 588.919 59.871H576.904V57.63H587.137L585.814 58.332C585.832 57.504 585.661 56.775 585.301 56.145C584.941 55.515 584.446 55.02 583.816 54.66C583.204 54.3 582.493 54.12 581.683 54.12C580.855 54.12 580.126 54.3 579.496 54.66C578.884 55.02 578.398 55.524 578.038 56.172C577.696 56.802 577.525 57.549 577.525 58.413V58.953C577.525 59.817 577.723 60.582 578.119 61.248C578.515 61.914 579.073 62.427 579.793 62.787C580.513 63.147 581.341 63.327 582.277 63.327C583.087 63.327 583.816 63.201 584.464 62.949C585.112 62.697 585.688 62.301 586.192 61.761L588.001 63.84C587.353 64.596 586.534 65.181 585.544 65.595C584.572 65.991 583.456 66.189 582.196 66.189ZM591.765 66V51.582H594.978V55.551L594.6 54.39C595.032 53.418 595.707 52.68 596.625 52.176C597.561 51.672 598.722 51.42 600.108 51.42V54.633C599.964 54.597 599.829 54.579 599.703 54.579C599.577 54.561 599.451 54.552 599.325 54.552C598.047 54.552 597.03 54.93 596.274 55.686C595.518 56.424 595.14 57.531 595.14 59.007V66H591.765ZM607.108 66.189C605.902 66.189 604.741 66.036 603.625 65.73C602.527 65.406 601.654 65.019 601.006 64.569L602.302 62.004C602.95 62.418 603.724 62.76 604.624 63.03C605.524 63.3 606.424 63.435 607.324 63.435C608.386 63.435 609.151 63.291 609.619 63.003C610.105 62.715 610.348 62.328 610.348 61.842C610.348 61.446 610.186 61.149 609.862 60.951C609.538 60.735 609.115 60.573 608.593 60.465C608.071 60.357 607.486 60.258 606.838 60.168C606.208 60.078 605.569 59.961 604.921 59.817C604.291 59.655 603.715 59.43 603.193 59.142C602.671 58.836 602.248 58.431 601.924 57.927C601.6 57.423 601.438 56.757 601.438 55.929C601.438 55.011 601.699 54.219 602.221 53.553C602.743 52.869 603.472 52.347 604.408 51.987C605.362 51.609 606.487 51.42 607.783 51.42C608.755 51.42 609.736 51.528 610.726 51.744C611.716 51.96 612.535 52.266 613.183 52.662L611.887 55.227C611.203 54.813 610.51 54.534 609.808 54.39C609.124 54.228 608.44 54.147 607.756 54.147C606.73 54.147 605.965 54.3 605.461 54.606C604.975 54.912 604.732 55.299 604.732 55.767C604.732 56.199 604.894 56.523 605.218 56.739C605.542 56.955 605.965 57.126 606.487 57.252C607.009 57.378 607.585 57.486 608.215 57.576C608.863 57.648 609.502 57.765 610.132 57.927C610.762 58.089 611.338 58.314 611.86 58.602C612.4 58.872 612.832 59.259 613.156 59.763C613.48 60.267 613.642 60.924 613.642 61.734C613.642 62.634 613.372 63.417 612.832 64.083C612.31 64.749 611.563 65.271 610.591 65.649C609.619 66.009 608.458 66.189 607.108 66.189Z" fill="white"/>
<path d="M152.6 91.26H160V92.52H152.6V91.26ZM152.76 97.72H161.18V99H151.28V85H160.88V86.28H152.76V97.72ZM162.466 99L166.906 93.24L166.886 93.94L162.666 88.5H164.266L167.726 93L167.126 92.98L170.586 88.5H172.146L167.886 94L167.906 93.24L172.386 99H170.766L167.106 94.2L167.666 94.28L164.066 99H162.466ZM180.17 99.1C179.263 99.1 178.443 98.8933 177.71 98.48C176.976 98.0533 176.39 97.4467 175.95 96.66C175.523 95.86 175.31 94.8867 175.31 93.74C175.31 92.5933 175.523 91.6267 175.95 90.84C176.376 90.04 176.956 89.4333 177.69 89.02C178.423 88.6067 179.25 88.4 180.17 88.4C181.17 88.4 182.063 88.6267 182.85 89.08C183.65 89.52 184.276 90.1467 184.73 90.96C185.183 91.76 185.41 92.6867 185.41 93.74C185.41 94.8067 185.183 95.74 184.73 96.54C184.276 97.34 183.65 97.9667 182.85 98.42C182.063 98.8733 181.17 99.1 180.17 99.1ZM174.75 102.88V88.5H176.11V91.66L175.97 93.76L176.17 95.88V102.88H174.75ZM180.07 97.84C180.816 97.84 181.483 97.6733 182.07 97.34C182.656 96.9933 183.123 96.5133 183.47 95.9C183.816 95.2733 183.99 94.5533 183.99 93.74C183.99 92.9267 183.816 92.2133 183.47 91.6C183.123 90.9867 182.656 90.5067 182.07 90.16C181.483 89.8133 180.816 89.64 180.07 89.64C179.323 89.64 178.65 89.8133 178.05 90.16C177.463 90.5067 176.996 90.9867 176.65 91.6C176.316 92.2133 176.15 92.9267 176.15 93.74C176.15 94.5533 176.316 95.2733 176.65 95.9C176.996 96.5133 177.463 96.9933 178.05 97.34C178.65 97.6733 179.323 97.84 180.07 97.84ZM188.304 99V84.16H189.724V99H188.304ZM197.955 99.1C196.942 99.1 196.029 98.8733 195.215 98.42C194.415 97.9533 193.782 97.32 193.315 96.52C192.849 95.7067 192.615 94.78 192.615 93.74C192.615 92.6867 192.849 91.76 193.315 90.96C193.782 90.16 194.415 89.5333 195.215 89.08C196.015 88.6267 196.929 88.4 197.955 88.4C198.995 88.4 199.915 88.6267 200.715 89.08C201.529 89.5333 202.162 90.16 202.615 90.96C203.082 91.76 203.315 92.6867 203.315 93.74C203.315 94.78 203.082 95.7067 202.615 96.52C202.162 97.32 201.529 97.9533 200.715 98.42C199.902 98.8733 198.982 99.1 197.955 99.1ZM197.955 97.84C198.715 97.84 199.389 97.6733 199.975 97.34C200.562 96.9933 201.022 96.5133 201.355 95.9C201.702 95.2733 201.875 94.5533 201.875 93.74C201.875 92.9133 201.702 92.1933 201.355 91.58C201.022 90.9667 200.562 90.4933 199.975 90.16C199.389 89.8133 198.722 89.64 197.975 89.64C197.229 89.64 196.562 89.8133 195.975 90.16C195.389 90.4933 194.922 90.9667 194.575 91.58C194.229 92.1933 194.055 92.9133 194.055 93.74C194.055 94.5533 194.229 95.2733 194.575 95.9C194.922 96.5133 195.389 96.9933 195.975 97.34C196.562 97.6733 197.222 97.84 197.955 97.84ZM206.214 99V88.5H207.574V91.36L207.434 90.86C207.728 90.06 208.221 89.4533 208.914 89.04C209.608 88.6133 210.468 88.4 211.494 88.4V89.78C211.441 89.78 211.388 89.78 211.334 89.78C211.281 89.7667 211.228 89.76 211.174 89.76C210.068 89.76 209.201 90.1 208.574 90.78C207.948 91.4467 207.634 92.4 207.634 93.64V99H206.214ZM218.448 99.1C217.354 99.1 216.394 98.8733 215.568 98.42C214.741 97.9533 214.094 97.32 213.628 96.52C213.161 95.7067 212.928 94.78 212.928 93.74C212.928 92.7 213.148 91.78 213.588 90.98C214.041 90.18 214.654 89.5533 215.428 89.1C216.214 88.6333 217.094 88.4 218.068 88.4C219.054 88.4 219.928 88.6267 220.688 89.08C221.461 89.52 222.068 90.1467 222.508 90.96C222.948 91.76 223.168 92.6867 223.168 93.74C223.168 93.8067 223.161 93.88 223.148 93.96C223.148 94.0267 223.148 94.1 223.148 94.18H214.008V93.12H222.388L221.828 93.54C221.828 92.78 221.661 92.1067 221.328 91.52C221.008 90.92 220.568 90.4533 220.008 90.12C219.448 89.7867 218.801 89.62 218.068 89.62C217.348 89.62 216.701 89.7867 216.128 90.12C215.554 90.4533 215.108 90.92 214.788 91.52C214.468 92.12 214.308 92.8067 214.308 93.58V93.8C214.308 94.6 214.481 95.3067 214.828 95.92C215.188 96.52 215.681 96.9933 216.308 97.34C216.948 97.6733 217.674 97.84 218.488 97.84C219.128 97.84 219.721 97.7267 220.268 97.5C220.828 97.2733 221.308 96.9267 221.708 96.46L222.508 97.38C222.041 97.94 221.454 98.3667 220.748 98.66C220.054 98.9533 219.288 99.1 218.448 99.1ZM237.873 99V96.68L237.813 96.3V92.42C237.813 91.5267 237.559 90.84 237.053 90.36C236.559 89.88 235.819 89.64 234.833 89.64C234.153 89.64 233.506 89.7533 232.893 89.98C232.279 90.2067 231.759 90.5067 231.333 90.88L230.693 89.82C231.226 89.3667 231.866 89.02 232.613 88.78C233.359 88.5267 234.146 88.4 234.973 88.4C236.333 88.4 237.379 88.74 238.113 89.42C238.859 90.0867 239.233 91.1067 239.233 92.48V99H237.873ZM234.253 99.1C233.466 99.1 232.779 98.9733 232.193 98.72C231.619 98.4533 231.179 98.0933 230.873 97.64C230.566 97.1733 230.413 96.64 230.413 96.04C230.413 95.4933 230.539 95 230.793 94.56C231.059 94.1067 231.486 93.7467 232.073 93.48C232.673 93.2 233.473 93.06 234.473 93.06H238.093V94.12H234.513C233.499 94.12 232.793 94.3 232.393 94.66C232.006 95.02 231.812 95.4667 231.812 96C231.812 96.6 232.046 97.08 232.513 97.44C232.979 97.8 233.633 97.98 234.473 97.98C235.273 97.98 235.959 97.8 236.533 97.44C237.119 97.0667 237.546 96.5333 237.813 95.84L238.133 96.82C237.866 97.5133 237.399 98.0667 236.733 98.48C236.079 98.8933 235.253 99.1 234.253 99.1ZM250.464 99L246.504 88.5H247.864L251.464 98.24H250.844L254.544 88.5H255.764L259.424 98.24H258.804L262.464 88.5H263.764L259.784 99H258.444L254.924 89.84H255.344L251.804 99H250.464ZM265.902 99V88.5H267.322V99H265.902ZM266.622 86.18C266.329 86.18 266.082 86.08 265.882 85.88C265.682 85.68 265.582 85.44 265.582 85.16C265.582 84.88 265.682 84.6467 265.882 84.46C266.082 84.26 266.329 84.16 266.622 84.16C266.915 84.16 267.162 84.2533 267.362 84.44C267.562 84.6267 267.662 84.86 267.662 85.14C267.662 85.4333 267.562 85.68 267.362 85.88C267.175 86.08 266.929 86.18 266.622 86.18ZM275.453 99.1C274.453 99.1 273.553 98.8733 272.753 98.42C271.966 97.9667 271.346 97.34 270.893 96.54C270.44 95.7267 270.213 94.7933 270.213 93.74C270.213 92.6733 270.44 91.74 270.893 90.94C271.346 90.14 271.966 89.52 272.753 89.08C273.553 88.6267 274.453 88.4 275.453 88.4C276.373 88.4 277.193 88.6067 277.913 89.02C278.646 89.4333 279.226 90.04 279.653 90.84C280.093 91.6267 280.313 92.5933 280.313 93.74C280.313 94.8733 280.1 95.84 279.673 96.64C279.246 97.44 278.666 98.0533 277.933 98.48C277.213 98.8933 276.386 99.1 275.453 99.1ZM275.553 97.84C276.3 97.84 276.966 97.6733 277.553 97.34C278.153 96.9933 278.62 96.5133 278.953 95.9C279.3 95.2733 279.473 94.5533 279.473 93.74C279.473 92.9133 279.3 92.1933 278.953 91.58C278.62 90.9667 278.153 90.4933 277.553 90.16C276.966 89.8133 276.3 89.64 275.553 89.64C274.82 89.64 274.16 89.8133 273.573 90.16C272.986 90.4933 272.52 90.9667 272.173 91.58C271.826 92.1933 271.653 92.9133 271.653 93.74C271.653 94.5533 271.826 95.2733 272.173 95.9C272.52 96.5133 272.986 96.9933 273.573 97.34C274.16 97.6733 274.82 97.84 275.553 97.84ZM279.513 99V95.84L279.653 93.72L279.453 91.6V84.16H280.873V99H279.513ZM289.288 99.1C288.194 99.1 287.234 98.8733 286.408 98.42C285.581 97.9533 284.934 97.32 284.468 96.52C284.001 95.7067 283.768 94.78 283.768 93.74C283.768 92.7 283.988 91.78 284.428 90.98C284.881 90.18 285.494 89.5533 286.268 89.1C287.054 88.6333 287.934 88.4 288.908 88.4C289.894 88.4 290.768 88.6267 291.528 89.08C292.301 89.52 292.908 90.1467 293.348 90.96C293.788 91.76 294.008 92.6867 294.008 93.74C294.008 93.8067 294.001 93.88 293.988 93.96C293.988 94.0267 293.988 94.1 293.988 94.18H284.848V93.12H293.228L292.668 93.54C292.668 92.78 292.501 92.1067 292.168 91.52C291.848 90.92 291.408 90.4533 290.848 90.12C290.288 89.7867 289.641 89.62 288.908 89.62C288.188 89.62 287.541 89.7867 286.968 90.12C286.394 90.4533 285.948 90.92 285.628 91.52C285.308 92.12 285.148 92.8067 285.148 93.58V93.8C285.148 94.6 285.321 95.3067 285.668 95.92C286.028 96.52 286.521 96.9933 287.148 97.34C287.788 97.6733 288.514 97.84 289.328 97.84C289.968 97.84 290.561 97.7267 291.108 97.5C291.668 97.2733 292.148 96.9267 292.548 96.46L293.348 97.38C292.881 97.94 292.294 98.3667 291.588 98.66C290.894 98.9533 290.128 99.1 289.288 99.1ZM302.132 99V88.5H303.492V91.36L303.352 90.86C303.646 90.06 304.139 89.4533 304.832 89.04C305.526 88.6133 306.386 88.4 307.412 88.4V89.78C307.359 89.78 307.306 89.78 307.252 89.78C307.199 89.7667 307.146 89.76 307.092 89.76C305.986 89.76 305.119 90.1 304.492 90.78C303.866 91.4467 303.552 92.4 303.552 93.64V99H302.132ZM315.802 99V96.68L315.742 96.3V92.42C315.742 91.5267 315.489 90.84 314.982 90.36C314.489 89.88 313.749 89.64 312.762 89.64C312.082 89.64 311.436 89.7533 310.822 89.98C310.209 90.2067 309.689 90.5067 309.262 90.88L308.622 89.82C309.156 89.3667 309.796 89.02 310.542 88.78C311.289 88.5267 312.076 88.4 312.902 88.4C314.262 88.4 315.309 88.74 316.042 89.42C316.789 90.0867 317.162 91.1067 317.162 92.48V99H315.802ZM312.182 99.1C311.396 99.1 310.709 98.9733 310.122 98.72C309.549 98.4533 309.109 98.0933 308.802 97.64C308.496 97.1733 308.342 96.64 308.342 96.04C308.342 95.4933 308.469 95 308.722 94.56C308.989 94.1067 309.416 93.7467 310.002 93.48C310.602 93.2 311.402 93.06 312.402 93.06H316.022V94.12H312.442C311.429 94.12 310.722 94.3 310.322 94.66C309.936 95.02 309.742 95.4667 309.742 96C309.742 96.6 309.976 97.08 310.442 97.44C310.909 97.8 311.562 97.98 312.402 97.98C313.202 97.98 313.889 97.8 314.462 97.44C315.049 97.0667 315.476 96.5333 315.742 95.84L316.062 96.82C315.796 97.5133 315.329 98.0667 314.662 98.48C314.009 98.8933 313.182 99.1 312.182 99.1ZM326.379 88.4C327.232 88.4 327.979 88.5667 328.619 88.9C329.272 89.22 329.779 89.7133 330.139 90.38C330.512 91.0467 330.699 91.8867 330.699 92.9V99H329.279V93.04C329.279 91.9333 328.999 91.1 328.439 90.54C327.892 89.9667 327.119 89.68 326.119 89.68C325.372 89.68 324.719 89.8333 324.159 90.14C323.612 90.4333 323.186 90.8667 322.879 91.44C322.586 92 322.439 92.68 322.439 93.48V99H321.019V88.5H322.379V91.38L322.159 90.84C322.492 90.08 323.026 89.4867 323.759 89.06C324.492 88.62 325.366 88.4 326.379 88.4ZM339.015 102.98C338.055 102.98 337.135 102.84 336.255 102.56C335.375 102.28 334.661 101.88 334.115 101.36L334.835 100.28C335.328 100.72 335.935 101.067 336.655 101.32C337.388 101.587 338.161 101.72 338.975 101.72C340.308 101.72 341.288 101.407 341.915 100.78C342.541 100.167 342.855 99.2067 342.855 97.9V95.28L343.055 93.48L342.915 91.68V88.5H344.275V97.72C344.275 99.5333 343.828 100.86 342.935 101.7C342.055 102.553 340.748 102.98 339.015 102.98ZM338.755 98.6C337.755 98.6 336.855 98.3867 336.055 97.96C335.255 97.52 334.621 96.9133 334.155 96.14C333.701 95.3667 333.475 94.48 333.475 93.48C333.475 92.48 333.701 91.6 334.155 90.84C334.621 90.0667 335.255 89.4667 336.055 89.04C336.855 88.6133 337.755 88.4 338.755 88.4C339.688 88.4 340.528 88.5933 341.275 88.98C342.021 89.3667 342.615 89.94 343.055 90.7C343.495 91.46 343.715 92.3867 343.715 93.48C343.715 94.5733 343.495 95.5 343.055 96.26C342.615 97.02 342.021 97.6 341.275 98C340.528 98.4 339.688 98.6 338.755 98.6ZM338.895 97.34C339.668 97.34 340.355 97.18 340.955 96.86C341.555 96.5267 342.028 96.0733 342.375 95.5C342.721 94.9133 342.895 94.24 342.895 93.48C342.895 92.72 342.721 92.0533 342.375 91.48C342.028 90.9067 341.555 90.46 340.955 90.14C340.355 89.8067 339.668 89.64 338.895 89.64C338.135 89.64 337.448 89.8067 336.835 90.14C336.235 90.46 335.761 90.9067 335.415 91.48C335.081 92.0533 334.915 92.72 334.915 93.48C334.915 94.24 335.081 94.9133 335.415 95.5C335.761 96.0733 336.235 96.5267 336.835 96.86C337.448 97.18 338.135 97.34 338.895 97.34ZM352.686 99.1C351.593 99.1 350.633 98.8733 349.806 98.42C348.979 97.9533 348.333 97.32 347.866 96.52C347.399 95.7067 347.166 94.78 347.166 93.74C347.166 92.7 347.386 91.78 347.826 90.98C348.279 90.18 348.893 89.5533 349.666 89.1C350.453 88.6333 351.333 88.4 352.306 88.4C353.293 88.4 354.166 88.6267 354.926 89.08C355.699 89.52 356.306 90.1467 356.746 90.96C357.186 91.76 357.406 92.6867 357.406 93.74C357.406 93.8067 357.399 93.88 357.386 93.96C357.386 94.0267 357.386 94.1 357.386 94.18H348.246V93.12H356.626L356.066 93.54C356.066 92.78 355.899 92.1067 355.566 91.52C355.246 90.92 354.806 90.4533 354.246 90.12C353.686 89.7867 353.039 89.62 352.306 89.62C351.586 89.62 350.939 89.7867 350.366 90.12C349.793 90.4533 349.346 90.92 349.026 91.52C348.706 92.12 348.546 92.8067 348.546 93.58V93.8C348.546 94.6 348.719 95.3067 349.066 95.92C349.426 96.52 349.919 96.9933 350.546 97.34C351.186 97.6733 351.913 97.84 352.726 97.84C353.366 97.84 353.959 97.7267 354.506 97.5C355.066 97.2733 355.546 96.9267 355.946 96.46L356.746 97.38C356.279 97.94 355.693 98.3667 354.986 98.66C354.293 98.9533 353.526 99.1 352.686 99.1ZM369.811 99.1C368.797 99.1 367.884 98.8733 367.071 98.42C366.271 97.9533 365.637 97.32 365.171 96.52C364.704 95.7067 364.471 94.78 364.471 93.74C364.471 92.6867 364.704 91.76 365.171 90.96C365.637 90.16 366.271 89.5333 367.071 89.08C367.871 88.6267 368.784 88.4 369.811 88.4C370.851 88.4 371.771 88.6267 372.571 89.08C373.384 89.5333 374.017 90.16 374.471 90.96C374.937 91.76 375.171 92.6867 375.171 93.74C375.171 94.78 374.937 95.7067 374.471 96.52C374.017 97.32 373.384 97.9533 372.571 98.42C371.757 98.8733 370.837 99.1 369.811 99.1ZM369.811 97.84C370.571 97.84 371.244 97.6733 371.831 97.34C372.417 96.9933 372.877 96.5133 373.211 95.9C373.557 95.2733 373.731 94.5533 373.731 93.74C373.731 92.9133 373.557 92.1933 373.211 91.58C372.877 90.9667 372.417 90.4933 371.831 90.16C371.244 89.8133 370.577 89.64 369.831 89.64C369.084 89.64 368.417 89.8133 367.831 90.16C367.244 90.4933 366.777 90.9667 366.431 91.58C366.084 92.1933 365.911 92.9133 365.911 93.74C365.911 94.5533 366.084 95.2733 366.431 95.9C366.777 96.5133 367.244 96.9933 367.831 97.34C368.417 97.6733 369.077 97.84 369.811 97.84ZM378.31 99V87.18C378.31 86.2467 378.583 85.4933 379.13 84.92C379.677 84.3467 380.463 84.06 381.49 84.06C381.89 84.06 382.277 84.1133 382.65 84.22C383.023 84.3267 383.337 84.4933 383.59 84.72L383.11 85.78C382.91 85.6067 382.677 85.48 382.41 85.4C382.143 85.3067 381.857 85.26 381.55 85.26C380.95 85.26 380.49 85.4267 380.17 85.76C379.85 86.0933 379.69 86.5867 379.69 87.24V88.84L379.73 89.5V99H378.31ZM376.43 89.68V88.5H382.93V89.68H376.43ZM393.402 99.1C392.415 99.1 391.655 98.8333 391.122 98.3C390.588 97.7667 390.322 97.0133 390.322 96.04V86.18H391.742V95.96C391.742 96.5733 391.895 97.0467 392.202 97.38C392.522 97.7133 392.975 97.88 393.562 97.88C394.188 97.88 394.708 97.7 395.122 97.34L395.622 98.36C395.342 98.6133 395.002 98.8 394.602 98.92C394.215 99.04 393.815 99.1 393.402 99.1ZM388.442 89.68V88.5H394.942V89.68H388.442ZM398.207 99V88.5H399.567V91.36L399.427 90.86C399.72 90.06 400.213 89.4533 400.907 89.04C401.6 88.6133 402.46 88.4 403.487 88.4V89.78C403.433 89.78 403.38 89.78 403.327 89.78C403.273 89.7667 403.22 89.76 403.167 89.76C402.06 89.76 401.193 90.1 400.567 90.78C399.94 91.4467 399.627 92.4 399.627 93.64V99H398.207ZM410.574 99.1C409.681 99.1 408.901 98.9333 408.234 98.6C407.567 98.2667 407.047 97.7667 406.674 97.1C406.314 96.4333 406.134 95.6 406.134 94.6V88.5H407.554V94.44C407.554 95.56 407.827 96.4067 408.374 96.98C408.934 97.54 409.714 97.82 410.714 97.82C411.447 97.82 412.081 97.6733 412.614 97.38C413.161 97.0733 413.574 96.6333 413.854 96.06C414.147 95.4867 414.294 94.8 414.294 94V88.5H415.714V99H414.354V96.12L414.574 96.64C414.241 97.4133 413.721 98.02 413.014 98.46C412.321 98.8867 411.507 99.1 410.574 99.1ZM422.491 99.1C421.625 99.1 420.805 98.98 420.031 98.74C419.258 98.4867 418.651 98.1733 418.211 97.8L418.851 96.68C419.278 97 419.825 97.28 420.491 97.52C421.158 97.7467 421.858 97.86 422.591 97.86C423.591 97.86 424.311 97.7067 424.751 97.4C425.191 97.08 425.411 96.66 425.411 96.14C425.411 95.7533 425.285 95.4533 425.031 95.24C424.791 95.0133 424.471 94.8467 424.071 94.74C423.671 94.62 423.225 94.52 422.731 94.44C422.238 94.36 421.745 94.2667 421.251 94.16C420.771 94.0533 420.331 93.9 419.931 93.7C419.531 93.4867 419.205 93.2 418.951 92.84C418.711 92.48 418.591 92 418.591 91.4C418.591 90.8267 418.751 90.3133 419.071 89.86C419.391 89.4067 419.858 89.0533 420.471 88.8C421.098 88.5333 421.858 88.4 422.751 88.4C423.431 88.4 424.111 88.4933 424.791 88.68C425.471 88.8533 426.031 89.0867 426.471 89.38L425.851 90.52C425.385 90.2 424.885 89.9733 424.351 89.84C423.818 89.6933 423.285 89.62 422.751 89.62C421.805 89.62 421.105 89.7867 420.651 90.12C420.211 90.44 419.991 90.8533 419.991 91.36C419.991 91.76 420.111 92.0733 420.351 92.3C420.605 92.5267 420.931 92.7067 421.331 92.84C421.745 92.96 422.191 93.06 422.671 93.14C423.165 93.22 423.651 93.32 424.131 93.44C424.625 93.5467 425.071 93.7 425.471 93.9C425.885 94.0867 426.211 94.36 426.451 94.72C426.705 95.0667 426.831 95.5267 426.831 96.1C426.831 96.7133 426.658 97.2467 426.311 97.7C425.978 98.14 425.485 98.4867 424.831 98.74C424.191 98.98 423.411 99.1 422.491 99.1ZM432.757 99.1C431.77 99.1 431.01 98.8333 430.477 98.3C429.944 97.7667 429.677 97.0133 429.677 96.04V86.18H431.097V95.96C431.097 96.5733 431.25 97.0467 431.557 97.38C431.877 97.7133 432.33 97.88 432.917 97.88C433.544 97.88 434.064 97.7 434.477 97.34L434.977 98.36C434.697 98.6133 434.357 98.8 433.957 98.92C433.57 99.04 433.17 99.1 432.757 99.1ZM427.797 89.68V88.5H434.297V89.68H427.797ZM441.651 99.1C440.558 99.1 439.598 98.8733 438.771 98.42C437.944 97.9533 437.298 97.32 436.831 96.52C436.364 95.7067 436.131 94.78 436.131 93.74C436.131 92.7 436.351 91.78 436.791 90.98C437.244 90.18 437.858 89.5533 438.631 89.1C439.418 88.6333 440.298 88.4 441.271 88.4C442.258 88.4 443.131 88.6267 443.891 89.08C444.664 89.52 445.271 90.1467 445.711 90.96C446.151 91.76 446.371 92.6867 446.371 93.74C446.371 93.8067 446.364 93.88 446.351 93.96C446.351 94.0267 446.351 94.1 446.351 94.18H437.211V93.12H445.591L445.031 93.54C445.031 92.78 444.864 92.1067 444.531 91.52C444.211 90.92 443.771 90.4533 443.211 90.12C442.651 89.7867 442.004 89.62 441.271 89.62C440.551 89.62 439.904 89.7867 439.331 90.12C438.758 90.4533 438.311 90.92 437.991 91.52C437.671 92.12 437.511 92.8067 437.511 93.58V93.8C437.511 94.6 437.684 95.3067 438.031 95.92C438.391 96.52 438.884 96.9933 439.511 97.34C440.151 97.6733 440.878 97.84 441.691 97.84C442.331 97.84 442.924 97.7267 443.471 97.5C444.031 97.2733 444.511 96.9267 444.911 96.46L445.711 97.38C445.244 97.94 444.658 98.3667 443.951 98.66C443.258 98.9533 442.491 99.1 441.651 99.1ZM453.441 99.1C452.441 99.1 451.541 98.8733 450.741 98.42C449.955 97.9667 449.335 97.34 448.881 96.54C448.428 95.7267 448.201 94.7933 448.201 93.74C448.201 92.6733 448.428 91.74 448.881 90.94C449.335 90.14 449.955 89.52 450.741 89.08C451.541 88.6267 452.441 88.4 453.441 88.4C454.361 88.4 455.181 88.6067 455.901 89.02C456.635 89.4333 457.215 90.04 457.641 90.84C458.081 91.6267 458.301 92.5933 458.301 93.74C458.301 94.8733 458.088 95.84 457.661 96.64C457.235 97.44 456.655 98.0533 455.921 98.48C455.201 98.8933 454.375 99.1 453.441 99.1ZM453.541 97.84C454.288 97.84 454.955 97.6733 455.541 97.34C456.141 96.9933 456.608 96.5133 456.941 95.9C457.288 95.2733 457.461 94.5533 457.461 93.74C457.461 92.9133 457.288 92.1933 456.941 91.58C456.608 90.9667 456.141 90.4933 455.541 90.16C454.955 89.8133 454.288 89.64 453.541 89.64C452.808 89.64 452.148 89.8133 451.561 90.16C450.975 90.4933 450.508 90.9667 450.161 91.58C449.815 92.1933 449.641 92.9133 449.641 93.74C449.641 94.5533 449.815 95.2733 450.161 95.9C450.508 96.5133 450.975 96.9933 451.561 97.34C452.148 97.6733 452.808 97.84 453.541 97.84ZM457.501 99V95.84L457.641 93.72L457.441 91.6V84.16H458.861V99H457.501ZM470.87 99.1C470.004 99.1 469.184 98.98 468.41 98.74C467.637 98.4867 467.03 98.1733 466.59 97.8L467.23 96.68C467.657 97 468.204 97.28 468.87 97.52C469.537 97.7467 470.237 97.86 470.97 97.86C471.97 97.86 472.69 97.7067 473.13 97.4C473.57 97.08 473.79 96.66 473.79 96.14C473.79 95.7533 473.664 95.4533 473.41 95.24C473.17 95.0133 472.85 94.8467 472.45 94.74C472.05 94.62 471.604 94.52 471.11 94.44C470.617 94.36 470.124 94.2667 469.63 94.16C469.15 94.0533 468.71 93.9 468.31 93.7C467.91 93.4867 467.584 93.2 467.33 92.84C467.09 92.48 466.97 92 466.97 91.4C466.97 90.8267 467.13 90.3133 467.45 89.86C467.77 89.4067 468.237 89.0533 468.85 88.8C469.477 88.5333 470.237 88.4 471.13 88.4C471.81 88.4 472.49 88.4933 473.17 88.68C473.85 88.8533 474.41 89.0867 474.85 89.38L474.23 90.52C473.764 90.2 473.264 89.9733 472.73 89.84C472.197 89.6933 471.664 89.62 471.13 89.62C470.184 89.62 469.484 89.7867 469.03 90.12C468.59 90.44 468.37 90.8533 468.37 91.36C468.37 91.76 468.49 92.0733 468.73 92.3C468.984 92.5267 469.31 92.7067 469.71 92.84C470.124 92.96 470.57 93.06 471.05 93.14C471.544 93.22 472.03 93.32 472.51 93.44C473.004 93.5467 473.45 93.7 473.85 93.9C474.264 94.0867 474.59 94.36 474.83 94.72C475.084 95.0667 475.21 95.5267 475.21 96.1C475.21 96.7133 475.037 97.2467 474.69 97.7C474.357 98.14 473.864 98.4867 473.21 98.74C472.57 98.98 471.79 99.1 470.87 99.1ZM482.276 99.1C481.183 99.1 480.223 98.8733 479.396 98.42C478.569 97.9533 477.923 97.32 477.456 96.52C476.989 95.7067 476.756 94.78 476.756 93.74C476.756 92.7 476.976 91.78 477.416 90.98C477.869 90.18 478.483 89.5533 479.256 89.1C480.043 88.6333 480.923 88.4 481.896 88.4C482.883 88.4 483.756 88.6267 484.516 89.08C485.289 89.52 485.896 90.1467 486.336 90.96C486.776 91.76 486.996 92.6867 486.996 93.74C486.996 93.8067 486.989 93.88 486.976 93.96C486.976 94.0267 486.976 94.1 486.976 94.18H477.836V93.12H486.216L485.656 93.54C485.656 92.78 485.489 92.1067 485.156 91.52C484.836 90.92 484.396 90.4533 483.836 90.12C483.276 89.7867 482.629 89.62 481.896 89.62C481.176 89.62 480.529 89.7867 479.956 90.12C479.383 90.4533 478.936 90.92 478.616 91.52C478.296 92.12 478.136 92.8067 478.136 93.58V93.8C478.136 94.6 478.309 95.3067 478.656 95.92C479.016 96.52 479.509 96.9933 480.136 97.34C480.776 97.6733 481.503 97.84 482.316 97.84C482.956 97.84 483.549 97.7267 484.096 97.5C484.656 97.2733 485.136 96.9267 485.536 96.46L486.336 97.38C485.869 97.94 485.283 98.3667 484.576 98.66C483.883 98.9533 483.116 99.1 482.276 99.1ZM489.886 99V88.5H491.246V91.36L491.106 90.86C491.4 90.06 491.893 89.4533 492.586 89.04C493.28 88.6133 494.14 88.4 495.166 88.4V89.78C495.113 89.78 495.06 89.78 495.006 89.78C494.953 89.7667 494.9 89.76 494.846 89.76C493.74 89.76 492.873 90.1 492.246 90.78C491.62 91.4467 491.306 92.4 491.306 93.64V99H489.886ZM500.907 99L496.247 88.5H497.727L502.007 98.24H501.307L505.647 88.5H507.047L502.367 99H500.907ZM509.046 99V88.5H510.466V99H509.046ZM509.766 86.18C509.473 86.18 509.226 86.08 509.026 85.88C508.826 85.68 508.726 85.44 508.726 85.16C508.726 84.88 508.826 84.6467 509.026 84.46C509.226 84.26 509.473 84.16 509.766 84.16C510.06 84.16 510.306 84.2533 510.506 84.44C510.706 84.6267 510.806 84.86 510.806 85.14C510.806 85.4333 510.706 85.68 510.506 85.88C510.32 86.08 510.073 86.18 509.766 86.18ZM518.778 99.1C517.738 99.1 516.804 98.8733 515.978 98.42C515.164 97.9533 514.524 97.32 514.058 96.52C513.591 95.7067 513.358 94.78 513.358 93.74C513.358 92.6867 513.591 91.76 514.058 90.96C514.524 90.16 515.164 89.5333 515.978 89.08C516.804 88.6267 517.738 88.4 518.778 88.4C519.671 88.4 520.478 88.5733 521.198 88.92C521.918 89.2667 522.484 89.7867 522.898 90.48L521.838 91.2C521.478 90.6667 521.031 90.2733 520.498 90.02C519.964 89.7667 519.384 89.64 518.758 89.64C518.011 89.64 517.338 89.8133 516.738 90.16C516.138 90.4933 515.664 90.9667 515.318 91.58C514.971 92.1933 514.798 92.9133 514.798 93.74C514.798 94.5667 514.971 95.2867 515.318 95.9C515.664 96.5133 516.138 96.9933 516.738 97.34C517.338 97.6733 518.011 97.84 518.758 97.84C519.384 97.84 519.964 97.7133 520.498 97.46C521.031 97.2067 521.478 96.82 521.838 96.3L522.898 97.02C522.484 97.7 521.918 98.22 521.198 98.58C520.478 98.9267 519.671 99.1 518.778 99.1ZM529.971 99.1C528.878 99.1 527.918 98.8733 527.091 98.42C526.265 97.9533 525.618 97.32 525.151 96.52C524.685 95.7067 524.451 94.78 524.451 93.74C524.451 92.7 524.671 91.78 525.111 90.98C525.565 90.18 526.178 89.5533 526.951 89.1C527.738 88.6333 528.618 88.4 529.591 88.4C530.578 88.4 531.451 88.6267 532.211 89.08C532.985 89.52 533.591 90.1467 534.031 90.96C534.471 91.76 534.691 92.6867 534.691 93.74C534.691 93.8067 534.685 93.88 534.671 93.96C534.671 94.0267 534.671 94.1 534.671 94.18H525.531V93.12H533.911L533.351 93.54C533.351 92.78 533.185 92.1067 532.851 91.52C532.531 90.92 532.091 90.4533 531.531 90.12C530.971 89.7867 530.325 89.62 529.591 89.62C528.871 89.62 528.225 89.7867 527.651 90.12C527.078 90.4533 526.631 90.92 526.311 91.52C525.991 92.12 525.831 92.8067 525.831 93.58V93.8C525.831 94.6 526.005 95.3067 526.351 95.92C526.711 96.52 527.205 96.9933 527.831 97.34C528.471 97.6733 529.198 97.84 530.011 97.84C530.651 97.84 531.245 97.7267 531.791 97.5C532.351 97.2733 532.831 96.9267 533.231 96.46L534.031 97.38C533.565 97.94 532.978 98.3667 532.271 98.66C531.578 98.9533 530.811 99.1 529.971 99.1ZM548.236 99.1C547.329 99.1 546.509 98.8933 545.776 98.48C545.043 98.0533 544.456 97.4467 544.016 96.66C543.589 95.86 543.376 94.8867 543.376 93.74C543.376 92.5933 543.589 91.6267 544.016 90.84C544.443 90.04 545.023 89.4333 545.756 89.02C546.489 88.6067 547.316 88.4 548.236 88.4C549.236 88.4 550.129 88.6267 550.916 89.08C551.716 89.52 552.343 90.1467 552.796 90.96C553.249 91.76 553.476 92.6867 553.476 93.74C553.476 94.8067 553.249 95.74 552.796 96.54C552.343 97.34 551.716 97.9667 550.916 98.42C550.129 98.8733 549.236 99.1 548.236 99.1ZM542.816 102.88V88.5H544.176V91.66L544.036 93.76L544.236 95.88V102.88H542.816ZM548.136 97.84C548.883 97.84 549.549 97.6733 550.136 97.34C550.723 96.9933 551.189 96.5133 551.536 95.9C551.883 95.2733 552.056 94.5533 552.056 93.74C552.056 92.9267 551.883 92.2133 551.536 91.6C551.189 90.9867 550.723 90.5067 550.136 90.16C549.549 89.8133 548.883 89.64 548.136 89.64C547.389 89.64 546.716 89.8133 546.116 90.16C545.529 90.5067 545.063 90.9867 544.716 91.6C544.383 92.2133 544.216 92.9267 544.216 93.74C544.216 94.5533 544.383 95.2733 544.716 95.9C545.063 96.5133 545.529 96.9933 546.116 97.34C546.716 97.6733 547.389 97.84 548.136 97.84ZM562.892 99V96.68L562.832 96.3V92.42C562.832 91.5267 562.579 90.84 562.072 90.36C561.579 89.88 560.839 89.64 559.852 89.64C559.172 89.64 558.525 89.7533 557.912 89.98C557.299 90.2067 556.779 90.5067 556.352 90.88L555.712 89.82C556.245 89.3667 556.885 89.02 557.632 88.78C558.379 88.5267 559.165 88.4 559.992 88.4C561.352 88.4 562.399 88.74 563.132 89.42C563.879 90.0867 564.252 91.1067 564.252 92.48V99H562.892ZM559.272 99.1C558.485 99.1 557.799 98.9733 557.212 98.72C556.639 98.4533 556.199 98.0933 555.892 97.64C555.585 97.1733 555.432 96.64 555.432 96.04C555.432 95.4933 555.559 95 555.812 94.56C556.079 94.1067 556.505 93.7467 557.092 93.48C557.692 93.2 558.492 93.06 559.492 93.06H563.112V94.12H559.532C558.519 94.12 557.812 94.3 557.412 94.66C557.025 95.02 556.832 95.4667 556.832 96C556.832 96.6 557.065 97.08 557.532 97.44C557.999 97.8 558.652 97.98 559.492 97.98C560.292 97.98 560.979 97.8 561.552 97.44C562.139 97.0667 562.565 96.5333 562.832 95.84L563.152 96.82C562.885 97.5133 562.419 98.0667 561.752 98.48C561.099 98.8933 560.272 99.1 559.272 99.1ZM568.109 99V88.5H569.469V91.36L569.329 90.86C569.622 90.06 570.116 89.4533 570.809 89.04C571.502 88.6133 572.362 88.4 573.389 88.4V89.78C573.336 89.78 573.282 89.78 573.229 89.78C573.176 89.7667 573.122 89.76 573.069 89.76C571.962 89.76 571.096 90.1 570.469 90.78C569.842 91.4467 569.529 92.4 569.529 93.64V99H568.109ZM579.749 99.1C578.763 99.1 578.003 98.8333 577.469 98.3C576.936 97.7667 576.669 97.0133 576.669 96.04V86.18H578.089V95.96C578.089 96.5733 578.243 97.0467 578.549 97.38C578.869 97.7133 579.323 97.88 579.909 97.88C580.536 97.88 581.056 97.7 581.469 97.34L581.969 98.36C581.689 98.6133 581.349 98.8 580.949 98.92C580.563 99.04 580.163 99.1 579.749 99.1ZM574.789 89.68V88.5H581.289V89.68H574.789ZM589.914 88.4C590.768 88.4 591.514 88.5667 592.154 88.9C592.808 89.22 593.314 89.7133 593.674 90.38C594.048 91.0467 594.234 91.8867 594.234 92.9V99H592.814V93.04C592.814 91.9333 592.534 91.1 591.974 90.54C591.428 89.9667 590.654 89.68 589.654 89.68C588.908 89.68 588.254 89.8333 587.694 90.14C587.148 90.4333 586.721 90.8667 586.414 91.44C586.121 92 585.974 92.68 585.974 93.48V99H584.554V88.5H585.914V91.38L585.694 90.84C586.028 90.08 586.561 89.4867 587.294 89.06C588.028 88.62 588.901 88.4 589.914 88.4ZM602.53 99.1C601.437 99.1 600.477 98.8733 599.65 98.42C598.823 97.9533 598.177 97.32 597.71 96.52C597.243 95.7067 597.01 94.78 597.01 93.74C597.01 92.7 597.23 91.78 597.67 90.98C598.123 90.18 598.737 89.5533 599.51 89.1C600.297 88.6333 601.177 88.4 602.15 88.4C603.137 88.4 604.01 88.6267 604.77 89.08C605.543 89.52 606.15 90.1467 606.59 90.96C607.03 91.76 607.25 92.6867 607.25 93.74C607.25 93.8067 607.243 93.88 607.23 93.96C607.23 94.0267 607.23 94.1 607.23 94.18H598.09V93.12H606.47L605.91 93.54C605.91 92.78 605.743 92.1067 605.41 91.52C605.09 90.92 604.65 90.4533 604.09 90.12C603.53 89.7867 602.883 89.62 602.15 89.62C601.43 89.62 600.783 89.7867 600.21 90.12C599.637 90.4533 599.19 90.92 598.87 91.52C598.55 92.12 598.39 92.8067 598.39 93.58V93.8C598.39 94.6 598.563 95.3067 598.91 95.92C599.27 96.52 599.763 96.9933 600.39 97.34C601.03 97.6733 601.757 97.84 602.57 97.84C603.21 97.84 603.803 97.7267 604.35 97.5C604.91 97.2733 605.39 96.9267 605.79 96.46L606.59 97.38C606.123 97.94 605.537 98.3667 604.83 98.66C604.137 98.9533 603.37 99.1 602.53 99.1ZM610.14 99V88.5H611.5V91.36L611.36 90.86C611.653 90.06 612.147 89.4533 612.84 89.04C613.533 88.6133 614.393 88.4 615.42 88.4V89.78C615.367 89.78 615.313 89.78 615.26 89.78C615.207 89.7667 615.153 89.76 615.1 89.76C613.993 89.76 613.127 90.1 612.5 90.78C611.873 91.4467 611.56 92.4 611.56 93.64V99H610.14ZM620.948 99.1C620.082 99.1 619.262 98.98 618.488 98.74C617.715 98.4867 617.108 98.1733 616.668 97.8L617.308 96.68C617.735 97 618.282 97.28 618.948 97.52C619.615 97.7467 620.315 97.86 621.048 97.86C622.048 97.86 622.768 97.7067 623.208 97.4C623.648 97.08 623.868 96.66 623.868 96.14C623.868 95.7533 623.742 95.4533 623.488 95.24C623.248 95.0133 622.928 94.8467 622.528 94.74C622.128 94.62 621.682 94.52 621.188 94.44C620.695 94.36 620.202 94.2667 619.708 94.16C619.228 94.0533 618.788 93.9 618.388 93.7C617.988 93.4867 617.662 93.2 617.408 92.84C617.168 92.48 617.048 92 617.048 91.4C617.048 90.8267 617.208 90.3133 617.528 89.86C617.848 89.4067 618.315 89.0533 618.928 88.8C619.555 88.5333 620.315 88.4 621.208 88.4C621.888 88.4 622.568 88.4933 623.248 88.68C623.928 88.8533 624.488 89.0867 624.928 89.38L624.308 90.52C623.842 90.2 623.342 89.9733 622.808 89.84C622.275 89.6933 621.742 89.62 621.208 89.62C620.262 89.62 619.562 89.7867 619.108 90.12C618.668 90.44 618.448 90.8533 618.448 91.36C618.448 91.76 618.568 92.0733 618.808 92.3C619.062 92.5267 619.388 92.7067 619.788 92.84C620.202 92.96 620.648 93.06 621.128 93.14C621.622 93.22 622.108 93.32 622.588 93.44C623.082 93.5467 623.528 93.7 623.928 93.9C624.342 94.0867 624.668 94.36 624.908 94.72C625.162 95.0667 625.288 95.5267 625.288 96.1C625.288 96.7133 625.115 97.2467 624.768 97.7C624.435 98.14 623.942 98.4867 623.288 98.74C622.648 98.98 621.868 99.1 620.948 99.1ZM154.3 123.1C153.313 123.1 152.553 122.833 152.02 122.3C151.487 121.767 151.22 121.013 151.22 120.04V110.18H152.64V119.96C152.64 120.573 152.793 121.047 153.1 121.38C153.42 121.713 153.873 121.88 154.46 121.88C155.087 121.88 155.607 121.7 156.02 121.34L156.52 122.36C156.24 122.613 155.9 122.8 155.5 122.92C155.113 123.04 154.713 123.1 154.3 123.1ZM149.34 113.68V112.5H155.84V113.68H149.34ZM163.014 123.1C162.001 123.1 161.087 122.873 160.274 122.42C159.474 121.953 158.841 121.32 158.374 120.52C157.907 119.707 157.674 118.78 157.674 117.74C157.674 116.687 157.907 115.76 158.374 114.96C158.841 114.16 159.474 113.533 160.274 113.08C161.074 112.627 161.987 112.4 163.014 112.4C164.054 112.4 164.974 112.627 165.774 113.08C166.587 113.533 167.221 114.16 167.674 114.96C168.141 115.76 168.374 116.687 168.374 117.74C168.374 118.78 168.141 119.707 167.674 120.52C167.221 121.32 166.587 121.953 165.774 122.42C164.961 122.873 164.041 123.1 163.014 123.1ZM163.014 121.84C163.774 121.84 164.447 121.673 165.034 121.34C165.621 120.993 166.081 120.513 166.414 119.9C166.761 119.273 166.934 118.553 166.934 117.74C166.934 116.913 166.761 116.193 166.414 115.58C166.081 114.967 165.621 114.493 165.034 114.16C164.447 113.813 163.781 113.64 163.034 113.64C162.287 113.64 161.621 113.813 161.034 114.16C160.447 114.493 159.981 114.967 159.634 115.58C159.287 116.193 159.114 116.913 159.114 117.74C159.114 118.553 159.287 119.273 159.634 119.9C159.981 120.513 160.447 120.993 161.034 121.34C161.621 121.673 162.281 121.84 163.014 121.84ZM189.627 112.4C190.481 112.4 191.221 112.567 191.847 112.9C192.487 113.22 192.981 113.713 193.327 114.38C193.687 115.047 193.867 115.887 193.867 116.9V123H192.447V117.04C192.447 115.933 192.181 115.1 191.647 114.54C191.127 113.967 190.387 113.68 189.427 113.68C188.707 113.68 188.081 113.833 187.547 114.14C187.027 114.433 186.621 114.867 186.327 115.44C186.047 116 185.907 116.68 185.907 117.48V123H184.487V117.04C184.487 115.933 184.221 115.1 183.687 114.54C183.154 113.967 182.407 113.68 181.447 113.68C180.741 113.68 180.121 113.833 179.587 114.14C179.054 114.433 178.641 114.867 178.347 115.44C178.067 116 177.927 116.68 177.927 117.48V123H176.507V112.5H177.867V115.34L177.647 114.84C177.967 114.08 178.481 113.487 179.187 113.06C179.907 112.62 180.754 112.4 181.727 112.4C182.754 112.4 183.627 112.66 184.347 113.18C185.067 113.687 185.534 114.453 185.747 115.48L185.187 115.26C185.494 114.407 186.034 113.72 186.807 113.2C187.594 112.667 188.534 112.4 189.627 112.4ZM202.178 123.1C201.085 123.1 200.125 122.873 199.298 122.42C198.472 121.953 197.825 121.32 197.358 120.52C196.892 119.707 196.658 118.78 196.658 117.74C196.658 116.7 196.878 115.78 197.318 114.98C197.772 114.18 198.385 113.553 199.158 113.1C199.945 112.633 200.825 112.4 201.798 112.4C202.785 112.4 203.658 112.627 204.418 113.08C205.192 113.52 205.798 114.147 206.238 114.96C206.678 115.76 206.898 116.687 206.898 117.74C206.898 117.807 206.892 117.88 206.878 117.96C206.878 118.027 206.878 118.1 206.878 118.18H197.738V117.12H206.118L205.558 117.54C205.558 116.78 205.392 116.107 205.058 115.52C204.738 114.92 204.298 114.453 203.738 114.12C203.178 113.787 202.532 113.62 201.798 113.62C201.078 113.62 200.432 113.787 199.858 114.12C199.285 114.453 198.838 114.92 198.518 115.52C198.198 116.12 198.038 116.807 198.038 117.58V117.8C198.038 118.6 198.212 119.307 198.558 119.92C198.918 120.52 199.412 120.993 200.038 121.34C200.678 121.673 201.405 121.84 202.218 121.84C202.858 121.84 203.452 121.727 203.998 121.5C204.558 121.273 205.038 120.927 205.438 120.46L206.238 121.38C205.772 121.94 205.185 122.367 204.478 122.66C203.785 122.953 203.018 123.1 202.178 123.1ZM214.249 123.1C213.155 123.1 212.195 122.873 211.369 122.42C210.542 121.953 209.895 121.32 209.429 120.52C208.962 119.707 208.729 118.78 208.729 117.74C208.729 116.7 208.949 115.78 209.389 114.98C209.842 114.18 210.455 113.553 211.229 113.1C212.015 112.633 212.895 112.4 213.869 112.4C214.855 112.4 215.729 112.627 216.489 113.08C217.262 113.52 217.869 114.147 218.309 114.96C218.749 115.76 218.969 116.687 218.969 117.74C218.969 117.807 218.962 117.88 218.949 117.96C218.949 118.027 218.949 118.1 218.949 118.18H209.809V117.12H218.189L217.629 117.54C217.629 116.78 217.462 116.107 217.129 115.52C216.809 114.92 216.369 114.453 215.809 114.12C215.249 113.787 214.602 113.62 213.869 113.62C213.149 113.62 212.502 113.787 211.929 114.12C211.355 114.453 210.909 114.92 210.589 115.52C210.269 116.12 210.109 116.807 210.109 117.58V117.8C210.109 118.6 210.282 119.307 210.629 119.92C210.989 120.52 211.482 120.993 212.109 121.34C212.749 121.673 213.475 121.84 214.289 121.84C214.929 121.84 215.522 121.727 216.069 121.5C216.629 121.273 217.109 120.927 217.509 120.46L218.309 121.38C217.842 121.94 217.255 122.367 216.549 122.66C215.855 122.953 215.089 123.1 214.249 123.1ZM225.179 123.1C224.192 123.1 223.432 122.833 222.899 122.3C222.366 121.767 222.099 121.013 222.099 120.04V110.18H223.519V119.96C223.519 120.573 223.672 121.047 223.979 121.38C224.299 121.713 224.752 121.88 225.339 121.88C225.966 121.88 226.486 121.7 226.899 121.34L227.399 122.36C227.119 122.613 226.779 122.8 226.379 122.92C225.992 123.04 225.592 123.1 225.179 123.1ZM220.219 113.68V112.5H226.719V113.68H220.219ZM235.298 126.98C234.805 126.98 234.332 126.9 233.878 126.74C233.438 126.58 233.058 126.34 232.738 126.02L233.398 124.96C233.665 125.213 233.952 125.407 234.258 125.54C234.578 125.687 234.932 125.76 235.318 125.76C235.785 125.76 236.185 125.627 236.518 125.36C236.865 125.107 237.192 124.653 237.498 124L238.178 122.46L238.338 122.24L242.658 112.5H244.058L238.798 124.26C238.505 124.94 238.178 125.48 237.818 125.88C237.472 126.28 237.092 126.56 236.678 126.72C236.265 126.893 235.805 126.98 235.298 126.98ZM238.098 123.3L233.258 112.5H234.738L239.018 122.14L238.098 123.3ZM250.045 123.1C249.032 123.1 248.118 122.873 247.305 122.42C246.505 121.953 245.872 121.32 245.405 120.52C244.938 119.707 244.705 118.78 244.705 117.74C244.705 116.687 244.938 115.76 245.405 114.96C245.872 114.16 246.505 113.533 247.305 113.08C248.105 112.627 249.018 112.4 250.045 112.4C251.085 112.4 252.005 112.627 252.805 113.08C253.618 113.533 254.252 114.16 254.705 114.96C255.172 115.76 255.405 116.687 255.405 117.74C255.405 118.78 255.172 119.707 254.705 120.52C254.252 121.32 253.618 121.953 252.805 122.42C251.992 122.873 251.072 123.1 250.045 123.1ZM250.045 121.84C250.805 121.84 251.478 121.673 252.065 121.34C252.652 120.993 253.112 120.513 253.445 119.9C253.792 119.273 253.965 118.553 253.965 117.74C253.965 116.913 253.792 116.193 253.445 115.58C253.112 114.967 252.652 114.493 252.065 114.16C251.478 113.813 250.812 113.64 250.065 113.64C249.318 113.64 248.652 113.813 248.065 114.16C247.478 114.493 247.012 114.967 246.665 115.58C246.318 116.193 246.145 116.913 246.145 117.74C246.145 118.553 246.318 119.273 246.665 119.9C247.012 120.513 247.478 120.993 248.065 121.34C248.652 121.673 249.312 121.84 250.045 121.84ZM262.644 123.1C261.751 123.1 260.971 122.933 260.304 122.6C259.638 122.267 259.118 121.767 258.744 121.1C258.384 120.433 258.204 119.6 258.204 118.6V112.5H259.624V118.44C259.624 119.56 259.898 120.407 260.444 120.98C261.004 121.54 261.784 121.82 262.784 121.82C263.518 121.82 264.151 121.673 264.684 121.38C265.231 121.073 265.644 120.633 265.924 120.06C266.218 119.487 266.364 118.8 266.364 118V112.5H267.784V123H266.424V120.12L266.644 120.64C266.311 121.413 265.791 122.02 265.084 122.46C264.391 122.887 263.578 123.1 262.644 123.1ZM271.742 123V112.5H273.102V115.36L272.962 114.86C273.255 114.06 273.748 113.453 274.442 113.04C275.135 112.613 275.995 112.4 277.022 112.4V113.78C276.968 113.78 276.915 113.78 276.862 113.78C276.808 113.767 276.755 113.76 276.702 113.76C275.595 113.76 274.728 114.1 274.102 114.78C273.475 115.447 273.162 116.4 273.162 117.64V123H271.742ZM290.363 112.4C291.217 112.4 291.963 112.567 292.603 112.9C293.257 113.22 293.763 113.713 294.123 114.38C294.497 115.047 294.683 115.887 294.683 116.9V123H293.263V117.04C293.263 115.933 292.983 115.1 292.423 114.54C291.877 113.967 291.103 113.68 290.103 113.68C289.357 113.68 288.703 113.833 288.143 114.14C287.597 114.433 287.17 114.867 286.863 115.44C286.57 116 286.423 116.68 286.423 117.48V123H285.003V112.5H286.363V115.38L286.143 114.84C286.477 114.08 287.01 113.487 287.743 113.06C288.477 112.62 289.35 112.4 290.363 112.4ZM302.979 123.1C301.886 123.1 300.926 122.873 300.099 122.42C299.272 121.953 298.626 121.32 298.159 120.52C297.692 119.707 297.459 118.78 297.459 117.74C297.459 116.7 297.679 115.78 298.119 114.98C298.572 114.18 299.186 113.553 299.959 113.1C300.746 112.633 301.626 112.4 302.599 112.4C303.586 112.4 304.459 112.627 305.219 113.08C305.992 113.52 306.599 114.147 307.039 114.96C307.479 115.76 307.699 116.687 307.699 117.74C307.699 117.807 307.692 117.88 307.679 117.96C307.679 118.027 307.679 118.1 307.679 118.18H298.539V117.12H306.919L306.359 117.54C306.359 116.78 306.192 116.107 305.859 115.52C305.539 114.92 305.099 114.453 304.539 114.12C303.979 113.787 303.332 113.62 302.599 113.62C301.879 113.62 301.232 113.787 300.659 114.12C300.086 114.453 299.639 114.92 299.319 115.52C298.999 116.12 298.839 116.807 298.839 117.58V117.8C298.839 118.6 299.012 119.307 299.359 119.92C299.719 120.52 300.212 120.993 300.839 121.34C301.479 121.673 302.206 121.84 303.019 121.84C303.659 121.84 304.252 121.727 304.799 121.5C305.359 121.273 305.839 120.927 306.239 120.46L307.039 121.38C306.572 121.94 305.986 122.367 305.279 122.66C304.586 122.953 303.819 123.1 302.979 123.1ZM315.049 123.1C313.956 123.1 312.996 122.873 312.169 122.42C311.343 121.953 310.696 121.32 310.229 120.52C309.763 119.707 309.529 118.78 309.529 117.74C309.529 116.7 309.749 115.78 310.189 114.98C310.643 114.18 311.256 113.553 312.029 113.1C312.816 112.633 313.696 112.4 314.669 112.4C315.656 112.4 316.529 112.627 317.289 113.08C318.063 113.52 318.669 114.147 319.109 114.96C319.549 115.76 319.769 116.687 319.769 117.74C319.769 117.807 319.763 117.88 319.749 117.96C319.749 118.027 319.749 118.1 319.749 118.18H310.609V117.12H318.989L318.429 117.54C318.429 116.78 318.263 116.107 317.929 115.52C317.609 114.92 317.169 114.453 316.609 114.12C316.049 113.787 315.403 113.62 314.669 113.62C313.949 113.62 313.303 113.787 312.729 114.12C312.156 114.453 311.709 114.92 311.389 115.52C311.069 116.12 310.909 116.807 310.909 117.58V117.8C310.909 118.6 311.083 119.307 311.429 119.92C311.789 120.52 312.283 120.993 312.909 121.34C313.549 121.673 314.276 121.84 315.089 121.84C315.729 121.84 316.323 121.727 316.869 121.5C317.429 121.273 317.909 120.927 318.309 120.46L319.109 121.38C318.643 121.94 318.056 122.367 317.349 122.66C316.656 122.953 315.889 123.1 315.049 123.1ZM326.84 123.1C325.84 123.1 324.94 122.873 324.14 122.42C323.353 121.967 322.733 121.34 322.28 120.54C321.826 119.727 321.6 118.793 321.6 117.74C321.6 116.673 321.826 115.74 322.28 114.94C322.733 114.14 323.353 113.52 324.14 113.08C324.94 112.627 325.84 112.4 326.84 112.4C327.76 112.4 328.58 112.607 329.3 113.02C330.033 113.433 330.613 114.04 331.04 114.84C331.48 115.627 331.7 116.593 331.7 117.74C331.7 118.873 331.486 119.84 331.06 120.64C330.633 121.44 330.053 122.053 329.32 122.48C328.6 122.893 327.773 123.1 326.84 123.1ZM326.94 121.84C327.686 121.84 328.353 121.673 328.94 121.34C329.54 120.993 330.006 120.513 330.34 119.9C330.686 119.273 330.86 118.553 330.86 117.74C330.86 116.913 330.686 116.193 330.34 115.58C330.006 114.967 329.54 114.493 328.94 114.16C328.353 113.813 327.686 113.64 326.94 113.64C326.206 113.64 325.546 113.813 324.96 114.16C324.373 114.493 323.906 114.967 323.56 115.58C323.213 116.193 323.04 116.913 323.04 117.74C323.04 118.553 323.213 119.273 323.56 119.9C323.906 120.513 324.373 120.993 324.96 121.34C325.546 121.673 326.206 121.84 326.94 121.84ZM330.9 123V119.84L331.04 117.72L330.84 115.6V108.16H332.26V123H330.9ZM339.034 123.1C338.168 123.1 337.348 122.98 336.574 122.74C335.801 122.487 335.194 122.173 334.754 121.8L335.394 120.68C335.821 121 336.368 121.28 337.034 121.52C337.701 121.747 338.401 121.86 339.134 121.86C340.134 121.86 340.854 121.707 341.294 121.4C341.734 121.08 341.954 120.66 341.954 120.14C341.954 119.753 341.828 119.453 341.574 119.24C341.334 119.013 341.014 118.847 340.614 118.74C340.214 118.62 339.768 118.52 339.274 118.44C338.781 118.36 338.288 118.267 337.794 118.16C337.314 118.053 336.874 117.9 336.474 117.7C336.074 117.487 335.748 117.2 335.494 116.84C335.254 116.48 335.134 116 335.134 115.4C335.134 114.827 335.294 114.313 335.614 113.86C335.934 113.407 336.401 113.053 337.014 112.8C337.641 112.533 338.401 112.4 339.294 112.4C339.974 112.4 340.654 112.493 341.334 112.68C342.014 112.853 342.574 113.087 343.014 113.38L342.394 114.52C341.928 114.2 341.428 113.973 340.894 113.84C340.361 113.693 339.828 113.62 339.294 113.62C338.348 113.62 337.648 113.787 337.194 114.12C336.754 114.44 336.534 114.853 336.534 115.36C336.534 115.76 336.654 116.073 336.894 116.3C337.148 116.527 337.474 116.707 337.874 116.84C338.288 116.96 338.734 117.06 339.214 117.14C339.708 117.22 340.194 117.32 340.674 117.44C341.168 117.547 341.614 117.7 342.014 117.9C342.428 118.087 342.754 118.36 342.994 118.72C343.248 119.067 343.374 119.527 343.374 120.1C343.374 120.713 343.201 121.247 342.854 121.7C342.521 122.14 342.028 122.487 341.374 122.74C340.734 122.98 339.954 123.1 339.034 123.1Z" fill="white"/>
<circle cx="75.1816" cy="87.5" r="58" stroke="white" stroke-width="5"/>
<path d="M69.8105 49.119C69.4169 49.2065 68.5569 49.5276 67.9009 49.834C65.6851 50.8992 63.9067 53.2193 63.484 55.5832C63.2653 56.7652 63.2799 59.8003 63.4985 60.5445C63.8338 61.6827 65.4665 62.9668 66.5889 62.9668C66.793 62.9668 66.8222 63.2148 66.8222 65.0534C66.8222 67.6654 66.9825 68.5555 67.7114 70.0731C68.1487 70.9924 68.5277 71.5323 69.3003 72.2911L70.3207 73.2979V74.8447V76.3768L69.1691 77.2669C68.5277 77.7485 67.9446 78.1424 67.8571 78.1424C67.7843 78.1424 67.5219 77.7922 67.2741 77.3691C65.7289 74.6696 62.6676 72.364 59.5481 71.5615C52.3615 69.6937 44.9854 74.4215 43.7172 81.7175C43.5423 82.7827 43.4985 84.7526 43.4985 93.4932V103.999L42.4781 105.006C41.3265 106.159 40.4227 107.808 40.1603 109.282C40.0729 109.763 40 111.967 40 114.214V118.285L40.3644 118.635L40.7143 119H56.3265H71.9388L72.3032 118.635L72.6822 118.256L72.6239 113.703C72.5656 109.238 72.5656 109.136 72.2012 108.187C71.6472 106.743 71.1079 105.926 70.0875 104.919L69.1545 104.014V99.8261V95.6528H74.9854H80.8163V99.8261V103.999L79.7959 105.006C78.6443 106.159 77.7405 107.808 77.4781 109.282C77.3907 109.763 77.3178 111.967 77.3178 114.214V118.285L77.6822 118.635L78.0321 119H93.6443H109.257L109.621 118.635L110 118.256L109.942 113.703C109.883 109.238 109.883 109.136 109.519 108.187C108.965 106.743 108.426 105.926 107.405 104.919L106.472 104.014V93.5078C106.472 81.9947 106.443 81.5132 105.612 79.3682C104.344 76.085 101.531 73.2687 98.2507 71.9992C94.5044 70.54 90.0729 71.007 86.691 73.2104C85.2624 74.1296 83.5423 75.8953 82.7988 77.1648C82.4927 77.7047 82.172 78.1424 82.0991 78.1424C82.0262 78.1424 81.4431 77.7485 80.8017 77.2669L79.6501 76.3768V74.8301V73.2687L80.5977 72.3348C81.6618 71.2988 82.1429 70.54 82.6968 69.11C83.0321 68.2053 83.0612 67.9426 83.1195 64.82L83.1778 61.493L83.9796 60.7342C85.758 59.0853 86.5743 57.2321 86.5743 54.8682C86.5743 53.5258 86.5306 53.3215 86.1079 52.4314C85.4665 51.0743 84.6501 50.228 83.3236 49.5713L82.2157 49.0314L76.3848 49.0023C73.105 48.9877 70.2187 49.046 69.8105 49.119ZM81.895 51.4683C82.7551 51.731 83.9067 52.9129 84.1545 53.8176C84.4315 54.7953 84.2711 56.1085 83.7464 57.2029C83.1341 58.4287 82.9155 58.6913 82.5948 58.5016C82.4636 58.4141 80.1312 57.8012 77.4344 57.1154L72.5073 55.8897L69.8688 57.2029C68.4111 57.9325 67.1429 58.6476 67.0262 58.8081C66.9096 58.9686 66.8222 59.4355 66.8222 59.8587C66.8222 60.7634 66.6035 60.8655 65.9913 60.2527C65.6268 59.8879 65.6268 59.8733 65.6851 57.8158C65.7289 55.8605 65.758 55.6854 66.1953 54.7661C66.4431 54.2262 66.9242 53.4966 67.2449 53.1464C67.8863 52.446 69.2128 51.6726 70.1166 51.4537C71.0204 51.2494 81.1662 51.264 81.895 51.4683ZM76.9679 59.4063L80.8309 60.384L80.7872 64.1195L80.7434 67.8697L80.2041 68.9787C79.5481 70.3065 78.7026 71.1237 77.3469 71.7657C76.4577 72.1889 76.2391 72.2327 74.9854 72.2327C73.7318 72.2327 73.5131 72.1889 72.6239 71.7657C71.2682 71.1237 70.4227 70.3065 69.7668 68.9787L69.2274 67.8697L69.1837 64.0466L69.1399 60.2089L70.8601 59.3334C71.8076 58.8518 72.6968 58.4579 72.8426 58.4579C72.9738 58.4433 74.8396 58.881 76.9679 59.4063ZM59.4606 73.9691C61.1079 74.4944 62.3469 75.2678 63.688 76.6103C65.0146 77.9382 65.7726 79.1493 66.3557 80.842L66.7493 82.0093L66.793 92.4864L66.8367 102.978L66.4286 102.89C66.2099 102.847 65.758 102.774 65.4373 102.715C65.0146 102.642 64.344 102.234 62.93 101.183L60.9913 99.7386V98.1772V96.6159L61.9388 95.682C63.0029 94.646 63.484 93.8872 64.0379 92.4572C64.4023 91.5087 64.4023 91.4066 64.4606 86.9414L64.519 82.3887L64.1691 82.0531C63.9067 81.7904 62.7988 81.4548 58.8484 80.4772L53.8484 79.2368L51.2099 80.5501C49.7522 81.2797 48.484 81.9947 48.3673 82.1552C48.207 82.3741 48.1633 83.2496 48.1633 86.4599C48.1633 88.6924 48.2362 90.8812 48.3236 91.3628C48.586 92.8366 49.4898 94.4855 50.6414 95.6382L51.6618 96.6451V98.1918V99.7386L49.7376 101.183C48.309 102.234 47.6385 102.642 47.2157 102.715C46.895 102.774 46.4431 102.847 46.2245 102.89L45.8163 102.978L45.8601 92.4864L45.9038 82.0093L46.2974 80.842C46.8805 79.1493 47.6385 77.9382 48.965 76.6103C50.5977 74.976 52.3907 73.9983 54.4898 73.6189C55.7872 73.3855 58.1487 73.546 59.4606 73.9691ZM96.7784 73.9691C98.4257 74.4944 99.6647 75.2678 101.006 76.6103C102.332 77.9382 103.09 79.1493 103.673 80.842L104.067 82.0093L104.111 92.4864L104.155 102.978L103.746 102.89C103.528 102.847 103.076 102.774 102.755 102.715C102.332 102.642 101.662 102.234 100.248 101.183L98.309 99.7386V98.1772V96.6159L99.2566 95.682C100.321 94.646 100.802 93.8872 101.356 92.4572C101.72 91.5087 101.72 91.4066 101.778 86.9414L101.837 82.3887L101.487 82.0531C101.224 81.7904 100.117 81.4548 96.1662 80.4772L91.1662 79.2368L88.5277 80.5501C87.07 81.2797 85.8017 81.9947 85.6851 82.1552C85.5248 82.3741 85.481 83.2496 85.481 86.4599C85.481 88.6924 85.5539 90.8812 85.6414 91.3628C85.9038 92.8366 86.8076 94.4855 87.9592 95.6382L88.9796 96.6451V98.1918V99.7386L87.0554 101.183C85.6268 102.234 84.9563 102.642 84.5335 102.715C84.2128 102.774 83.7609 102.847 83.5423 102.89L83.1341 102.978L83.1778 92.4864L83.2216 82.0093L83.6152 80.842C84.1983 79.1493 84.9563 77.9382 86.2828 76.6103C87.9155 74.976 89.7085 73.9983 91.8076 73.6189C93.105 73.3855 95.4665 73.546 96.7784 73.9691ZM74.9854 74.5674C75.5831 74.5674 76.3557 74.5236 76.7055 74.4507L77.3178 74.3485V75.8223C77.3178 76.6249 77.3761 77.3983 77.449 77.5296C77.5219 77.6609 78.3382 78.3321 79.2711 79.018C80.1895 79.7038 80.9475 80.2875 80.9621 80.3312C80.9621 80.375 79.621 81.1776 77.9738 82.1115L74.9854 83.8187L71.9971 82.1115C70.3499 81.1776 69.0087 80.375 69.0087 80.3312C69.0233 80.2875 69.7813 79.7038 70.6997 79.018C71.6327 78.3321 72.449 77.6609 72.5219 77.5296C72.5948 77.3983 72.6531 76.6249 72.6531 75.8223V74.3485L73.2799 74.4507C73.6152 74.5236 74.3878 74.5674 74.9854 74.5674ZM58.309 82.7535L62.172 83.7312L62.1283 87.4667L62.0845 91.2169L61.5452 92.3259C60.8892 93.6537 60.0437 94.4709 58.688 95.1129C57.7988 95.5361 57.5802 95.5799 56.3265 95.5799C55.0729 95.5799 54.8542 95.5361 53.965 95.1129C52.6093 94.4709 51.7638 93.6537 51.1079 92.3259L50.5685 91.2169L50.5248 87.3938L50.481 83.5561L52.2012 82.6806C53.1487 82.199 54.0379 81.805 54.1837 81.805C54.3149 81.7904 56.1808 82.2282 58.309 82.7535ZM95.6268 82.7535L99.4898 83.7312L99.4461 87.4667L99.4023 91.2169L98.863 92.3259C98.207 93.6537 97.3615 94.4709 96.0058 95.1129C95.1166 95.5361 94.898 95.5799 93.6443 95.5799C92.3907 95.5799 92.172 95.5361 91.2828 95.1129C89.9271 94.4709 89.0816 93.6537 88.4257 92.3259L87.8863 91.2169L87.8426 87.3938L87.7988 83.5561L89.5189 82.6806C90.4665 82.199 91.3557 81.805 91.5015 81.805C91.6327 81.7904 93.4985 82.2282 95.6268 82.7535ZM71.9825 84.7818C73.4548 85.6281 74.7959 86.314 74.9854 86.314C75.1749 86.314 76.516 85.6281 77.9883 84.7818C79.4606 83.9355 80.6997 83.2496 80.7434 83.2496C80.7872 83.2496 80.8163 85.5114 80.8163 88.2839V93.3181H74.9854H69.1545V88.2839C69.1545 85.5114 69.1837 83.2496 69.2274 83.2496C69.2711 83.2496 70.5102 83.9355 71.9825 84.7818ZM56.3265 97.9146C56.9242 97.9146 57.6968 97.8708 58.0466 97.7978L58.6589 97.6957V99.1695C58.6589 99.9721 58.7172 100.745 58.7901 100.877C58.863 101.008 59.6793 101.679 60.6122 102.365C61.5306 103.051 62.2886 103.635 62.3032 103.678C62.3032 103.722 60.9621 104.525 59.3149 105.459L56.3265 107.151L53.3382 105.459C51.7055 104.525 50.3499 103.722 50.3499 103.678C50.3644 103.635 51.1224 103.051 52.0408 102.365C52.9738 101.679 53.7901 101.008 53.863 100.877C53.9359 100.745 53.9942 99.9721 53.9942 99.1695V97.6957L54.621 97.7978C54.9563 97.8708 55.7289 97.9146 56.3265 97.9146ZM93.6443 97.9146C94.242 97.9146 95.0146 97.8708 95.3644 97.7978L95.9767 97.6957V99.1695C95.9767 99.9721 96.035 100.745 96.1079 100.877C96.1808 101.008 96.9971 101.679 97.93 102.365C98.8484 103.051 99.6064 103.635 99.621 103.678C99.621 103.722 98.2799 104.525 96.6327 105.459L93.6443 107.151L90.656 105.459C89.0233 104.525 87.6676 103.722 87.6676 103.678C87.6822 103.635 88.4402 103.051 89.3586 102.365C90.2915 101.679 91.1079 101.008 91.1808 100.877C91.2536 100.745 91.312 99.9721 91.312 99.1695V97.6957L91.9388 97.7978C92.2741 97.8708 93.0466 97.9146 93.6443 97.9146ZM51.9242 107.326C54.1545 108.611 56.1516 109.661 56.3265 109.661C56.5015 109.661 58.4985 108.611 60.758 107.312L64.8542 104.963L65.6268 105.123C67.4344 105.488 68.9504 106.714 69.7813 108.465L70.2478 109.442L70.2915 113.046L70.3499 116.665H56.3265H42.3032L42.3615 113.061L42.4052 109.442L42.8717 108.465C43.1195 107.925 43.6006 107.195 43.9213 106.845C44.7813 105.926 46.4577 105.079 47.5948 105.006C47.7259 104.992 49.6793 106.042 51.9242 107.326ZM89.242 107.326C91.4723 108.611 93.4694 109.661 93.6443 109.661C93.8192 109.661 95.8163 108.611 98.0758 107.312L102.172 104.963L102.945 105.123C104.752 105.488 106.268 106.714 107.099 108.465L107.566 109.442L107.609 113.046L107.668 116.665H93.6443H79.621L79.6793 113.061L79.723 109.442L80.1895 108.465C80.4373 107.925 80.9184 107.195 81.2391 106.845C82.0991 105.926 83.7755 105.079 84.9125 105.006C85.0437 104.992 86.9971 106.042 89.242 107.326Z" fill="white"/>
<path d="M49.8252 51.4974C49.6503 51.6287 49.1109 52.7669 48.4549 54.4158L47.3908 57.1299H45.2188C43.1051 57.1299 43.0322 57.1445 42.6969 57.4947C42.2596 57.9179 42.2159 58.5745 42.5803 58.9977C42.7261 59.1582 43.659 59.8878 44.6649 60.632C45.6707 61.3762 46.5453 62.0328 46.6182 62.1058C46.6911 62.1641 46.2829 63.3753 45.6998 64.8199C45.1313 66.2499 44.6649 67.5632 44.6649 67.7529C44.6649 67.9426 44.8252 68.249 45.0293 68.4387C45.6707 69.0953 46.0205 68.9494 48.3529 67.1984L50.4958 65.5933L52.6386 67.1984C54.971 68.9494 55.3208 69.0953 55.9622 68.4387C56.1663 68.249 56.3267 67.9426 56.3267 67.7529C56.3267 67.5632 55.8602 66.2499 55.2917 64.8199C54.7086 63.3753 54.3004 62.1641 54.3733 62.1058C54.4462 62.0328 55.3208 61.3762 56.3267 60.632C57.3325 59.8878 58.2654 59.1582 58.4112 58.9977C58.7756 58.5745 58.7319 57.9179 58.2946 57.4947C57.9593 57.1445 57.8864 57.1299 55.7727 57.1299H53.6007L52.5366 54.4158C51.4287 51.6433 51.1955 51.2931 50.4958 51.2931C50.2917 51.2931 49.9856 51.3807 49.8252 51.4974ZM51.2246 57.4218C51.5745 58.3119 51.9535 59.1144 52.0701 59.2166C52.1867 59.3041 52.6532 59.4209 53.1051 59.4646L53.9068 59.5376L52.8719 60.311C51.4579 61.3616 51.4287 61.4783 52.0847 63.098C52.3325 63.6671 52.5074 64.1341 52.4783 64.1341C52.4637 64.1341 52.0847 63.8714 51.6619 63.5504C51.21 63.2148 50.7144 62.9667 50.4958 62.9667C50.2771 62.9667 49.7815 63.2148 49.3296 63.5504C48.9068 63.8714 48.5278 64.1341 48.5133 64.1341C48.4841 64.1341 48.659 63.6671 48.9068 63.098C49.5628 61.4783 49.5337 61.3616 48.1197 60.311L47.0847 59.5376L47.8864 59.4646C48.3383 59.4209 48.8048 59.3041 48.9214 59.2166C49.038 59.1144 49.417 58.3119 49.7669 57.4218C50.1168 56.5462 50.4375 55.8166 50.4958 55.8166C50.5541 55.8166 50.8748 56.5462 51.2246 57.4218Z" fill="white"/>
<path d="M98.8043 51.4974C98.6293 51.6287 98.09 52.7669 97.434 54.4158L96.3699 57.1299H94.1979C92.0842 57.1299 92.0113 57.1445 91.676 57.4947C91.2387 57.9179 91.1949 58.5745 91.5739 58.9977C91.7051 59.1582 92.6381 59.8878 93.6439 60.632C94.6497 61.3762 95.5244 62.0328 95.5973 62.1058C95.6702 62.1641 95.262 63.3753 94.6789 64.8199C94.1104 66.2499 93.6439 67.5632 93.6439 67.7529C93.6439 67.9426 93.8043 68.249 94.0083 68.4387C94.6497 69.0953 94.9996 68.9494 97.332 67.1984L99.4748 65.5933L101.618 67.1984C103.95 68.9494 104.3 69.0953 104.941 68.4387C105.145 68.249 105.306 67.9426 105.306 67.7529C105.306 67.5632 104.839 66.2499 104.271 64.8199C103.688 63.3753 103.279 62.1641 103.352 62.1058C103.425 62.0328 104.3 61.3762 105.306 60.632C106.312 59.8878 107.244 59.1582 107.39 58.9977C107.755 58.5745 107.711 57.9179 107.274 57.4947C106.938 57.1445 106.865 57.1299 104.752 57.1299H102.58L101.516 54.4158C100.408 51.6433 100.175 51.2931 99.4748 51.2931C99.2707 51.2931 98.9646 51.3807 98.8043 51.4974ZM100.204 57.4218C100.554 58.3119 100.933 59.1144 101.049 59.2166C101.166 59.3041 101.632 59.4209 102.084 59.4646L102.886 59.5376L101.851 60.311C100.437 61.3616 100.408 61.4783 101.064 63.098C101.312 63.6671 101.486 64.1341 101.457 64.1341C101.443 64.1341 101.064 63.8714 100.641 63.5504C100.189 63.2148 99.6935 62.9667 99.4748 62.9667C99.2562 62.9667 98.7605 63.2148 98.3086 63.5504C97.8859 63.8714 97.5069 64.1341 97.4923 64.1341C97.4632 64.1341 97.6381 63.6671 97.8859 63.098C98.5419 61.4783 98.5127 61.3616 97.0987 60.311L96.0637 59.5376L96.8655 59.4646C97.3174 59.4209 97.7839 59.3041 97.9005 59.2166C98.0171 59.1144 98.3961 58.3119 98.746 57.4218C99.0958 56.5462 99.4165 55.8166 99.4748 55.8166C99.5331 55.8166 99.8538 56.5462 100.204 57.4218Z" fill="white"/>
</g>
<defs>
<filter id="filter0_d_619_3452" x="0" y="0" width="653.029" height="184" filterUnits="userSpaceOnUse" color-interpolation-filters="sRGB">
<feFlood flood-opacity="0" result="BackgroundImageFix"/>
<feColorMatrix in="SourceAlpha" type="matrix" values="0 0 0 0 0 0 0 0 0 0 0 0 0 0 0 0 0 0 127 0" result="hardAlpha"/>
<feOffset dy="4"/>
<feGaussianBlur stdDeviation="2"/>
<feComposite in2="hardAlpha" operator="out"/>
<feColorMatrix type="matrix" values="0 0 0 0 0 0 0 0 0 0 0 0 0 0 0 0 0 0 0.25 0"/>
<feBlend mode="normal" in2="BackgroundImageFix" result="effect1_dropShadow_619_3452"/>
<feBlend mode="normal" in="SourceGraphic" in2="effect1_dropShadow_619_3452" result="shape"/>
</filter>
</defs>
</svg>
