<svg width="70" height="70" viewBox="0 0 70 70" fill="none" xmlns="http://www.w3.org/2000/svg">
<path d="M29.8105 0.118988C29.4169 0.206535 28.5569 0.527565 27.9009 0.833992C25.6851 1.89921 23.9067 4.21934 23.484 6.58324C23.2653 7.76519 23.2799 10.8003 23.4985 11.5445C23.8338 12.6827 25.4665 13.9668 26.5889 13.9668C26.793 13.9668 26.8222 14.2148 26.8222 16.0534C26.8222 18.6654 26.9825 19.5555 27.7114 21.0731C28.1487 21.9924 28.5277 22.5323 29.3003 23.2911L30.3207 24.2979V25.8447V27.3768L29.1691 28.2669C28.5277 28.7485 27.9446 29.1424 27.8571 29.1424C27.7843 29.1424 27.5219 28.7922 27.2741 28.3691C25.7289 25.6696 22.6676 23.364 19.5481 22.5615C12.3615 20.6937 4.98542 25.4215 3.7172 32.7175C3.54227 33.7827 3.49854 35.7526 3.49854 44.4932V54.9994L2.47813 56.0063C1.32653 57.1591 0.422741 58.8079 0.16035 60.2817C0.0728863 60.7633 0 62.9667 0 65.2138V69.285L0.364431 69.6352L0.714286 70H16.3265H31.9388L32.3032 69.6352L32.6822 69.2558L32.6239 64.7031C32.5656 60.238 32.5656 60.1358 32.2012 59.1873C31.6472 57.7427 31.1079 56.9256 30.0875 55.9187L29.1545 55.014V50.8261V46.6528H34.9854H40.8163V50.8261V54.9994L39.7959 56.0063C38.6443 57.1591 37.7405 58.8079 37.4781 60.2817C37.3907 60.7633 37.3178 62.9667 37.3178 65.2138V69.285L37.6822 69.6352L38.0321 70H53.6443H69.2566L69.621 69.6352L70 69.2558L69.9417 64.7031C69.8834 60.238 69.8834 60.1358 69.519 59.1873C68.965 57.7427 68.4257 56.9256 67.4053 55.9187L66.4723 55.014V44.5078C66.4723 32.9947 66.4431 32.5132 65.6122 30.3682C64.344 27.085 61.5306 24.2687 58.2507 22.9992C54.5044 21.54 50.0729 22.007 46.691 24.2104C45.2624 25.1296 43.5423 26.8953 42.7988 28.1648C42.4927 28.7047 42.172 29.1424 42.0991 29.1424C42.0262 29.1424 41.4431 28.7485 40.8018 28.2669L39.6501 27.3768V25.8301V24.2687L40.5977 23.3348C41.6618 22.2988 42.1429 21.54 42.6968 20.11C43.0321 19.2053 43.0612 18.9426 43.1195 15.82L43.1778 12.493L43.9796 11.7342C45.758 10.0853 46.5743 8.23213 46.5743 5.86823C46.5743 4.52576 46.5306 4.32148 46.1079 3.43137C45.4665 2.07431 44.6501 1.22797 43.3236 0.571335L42.2157 0.0314331L36.3848 0.00225067C33.105 -0.0123444 30.2187 0.0460281 29.8105 0.118988ZM41.895 2.46829C42.7551 2.73095 43.9067 3.9129 44.1545 4.8176C44.4315 5.79527 44.2711 7.10855 43.7464 8.20295C43.1341 9.42867 42.9155 9.69133 42.5948 9.50163C42.4636 9.41408 40.1312 8.80122 37.4344 8.11539L32.5073 6.88967L29.8688 8.20295C28.4111 8.93254 27.1429 9.64755 27.0262 9.80806C26.9096 9.96857 26.8222 10.4355 26.8222 10.8587C26.8222 11.7634 26.6035 11.8655 25.9913 11.2527C25.6268 10.8879 25.6268 10.8733 25.6851 8.81581C25.7289 6.86049 25.758 6.68538 26.1953 5.76608C26.4431 5.22618 26.9242 4.49658 27.2449 4.14638C27.8863 3.44596 29.2128 2.67258 30.1166 2.4537C31.0204 2.24941 41.1662 2.26401 41.895 2.46829ZM36.9679 10.4063L40.8309 11.384L40.7872 15.1195L40.7434 18.8697L40.2041 19.9787C39.5481 21.3065 38.7026 22.1237 37.3469 22.7657C36.4577 23.1889 36.2391 23.2327 34.9854 23.2327C33.7318 23.2327 33.5131 23.1889 32.6239 22.7657C31.2682 22.1237 30.4227 21.3065 29.7668 19.9787L29.2274 18.8697L29.1837 15.0466L29.1399 11.2089L30.8601 10.3334C31.8076 9.85184 32.6968 9.45786 32.8426 9.45786C32.9738 9.44326 34.8396 9.88102 36.9679 10.4063ZM19.4606 24.9691C21.1079 25.4944 22.3469 26.2678 23.688 27.6103C25.0146 28.9382 25.7726 30.1493 26.3557 31.842L26.7493 33.0093L26.793 43.4864L26.8367 53.978L26.4286 53.8904C26.2099 53.8467 25.758 53.7737 25.4373 53.7153C25.0146 53.6424 24.344 53.2338 22.93 52.1832L20.9913 50.7386V49.1772V47.6159L21.9388 46.682C23.0029 45.646 23.484 44.8872 24.0379 43.4572C24.4023 42.5087 24.4023 42.4066 24.4606 37.9414L24.5189 33.3887L24.1691 33.0531C23.9067 32.7904 22.7988 32.4548 18.8484 31.4772L13.8484 30.2368L11.2099 31.5501C9.75219 32.2797 8.48396 32.9947 8.36735 33.1552C8.207 33.3741 8.16327 34.2496 8.16327 37.4599C8.16327 39.6924 8.23615 41.8812 8.32362 42.3628C8.58601 43.8366 9.4898 45.4855 10.6414 46.6382L11.6618 47.6451V49.1918V50.7386L9.73761 52.1832C8.30904 53.2338 7.63848 53.6424 7.21574 53.7153C6.89504 53.7737 6.44315 53.8467 6.22449 53.8904L5.81633 53.978L5.86006 43.4864L5.90379 33.0093L6.29738 31.842C6.88047 30.1493 7.63848 28.9382 8.96501 27.6103C10.5977 25.976 12.3907 24.9983 14.4898 24.6189C15.7872 24.3855 18.1487 24.546 19.4606 24.9691ZM56.7784 24.9691C58.4257 25.4944 59.6647 26.2678 61.0058 27.6103C62.3324 28.9382 63.0904 30.1493 63.6735 31.842L64.0671 33.0093L64.1108 43.4864L64.1545 53.978L63.7464 53.8904C63.5277 53.8467 63.0758 53.7737 62.7551 53.7153C62.3324 53.6424 61.6618 53.2338 60.2478 52.1832L58.309 50.7386V49.1772V47.6159L59.2566 46.682C60.3207 45.646 60.8018 44.8872 61.3557 43.4572C61.7201 42.5087 61.7201 42.4066 61.7784 37.9414L61.8367 33.3887L61.4869 33.0531C61.2245 32.7904 60.1166 32.4548 56.1662 31.4772L51.1662 30.2368L48.5277 31.5501C47.07 32.2797 45.8018 32.9947 45.6851 33.1552C45.5248 33.3741 45.481 34.2496 45.481 37.4599C45.481 39.6924 45.5539 41.8812 45.6414 42.3628C45.9038 43.8366 46.8076 45.4855 47.9592 46.6382L48.9796 47.6451V49.1918V50.7386L47.0554 52.1832C45.6268 53.2338 44.9563 53.6424 44.5335 53.7153C44.2128 53.7737 43.7609 53.8467 43.5423 53.8904L43.1341 53.978L43.1778 43.4864L43.2216 33.0093L43.6152 31.842C44.1982 30.1493 44.9563 28.9382 46.2828 27.6103C47.9155 25.976 49.7085 24.9983 51.8076 24.6189C53.105 24.3855 55.4665 24.546 56.7784 24.9691ZM34.9854 25.5674C35.5831 25.5674 36.3557 25.5236 36.7055 25.4507L37.3178 25.3485V26.8223C37.3178 27.6249 37.3761 28.3983 37.449 28.5296C37.5219 28.6609 38.3382 29.3321 39.2711 30.018C40.1895 30.7038 40.9475 31.2875 40.9621 31.3312C40.9621 31.375 39.621 32.1776 37.9738 33.1115L34.9854 34.8187L31.9971 33.1115C30.3499 32.1776 29.0087 31.375 29.0087 31.3312C29.0233 31.2875 29.7813 30.7038 30.6997 30.018C31.6327 29.3321 32.449 28.6609 32.5219 28.5296C32.5948 28.3983 32.6531 27.6249 32.6531 26.8223V25.3485L33.2799 25.4507C33.6152 25.5236 34.3878 25.5674 34.9854 25.5674ZM18.309 33.7535L22.172 34.7312L22.1283 38.4667L22.0845 42.2169L21.5452 43.3259C20.8892 44.6537 20.0437 45.4709 18.688 46.1129C17.7988 46.5361 17.5802 46.5799 16.3265 46.5799C15.0729 46.5799 14.8542 46.5361 13.965 46.1129C12.6093 45.4709 11.7638 44.6537 11.1079 43.3259L10.5685 42.2169L10.5248 38.3938L10.481 34.5561L12.2012 33.6805C13.1487 33.199 14.0379 32.805 14.1837 32.805C14.3149 32.7904 16.1808 33.2282 18.309 33.7535ZM55.6268 33.7535L59.4898 34.7312L59.4461 38.4667L59.4023 42.2169L58.863 43.3259C58.207 44.6537 57.3615 45.4709 56.0058 46.1129C55.1166 46.5361 54.898 46.5799 53.6443 46.5799C52.3907 46.5799 52.172 46.5361 51.2828 46.1129C49.9271 45.4709 49.0816 44.6537 48.4257 43.3259L47.8863 42.2169L47.8426 38.3938L47.7988 34.5561L49.519 33.6805C50.4665 33.199 51.3557 32.805 51.5015 32.805C51.6327 32.7904 53.4985 33.2282 55.6268 33.7535ZM31.9825 35.7818C33.4548 36.6281 34.7959 37.314 34.9854 37.314C35.1749 37.314 36.516 36.6281 37.9883 35.7818C39.4606 34.9355 40.6997 34.2496 40.7434 34.2496C40.7872 34.2496 40.8163 36.5114 40.8163 39.2839V44.3181H34.9854H29.1545V39.2839C29.1545 36.5114 29.1837 34.2496 29.2274 34.2496C29.2711 34.2496 30.5102 34.9355 31.9825 35.7818ZM16.3265 48.9146C16.9242 48.9146 17.6968 48.8708 18.0466 48.7978L18.6589 48.6957V50.1695C18.6589 50.9721 18.7172 51.7454 18.7901 51.8768C18.863 52.0081 19.6793 52.6793 20.6122 53.3651C21.5306 54.051 22.2886 54.6346 22.3032 54.6784C22.3032 54.7222 20.9621 55.5248 19.3149 56.4586L16.3265 58.1513L13.3382 56.4586C11.7055 55.5248 10.3499 54.7222 10.3499 54.6784C10.3644 54.6346 11.1224 54.051 12.0408 53.3651C12.9738 52.6793 13.7901 52.0081 13.863 51.8768C13.9359 51.7454 13.9942 50.9721 13.9942 50.1695V48.6957L14.621 48.7978C14.9563 48.8708 15.7289 48.9146 16.3265 48.9146ZM53.6443 48.9146C54.242 48.9146 55.0146 48.8708 55.3644 48.7978L55.9767 48.6957V50.1695C55.9767 50.9721 56.035 51.7454 56.1079 51.8768C56.1808 52.0081 56.9971 52.6793 57.93 53.3651C58.8484 54.051 59.6064 54.6346 59.621 54.6784C59.621 54.7222 58.2799 55.5248 56.6327 56.4586L53.6443 58.1513L50.656 56.4586C49.0233 55.5248 47.6676 54.7222 47.6676 54.6784C47.6822 54.6346 48.4402 54.051 49.3586 53.3651C50.2915 52.6793 51.1079 52.0081 51.1808 51.8768C51.2536 51.7454 51.312 50.9721 51.312 50.1695V48.6957L51.9388 48.7978C52.2741 48.8708 53.0466 48.9146 53.6443 48.9146ZM11.9242 58.3264C14.1545 59.6105 16.1516 60.6611 16.3265 60.6611C16.5015 60.6611 18.4985 59.6105 20.758 58.3118L24.8542 55.9625L25.6268 56.123C27.4344 56.4878 28.9504 57.7135 29.7813 59.4646L30.2478 60.4423L30.2915 64.0465L30.3499 67.6653H16.3265H2.30321L2.36152 64.0611L2.40525 60.4423L2.87172 59.4646C3.11953 58.9247 3.60058 58.1951 3.92128 57.8449C4.78134 56.9256 6.45773 56.0792 7.59475 56.0063C7.72595 55.9917 9.6793 57.0423 11.9242 58.3264ZM49.242 58.3264C51.4723 59.6105 53.4694 60.6611 53.6443 60.6611C53.8192 60.6611 55.8163 59.6105 58.0758 58.3118L62.172 55.9625L62.9446 56.123C64.7522 56.4878 66.2682 57.7135 67.0991 59.4646L67.5656 60.4423L67.6093 64.0465L67.6676 67.6653H53.6443H39.621L39.6793 64.0611L39.723 60.4423L40.1895 59.4646C40.4373 58.9247 40.9184 58.1951 41.2391 57.8449C42.0991 56.9256 43.7755 56.0792 44.9125 56.0063C45.0437 55.9917 46.9971 57.0423 49.242 58.3264Z" fill="#5F0000"/>
<path d="M9.82521 2.49936C9.65028 2.63069 9.11092 3.76886 8.45495 5.41776L7.39081 8.13186H5.2188C3.10509 8.13186 3.03221 8.14646 2.69693 8.49666C2.25961 8.91983 2.21588 9.57647 2.58031 9.99964C2.72609 10.1601 3.65903 10.8897 4.66486 11.6339C5.67069 12.3781 6.54533 13.0348 6.61821 13.1077C6.6911 13.1661 6.28294 14.3772 5.69985 15.8218C5.13133 17.2519 4.66486 18.5651 4.66486 18.7548C4.66486 18.9445 4.82521 19.251 5.02929 19.4407C5.67069 20.0973 6.02055 19.9514 8.35291 18.2003L10.4958 16.5952L12.6386 18.2003C14.971 19.9514 15.3208 20.0973 15.9622 19.4407C16.1663 19.251 16.3267 18.9445 16.3267 18.7548C16.3267 18.5651 15.8602 17.2519 15.2917 15.8218C14.7086 14.3772 14.3004 13.1661 14.3733 13.1077C14.4462 13.0348 15.3208 12.3781 16.3267 11.6339C17.3325 10.8897 18.2654 10.1601 18.4112 9.99964C18.7756 9.57647 18.7319 8.91983 18.2946 8.49666C17.9593 8.14646 17.8864 8.13186 15.7727 8.13186H13.6007L12.5366 5.41776C11.4287 2.64528 11.1955 2.29507 10.4958 2.29507C10.2917 2.29507 9.98556 2.38262 9.82521 2.49936ZM11.2246 8.4237C11.5745 9.31382 11.9535 10.1164 12.0701 10.2185C12.1867 10.3061 12.6532 10.4228 13.1051 10.4666L13.9068 10.5395L12.8719 11.3129C11.4579 12.3635 11.4287 12.4803 12.0847 14.1C12.3325 14.6691 12.5074 15.136 12.4783 15.136C12.4637 15.136 12.0847 14.8734 11.6619 14.5523C11.21 14.2167 10.7144 13.9687 10.4958 13.9687C10.2771 13.9687 9.78148 14.2167 9.32958 14.5523C8.90684 14.8734 8.52783 15.136 8.51326 15.136C8.4841 15.136 8.65903 14.6691 8.90684 14.1C9.56282 12.4803 9.53366 12.3635 8.11967 11.3129L7.08469 10.5395L7.88643 10.4666C8.33833 10.4228 8.8048 10.3061 8.92142 10.2185C9.03804 10.1164 9.41705 9.31382 9.7669 8.4237C10.1168 7.54818 10.4375 6.81859 10.4958 6.81859C10.5541 6.81859 10.8748 7.54818 11.2246 8.4237Z" fill="#5F0000"/>
<path d="M58.8043 2.49936C58.6293 2.63069 58.09 3.76886 57.434 5.41776L56.3699 8.13186H54.1979C52.0842 8.13186 52.0113 8.14646 51.676 8.49666C51.2387 8.91983 51.1949 9.57647 51.5739 9.99964C51.7051 10.1601 52.6381 10.8897 53.6439 11.6339C54.6497 12.3781 55.5244 13.0348 55.5973 13.1077C55.6702 13.1661 55.262 14.3772 54.6789 15.8218C54.1104 17.2519 53.6439 18.5651 53.6439 18.7548C53.6439 18.9445 53.8043 19.251 54.0083 19.4407C54.6497 20.0973 54.9996 19.9514 57.332 18.2003L59.4748 16.5952L61.6177 18.2003C63.95 19.9514 64.2999 20.0973 64.9413 19.4407C65.1454 19.251 65.3057 18.9445 65.3057 18.7548C65.3057 18.5651 64.8393 17.2519 64.2707 15.8218C63.6876 14.3772 63.2795 13.1661 63.3524 13.1077C63.4253 13.0348 64.2999 12.3781 65.3057 11.6339C66.3116 10.8897 67.2445 10.1601 67.3903 9.99964C67.7547 9.57647 67.711 8.91983 67.2737 8.49666C66.9384 8.14646 66.8655 8.13186 64.7518 8.13186H62.5798L61.5156 5.41776C60.4078 2.64528 60.1745 2.29507 59.4748 2.29507C59.2707 2.29507 58.9646 2.38262 58.8043 2.49936ZM60.2037 8.4237C60.5535 9.31382 60.9325 10.1164 61.0492 10.2185C61.1658 10.3061 61.6323 10.4228 62.0841 10.4666L62.8859 10.5395L61.8509 11.3129C60.4369 12.3635 60.4078 12.4803 61.0637 14.1C61.3116 14.6691 61.4865 15.136 61.4573 15.136C61.4427 15.136 61.0637 14.8734 60.641 14.5523C60.1891 14.2167 59.6935 13.9687 59.4748 13.9687C59.2562 13.9687 58.7605 14.2167 58.3086 14.5523C57.8859 14.8734 57.5069 15.136 57.4923 15.136C57.4632 15.136 57.6381 14.6691 57.8859 14.1C58.5419 12.4803 58.5127 12.3635 57.0987 11.3129L56.0637 10.5395L56.8655 10.4666C57.3174 10.4228 57.7839 10.3061 57.9005 10.2185C58.0171 10.1164 58.3961 9.31382 58.746 8.4237C59.0958 7.54818 59.4165 6.81859 59.4748 6.81859C59.5331 6.81859 59.8538 7.54818 60.2037 8.4237Z" fill="#5F0000"/>
</svg>
