<svg width="647" height="176" viewBox="0 0 647 176" fill="none" xmlns="http://www.w3.org/2000/svg">
<rect x="1.5" y="1.5" width="642.029" height="173" rx="16.5" fill="white"/>
<rect x="1.5" y="1.5" width="642.029" height="173" rx="16.5" fill="#F13636"/>
<rect x="1.5" y="1.5" width="642.029" height="173" rx="16.5" stroke="#F7A9A0" stroke-width="3"/>
<path d="M145.993 66L139.729 47.1H143.374L148.963 64.191H147.154L152.959 47.1H156.199L161.842 64.191H160.087L165.811 47.1H169.159L162.895 66H159.169L154.012 50.583H154.984L149.746 66H145.993ZM171.376 66V51.582H174.751V66H171.376ZM173.077 49.206C172.447 49.206 171.925 49.008 171.511 48.612C171.115 48.216 170.917 47.739 170.917 47.181C170.917 46.605 171.115 46.128 171.511 45.75C171.925 45.354 172.447 45.156 173.077 45.156C173.707 45.156 174.22 45.345 174.616 45.723C175.03 46.083 175.237 46.542 175.237 47.1C175.237 47.694 175.039 48.198 174.643 48.612C174.247 49.008 173.725 49.206 173.077 49.206ZM184.833 66.189C183.447 66.189 182.196 65.883 181.08 65.271C179.982 64.641 179.118 63.777 178.488 62.679C177.858 61.581 177.543 60.285 177.543 58.791C177.543 57.297 177.858 56.001 178.488 54.903C179.118 53.805 179.982 52.95 181.08 52.338C182.196 51.726 183.447 51.42 184.833 51.42C186.039 51.42 187.119 51.69 188.073 52.23C189.027 52.752 189.783 53.553 190.341 54.633C190.899 55.713 191.178 57.099 191.178 58.791C191.178 60.465 190.908 61.851 190.368 62.949C189.828 64.029 189.081 64.839 188.127 65.379C187.173 65.919 186.075 66.189 184.833 66.189ZM185.238 63.3C186.048 63.3 186.768 63.12 187.398 62.76C188.046 62.4 188.559 61.878 188.937 61.194C189.333 60.51 189.531 59.709 189.531 58.791C189.531 57.855 189.333 57.054 188.937 56.388C188.559 55.704 188.046 55.182 187.398 54.822C186.768 54.462 186.048 54.282 185.238 54.282C184.428 54.282 183.699 54.462 183.051 54.822C182.421 55.182 181.908 55.704 181.512 56.388C181.134 57.054 180.945 57.855 180.945 58.791C180.945 59.709 181.134 60.51 181.512 61.194C181.908 61.878 182.421 62.4 183.051 62.76C183.699 63.12 184.428 63.3 185.238 63.3ZM189.612 66V62.598L189.747 58.764L189.477 54.93V45.966H192.825V66H189.612ZM203.594 66.189C201.992 66.189 200.588 65.874 199.382 65.244C198.194 64.596 197.267 63.714 196.601 62.598C195.953 61.482 195.629 60.213 195.629 58.791C195.629 57.351 195.944 56.082 196.574 54.984C197.222 53.868 198.104 52.995 199.22 52.365C200.354 51.735 201.641 51.42 203.081 51.42C204.485 51.42 205.736 51.726 206.834 52.338C207.932 52.95 208.796 53.814 209.426 54.93C210.056 56.046 210.371 57.36 210.371 58.872C210.371 59.016 210.362 59.178 210.344 59.358C210.344 59.538 210.335 59.709 210.317 59.871H198.302V57.63H208.535L207.212 58.332C207.23 57.504 207.059 56.775 206.699 56.145C206.339 55.515 205.844 55.02 205.214 54.66C204.602 54.3 203.891 54.12 203.081 54.12C202.253 54.12 201.524 54.3 200.894 54.66C200.282 55.02 199.796 55.524 199.436 56.172C199.094 56.802 198.923 57.549 198.923 58.413V58.953C198.923 59.817 199.121 60.582 199.517 61.248C199.913 61.914 200.471 62.427 201.191 62.787C201.911 63.147 202.739 63.327 203.675 63.327C204.485 63.327 205.214 63.201 205.862 62.949C206.51 62.697 207.086 62.301 207.59 61.761L209.399 63.84C208.751 64.596 207.932 65.181 206.942 65.595C205.97 65.991 204.854 66.189 203.594 66.189ZM226.358 66.27C224.882 66.27 223.469 66.063 222.119 65.649C220.769 65.217 219.698 64.668 218.906 64.002L220.121 61.275C220.877 61.869 221.813 62.364 222.929 62.76C224.045 63.156 225.188 63.354 226.358 63.354C227.348 63.354 228.149 63.246 228.761 63.03C229.373 62.814 229.823 62.526 230.111 62.166C230.399 61.788 230.543 61.365 230.543 60.897C230.543 60.321 230.336 59.862 229.922 59.52C229.508 59.16 228.968 58.881 228.302 58.683C227.654 58.467 226.925 58.269 226.115 58.089C225.323 57.909 224.522 57.702 223.712 57.468C222.92 57.216 222.191 56.901 221.525 56.523C220.877 56.127 220.346 55.605 219.932 54.957C219.518 54.309 219.311 53.481 219.311 52.473C219.311 51.447 219.581 50.511 220.121 49.665C220.679 48.801 221.516 48.117 222.632 47.613C223.766 47.091 225.197 46.83 226.925 46.83C228.059 46.83 229.184 46.974 230.3 47.262C231.416 47.55 232.388 47.964 233.216 48.504L232.109 51.231C231.263 50.727 230.39 50.358 229.49 50.124C228.59 49.872 227.726 49.746 226.898 49.746C225.926 49.746 225.134 49.863 224.522 50.097C223.928 50.331 223.487 50.637 223.199 51.015C222.929 51.393 222.794 51.825 222.794 52.311C222.794 52.887 222.992 53.355 223.388 53.715C223.802 54.057 224.333 54.327 224.981 54.525C225.647 54.723 226.385 54.921 227.195 55.119C228.005 55.299 228.806 55.506 229.598 55.74C230.408 55.974 231.137 56.28 231.785 56.658C232.451 57.036 232.982 57.549 233.378 58.197C233.792 58.845 233.999 59.664 233.999 60.654C233.999 61.662 233.72 62.598 233.162 63.462C232.622 64.308 231.785 64.992 230.651 65.514C229.517 66.018 228.086 66.27 226.358 66.27ZM243.482 66.189C241.88 66.189 240.476 65.874 239.27 65.244C238.082 64.596 237.155 63.714 236.489 62.598C235.841 61.482 235.517 60.213 235.517 58.791C235.517 57.351 235.832 56.082 236.462 54.984C237.11 53.868 237.992 52.995 239.108 52.365C240.242 51.735 241.529 51.42 242.969 51.42C244.373 51.42 245.624 51.726 246.722 52.338C247.82 52.95 248.684 53.814 249.314 54.93C249.944 56.046 250.259 57.36 250.259 58.872C250.259 59.016 250.25 59.178 250.232 59.358C250.232 59.538 250.223 59.709 250.205 59.871H238.19V57.63H248.423L247.1 58.332C247.118 57.504 246.947 56.775 246.587 56.145C246.227 55.515 245.732 55.02 245.102 54.66C244.49 54.3 243.779 54.12 242.969 54.12C242.141 54.12 241.412 54.3 240.782 54.66C240.17 55.02 239.684 55.524 239.324 56.172C238.982 56.802 238.811 57.549 238.811 58.413V58.953C238.811 59.817 239.009 60.582 239.405 61.248C239.801 61.914 240.359 62.427 241.079 62.787C241.799 63.147 242.627 63.327 243.563 63.327C244.373 63.327 245.102 63.201 245.75 62.949C246.398 62.697 246.974 62.301 247.478 61.761L249.287 63.84C248.639 64.596 247.82 65.181 246.83 65.595C245.858 65.991 244.742 66.189 243.482 66.189ZM253.051 66V45.966H256.426V66H253.051ZM267.183 66.189C265.581 66.189 264.177 65.874 262.971 65.244C261.783 64.596 260.856 63.714 260.19 62.598C259.542 61.482 259.218 60.213 259.218 58.791C259.218 57.351 259.533 56.082 260.163 54.984C260.811 53.868 261.693 52.995 262.809 52.365C263.943 51.735 265.23 51.42 266.67 51.42C268.074 51.42 269.325 51.726 270.423 52.338C271.521 52.95 272.385 53.814 273.015 54.93C273.645 56.046 273.96 57.36 273.96 58.872C273.96 59.016 273.951 59.178 273.933 59.358C273.933 59.538 273.924 59.709 273.906 59.871H261.891V57.63H272.124L270.801 58.332C270.819 57.504 270.648 56.775 270.288 56.145C269.928 55.515 269.433 55.02 268.803 54.66C268.191 54.3 267.48 54.12 266.67 54.12C265.842 54.12 265.113 54.3 264.483 54.66C263.871 55.02 263.385 55.524 263.025 56.172C262.683 56.802 262.512 57.549 262.512 58.413V58.953C262.512 59.817 262.71 60.582 263.106 61.248C263.502 61.914 264.06 62.427 264.78 62.787C265.5 63.147 266.328 63.327 267.264 63.327C268.074 63.327 268.803 63.201 269.451 62.949C270.099 62.697 270.675 62.301 271.179 61.761L272.988 63.84C272.34 64.596 271.521 65.181 270.531 65.595C269.559 65.991 268.443 66.189 267.183 66.189ZM283.367 66.189C281.855 66.189 280.505 65.874 279.317 65.244C278.147 64.596 277.229 63.714 276.563 62.598C275.897 61.482 275.564 60.213 275.564 58.791C275.564 57.351 275.897 56.082 276.563 54.984C277.229 53.868 278.147 52.995 279.317 52.365C280.505 51.735 281.855 51.42 283.367 51.42C284.771 51.42 286.004 51.708 287.066 52.284C288.146 52.842 288.965 53.67 289.523 54.768L286.931 56.28C286.499 55.596 285.968 55.092 285.338 54.768C284.726 54.444 284.06 54.282 283.34 54.282C282.512 54.282 281.765 54.462 281.099 54.822C280.433 55.182 279.911 55.704 279.533 56.388C279.155 57.054 278.966 57.855 278.966 58.791C278.966 59.727 279.155 60.537 279.533 61.221C279.911 61.887 280.433 62.4 281.099 62.76C281.765 63.12 282.512 63.3 283.34 63.3C284.06 63.3 284.726 63.138 285.338 62.814C285.968 62.49 286.499 61.986 286.931 61.302L289.523 62.814C288.965 63.894 288.146 64.731 287.066 65.325C286.004 65.901 284.771 66.189 283.367 66.189ZM297.602 66.189C296.018 66.189 294.794 65.784 293.93 64.974C293.066 64.146 292.634 62.931 292.634 61.329V48.396H296.009V61.248C296.009 61.932 296.18 62.463 296.522 62.841C296.882 63.219 297.377 63.408 298.007 63.408C298.763 63.408 299.393 63.21 299.897 62.814L300.842 65.217C300.446 65.541 299.96 65.784 299.384 65.946C298.808 66.108 298.214 66.189 297.602 66.189ZM290.258 54.39V51.69H299.87V54.39H290.258ZM303.168 66V51.582H306.543V66H303.168ZM304.869 49.206C304.239 49.206 303.717 49.008 303.303 48.612C302.907 48.216 302.709 47.739 302.709 47.181C302.709 46.605 302.907 46.128 303.303 45.75C303.717 45.354 304.239 45.156 304.869 45.156C305.499 45.156 306.012 45.345 306.408 45.723C306.822 46.083 307.029 46.542 307.029 47.1C307.029 47.694 306.831 48.198 306.435 48.612C306.039 49.008 305.517 49.206 304.869 49.206ZM317.003 66.189C315.527 66.189 314.213 65.874 313.061 65.244C311.909 64.596 311 63.714 310.334 62.598C309.668 61.482 309.335 60.213 309.335 58.791C309.335 57.351 309.668 56.082 310.334 54.984C311 53.868 311.909 52.995 313.061 52.365C314.213 51.735 315.527 51.42 317.003 51.42C318.497 51.42 319.82 51.735 320.972 52.365C322.142 52.995 323.051 53.859 323.699 54.957C324.365 56.055 324.698 57.333 324.698 58.791C324.698 60.213 324.365 61.482 323.699 62.598C323.051 63.714 322.142 64.596 320.972 65.244C319.82 65.874 318.497 66.189 317.003 66.189ZM317.003 63.3C317.831 63.3 318.569 63.12 319.217 62.76C319.865 62.4 320.369 61.878 320.729 61.194C321.107 60.51 321.296 59.709 321.296 58.791C321.296 57.855 321.107 57.054 320.729 56.388C320.369 55.704 319.865 55.182 319.217 54.822C318.569 54.462 317.84 54.282 317.03 54.282C316.202 54.282 315.464 54.462 314.816 54.822C314.186 55.182 313.682 55.704 313.304 56.388C312.926 57.054 312.737 57.855 312.737 58.791C312.737 59.709 312.926 60.51 313.304 61.194C313.682 61.878 314.186 62.4 314.816 62.76C315.464 63.12 316.193 63.3 317.003 63.3ZM335.656 51.42C336.808 51.42 337.834 51.645 338.734 52.095C339.652 52.545 340.372 53.238 340.894 54.174C341.416 55.092 341.677 56.28 341.677 57.738V66H338.302V58.17C338.302 56.892 337.996 55.938 337.384 55.308C336.79 54.678 335.953 54.363 334.873 54.363C334.081 54.363 333.379 54.525 332.767 54.849C332.155 55.173 331.678 55.659 331.336 56.307C331.012 56.937 330.85 57.738 330.85 58.71V66H327.475V51.582H330.688V55.47L330.121 54.282C330.625 53.364 331.354 52.662 332.308 52.176C333.28 51.672 334.396 51.42 335.656 51.42ZM361.701 66.27C360.225 66.27 358.866 66.027 357.624 65.541C356.382 65.055 355.302 64.38 354.384 63.516C353.466 62.634 352.755 61.608 352.251 60.438C351.747 59.25 351.495 57.954 351.495 56.55C351.495 55.146 351.747 53.859 352.251 52.689C352.755 51.501 353.466 50.475 354.384 49.611C355.302 48.729 356.382 48.045 357.624 47.559C358.866 47.073 360.216 46.83 361.674 46.83C363.15 46.83 364.5 47.073 365.724 47.559C366.966 48.045 368.046 48.729 368.964 49.611C369.882 50.475 370.593 51.501 371.097 52.689C371.601 53.859 371.853 55.146 371.853 56.55C371.853 57.954 371.601 59.25 371.097 60.438C370.593 61.626 369.882 62.652 368.964 63.516C368.046 64.38 366.966 65.055 365.724 65.541C364.5 66.027 363.159 66.27 361.701 66.27ZM361.674 63.192C362.628 63.192 363.51 63.03 364.32 62.706C365.13 62.382 365.832 61.923 366.426 61.329C367.02 60.717 367.479 60.015 367.803 59.223C368.145 58.413 368.316 57.522 368.316 56.55C368.316 55.578 368.145 54.696 367.803 53.904C367.479 53.094 367.02 52.392 366.426 51.798C365.832 51.186 365.13 50.718 364.32 50.394C363.51 50.07 362.628 49.908 361.674 49.908C360.72 49.908 359.838 50.07 359.028 50.394C358.236 50.718 357.534 51.186 356.922 51.798C356.328 52.392 355.86 53.094 355.518 53.904C355.194 54.696 355.032 55.578 355.032 56.55C355.032 57.504 355.194 58.386 355.518 59.196C355.86 60.006 356.328 60.717 356.922 61.329C357.516 61.923 358.218 62.382 359.028 62.706C359.838 63.03 360.72 63.192 361.674 63.192ZM375.258 66V50.772C375.258 49.26 375.699 48.054 376.581 47.154C377.481 46.236 378.759 45.777 380.415 45.777C381.009 45.777 381.567 45.84 382.089 45.966C382.629 46.092 383.079 46.29 383.439 46.56L382.521 49.098C382.269 48.9 381.981 48.756 381.657 48.666C381.333 48.558 381 48.504 380.658 48.504C379.956 48.504 379.425 48.702 379.065 49.098C378.705 49.476 378.525 50.052 378.525 50.826V52.446L378.633 53.958V66H375.258ZM372.882 54.39V51.69H382.494V54.39H372.882ZM397.511 66.27C396.035 66.27 394.622 66.063 393.272 65.649C391.922 65.217 390.851 64.668 390.059 64.002L391.274 61.275C392.03 61.869 392.966 62.364 394.082 62.76C395.198 63.156 396.341 63.354 397.511 63.354C398.501 63.354 399.302 63.246 399.914 63.03C400.526 62.814 400.976 62.526 401.264 62.166C401.552 61.788 401.696 61.365 401.696 60.897C401.696 60.321 401.489 59.862 401.075 59.52C400.661 59.16 400.121 58.881 399.455 58.683C398.807 58.467 398.078 58.269 397.268 58.089C396.476 57.909 395.675 57.702 394.865 57.468C394.073 57.216 393.344 56.901 392.678 56.523C392.03 56.127 391.499 55.605 391.085 54.957C390.671 54.309 390.464 53.481 390.464 52.473C390.464 51.447 390.734 50.511 391.274 49.665C391.832 48.801 392.669 48.117 393.785 47.613C394.919 47.091 396.35 46.83 398.078 46.83C399.212 46.83 400.337 46.974 401.453 47.262C402.569 47.55 403.541 47.964 404.369 48.504L403.262 51.231C402.416 50.727 401.543 50.358 400.643 50.124C399.743 49.872 398.879 49.746 398.051 49.746C397.079 49.746 396.287 49.863 395.675 50.097C395.081 50.331 394.64 50.637 394.352 51.015C394.082 51.393 393.947 51.825 393.947 52.311C393.947 52.887 394.145 53.355 394.541 53.715C394.955 54.057 395.486 54.327 396.134 54.525C396.8 54.723 397.538 54.921 398.348 55.119C399.158 55.299 399.959 55.506 400.751 55.74C401.561 55.974 402.29 56.28 402.938 56.658C403.604 57.036 404.135 57.549 404.531 58.197C404.945 58.845 405.152 59.664 405.152 60.654C405.152 61.662 404.873 62.598 404.315 63.462C403.775 64.308 402.938 64.992 401.804 65.514C400.67 66.018 399.239 66.27 397.511 66.27ZM414.635 66.189C413.033 66.189 411.629 65.874 410.423 65.244C409.235 64.596 408.308 63.714 407.642 62.598C406.994 61.482 406.67 60.213 406.67 58.791C406.67 57.351 406.985 56.082 407.615 54.984C408.263 53.868 409.145 52.995 410.261 52.365C411.395 51.735 412.682 51.42 414.122 51.42C415.526 51.42 416.777 51.726 417.875 52.338C418.973 52.95 419.837 53.814 420.467 54.93C421.097 56.046 421.412 57.36 421.412 58.872C421.412 59.016 421.403 59.178 421.385 59.358C421.385 59.538 421.376 59.709 421.358 59.871H409.343V57.63H419.576L418.253 58.332C418.271 57.504 418.1 56.775 417.74 56.145C417.38 55.515 416.885 55.02 416.255 54.66C415.643 54.3 414.932 54.12 414.122 54.12C413.294 54.12 412.565 54.3 411.935 54.66C411.323 55.02 410.837 55.524 410.477 56.172C410.135 56.802 409.964 57.549 409.964 58.413V58.953C409.964 59.817 410.162 60.582 410.558 61.248C410.954 61.914 411.512 62.427 412.232 62.787C412.952 63.147 413.78 63.327 414.716 63.327C415.526 63.327 416.255 63.201 416.903 62.949C417.551 62.697 418.127 62.301 418.631 61.761L420.44 63.84C419.792 64.596 418.973 65.181 417.983 65.595C417.011 65.991 415.895 66.189 414.635 66.189ZM424.204 66V51.582H427.417V55.551L427.039 54.39C427.471 53.418 428.146 52.68 429.064 52.176C430 51.672 431.161 51.42 432.547 51.42V54.633C432.403 54.597 432.268 54.579 432.142 54.579C432.016 54.561 431.89 54.552 431.764 54.552C430.486 54.552 429.469 54.93 428.713 55.686C427.957 56.424 427.579 57.531 427.579 59.007V66H424.204ZM439.322 66L433.139 51.582H436.649L441.968 64.299H440.24L445.748 51.582H448.988L442.805 66H439.322ZM450.647 66V51.582H454.022V66H450.647ZM452.348 49.206C451.718 49.206 451.196 49.008 450.782 48.612C450.386 48.216 450.188 47.739 450.188 47.181C450.188 46.605 450.386 46.128 450.782 45.75C451.196 45.354 451.718 45.156 452.348 45.156C452.978 45.156 453.491 45.345 453.887 45.723C454.301 46.083 454.508 46.542 454.508 47.1C454.508 47.694 454.31 48.198 453.914 48.612C453.518 49.008 452.996 49.206 452.348 49.206ZM464.617 66.189C463.105 66.189 461.755 65.874 460.567 65.244C459.397 64.596 458.479 63.714 457.813 62.598C457.147 61.482 456.814 60.213 456.814 58.791C456.814 57.351 457.147 56.082 457.813 54.984C458.479 53.868 459.397 52.995 460.567 52.365C461.755 51.735 463.105 51.42 464.617 51.42C466.021 51.42 467.254 51.708 468.316 52.284C469.396 52.842 470.215 53.67 470.773 54.768L468.181 56.28C467.749 55.596 467.218 55.092 466.588 54.768C465.976 54.444 465.31 54.282 464.59 54.282C463.762 54.282 463.015 54.462 462.349 54.822C461.683 55.182 461.161 55.704 460.783 56.388C460.405 57.054 460.216 57.855 460.216 58.791C460.216 59.727 460.405 60.537 460.783 61.221C461.161 61.887 461.683 62.4 462.349 62.76C463.015 63.12 463.762 63.3 464.59 63.3C465.31 63.3 465.976 63.138 466.588 62.814C467.218 62.49 467.749 61.986 468.181 61.302L470.773 62.814C470.215 63.894 469.396 64.731 468.316 65.325C467.254 65.901 466.021 66.189 464.617 66.189ZM479.806 66.189C478.204 66.189 476.8 65.874 475.594 65.244C474.406 64.596 473.479 63.714 472.813 62.598C472.165 61.482 471.841 60.213 471.841 58.791C471.841 57.351 472.156 56.082 472.786 54.984C473.434 53.868 474.316 52.995 475.432 52.365C476.566 51.735 477.853 51.42 479.293 51.42C480.697 51.42 481.948 51.726 483.046 52.338C484.144 52.95 485.008 53.814 485.638 54.93C486.268 56.046 486.583 57.36 486.583 58.872C486.583 59.016 486.574 59.178 486.556 59.358C486.556 59.538 486.547 59.709 486.529 59.871H474.514V57.63H484.747L483.424 58.332C483.442 57.504 483.271 56.775 482.911 56.145C482.551 55.515 482.056 55.02 481.426 54.66C480.814 54.3 480.103 54.12 479.293 54.12C478.465 54.12 477.736 54.3 477.106 54.66C476.494 55.02 476.008 55.524 475.648 56.172C475.306 56.802 475.135 57.549 475.135 58.413V58.953C475.135 59.817 475.333 60.582 475.729 61.248C476.125 61.914 476.683 62.427 477.403 62.787C478.123 63.147 478.951 63.327 479.887 63.327C480.697 63.327 481.426 63.201 482.074 62.949C482.722 62.697 483.298 62.301 483.802 61.761L485.611 63.84C484.963 64.596 484.144 65.181 483.154 65.595C482.182 65.991 481.066 66.189 479.806 66.189ZM496.711 66V47.1H504.487C506.161 47.1 507.592 47.37 508.78 47.91C509.986 48.45 510.913 49.224 511.561 50.232C512.209 51.24 512.533 52.437 512.533 53.823C512.533 55.209 512.209 56.406 511.561 57.414C510.913 58.422 509.986 59.196 508.78 59.736C507.592 60.276 506.161 60.546 504.487 60.546H498.655L500.221 58.899V66H496.711ZM500.221 59.277L498.655 57.576H504.325C505.873 57.576 507.034 57.252 507.808 56.604C508.6 55.938 508.996 55.011 508.996 53.823C508.996 52.617 508.6 51.69 507.808 51.042C507.034 50.394 505.873 50.07 504.325 50.07H498.655L500.221 48.342V59.277ZM524.015 66V63.084L523.826 62.463V57.36C523.826 56.37 523.529 55.605 522.935 55.065C522.341 54.507 521.441 54.228 520.235 54.228C519.425 54.228 518.624 54.354 517.832 54.606C517.058 54.858 516.401 55.209 515.861 55.659L514.538 53.202C515.312 52.608 516.23 52.167 517.292 51.879C518.372 51.573 519.488 51.42 520.64 51.42C522.728 51.42 524.339 51.924 525.473 52.932C526.625 53.922 527.201 55.461 527.201 57.549V66H524.015ZM519.479 66.189C518.399 66.189 517.454 66.009 516.644 65.649C515.834 65.271 515.204 64.758 514.754 64.11C514.322 63.444 514.106 62.697 514.106 61.869C514.106 61.059 514.295 60.33 514.673 59.682C515.069 59.034 515.708 58.521 516.59 58.143C517.472 57.765 518.642 57.576 520.1 57.576H524.285V59.817H520.343C519.191 59.817 518.417 60.006 518.021 60.384C517.625 60.744 517.427 61.194 517.427 61.734C517.427 62.346 517.67 62.832 518.156 63.192C518.642 63.552 519.317 63.732 520.181 63.732C521.009 63.732 521.747 63.543 522.395 63.165C523.061 62.787 523.538 62.229 523.826 61.491L524.393 63.516C524.069 64.362 523.484 65.019 522.638 65.487C521.81 65.955 520.757 66.189 519.479 66.189ZM531.083 66V51.582H534.296V55.551L533.918 54.39C534.35 53.418 535.025 52.68 535.943 52.176C536.879 51.672 538.04 51.42 539.426 51.42V54.633C539.282 54.597 539.147 54.579 539.021 54.579C538.895 54.561 538.769 54.552 538.643 54.552C537.365 54.552 536.348 54.93 535.592 55.686C534.836 56.424 534.458 57.531 534.458 59.007V66H531.083ZM547.793 66.189C546.209 66.189 544.985 65.784 544.121 64.974C543.257 64.146 542.825 62.931 542.825 61.329V48.396H546.2V61.248C546.2 61.932 546.371 62.463 546.713 62.841C547.073 63.219 547.568 63.408 548.198 63.408C548.954 63.408 549.584 63.21 550.088 62.814L551.033 65.217C550.637 65.541 550.151 65.784 549.575 65.946C548.999 66.108 548.405 66.189 547.793 66.189ZM540.449 54.39V51.69H550.061V54.39H540.449ZM561.541 51.42C562.693 51.42 563.719 51.645 564.619 52.095C565.537 52.545 566.257 53.238 566.779 54.174C567.301 55.092 567.562 56.28 567.562 57.738V66H564.187V58.17C564.187 56.892 563.881 55.938 563.269 55.308C562.675 54.678 561.838 54.363 560.758 54.363C559.966 54.363 559.264 54.525 558.652 54.849C558.04 55.173 557.563 55.659 557.221 56.307C556.897 56.937 556.735 57.738 556.735 58.71V66H553.36V51.582H556.573V55.47L556.006 54.282C556.51 53.364 557.239 52.662 558.193 52.176C559.165 51.672 560.281 51.42 561.541 51.42ZM578.196 66.189C576.594 66.189 575.19 65.874 573.984 65.244C572.796 64.596 571.869 63.714 571.203 62.598C570.555 61.482 570.231 60.213 570.231 58.791C570.231 57.351 570.546 56.082 571.176 54.984C571.824 53.868 572.706 52.995 573.822 52.365C574.956 51.735 576.243 51.42 577.683 51.42C579.087 51.42 580.338 51.726 581.436 52.338C582.534 52.95 583.398 53.814 584.028 54.93C584.658 56.046 584.973 57.36 584.973 58.872C584.973 59.016 584.964 59.178 584.946 59.358C584.946 59.538 584.937 59.709 584.919 59.871H572.904V57.63H583.137L581.814 58.332C581.832 57.504 581.661 56.775 581.301 56.145C580.941 55.515 580.446 55.02 579.816 54.66C579.204 54.3 578.493 54.12 577.683 54.12C576.855 54.12 576.126 54.3 575.496 54.66C574.884 55.02 574.398 55.524 574.038 56.172C573.696 56.802 573.525 57.549 573.525 58.413V58.953C573.525 59.817 573.723 60.582 574.119 61.248C574.515 61.914 575.073 62.427 575.793 62.787C576.513 63.147 577.341 63.327 578.277 63.327C579.087 63.327 579.816 63.201 580.464 62.949C581.112 62.697 581.688 62.301 582.192 61.761L584.001 63.84C583.353 64.596 582.534 65.181 581.544 65.595C580.572 65.991 579.456 66.189 578.196 66.189ZM587.765 66V51.582H590.978V55.551L590.6 54.39C591.032 53.418 591.707 52.68 592.625 52.176C593.561 51.672 594.722 51.42 596.108 51.42V54.633C595.964 54.597 595.829 54.579 595.703 54.579C595.577 54.561 595.451 54.552 595.325 54.552C594.047 54.552 593.03 54.93 592.274 55.686C591.518 56.424 591.14 57.531 591.14 59.007V66H587.765ZM603.108 66.189C601.902 66.189 600.741 66.036 599.625 65.73C598.527 65.406 597.654 65.019 597.006 64.569L598.302 62.004C598.95 62.418 599.724 62.76 600.624 63.03C601.524 63.3 602.424 63.435 603.324 63.435C604.386 63.435 605.151 63.291 605.619 63.003C606.105 62.715 606.348 62.328 606.348 61.842C606.348 61.446 606.186 61.149 605.862 60.951C605.538 60.735 605.115 60.573 604.593 60.465C604.071 60.357 603.486 60.258 602.838 60.168C602.208 60.078 601.569 59.961 600.921 59.817C600.291 59.655 599.715 59.43 599.193 59.142C598.671 58.836 598.248 58.431 597.924 57.927C597.6 57.423 597.438 56.757 597.438 55.929C597.438 55.011 597.699 54.219 598.221 53.553C598.743 52.869 599.472 52.347 600.408 51.987C601.362 51.609 602.487 51.42 603.783 51.42C604.755 51.42 605.736 51.528 606.726 51.744C607.716 51.96 608.535 52.266 609.183 52.662L607.887 55.227C607.203 54.813 606.51 54.534 605.808 54.39C605.124 54.228 604.44 54.147 603.756 54.147C602.73 54.147 601.965 54.3 601.461 54.606C600.975 54.912 600.732 55.299 600.732 55.767C600.732 56.199 600.894 56.523 601.218 56.739C601.542 56.955 601.965 57.126 602.487 57.252C603.009 57.378 603.585 57.486 604.215 57.576C604.863 57.648 605.502 57.765 606.132 57.927C606.762 58.089 607.338 58.314 607.86 58.602C608.4 58.872 608.832 59.259 609.156 59.763C609.48 60.267 609.642 60.924 609.642 61.734C609.642 62.634 609.372 63.417 608.832 64.083C608.31 64.749 607.563 65.271 606.591 65.649C605.619 66.009 604.458 66.189 603.108 66.189Z" fill="white"/>
<path d="M155.18 97.72V99H145.28V85H154.88V86.28H146.76V91.26H154V92.52H146.76V97.72H155.18ZM164.766 99L161.426 94.6L158.066 99H156.466L160.626 93.6L156.666 88.48H158.266L161.426 92.6L164.586 88.48H166.146L162.186 93.6L166.386 99H164.766ZM174.17 88.4C175.156 88.4 176.05 88.6267 176.85 89.08C177.65 89.52 178.276 90.1467 178.73 90.96C179.183 91.7733 179.41 92.7 179.41 93.74C179.41 94.7933 179.183 95.7267 178.73 96.54C178.276 97.3533 177.65 97.9867 176.85 98.44C176.063 98.88 175.17 99.1 174.17 99.1C173.316 99.1 172.543 98.9267 171.85 98.58C171.17 98.22 170.61 97.7 170.17 97.02V102.88H168.75V88.48H170.11V90.56C170.536 89.8667 171.096 89.3333 171.79 88.96C172.496 88.5867 173.29 88.4 174.17 88.4ZM174.07 97.84C174.803 97.84 175.47 97.6733 176.07 97.34C176.67 96.9933 177.136 96.5067 177.47 95.88C177.816 95.2533 177.99 94.54 177.99 93.74C177.99 92.94 177.816 92.2333 177.47 91.62C177.136 90.9933 176.67 90.5067 176.07 90.16C175.47 89.8133 174.803 89.64 174.07 89.64C173.323 89.64 172.65 89.8133 172.05 90.16C171.463 90.5067 170.996 90.9933 170.65 91.62C170.316 92.2333 170.15 92.94 170.15 93.74C170.15 94.54 170.316 95.2533 170.65 95.88C170.996 96.5067 171.463 96.9933 172.05 97.34C172.65 97.6733 173.323 97.84 174.07 97.84ZM182.304 84.16H183.724V99H182.304V84.16ZM191.975 99.1C190.962 99.1 190.049 98.8733 189.235 98.42C188.422 97.9533 187.782 97.3133 187.315 96.5C186.849 95.6867 186.615 94.7667 186.615 93.74C186.615 92.7133 186.849 91.7933 187.315 90.98C187.782 90.1667 188.422 89.5333 189.235 89.08C190.049 88.6267 190.962 88.4 191.975 88.4C192.989 88.4 193.902 88.6267 194.715 89.08C195.529 89.5333 196.162 90.1667 196.615 90.98C197.082 91.7933 197.315 92.7133 197.315 93.74C197.315 94.7667 197.082 95.6867 196.615 96.5C196.162 97.3133 195.529 97.9533 194.715 98.42C193.902 98.8733 192.989 99.1 191.975 99.1ZM191.975 97.84C192.722 97.84 193.389 97.6733 193.975 97.34C194.575 96.9933 195.042 96.5067 195.375 95.88C195.709 95.2533 195.875 94.54 195.875 93.74C195.875 92.94 195.709 92.2267 195.375 91.6C195.042 90.9733 194.575 90.4933 193.975 90.16C193.389 89.8133 192.722 89.64 191.975 89.64C191.229 89.64 190.555 89.8133 189.955 90.16C189.369 90.4933 188.902 90.9733 188.555 91.6C188.222 92.2267 188.055 92.94 188.055 93.74C188.055 94.54 188.222 95.2533 188.555 95.88C188.902 96.5067 189.369 96.9933 189.955 97.34C190.555 97.6733 191.229 97.84 191.975 97.84ZM201.574 90.54C201.908 89.8333 202.401 89.3 203.054 88.94C203.721 88.58 204.541 88.4 205.514 88.4V89.78L205.174 89.76C204.068 89.76 203.201 90.1 202.574 90.78C201.948 91.46 201.634 92.4133 201.634 93.64V99H200.214V88.48H201.574V90.54ZM217.148 94.18H208.348C208.428 95.2733 208.848 96.16 209.608 96.84C210.368 97.5067 211.328 97.84 212.488 97.84C213.141 97.84 213.741 97.7267 214.288 97.5C214.834 97.26 215.308 96.9133 215.708 96.46L216.508 97.38C216.041 97.94 215.454 98.3667 214.748 98.66C214.054 98.9533 213.288 99.1 212.448 99.1C211.368 99.1 210.408 98.8733 209.568 98.42C208.741 97.9533 208.094 97.3133 207.628 96.5C207.161 95.6867 206.928 94.7667 206.928 93.74C206.928 92.7133 207.148 91.7933 207.588 90.98C208.041 90.1667 208.654 89.5333 209.428 89.08C210.214 88.6267 211.094 88.4 212.068 88.4C213.041 88.4 213.914 88.6267 214.688 89.08C215.461 89.5333 216.068 90.1667 216.508 90.98C216.948 91.78 217.168 92.7 217.168 93.74L217.148 94.18ZM212.068 89.62C211.054 89.62 210.201 89.9467 209.508 90.6C208.828 91.24 208.441 92.08 208.348 93.12H215.808C215.714 92.08 215.321 91.24 214.628 90.6C213.948 89.9467 213.094 89.62 212.068 89.62ZM228.973 88.4C230.346 88.4 231.399 88.7467 232.133 89.44C232.866 90.12 233.233 91.1333 233.233 92.48V99H231.873V97.36C231.553 97.9067 231.079 98.3333 230.453 98.64C229.839 98.9467 229.106 99.1 228.253 99.1C227.079 99.1 226.146 98.82 225.453 98.26C224.759 97.7 224.413 96.96 224.413 96.04C224.413 95.1467 224.733 94.4267 225.373 93.88C226.026 93.3333 227.059 93.06 228.473 93.06H231.813V92.42C231.813 91.5133 231.559 90.8267 231.053 90.36C230.546 89.88 229.806 89.64 228.833 89.64C228.166 89.64 227.526 89.7533 226.913 89.98C226.299 90.1933 225.773 90.4933 225.333 90.88L224.693 89.82C225.226 89.3667 225.866 89.02 226.613 88.78C227.359 88.5267 228.146 88.4 228.973 88.4ZM228.473 97.98C229.273 97.98 229.959 97.8 230.533 97.44C231.106 97.0667 231.533 96.5333 231.813 95.84V94.12H228.513C226.713 94.12 225.812 94.7467 225.812 96C225.812 96.6133 226.046 97.1 226.513 97.46C226.979 97.8067 227.633 97.98 228.473 97.98ZM257.764 88.48L253.784 99H252.444L249.124 90.38L245.804 99H244.464L240.504 88.48H241.864L245.164 97.42L248.544 88.48H249.764L253.124 97.42L256.464 88.48H257.764ZM259.902 88.48H261.322V99H259.902V88.48ZM260.622 86.18C260.329 86.18 260.082 86.08 259.882 85.88C259.682 85.68 259.582 85.44 259.582 85.16C259.582 84.8933 259.682 84.66 259.882 84.46C260.082 84.26 260.329 84.16 260.622 84.16C260.915 84.16 261.162 84.26 261.362 84.46C261.562 84.6467 261.662 84.8733 261.662 85.14C261.662 85.4333 261.562 85.68 261.362 85.88C261.162 86.08 260.915 86.18 260.622 86.18ZM274.873 84.16V99H273.513V96.92C273.086 97.6267 272.52 98.1667 271.813 98.54C271.12 98.9133 270.333 99.1 269.453 99.1C268.466 99.1 267.573 98.8733 266.773 98.42C265.973 97.9667 265.346 97.3333 264.893 96.52C264.44 95.7067 264.213 94.78 264.213 93.74C264.213 92.7 264.44 91.7733 264.893 90.96C265.346 90.1467 265.973 89.52 266.773 89.08C267.573 88.6267 268.466 88.4 269.453 88.4C270.306 88.4 271.073 88.58 271.753 88.94C272.446 89.2867 273.013 89.8 273.453 90.48V84.16H274.873ZM269.573 97.84C270.306 97.84 270.966 97.6733 271.553 97.34C272.153 96.9933 272.62 96.5067 272.953 95.88C273.3 95.2533 273.473 94.54 273.473 93.74C273.473 92.94 273.3 92.2267 272.953 91.6C272.62 90.9733 272.153 90.4933 271.553 90.16C270.966 89.8133 270.306 89.64 269.573 89.64C268.826 89.64 268.153 89.8133 267.553 90.16C266.966 90.4933 266.5 90.9733 266.153 91.6C265.82 92.2267 265.653 92.94 265.653 93.74C265.653 94.54 265.82 95.2533 266.153 95.88C266.5 96.5067 266.966 96.9933 267.553 97.34C268.153 97.6733 268.826 97.84 269.573 97.84ZM287.988 94.18H279.188C279.268 95.2733 279.688 96.16 280.448 96.84C281.208 97.5067 282.168 97.84 283.328 97.84C283.981 97.84 284.581 97.7267 285.128 97.5C285.674 97.26 286.148 96.9133 286.548 96.46L287.348 97.38C286.881 97.94 286.294 98.3667 285.588 98.66C284.894 98.9533 284.128 99.1 283.288 99.1C282.208 99.1 281.248 98.8733 280.408 98.42C279.581 97.9533 278.934 97.3133 278.468 96.5C278.001 95.6867 277.768 94.7667 277.768 93.74C277.768 92.7133 277.988 91.7933 278.428 90.98C278.881 90.1667 279.494 89.5333 280.268 89.08C281.054 88.6267 281.934 88.4 282.908 88.4C283.881 88.4 284.754 88.6267 285.528 89.08C286.301 89.5333 286.908 90.1667 287.348 90.98C287.788 91.78 288.008 92.7 288.008 93.74L287.988 94.18ZM282.908 89.62C281.894 89.62 281.041 89.9467 280.348 90.6C279.668 91.24 279.281 92.08 279.188 93.12H286.648C286.554 92.08 286.161 91.24 285.468 90.6C284.788 89.9467 283.934 89.62 282.908 89.62ZM297.492 90.54C297.826 89.8333 298.319 89.3 298.972 88.94C299.639 88.58 300.459 88.4 301.432 88.4V89.78L301.092 89.76C299.986 89.76 299.119 90.1 298.492 90.78C297.866 91.46 297.552 92.4133 297.552 93.64V99H296.132V88.48H297.492V90.54ZM307.664 88.4C309.037 88.4 310.091 88.7467 310.824 89.44C311.557 90.12 311.924 91.1333 311.924 92.48V99H310.564V97.36C310.244 97.9067 309.771 98.3333 309.144 98.64C308.531 98.9467 307.797 99.1 306.944 99.1C305.771 99.1 304.837 98.82 304.144 98.26C303.451 97.7 303.104 96.96 303.104 96.04C303.104 95.1467 303.424 94.4267 304.064 93.88C304.717 93.3333 305.751 93.06 307.164 93.06H310.504V92.42C310.504 91.5133 310.251 90.8267 309.744 90.36C309.237 89.88 308.497 89.64 307.524 89.64C306.857 89.64 306.217 89.7533 305.604 89.98C304.991 90.1933 304.464 90.4933 304.024 90.88L303.384 89.82C303.917 89.3667 304.557 89.02 305.304 88.78C306.051 88.5267 306.837 88.4 307.664 88.4ZM307.164 97.98C307.964 97.98 308.651 97.8 309.224 97.44C309.797 97.0667 310.224 96.5333 310.504 95.84V94.12H307.204C305.404 94.12 304.504 94.7467 304.504 96C304.504 96.6133 304.737 97.1 305.204 97.46C305.671 97.8067 306.324 97.98 307.164 97.98ZM321.141 88.4C322.461 88.4 323.507 88.7867 324.281 89.56C325.067 90.32 325.461 91.4333 325.461 92.9V99H324.041V93.04C324.041 91.9467 323.767 91.1133 323.221 90.54C322.674 89.9667 321.894 89.68 320.881 89.68C319.747 89.68 318.847 90.02 318.181 90.7C317.527 91.3667 317.201 92.2933 317.201 93.48V99H315.781V88.48H317.141V90.42C317.527 89.78 318.061 89.2867 318.741 88.94C319.434 88.58 320.234 88.4 321.141 88.4ZM339.095 88.48V97.72C339.095 99.5067 338.655 100.827 337.775 101.68C336.908 102.547 335.595 102.98 333.835 102.98C332.862 102.98 331.935 102.833 331.055 102.54C330.188 102.26 329.482 101.867 328.935 101.36L329.655 100.28C330.162 100.733 330.775 101.087 331.495 101.34C332.228 101.593 332.995 101.72 333.795 101.72C335.128 101.72 336.108 101.407 336.735 100.78C337.362 100.167 337.675 99.2067 337.675 97.9V96.56C337.235 97.2267 336.655 97.7333 335.935 98.08C335.228 98.4267 334.442 98.6 333.575 98.6C332.588 98.6 331.688 98.3867 330.875 97.96C330.075 97.52 329.442 96.9133 328.975 96.14C328.522 95.3533 328.295 94.4667 328.295 93.48C328.295 92.4933 328.522 91.6133 328.975 90.84C329.442 90.0667 330.075 89.4667 330.875 89.04C331.675 88.6133 332.575 88.4 333.575 88.4C334.468 88.4 335.275 88.58 335.995 88.94C336.715 89.3 337.295 89.82 337.735 90.5V88.48H339.095ZM333.715 97.34C334.475 97.34 335.162 97.18 335.775 96.86C336.388 96.5267 336.862 96.0667 337.195 95.48C337.542 94.8933 337.715 94.2267 337.715 93.48C337.715 92.7333 337.542 92.0733 337.195 91.5C336.862 90.9133 336.388 90.46 335.775 90.14C335.175 89.8067 334.488 89.64 333.715 89.64C332.955 89.64 332.268 89.8 331.655 90.12C331.055 90.44 330.582 90.8933 330.235 91.48C329.902 92.0667 329.735 92.7333 329.735 93.48C329.735 94.2267 329.902 94.8933 330.235 95.48C330.582 96.0667 331.055 96.5267 331.655 96.86C332.268 97.18 332.955 97.34 333.715 97.34ZM352.226 94.18H343.426C343.506 95.2733 343.926 96.16 344.686 96.84C345.446 97.5067 346.406 97.84 347.566 97.84C348.219 97.84 348.819 97.7267 349.366 97.5C349.913 97.26 350.386 96.9133 350.786 96.46L351.586 97.38C351.119 97.94 350.533 98.3667 349.826 98.66C349.133 98.9533 348.366 99.1 347.526 99.1C346.446 99.1 345.486 98.8733 344.646 98.42C343.819 97.9533 343.173 97.3133 342.706 96.5C342.239 95.6867 342.006 94.7667 342.006 93.74C342.006 92.7133 342.226 91.7933 342.666 90.98C343.119 90.1667 343.733 89.5333 344.506 89.08C345.293 88.6267 346.173 88.4 347.146 88.4C348.119 88.4 348.993 88.6267 349.766 89.08C350.539 89.5333 351.146 90.1667 351.586 90.98C352.026 91.78 352.246 92.7 352.246 93.74L352.226 94.18ZM347.146 89.62C346.133 89.62 345.279 89.9467 344.586 90.6C343.906 91.24 343.519 92.08 343.426 93.12H350.886C350.793 92.08 350.399 91.24 349.706 90.6C349.026 89.9467 348.173 89.62 347.146 89.62ZM364.671 99.1C363.657 99.1 362.744 98.8733 361.931 98.42C361.117 97.9533 360.477 97.3133 360.011 96.5C359.544 95.6867 359.311 94.7667 359.311 93.74C359.311 92.7133 359.544 91.7933 360.011 90.98C360.477 90.1667 361.117 89.5333 361.931 89.08C362.744 88.6267 363.657 88.4 364.671 88.4C365.684 88.4 366.597 88.6267 367.411 89.08C368.224 89.5333 368.857 90.1667 369.311 90.98C369.777 91.7933 370.011 92.7133 370.011 93.74C370.011 94.7667 369.777 95.6867 369.311 96.5C368.857 97.3133 368.224 97.9533 367.411 98.42C366.597 98.8733 365.684 99.1 364.671 99.1ZM364.671 97.84C365.417 97.84 366.084 97.6733 366.671 97.34C367.271 96.9933 367.737 96.5067 368.071 95.88C368.404 95.2533 368.571 94.54 368.571 93.74C368.571 92.94 368.404 92.2267 368.071 91.6C367.737 90.9733 367.271 90.4933 366.671 90.16C366.084 89.8133 365.417 89.64 364.671 89.64C363.924 89.64 363.251 89.8133 362.651 90.16C362.064 90.4933 361.597 90.9733 361.251 91.6C360.917 92.2267 360.751 92.94 360.751 93.74C360.751 94.54 360.917 95.2533 361.251 95.88C361.597 96.5067 362.064 96.9933 362.651 97.34C363.251 97.6733 363.924 97.84 364.671 97.84ZM376.39 85.26C375.776 85.26 375.31 85.4267 374.99 85.76C374.683 86.0933 374.53 86.5867 374.53 87.24V88.48H377.77V89.68H374.57V99H373.15V89.68H371.27V88.48H373.15V87.18C373.15 86.22 373.423 85.46 373.97 84.9C374.53 84.34 375.316 84.06 376.33 84.06C376.73 84.06 377.116 84.12 377.49 84.24C377.863 84.3467 378.176 84.5067 378.43 84.72L377.95 85.78C377.536 85.4333 377.016 85.26 376.39 85.26ZM390.461 98.36C390.195 98.6 389.861 98.7867 389.461 98.92C389.075 99.04 388.668 99.1 388.241 99.1C387.255 99.1 386.495 98.8333 385.961 98.3C385.428 97.7667 385.161 97.0133 385.161 96.04V89.68H383.281V88.48H385.161V86.18H386.581V88.48H389.781V89.68H386.581V95.96C386.581 96.5867 386.735 97.0667 387.041 97.4C387.361 97.72 387.815 97.88 388.401 97.88C388.695 97.88 388.975 97.8333 389.241 97.74C389.521 97.6467 389.761 97.5133 389.961 97.34L390.461 98.36ZM394.406 90.54C394.74 89.8333 395.233 89.3 395.886 88.94C396.553 88.58 397.373 88.4 398.346 88.4V89.78L398.006 89.76C396.9 89.76 396.033 90.1 395.406 90.78C394.78 91.46 394.466 92.4133 394.466 93.64V99H393.046V88.48H394.406V90.54ZM410.554 88.48V99H409.194V97.08C408.82 97.72 408.307 98.22 407.654 98.58C407 98.9267 406.254 99.1 405.414 99.1C404.04 99.1 402.954 98.72 402.154 97.96C401.367 97.1867 400.974 96.06 400.974 94.58V88.48H402.394V94.44C402.394 95.5467 402.667 96.3867 403.214 96.96C403.76 97.5333 404.54 97.82 405.554 97.82C406.66 97.82 407.534 97.4867 408.174 96.82C408.814 96.14 409.134 95.2 409.134 94V88.48H410.554ZM417.351 99.1C416.497 99.1 415.677 98.98 414.891 98.74C414.117 98.4867 413.511 98.1733 413.071 97.8L413.711 96.68C414.151 97.0267 414.704 97.3133 415.371 97.54C416.037 97.7533 416.731 97.86 417.451 97.86C418.411 97.86 419.117 97.7133 419.571 97.42C420.037 97.1133 420.271 96.6867 420.271 96.14C420.271 95.7533 420.144 95.4533 419.891 95.24C419.637 95.0133 419.317 94.8467 418.931 94.74C418.544 94.62 418.031 94.5067 417.391 94.4C416.537 94.24 415.851 94.08 415.331 93.92C414.811 93.7467 414.364 93.46 413.991 93.06C413.631 92.66 413.451 92.1067 413.451 91.4C413.451 90.52 413.817 89.8 414.551 89.24C415.284 88.68 416.304 88.4 417.611 88.4C418.291 88.4 418.971 88.4933 419.651 88.68C420.331 88.8533 420.891 89.0867 421.331 89.38L420.711 90.52C419.844 89.92 418.811 89.62 417.611 89.62C416.704 89.62 416.017 89.78 415.551 90.1C415.097 90.42 414.871 90.84 414.871 91.36C414.871 91.76 414.997 92.08 415.251 92.32C415.517 92.56 415.844 92.74 416.231 92.86C416.617 92.9667 417.151 93.08 417.831 93.2C418.671 93.36 419.344 93.52 419.851 93.68C420.357 93.84 420.791 94.1133 421.151 94.5C421.511 94.8867 421.691 95.42 421.691 96.1C421.691 97.02 421.304 97.7533 420.531 98.3C419.771 98.8333 418.711 99.1 417.351 99.1ZM429.856 98.36C429.589 98.6 429.256 98.7867 428.856 98.92C428.469 99.04 428.063 99.1 427.636 99.1C426.649 99.1 425.889 98.8333 425.356 98.3C424.823 97.7667 424.556 97.0133 424.556 96.04V89.68H422.676V88.48H424.556V86.18H425.976V88.48H429.176V89.68H425.976V95.96C425.976 96.5867 426.129 97.0667 426.436 97.4C426.756 97.72 427.209 97.88 427.796 97.88C428.089 97.88 428.369 97.8333 428.636 97.74C428.916 97.6467 429.156 97.5133 429.356 97.34L429.856 98.36ZM441.23 94.18H432.43C432.51 95.2733 432.93 96.16 433.69 96.84C434.45 97.5067 435.41 97.84 436.57 97.84C437.223 97.84 437.823 97.7267 438.37 97.5C438.917 97.26 439.39 96.9133 439.79 96.46L440.59 97.38C440.123 97.94 439.537 98.3667 438.83 98.66C438.137 98.9533 437.37 99.1 436.53 99.1C435.45 99.1 434.49 98.8733 433.65 98.42C432.823 97.9533 432.177 97.3133 431.71 96.5C431.243 95.6867 431.01 94.7667 431.01 93.74C431.01 92.7133 431.23 91.7933 431.67 90.98C432.123 90.1667 432.737 89.5333 433.51 89.08C434.297 88.6267 435.177 88.4 436.15 88.4C437.123 88.4 437.997 88.6267 438.77 89.08C439.543 89.5333 440.15 90.1667 440.59 90.98C441.03 91.78 441.25 92.7 441.25 93.74L441.23 94.18ZM436.15 89.62C435.137 89.62 434.283 89.9467 433.59 90.6C432.91 91.24 432.523 92.08 432.43 93.12H439.89C439.797 92.08 439.403 91.24 438.71 90.6C438.03 89.9467 437.177 89.62 436.15 89.62ZM453.74 84.16V99H452.38V96.92C451.953 97.6267 451.387 98.1667 450.68 98.54C449.987 98.9133 449.2 99.1 448.32 99.1C447.333 99.1 446.44 98.8733 445.64 98.42C444.84 97.9667 444.213 97.3333 443.76 96.52C443.307 95.7067 443.08 94.78 443.08 93.74C443.08 92.7 443.307 91.7733 443.76 90.96C444.213 90.1467 444.84 89.52 445.64 89.08C446.44 88.6267 447.333 88.4 448.32 88.4C449.173 88.4 449.94 88.58 450.62 88.94C451.313 89.2867 451.88 89.8 452.32 90.48V84.16H453.74ZM448.44 97.84C449.173 97.84 449.833 97.6733 450.42 97.34C451.02 96.9933 451.487 96.5067 451.82 95.88C452.167 95.2533 452.34 94.54 452.34 93.74C452.34 92.94 452.167 92.2267 451.82 91.6C451.487 90.9733 451.02 90.4933 450.42 90.16C449.833 89.8133 449.173 89.64 448.44 89.64C447.693 89.64 447.02 89.8133 446.42 90.16C445.833 90.4933 445.367 90.9733 445.02 91.6C444.687 92.2267 444.52 92.94 444.52 93.74C444.52 94.54 444.687 95.2533 445.02 95.88C445.367 96.5067 445.833 96.9933 446.42 97.34C447.02 97.6733 447.693 97.84 448.44 97.84ZM465.749 99.1C464.896 99.1 464.076 98.98 463.289 98.74C462.516 98.4867 461.909 98.1733 461.469 97.8L462.109 96.68C462.549 97.0267 463.103 97.3133 463.769 97.54C464.436 97.7533 465.129 97.86 465.849 97.86C466.809 97.86 467.516 97.7133 467.969 97.42C468.436 97.1133 468.669 96.6867 468.669 96.14C468.669 95.7533 468.543 95.4533 468.289 95.24C468.036 95.0133 467.716 94.8467 467.329 94.74C466.943 94.62 466.429 94.5067 465.789 94.4C464.936 94.24 464.249 94.08 463.729 93.92C463.209 93.7467 462.763 93.46 462.389 93.06C462.029 92.66 461.849 92.1067 461.849 91.4C461.849 90.52 462.216 89.8 462.949 89.24C463.683 88.68 464.703 88.4 466.009 88.4C466.689 88.4 467.369 88.4933 468.049 88.68C468.729 88.8533 469.289 89.0867 469.729 89.38L469.109 90.52C468.243 89.92 467.209 89.62 466.009 89.62C465.103 89.62 464.416 89.78 463.949 90.1C463.496 90.42 463.269 90.84 463.269 91.36C463.269 91.76 463.396 92.08 463.649 92.32C463.916 92.56 464.243 92.74 464.629 92.86C465.016 92.9667 465.549 93.08 466.229 93.2C467.069 93.36 467.743 93.52 468.249 93.68C468.756 93.84 469.189 94.1133 469.549 94.5C469.909 94.8867 470.089 95.42 470.089 96.1C470.089 97.02 469.703 97.7533 468.929 98.3C468.169 98.8333 467.109 99.1 465.749 99.1ZM481.874 94.18H473.074C473.154 95.2733 473.574 96.16 474.334 96.84C475.094 97.5067 476.054 97.84 477.214 97.84C477.868 97.84 478.468 97.7267 479.014 97.5C479.561 97.26 480.034 96.9133 480.434 96.46L481.234 97.38C480.768 97.94 480.181 98.3667 479.474 98.66C478.781 98.9533 478.014 99.1 477.174 99.1C476.094 99.1 475.134 98.8733 474.294 98.42C473.468 97.9533 472.821 97.3133 472.354 96.5C471.888 95.6867 471.654 94.7667 471.654 93.74C471.654 92.7133 471.874 91.7933 472.314 90.98C472.768 90.1667 473.381 89.5333 474.154 89.08C474.941 88.6267 475.821 88.4 476.794 88.4C477.768 88.4 478.641 88.6267 479.414 89.08C480.188 89.5333 480.794 90.1667 481.234 90.98C481.674 91.78 481.894 92.7 481.894 93.74L481.874 94.18ZM476.794 89.62C475.781 89.62 474.928 89.9467 474.234 90.6C473.554 91.24 473.168 92.08 473.074 93.12H480.534C480.441 92.08 480.048 91.24 479.354 90.6C478.674 89.9467 477.821 89.62 476.794 89.62ZM486.145 90.54C486.478 89.8333 486.971 89.3 487.625 88.94C488.291 88.58 489.111 88.4 490.085 88.4V89.78L489.745 89.76C488.638 89.76 487.771 90.1 487.145 90.78C486.518 91.46 486.205 92.4133 486.205 93.64V99H484.785V88.48H486.145V90.54ZM501.945 88.48L497.265 99H495.805L491.145 88.48H492.625L496.565 97.44L500.545 88.48H501.945ZM503.945 88.48H505.365V99H503.945V88.48ZM504.665 86.18C504.372 86.18 504.125 86.08 503.925 85.88C503.725 85.68 503.625 85.44 503.625 85.16C503.625 84.8933 503.725 84.66 503.925 84.46C504.125 84.26 504.372 84.16 504.665 84.16C504.958 84.16 505.205 84.26 505.405 84.46C505.605 84.6467 505.705 84.8733 505.705 85.14C505.705 85.4333 505.605 85.68 505.405 85.88C505.205 86.08 504.958 86.18 504.665 86.18ZM513.676 99.1C512.636 99.1 511.703 98.8733 510.876 98.42C510.063 97.9667 509.423 97.3333 508.956 96.52C508.489 95.6933 508.256 94.7667 508.256 93.74C508.256 92.7133 508.489 91.7933 508.956 90.98C509.423 90.1667 510.063 89.5333 510.876 89.08C511.703 88.6267 512.636 88.4 513.676 88.4C514.583 88.4 515.389 88.58 516.096 88.94C516.816 89.2867 517.383 89.8 517.796 90.48L516.736 91.2C516.389 90.68 515.949 90.2933 515.416 90.04C514.883 89.7733 514.303 89.64 513.676 89.64C512.916 89.64 512.229 89.8133 511.616 90.16C511.016 90.4933 510.543 90.9733 510.196 91.6C509.863 92.2267 509.696 92.94 509.696 93.74C509.696 94.5533 509.863 95.2733 510.196 95.9C510.543 96.5133 511.016 96.9933 511.616 97.34C512.229 97.6733 512.916 97.84 513.676 97.84C514.303 97.84 514.883 97.7133 515.416 97.46C515.949 97.2067 516.389 96.82 516.736 96.3L517.796 97.02C517.383 97.7 516.816 98.22 516.096 98.58C515.376 98.9267 514.569 99.1 513.676 99.1ZM529.57 94.18H520.77C520.85 95.2733 521.27 96.16 522.03 96.84C522.79 97.5067 523.75 97.84 524.91 97.84C525.563 97.84 526.163 97.7267 526.71 97.5C527.256 97.26 527.73 96.9133 528.13 96.46L528.93 97.38C528.463 97.94 527.876 98.3667 527.17 98.66C526.476 98.9533 525.71 99.1 524.87 99.1C523.79 99.1 522.83 98.8733 521.99 98.42C521.163 97.9533 520.516 97.3133 520.05 96.5C519.583 95.6867 519.35 94.7667 519.35 93.74C519.35 92.7133 519.57 91.7933 520.01 90.98C520.463 90.1667 521.076 89.5333 521.85 89.08C522.636 88.6267 523.516 88.4 524.49 88.4C525.463 88.4 526.336 88.6267 527.11 89.08C527.883 89.5333 528.49 90.1667 528.93 90.98C529.37 91.78 529.59 92.7 529.59 93.74L529.57 94.18ZM524.49 89.62C523.476 89.62 522.623 89.9467 521.93 90.6C521.25 91.24 520.863 92.08 520.77 93.12H528.23C528.136 92.08 527.743 91.24 527.05 90.6C526.37 89.9467 525.516 89.62 524.49 89.62ZM543.134 88.4C544.121 88.4 545.014 88.6267 545.814 89.08C546.614 89.52 547.241 90.1467 547.694 90.96C548.148 91.7733 548.374 92.7 548.374 93.74C548.374 94.7933 548.148 95.7267 547.694 96.54C547.241 97.3533 546.614 97.9867 545.814 98.44C545.028 98.88 544.134 99.1 543.134 99.1C542.281 99.1 541.508 98.9267 540.814 98.58C540.134 98.22 539.574 97.7 539.134 97.02V102.88H537.714V88.48H539.074V90.56C539.501 89.8667 540.061 89.3333 540.754 88.96C541.461 88.5867 542.254 88.4 543.134 88.4ZM543.034 97.84C543.768 97.84 544.434 97.6733 545.034 97.34C545.634 96.9933 546.101 96.5067 546.434 95.88C546.781 95.2533 546.954 94.54 546.954 93.74C546.954 92.94 546.781 92.2333 546.434 91.62C546.101 90.9933 545.634 90.5067 545.034 90.16C544.434 89.8133 543.768 89.64 543.034 89.64C542.288 89.64 541.614 89.8133 541.014 90.16C540.428 90.5067 539.961 90.9933 539.614 91.62C539.281 92.2333 539.114 92.94 539.114 93.74C539.114 94.54 539.281 95.2533 539.614 95.88C539.961 96.5067 540.428 96.9933 541.014 97.34C541.614 97.6733 542.288 97.84 543.034 97.84ZM554.89 88.4C556.264 88.4 557.317 88.7467 558.05 89.44C558.784 90.12 559.15 91.1333 559.15 92.48V99H557.79V97.36C557.47 97.9067 556.997 98.3333 556.37 98.64C555.757 98.9467 555.024 99.1 554.17 99.1C552.997 99.1 552.064 98.82 551.37 98.26C550.677 97.7 550.33 96.96 550.33 96.04C550.33 95.1467 550.65 94.4267 551.29 93.88C551.944 93.3333 552.977 93.06 554.39 93.06H557.73V92.42C557.73 91.5133 557.477 90.8267 556.97 90.36C556.464 89.88 555.724 89.64 554.75 89.64C554.084 89.64 553.444 89.7533 552.83 89.98C552.217 90.1933 551.69 90.4933 551.25 90.88L550.61 89.82C551.144 89.3667 551.784 89.02 552.53 88.78C553.277 88.5267 554.064 88.4 554.89 88.4ZM554.39 97.98C555.19 97.98 555.877 97.8 556.45 97.44C557.024 97.0667 557.45 96.5333 557.73 95.84V94.12H554.43C552.63 94.12 551.73 94.7467 551.73 96C551.73 96.6133 551.964 97.1 552.43 97.46C552.897 97.8067 553.55 97.98 554.39 97.98ZM564.367 90.54C564.701 89.8333 565.194 89.3 565.847 88.94C566.514 88.58 567.334 88.4 568.307 88.4V89.78L567.967 89.76C566.861 89.76 565.994 90.1 565.367 90.78C564.741 91.46 564.427 92.4133 564.427 93.64V99H563.007V88.48H564.367V90.54ZM576.868 98.36C576.601 98.6 576.268 98.7867 575.868 98.92C575.481 99.04 575.074 99.1 574.648 99.1C573.661 99.1 572.901 98.8333 572.368 98.3C571.834 97.7667 571.568 97.0133 571.568 96.04V89.68H569.688V88.48H571.568V86.18H572.988V88.48H576.188V89.68H572.988V95.96C572.988 96.5867 573.141 97.0667 573.448 97.4C573.768 97.72 574.221 97.88 574.808 97.88C575.101 97.88 575.381 97.8333 575.648 97.74C575.928 97.6467 576.168 97.5133 576.368 97.34L576.868 98.36ZM584.813 88.4C586.133 88.4 587.179 88.7867 587.953 89.56C588.739 90.32 589.133 91.4333 589.133 92.9V99H587.713V93.04C587.713 91.9467 587.439 91.1133 586.893 90.54C586.346 89.9667 585.566 89.68 584.553 89.68C583.419 89.68 582.519 90.02 581.853 90.7C581.199 91.3667 580.873 92.2933 580.873 93.48V99H579.453V88.48H580.813V90.42C581.199 89.78 581.733 89.2867 582.413 88.94C583.106 88.58 583.906 88.4 584.813 88.4ZM602.187 94.18H593.387C593.467 95.2733 593.887 96.16 594.647 96.84C595.407 97.5067 596.367 97.84 597.527 97.84C598.18 97.84 598.78 97.7267 599.327 97.5C599.874 97.26 600.347 96.9133 600.747 96.46L601.547 97.38C601.08 97.94 600.494 98.3667 599.787 98.66C599.094 98.9533 598.327 99.1 597.487 99.1C596.407 99.1 595.447 98.8733 594.607 98.42C593.78 97.9533 593.134 97.3133 592.667 96.5C592.2 95.6867 591.967 94.7667 591.967 93.74C591.967 92.7133 592.187 91.7933 592.627 90.98C593.08 90.1667 593.694 89.5333 594.467 89.08C595.254 88.6267 596.134 88.4 597.107 88.4C598.08 88.4 598.954 88.6267 599.727 89.08C600.5 89.5333 601.107 90.1667 601.547 90.98C601.987 91.78 602.207 92.7 602.207 93.74L602.187 94.18ZM597.107 89.62C596.094 89.62 595.24 89.9467 594.547 90.6C593.867 91.24 593.48 92.08 593.387 93.12H600.847C600.754 92.08 600.36 91.24 599.667 90.6C598.987 89.9467 598.134 89.62 597.107 89.62ZM606.457 90.54C606.791 89.8333 607.284 89.3 607.937 88.94C608.604 88.58 609.424 88.4 610.397 88.4V89.78L610.057 89.76C608.951 89.76 608.084 90.1 607.457 90.78C606.831 91.46 606.517 92.4133 606.517 93.64V99H605.097V88.48H606.457V90.54ZM615.866 99.1C615.013 99.1 614.193 98.98 613.406 98.74C612.633 98.4867 612.026 98.1733 611.586 97.8L612.226 96.68C612.666 97.0267 613.22 97.3133 613.886 97.54C614.553 97.7533 615.246 97.86 615.966 97.86C616.926 97.86 617.633 97.7133 618.086 97.42C618.553 97.1133 618.786 96.6867 618.786 96.14C618.786 95.7533 618.66 95.4533 618.406 95.24C618.153 95.0133 617.833 94.8467 617.446 94.74C617.06 94.62 616.546 94.5067 615.906 94.4C615.053 94.24 614.366 94.08 613.846 93.92C613.326 93.7467 612.88 93.46 612.506 93.06C612.146 92.66 611.966 92.1067 611.966 91.4C611.966 90.52 612.333 89.8 613.066 89.24C613.8 88.68 614.82 88.4 616.126 88.4C616.806 88.4 617.486 88.4933 618.166 88.68C618.846 88.8533 619.406 89.0867 619.846 89.38L619.226 90.52C618.36 89.92 617.326 89.62 616.126 89.62C615.22 89.62 614.533 89.78 614.066 90.1C613.613 90.42 613.386 90.84 613.386 91.36C613.386 91.76 613.513 92.08 613.766 92.32C614.033 92.56 614.36 92.74 614.746 92.86C615.133 92.9667 615.666 93.08 616.346 93.2C617.186 93.36 617.86 93.52 618.366 93.68C618.873 93.84 619.306 94.1133 619.666 94.5C620.026 94.8867 620.206 95.42 620.206 96.1C620.206 97.02 619.82 97.7533 619.046 98.3C618.286 98.8333 617.226 99.1 615.866 99.1ZM150.52 122.36C150.253 122.6 149.92 122.787 149.52 122.92C149.133 123.04 148.727 123.1 148.3 123.1C147.313 123.1 146.553 122.833 146.02 122.3C145.487 121.767 145.22 121.013 145.22 120.04V113.68H143.34V112.48H145.22V110.18H146.64V112.48H149.84V113.68H146.64V119.96C146.64 120.587 146.793 121.067 147.1 121.4C147.42 121.72 147.873 121.88 148.46 121.88C148.753 121.88 149.033 121.833 149.3 121.74C149.58 121.647 149.82 121.513 150.02 121.34L150.52 122.36ZM157.034 123.1C156.021 123.1 155.107 122.873 154.294 122.42C153.481 121.953 152.841 121.313 152.374 120.5C151.907 119.687 151.674 118.767 151.674 117.74C151.674 116.713 151.907 115.793 152.374 114.98C152.841 114.167 153.481 113.533 154.294 113.08C155.107 112.627 156.021 112.4 157.034 112.4C158.047 112.4 158.961 112.627 159.774 113.08C160.587 113.533 161.221 114.167 161.674 114.98C162.141 115.793 162.374 116.713 162.374 117.74C162.374 118.767 162.141 119.687 161.674 120.5C161.221 121.313 160.587 121.953 159.774 122.42C158.961 122.873 158.047 123.1 157.034 123.1ZM157.034 121.84C157.781 121.84 158.447 121.673 159.034 121.34C159.634 120.993 160.101 120.507 160.434 119.88C160.767 119.253 160.934 118.54 160.934 117.74C160.934 116.94 160.767 116.227 160.434 115.6C160.101 114.973 159.634 114.493 159.034 114.16C158.447 113.813 157.781 113.64 157.034 113.64C156.287 113.64 155.614 113.813 155.014 114.16C154.427 114.493 153.961 114.973 153.614 115.6C153.281 116.227 153.114 116.94 153.114 117.74C153.114 118.54 153.281 119.253 153.614 119.88C153.961 120.507 154.427 120.993 155.014 121.34C155.614 121.673 156.287 121.84 157.034 121.84ZM183.627 112.4C184.947 112.4 185.981 112.78 186.727 113.54C187.487 114.3 187.867 115.42 187.867 116.9V123H186.447V117.04C186.447 115.947 186.181 115.113 185.647 114.54C185.127 113.967 184.387 113.68 183.427 113.68C182.334 113.68 181.474 114.02 180.847 114.7C180.221 115.367 179.907 116.293 179.907 117.48V123H178.487V117.04C178.487 115.947 178.221 115.113 177.687 114.54C177.167 113.967 176.421 113.68 175.447 113.68C174.367 113.68 173.507 114.02 172.867 114.7C172.241 115.367 171.927 116.293 171.927 117.48V123H170.507V112.48H171.867V114.4C172.241 113.76 172.761 113.267 173.427 112.92C174.094 112.573 174.861 112.4 175.727 112.4C176.607 112.4 177.367 112.587 178.007 112.96C178.661 113.333 179.147 113.887 179.467 114.62C179.854 113.927 180.407 113.387 181.127 113C181.861 112.6 182.694 112.4 183.627 112.4ZM200.917 118.18H192.117C192.197 119.273 192.617 120.16 193.377 120.84C194.137 121.507 195.097 121.84 196.257 121.84C196.911 121.84 197.511 121.727 198.057 121.5C198.604 121.26 199.077 120.913 199.477 120.46L200.277 121.38C199.811 121.94 199.224 122.367 198.517 122.66C197.824 122.953 197.057 123.1 196.217 123.1C195.137 123.1 194.177 122.873 193.337 122.42C192.511 121.953 191.864 121.313 191.397 120.5C190.931 119.687 190.697 118.767 190.697 117.74C190.697 116.713 190.917 115.793 191.357 114.98C191.811 114.167 192.424 113.533 193.197 113.08C193.984 112.627 194.864 112.4 195.837 112.4C196.811 112.4 197.684 112.627 198.457 113.08C199.231 113.533 199.837 114.167 200.277 114.98C200.717 115.78 200.937 116.7 200.937 117.74L200.917 118.18ZM195.837 113.62C194.824 113.62 193.971 113.947 193.277 114.6C192.597 115.24 192.211 116.08 192.117 117.12H199.577C199.484 116.08 199.091 115.24 198.397 114.6C197.717 113.947 196.864 113.62 195.837 113.62ZM212.988 118.18H204.188C204.268 119.273 204.688 120.16 205.448 120.84C206.208 121.507 207.168 121.84 208.328 121.84C208.981 121.84 209.581 121.727 210.128 121.5C210.674 121.26 211.148 120.913 211.548 120.46L212.348 121.38C211.881 121.94 211.294 122.367 210.588 122.66C209.894 122.953 209.128 123.1 208.288 123.1C207.208 123.1 206.248 122.873 205.408 122.42C204.581 121.953 203.934 121.313 203.468 120.5C203.001 119.687 202.768 118.767 202.768 117.74C202.768 116.713 202.988 115.793 203.428 114.98C203.881 114.167 204.494 113.533 205.268 113.08C206.054 112.627 206.934 112.4 207.908 112.4C208.881 112.4 209.754 112.627 210.528 113.08C211.301 113.533 211.908 114.167 212.348 114.98C212.788 115.78 213.008 116.7 213.008 117.74L212.988 118.18ZM207.908 113.62C206.894 113.62 206.041 113.947 205.348 114.6C204.668 115.24 204.281 116.08 204.188 117.12H211.648C211.554 116.08 211.161 115.24 210.468 114.6C209.788 113.947 208.934 113.62 207.908 113.62ZM221.438 122.36C221.171 122.6 220.838 122.787 220.438 122.92C220.051 123.04 219.645 123.1 219.218 123.1C218.231 123.1 217.471 122.833 216.938 122.3C216.405 121.767 216.138 121.013 216.138 120.04V113.68H214.258V112.48H216.138V110.18H217.558V112.48H220.758V113.68H217.558V119.96C217.558 120.587 217.711 121.067 218.018 121.4C218.338 121.72 218.791 121.88 219.378 121.88C219.671 121.88 219.951 121.833 220.218 121.74C220.498 121.647 220.738 121.513 220.938 121.34L221.438 122.36ZM238.097 112.48L232.837 124.26C232.411 125.247 231.917 125.947 231.357 126.36C230.797 126.773 230.124 126.98 229.337 126.98C228.831 126.98 228.357 126.9 227.917 126.74C227.477 126.58 227.097 126.34 226.777 126.02L227.437 124.96C227.971 125.493 228.611 125.76 229.357 125.76C229.837 125.76 230.244 125.627 230.577 125.36C230.924 125.093 231.244 124.64 231.537 124L231.997 122.98L227.297 112.48H228.777L232.737 121.42L236.697 112.48H238.097ZM244.104 123.1C243.091 123.1 242.178 122.873 241.364 122.42C240.551 121.953 239.911 121.313 239.444 120.5C238.978 119.687 238.744 118.767 238.744 117.74C238.744 116.713 238.978 115.793 239.444 114.98C239.911 114.167 240.551 113.533 241.364 113.08C242.178 112.627 243.091 112.4 244.104 112.4C245.118 112.4 246.031 112.627 246.844 113.08C247.658 113.533 248.291 114.167 248.744 114.98C249.211 115.793 249.444 116.713 249.444 117.74C249.444 118.767 249.211 119.687 248.744 120.5C248.291 121.313 247.658 121.953 246.844 122.42C246.031 122.873 245.118 123.1 244.104 123.1ZM244.104 121.84C244.851 121.84 245.518 121.673 246.104 121.34C246.704 120.993 247.171 120.507 247.504 119.88C247.838 119.253 248.004 118.54 248.004 117.74C248.004 116.94 247.838 116.227 247.504 115.6C247.171 114.973 246.704 114.493 246.104 114.16C245.518 113.813 244.851 113.64 244.104 113.64C243.358 113.64 242.684 113.813 242.084 114.16C241.498 114.493 241.031 114.973 240.684 115.6C240.351 116.227 240.184 116.94 240.184 117.74C240.184 118.54 240.351 119.253 240.684 119.88C241.031 120.507 241.498 120.993 242.084 121.34C242.684 121.673 243.358 121.84 244.104 121.84ZM261.823 112.48V123H260.463V121.08C260.09 121.72 259.577 122.22 258.923 122.58C258.27 122.927 257.523 123.1 256.683 123.1C255.31 123.1 254.223 122.72 253.423 121.96C252.637 121.187 252.243 120.06 252.243 118.58V112.48H253.663V118.44C253.663 119.547 253.937 120.387 254.483 120.96C255.03 121.533 255.81 121.82 256.823 121.82C257.93 121.82 258.803 121.487 259.443 120.82C260.083 120.14 260.403 119.2 260.403 118V112.48H261.823ZM267.16 114.54C267.494 113.833 267.987 113.3 268.64 112.94C269.307 112.58 270.127 112.4 271.1 112.4V113.78L270.76 113.76C269.654 113.76 268.787 114.1 268.16 114.78C267.534 115.46 267.22 116.413 267.22 117.64V123H265.8V112.48H267.16V114.54ZM284.422 112.4C285.742 112.4 286.789 112.787 287.562 113.56C288.349 114.32 288.742 115.433 288.742 116.9V123H287.322V117.04C287.322 115.947 287.049 115.113 286.502 114.54C285.955 113.967 285.175 113.68 284.162 113.68C283.029 113.68 282.129 114.02 281.462 114.7C280.809 115.367 280.482 116.293 280.482 117.48V123H279.062V112.48H280.422V114.42C280.809 113.78 281.342 113.287 282.022 112.94C282.715 112.58 283.515 112.4 284.422 112.4ZM301.796 118.18H292.996C293.076 119.273 293.496 120.16 294.256 120.84C295.016 121.507 295.976 121.84 297.136 121.84C297.79 121.84 298.39 121.727 298.936 121.5C299.483 121.26 299.956 120.913 300.356 120.46L301.156 121.38C300.69 121.94 300.103 122.367 299.396 122.66C298.703 122.953 297.936 123.1 297.096 123.1C296.016 123.1 295.056 122.873 294.216 122.42C293.39 121.953 292.743 121.313 292.276 120.5C291.81 119.687 291.576 118.767 291.576 117.74C291.576 116.713 291.796 115.793 292.236 114.98C292.69 114.167 293.303 113.533 294.076 113.08C294.863 112.627 295.743 112.4 296.716 112.4C297.69 112.4 298.563 112.627 299.336 113.08C300.11 113.533 300.716 114.167 301.156 114.98C301.596 115.78 301.816 116.7 301.816 117.74L301.796 118.18ZM296.716 113.62C295.703 113.62 294.85 113.947 294.156 114.6C293.476 115.24 293.09 116.08 292.996 117.12H300.456C300.363 116.08 299.97 115.24 299.276 114.6C298.596 113.947 297.743 113.62 296.716 113.62ZM313.867 118.18H305.067C305.147 119.273 305.567 120.16 306.327 120.84C307.087 121.507 308.047 121.84 309.207 121.84C309.86 121.84 310.46 121.727 311.007 121.5C311.553 121.26 312.027 120.913 312.427 120.46L313.227 121.38C312.76 121.94 312.173 122.367 311.467 122.66C310.773 122.953 310.007 123.1 309.167 123.1C308.087 123.1 307.127 122.873 306.287 122.42C305.46 121.953 304.813 121.313 304.347 120.5C303.88 119.687 303.647 118.767 303.647 117.74C303.647 116.713 303.867 115.793 304.307 114.98C304.76 114.167 305.373 113.533 306.147 113.08C306.933 112.627 307.813 112.4 308.787 112.4C309.76 112.4 310.633 112.627 311.407 113.08C312.18 113.533 312.787 114.167 313.227 114.98C313.667 115.78 313.887 116.7 313.887 117.74L313.867 118.18ZM308.787 113.62C307.773 113.62 306.92 113.947 306.227 114.6C305.547 115.24 305.16 116.08 305.067 117.12H312.527C312.433 116.08 312.04 115.24 311.347 114.6C310.667 113.947 309.813 113.62 308.787 113.62ZM326.377 108.16V123H325.017V120.92C324.59 121.627 324.024 122.167 323.317 122.54C322.624 122.913 321.837 123.1 320.957 123.1C319.97 123.1 319.077 122.873 318.277 122.42C317.477 121.967 316.85 121.333 316.397 120.52C315.944 119.707 315.717 118.78 315.717 117.74C315.717 116.7 315.944 115.773 316.397 114.96C316.85 114.147 317.477 113.52 318.277 113.08C319.077 112.627 319.97 112.4 320.957 112.4C321.81 112.4 322.577 112.58 323.257 112.94C323.95 113.287 324.517 113.8 324.957 114.48V108.16H326.377ZM321.077 121.84C321.81 121.84 322.47 121.673 323.057 121.34C323.657 120.993 324.124 120.507 324.457 119.88C324.804 119.253 324.977 118.54 324.977 117.74C324.977 116.94 324.804 116.227 324.457 115.6C324.124 114.973 323.657 114.493 323.057 114.16C322.47 113.813 321.81 113.64 321.077 113.64C320.33 113.64 319.657 113.813 319.057 114.16C318.47 114.493 318.004 114.973 317.657 115.6C317.324 116.227 317.157 116.94 317.157 117.74C317.157 118.54 317.324 119.253 317.657 119.88C318.004 120.507 318.47 120.993 319.057 121.34C319.657 121.673 320.33 121.84 321.077 121.84ZM333.152 123.1C332.298 123.1 331.478 122.98 330.692 122.74C329.918 122.487 329.312 122.173 328.872 121.8L329.512 120.68C329.952 121.027 330.505 121.313 331.172 121.54C331.838 121.753 332.532 121.86 333.252 121.86C334.212 121.86 334.918 121.713 335.372 121.42C335.838 121.113 336.072 120.687 336.072 120.14C336.072 119.753 335.945 119.453 335.692 119.24C335.438 119.013 335.118 118.847 334.732 118.74C334.345 118.62 333.832 118.507 333.192 118.4C332.338 118.24 331.652 118.08 331.132 117.92C330.612 117.747 330.165 117.46 329.792 117.06C329.432 116.66 329.252 116.107 329.252 115.4C329.252 114.52 329.618 113.8 330.352 113.24C331.085 112.68 332.105 112.4 333.412 112.4C334.092 112.4 334.772 112.493 335.452 112.68C336.132 112.853 336.692 113.087 337.132 113.38L336.512 114.52C335.645 113.92 334.612 113.62 333.412 113.62C332.505 113.62 331.818 113.78 331.352 114.1C330.898 114.42 330.672 114.84 330.672 115.36C330.672 115.76 330.798 116.08 331.052 116.32C331.318 116.56 331.645 116.74 332.032 116.86C332.418 116.967 332.952 117.08 333.632 117.2C334.472 117.36 335.145 117.52 335.652 117.68C336.158 117.84 336.592 118.113 336.952 118.5C337.312 118.887 337.492 119.42 337.492 120.1C337.492 121.02 337.105 121.753 336.332 122.3C335.572 122.833 334.512 123.1 333.152 123.1Z" fill="white"/>
<circle cx="69.1816" cy="87.5" r="62" stroke="white" stroke-width="3"/>
<path d="M63.8105 49.119C63.4169 49.2065 62.5569 49.5276 61.9009 49.834C59.6851 50.8992 57.9067 53.2193 57.484 55.5832C57.2653 56.7652 57.2799 59.8003 57.4985 60.5445C57.8338 61.6827 59.4665 62.9668 60.5889 62.9668C60.793 62.9668 60.8222 63.2148 60.8222 65.0534C60.8222 67.6654 60.9825 68.5555 61.7114 70.0731C62.1487 70.9924 62.5277 71.5323 63.3003 72.2911L64.3207 73.2979V74.8447V76.3768L63.1691 77.2669C62.5277 77.7485 61.9446 78.1424 61.8571 78.1424C61.7843 78.1424 61.5219 77.7922 61.2741 77.3691C59.7289 74.6696 56.6676 72.364 53.5481 71.5615C46.3615 69.6937 38.9854 74.4215 37.7172 81.7175C37.5423 82.7827 37.4985 84.7526 37.4985 93.4932V103.999L36.4781 105.006C35.3265 106.159 34.4227 107.808 34.1603 109.282C34.0729 109.763 34 111.967 34 114.214V118.285L34.3644 118.635L34.7143 119H50.3265H65.9388L66.3032 118.635L66.6822 118.256L66.6239 113.703C66.5656 109.238 66.5656 109.136 66.2012 108.187C65.6472 106.743 65.1079 105.926 64.0875 104.919L63.1545 104.014V99.8261V95.6528H68.9854H74.8163V99.8261V103.999L73.7959 105.006C72.6443 106.159 71.7405 107.808 71.4781 109.282C71.3907 109.763 71.3178 111.967 71.3178 114.214V118.285L71.6822 118.635L72.0321 119H87.6443H103.257L103.621 118.635L104 118.256L103.942 113.703C103.883 109.238 103.883 109.136 103.519 108.187C102.965 106.743 102.426 105.926 101.405 104.919L100.472 104.014V93.5078C100.472 81.9947 100.443 81.5132 99.6122 79.3682C98.344 76.085 95.5306 73.2687 92.2507 71.9992C88.5044 70.54 84.0729 71.007 80.691 73.2104C79.2624 74.1296 77.5423 75.8953 76.7988 77.1648C76.4927 77.7047 76.172 78.1424 76.0991 78.1424C76.0262 78.1424 75.4431 77.7485 74.8018 77.2669L73.6501 76.3768V74.8301V73.2687L74.5977 72.3348C75.6618 71.2988 76.1429 70.54 76.6968 69.11C77.0321 68.2053 77.0612 67.9426 77.1195 64.82L77.1778 61.493L77.9796 60.7342C79.758 59.0853 80.5743 57.2321 80.5743 54.8682C80.5743 53.5258 80.5306 53.3215 80.1079 52.4314C79.4665 51.0743 78.6501 50.228 77.3236 49.5713L76.2157 49.0314L70.3848 49.0023C67.105 48.9877 64.2187 49.046 63.8105 49.119ZM75.895 51.4683C76.7551 51.7309 77.9067 52.9129 78.1545 53.8176C78.4315 54.7953 78.2711 56.1085 77.7464 57.2029C77.1341 58.4287 76.9155 58.6913 76.5948 58.5016C76.4636 58.4141 74.1312 57.8012 71.4344 57.1154L66.5073 55.8897L63.8688 57.2029C62.4111 57.9325 61.1429 58.6476 61.0262 58.8081C60.9096 58.9686 60.8222 59.4355 60.8222 59.8587C60.8222 60.7634 60.6035 60.8655 59.9913 60.2527C59.6268 59.8879 59.6268 59.8733 59.6851 57.8158C59.7289 55.8605 59.758 55.6854 60.1953 54.7661C60.4431 54.2262 60.9242 53.4966 61.2449 53.1464C61.8863 52.446 63.2128 51.6726 64.1166 51.4537C65.0204 51.2494 75.1662 51.264 75.895 51.4683ZM70.9679 59.4063L74.8309 60.384L74.7872 64.1195L74.7434 67.8697L74.2041 68.9787C73.5481 70.3065 72.7026 71.1237 71.3469 71.7657C70.4577 72.1889 70.2391 72.2327 68.9854 72.2327C67.7318 72.2327 67.5131 72.1889 66.6239 71.7657C65.2682 71.1237 64.4227 70.3065 63.7668 68.9787L63.2274 67.8697L63.1837 64.0466L63.1399 60.2089L64.8601 59.3334C65.8076 58.8518 66.6968 58.4579 66.8426 58.4579C66.9738 58.4433 68.8396 58.881 70.9679 59.4063ZM53.4606 73.9691C55.1079 74.4944 56.3469 75.2678 57.688 76.6103C59.0146 77.9382 59.7726 79.1493 60.3557 80.842L60.7493 82.0093L60.793 92.4864L60.8367 102.978L60.4286 102.89C60.2099 102.847 59.758 102.774 59.4373 102.715C59.0146 102.642 58.344 102.234 56.93 101.183L54.9913 99.7386V98.1772V96.6159L55.9388 95.682C57.0029 94.646 57.484 93.8872 58.0379 92.4572C58.4023 91.5087 58.4023 91.4066 58.4606 86.9414L58.5189 82.3887L58.1691 82.0531C57.9067 81.7904 56.7988 81.4548 52.8484 80.4772L47.8484 79.2368L45.2099 80.5501C43.7522 81.2797 42.484 81.9947 42.3673 82.1552C42.207 82.3741 42.1633 83.2496 42.1633 86.4599C42.1633 88.6924 42.2362 90.8812 42.3236 91.3628C42.586 92.8366 43.4898 94.4855 44.6414 95.6382L45.6618 96.6451V98.1918V99.7386L43.7376 101.183C42.309 102.234 41.6385 102.642 41.2157 102.715C40.895 102.774 40.4431 102.847 40.2245 102.89L39.8163 102.978L39.8601 92.4864L39.9038 82.0093L40.2974 80.842C40.8805 79.1493 41.6385 77.9382 42.965 76.6103C44.5977 74.976 46.3907 73.9983 48.4898 73.6189C49.7872 73.3855 52.1487 73.546 53.4606 73.9691ZM90.7784 73.9691C92.4257 74.4944 93.6647 75.2678 95.0058 76.6103C96.3324 77.9382 97.0904 79.1493 97.6735 80.842L98.0671 82.0093L98.1108 92.4864L98.1545 102.978L97.7464 102.89C97.5277 102.847 97.0758 102.774 96.7551 102.715C96.3324 102.642 95.6618 102.234 94.2478 101.183L92.309 99.7386V98.1772V96.6159L93.2566 95.682C94.3207 94.646 94.8018 93.8872 95.3557 92.4572C95.7201 91.5087 95.7201 91.4066 95.7784 86.9414L95.8367 82.3887L95.4869 82.0531C95.2245 81.7904 94.1166 81.4548 90.1662 80.4772L85.1662 79.2368L82.5277 80.5501C81.07 81.2797 79.8018 81.9947 79.6851 82.1552C79.5248 82.3741 79.481 83.2496 79.481 86.4599C79.481 88.6924 79.5539 90.8812 79.6414 91.3628C79.9038 92.8366 80.8076 94.4855 81.9592 95.6382L82.9796 96.6451V98.1918V99.7386L81.0554 101.183C79.6268 102.234 78.9563 102.642 78.5335 102.715C78.2128 102.774 77.7609 102.847 77.5423 102.89L77.1341 102.978L77.1778 92.4864L77.2216 82.0093L77.6152 80.842C78.1982 79.1493 78.9563 77.9382 80.2828 76.6103C81.9155 74.976 83.7085 73.9983 85.8076 73.6189C87.105 73.3855 89.4665 73.546 90.7784 73.9691ZM68.9854 74.5674C69.5831 74.5674 70.3557 74.5236 70.7055 74.4507L71.3178 74.3485V75.8223C71.3178 76.6249 71.3761 77.3983 71.449 77.5296C71.5219 77.6609 72.3382 78.3321 73.2711 79.018C74.1895 79.7038 74.9475 80.2875 74.9621 80.3312C74.9621 80.375 73.621 81.1776 71.9738 82.1115L68.9854 83.8187L65.9971 82.1115C64.3499 81.1776 63.0087 80.375 63.0087 80.3312C63.0233 80.2875 63.7813 79.7038 64.6997 79.018C65.6327 78.3321 66.449 77.6609 66.5219 77.5296C66.5948 77.3983 66.6531 76.6249 66.6531 75.8223V74.3485L67.2799 74.4507C67.6152 74.5236 68.3878 74.5674 68.9854 74.5674ZM52.309 82.7535L56.172 83.7312L56.1283 87.4667L56.0845 91.2169L55.5452 92.3259C54.8892 93.6537 54.0437 94.4709 52.688 95.1129C51.7988 95.5361 51.5802 95.5799 50.3265 95.5799C49.0729 95.5799 48.8542 95.5361 47.965 95.1129C46.6093 94.4709 45.7638 93.6537 45.1079 92.3259L44.5685 91.2169L44.5248 87.3938L44.481 83.5561L46.2012 82.6805C47.1487 82.199 48.0379 81.805 48.1837 81.805C48.3149 81.7904 50.1808 82.2282 52.309 82.7535ZM89.6268 82.7535L93.4898 83.7312L93.4461 87.4667L93.4023 91.2169L92.863 92.3259C92.207 93.6537 91.3615 94.4709 90.0058 95.1129C89.1166 95.5361 88.898 95.5799 87.6443 95.5799C86.3907 95.5799 86.172 95.5361 85.2828 95.1129C83.9271 94.4709 83.0816 93.6537 82.4257 92.3259L81.8863 91.2169L81.8426 87.3938L81.7988 83.5561L83.519 82.6805C84.4665 82.199 85.3557 81.805 85.5015 81.805C85.6327 81.7904 87.4985 82.2282 89.6268 82.7535ZM65.9825 84.7818C67.4548 85.6281 68.7959 86.314 68.9854 86.314C69.1749 86.314 70.516 85.6281 71.9883 84.7818C73.4606 83.9355 74.6997 83.2496 74.7434 83.2496C74.7872 83.2496 74.8163 85.5114 74.8163 88.2839V93.3181H68.9854H63.1545V88.2839C63.1545 85.5114 63.1837 83.2496 63.2274 83.2496C63.2711 83.2496 64.5102 83.9355 65.9825 84.7818ZM50.3265 97.9146C50.9242 97.9146 51.6968 97.8708 52.0466 97.7978L52.6589 97.6957V99.1695C52.6589 99.9721 52.7172 100.745 52.7901 100.877C52.863 101.008 53.6793 101.679 54.6122 102.365C55.5306 103.051 56.2886 103.635 56.3032 103.678C56.3032 103.722 54.9621 104.525 53.3149 105.459L50.3265 107.151L47.3382 105.459C45.7055 104.525 44.3499 103.722 44.3499 103.678C44.3644 103.635 45.1224 103.051 46.0408 102.365C46.9738 101.679 47.7901 101.008 47.863 100.877C47.9359 100.745 47.9942 99.9721 47.9942 99.1695V97.6957L48.621 97.7978C48.9563 97.8708 49.7289 97.9146 50.3265 97.9146ZM87.6443 97.9146C88.242 97.9146 89.0146 97.8708 89.3644 97.7978L89.9767 97.6957V99.1695C89.9767 99.9721 90.035 100.745 90.1079 100.877C90.1808 101.008 90.9971 101.679 91.93 102.365C92.8484 103.051 93.6064 103.635 93.621 103.678C93.621 103.722 92.2799 104.525 90.6327 105.459L87.6443 107.151L84.656 105.459C83.0233 104.525 81.6676 103.722 81.6676 103.678C81.6822 103.635 82.4402 103.051 83.3586 102.365C84.2915 101.679 85.1079 101.008 85.1808 100.877C85.2536 100.745 85.312 99.9721 85.312 99.1695V97.6957L85.9388 97.7978C86.2741 97.8708 87.0466 97.9146 87.6443 97.9146ZM45.9242 107.326C48.1545 108.611 50.1516 109.661 50.3265 109.661C50.5015 109.661 52.4985 108.611 54.758 107.312L58.8542 104.963L59.6268 105.123C61.4344 105.488 62.9504 106.714 63.7813 108.465L64.2478 109.442L64.2915 113.046L64.3499 116.665H50.3265H36.3032L36.3615 113.061L36.4052 109.442L36.8717 108.465C37.1195 107.925 37.6006 107.195 37.9213 106.845C38.7813 105.926 40.4577 105.079 41.5948 105.006C41.7259 104.992 43.6793 106.042 45.9242 107.326ZM83.242 107.326C85.4723 108.611 87.4694 109.661 87.6443 109.661C87.8192 109.661 89.8163 108.611 92.0758 107.312L96.172 104.963L96.9446 105.123C98.7522 105.488 100.268 106.714 101.099 108.465L101.566 109.442L101.609 113.046L101.668 116.665H87.6443H73.621L73.6793 113.061L73.723 109.442L74.1895 108.465C74.4373 107.925 74.9184 107.195 75.2391 106.845C76.0991 105.926 77.7755 105.079 78.9125 105.006C79.0437 104.992 80.9971 106.042 83.242 107.326Z" fill="white"/>
<path d="M43.8252 51.4994C43.6503 51.6307 43.1109 52.7689 42.4549 54.4178L41.3908 57.1319H39.2188C37.1051 57.1319 37.0322 57.1465 36.6969 57.4967C36.2596 57.9198 36.2159 58.5765 36.5803 58.9996C36.7261 59.1601 37.659 59.8897 38.6649 60.6339C39.6707 61.3781 40.5453 62.0348 40.6182 62.1077C40.6911 62.1661 40.2829 63.3772 39.6998 64.8218C39.1313 66.2519 38.6649 67.5651 38.6649 67.7548C38.6649 67.9445 38.8252 68.251 39.0293 68.4407C39.6707 69.0973 40.0205 68.9514 42.3529 67.2003L44.4958 65.5952L46.6386 67.2003C48.971 68.9514 49.3208 69.0973 49.9622 68.4407C50.1663 68.251 50.3267 67.9445 50.3267 67.7548C50.3267 67.5651 49.8602 66.2519 49.2917 64.8218C48.7086 63.3772 48.3004 62.1661 48.3733 62.1077C48.4462 62.0348 49.3208 61.3781 50.3267 60.6339C51.3325 59.8897 52.2654 59.1601 52.4112 58.9996C52.7756 58.5765 52.7319 57.9198 52.2946 57.4967C51.9593 57.1465 51.8864 57.1319 49.7727 57.1319H47.6007L46.5366 54.4178C45.4287 51.6453 45.1955 51.2951 44.4958 51.2951C44.2917 51.2951 43.9856 51.3826 43.8252 51.4994ZM45.2246 57.4237C45.5745 58.3138 45.9535 59.1164 46.0701 59.2185C46.1867 59.3061 46.6532 59.4228 47.1051 59.4666L47.9068 59.5395L46.8719 60.3129C45.4579 61.3635 45.4287 61.4803 46.0847 63.1C46.3325 63.6691 46.5074 64.136 46.4783 64.136C46.4637 64.136 46.0847 63.8734 45.6619 63.5523C45.21 63.2167 44.7144 62.9687 44.4958 62.9687C44.2771 62.9687 43.7815 63.2167 43.3296 63.5523C42.9068 63.8734 42.5278 64.136 42.5133 64.136C42.4841 64.136 42.659 63.6691 42.9068 63.1C43.5628 61.4803 43.5337 61.3635 42.1197 60.3129L41.0847 59.5395L41.8864 59.4666C42.3383 59.4228 42.8048 59.3061 42.9214 59.2185C43.038 59.1164 43.417 58.3138 43.7669 57.4237C44.1168 56.5482 44.4375 55.8186 44.4958 55.8186C44.5541 55.8186 44.8748 56.5482 45.2246 57.4237Z" fill="white"/>
<path d="M92.8043 51.4994C92.6293 51.6307 92.09 52.7689 91.434 54.4178L90.3699 57.1319H88.1979C86.0842 57.1319 86.0113 57.1465 85.676 57.4967C85.2387 57.9198 85.1949 58.5765 85.5739 58.9996C85.7051 59.1601 86.6381 59.8897 87.6439 60.6339C88.6497 61.3781 89.5244 62.0348 89.5973 62.1077C89.6702 62.1661 89.262 63.3772 88.6789 64.8218C88.1104 66.2519 87.6439 67.5651 87.6439 67.7548C87.6439 67.9445 87.8043 68.251 88.0083 68.4407C88.6497 69.0973 88.9996 68.9514 91.332 67.2003L93.4748 65.5952L95.6177 67.2003C97.95 68.9514 98.2999 69.0973 98.9413 68.4407C99.1454 68.251 99.3057 67.9445 99.3057 67.7548C99.3057 67.5651 98.8393 66.2519 98.2707 64.8218C97.6876 63.3772 97.2795 62.1661 97.3524 62.1077C97.4253 62.0348 98.2999 61.3781 99.3057 60.6339C100.312 59.8897 101.244 59.1601 101.39 58.9996C101.755 58.5765 101.711 57.9198 101.274 57.4967C100.938 57.1465 100.865 57.1319 98.7518 57.1319H96.5798L95.5156 54.4178C94.4078 51.6453 94.1745 51.2951 93.4748 51.2951C93.2707 51.2951 92.9646 51.3826 92.8043 51.4994ZM94.2037 57.4237C94.5535 58.3138 94.9325 59.1164 95.0492 59.2185C95.1658 59.3061 95.6323 59.4228 96.0841 59.4666L96.8859 59.5395L95.8509 60.3129C94.4369 61.3635 94.4078 61.4803 95.0637 63.1C95.3116 63.6691 95.4865 64.136 95.4573 64.136C95.4427 64.136 95.0637 63.8734 94.641 63.5523C94.1891 63.2167 93.6935 62.9687 93.4748 62.9687C93.2562 62.9687 92.7605 63.2167 92.3086 63.5523C91.8859 63.8734 91.5069 64.136 91.4923 64.136C91.4632 64.136 91.6381 63.6691 91.8859 63.1C92.5419 61.4803 92.5127 61.3635 91.0987 60.3129L90.0637 59.5395L90.8655 59.4666C91.3174 59.4228 91.7839 59.3061 91.9005 59.2185C92.0171 59.1164 92.3961 58.3138 92.746 57.4237C93.0958 56.5482 93.4165 55.8186 93.4748 55.8186C93.5331 55.8186 93.8538 56.5482 94.2037 57.4237Z" fill="white"/>
</svg>
