<svg width="75" height="80" viewBox="0 0 75 80" fill="none" xmlns="http://www.w3.org/2000/svg">
<path d="M35.9389 0.31488C35.497 0.481789 34.7604 0.949139 34.2817 1.34972C33.7845 1.75031 33.1033 2.30111 32.7718 2.55148L32.1274 3.01883L29.6416 2.90199C27.2663 2.80184 27.1006 2.81853 26.3272 3.18573C25.0015 3.8033 24.5227 4.50432 23.9335 6.69085C23.6573 7.74238 23.3627 8.71046 23.289 8.8106C23.2154 8.91075 22.4789 9.36141 21.6503 9.79537C18.9804 11.1807 18.0045 12.4326 18.2991 14.085C18.3543 14.4522 18.741 15.4536 19.1461 16.2882C19.5328 17.1394 19.8642 18.024 19.8642 18.241C19.8642 18.4747 19.5328 19.3426 19.1277 20.1772C18.2438 21.9965 18.0781 22.7643 18.3911 23.7657C18.7042 24.7672 19.6248 25.6018 21.4846 26.5698C22.3131 27.0038 23.1049 27.5212 23.2522 27.7382C23.3995 27.9385 23.6941 28.7897 23.8967 29.641C24.7253 33.0793 26.0326 33.9473 29.8073 33.5467C30.9673 33.4298 31.7959 33.4298 32.0905 33.53C32.3299 33.6134 33.1033 34.1476 33.803 34.715C35.3497 36.0003 36.7122 36.6011 37.7986 36.501C38.9402 36.3841 39.7504 35.9669 41.3524 34.6984C42.1257 34.0641 42.9911 33.5133 43.2489 33.4799C43.5067 33.4298 44.4458 33.4632 45.348 33.5634C49.0675 33.9639 50.4853 32.9792 51.2586 29.5241C51.4244 28.7397 51.6821 27.9385 51.811 27.7549C51.9583 27.5546 52.7317 27.0539 53.5235 26.6366C55.4384 25.6351 56.0277 25.1678 56.5248 24.2498C57.0772 23.2149 56.9299 22.1968 55.9724 20.1438C55.5489 19.2759 55.2175 18.3912 55.2175 18.2076C55.2175 18.0073 55.5489 17.1561 55.9724 16.3049C57.5559 13.0334 57.0956 11.7482 53.6155 9.89552C51.7006 8.87737 51.719 8.89406 51.1666 6.65746C50.7799 4.97167 50.5037 4.42087 49.7488 3.78661C48.736 2.91868 48.0547 2.76846 45.3664 2.90199L42.9543 3.01883L41.3892 1.80038C40.5422 1.14943 39.511 0.465099 39.106 0.298187C38.1485 -0.102398 36.9148 -0.102398 35.9389 0.31488ZM38.4983 3.10228C38.8298 3.35264 39.511 3.88676 39.9898 4.28734C40.4685 4.68793 41.2603 5.17196 41.739 5.35556C42.5124 5.67269 42.807 5.68938 45.035 5.60593C47.0604 5.50578 47.5024 5.53917 47.7417 5.73946C47.889 5.87299 48.1468 6.57401 48.3125 7.29172C48.9386 10.0124 49.583 10.8636 51.7926 12.032C53.2841 12.7998 53.9285 13.2838 53.9285 13.6176C53.9285 13.7511 53.5787 14.5857 53.1552 15.4703C52.4923 16.8557 52.3818 17.2563 52.3818 18.2577C52.3818 19.2592 52.4923 19.6598 53.1552 21.0451C53.5787 21.9297 53.9285 22.7643 53.9285 22.8978C53.9285 23.2149 53.5419 23.4987 51.6085 24.5669C49.6015 25.6852 49.0859 26.3195 48.5703 28.2389C47.9074 30.7593 47.8706 30.8427 47.4103 30.9596C47.1709 31.0096 46.2134 30.9763 45.2559 30.8761C42.4756 30.6091 41.7943 30.826 39.4006 32.6787C38.572 33.3297 37.7618 33.8638 37.5777 33.8638C37.3935 33.8638 36.5281 33.2963 35.6443 32.612C34.7604 31.9276 33.8766 31.2934 33.6741 31.1932C32.9191 30.826 31.575 30.7259 29.66 30.9095C27.7634 31.0764 27.7082 31.0764 27.3952 30.7092C27.211 30.5089 26.8796 29.5909 26.6587 28.6729C26.1247 26.5365 25.6091 25.7687 24.0992 24.9174C21.6503 23.5154 21.2452 23.2483 21.1899 22.998C21.1531 22.8477 21.4846 21.9798 21.9265 21.0785C22.6262 19.593 22.7182 19.2926 22.6998 18.1743C22.6998 17.0727 22.6078 16.7388 21.9265 15.4036C21.503 14.5523 21.1531 13.7511 21.1531 13.6176C21.1531 13.3005 21.7607 12.8665 23.6573 11.8317C25.5907 10.7801 26.0142 10.2126 26.6218 7.8926C26.8796 6.89114 27.2295 5.93975 27.3768 5.78953C27.6161 5.52247 27.9292 5.50578 30.1572 5.60593C33.1401 5.72277 33.3426 5.656 35.6995 3.81999C36.5281 3.18573 37.3567 2.65162 37.5408 2.65162C37.725 2.65162 38.1485 2.85191 38.4983 3.10228Z" fill="#5F0000"/>
<path d="M29.808 10.0286C27.4327 11.3305 27.0829 14.2348 29.0899 15.9539C31.1338 17.7065 34.4481 17.2058 35.737 14.9525C36.271 14.0011 36.2894 12.4822 35.7555 11.5809C34.9453 10.1789 33.6564 9.49453 31.8703 9.49453C30.9864 9.49453 30.6366 9.59467 29.808 10.0286ZM32.8094 12.3654C33.3065 12.7326 33.3802 13.3835 32.9382 13.8843C31.9071 15.0526 30.0658 13.7674 31.0233 12.5323C31.3363 12.115 32.2938 12.0316 32.8094 12.3654Z" fill="#5F0000"/>
<path d="M36.5468 17.3229C29.3472 23.8324 28.8316 24.3499 28.8501 24.8673C28.8685 25.2512 29.0158 25.5516 29.3472 25.802C30.3784 26.6198 30.2126 26.7367 38.517 19.209C42.752 15.3868 46.2505 12.082 46.3057 11.8817C46.5083 11.164 45.7349 10.3461 44.8143 10.3294C44.3355 10.3294 43.3044 11.214 36.5468 17.3229Z" fill="#5F0000"/>
<path d="M41.4078 19.7761C38.1118 21.078 38.1302 25.5011 41.4446 26.753C42.3653 27.1035 43.912 27.0868 44.8142 26.7029C46.2504 26.1187 47.3 24.6499 47.3 23.2646C47.3 21.8792 46.2504 20.4104 44.8142 19.8262C43.912 19.4423 42.2916 19.4256 41.4078 19.7761ZM44.0593 22.5468C44.6853 23.348 44.1882 24.3495 43.1938 24.3495C42.4941 24.3495 42.2732 24.2326 41.9786 23.7152C41.5551 22.9808 42.1627 22.1796 43.157 22.1796C43.5989 22.1796 43.8751 22.2965 44.0593 22.5468Z" fill="#5F0000"/>
<path d="M15.5744 34.2145C15.0404 34.4649 13.9356 35.7 10.8054 39.5056C-0.794897 53.5928 -0.242502 52.8417 0.162587 54.227C0.438785 55.1617 1.02801 55.7125 3.34806 57.198C5.92591 58.8504 6.03639 58.9005 7.04911 58.9005C8.08025 58.9005 8.76154 58.6668 9.406 58.116C9.68219 57.8657 9.93998 57.6988 9.9768 57.7488C10.0136 57.7822 10.4187 58.3831 10.8975 59.0841C11.3578 59.7684 12.3705 61.087 13.1439 61.9883C13.8988 62.9064 14.5249 63.7075 14.5249 63.791C14.5249 63.8577 14.3776 64.1248 14.2118 64.3585C13.7699 64.9593 13.7883 66.545 14.2302 67.6967C14.8931 69.4659 17.0106 71.0182 19.0361 71.2018C19.9567 71.2852 20.012 71.3186 20.2145 71.9028C20.5091 72.8208 21.4114 73.9558 22.2952 74.54C23.1606 75.0908 24.5784 75.5915 25.315 75.5915C25.6464 75.5915 25.8121 75.725 25.9594 76.0589C26.7696 78.0952 28.5741 79.3971 30.8389 79.564C32.1278 79.6474 32.9933 79.4471 34.3006 78.7294L35.2028 78.2287L36.9153 78.7461C39.9719 79.6641 41.7211 79.9813 43.8018 79.9979C45.2564 80.0146 45.993 79.9312 46.7295 79.6975C48.0736 79.2802 49.3257 78.1953 49.9518 76.9435L50.4305 75.9587L52.3271 75.892C53.929 75.8419 54.3709 75.7751 55.2548 75.3745C55.8256 75.1242 56.5621 74.6401 56.8935 74.3063C57.7037 73.4718 58.4034 72.0196 58.4955 70.9848L58.5691 70.1169L59.6555 70.0167C62.6569 69.6996 64.3141 68.4645 65.1979 65.8607C65.7687 64.1415 65.3268 62.4557 63.8906 60.82C63.2277 60.0856 63.2277 59.7684 63.9826 58.6501C64.8664 57.2982 64.9033 57.2815 65.4188 57.8657C66.2843 58.7837 67.8862 59.1676 69.1199 58.7336C69.838 58.4832 73.9073 55.8127 74.3492 55.2953C74.9385 54.6109 75.141 53.6929 74.9016 52.8584C74.7543 52.3243 72.8209 49.854 67.4811 43.3779C59.4714 33.6804 59.6187 33.7972 57.7774 33.9141C56.8015 33.9641 56.5989 34.0643 54.2421 35.5832C51.3696 37.4359 50.9277 37.9366 50.9461 39.2886V40.1899L49.6388 40.4736C48.7181 40.6572 46.9136 40.7908 43.8018 40.8909C41.316 40.9577 38.9039 41.1079 38.4251 41.1914C37.8175 41.3082 37.2651 41.3082 36.6759 41.1914C36.1787 41.1079 33.7666 40.9577 31.2808 40.8909C28.1506 40.7908 26.3645 40.6572 25.4439 40.457L24.0997 40.1732V39.2385C24.0997 38.5041 23.9892 38.1369 23.6578 37.7029C23.2527 37.1521 19.6805 34.6986 18.4653 34.1144C17.7287 33.7639 16.4214 33.8139 15.5744 34.2145ZM19.2939 37.8365C20.3618 38.5375 21.2272 39.1884 21.2088 39.2719C21.1904 39.5556 7.41737 56.2133 7.178 56.2133C7.04911 56.23 6.07321 55.6791 5.02366 55.0115C3.69792 54.177 3.12711 53.7263 3.16393 53.526C3.21917 53.1087 16.9002 36.5346 17.1579 36.5513C17.2868 36.5513 18.2443 37.1354 19.2939 37.8365ZM65.2163 45.1137C69.0462 49.7705 72.1212 53.6428 72.0292 53.7263C71.2006 54.3939 68.0519 56.2466 67.8494 56.1799C67.5916 56.0797 53.929 39.5723 53.8922 39.2886C53.8554 39.0549 57.6485 36.5513 57.9615 36.5846C58.1088 36.6013 61.3679 40.4403 65.2163 45.1137ZM24.8362 43.0274C25.7937 43.2277 27.6534 43.428 28.9608 43.4947L31.3361 43.5949L29.9735 44.2291C29.2186 44.5796 27.322 45.3307 25.7569 45.8982C24.1734 46.4657 22.6635 47.1167 22.3689 47.367C21.2457 48.3017 21.0431 49.6203 21.8165 51.0224C22.8292 52.8751 24.8731 54.177 27.009 54.3439C28.2243 54.444 29.3475 54.2103 32.3856 53.2423C38.3331 51.3562 42.2551 52.1407 48.2762 56.4469C54.2789 60.7198 56.8199 61.9049 59.9501 61.9049C61.0918 61.9049 61.1102 61.9049 61.6626 62.6059C62.528 63.6908 62.7121 64.4085 62.3254 65.3265C62.1413 65.7438 61.7915 66.2946 61.5521 66.5617C60.2816 67.9303 56.6726 67.5965 50.7067 65.5769C49.3626 65.1096 48.1289 64.7424 47.9632 64.7424C47.8159 64.7424 47.466 64.926 47.1898 65.1263C46.5269 65.6437 46.5085 66.4448 47.1346 66.9956C47.6317 67.4296 50.7251 68.5145 53.5792 69.2656C54.6103 69.5327 55.5126 69.7997 55.5678 69.8331C55.8072 70.0668 55.623 71.1183 55.2179 71.836C54.5735 72.9543 53.8922 73.2548 51.9036 73.2548C49.9334 73.2548 47.3924 72.704 44.078 71.5857C42.7154 71.1183 41.4265 70.7511 41.1871 70.7511C40.1192 70.7511 39.4379 71.8861 40.0271 72.6873C40.3954 73.188 41.2239 73.5385 44.7224 74.6067C47.5765 75.4747 47.6133 75.5081 46.9873 76.376C46.2507 77.3941 44.3358 77.6445 41.5001 77.1104C39.088 76.6597 37.615 76.1924 37.6702 75.9086C37.6886 75.7751 37.8359 75.3412 38.0016 74.9239C39.0512 72.3868 36.8232 69.3825 33.6193 68.9819C32.846 68.8817 32.7907 68.8484 32.6802 68.2642C32.5329 67.4129 31.6307 66.1945 30.71 65.5769C29.8078 64.9927 28.4084 64.5755 27.322 64.5755C26.5855 64.5755 26.5487 64.5421 26.3461 63.9412C25.3518 60.9201 21.8165 59.7518 18.41 61.2873C17.6551 61.6211 16.9738 61.9049 16.9002 61.9049C16.7528 61.9049 14.2487 58.8504 13.3832 57.6487C12.4994 56.3802 11.9102 55.2118 12.0943 55.0115C12.168 54.8947 14.5249 52.0405 17.2868 48.6689C21.5219 43.4947 22.3873 42.5266 22.7187 42.5934C22.9213 42.6435 23.8787 42.8438 24.8362 43.0274ZM57.8326 48.6689C60.613 52.0572 62.9515 54.9114 63.0251 55.0282C63.0988 55.145 62.8962 55.5122 62.4911 55.9462C62.1229 56.3301 61.4968 57.2481 61.0918 57.9992L60.3736 59.3512L59.2504 59.201C56.9856 58.9339 55.5678 58.2162 51.3512 55.2285C45.2748 50.9389 42.8811 49.9374 38.3699 49.7705C35.5343 49.6704 33.5457 49.9875 30.6364 50.9723C28.7398 51.6232 27.4325 51.8402 26.5855 51.6566C25.9594 51.5064 24.7442 50.5049 24.468 49.8874C24.3391 49.6036 24.2654 49.3533 24.3022 49.3199C24.3391 49.3032 25.407 48.9193 26.6775 48.4686C27.9481 48.0347 30.4338 47.0165 32.2015 46.1987C37.173 43.9287 38.8671 43.5448 43.9675 43.5448C47.0057 43.5448 49.5835 43.2944 51.4433 42.8104C51.9588 42.6769 52.456 42.56 52.5849 42.56C52.6953 42.5433 55.0706 45.2973 57.8326 48.6689ZM22.4241 63.4738C23.1422 63.8244 23.5473 64.4419 23.5473 65.193C23.5289 65.7772 23.4552 65.8774 22.4978 66.4115C21.9454 66.7286 21.1352 67.3462 20.7301 67.7801C19.8831 68.6981 19.4596 68.7816 18.3548 68.2141C17.5262 67.7801 17.0106 67.0958 16.8265 66.1945C16.6976 65.627 16.7528 65.5268 17.3605 64.9927C18.2443 64.2416 20.4907 63.2402 21.2825 63.2402C21.6323 63.2402 22.1479 63.357 22.4241 63.4738ZM28.7214 67.6299C29.5684 68.1306 30.0656 69.082 29.8998 69.8832C29.6789 71.0182 27.0826 72.921 25.7569 72.921C24.2838 72.921 22.9949 71.836 22.866 70.4507C22.7924 69.733 22.8292 69.6161 23.4 69.1321C24.247 68.3977 26.7328 67.246 27.4877 67.246C27.8192 67.246 28.3716 67.4129 28.7214 67.6299ZM34.1901 71.9195C34.9451 72.3368 35.4054 73.2715 35.2397 74.0559C35.0924 74.7403 33.6745 76.0756 32.5145 76.6097C31.0783 77.2773 29.4395 76.7265 28.7951 75.3412C28.5557 74.8571 28.5741 74.8404 29.4395 74.3063C29.9183 74.0226 30.8021 73.2882 31.3913 72.6873C32.6066 71.4688 33.1037 71.3186 34.1901 71.9195Z" fill="#5F0000"/>
</svg>
