<svg width="647" height="176" viewBox="0 0 647 176" fill="none" xmlns="http://www.w3.org/2000/svg">
<rect x="1.5" y="1.5" width="642.029" height="173" rx="16.5" fill="white"/>
<rect x="1.5" y="1.5" width="642.029" height="173" rx="16.5" fill="#F13636"/>
<rect x="1.5" y="1.5" width="642.029" height="173" rx="16.5" stroke="#F7A9A0" stroke-width="3"/>
<path d="M138.865 66L147.37 47.1H150.826L159.358 66H155.686L148.369 48.963H149.773L142.483 66H138.865ZM142.78 61.626L143.725 58.872H153.931L154.876 61.626H142.78ZM161.447 66V50.772C161.447 49.26 161.888 48.054 162.77 47.154C163.67 46.236 164.948 45.777 166.604 45.777C167.198 45.777 167.756 45.84 168.278 45.966C168.818 46.092 169.268 46.29 169.628 46.56L168.71 49.098C168.458 48.9 168.17 48.756 167.846 48.666C167.522 48.558 167.189 48.504 166.847 48.504C166.145 48.504 165.614 48.702 165.254 49.098C164.894 49.476 164.714 50.052 164.714 50.826V52.446L164.822 53.958V66H161.447ZM159.071 54.39V51.69H168.683V54.39H159.071ZM171.043 66V50.772C171.043 49.26 171.484 48.054 172.366 47.154C173.266 46.236 174.544 45.777 176.2 45.777C176.794 45.777 177.352 45.84 177.874 45.966C178.414 46.092 178.864 46.29 179.224 46.56L178.306 49.098C178.054 48.9 177.766 48.756 177.442 48.666C177.118 48.558 176.785 48.504 176.443 48.504C175.741 48.504 175.21 48.702 174.85 49.098C174.49 49.476 174.31 50.052 174.31 50.826V52.446L174.418 53.958V66H171.043ZM168.667 54.39V51.69H178.279V54.39H168.667ZM186.369 66.189C184.893 66.189 183.579 65.874 182.427 65.244C181.275 64.596 180.366 63.714 179.7 62.598C179.034 61.482 178.701 60.213 178.701 58.791C178.701 57.351 179.034 56.082 179.7 54.984C180.366 53.868 181.275 52.995 182.427 52.365C183.579 51.735 184.893 51.42 186.369 51.42C187.863 51.42 189.186 51.735 190.338 52.365C191.508 52.995 192.417 53.859 193.065 54.957C193.731 56.055 194.064 57.333 194.064 58.791C194.064 60.213 193.731 61.482 193.065 62.598C192.417 63.714 191.508 64.596 190.338 65.244C189.186 65.874 187.863 66.189 186.369 66.189ZM186.369 63.3C187.197 63.3 187.935 63.12 188.583 62.76C189.231 62.4 189.735 61.878 190.095 61.194C190.473 60.51 190.662 59.709 190.662 58.791C190.662 57.855 190.473 57.054 190.095 56.388C189.735 55.704 189.231 55.182 188.583 54.822C187.935 54.462 187.206 54.282 186.396 54.282C185.568 54.282 184.83 54.462 184.182 54.822C183.552 55.182 183.048 55.704 182.67 56.388C182.292 57.054 182.103 57.855 182.103 58.791C182.103 59.709 182.292 60.51 182.67 61.194C183.048 61.878 183.552 62.4 184.182 62.76C184.83 63.12 185.559 63.3 186.369 63.3ZM196.842 66V51.582H200.055V55.551L199.677 54.39C200.109 53.418 200.784 52.68 201.702 52.176C202.638 51.672 203.799 51.42 205.185 51.42V54.633C205.041 54.597 204.906 54.579 204.78 54.579C204.654 54.561 204.528 54.552 204.402 54.552C203.124 54.552 202.107 54.93 201.351 55.686C200.595 56.424 200.217 57.531 200.217 59.007V66H196.842ZM213.568 66.189C212.182 66.189 210.931 65.883 209.815 65.271C208.717 64.641 207.853 63.777 207.223 62.679C206.593 61.581 206.278 60.285 206.278 58.791C206.278 57.297 206.593 56.001 207.223 54.903C207.853 53.805 208.717 52.95 209.815 52.338C210.931 51.726 212.182 51.42 213.568 51.42C214.774 51.42 215.854 51.69 216.808 52.23C217.762 52.752 218.518 53.553 219.076 54.633C219.634 55.713 219.913 57.099 219.913 58.791C219.913 60.465 219.643 61.851 219.103 62.949C218.563 64.029 217.816 64.839 216.862 65.379C215.908 65.919 214.81 66.189 213.568 66.189ZM213.973 63.3C214.783 63.3 215.503 63.12 216.133 62.76C216.781 62.4 217.294 61.878 217.672 61.194C218.068 60.51 218.266 59.709 218.266 58.791C218.266 57.855 218.068 57.054 217.672 56.388C217.294 55.704 216.781 55.182 216.133 54.822C215.503 54.462 214.783 54.282 213.973 54.282C213.163 54.282 212.434 54.462 211.786 54.822C211.156 55.182 210.643 55.704 210.247 56.388C209.869 57.054 209.68 57.855 209.68 58.791C209.68 59.709 209.869 60.51 210.247 61.194C210.643 61.878 211.156 62.4 211.786 62.76C212.434 63.12 213.163 63.3 213.973 63.3ZM218.347 66V62.598L218.482 58.764L218.212 54.93V45.966H221.56V66H218.347ZM234.435 66V63.084L234.246 62.463V57.36C234.246 56.37 233.949 55.605 233.355 55.065C232.761 54.507 231.861 54.228 230.655 54.228C229.845 54.228 229.044 54.354 228.252 54.606C227.478 54.858 226.821 55.209 226.281 55.659L224.958 53.202C225.732 52.608 226.65 52.167 227.712 51.879C228.792 51.573 229.908 51.42 231.06 51.42C233.148 51.42 234.759 51.924 235.893 52.932C237.045 53.922 237.621 55.461 237.621 57.549V66H234.435ZM229.899 66.189C228.819 66.189 227.874 66.009 227.064 65.649C226.254 65.271 225.624 64.758 225.174 64.11C224.742 63.444 224.526 62.697 224.526 61.869C224.526 61.059 224.715 60.33 225.093 59.682C225.489 59.034 226.128 58.521 227.01 58.143C227.892 57.765 229.062 57.576 230.52 57.576H234.705V59.817H230.763C229.611 59.817 228.837 60.006 228.441 60.384C228.045 60.744 227.847 61.194 227.847 61.734C227.847 62.346 228.09 62.832 228.576 63.192C229.062 63.552 229.737 63.732 230.601 63.732C231.429 63.732 232.167 63.543 232.815 63.165C233.481 62.787 233.958 62.229 234.246 61.491L234.813 63.516C234.489 64.362 233.904 65.019 233.058 65.487C232.23 65.955 231.177 66.189 229.899 66.189ZM249.494 66.189C248.27 66.189 247.181 65.919 246.227 65.379C245.273 64.839 244.517 64.029 243.959 62.949C243.419 61.851 243.149 60.465 243.149 58.791C243.149 57.099 243.428 55.713 243.986 54.633C244.562 53.553 245.327 52.752 246.281 52.23C247.253 51.69 248.324 51.42 249.494 51.42C250.916 51.42 252.167 51.726 253.247 52.338C254.345 52.95 255.209 53.805 255.839 54.903C256.487 56.001 256.811 57.297 256.811 58.791C256.811 60.285 256.487 61.581 255.839 62.679C255.209 63.777 254.345 64.641 253.247 65.271C252.167 65.883 250.916 66.189 249.494 66.189ZM241.502 66V45.966H244.877V54.93L244.607 58.764L244.715 62.598V66H241.502ZM249.116 63.3C249.926 63.3 250.646 63.12 251.276 62.76C251.924 62.4 252.437 61.878 252.815 61.194C253.193 60.51 253.382 59.709 253.382 58.791C253.382 57.855 253.193 57.054 252.815 56.388C252.437 55.704 251.924 55.182 251.276 54.822C250.646 54.462 249.926 54.282 249.116 54.282C248.306 54.282 247.577 54.462 246.929 54.822C246.281 55.182 245.768 55.704 245.39 56.388C245.012 57.054 244.823 57.855 244.823 58.791C244.823 59.709 245.012 60.51 245.39 61.194C245.768 61.878 246.281 62.4 246.929 62.76C247.577 63.12 248.306 63.3 249.116 63.3ZM259.562 66V45.966H262.937V66H259.562ZM273.694 66.189C272.092 66.189 270.688 65.874 269.482 65.244C268.294 64.596 267.367 63.714 266.701 62.598C266.053 61.482 265.729 60.213 265.729 58.791C265.729 57.351 266.044 56.082 266.674 54.984C267.322 53.868 268.204 52.995 269.32 52.365C270.454 51.735 271.741 51.42 273.181 51.42C274.585 51.42 275.836 51.726 276.934 52.338C278.032 52.95 278.896 53.814 279.526 54.93C280.156 56.046 280.471 57.36 280.471 58.872C280.471 59.016 280.462 59.178 280.444 59.358C280.444 59.538 280.435 59.709 280.417 59.871H268.402V57.63H278.635L277.312 58.332C277.33 57.504 277.159 56.775 276.799 56.145C276.439 55.515 275.944 55.02 275.314 54.66C274.702 54.3 273.991 54.12 273.181 54.12C272.353 54.12 271.624 54.3 270.994 54.66C270.382 55.02 269.896 55.524 269.536 56.172C269.194 56.802 269.023 57.549 269.023 58.413V58.953C269.023 59.817 269.221 60.582 269.617 61.248C270.013 61.914 270.571 62.427 271.291 62.787C272.011 63.147 272.839 63.327 273.775 63.327C274.585 63.327 275.314 63.201 275.962 62.949C276.61 62.697 277.186 62.301 277.69 61.761L279.499 63.84C278.851 64.596 278.032 65.181 277.042 65.595C276.07 65.991 274.954 66.189 273.694 66.189ZM290.599 66V47.1H298.861C300.913 47.1 302.713 47.496 304.261 48.288C305.809 49.08 307.015 50.178 307.879 51.582C308.743 52.986 309.175 54.642 309.175 56.55C309.175 58.44 308.743 60.096 307.879 61.518C307.015 62.922 305.809 64.02 304.261 64.812C302.713 65.604 300.913 66 298.861 66H290.599ZM294.109 63.03H298.699C300.121 63.03 301.345 62.76 302.371 62.22C303.415 61.68 304.216 60.924 304.774 59.952C305.35 58.98 305.638 57.846 305.638 56.55C305.638 55.236 305.35 54.102 304.774 53.148C304.216 52.176 303.415 51.42 302.371 50.88C301.345 50.34 300.121 50.07 298.699 50.07H294.109V63.03ZM318.908 66.189C317.306 66.189 315.902 65.874 314.696 65.244C313.508 64.596 312.581 63.714 311.915 62.598C311.267 61.482 310.943 60.213 310.943 58.791C310.943 57.351 311.258 56.082 311.888 54.984C312.536 53.868 313.418 52.995 314.534 52.365C315.668 51.735 316.955 51.42 318.395 51.42C319.799 51.42 321.05 51.726 322.148 52.338C323.246 52.95 324.11 53.814 324.74 54.93C325.37 56.046 325.685 57.36 325.685 58.872C325.685 59.016 325.676 59.178 325.658 59.358C325.658 59.538 325.649 59.709 325.631 59.871H313.616V57.63H323.849L322.526 58.332C322.544 57.504 322.373 56.775 322.013 56.145C321.653 55.515 321.158 55.02 320.528 54.66C319.916 54.3 319.205 54.12 318.395 54.12C317.567 54.12 316.838 54.3 316.208 54.66C315.596 55.02 315.11 55.524 314.75 56.172C314.408 56.802 314.237 57.549 314.237 58.413V58.953C314.237 59.817 314.435 60.582 314.831 61.248C315.227 61.914 315.785 62.427 316.505 62.787C317.225 63.147 318.053 63.327 318.989 63.327C319.799 63.327 320.528 63.201 321.176 62.949C321.824 62.697 322.4 62.301 322.904 61.761L324.713 63.84C324.065 64.596 323.246 65.181 322.256 65.595C321.284 65.991 320.168 66.189 318.908 66.189ZM336.965 66V63.084L336.776 62.463V57.36C336.776 56.37 336.479 55.605 335.885 55.065C335.291 54.507 334.391 54.228 333.185 54.228C332.375 54.228 331.574 54.354 330.782 54.606C330.008 54.858 329.351 55.209 328.811 55.659L327.488 53.202C328.262 52.608 329.18 52.167 330.242 51.879C331.322 51.573 332.438 51.42 333.59 51.42C335.678 51.42 337.289 51.924 338.423 52.932C339.575 53.922 340.151 55.461 340.151 57.549V66H336.965ZM332.429 66.189C331.349 66.189 330.404 66.009 329.594 65.649C328.784 65.271 328.154 64.758 327.704 64.11C327.272 63.444 327.056 62.697 327.056 61.869C327.056 61.059 327.245 60.33 327.623 59.682C328.019 59.034 328.658 58.521 329.54 58.143C330.422 57.765 331.592 57.576 333.05 57.576H337.235V59.817H333.293C332.141 59.817 331.367 60.006 330.971 60.384C330.575 60.744 330.377 61.194 330.377 61.734C330.377 62.346 330.62 62.832 331.106 63.192C331.592 63.552 332.267 63.732 333.131 63.732C333.959 63.732 334.697 63.543 335.345 63.165C336.011 62.787 336.488 62.229 336.776 61.491L337.343 63.516C337.019 64.362 336.434 65.019 335.588 65.487C334.76 65.955 333.707 66.189 332.429 66.189ZM344.032 66V45.966H347.407V66H344.032ZM355.842 66.189C354.636 66.189 353.475 66.036 352.359 65.73C351.261 65.406 350.388 65.019 349.74 64.569L351.036 62.004C351.684 62.418 352.458 62.76 353.358 63.03C354.258 63.3 355.158 63.435 356.058 63.435C357.12 63.435 357.885 63.291 358.353 63.003C358.839 62.715 359.082 62.328 359.082 61.842C359.082 61.446 358.92 61.149 358.596 60.951C358.272 60.735 357.849 60.573 357.327 60.465C356.805 60.357 356.22 60.258 355.572 60.168C354.942 60.078 354.303 59.961 353.655 59.817C353.025 59.655 352.449 59.43 351.927 59.142C351.405 58.836 350.982 58.431 350.658 57.927C350.334 57.423 350.172 56.757 350.172 55.929C350.172 55.011 350.433 54.219 350.955 53.553C351.477 52.869 352.206 52.347 353.142 51.987C354.096 51.609 355.221 51.42 356.517 51.42C357.489 51.42 358.47 51.528 359.46 51.744C360.45 51.96 361.269 52.266 361.917 52.662L360.621 55.227C359.937 54.813 359.244 54.534 358.542 54.39C357.858 54.228 357.174 54.147 356.49 54.147C355.464 54.147 354.699 54.3 354.195 54.606C353.709 54.912 353.466 55.299 353.466 55.767C353.466 56.199 353.628 56.523 353.952 56.739C354.276 56.955 354.699 57.126 355.221 57.252C355.743 57.378 356.319 57.486 356.949 57.576C357.597 57.648 358.236 57.765 358.866 57.927C359.496 58.089 360.072 58.314 360.594 58.602C361.134 58.872 361.566 59.259 361.89 59.763C362.214 60.267 362.376 60.924 362.376 61.734C362.376 62.634 362.106 63.417 361.566 64.083C361.044 64.749 360.297 65.271 359.325 65.649C358.353 66.009 357.192 66.189 355.842 66.189Z" fill="white"/>
<path d="M143.04 111L149.44 97H150.9L157.3 111H155.74L149.86 97.86H150.46L144.58 111H143.04ZM145.56 107.26L146 106.06H154.14L154.58 107.26H145.56ZM159.556 111V99.18C159.556 98.2467 159.829 97.4933 160.376 96.92C160.923 96.3467 161.709 96.06 162.736 96.06C163.136 96.06 163.523 96.1133 163.896 96.22C164.269 96.3267 164.583 96.4933 164.836 96.72L164.356 97.78C164.156 97.6067 163.923 97.48 163.656 97.4C163.389 97.3067 163.103 97.26 162.796 97.26C162.196 97.26 161.736 97.4267 161.416 97.76C161.096 98.0933 160.936 98.5867 160.936 99.24V100.84L160.976 101.5V111H159.556ZM157.676 101.68V100.5H164.176V101.68H157.676ZM166.372 111V99.18C166.372 98.2467 166.646 97.4933 167.192 96.92C167.739 96.3467 168.526 96.06 169.552 96.06C169.952 96.06 170.339 96.1133 170.712 96.22C171.086 96.3267 171.399 96.4933 171.652 96.72L171.172 97.78C170.972 97.6067 170.739 97.48 170.472 97.4C170.206 97.3067 169.919 97.26 169.612 97.26C169.012 97.26 168.552 97.4267 168.232 97.76C167.912 98.0933 167.752 98.5867 167.752 99.24V100.84L167.792 101.5V111H166.372ZM164.492 101.68V100.5H170.992V101.68H164.492ZM177.014 111.1C176.001 111.1 175.087 110.873 174.274 110.42C173.474 109.953 172.841 109.32 172.374 108.52C171.907 107.707 171.674 106.78 171.674 105.74C171.674 104.687 171.907 103.76 172.374 102.96C172.841 102.16 173.474 101.533 174.274 101.08C175.074 100.627 175.987 100.4 177.014 100.4C178.054 100.4 178.974 100.627 179.774 101.08C180.587 101.533 181.221 102.16 181.674 102.96C182.141 103.76 182.374 104.687 182.374 105.74C182.374 106.78 182.141 107.707 181.674 108.52C181.221 109.32 180.587 109.953 179.774 110.42C178.961 110.873 178.041 111.1 177.014 111.1ZM177.014 109.84C177.774 109.84 178.447 109.673 179.034 109.34C179.621 108.993 180.081 108.513 180.414 107.9C180.761 107.273 180.934 106.553 180.934 105.74C180.934 104.913 180.761 104.193 180.414 103.58C180.081 102.967 179.621 102.493 179.034 102.16C178.447 101.813 177.781 101.64 177.034 101.64C176.287 101.64 175.621 101.813 175.034 102.16C174.447 102.493 173.981 102.967 173.634 103.58C173.287 104.193 173.114 104.913 173.114 105.74C173.114 106.553 173.287 107.273 173.634 107.9C173.981 108.513 174.447 108.993 175.034 109.34C175.621 109.673 176.281 109.84 177.014 109.84ZM185.273 111V100.5H186.633V103.36L186.493 102.86C186.786 102.06 187.28 101.453 187.973 101.04C188.666 100.613 189.526 100.4 190.553 100.4V101.78C190.5 101.78 190.446 101.78 190.393 101.78C190.34 101.767 190.286 101.76 190.233 101.76C189.126 101.76 188.26 102.1 187.633 102.78C187.006 103.447 186.693 104.4 186.693 105.64V111H185.273ZM197.226 111.1C196.226 111.1 195.326 110.873 194.526 110.42C193.74 109.967 193.12 109.34 192.666 108.54C192.213 107.727 191.986 106.793 191.986 105.74C191.986 104.673 192.213 103.74 192.666 102.94C193.12 102.14 193.74 101.52 194.526 101.08C195.326 100.627 196.226 100.4 197.226 100.4C198.146 100.4 198.966 100.607 199.686 101.02C200.42 101.433 201 102.04 201.426 102.84C201.866 103.627 202.086 104.593 202.086 105.74C202.086 106.873 201.873 107.84 201.446 108.64C201.02 109.44 200.44 110.053 199.706 110.48C198.986 110.893 198.16 111.1 197.226 111.1ZM197.326 109.84C198.073 109.84 198.74 109.673 199.326 109.34C199.926 108.993 200.393 108.513 200.726 107.9C201.073 107.273 201.246 106.553 201.246 105.74C201.246 104.913 201.073 104.193 200.726 103.58C200.393 102.967 199.926 102.493 199.326 102.16C198.74 101.813 198.073 101.64 197.326 101.64C196.593 101.64 195.933 101.813 195.346 102.16C194.76 102.493 194.293 102.967 193.946 103.58C193.6 104.193 193.426 104.913 193.426 105.74C193.426 106.553 193.6 107.273 193.946 107.9C194.293 108.513 194.76 108.993 195.346 109.34C195.933 109.673 196.593 109.84 197.326 109.84ZM201.286 111V107.84L201.426 105.72L201.226 103.6V96.16H202.646V111H201.286ZM213.181 111V108.68L213.121 108.3V104.42C213.121 103.527 212.868 102.84 212.361 102.36C211.868 101.88 211.128 101.64 210.141 101.64C209.461 101.64 208.814 101.753 208.201 101.98C207.588 102.207 207.068 102.507 206.641 102.88L206.001 101.82C206.534 101.367 207.174 101.02 207.921 100.78C208.668 100.527 209.454 100.4 210.281 100.4C211.641 100.4 212.688 100.74 213.421 101.42C214.168 102.087 214.541 103.107 214.541 104.48V111H213.181ZM209.561 111.1C208.774 111.1 208.088 110.973 207.501 110.72C206.928 110.453 206.488 110.093 206.181 109.64C205.874 109.173 205.721 108.64 205.721 108.04C205.721 107.493 205.848 107 206.101 106.56C206.368 106.107 206.794 105.747 207.381 105.48C207.981 105.2 208.781 105.06 209.781 105.06H213.401V106.12H209.821C208.808 106.12 208.101 106.3 207.701 106.66C207.314 107.02 207.121 107.467 207.121 108C207.121 108.6 207.354 109.08 207.821 109.44C208.288 109.8 208.941 109.98 209.781 109.98C210.581 109.98 211.268 109.8 211.841 109.44C212.428 109.067 212.854 108.533 213.121 107.84L213.441 108.82C213.174 109.513 212.708 110.067 212.041 110.48C211.388 110.893 210.561 111.1 209.561 111.1ZM223.818 111.1C222.898 111.1 222.071 110.893 221.338 110.48C220.605 110.053 220.025 109.44 219.598 108.64C219.171 107.84 218.958 106.873 218.958 105.74C218.958 104.593 219.171 103.627 219.598 102.84C220.038 102.04 220.625 101.433 221.358 101.02C222.091 100.607 222.911 100.4 223.818 100.4C224.818 100.4 225.711 100.627 226.498 101.08C227.298 101.52 227.925 102.14 228.378 102.94C228.831 103.74 229.058 104.673 229.058 105.74C229.058 106.793 228.831 107.727 228.378 108.54C227.925 109.34 227.298 109.967 226.498 110.42C225.711 110.873 224.818 111.1 223.818 111.1ZM218.398 111V96.16H219.818V103.6L219.618 105.72L219.758 107.84V111H218.398ZM223.718 109.84C224.465 109.84 225.131 109.673 225.718 109.34C226.305 108.993 226.771 108.513 227.118 107.9C227.465 107.273 227.638 106.553 227.638 105.74C227.638 104.913 227.465 104.193 227.118 103.58C226.771 102.967 226.305 102.493 225.718 102.16C225.131 101.813 224.465 101.64 223.718 101.64C222.971 101.64 222.298 101.813 221.698 102.16C221.111 102.493 220.645 102.967 220.298 103.58C219.965 104.193 219.798 104.913 219.798 105.74C219.798 106.553 219.965 107.273 220.298 107.9C220.645 108.513 221.111 108.993 221.698 109.34C222.298 109.673 222.971 109.84 223.718 109.84ZM231.953 111V96.16H233.373V111H231.953ZM241.784 111.1C240.69 111.1 239.73 110.873 238.904 110.42C238.077 109.953 237.43 109.32 236.964 108.52C236.497 107.707 236.264 106.78 236.264 105.74C236.264 104.7 236.484 103.78 236.924 102.98C237.377 102.18 237.99 101.553 238.764 101.1C239.55 100.633 240.43 100.4 241.404 100.4C242.39 100.4 243.264 100.627 244.024 101.08C244.797 101.52 245.404 102.147 245.844 102.96C246.284 103.76 246.504 104.687 246.504 105.74C246.504 105.807 246.497 105.88 246.484 105.96C246.484 106.027 246.484 106.1 246.484 106.18H237.344V105.12H245.724L245.164 105.54C245.164 104.78 244.997 104.107 244.664 103.52C244.344 102.92 243.904 102.453 243.344 102.12C242.784 101.787 242.137 101.62 241.404 101.62C240.684 101.62 240.037 101.787 239.464 102.12C238.89 102.453 238.444 102.92 238.124 103.52C237.804 104.12 237.644 104.807 237.644 105.58V105.8C237.644 106.6 237.817 107.307 238.164 107.92C238.524 108.52 239.017 108.993 239.644 109.34C240.284 109.673 241.01 109.84 241.824 109.84C242.464 109.84 243.057 109.727 243.604 109.5C244.164 109.273 244.644 108.927 245.044 108.46L245.844 109.38C245.377 109.94 244.79 110.367 244.084 110.66C243.39 110.953 242.624 111.1 241.784 111.1ZM258.808 111.1C257.808 111.1 256.908 110.873 256.108 110.42C255.322 109.967 254.702 109.34 254.248 108.54C253.795 107.727 253.568 106.793 253.568 105.74C253.568 104.673 253.795 103.74 254.248 102.94C254.702 102.14 255.322 101.52 256.108 101.08C256.908 100.627 257.808 100.4 258.808 100.4C259.728 100.4 260.548 100.607 261.268 101.02C262.002 101.433 262.582 102.04 263.008 102.84C263.448 103.627 263.668 104.593 263.668 105.74C263.668 106.873 263.455 107.84 263.028 108.64C262.602 109.44 262.022 110.053 261.288 110.48C260.568 110.893 259.742 111.1 258.808 111.1ZM258.908 109.84C259.655 109.84 260.322 109.673 260.908 109.34C261.508 108.993 261.975 108.513 262.308 107.9C262.655 107.273 262.828 106.553 262.828 105.74C262.828 104.913 262.655 104.193 262.308 103.58C261.975 102.967 261.508 102.493 260.908 102.16C260.322 101.813 259.655 101.64 258.908 101.64C258.175 101.64 257.515 101.813 256.928 102.16C256.342 102.493 255.875 102.967 255.528 103.58C255.182 104.193 255.008 104.913 255.008 105.74C255.008 106.553 255.182 107.273 255.528 107.9C255.875 108.513 256.342 108.993 256.928 109.34C257.515 109.673 258.175 109.84 258.908 109.84ZM262.868 111V107.84L263.008 105.72L262.808 103.6V96.16H264.228V111H262.868ZM272.643 111.1C271.55 111.1 270.59 110.873 269.763 110.42C268.936 109.953 268.29 109.32 267.823 108.52C267.356 107.707 267.123 106.78 267.123 105.74C267.123 104.7 267.343 103.78 267.783 102.98C268.236 102.18 268.85 101.553 269.623 101.1C270.41 100.633 271.29 100.4 272.263 100.4C273.25 100.4 274.123 100.627 274.883 101.08C275.656 101.52 276.263 102.147 276.703 102.96C277.143 103.76 277.363 104.687 277.363 105.74C277.363 105.807 277.356 105.88 277.343 105.96C277.343 106.027 277.343 106.1 277.343 106.18H268.203V105.12H276.583L276.023 105.54C276.023 104.78 275.856 104.107 275.523 103.52C275.203 102.92 274.763 102.453 274.203 102.12C273.643 101.787 272.996 101.62 272.263 101.62C271.543 101.62 270.896 101.787 270.323 102.12C269.75 102.453 269.303 102.92 268.983 103.52C268.663 104.12 268.503 104.807 268.503 105.58V105.8C268.503 106.6 268.676 107.307 269.023 107.92C269.383 108.52 269.876 108.993 270.503 109.34C271.143 109.673 271.87 109.84 272.683 109.84C273.323 109.84 273.916 109.727 274.463 109.5C275.023 109.273 275.503 108.927 275.903 108.46L276.703 109.38C276.236 109.94 275.65 110.367 274.943 110.66C274.25 110.953 273.483 111.1 272.643 111.1ZM286.54 111V108.68L286.48 108.3V104.42C286.48 103.527 286.227 102.84 285.72 102.36C285.227 101.88 284.487 101.64 283.5 101.64C282.82 101.64 282.174 101.753 281.56 101.98C280.947 102.207 280.427 102.507 280 102.88L279.36 101.82C279.894 101.367 280.534 101.02 281.28 100.78C282.027 100.527 282.814 100.4 283.64 100.4C285 100.4 286.047 100.74 286.78 101.42C287.527 102.087 287.9 103.107 287.9 104.48V111H286.54ZM282.92 111.1C282.134 111.1 281.447 110.973 280.86 110.72C280.287 110.453 279.847 110.093 279.54 109.64C279.234 109.173 279.08 108.64 279.08 108.04C279.08 107.493 279.207 107 279.46 106.56C279.727 106.107 280.154 105.747 280.74 105.48C281.34 105.2 282.14 105.06 283.14 105.06H286.76V106.12H283.18C282.167 106.12 281.46 106.3 281.06 106.66C280.674 107.02 280.48 107.467 280.48 108C280.48 108.6 280.714 109.08 281.18 109.44C281.647 109.8 282.3 109.98 283.14 109.98C283.94 109.98 284.627 109.8 285.2 109.44C285.787 109.067 286.214 108.533 286.48 107.84L286.8 108.82C286.534 109.513 286.067 110.067 285.4 110.48C284.747 110.893 283.92 111.1 282.92 111.1ZM291.757 111V96.16H293.177V111H291.757ZM299.948 111.1C299.082 111.1 298.262 110.98 297.488 110.74C296.715 110.487 296.108 110.173 295.668 109.8L296.308 108.68C296.735 109 297.282 109.28 297.948 109.52C298.615 109.747 299.315 109.86 300.048 109.86C301.048 109.86 301.768 109.707 302.208 109.4C302.648 109.08 302.868 108.66 302.868 108.14C302.868 107.753 302.742 107.453 302.488 107.24C302.248 107.013 301.928 106.847 301.528 106.74C301.128 106.62 300.682 106.52 300.188 106.44C299.695 106.36 299.202 106.267 298.708 106.16C298.228 106.053 297.788 105.9 297.388 105.7C296.988 105.487 296.662 105.2 296.408 104.84C296.168 104.48 296.048 104 296.048 103.4C296.048 102.827 296.208 102.313 296.528 101.86C296.848 101.407 297.315 101.053 297.928 100.8C298.555 100.533 299.315 100.4 300.208 100.4C300.888 100.4 301.568 100.493 302.248 100.68C302.928 100.853 303.488 101.087 303.928 101.38L303.308 102.52C302.842 102.2 302.342 101.973 301.808 101.84C301.275 101.693 300.742 101.62 300.208 101.62C299.262 101.62 298.562 101.787 298.108 102.12C297.668 102.44 297.448 102.853 297.448 103.36C297.448 103.76 297.568 104.073 297.808 104.3C298.062 104.527 298.388 104.707 298.788 104.84C299.202 104.96 299.648 105.06 300.128 105.14C300.622 105.22 301.108 105.32 301.588 105.44C302.082 105.547 302.528 105.7 302.928 105.9C303.342 106.087 303.668 106.36 303.908 106.72C304.162 107.067 304.288 107.527 304.288 108.1C304.288 108.713 304.115 109.247 303.768 109.7C303.435 110.14 302.942 110.487 302.288 110.74C301.648 110.98 300.868 111.1 299.948 111.1ZM316.308 111.1C315.308 111.1 314.408 110.873 313.608 110.42C312.822 109.967 312.202 109.34 311.748 108.54C311.295 107.727 311.068 106.793 311.068 105.74C311.068 104.673 311.295 103.74 311.748 102.94C312.202 102.14 312.822 101.52 313.608 101.08C314.408 100.627 315.308 100.4 316.308 100.4C317.228 100.4 318.048 100.607 318.768 101.02C319.502 101.433 320.082 102.04 320.508 102.84C320.948 103.627 321.168 104.593 321.168 105.74C321.168 106.873 320.955 107.84 320.528 108.64C320.102 109.44 319.522 110.053 318.788 110.48C318.068 110.893 317.242 111.1 316.308 111.1ZM316.408 109.84C317.155 109.84 317.822 109.673 318.408 109.34C319.008 108.993 319.475 108.513 319.808 107.9C320.155 107.273 320.328 106.553 320.328 105.74C320.328 104.913 320.155 104.193 319.808 103.58C319.475 102.967 319.008 102.493 318.408 102.16C317.822 101.813 317.155 101.64 316.408 101.64C315.675 101.64 315.015 101.813 314.428 102.16C313.842 102.493 313.375 102.967 313.028 103.58C312.682 104.193 312.508 104.913 312.508 105.74C312.508 106.553 312.682 107.273 313.028 107.9C313.375 108.513 313.842 108.993 314.428 109.34C315.015 109.673 315.675 109.84 316.408 109.84ZM320.368 111V107.84L320.508 105.72L320.308 103.6V96.16H321.728V111H320.368ZM330.143 111.1C329.05 111.1 328.09 110.873 327.263 110.42C326.436 109.953 325.79 109.32 325.323 108.52C324.856 107.707 324.623 106.78 324.623 105.74C324.623 104.7 324.843 103.78 325.283 102.98C325.736 102.18 326.35 101.553 327.123 101.1C327.91 100.633 328.79 100.4 329.763 100.4C330.75 100.4 331.623 100.627 332.383 101.08C333.156 101.52 333.763 102.147 334.203 102.96C334.643 103.76 334.863 104.687 334.863 105.74C334.863 105.807 334.856 105.88 334.843 105.96C334.843 106.027 334.843 106.1 334.843 106.18H325.703V105.12H334.083L333.523 105.54C333.523 104.78 333.356 104.107 333.023 103.52C332.703 102.92 332.263 102.453 331.703 102.12C331.143 101.787 330.496 101.62 329.763 101.62C329.043 101.62 328.396 101.787 327.823 102.12C327.25 102.453 326.803 102.92 326.483 103.52C326.163 104.12 326.003 104.807 326.003 105.58V105.8C326.003 106.6 326.176 107.307 326.523 107.92C326.883 108.52 327.376 108.993 328.003 109.34C328.643 109.673 329.37 109.84 330.183 109.84C330.823 109.84 331.416 109.727 331.963 109.5C332.523 109.273 333.003 108.927 333.403 108.46L334.203 109.38C333.736 109.94 333.15 110.367 332.443 110.66C331.75 110.953 330.983 111.1 330.143 111.1ZM340.573 111.1C339.707 111.1 338.887 110.98 338.113 110.74C337.34 110.487 336.733 110.173 336.293 109.8L336.933 108.68C337.36 109 337.907 109.28 338.573 109.52C339.24 109.747 339.94 109.86 340.673 109.86C341.673 109.86 342.393 109.707 342.833 109.4C343.273 109.08 343.493 108.66 343.493 108.14C343.493 107.753 343.367 107.453 343.113 107.24C342.873 107.013 342.553 106.847 342.153 106.74C341.753 106.62 341.307 106.52 340.813 106.44C340.32 106.36 339.827 106.267 339.333 106.16C338.853 106.053 338.413 105.9 338.013 105.7C337.613 105.487 337.287 105.2 337.033 104.84C336.793 104.48 336.673 104 336.673 103.4C336.673 102.827 336.833 102.313 337.153 101.86C337.473 101.407 337.94 101.053 338.553 100.8C339.18 100.533 339.94 100.4 340.833 100.4C341.513 100.4 342.193 100.493 342.873 100.68C343.553 100.853 344.113 101.087 344.553 101.38L343.933 102.52C343.467 102.2 342.967 101.973 342.433 101.84C341.9 101.693 341.367 101.62 340.833 101.62C339.887 101.62 339.187 101.787 338.733 102.12C338.293 102.44 338.073 102.853 338.073 103.36C338.073 103.76 338.193 104.073 338.433 104.3C338.687 104.527 339.013 104.707 339.413 104.84C339.827 104.96 340.273 105.06 340.753 105.14C341.247 105.22 341.733 105.32 342.213 105.44C342.707 105.547 343.153 105.7 343.553 105.9C343.967 106.087 344.293 106.36 344.533 106.72C344.787 107.067 344.913 107.527 344.913 108.1C344.913 108.713 344.74 109.247 344.393 109.7C344.06 110.14 343.567 110.487 342.913 110.74C342.273 110.98 341.493 111.1 340.573 111.1ZM347.519 111V100.5H348.939V111H347.519ZM348.239 98.18C347.946 98.18 347.699 98.08 347.499 97.88C347.299 97.68 347.199 97.44 347.199 97.16C347.199 96.88 347.299 96.6467 347.499 96.46C347.699 96.26 347.946 96.16 348.239 96.16C348.532 96.16 348.779 96.2533 348.979 96.44C349.179 96.6267 349.279 96.86 349.279 97.14C349.279 97.4333 349.179 97.68 348.979 97.88C348.792 98.08 348.546 98.18 348.239 98.18ZM357.37 114.98C356.41 114.98 355.49 114.84 354.61 114.56C353.73 114.28 353.017 113.88 352.47 113.36L353.19 112.28C353.683 112.72 354.29 113.067 355.01 113.32C355.743 113.587 356.517 113.72 357.33 113.72C358.663 113.72 359.643 113.407 360.27 112.78C360.897 112.167 361.21 111.207 361.21 109.9V107.28L361.41 105.48L361.27 103.68V100.5H362.63V109.72C362.63 111.533 362.183 112.86 361.29 113.7C360.41 114.553 359.103 114.98 357.37 114.98ZM357.11 110.6C356.11 110.6 355.21 110.387 354.41 109.96C353.61 109.52 352.977 108.913 352.51 108.14C352.057 107.367 351.83 106.48 351.83 105.48C351.83 104.48 352.057 103.6 352.51 102.84C352.977 102.067 353.61 101.467 354.41 101.04C355.21 100.613 356.11 100.4 357.11 100.4C358.043 100.4 358.883 100.593 359.63 100.98C360.377 101.367 360.97 101.94 361.41 102.7C361.85 103.46 362.07 104.387 362.07 105.48C362.07 106.573 361.85 107.5 361.41 108.26C360.97 109.02 360.377 109.6 359.63 110C358.883 110.4 358.043 110.6 357.11 110.6ZM357.25 109.34C358.023 109.34 358.71 109.18 359.31 108.86C359.91 108.527 360.383 108.073 360.73 107.5C361.077 106.913 361.25 106.24 361.25 105.48C361.25 104.72 361.077 104.053 360.73 103.48C360.383 102.907 359.91 102.46 359.31 102.14C358.71 101.807 358.023 101.64 357.25 101.64C356.49 101.64 355.803 101.807 355.19 102.14C354.59 102.46 354.117 102.907 353.77 103.48C353.437 104.053 353.27 104.72 353.27 105.48C353.27 106.24 353.437 106.913 353.77 107.5C354.117 108.073 354.59 108.527 355.19 108.86C355.803 109.18 356.49 109.34 357.25 109.34ZM371.942 100.4C372.795 100.4 373.542 100.567 374.182 100.9C374.835 101.22 375.342 101.713 375.702 102.38C376.075 103.047 376.262 103.887 376.262 104.9V111H374.842V105.04C374.842 103.933 374.562 103.1 374.002 102.54C373.455 101.967 372.682 101.68 371.682 101.68C370.935 101.68 370.282 101.833 369.722 102.14C369.175 102.433 368.748 102.867 368.442 103.44C368.148 104 368.002 104.68 368.002 105.48V111H366.582V100.5H367.942V103.38L367.722 102.84C368.055 102.08 368.588 101.487 369.322 101.06C370.055 100.62 370.928 100.4 371.942 100.4ZM384.557 111.1C383.464 111.1 382.504 110.873 381.677 110.42C380.851 109.953 380.204 109.32 379.737 108.52C379.271 107.707 379.037 106.78 379.037 105.74C379.037 104.7 379.257 103.78 379.697 102.98C380.151 102.18 380.764 101.553 381.537 101.1C382.324 100.633 383.204 100.4 384.177 100.4C385.164 100.4 386.037 100.627 386.797 101.08C387.571 101.52 388.177 102.147 388.617 102.96C389.057 103.76 389.277 104.687 389.277 105.74C389.277 105.807 389.271 105.88 389.257 105.96C389.257 106.027 389.257 106.1 389.257 106.18H380.117V105.12H388.497L387.937 105.54C387.937 104.78 387.771 104.107 387.437 103.52C387.117 102.92 386.677 102.453 386.117 102.12C385.557 101.787 384.911 101.62 384.177 101.62C383.457 101.62 382.811 101.787 382.237 102.12C381.664 102.453 381.217 102.92 380.897 103.52C380.577 104.12 380.417 104.807 380.417 105.58V105.8C380.417 106.6 380.591 107.307 380.937 107.92C381.297 108.52 381.791 108.993 382.417 109.34C383.057 109.673 383.784 109.84 384.597 109.84C385.237 109.84 385.831 109.727 386.377 109.5C386.937 109.273 387.417 108.927 387.817 108.46L388.617 109.38C388.151 109.94 387.564 110.367 386.857 110.66C386.164 110.953 385.397 111.1 384.557 111.1ZM396.348 111.1C395.348 111.1 394.448 110.873 393.648 110.42C392.861 109.967 392.241 109.34 391.788 108.54C391.334 107.727 391.108 106.793 391.108 105.74C391.108 104.673 391.334 103.74 391.788 102.94C392.241 102.14 392.861 101.52 393.648 101.08C394.448 100.627 395.348 100.4 396.348 100.4C397.268 100.4 398.088 100.607 398.808 101.02C399.541 101.433 400.121 102.04 400.548 102.84C400.988 103.627 401.207 104.593 401.207 105.74C401.207 106.873 400.994 107.84 400.568 108.64C400.141 109.44 399.561 110.053 398.828 110.48C398.108 110.893 397.281 111.1 396.348 111.1ZM396.448 109.84C397.194 109.84 397.861 109.673 398.448 109.34C399.048 108.993 399.514 108.513 399.848 107.9C400.194 107.273 400.368 106.553 400.368 105.74C400.368 104.913 400.194 104.193 399.848 103.58C399.514 102.967 399.048 102.493 398.448 102.16C397.861 101.813 397.194 101.64 396.448 101.64C395.714 101.64 395.054 101.813 394.468 102.16C393.881 102.493 393.414 102.967 393.068 103.58C392.721 104.193 392.548 104.913 392.548 105.74C392.548 106.553 392.721 107.273 393.068 107.9C393.414 108.513 393.881 108.993 394.468 109.34C395.054 109.673 395.714 109.84 396.448 109.84ZM400.408 111V107.84L400.548 105.72L400.348 103.6V96.16H401.768V111H400.408ZM414.277 111.1C413.29 111.1 412.53 110.833 411.997 110.3C411.463 109.767 411.197 109.013 411.197 108.04V98.18H412.617V107.96C412.617 108.573 412.77 109.047 413.077 109.38C413.397 109.713 413.85 109.88 414.437 109.88C415.063 109.88 415.583 109.7 415.997 109.34L416.497 110.36C416.217 110.613 415.877 110.8 415.477 110.92C415.09 111.04 414.69 111.1 414.277 111.1ZM409.317 101.68V100.5H415.817V101.68H409.317ZM422.99 111.1C421.977 111.1 421.064 110.873 420.25 110.42C419.45 109.953 418.817 109.32 418.35 108.52C417.884 107.707 417.65 106.78 417.65 105.74C417.65 104.687 417.884 103.76 418.35 102.96C418.817 102.16 419.45 101.533 420.25 101.08C421.05 100.627 421.964 100.4 422.99 100.4C424.03 100.4 424.95 100.627 425.75 101.08C426.564 101.533 427.197 102.16 427.65 102.96C428.117 103.76 428.35 104.687 428.35 105.74C428.35 106.78 428.117 107.707 427.65 108.52C427.197 109.32 426.564 109.953 425.75 110.42C424.937 110.873 424.017 111.1 422.99 111.1ZM422.99 109.84C423.75 109.84 424.424 109.673 425.01 109.34C425.597 108.993 426.057 108.513 426.39 107.9C426.737 107.273 426.91 106.553 426.91 105.74C426.91 104.913 426.737 104.193 426.39 103.58C426.057 102.967 425.597 102.493 425.01 102.16C424.424 101.813 423.757 101.64 423.01 101.64C422.264 101.64 421.597 101.813 421.01 102.16C420.424 102.493 419.957 102.967 419.61 103.58C419.264 104.193 419.09 104.913 419.09 105.74C419.09 106.553 419.264 107.273 419.61 107.9C419.957 108.513 420.424 108.993 421.01 109.34C421.597 109.673 422.257 109.84 422.99 109.84ZM436.724 111V99.18C436.724 98.2467 436.997 97.4933 437.544 96.92C438.091 96.3467 438.877 96.06 439.904 96.06C440.304 96.06 440.691 96.1133 441.064 96.22C441.437 96.3267 441.751 96.4933 442.004 96.72L441.524 97.78C441.324 97.6067 441.091 97.48 440.824 97.4C440.557 97.3067 440.271 97.26 439.964 97.26C439.364 97.26 438.904 97.4267 438.584 97.76C438.264 98.0933 438.104 98.5867 438.104 99.24V100.84L438.144 101.5V111H436.724ZM434.844 101.68V100.5H441.344V101.68H434.844ZM443.264 111V100.5H444.684V111H443.264ZM443.984 98.18C443.691 98.18 443.444 98.08 443.244 97.88C443.044 97.68 442.944 97.44 442.944 97.16C442.944 96.88 443.044 96.6467 443.244 96.46C443.444 96.26 443.691 96.16 443.984 96.16C444.277 96.16 444.524 96.2533 444.724 96.44C444.924 96.6267 445.024 96.86 445.024 97.14C445.024 97.4333 444.924 97.68 444.724 97.88C444.537 98.08 444.291 98.18 443.984 98.18ZM451.991 111.1C451.005 111.1 450.245 110.833 449.711 110.3C449.178 109.767 448.911 109.013 448.911 108.04V98.18H450.331V107.96C450.331 108.573 450.485 109.047 450.791 109.38C451.111 109.713 451.565 109.88 452.151 109.88C452.778 109.88 453.298 109.7 453.711 109.34L454.211 110.36C453.931 110.613 453.591 110.8 453.191 110.92C452.805 111.04 452.405 111.1 451.991 111.1ZM447.031 101.68V100.5H453.531V101.68H447.031ZM462.111 114.98C461.617 114.98 461.144 114.9 460.691 114.74C460.251 114.58 459.871 114.34 459.551 114.02L460.211 112.96C460.477 113.213 460.764 113.407 461.071 113.54C461.391 113.687 461.744 113.76 462.131 113.76C462.597 113.76 462.997 113.627 463.331 113.36C463.677 113.107 464.004 112.653 464.311 112L464.991 110.46L465.151 110.24L469.471 100.5H470.871L465.611 112.26C465.317 112.94 464.991 113.48 464.631 113.88C464.284 114.28 463.904 114.56 463.491 114.72C463.077 114.893 462.617 114.98 462.111 114.98ZM464.911 111.3L460.071 100.5H461.551L465.831 110.14L464.911 111.3ZM476.858 111.1C475.844 111.1 474.931 110.873 474.118 110.42C473.318 109.953 472.684 109.32 472.218 108.52C471.751 107.707 471.518 106.78 471.518 105.74C471.518 104.687 471.751 103.76 472.218 102.96C472.684 102.16 473.318 101.533 474.118 101.08C474.918 100.627 475.831 100.4 476.858 100.4C477.898 100.4 478.818 100.627 479.618 101.08C480.431 101.533 481.064 102.16 481.518 102.96C481.984 103.76 482.218 104.687 482.218 105.74C482.218 106.78 481.984 107.707 481.518 108.52C481.064 109.32 480.431 109.953 479.618 110.42C478.804 110.873 477.884 111.1 476.858 111.1ZM476.858 109.84C477.618 109.84 478.291 109.673 478.878 109.34C479.464 108.993 479.924 108.513 480.258 107.9C480.604 107.273 480.778 106.553 480.778 105.74C480.778 104.913 480.604 104.193 480.258 103.58C479.924 102.967 479.464 102.493 478.878 102.16C478.291 101.813 477.624 101.64 476.878 101.64C476.131 101.64 475.464 101.813 474.878 102.16C474.291 102.493 473.824 102.967 473.478 103.58C473.131 104.193 472.958 104.913 472.958 105.74C472.958 106.553 473.131 107.273 473.478 107.9C473.824 108.513 474.291 108.993 474.878 109.34C475.464 109.673 476.124 109.84 476.858 109.84ZM489.457 111.1C488.563 111.1 487.783 110.933 487.117 110.6C486.45 110.267 485.93 109.767 485.557 109.1C485.197 108.433 485.017 107.6 485.017 106.6V100.5H486.437V106.44C486.437 107.56 486.71 108.407 487.257 108.98C487.817 109.54 488.597 109.82 489.597 109.82C490.33 109.82 490.963 109.673 491.497 109.38C492.043 109.073 492.457 108.633 492.737 108.06C493.03 107.487 493.177 106.8 493.177 106V100.5H494.597V111H493.237V108.12L493.457 108.64C493.123 109.413 492.603 110.02 491.897 110.46C491.203 110.887 490.39 111.1 489.457 111.1ZM498.554 111V100.5H499.914V103.36L499.774 102.86C500.068 102.06 500.561 101.453 501.254 101.04C501.948 100.613 502.808 100.4 503.834 100.4V101.78C503.781 101.78 503.728 101.78 503.674 101.78C503.621 101.767 503.568 101.76 503.514 101.76C502.408 101.76 501.541 102.1 500.914 102.78C500.288 103.447 499.974 104.4 499.974 105.64V111H498.554ZM517.236 111.1C516.316 111.1 515.489 110.893 514.756 110.48C514.023 110.053 513.443 109.44 513.016 108.64C512.589 107.84 512.376 106.873 512.376 105.74C512.376 104.593 512.589 103.627 513.016 102.84C513.456 102.04 514.043 101.433 514.776 101.02C515.509 100.607 516.329 100.4 517.236 100.4C518.236 100.4 519.129 100.627 519.916 101.08C520.716 101.52 521.343 102.14 521.796 102.94C522.249 103.74 522.476 104.673 522.476 105.74C522.476 106.793 522.249 107.727 521.796 108.54C521.343 109.34 520.716 109.967 519.916 110.42C519.129 110.873 518.236 111.1 517.236 111.1ZM511.816 111V96.16H513.236V103.6L513.036 105.72L513.176 107.84V111H511.816ZM517.136 109.84C517.883 109.84 518.549 109.673 519.136 109.34C519.723 108.993 520.189 108.513 520.536 107.9C520.883 107.273 521.056 106.553 521.056 105.74C521.056 104.913 520.883 104.193 520.536 103.58C520.189 102.967 519.723 102.493 519.136 102.16C518.549 101.813 517.883 101.64 517.136 101.64C516.389 101.64 515.716 101.813 515.116 102.16C514.529 102.493 514.063 102.967 513.716 103.58C513.383 104.193 513.216 104.913 513.216 105.74C513.216 106.553 513.383 107.273 513.716 107.9C514.063 108.513 514.529 108.993 515.116 109.34C515.716 109.673 516.389 109.84 517.136 109.84ZM529.711 111.1C528.817 111.1 528.037 110.933 527.371 110.6C526.704 110.267 526.184 109.767 525.811 109.1C525.451 108.433 525.271 107.6 525.271 106.6V100.5H526.691V106.44C526.691 107.56 526.964 108.407 527.511 108.98C528.071 109.54 528.851 109.82 529.851 109.82C530.584 109.82 531.217 109.673 531.751 109.38C532.297 109.073 532.711 108.633 532.991 108.06C533.284 107.487 533.431 106.8 533.431 106V100.5H534.851V111H533.491V108.12L533.711 108.64C533.377 109.413 532.857 110.02 532.151 110.46C531.457 110.887 530.644 111.1 529.711 111.1ZM542.988 111.1C541.988 111.1 541.088 110.873 540.288 110.42C539.501 109.967 538.881 109.34 538.428 108.54C537.975 107.727 537.748 106.793 537.748 105.74C537.748 104.673 537.975 103.74 538.428 102.94C538.881 102.14 539.501 101.52 540.288 101.08C541.088 100.627 541.988 100.4 542.988 100.4C543.908 100.4 544.728 100.607 545.448 101.02C546.181 101.433 546.761 102.04 547.188 102.84C547.628 103.627 547.848 104.593 547.848 105.74C547.848 106.873 547.635 107.84 547.208 108.64C546.781 109.44 546.201 110.053 545.468 110.48C544.748 110.893 543.921 111.1 542.988 111.1ZM543.088 109.84C543.835 109.84 544.501 109.673 545.088 109.34C545.688 108.993 546.155 108.513 546.488 107.9C546.835 107.273 547.008 106.553 547.008 105.74C547.008 104.913 546.835 104.193 546.488 103.58C546.155 102.967 545.688 102.493 545.088 102.16C544.501 101.813 543.835 101.64 543.088 101.64C542.355 101.64 541.695 101.813 541.108 102.16C540.521 102.493 540.055 102.967 539.708 103.58C539.361 104.193 539.188 104.913 539.188 105.74C539.188 106.553 539.361 107.273 539.708 107.9C540.055 108.513 540.521 108.993 541.108 109.34C541.695 109.673 542.355 109.84 543.088 109.84ZM547.048 111V107.84L547.188 105.72L546.988 103.6V96.16H548.408V111H547.048ZM556.843 114.98C555.883 114.98 554.963 114.84 554.083 114.56C553.203 114.28 552.489 113.88 551.943 113.36L552.663 112.28C553.156 112.72 553.763 113.067 554.483 113.32C555.216 113.587 555.989 113.72 556.803 113.72C558.136 113.72 559.116 113.407 559.743 112.78C560.369 112.167 560.683 111.207 560.683 109.9V107.28L560.883 105.48L560.743 103.68V100.5H562.103V109.72C562.103 111.533 561.656 112.86 560.763 113.7C559.883 114.553 558.576 114.98 556.843 114.98ZM556.583 110.6C555.583 110.6 554.683 110.387 553.883 109.96C553.083 109.52 552.449 108.913 551.983 108.14C551.529 107.367 551.303 106.48 551.303 105.48C551.303 104.48 551.529 103.6 551.983 102.84C552.449 102.067 553.083 101.467 553.883 101.04C554.683 100.613 555.583 100.4 556.583 100.4C557.516 100.4 558.356 100.593 559.103 100.98C559.849 101.367 560.443 101.94 560.883 102.7C561.323 103.46 561.543 104.387 561.543 105.48C561.543 106.573 561.323 107.5 560.883 108.26C560.443 109.02 559.849 109.6 559.103 110C558.356 110.4 557.516 110.6 556.583 110.6ZM556.723 109.34C557.496 109.34 558.183 109.18 558.783 108.86C559.383 108.527 559.856 108.073 560.203 107.5C560.549 106.913 560.723 106.24 560.723 105.48C560.723 104.72 560.549 104.053 560.203 103.48C559.856 102.907 559.383 102.46 558.783 102.14C558.183 101.807 557.496 101.64 556.723 101.64C555.963 101.64 555.276 101.807 554.663 102.14C554.063 102.46 553.589 102.907 553.243 103.48C552.909 104.053 552.743 104.72 552.743 105.48C552.743 106.24 552.909 106.913 553.243 107.5C553.589 108.073 554.063 108.527 554.663 108.86C555.276 109.18 555.963 109.34 556.723 109.34ZM570.514 111.1C569.421 111.1 568.461 110.873 567.634 110.42C566.808 109.953 566.161 109.32 565.694 108.52C565.228 107.707 564.994 106.78 564.994 105.74C564.994 104.7 565.214 103.78 565.654 102.98C566.108 102.18 566.721 101.553 567.494 101.1C568.281 100.633 569.161 100.4 570.134 100.4C571.121 100.4 571.994 100.627 572.754 101.08C573.528 101.52 574.134 102.147 574.574 102.96C575.014 103.76 575.234 104.687 575.234 105.74C575.234 105.807 575.228 105.88 575.214 105.96C575.214 106.027 575.214 106.1 575.214 106.18H566.074V105.12H574.454L573.894 105.54C573.894 104.78 573.728 104.107 573.394 103.52C573.074 102.92 572.634 102.453 572.074 102.12C571.514 101.787 570.868 101.62 570.134 101.62C569.414 101.62 568.768 101.787 568.194 102.12C567.621 102.453 567.174 102.92 566.854 103.52C566.534 104.12 566.374 104.807 566.374 105.58V105.8C566.374 106.6 566.548 107.307 566.894 107.92C567.254 108.52 567.748 108.993 568.374 109.34C569.014 109.673 569.741 109.84 570.554 109.84C571.194 109.84 571.788 109.727 572.334 109.5C572.894 109.273 573.374 108.927 573.774 108.46L574.574 109.38C574.108 109.94 573.521 110.367 572.814 110.66C572.121 110.953 571.354 111.1 570.514 111.1ZM581.445 111.1C580.458 111.1 579.698 110.833 579.165 110.3C578.631 109.767 578.365 109.013 578.365 108.04V98.18H579.785V107.96C579.785 108.573 579.938 109.047 580.245 109.38C580.565 109.713 581.018 109.88 581.605 109.88C582.231 109.88 582.751 109.7 583.165 109.34L583.665 110.36C583.385 110.613 583.045 110.8 582.645 110.92C582.258 111.04 581.858 111.1 581.445 111.1ZM576.485 101.68V100.5H582.985V101.68H576.485ZM586.585 111.1C586.292 111.1 586.038 110.993 585.825 110.78C585.625 110.567 585.525 110.307 585.525 110C585.525 109.68 585.625 109.42 585.825 109.22C586.038 109.02 586.292 108.92 586.585 108.92C586.878 108.92 587.125 109.02 587.325 109.22C587.538 109.42 587.645 109.68 587.645 110C587.645 110.307 587.538 110.567 587.325 110.78C587.125 110.993 586.878 111.1 586.585 111.1Z" fill="white"/>
<circle cx="69.1816" cy="87.5" r="62" stroke="white" stroke-width="3"/>
<path d="M64.9389 45.3149C64.497 45.4818 63.7604 45.9491 63.2817 46.3497C62.7845 46.7503 62.1033 47.3011 61.7718 47.5515L61.1274 48.0188L58.6416 47.902C56.2663 47.8018 56.1006 47.8185 55.3272 48.1857C54.0015 48.8033 53.5227 49.5043 52.9335 51.6908C52.6573 52.7424 52.3627 53.7105 52.289 53.8106C52.2154 53.9107 51.4789 54.3614 50.6503 54.7954C47.9804 56.1807 47.0045 57.4326 47.2991 59.085C47.3543 59.4522 47.741 60.4536 48.1461 61.2882C48.5328 62.1394 48.8642 63.024 48.8642 63.241C48.8642 63.4747 48.5328 64.3426 48.1277 65.1772C47.2438 66.9965 47.0781 67.7643 47.3911 68.7657C47.7042 69.7672 48.6248 70.6018 50.4846 71.5698C51.3131 72.0038 52.1049 72.5212 52.2522 72.7382C52.3995 72.9385 52.6941 73.7897 52.8967 74.641C53.7253 78.0793 55.0326 78.9473 58.8073 78.5467C59.9673 78.4298 60.7959 78.4298 61.0905 78.53C61.3299 78.6134 62.1033 79.1476 62.803 79.715C64.3497 81.0003 65.7122 81.6011 66.7986 81.501C67.9402 81.3841 68.7504 80.9669 70.3524 79.6984C71.1257 79.0641 71.9911 78.5133 72.2489 78.4799C72.5067 78.4298 73.4458 78.4632 74.348 78.5634C78.0675 78.9639 79.4853 77.9792 80.2586 74.5241C80.4244 73.7397 80.6821 72.9385 80.811 72.7549C80.9583 72.5546 81.7317 72.0539 82.5235 71.6366C84.4384 70.6351 85.0277 70.1678 85.5248 69.2498C86.0772 68.2149 85.9299 67.1968 84.9724 65.1438C84.5489 64.2759 84.2175 63.3912 84.2175 63.2076C84.2175 63.0073 84.5489 62.1561 84.9724 61.3049C86.5559 58.0334 86.0956 56.7482 82.6155 54.8955C80.7006 53.8774 80.719 53.8941 80.1666 51.6575C79.7799 49.9717 79.5037 49.4209 78.7488 48.7866C77.736 47.9187 77.0547 47.7685 74.3664 47.902L71.9543 48.0188L70.3892 46.8004C69.5422 46.1494 68.511 45.4651 68.106 45.2982C67.1485 44.8976 65.9148 44.8976 64.9389 45.3149ZM67.4983 48.1023C67.8298 48.3526 68.511 48.8868 68.9898 49.2873C69.4685 49.6879 70.2603 50.172 70.739 50.3556C71.5124 50.6727 71.807 50.6894 74.035 50.6059C76.0604 50.5058 76.5024 50.5392 76.7417 50.7395C76.889 50.873 77.1468 51.574 77.3125 52.2917C77.9386 55.0124 78.583 55.8636 80.7926 57.032C82.2841 57.7998 82.9285 58.2838 82.9285 58.6176C82.9285 58.7511 82.5787 59.5857 82.1552 60.4703C81.4923 61.8557 81.3818 62.2563 81.3818 63.2577C81.3818 64.2592 81.4923 64.6598 82.1552 66.0451C82.5787 66.9297 82.9285 67.7643 82.9285 67.8978C82.9285 68.2149 82.5419 68.4987 80.6085 69.5669C78.6015 70.6852 78.0859 71.3195 77.5703 73.2389C76.9074 75.7593 76.8706 75.8427 76.4103 75.9596C76.1709 76.0096 75.2134 75.9763 74.2559 75.8761C71.4756 75.6091 70.7943 75.826 68.4006 77.6787C67.572 78.3297 66.7618 78.8638 66.5777 78.8638C66.3935 78.8638 65.5281 78.2963 64.6443 77.612C63.7604 76.9276 62.8766 76.2934 62.6741 76.1932C61.9191 75.826 60.575 75.7259 58.66 75.9095C56.7634 76.0764 56.7082 76.0764 56.3952 75.7092C56.211 75.5089 55.8796 74.5909 55.6587 73.6729C55.1247 71.5365 54.6091 70.7687 53.0992 69.9174C50.6503 68.5154 50.2452 68.2483 50.1899 67.998C50.1531 67.8477 50.4846 66.9798 50.9265 66.0785C51.6262 64.593 51.7182 64.2926 51.6998 63.1743C51.6998 62.0727 51.6078 61.7388 50.9265 60.4036C50.503 59.5523 50.1531 58.7511 50.1531 58.6176C50.1531 58.3005 50.7607 57.8665 52.6573 56.8317C54.5907 55.7801 55.0142 55.2126 55.6218 52.8926C55.8796 51.8911 56.2295 50.9398 56.3768 50.7895C56.6161 50.5225 56.9292 50.5058 59.1572 50.6059C62.1401 50.7228 62.3426 50.656 64.6995 48.82C65.5281 48.1857 66.3567 47.6516 66.5408 47.6516C66.725 47.6516 67.1485 47.8519 67.4983 48.1023Z" fill="#141414"/>
<path d="M64.9389 45.3149C64.497 45.4818 63.7604 45.9491 63.2817 46.3497C62.7845 46.7503 62.1033 47.3011 61.7718 47.5515L61.1274 48.0188L58.6416 47.902C56.2663 47.8018 56.1006 47.8185 55.3272 48.1857C54.0015 48.8033 53.5227 49.5043 52.9335 51.6908C52.6573 52.7424 52.3627 53.7105 52.289 53.8106C52.2154 53.9107 51.4789 54.3614 50.6503 54.7954C47.9804 56.1807 47.0045 57.4326 47.2991 59.085C47.3543 59.4522 47.741 60.4536 48.1461 61.2882C48.5328 62.1394 48.8642 63.024 48.8642 63.241C48.8642 63.4747 48.5328 64.3426 48.1277 65.1772C47.2438 66.9965 47.0781 67.7643 47.3911 68.7657C47.7042 69.7672 48.6248 70.6018 50.4846 71.5698C51.3131 72.0038 52.1049 72.5212 52.2522 72.7382C52.3995 72.9385 52.6941 73.7897 52.8967 74.641C53.7253 78.0793 55.0326 78.9473 58.8073 78.5467C59.9673 78.4298 60.7959 78.4298 61.0905 78.53C61.3299 78.6134 62.1033 79.1476 62.803 79.715C64.3497 81.0003 65.7122 81.6011 66.7986 81.501C67.9402 81.3841 68.7504 80.9669 70.3524 79.6984C71.1257 79.0641 71.9911 78.5133 72.2489 78.4799C72.5067 78.4298 73.4458 78.4632 74.348 78.5634C78.0675 78.9639 79.4853 77.9792 80.2586 74.5241C80.4244 73.7397 80.6821 72.9385 80.811 72.7549C80.9583 72.5546 81.7317 72.0539 82.5235 71.6366C84.4384 70.6351 85.0277 70.1678 85.5248 69.2498C86.0772 68.2149 85.9299 67.1968 84.9724 65.1438C84.5489 64.2759 84.2175 63.3912 84.2175 63.2076C84.2175 63.0073 84.5489 62.1561 84.9724 61.3049C86.5559 58.0334 86.0956 56.7482 82.6155 54.8955C80.7006 53.8774 80.719 53.8941 80.1666 51.6575C79.7799 49.9717 79.5037 49.4209 78.7488 48.7866C77.736 47.9187 77.0547 47.7685 74.3664 47.902L71.9543 48.0188L70.3892 46.8004C69.5422 46.1494 68.511 45.4651 68.106 45.2982C67.1485 44.8976 65.9148 44.8976 64.9389 45.3149ZM67.4983 48.1023C67.8298 48.3526 68.511 48.8868 68.9898 49.2873C69.4685 49.6879 70.2603 50.172 70.739 50.3556C71.5124 50.6727 71.807 50.6894 74.035 50.6059C76.0604 50.5058 76.5024 50.5392 76.7417 50.7395C76.889 50.873 77.1468 51.574 77.3125 52.2917C77.9386 55.0124 78.583 55.8636 80.7926 57.032C82.2841 57.7998 82.9285 58.2838 82.9285 58.6176C82.9285 58.7511 82.5787 59.5857 82.1552 60.4703C81.4923 61.8557 81.3818 62.2563 81.3818 63.2577C81.3818 64.2592 81.4923 64.6598 82.1552 66.0451C82.5787 66.9297 82.9285 67.7643 82.9285 67.8978C82.9285 68.2149 82.5419 68.4987 80.6085 69.5669C78.6015 70.6852 78.0859 71.3195 77.5703 73.2389C76.9074 75.7593 76.8706 75.8427 76.4103 75.9596C76.1709 76.0096 75.2134 75.9763 74.2559 75.8761C71.4756 75.6091 70.7943 75.826 68.4006 77.6787C67.572 78.3297 66.7618 78.8638 66.5777 78.8638C66.3935 78.8638 65.5281 78.2963 64.6443 77.612C63.7604 76.9276 62.8766 76.2934 62.6741 76.1932C61.9191 75.826 60.575 75.7259 58.66 75.9095C56.7634 76.0764 56.7082 76.0764 56.3952 75.7092C56.211 75.5089 55.8796 74.5909 55.6587 73.6729C55.1247 71.5365 54.6091 70.7687 53.0992 69.9174C50.6503 68.5154 50.2452 68.2483 50.1899 67.998C50.1531 67.8477 50.4846 66.9798 50.9265 66.0785C51.6262 64.593 51.7182 64.2926 51.6998 63.1743C51.6998 62.0727 51.6078 61.7388 50.9265 60.4036C50.503 59.5523 50.1531 58.7511 50.1531 58.6176C50.1531 58.3005 50.7607 57.8665 52.6573 56.8317C54.5907 55.7801 55.0142 55.2126 55.6218 52.8926C55.8796 51.8911 56.2295 50.9398 56.3768 50.7895C56.6161 50.5225 56.9292 50.5058 59.1572 50.6059C62.1401 50.7228 62.3426 50.656 64.6995 48.82C65.5281 48.1857 66.3567 47.6516 66.5408 47.6516C66.725 47.6516 67.1485 47.8519 67.4983 48.1023Z" fill="white"/>
<path d="M58.808 55.0286C56.4327 56.3305 56.0829 59.2348 58.0899 60.9539C60.1338 62.7065 63.4481 62.2058 64.737 59.9525C65.271 59.0011 65.2894 57.4822 64.7555 56.5809C63.9453 55.1789 62.6564 54.4945 60.8703 54.4945C59.9864 54.4945 59.6366 54.5947 58.808 55.0286ZM61.8094 57.3654C62.3065 57.7326 62.3802 58.3835 61.9382 58.8843C60.9071 60.0526 59.0658 58.7674 60.0233 57.5323C60.3363 57.115 61.2938 57.0316 61.8094 57.3654Z" fill="white"/>
<path d="M65.5468 62.3229C58.3472 68.8324 57.8316 69.3499 57.8501 69.8673C57.8685 70.2512 58.0158 70.5516 58.3472 70.802C59.3784 71.6198 59.2126 71.7367 67.517 64.209C71.752 60.3868 75.2505 57.082 75.3057 56.8817C75.5083 56.164 74.7349 55.3461 73.8143 55.3294C73.3355 55.3294 72.3044 56.214 65.5468 62.3229Z" fill="white"/>
<path d="M70.4078 64.7761C67.1118 66.078 67.1302 70.5011 70.4446 71.753C71.3653 72.1035 72.912 72.0868 73.8142 71.7029C75.2504 71.1187 76.3 69.6499 76.3 68.2646C76.3 66.8792 75.2504 65.4104 73.8142 64.8262C72.912 64.4423 71.2916 64.4256 70.4078 64.7761ZM73.0593 67.5468C73.6853 68.348 73.1882 69.3495 72.1938 69.3495C71.4941 69.3495 71.2732 69.2326 70.9786 68.7152C70.5551 67.9808 71.1627 67.1796 72.157 67.1796C72.5989 67.1796 72.8751 67.2965 73.0593 67.5468Z" fill="white"/>
<path d="M44.5744 79.2145C44.0404 79.4649 42.9356 80.7 39.8054 84.5056C28.2051 98.5928 28.7575 97.8417 29.1626 99.227C29.4388 100.162 30.028 100.713 32.3481 102.198C34.9259 103.85 35.0364 103.901 36.0491 103.901C37.0802 103.901 37.7615 103.667 38.406 103.116C38.6822 102.866 38.94 102.699 38.9768 102.749C39.0136 102.782 39.4187 103.383 39.8975 104.084C40.3578 104.768 41.3705 106.087 42.1439 106.988C42.8988 107.906 43.5249 108.708 43.5249 108.791C43.5249 108.858 43.3776 109.125 43.2118 109.358C42.7699 109.959 42.7883 111.545 43.2302 112.697C43.8931 114.466 46.0106 116.018 48.0361 116.202C48.9567 116.285 49.012 116.319 49.2145 116.903C49.5091 117.821 50.4114 118.956 51.2952 119.54C52.1606 120.091 53.5784 120.592 54.315 120.592C54.6464 120.592 54.8121 120.725 54.9594 121.059C55.7696 123.095 57.5741 124.397 59.8389 124.564C61.1278 124.647 61.9933 124.447 63.3006 123.729L64.2028 123.229L65.9153 123.746C68.9719 124.664 70.7211 124.981 72.8018 124.998C74.2564 125.015 74.993 124.931 75.7295 124.698C77.0736 124.28 78.3257 123.195 78.9518 121.943L79.4305 120.959L81.3271 120.892C82.929 120.842 83.3709 120.775 84.2548 120.375C84.8256 120.124 85.5621 119.64 85.8935 119.306C86.7037 118.472 87.4034 117.02 87.4955 115.985L87.5691 115.117L88.6555 115.017C91.6569 114.7 93.3141 113.464 94.1979 110.861C94.7687 109.141 94.3268 107.456 92.8906 105.82C92.2277 105.086 92.2277 104.768 92.9826 103.65C93.8664 102.298 93.9033 102.281 94.4188 102.866C95.2843 103.784 96.8862 104.168 98.1199 103.734C98.838 103.483 102.907 100.813 103.349 100.295C103.938 99.6109 104.141 98.6929 103.902 97.8584C103.754 97.3243 101.821 94.854 96.4811 88.3779C88.4714 78.6804 88.6187 78.7972 86.7774 78.9141C85.8015 78.9641 85.5989 79.0643 83.2421 80.5832C80.3696 82.4359 79.9277 82.9366 79.9461 84.2886V85.1899L78.6388 85.4736C77.7181 85.6572 75.9136 85.7908 72.8018 85.8909C70.316 85.9577 67.9039 86.1079 67.4251 86.1914C66.8175 86.3082 66.2651 86.3082 65.6759 86.1914C65.1787 86.1079 62.7666 85.9577 60.2808 85.8909C57.1506 85.7908 55.3645 85.6572 54.4439 85.457L53.0997 85.1732V84.2385C53.0997 83.5041 52.9892 83.1369 52.6578 82.7029C52.2527 82.1521 48.6805 79.6986 47.4653 79.1144C46.7287 78.7639 45.4214 78.8139 44.5744 79.2145ZM48.2939 82.8365C49.3618 83.5375 50.2272 84.1884 50.2088 84.2719C50.1904 84.5556 36.4174 101.213 36.178 101.213C36.0491 101.23 35.0732 100.679 34.0237 100.012C32.6979 99.177 32.1271 98.7263 32.1639 98.526C32.2192 98.1087 45.9002 81.5346 46.1579 81.5513C46.2868 81.5513 47.2443 82.1354 48.2939 82.8365ZM94.2163 90.1137C98.0462 94.7705 101.121 98.6428 101.029 98.7263C100.201 99.3939 97.0519 101.247 96.8494 101.18C96.5916 101.08 82.929 84.5723 82.8922 84.2886C82.8554 84.0549 86.6485 81.5513 86.9615 81.5846C87.1088 81.6013 90.3679 85.4403 94.2163 90.1137ZM53.8362 88.0274C54.7937 88.2277 56.6534 88.428 57.9608 88.4947L60.3361 88.5949L58.9735 89.2291C58.2186 89.5796 56.322 90.3307 54.7569 90.8982C53.1734 91.4657 51.6635 92.1167 51.3689 92.367C50.2457 93.3017 50.0431 94.6203 50.8165 96.0224C51.8292 97.8751 53.8731 99.177 56.009 99.3439C57.2243 99.444 58.3475 99.2103 61.3856 98.2423C67.3331 96.3562 71.2551 97.1407 77.2762 101.447C83.2789 105.72 85.8199 106.905 88.9501 106.905C90.0918 106.905 90.1102 106.905 90.6626 107.606C91.528 108.691 91.7121 109.409 91.3254 110.327C91.1413 110.744 90.7915 111.295 90.5521 111.562C89.2816 112.93 85.6726 112.597 79.7067 110.577C78.3626 110.11 77.1289 109.742 76.9632 109.742C76.8159 109.742 76.466 109.926 76.1898 110.126C75.5269 110.644 75.5085 111.445 76.1346 111.996C76.6317 112.43 79.7251 113.515 82.5792 114.266C83.6103 114.533 84.5126 114.8 84.5678 114.833C84.8072 115.067 84.623 116.118 84.2179 116.836C83.5735 117.954 82.8922 118.255 80.9036 118.255C78.9334 118.255 76.3924 117.704 73.078 116.586C71.7154 116.118 70.4265 115.751 70.1871 115.751C69.1192 115.751 68.4379 116.886 69.0271 117.687C69.3954 118.188 70.2239 118.539 73.7224 119.607C76.5765 120.475 76.6133 120.508 75.9873 121.376C75.2507 122.394 73.3358 122.645 70.5001 122.11C68.088 121.66 66.615 121.192 66.6702 120.909C66.6886 120.775 66.8359 120.341 67.0016 119.924C68.0512 117.387 65.8232 114.382 62.6193 113.982C61.846 113.882 61.7907 113.848 61.6802 113.264C61.5329 112.413 60.6307 111.194 59.71 110.577C58.8078 109.993 57.4084 109.575 56.322 109.575C55.5855 109.575 55.5487 109.542 55.3461 108.941C54.3518 105.92 50.8165 104.752 47.41 106.287C46.6551 106.621 45.9738 106.905 45.9002 106.905C45.7528 106.905 43.2487 103.85 42.3832 102.649C41.4994 101.38 40.9102 100.212 41.0943 100.012C41.168 99.8947 43.5249 97.0405 46.2868 93.6689C50.5219 88.4947 51.3873 87.5266 51.7187 87.5934C51.9213 87.6435 52.8787 87.8438 53.8362 88.0274ZM86.8326 93.6689C89.613 97.0572 91.9515 99.9114 92.0251 100.028C92.0988 100.145 91.8962 100.512 91.4911 100.946C91.1229 101.33 90.4968 102.248 90.0918 102.999L89.3736 104.351L88.2504 104.201C85.9856 103.934 84.5678 103.216 80.3512 100.228C74.2748 95.9389 71.8811 94.9374 67.3699 94.7705C64.5343 94.6704 62.5457 94.9875 59.6364 95.9723C57.7398 96.6232 56.4325 96.8402 55.5855 96.6566C54.9594 96.5064 53.7442 95.5049 53.468 94.8874C53.3391 94.6036 53.2654 94.3533 53.3022 94.3199C53.3391 94.3032 54.407 93.9193 55.6775 93.4686C56.9481 93.0347 59.4338 92.0165 61.2015 91.1987C66.173 88.9287 67.8671 88.5448 72.9675 88.5448C76.0057 88.5448 78.5835 88.2944 80.4433 87.8104C80.9588 87.6769 81.456 87.56 81.5849 87.56C81.6953 87.5433 84.0706 90.2973 86.8326 93.6689ZM51.4241 108.474C52.1422 108.824 52.5473 109.442 52.5473 110.193C52.5289 110.777 52.4552 110.877 51.4978 111.411C50.9454 111.729 50.1352 112.346 49.7301 112.78C48.8831 113.698 48.4596 113.782 47.3548 113.214C46.5262 112.78 46.0106 112.096 45.8265 111.194C45.6976 110.627 45.7528 110.527 46.3605 109.993C47.2443 109.242 49.4907 108.24 50.2825 108.24C50.6323 108.24 51.1479 108.357 51.4241 108.474ZM57.7214 112.63C58.5684 113.131 59.0656 114.082 58.8998 114.883C58.6789 116.018 56.0826 117.921 54.7569 117.921C53.2838 117.921 51.9949 116.836 51.866 115.451C51.7924 114.733 51.8292 114.616 52.4 114.132C53.247 113.398 55.7328 112.246 56.4877 112.246C56.8192 112.246 57.3716 112.413 57.7214 112.63ZM63.1901 116.919C63.9451 117.337 64.4054 118.271 64.2397 119.056C64.0924 119.74 62.6745 121.076 61.5145 121.61C60.0783 122.277 58.4395 121.727 57.7951 120.341C57.5557 119.857 57.5741 119.84 58.4395 119.306C58.9183 119.023 59.8021 118.288 60.3913 117.687C61.6066 116.469 62.1037 116.319 63.1901 116.919Z" fill="white"/>
</svg>
