<svg width="70" height="70" viewBox="0 0 70 70" fill="none" xmlns="http://www.w3.org/2000/svg">
<path d="M5.6326 0.181316C3.00632 0.824192 0.790393 3.04006 0.188537 5.6526C-0.00296283 6.44593 -0.0166414 8.34721 0.0107157 20.8217L0.0517513 35.0744L0.393715 35.9635C0.845107 37.1261 1.62478 38.2888 2.41814 38.9864C3.37564 39.8208 5.04442 40.5867 6.31652 40.7646C8.01266 40.9834 8.73762 40.5867 8.73762 39.4241C8.73762 38.4529 8.2452 38.0426 6.87734 37.8784C5.23592 37.6733 3.97749 36.7705 3.27989 35.2933L2.92424 34.5273V20.4387V6.35019L3.27989 5.59789C3.78599 4.50363 4.38785 3.88811 5.42742 3.38202L6.34388 2.93063L19.913 2.8896L33.4958 2.86224V16.8824C33.4958 31.9831 33.4684 31.5454 34.1934 32.0515C34.6037 32.3388 35.3971 32.3388 35.8075 32.0515C36.5324 31.5454 36.5051 31.9831 36.5051 16.8824V2.86224L50.0879 2.8896L63.657 2.93063L64.4093 3.28627C65.5036 3.79236 66.1191 4.3942 66.6252 5.43375L67.0766 6.35019V20.4387V34.5273L66.721 35.2933C66.2696 36.2371 65.5036 37.0304 64.6008 37.4818C63.9579 37.7964 63.7937 37.8101 60.3468 37.8784C56.9818 37.9468 56.7493 37.9605 56.38 38.2341C55.6277 38.7949 55.6277 39.9712 56.38 40.532C56.7356 40.8056 56.9682 40.8193 59.6628 40.8603C63.3697 40.915 64.4093 40.7782 65.8455 40.067C67.7195 39.1505 68.8411 37.9058 69.6071 35.9635L69.9491 35.0744L69.9901 20.9175C70.0175 10.8093 69.9901 6.528 69.8807 5.93984C69.3609 3.19052 67.104 0.837868 64.3819 0.194992C63.6296 0.0171776 59.6765 -0.0101814 34.932 0.00349808C12.3488 0.0171776 6.19342 0.0445328 5.6326 0.181316Z" fill="#5F0000"/>
<path d="M16.4936 11.7537C14.1135 12.1777 12.1438 14.1884 11.7471 16.6231C11.6651 17.0745 11.6104 19.7554 11.6104 22.6005C11.6104 28.1402 11.6377 28.4411 12.308 28.9061C12.4858 29.0293 12.8414 29.125 13.115 29.125C13.3886 29.125 13.7442 29.0293 13.922 28.9061C14.4965 28.4958 14.6196 27.935 14.6196 25.5687V23.3802H17.4921H20.3646V25.5687C20.3646 27.935 20.4877 28.4958 21.0622 28.9061C21.4726 29.1934 22.2659 29.1934 22.6763 28.9061C23.3465 28.4411 23.3739 28.1402 23.3739 22.6005C23.3739 19.7554 23.3192 17.0745 23.2371 16.6368C23.0866 15.652 22.5532 14.4893 21.9377 13.7233C20.7339 12.2461 18.4223 11.4117 16.4936 11.7537ZM19.0515 15.0364C19.325 15.2279 19.7217 15.6246 19.9269 15.9119C20.2825 16.4316 20.2962 16.5274 20.3373 18.415L20.3783 20.3709H17.5058H14.6196V18.5928C14.6196 16.5958 14.7291 16.1717 15.454 15.4605C16.1106 14.7902 16.603 14.6124 17.6426 14.6671C18.3402 14.6945 18.6685 14.7766 19.0515 15.0364Z" fill="#5F0000"/>
<path d="M47.4887 11.8357C46.6133 12.2735 46.627 12.1777 46.627 20.3573C46.627 28.318 46.6406 28.4137 47.3246 28.9061C47.5981 29.0976 48.1042 29.125 50.881 29.125C54.5058 29.125 54.9572 29.0429 56.1472 28.2359C57.5014 27.3058 58.2811 25.7738 58.2811 24.0641C58.2811 22.8741 58.0485 22.1218 57.3509 21.0959L56.8722 20.3983L57.3373 19.7691C58.158 18.7159 58.5136 17.1702 58.2537 15.8982C57.9118 14.2841 57.0227 13.0394 55.6958 12.3418C54.5332 11.7263 53.7672 11.6169 50.6895 11.6169C48.4599 11.6169 47.8444 11.6579 47.4887 11.8357ZM54.2322 14.845C54.9162 15.1732 55.2855 15.7751 55.3539 16.6642C55.3949 17.2934 55.3539 17.5122 55.0803 17.8952C54.4784 18.798 54.0681 18.9347 51.7291 18.9758L49.6362 19.0305V16.8283V14.6261H51.7017C53.3295 14.6261 53.8629 14.6671 54.2322 14.845ZM54.3827 22.2312C55.0393 22.7099 55.3812 23.3528 55.3812 24.0641C55.3812 24.7753 55.0393 25.4182 54.3827 25.8969C54.0271 26.1568 53.7672 26.1842 51.8111 26.2252L49.6362 26.2663V24.0641V21.8619L51.8111 21.9029C53.7672 21.9439 54.0271 21.9713 54.3827 22.2312Z" fill="#5F0000"/>
<path d="M17.4918 37.0025C15.1664 37.8369 14.0448 40.2853 14.9066 42.6243C15.1801 43.3629 15.6042 43.8143 21.4723 49.7096C24.9329 53.1839 27.7507 56.0426 27.7507 56.0836C27.7507 56.1247 27.272 56.2067 26.6975 56.2478C24.6183 56.4119 22.9085 57.2053 21.5133 58.6415C20.5831 59.5853 19.9266 60.6932 19.6804 61.7054C19.3384 63.0595 20.1044 64.5368 21.4586 65.1386C21.9647 65.3711 22.4161 65.4259 23.9891 65.4532C26.7522 65.4943 27.7917 65.7678 31.6628 67.4639C37.4898 70.0217 41.3609 70.5962 44.8762 69.4062C46.7365 68.777 47.5709 68.1478 50.6075 65.1113C52.9055 62.8133 53.6031 62.02 54.3965 60.8026C55.8464 58.6141 56.5577 56.5897 56.7082 54.3328C56.8586 51.9939 56.2705 49.8053 54.9436 47.7673C54.0545 46.3858 45.396 37.6591 44.4385 37.1804C43.7136 36.8247 42.1816 36.6743 41.3608 36.9068C40.5538 37.1257 39.569 37.7959 39.1449 38.4114C38.9261 38.7123 38.7072 38.9585 38.6525 38.9722C38.5841 38.9722 38.3652 38.8491 38.1464 38.6986C37.5719 38.2883 36.2724 37.9874 35.4791 38.0968C34.0975 38.2609 32.7023 39.2184 32.2099 40.3127L31.9637 40.8461L30.9652 40.7777C29.4879 40.682 28.7219 40.9829 27.6276 42.0772L26.7522 42.9526L24.0028 40.2306C22.2519 38.4935 21.0345 37.3855 20.6379 37.1804C19.8308 36.7837 18.3535 36.6879 17.4918 37.0025ZM19.311 39.8476C19.5573 39.957 22.1972 42.5012 25.357 45.6745C28.4483 48.7658 31.143 51.392 31.3618 51.5151C31.8679 51.775 32.5382 51.6519 33.0033 51.1868C33.2768 50.9133 33.3589 50.6944 33.3589 50.2157C33.3589 49.6139 33.3315 49.5865 31.3755 47.5895C29.4468 45.6335 29.3921 45.5651 29.3921 45.0043C29.3921 43.9784 30.3496 43.3356 31.2114 43.7733C31.3755 43.8553 32.6203 45.0317 33.9744 46.3721C35.5611 47.9451 36.587 48.8616 36.8469 48.9299C38.0233 49.2582 39.0765 48.0682 38.5431 47.0013C38.461 46.8372 37.5445 45.8523 36.5186 44.8128C34.672 42.9526 34.6584 42.9252 34.6584 42.3097C34.6584 41.5027 35.1508 41.0239 35.9852 41.0239C36.5186 41.0239 36.6144 41.106 39.2407 43.6912C41.8806 46.3037 41.949 46.3584 42.5098 46.3584C43.3579 46.3584 43.8914 45.7976 43.8914 44.9086C43.8914 44.2794 43.864 44.2383 42.6056 42.9526C41.8806 42.2139 41.2651 41.4753 41.2241 41.2565C41.0189 40.4768 41.7165 39.6561 42.5646 39.6561C42.7424 39.6561 43.1391 39.8339 43.4263 40.0528C44.0692 40.5178 51.4283 47.9451 52.1395 48.8205C53.7399 50.8449 54.2187 53.4985 53.439 56.07C52.7004 58.4773 51.6608 59.9546 48.419 63.1826C45.7243 65.8772 45.0951 66.3286 43.4126 66.821C42.3594 67.122 40.1024 67.122 38.6251 66.8074C37.0111 66.4791 35.0824 65.7952 32.4698 64.6462C28.6672 62.9911 27.4498 62.6629 24.5773 62.5398C22.2793 62.444 22.2383 62.4167 22.9359 61.4592C23.5514 60.6111 24.5636 59.8041 25.4117 59.4758C26.5607 59.0245 28.886 58.9697 30.6779 59.3391C31.8543 59.5716 32.0868 59.5853 32.4698 59.4348C33.058 59.1886 33.3589 58.7235 33.3589 58.0533C33.3589 57.5199 33.2632 57.4241 25.5758 49.7096C21.2944 45.4283 17.7243 41.7762 17.6423 41.6121C17.314 40.9555 17.6696 40.0801 18.3672 39.7929C18.7639 39.6288 18.8049 39.6288 19.311 39.8476Z" fill="#5F0000"/>
</svg>
