<svg width="654" height="184" viewBox="0 0 654 184" fill="none" xmlns="http://www.w3.org/2000/svg">
<g filter="url(#filter0_d_809_6566)">
<rect x="5.5" y="1.5" width="642.029" height="173" rx="16.5" fill="white"/>
<rect x="5.5" y="1.5" width="642.029" height="173" rx="16.5" fill="#F13636"/>
<rect x="5.5" y="1.5" width="642.029" height="173" rx="16.5" stroke="#F7A9A0" stroke-width="3"/>
<path d="M154.286 66.27C152.846 66.27 151.505 66.036 150.263 65.568C149.039 65.082 147.968 64.407 147.05 63.543C146.15 62.661 145.448 61.626 144.944 60.438C144.44 59.25 144.188 57.954 144.188 56.55C144.188 55.146 144.44 53.85 144.944 52.662C145.448 51.474 146.159 50.448 147.077 49.584C147.995 48.702 149.066 48.027 150.29 47.559C151.514 47.073 152.855 46.83 154.313 46.83C155.861 46.83 157.274 47.1 158.552 47.64C159.83 48.162 160.91 48.945 161.792 49.989L159.524 52.122C158.84 51.384 158.075 50.835 157.229 50.475C156.383 50.097 155.465 49.908 154.475 49.908C153.485 49.908 152.576 50.07 151.748 50.394C150.938 50.718 150.227 51.177 149.615 51.771C149.021 52.365 148.553 53.067 148.211 53.877C147.887 54.687 147.725 55.578 147.725 56.55C147.725 57.522 147.887 58.413 148.211 59.223C148.553 60.033 149.021 60.735 149.615 61.329C150.227 61.923 150.938 62.382 151.748 62.706C152.576 63.03 153.485 63.192 154.475 63.192C155.465 63.192 156.383 63.012 157.229 62.652C158.075 62.274 158.84 61.707 159.524 60.951L161.792 63.111C160.91 64.137 159.83 64.92 158.552 65.46C157.274 66 155.852 66.27 154.286 66.27ZM170.307 66.189C168.831 66.189 167.517 65.874 166.365 65.244C165.213 64.596 164.304 63.714 163.638 62.598C162.972 61.482 162.639 60.213 162.639 58.791C162.639 57.351 162.972 56.082 163.638 54.984C164.304 53.868 165.213 52.995 166.365 52.365C167.517 51.735 168.831 51.42 170.307 51.42C171.801 51.42 173.124 51.735 174.276 52.365C175.446 52.995 176.355 53.859 177.003 54.957C177.669 56.055 178.002 57.333 178.002 58.791C178.002 60.213 177.669 61.482 177.003 62.598C176.355 63.714 175.446 64.596 174.276 65.244C173.124 65.874 171.801 66.189 170.307 66.189ZM170.307 63.3C171.135 63.3 171.873 63.12 172.521 62.76C173.169 62.4 173.673 61.878 174.033 61.194C174.411 60.51 174.6 59.709 174.6 58.791C174.6 57.855 174.411 57.054 174.033 56.388C173.673 55.704 173.169 55.182 172.521 54.822C171.873 54.462 171.144 54.282 170.334 54.282C169.506 54.282 168.768 54.462 168.12 54.822C167.49 55.182 166.986 55.704 166.608 56.388C166.23 57.054 166.041 57.855 166.041 58.791C166.041 59.709 166.23 60.51 166.608 61.194C166.986 61.878 167.49 62.4 168.12 62.76C168.768 63.12 169.497 63.3 170.307 63.3ZM198.978 51.42C200.13 51.42 201.147 51.645 202.029 52.095C202.929 52.545 203.631 53.238 204.135 54.174C204.639 55.092 204.891 56.28 204.891 57.738V66H201.516V58.17C201.516 56.892 201.237 55.938 200.679 55.308C200.121 54.678 199.32 54.363 198.276 54.363C197.538 54.363 196.881 54.525 196.305 54.849C195.747 55.173 195.306 55.65 194.982 56.28C194.676 56.91 194.523 57.711 194.523 58.683V66H191.148V58.17C191.148 56.892 190.869 55.938 190.311 55.308C189.753 54.678 188.952 54.363 187.908 54.363C187.17 54.363 186.513 54.525 185.937 54.849C185.379 55.173 184.938 55.65 184.614 56.28C184.308 56.91 184.155 57.711 184.155 58.683V66H180.78V51.582H183.993V55.416L183.426 54.282C183.912 53.346 184.614 52.635 185.532 52.149C186.468 51.663 187.53 51.42 188.718 51.42C190.068 51.42 191.238 51.753 192.228 52.419C193.236 53.085 193.902 54.093 194.226 55.443L192.903 54.984C193.371 53.904 194.145 53.04 195.225 52.392C196.305 51.744 197.556 51.42 198.978 51.42ZM216.746 66.189C215.576 66.189 214.505 65.919 213.533 65.379C212.579 64.839 211.814 64.029 211.238 62.949C210.68 61.851 210.401 60.465 210.401 58.791C210.401 57.099 210.671 55.713 211.211 54.633C211.769 53.553 212.525 52.752 213.479 52.23C214.433 51.69 215.522 51.42 216.746 51.42C218.168 51.42 219.419 51.726 220.499 52.338C221.597 52.95 222.461 53.805 223.091 54.903C223.739 56.001 224.063 57.297 224.063 58.791C224.063 60.285 223.739 61.59 223.091 62.706C222.461 63.804 221.597 64.659 220.499 65.271C219.419 65.883 218.168 66.189 216.746 66.189ZM208.754 71.238V51.582H211.967V54.984L211.859 58.818L212.129 62.652V71.238H208.754ZM216.368 63.3C217.178 63.3 217.898 63.12 218.528 62.76C219.176 62.4 219.689 61.878 220.067 61.194C220.445 60.51 220.634 59.709 220.634 58.791C220.634 57.855 220.445 57.054 220.067 56.388C219.689 55.704 219.176 55.182 218.528 54.822C217.898 54.462 217.178 54.282 216.368 54.282C215.558 54.282 214.829 54.462 214.181 54.822C213.533 55.182 213.02 55.704 212.642 56.388C212.264 57.054 212.075 57.855 212.075 58.791C212.075 59.709 212.264 60.51 212.642 61.194C213.02 61.878 213.533 62.4 214.181 62.76C214.829 63.12 215.558 63.3 216.368 63.3ZM235.512 66V63.084L235.323 62.463V57.36C235.323 56.37 235.026 55.605 234.432 55.065C233.838 54.507 232.938 54.228 231.732 54.228C230.922 54.228 230.121 54.354 229.329 54.606C228.555 54.858 227.898 55.209 227.358 55.659L226.035 53.202C226.809 52.608 227.727 52.167 228.789 51.879C229.869 51.573 230.985 51.42 232.137 51.42C234.225 51.42 235.836 51.924 236.97 52.932C238.122 53.922 238.698 55.461 238.698 57.549V66H235.512ZM230.976 66.189C229.896 66.189 228.951 66.009 228.141 65.649C227.331 65.271 226.701 64.758 226.251 64.11C225.819 63.444 225.603 62.697 225.603 61.869C225.603 61.059 225.792 60.33 226.17 59.682C226.566 59.034 227.205 58.521 228.087 58.143C228.969 57.765 230.139 57.576 231.597 57.576H235.782V59.817H231.84C230.688 59.817 229.914 60.006 229.518 60.384C229.122 60.744 228.924 61.194 228.924 61.734C228.924 62.346 229.167 62.832 229.653 63.192C230.139 63.552 230.814 63.732 231.678 63.732C232.506 63.732 233.244 63.543 233.892 63.165C234.558 62.787 235.035 62.229 235.323 61.491L235.89 63.516C235.566 64.362 234.981 65.019 234.135 65.487C233.307 65.955 232.254 66.189 230.976 66.189ZM242.579 66V51.582H245.792V55.551L245.414 54.39C245.846 53.418 246.521 52.68 247.439 52.176C248.375 51.672 249.536 51.42 250.922 51.42V54.633C250.778 54.597 250.643 54.579 250.517 54.579C250.391 54.561 250.265 54.552 250.139 54.552C248.861 54.552 247.844 54.93 247.088 55.686C246.332 56.424 245.954 57.531 245.954 59.007V66H242.579ZM259.98 66.189C258.378 66.189 256.974 65.874 255.768 65.244C254.58 64.596 253.653 63.714 252.987 62.598C252.339 61.482 252.015 60.213 252.015 58.791C252.015 57.351 252.33 56.082 252.96 54.984C253.608 53.868 254.49 52.995 255.606 52.365C256.74 51.735 258.027 51.42 259.467 51.42C260.871 51.42 262.122 51.726 263.22 52.338C264.318 52.95 265.182 53.814 265.812 54.93C266.442 56.046 266.757 57.36 266.757 58.872C266.757 59.016 266.748 59.178 266.73 59.358C266.73 59.538 266.721 59.709 266.703 59.871H254.688V57.63H264.921L263.598 58.332C263.616 57.504 263.445 56.775 263.085 56.145C262.725 55.515 262.23 55.02 261.6 54.66C260.988 54.3 260.277 54.12 259.467 54.12C258.639 54.12 257.91 54.3 257.28 54.66C256.668 55.02 256.182 55.524 255.822 56.172C255.48 56.802 255.309 57.549 255.309 58.413V58.953C255.309 59.817 255.507 60.582 255.903 61.248C256.299 61.914 256.857 62.427 257.577 62.787C258.297 63.147 259.125 63.327 260.061 63.327C260.871 63.327 261.6 63.201 262.248 62.949C262.896 62.697 263.472 62.301 263.976 61.761L265.785 63.84C265.137 64.596 264.318 65.181 263.328 65.595C262.356 65.991 261.24 66.189 259.98 66.189ZM274.212 66L282.717 47.1H286.173L294.705 66H291.033L283.716 48.963H285.12L277.83 66H274.212ZM278.127 61.626L279.072 58.872H289.278L290.223 61.626H278.127ZM304.516 51.42C305.668 51.42 306.694 51.645 307.594 52.095C308.512 52.545 309.232 53.238 309.754 54.174C310.276 55.092 310.537 56.28 310.537 57.738V66H307.162V58.17C307.162 56.892 306.856 55.938 306.244 55.308C305.65 54.678 304.813 54.363 303.733 54.363C302.941 54.363 302.239 54.525 301.627 54.849C301.015 55.173 300.538 55.659 300.196 56.307C299.872 56.937 299.71 57.738 299.71 58.71V66H296.335V51.582H299.548V55.47L298.981 54.282C299.485 53.364 300.214 52.662 301.168 52.176C302.14 51.672 303.256 51.42 304.516 51.42ZM320.497 66.189C319.111 66.189 317.86 65.883 316.744 65.271C315.646 64.641 314.782 63.777 314.152 62.679C313.522 61.581 313.207 60.285 313.207 58.791C313.207 57.297 313.522 56.001 314.152 54.903C314.782 53.805 315.646 52.95 316.744 52.338C317.86 51.726 319.111 51.42 320.497 51.42C321.703 51.42 322.783 51.69 323.737 52.23C324.691 52.752 325.447 53.553 326.005 54.633C326.563 55.713 326.842 57.099 326.842 58.791C326.842 60.465 326.572 61.851 326.032 62.949C325.492 64.029 324.745 64.839 323.791 65.379C322.837 65.919 321.739 66.189 320.497 66.189ZM320.902 63.3C321.712 63.3 322.432 63.12 323.062 62.76C323.71 62.4 324.223 61.878 324.601 61.194C324.997 60.51 325.195 59.709 325.195 58.791C325.195 57.855 324.997 57.054 324.601 56.388C324.223 55.704 323.71 55.182 323.062 54.822C322.432 54.462 321.712 54.282 320.902 54.282C320.092 54.282 319.363 54.462 318.715 54.822C318.085 55.182 317.572 55.704 317.176 56.388C316.798 57.054 316.609 57.855 316.609 58.791C316.609 59.709 316.798 60.51 317.176 61.194C317.572 61.878 318.085 62.4 318.715 62.76C319.363 63.12 320.092 63.3 320.902 63.3ZM325.276 66V62.598L325.411 58.764L325.141 54.93V45.966H328.489V66H325.276ZM348.565 66.27C347.125 66.27 345.784 66.036 344.542 65.568C343.318 65.082 342.247 64.407 341.329 63.543C340.429 62.661 339.727 61.626 339.223 60.438C338.719 59.25 338.467 57.954 338.467 56.55C338.467 55.146 338.719 53.85 339.223 52.662C339.727 51.474 340.438 50.448 341.356 49.584C342.274 48.702 343.345 48.027 344.569 47.559C345.793 47.073 347.134 46.83 348.592 46.83C350.14 46.83 351.553 47.1 352.831 47.64C354.109 48.162 355.189 48.945 356.071 49.989L353.803 52.122C353.119 51.384 352.354 50.835 351.508 50.475C350.662 50.097 349.744 49.908 348.754 49.908C347.764 49.908 346.855 50.07 346.027 50.394C345.217 50.718 344.506 51.177 343.894 51.771C343.3 52.365 342.832 53.067 342.49 53.877C342.166 54.687 342.004 55.578 342.004 56.55C342.004 57.522 342.166 58.413 342.49 59.223C342.832 60.033 343.3 60.735 343.894 61.329C344.506 61.923 345.217 62.382 346.027 62.706C346.855 63.03 347.764 63.192 348.754 63.192C349.744 63.192 350.662 63.012 351.508 62.652C352.354 62.274 353.119 61.707 353.803 60.951L356.071 63.111C355.189 64.137 354.109 64.92 352.831 65.46C351.553 66 350.131 66.27 348.565 66.27ZM366.841 51.42C367.993 51.42 369.019 51.645 369.919 52.095C370.837 52.545 371.557 53.238 372.079 54.174C372.601 55.092 372.862 56.28 372.862 57.738V66H369.487V58.17C369.487 56.892 369.181 55.938 368.569 55.308C367.975 54.678 367.138 54.363 366.058 54.363C365.266 54.363 364.564 54.525 363.952 54.849C363.34 55.173 362.863 55.659 362.521 56.307C362.197 56.937 362.035 57.738 362.035 58.71V66H358.66V45.966H362.035V55.47L361.306 54.282C361.81 53.364 362.539 52.662 363.493 52.176C364.465 51.672 365.581 51.42 366.841 51.42ZM383.2 66.189C381.724 66.189 380.41 65.874 379.258 65.244C378.106 64.596 377.197 63.714 376.531 62.598C375.865 61.482 375.532 60.213 375.532 58.791C375.532 57.351 375.865 56.082 376.531 54.984C377.197 53.868 378.106 52.995 379.258 52.365C380.41 51.735 381.724 51.42 383.2 51.42C384.694 51.42 386.017 51.735 387.169 52.365C388.339 52.995 389.248 53.859 389.896 54.957C390.562 56.055 390.895 57.333 390.895 58.791C390.895 60.213 390.562 61.482 389.896 62.598C389.248 63.714 388.339 64.596 387.169 65.244C386.017 65.874 384.694 66.189 383.2 66.189ZM383.2 63.3C384.028 63.3 384.766 63.12 385.414 62.76C386.062 62.4 386.566 61.878 386.926 61.194C387.304 60.51 387.493 59.709 387.493 58.791C387.493 57.855 387.304 57.054 386.926 56.388C386.566 55.704 386.062 55.182 385.414 54.822C384.766 54.462 384.037 54.282 383.227 54.282C382.399 54.282 381.661 54.462 381.013 54.822C380.383 55.182 379.879 55.704 379.501 56.388C379.123 57.054 378.934 57.855 378.934 58.791C378.934 59.709 379.123 60.51 379.501 61.194C379.879 61.878 380.383 62.4 381.013 62.76C381.661 63.12 382.39 63.3 383.2 63.3ZM400.152 66.189C398.676 66.189 397.362 65.874 396.21 65.244C395.058 64.596 394.149 63.714 393.483 62.598C392.817 61.482 392.484 60.213 392.484 58.791C392.484 57.351 392.817 56.082 393.483 54.984C394.149 53.868 395.058 52.995 396.21 52.365C397.362 51.735 398.676 51.42 400.152 51.42C401.646 51.42 402.969 51.735 404.121 52.365C405.291 52.995 406.2 53.859 406.848 54.957C407.514 56.055 407.847 57.333 407.847 58.791C407.847 60.213 407.514 61.482 406.848 62.598C406.2 63.714 405.291 64.596 404.121 65.244C402.969 65.874 401.646 66.189 400.152 66.189ZM400.152 63.3C400.98 63.3 401.718 63.12 402.366 62.76C403.014 62.4 403.518 61.878 403.878 61.194C404.256 60.51 404.445 59.709 404.445 58.791C404.445 57.855 404.256 57.054 403.878 56.388C403.518 55.704 403.014 55.182 402.366 54.822C401.718 54.462 400.989 54.282 400.179 54.282C399.351 54.282 398.613 54.462 397.965 54.822C397.335 55.182 396.831 55.704 396.453 56.388C396.075 57.054 395.886 57.855 395.886 58.791C395.886 59.709 396.075 60.51 396.453 61.194C396.831 61.878 397.335 62.4 397.965 62.76C398.613 63.12 399.342 63.3 400.152 63.3ZM415.079 66.189C413.873 66.189 412.712 66.036 411.596 65.73C410.498 65.406 409.625 65.019 408.977 64.569L410.273 62.004C410.921 62.418 411.695 62.76 412.595 63.03C413.495 63.3 414.395 63.435 415.295 63.435C416.357 63.435 417.122 63.291 417.59 63.003C418.076 62.715 418.319 62.328 418.319 61.842C418.319 61.446 418.157 61.149 417.833 60.951C417.509 60.735 417.086 60.573 416.564 60.465C416.042 60.357 415.457 60.258 414.809 60.168C414.179 60.078 413.54 59.961 412.892 59.817C412.262 59.655 411.686 59.43 411.164 59.142C410.642 58.836 410.219 58.431 409.895 57.927C409.571 57.423 409.409 56.757 409.409 55.929C409.409 55.011 409.67 54.219 410.192 53.553C410.714 52.869 411.443 52.347 412.379 51.987C413.333 51.609 414.458 51.42 415.754 51.42C416.726 51.42 417.707 51.528 418.697 51.744C419.687 51.96 420.506 52.266 421.154 52.662L419.858 55.227C419.174 54.813 418.481 54.534 417.779 54.39C417.095 54.228 416.411 54.147 415.727 54.147C414.701 54.147 413.936 54.3 413.432 54.606C412.946 54.912 412.703 55.299 412.703 55.767C412.703 56.199 412.865 56.523 413.189 56.739C413.513 56.955 413.936 57.126 414.458 57.252C414.98 57.378 415.556 57.486 416.186 57.576C416.834 57.648 417.473 57.765 418.103 57.927C418.733 58.089 419.309 58.314 419.831 58.602C420.371 58.872 420.803 59.259 421.127 59.763C421.451 60.267 421.613 60.924 421.613 61.734C421.613 62.634 421.343 63.417 420.803 64.083C420.281 64.749 419.534 65.271 418.562 65.649C417.59 66.009 416.429 66.189 415.079 66.189ZM430.847 66.189C429.245 66.189 427.841 65.874 426.635 65.244C425.447 64.596 424.52 63.714 423.854 62.598C423.206 61.482 422.882 60.213 422.882 58.791C422.882 57.351 423.197 56.082 423.827 54.984C424.475 53.868 425.357 52.995 426.473 52.365C427.607 51.735 428.894 51.42 430.334 51.42C431.738 51.42 432.989 51.726 434.087 52.338C435.185 52.95 436.049 53.814 436.679 54.93C437.309 56.046 437.624 57.36 437.624 58.872C437.624 59.016 437.615 59.178 437.597 59.358C437.597 59.538 437.588 59.709 437.57 59.871H425.555V57.63H435.788L434.465 58.332C434.483 57.504 434.312 56.775 433.952 56.145C433.592 55.515 433.097 55.02 432.467 54.66C431.855 54.3 431.144 54.12 430.334 54.12C429.506 54.12 428.777 54.3 428.147 54.66C427.535 55.02 427.049 55.524 426.689 56.172C426.347 56.802 426.176 57.549 426.176 58.413V58.953C426.176 59.817 426.374 60.582 426.77 61.248C427.166 61.914 427.724 62.427 428.444 62.787C429.164 63.147 429.992 63.327 430.928 63.327C431.738 63.327 432.467 63.201 433.115 62.949C433.763 62.697 434.339 62.301 434.843 61.761L436.652 63.84C436.004 64.596 435.185 65.181 434.195 65.595C433.223 65.991 432.107 66.189 430.847 66.189Z" fill="white"/>
<path d="M150.6 91.26H158V92.52H150.6V91.26ZM150.76 97.72H159.18V99H149.28V85H158.88V86.28H150.76V97.72ZM160.466 99L164.906 93.24L164.886 93.94L160.666 88.5H162.266L165.726 93L165.126 92.98L168.586 88.5H170.146L165.886 94L165.906 93.24L170.386 99H168.766L165.106 94.2L165.666 94.28L162.066 99H160.466ZM178.17 99.1C177.263 99.1 176.443 98.8933 175.71 98.48C174.976 98.0533 174.39 97.4467 173.95 96.66C173.523 95.86 173.31 94.8867 173.31 93.74C173.31 92.5933 173.523 91.6267 173.95 90.84C174.376 90.04 174.956 89.4333 175.69 89.02C176.423 88.6067 177.25 88.4 178.17 88.4C179.17 88.4 180.063 88.6267 180.85 89.08C181.65 89.52 182.276 90.1467 182.73 90.96C183.183 91.76 183.41 92.6867 183.41 93.74C183.41 94.8067 183.183 95.74 182.73 96.54C182.276 97.34 181.65 97.9667 180.85 98.42C180.063 98.8733 179.17 99.1 178.17 99.1ZM172.75 102.88V88.5H174.11V91.66L173.97 93.76L174.17 95.88V102.88H172.75ZM178.07 97.84C178.816 97.84 179.483 97.6733 180.07 97.34C180.656 96.9933 181.123 96.5133 181.47 95.9C181.816 95.2733 181.99 94.5533 181.99 93.74C181.99 92.9267 181.816 92.2133 181.47 91.6C181.123 90.9867 180.656 90.5067 180.07 90.16C179.483 89.8133 178.816 89.64 178.07 89.64C177.323 89.64 176.65 89.8133 176.05 90.16C175.463 90.5067 174.996 90.9867 174.65 91.6C174.316 92.2133 174.15 92.9267 174.15 93.74C174.15 94.5533 174.316 95.2733 174.65 95.9C174.996 96.5133 175.463 96.9933 176.05 97.34C176.65 97.6733 177.323 97.84 178.07 97.84ZM186.304 99V84.16H187.724V99H186.304ZM195.955 99.1C194.942 99.1 194.029 98.8733 193.215 98.42C192.415 97.9533 191.782 97.32 191.315 96.52C190.849 95.7067 190.615 94.78 190.615 93.74C190.615 92.6867 190.849 91.76 191.315 90.96C191.782 90.16 192.415 89.5333 193.215 89.08C194.015 88.6267 194.929 88.4 195.955 88.4C196.995 88.4 197.915 88.6267 198.715 89.08C199.529 89.5333 200.162 90.16 200.615 90.96C201.082 91.76 201.315 92.6867 201.315 93.74C201.315 94.78 201.082 95.7067 200.615 96.52C200.162 97.32 199.529 97.9533 198.715 98.42C197.902 98.8733 196.982 99.1 195.955 99.1ZM195.955 97.84C196.715 97.84 197.389 97.6733 197.975 97.34C198.562 96.9933 199.022 96.5133 199.355 95.9C199.702 95.2733 199.875 94.5533 199.875 93.74C199.875 92.9133 199.702 92.1933 199.355 91.58C199.022 90.9667 198.562 90.4933 197.975 90.16C197.389 89.8133 196.722 89.64 195.975 89.64C195.229 89.64 194.562 89.8133 193.975 90.16C193.389 90.4933 192.922 90.9667 192.575 91.58C192.229 92.1933 192.055 92.9133 192.055 93.74C192.055 94.5533 192.229 95.2733 192.575 95.9C192.922 96.5133 193.389 96.9933 193.975 97.34C194.562 97.6733 195.222 97.84 195.955 97.84ZM204.214 99V88.5H205.574V91.36L205.434 90.86C205.728 90.06 206.221 89.4533 206.914 89.04C207.608 88.6133 208.468 88.4 209.494 88.4V89.78C209.441 89.78 209.388 89.78 209.334 89.78C209.281 89.7667 209.228 89.76 209.174 89.76C208.068 89.76 207.201 90.1 206.574 90.78C205.948 91.4467 205.634 92.4 205.634 93.64V99H204.214ZM216.448 99.1C215.354 99.1 214.394 98.8733 213.568 98.42C212.741 97.9533 212.094 97.32 211.628 96.52C211.161 95.7067 210.928 94.78 210.928 93.74C210.928 92.7 211.148 91.78 211.588 90.98C212.041 90.18 212.654 89.5533 213.428 89.1C214.214 88.6333 215.094 88.4 216.068 88.4C217.054 88.4 217.928 88.6267 218.688 89.08C219.461 89.52 220.068 90.1467 220.508 90.96C220.948 91.76 221.168 92.6867 221.168 93.74C221.168 93.8067 221.161 93.88 221.148 93.96C221.148 94.0267 221.148 94.1 221.148 94.18H212.008V93.12H220.388L219.828 93.54C219.828 92.78 219.661 92.1067 219.328 91.52C219.008 90.92 218.568 90.4533 218.008 90.12C217.448 89.7867 216.801 89.62 216.068 89.62C215.348 89.62 214.701 89.7867 214.128 90.12C213.554 90.4533 213.108 90.92 212.788 91.52C212.468 92.12 212.308 92.8067 212.308 93.58V93.8C212.308 94.6 212.481 95.3067 212.828 95.92C213.188 96.52 213.681 96.9933 214.308 97.34C214.948 97.6733 215.674 97.84 216.488 97.84C217.128 97.84 217.721 97.7267 218.268 97.5C218.828 97.2733 219.308 96.9267 219.708 96.46L220.508 97.38C220.041 97.94 219.454 98.3667 218.748 98.66C218.054 98.9533 217.288 99.1 216.448 99.1ZM235.873 99V96.68L235.813 96.3V92.42C235.813 91.5267 235.559 90.84 235.053 90.36C234.559 89.88 233.819 89.64 232.833 89.64C232.153 89.64 231.506 89.7533 230.893 89.98C230.279 90.2067 229.759 90.5067 229.333 90.88L228.693 89.82C229.226 89.3667 229.866 89.02 230.613 88.78C231.359 88.5267 232.146 88.4 232.973 88.4C234.333 88.4 235.379 88.74 236.113 89.42C236.859 90.0867 237.233 91.1067 237.233 92.48V99H235.873ZM232.253 99.1C231.466 99.1 230.779 98.9733 230.193 98.72C229.619 98.4533 229.179 98.0933 228.873 97.64C228.566 97.1733 228.413 96.64 228.413 96.04C228.413 95.4933 228.539 95 228.793 94.56C229.059 94.1067 229.486 93.7467 230.073 93.48C230.673 93.2 231.473 93.06 232.473 93.06H236.093V94.12H232.513C231.499 94.12 230.793 94.3 230.393 94.66C230.006 95.02 229.812 95.4667 229.812 96C229.812 96.6 230.046 97.08 230.513 97.44C230.979 97.8 231.633 97.98 232.473 97.98C233.273 97.98 233.959 97.8 234.533 97.44C235.119 97.0667 235.546 96.5333 235.813 95.84L236.133 96.82C235.866 97.5133 235.399 98.0667 234.733 98.48C234.079 98.8933 233.253 99.1 232.253 99.1ZM248.464 99L244.504 88.5H245.864L249.464 98.24H248.844L252.544 88.5H253.764L257.424 98.24H256.804L260.464 88.5H261.764L257.784 99H256.444L252.924 89.84H253.344L249.804 99H248.464ZM263.902 99V88.5H265.322V99H263.902ZM264.622 86.18C264.329 86.18 264.082 86.08 263.882 85.88C263.682 85.68 263.582 85.44 263.582 85.16C263.582 84.88 263.682 84.6467 263.882 84.46C264.082 84.26 264.329 84.16 264.622 84.16C264.915 84.16 265.162 84.2533 265.362 84.44C265.562 84.6267 265.662 84.86 265.662 85.14C265.662 85.4333 265.562 85.68 265.362 85.88C265.175 86.08 264.929 86.18 264.622 86.18ZM273.453 99.1C272.453 99.1 271.553 98.8733 270.753 98.42C269.966 97.9667 269.346 97.34 268.893 96.54C268.44 95.7267 268.213 94.7933 268.213 93.74C268.213 92.6733 268.44 91.74 268.893 90.94C269.346 90.14 269.966 89.52 270.753 89.08C271.553 88.6267 272.453 88.4 273.453 88.4C274.373 88.4 275.193 88.6067 275.913 89.02C276.646 89.4333 277.226 90.04 277.653 90.84C278.093 91.6267 278.313 92.5933 278.313 93.74C278.313 94.8733 278.1 95.84 277.673 96.64C277.246 97.44 276.666 98.0533 275.933 98.48C275.213 98.8933 274.386 99.1 273.453 99.1ZM273.553 97.84C274.3 97.84 274.966 97.6733 275.553 97.34C276.153 96.9933 276.62 96.5133 276.953 95.9C277.3 95.2733 277.473 94.5533 277.473 93.74C277.473 92.9133 277.3 92.1933 276.953 91.58C276.62 90.9667 276.153 90.4933 275.553 90.16C274.966 89.8133 274.3 89.64 273.553 89.64C272.82 89.64 272.16 89.8133 271.573 90.16C270.986 90.4933 270.52 90.9667 270.173 91.58C269.826 92.1933 269.653 92.9133 269.653 93.74C269.653 94.5533 269.826 95.2733 270.173 95.9C270.52 96.5133 270.986 96.9933 271.573 97.34C272.16 97.6733 272.82 97.84 273.553 97.84ZM277.513 99V95.84L277.653 93.72L277.453 91.6V84.16H278.873V99H277.513ZM287.288 99.1C286.194 99.1 285.234 98.8733 284.408 98.42C283.581 97.9533 282.934 97.32 282.468 96.52C282.001 95.7067 281.768 94.78 281.768 93.74C281.768 92.7 281.988 91.78 282.428 90.98C282.881 90.18 283.494 89.5533 284.268 89.1C285.054 88.6333 285.934 88.4 286.908 88.4C287.894 88.4 288.768 88.6267 289.528 89.08C290.301 89.52 290.908 90.1467 291.348 90.96C291.788 91.76 292.008 92.6867 292.008 93.74C292.008 93.8067 292.001 93.88 291.988 93.96C291.988 94.0267 291.988 94.1 291.988 94.18H282.848V93.12H291.228L290.668 93.54C290.668 92.78 290.501 92.1067 290.168 91.52C289.848 90.92 289.408 90.4533 288.848 90.12C288.288 89.7867 287.641 89.62 286.908 89.62C286.188 89.62 285.541 89.7867 284.968 90.12C284.394 90.4533 283.948 90.92 283.628 91.52C283.308 92.12 283.148 92.8067 283.148 93.58V93.8C283.148 94.6 283.321 95.3067 283.668 95.92C284.028 96.52 284.521 96.9933 285.148 97.34C285.788 97.6733 286.514 97.84 287.328 97.84C287.968 97.84 288.561 97.7267 289.108 97.5C289.668 97.2733 290.148 96.9267 290.548 96.46L291.348 97.38C290.881 97.94 290.294 98.3667 289.588 98.66C288.894 98.9533 288.128 99.1 287.288 99.1ZM300.132 99V88.5H301.492V91.36L301.352 90.86C301.646 90.06 302.139 89.4533 302.832 89.04C303.526 88.6133 304.386 88.4 305.412 88.4V89.78C305.359 89.78 305.306 89.78 305.252 89.78C305.199 89.7667 305.146 89.76 305.092 89.76C303.986 89.76 303.119 90.1 302.492 90.78C301.866 91.4467 301.552 92.4 301.552 93.64V99H300.132ZM313.802 99V96.68L313.742 96.3V92.42C313.742 91.5267 313.489 90.84 312.982 90.36C312.489 89.88 311.749 89.64 310.762 89.64C310.082 89.64 309.436 89.7533 308.822 89.98C308.209 90.2067 307.689 90.5067 307.262 90.88L306.622 89.82C307.156 89.3667 307.796 89.02 308.542 88.78C309.289 88.5267 310.076 88.4 310.902 88.4C312.262 88.4 313.309 88.74 314.042 89.42C314.789 90.0867 315.162 91.1067 315.162 92.48V99H313.802ZM310.182 99.1C309.396 99.1 308.709 98.9733 308.122 98.72C307.549 98.4533 307.109 98.0933 306.802 97.64C306.496 97.1733 306.342 96.64 306.342 96.04C306.342 95.4933 306.469 95 306.722 94.56C306.989 94.1067 307.416 93.7467 308.002 93.48C308.602 93.2 309.402 93.06 310.402 93.06H314.022V94.12H310.442C309.429 94.12 308.722 94.3 308.322 94.66C307.936 95.02 307.742 95.4667 307.742 96C307.742 96.6 307.976 97.08 308.442 97.44C308.909 97.8 309.562 97.98 310.402 97.98C311.202 97.98 311.889 97.8 312.462 97.44C313.049 97.0667 313.476 96.5333 313.742 95.84L314.062 96.82C313.796 97.5133 313.329 98.0667 312.662 98.48C312.009 98.8933 311.182 99.1 310.182 99.1ZM324.379 88.4C325.232 88.4 325.979 88.5667 326.619 88.9C327.272 89.22 327.779 89.7133 328.139 90.38C328.512 91.0467 328.699 91.8867 328.699 92.9V99H327.279V93.04C327.279 91.9333 326.999 91.1 326.439 90.54C325.892 89.9667 325.119 89.68 324.119 89.68C323.372 89.68 322.719 89.8333 322.159 90.14C321.612 90.4333 321.186 90.8667 320.879 91.44C320.586 92 320.439 92.68 320.439 93.48V99H319.019V88.5H320.379V91.38L320.159 90.84C320.492 90.08 321.026 89.4867 321.759 89.06C322.492 88.62 323.366 88.4 324.379 88.4ZM337.015 102.98C336.055 102.98 335.135 102.84 334.255 102.56C333.375 102.28 332.661 101.88 332.115 101.36L332.835 100.28C333.328 100.72 333.935 101.067 334.655 101.32C335.388 101.587 336.161 101.72 336.975 101.72C338.308 101.72 339.288 101.407 339.915 100.78C340.541 100.167 340.855 99.2067 340.855 97.9V95.28L341.055 93.48L340.915 91.68V88.5H342.275V97.72C342.275 99.5333 341.828 100.86 340.935 101.7C340.055 102.553 338.748 102.98 337.015 102.98ZM336.755 98.6C335.755 98.6 334.855 98.3867 334.055 97.96C333.255 97.52 332.621 96.9133 332.155 96.14C331.701 95.3667 331.475 94.48 331.475 93.48C331.475 92.48 331.701 91.6 332.155 90.84C332.621 90.0667 333.255 89.4667 334.055 89.04C334.855 88.6133 335.755 88.4 336.755 88.4C337.688 88.4 338.528 88.5933 339.275 88.98C340.021 89.3667 340.615 89.94 341.055 90.7C341.495 91.46 341.715 92.3867 341.715 93.48C341.715 94.5733 341.495 95.5 341.055 96.26C340.615 97.02 340.021 97.6 339.275 98C338.528 98.4 337.688 98.6 336.755 98.6ZM336.895 97.34C337.668 97.34 338.355 97.18 338.955 96.86C339.555 96.5267 340.028 96.0733 340.375 95.5C340.721 94.9133 340.895 94.24 340.895 93.48C340.895 92.72 340.721 92.0533 340.375 91.48C340.028 90.9067 339.555 90.46 338.955 90.14C338.355 89.8067 337.668 89.64 336.895 89.64C336.135 89.64 335.448 89.8067 334.835 90.14C334.235 90.46 333.761 90.9067 333.415 91.48C333.081 92.0533 332.915 92.72 332.915 93.48C332.915 94.24 333.081 94.9133 333.415 95.5C333.761 96.0733 334.235 96.5267 334.835 96.86C335.448 97.18 336.135 97.34 336.895 97.34ZM350.686 99.1C349.593 99.1 348.633 98.8733 347.806 98.42C346.979 97.9533 346.333 97.32 345.866 96.52C345.399 95.7067 345.166 94.78 345.166 93.74C345.166 92.7 345.386 91.78 345.826 90.98C346.279 90.18 346.893 89.5533 347.666 89.1C348.453 88.6333 349.333 88.4 350.306 88.4C351.293 88.4 352.166 88.6267 352.926 89.08C353.699 89.52 354.306 90.1467 354.746 90.96C355.186 91.76 355.406 92.6867 355.406 93.74C355.406 93.8067 355.399 93.88 355.386 93.96C355.386 94.0267 355.386 94.1 355.386 94.18H346.246V93.12H354.626L354.066 93.54C354.066 92.78 353.899 92.1067 353.566 91.52C353.246 90.92 352.806 90.4533 352.246 90.12C351.686 89.7867 351.039 89.62 350.306 89.62C349.586 89.62 348.939 89.7867 348.366 90.12C347.793 90.4533 347.346 90.92 347.026 91.52C346.706 92.12 346.546 92.8067 346.546 93.58V93.8C346.546 94.6 346.719 95.3067 347.066 95.92C347.426 96.52 347.919 96.9933 348.546 97.34C349.186 97.6733 349.913 97.84 350.726 97.84C351.366 97.84 351.959 97.7267 352.506 97.5C353.066 97.2733 353.546 96.9267 353.946 96.46L354.746 97.38C354.279 97.94 353.693 98.3667 352.986 98.66C352.293 98.9533 351.526 99.1 350.686 99.1ZM367.811 99.1C366.797 99.1 365.884 98.8733 365.071 98.42C364.271 97.9533 363.637 97.32 363.171 96.52C362.704 95.7067 362.471 94.78 362.471 93.74C362.471 92.6867 362.704 91.76 363.171 90.96C363.637 90.16 364.271 89.5333 365.071 89.08C365.871 88.6267 366.784 88.4 367.811 88.4C368.851 88.4 369.771 88.6267 370.571 89.08C371.384 89.5333 372.017 90.16 372.471 90.96C372.937 91.76 373.171 92.6867 373.171 93.74C373.171 94.78 372.937 95.7067 372.471 96.52C372.017 97.32 371.384 97.9533 370.571 98.42C369.757 98.8733 368.837 99.1 367.811 99.1ZM367.811 97.84C368.571 97.84 369.244 97.6733 369.831 97.34C370.417 96.9933 370.877 96.5133 371.211 95.9C371.557 95.2733 371.731 94.5533 371.731 93.74C371.731 92.9133 371.557 92.1933 371.211 91.58C370.877 90.9667 370.417 90.4933 369.831 90.16C369.244 89.8133 368.577 89.64 367.831 89.64C367.084 89.64 366.417 89.8133 365.831 90.16C365.244 90.4933 364.777 90.9667 364.431 91.58C364.084 92.1933 363.911 92.9133 363.911 93.74C363.911 94.5533 364.084 95.2733 364.431 95.9C364.777 96.5133 365.244 96.9933 365.831 97.34C366.417 97.6733 367.077 97.84 367.811 97.84ZM376.31 99V87.18C376.31 86.2467 376.583 85.4933 377.13 84.92C377.677 84.3467 378.463 84.06 379.49 84.06C379.89 84.06 380.277 84.1133 380.65 84.22C381.023 84.3267 381.337 84.4933 381.59 84.72L381.11 85.78C380.91 85.6067 380.677 85.48 380.41 85.4C380.143 85.3067 379.857 85.26 379.55 85.26C378.95 85.26 378.49 85.4267 378.17 85.76C377.85 86.0933 377.69 86.5867 377.69 87.24V88.84L377.73 89.5V99H376.31ZM374.43 89.68V88.5H380.93V89.68H374.43ZM391.402 99.1C390.415 99.1 389.655 98.8333 389.122 98.3C388.588 97.7667 388.322 97.0133 388.322 96.04V86.18H389.742V95.96C389.742 96.5733 389.895 97.0467 390.202 97.38C390.522 97.7133 390.975 97.88 391.562 97.88C392.188 97.88 392.708 97.7 393.122 97.34L393.622 98.36C393.342 98.6133 393.002 98.8 392.602 98.92C392.215 99.04 391.815 99.1 391.402 99.1ZM386.442 89.68V88.5H392.942V89.68H386.442ZM396.207 99V88.5H397.567V91.36L397.427 90.86C397.72 90.06 398.213 89.4533 398.907 89.04C399.6 88.6133 400.46 88.4 401.487 88.4V89.78C401.433 89.78 401.38 89.78 401.327 89.78C401.273 89.7667 401.22 89.76 401.167 89.76C400.06 89.76 399.193 90.1 398.567 90.78C397.94 91.4467 397.627 92.4 397.627 93.64V99H396.207ZM408.574 99.1C407.681 99.1 406.901 98.9333 406.234 98.6C405.567 98.2667 405.047 97.7667 404.674 97.1C404.314 96.4333 404.134 95.6 404.134 94.6V88.5H405.554V94.44C405.554 95.56 405.827 96.4067 406.374 96.98C406.934 97.54 407.714 97.82 408.714 97.82C409.447 97.82 410.081 97.6733 410.614 97.38C411.161 97.0733 411.574 96.6333 411.854 96.06C412.147 95.4867 412.294 94.8 412.294 94V88.5H413.714V99H412.354V96.12L412.574 96.64C412.241 97.4133 411.721 98.02 411.014 98.46C410.321 98.8867 409.507 99.1 408.574 99.1ZM420.491 99.1C419.625 99.1 418.805 98.98 418.031 98.74C417.258 98.4867 416.651 98.1733 416.211 97.8L416.851 96.68C417.278 97 417.825 97.28 418.491 97.52C419.158 97.7467 419.858 97.86 420.591 97.86C421.591 97.86 422.311 97.7067 422.751 97.4C423.191 97.08 423.411 96.66 423.411 96.14C423.411 95.7533 423.285 95.4533 423.031 95.24C422.791 95.0133 422.471 94.8467 422.071 94.74C421.671 94.62 421.225 94.52 420.731 94.44C420.238 94.36 419.745 94.2667 419.251 94.16C418.771 94.0533 418.331 93.9 417.931 93.7C417.531 93.4867 417.205 93.2 416.951 92.84C416.711 92.48 416.591 92 416.591 91.4C416.591 90.8267 416.751 90.3133 417.071 89.86C417.391 89.4067 417.858 89.0533 418.471 88.8C419.098 88.5333 419.858 88.4 420.751 88.4C421.431 88.4 422.111 88.4933 422.791 88.68C423.471 88.8533 424.031 89.0867 424.471 89.38L423.851 90.52C423.385 90.2 422.885 89.9733 422.351 89.84C421.818 89.6933 421.285 89.62 420.751 89.62C419.805 89.62 419.105 89.7867 418.651 90.12C418.211 90.44 417.991 90.8533 417.991 91.36C417.991 91.76 418.111 92.0733 418.351 92.3C418.605 92.5267 418.931 92.7067 419.331 92.84C419.745 92.96 420.191 93.06 420.671 93.14C421.165 93.22 421.651 93.32 422.131 93.44C422.625 93.5467 423.071 93.7 423.471 93.9C423.885 94.0867 424.211 94.36 424.451 94.72C424.705 95.0667 424.831 95.5267 424.831 96.1C424.831 96.7133 424.658 97.2467 424.311 97.7C423.978 98.14 423.485 98.4867 422.831 98.74C422.191 98.98 421.411 99.1 420.491 99.1ZM430.757 99.1C429.77 99.1 429.01 98.8333 428.477 98.3C427.944 97.7667 427.677 97.0133 427.677 96.04V86.18H429.097V95.96C429.097 96.5733 429.25 97.0467 429.557 97.38C429.877 97.7133 430.33 97.88 430.917 97.88C431.544 97.88 432.064 97.7 432.477 97.34L432.977 98.36C432.697 98.6133 432.357 98.8 431.957 98.92C431.57 99.04 431.17 99.1 430.757 99.1ZM425.797 89.68V88.5H432.297V89.68H425.797ZM439.651 99.1C438.558 99.1 437.598 98.8733 436.771 98.42C435.944 97.9533 435.298 97.32 434.831 96.52C434.364 95.7067 434.131 94.78 434.131 93.74C434.131 92.7 434.351 91.78 434.791 90.98C435.244 90.18 435.858 89.5533 436.631 89.1C437.418 88.6333 438.298 88.4 439.271 88.4C440.258 88.4 441.131 88.6267 441.891 89.08C442.664 89.52 443.271 90.1467 443.711 90.96C444.151 91.76 444.371 92.6867 444.371 93.74C444.371 93.8067 444.364 93.88 444.351 93.96C444.351 94.0267 444.351 94.1 444.351 94.18H435.211V93.12H443.591L443.031 93.54C443.031 92.78 442.864 92.1067 442.531 91.52C442.211 90.92 441.771 90.4533 441.211 90.12C440.651 89.7867 440.004 89.62 439.271 89.62C438.551 89.62 437.904 89.7867 437.331 90.12C436.758 90.4533 436.311 90.92 435.991 91.52C435.671 92.12 435.511 92.8067 435.511 93.58V93.8C435.511 94.6 435.684 95.3067 436.031 95.92C436.391 96.52 436.884 96.9933 437.511 97.34C438.151 97.6733 438.878 97.84 439.691 97.84C440.331 97.84 440.924 97.7267 441.471 97.5C442.031 97.2733 442.511 96.9267 442.911 96.46L443.711 97.38C443.244 97.94 442.658 98.3667 441.951 98.66C441.258 98.9533 440.491 99.1 439.651 99.1ZM451.441 99.1C450.441 99.1 449.541 98.8733 448.741 98.42C447.955 97.9667 447.335 97.34 446.881 96.54C446.428 95.7267 446.201 94.7933 446.201 93.74C446.201 92.6733 446.428 91.74 446.881 90.94C447.335 90.14 447.955 89.52 448.741 89.08C449.541 88.6267 450.441 88.4 451.441 88.4C452.361 88.4 453.181 88.6067 453.901 89.02C454.635 89.4333 455.215 90.04 455.641 90.84C456.081 91.6267 456.301 92.5933 456.301 93.74C456.301 94.8733 456.088 95.84 455.661 96.64C455.235 97.44 454.655 98.0533 453.921 98.48C453.201 98.8933 452.375 99.1 451.441 99.1ZM451.541 97.84C452.288 97.84 452.955 97.6733 453.541 97.34C454.141 96.9933 454.608 96.5133 454.941 95.9C455.288 95.2733 455.461 94.5533 455.461 93.74C455.461 92.9133 455.288 92.1933 454.941 91.58C454.608 90.9667 454.141 90.4933 453.541 90.16C452.955 89.8133 452.288 89.64 451.541 89.64C450.808 89.64 450.148 89.8133 449.561 90.16C448.975 90.4933 448.508 90.9667 448.161 91.58C447.815 92.1933 447.641 92.9133 447.641 93.74C447.641 94.5533 447.815 95.2733 448.161 95.9C448.508 96.5133 448.975 96.9933 449.561 97.34C450.148 97.6733 450.808 97.84 451.541 97.84ZM455.501 99V95.84L455.641 93.72L455.441 91.6V84.16H456.861V99H455.501ZM468.87 99.1C468.004 99.1 467.184 98.98 466.41 98.74C465.637 98.4867 465.03 98.1733 464.59 97.8L465.23 96.68C465.657 97 466.204 97.28 466.87 97.52C467.537 97.7467 468.237 97.86 468.97 97.86C469.97 97.86 470.69 97.7067 471.13 97.4C471.57 97.08 471.79 96.66 471.79 96.14C471.79 95.7533 471.664 95.4533 471.41 95.24C471.17 95.0133 470.85 94.8467 470.45 94.74C470.05 94.62 469.604 94.52 469.11 94.44C468.617 94.36 468.124 94.2667 467.63 94.16C467.15 94.0533 466.71 93.9 466.31 93.7C465.91 93.4867 465.584 93.2 465.33 92.84C465.09 92.48 464.97 92 464.97 91.4C464.97 90.8267 465.13 90.3133 465.45 89.86C465.77 89.4067 466.237 89.0533 466.85 88.8C467.477 88.5333 468.237 88.4 469.13 88.4C469.81 88.4 470.49 88.4933 471.17 88.68C471.85 88.8533 472.41 89.0867 472.85 89.38L472.23 90.52C471.764 90.2 471.264 89.9733 470.73 89.84C470.197 89.6933 469.664 89.62 469.13 89.62C468.184 89.62 467.484 89.7867 467.03 90.12C466.59 90.44 466.37 90.8533 466.37 91.36C466.37 91.76 466.49 92.0733 466.73 92.3C466.984 92.5267 467.31 92.7067 467.71 92.84C468.124 92.96 468.57 93.06 469.05 93.14C469.544 93.22 470.03 93.32 470.51 93.44C471.004 93.5467 471.45 93.7 471.85 93.9C472.264 94.0867 472.59 94.36 472.83 94.72C473.084 95.0667 473.21 95.5267 473.21 96.1C473.21 96.7133 473.037 97.2467 472.69 97.7C472.357 98.14 471.864 98.4867 471.21 98.74C470.57 98.98 469.79 99.1 468.87 99.1ZM480.276 99.1C479.183 99.1 478.223 98.8733 477.396 98.42C476.569 97.9533 475.923 97.32 475.456 96.52C474.989 95.7067 474.756 94.78 474.756 93.74C474.756 92.7 474.976 91.78 475.416 90.98C475.869 90.18 476.483 89.5533 477.256 89.1C478.043 88.6333 478.923 88.4 479.896 88.4C480.883 88.4 481.756 88.6267 482.516 89.08C483.289 89.52 483.896 90.1467 484.336 90.96C484.776 91.76 484.996 92.6867 484.996 93.74C484.996 93.8067 484.989 93.88 484.976 93.96C484.976 94.0267 484.976 94.1 484.976 94.18H475.836V93.12H484.216L483.656 93.54C483.656 92.78 483.489 92.1067 483.156 91.52C482.836 90.92 482.396 90.4533 481.836 90.12C481.276 89.7867 480.629 89.62 479.896 89.62C479.176 89.62 478.529 89.7867 477.956 90.12C477.383 90.4533 476.936 90.92 476.616 91.52C476.296 92.12 476.136 92.8067 476.136 93.58V93.8C476.136 94.6 476.309 95.3067 476.656 95.92C477.016 96.52 477.509 96.9933 478.136 97.34C478.776 97.6733 479.503 97.84 480.316 97.84C480.956 97.84 481.549 97.7267 482.096 97.5C482.656 97.2733 483.136 96.9267 483.536 96.46L484.336 97.38C483.869 97.94 483.283 98.3667 482.576 98.66C481.883 98.9533 481.116 99.1 480.276 99.1ZM487.886 99V88.5H489.246V91.36L489.106 90.86C489.4 90.06 489.893 89.4533 490.586 89.04C491.28 88.6133 492.14 88.4 493.166 88.4V89.78C493.113 89.78 493.06 89.78 493.006 89.78C492.953 89.7667 492.9 89.76 492.846 89.76C491.74 89.76 490.873 90.1 490.246 90.78C489.62 91.4467 489.306 92.4 489.306 93.64V99H487.886ZM498.907 99L494.247 88.5H495.727L500.007 98.24H499.307L503.647 88.5H505.047L500.367 99H498.907ZM507.046 99V88.5H508.466V99H507.046ZM507.766 86.18C507.473 86.18 507.226 86.08 507.026 85.88C506.826 85.68 506.726 85.44 506.726 85.16C506.726 84.88 506.826 84.6467 507.026 84.46C507.226 84.26 507.473 84.16 507.766 84.16C508.06 84.16 508.306 84.2533 508.506 84.44C508.706 84.6267 508.806 84.86 508.806 85.14C508.806 85.4333 508.706 85.68 508.506 85.88C508.32 86.08 508.073 86.18 507.766 86.18ZM516.778 99.1C515.738 99.1 514.804 98.8733 513.978 98.42C513.164 97.9533 512.524 97.32 512.058 96.52C511.591 95.7067 511.358 94.78 511.358 93.74C511.358 92.6867 511.591 91.76 512.058 90.96C512.524 90.16 513.164 89.5333 513.978 89.08C514.804 88.6267 515.738 88.4 516.778 88.4C517.671 88.4 518.478 88.5733 519.198 88.92C519.918 89.2667 520.484 89.7867 520.898 90.48L519.838 91.2C519.478 90.6667 519.031 90.2733 518.498 90.02C517.964 89.7667 517.384 89.64 516.758 89.64C516.011 89.64 515.338 89.8133 514.738 90.16C514.138 90.4933 513.664 90.9667 513.318 91.58C512.971 92.1933 512.798 92.9133 512.798 93.74C512.798 94.5667 512.971 95.2867 513.318 95.9C513.664 96.5133 514.138 96.9933 514.738 97.34C515.338 97.6733 516.011 97.84 516.758 97.84C517.384 97.84 517.964 97.7133 518.498 97.46C519.031 97.2067 519.478 96.82 519.838 96.3L520.898 97.02C520.484 97.7 519.918 98.22 519.198 98.58C518.478 98.9267 517.671 99.1 516.778 99.1ZM527.971 99.1C526.878 99.1 525.918 98.8733 525.091 98.42C524.265 97.9533 523.618 97.32 523.151 96.52C522.685 95.7067 522.451 94.78 522.451 93.74C522.451 92.7 522.671 91.78 523.111 90.98C523.565 90.18 524.178 89.5533 524.951 89.1C525.738 88.6333 526.618 88.4 527.591 88.4C528.578 88.4 529.451 88.6267 530.211 89.08C530.985 89.52 531.591 90.1467 532.031 90.96C532.471 91.76 532.691 92.6867 532.691 93.74C532.691 93.8067 532.685 93.88 532.671 93.96C532.671 94.0267 532.671 94.1 532.671 94.18H523.531V93.12H531.911L531.351 93.54C531.351 92.78 531.185 92.1067 530.851 91.52C530.531 90.92 530.091 90.4533 529.531 90.12C528.971 89.7867 528.325 89.62 527.591 89.62C526.871 89.62 526.225 89.7867 525.651 90.12C525.078 90.4533 524.631 90.92 524.311 91.52C523.991 92.12 523.831 92.8067 523.831 93.58V93.8C523.831 94.6 524.005 95.3067 524.351 95.92C524.711 96.52 525.205 96.9933 525.831 97.34C526.471 97.6733 527.198 97.84 528.011 97.84C528.651 97.84 529.245 97.7267 529.791 97.5C530.351 97.2733 530.831 96.9267 531.231 96.46L532.031 97.38C531.565 97.94 530.978 98.3667 530.271 98.66C529.578 98.9533 528.811 99.1 527.971 99.1ZM546.236 99.1C545.329 99.1 544.509 98.8933 543.776 98.48C543.043 98.0533 542.456 97.4467 542.016 96.66C541.589 95.86 541.376 94.8867 541.376 93.74C541.376 92.5933 541.589 91.6267 542.016 90.84C542.443 90.04 543.023 89.4333 543.756 89.02C544.489 88.6067 545.316 88.4 546.236 88.4C547.236 88.4 548.129 88.6267 548.916 89.08C549.716 89.52 550.343 90.1467 550.796 90.96C551.249 91.76 551.476 92.6867 551.476 93.74C551.476 94.8067 551.249 95.74 550.796 96.54C550.343 97.34 549.716 97.9667 548.916 98.42C548.129 98.8733 547.236 99.1 546.236 99.1ZM540.816 102.88V88.5H542.176V91.66L542.036 93.76L542.236 95.88V102.88H540.816ZM546.136 97.84C546.883 97.84 547.549 97.6733 548.136 97.34C548.723 96.9933 549.189 96.5133 549.536 95.9C549.883 95.2733 550.056 94.5533 550.056 93.74C550.056 92.9267 549.883 92.2133 549.536 91.6C549.189 90.9867 548.723 90.5067 548.136 90.16C547.549 89.8133 546.883 89.64 546.136 89.64C545.389 89.64 544.716 89.8133 544.116 90.16C543.529 90.5067 543.063 90.9867 542.716 91.6C542.383 92.2133 542.216 92.9267 542.216 93.74C542.216 94.5533 542.383 95.2733 542.716 95.9C543.063 96.5133 543.529 96.9933 544.116 97.34C544.716 97.6733 545.389 97.84 546.136 97.84ZM560.892 99V96.68L560.832 96.3V92.42C560.832 91.5267 560.579 90.84 560.072 90.36C559.579 89.88 558.839 89.64 557.852 89.64C557.172 89.64 556.525 89.7533 555.912 89.98C555.299 90.2067 554.779 90.5067 554.352 90.88L553.712 89.82C554.245 89.3667 554.885 89.02 555.632 88.78C556.379 88.5267 557.165 88.4 557.992 88.4C559.352 88.4 560.399 88.74 561.132 89.42C561.879 90.0867 562.252 91.1067 562.252 92.48V99H560.892ZM557.272 99.1C556.485 99.1 555.799 98.9733 555.212 98.72C554.639 98.4533 554.199 98.0933 553.892 97.64C553.585 97.1733 553.432 96.64 553.432 96.04C553.432 95.4933 553.559 95 553.812 94.56C554.079 94.1067 554.505 93.7467 555.092 93.48C555.692 93.2 556.492 93.06 557.492 93.06H561.112V94.12H557.532C556.519 94.12 555.812 94.3 555.412 94.66C555.025 95.02 554.832 95.4667 554.832 96C554.832 96.6 555.065 97.08 555.532 97.44C555.999 97.8 556.652 97.98 557.492 97.98C558.292 97.98 558.979 97.8 559.552 97.44C560.139 97.0667 560.565 96.5333 560.832 95.84L561.152 96.82C560.885 97.5133 560.419 98.0667 559.752 98.48C559.099 98.8933 558.272 99.1 557.272 99.1ZM566.109 99V88.5H567.469V91.36L567.329 90.86C567.622 90.06 568.116 89.4533 568.809 89.04C569.502 88.6133 570.362 88.4 571.389 88.4V89.78C571.336 89.78 571.282 89.78 571.229 89.78C571.176 89.7667 571.122 89.76 571.069 89.76C569.962 89.76 569.096 90.1 568.469 90.78C567.842 91.4467 567.529 92.4 567.529 93.64V99H566.109ZM577.749 99.1C576.763 99.1 576.003 98.8333 575.469 98.3C574.936 97.7667 574.669 97.0133 574.669 96.04V86.18H576.089V95.96C576.089 96.5733 576.243 97.0467 576.549 97.38C576.869 97.7133 577.323 97.88 577.909 97.88C578.536 97.88 579.056 97.7 579.469 97.34L579.969 98.36C579.689 98.6133 579.349 98.8 578.949 98.92C578.563 99.04 578.163 99.1 577.749 99.1ZM572.789 89.68V88.5H579.289V89.68H572.789ZM587.914 88.4C588.768 88.4 589.514 88.5667 590.154 88.9C590.808 89.22 591.314 89.7133 591.674 90.38C592.048 91.0467 592.234 91.8867 592.234 92.9V99H590.814V93.04C590.814 91.9333 590.534 91.1 589.974 90.54C589.428 89.9667 588.654 89.68 587.654 89.68C586.908 89.68 586.254 89.8333 585.694 90.14C585.148 90.4333 584.721 90.8667 584.414 91.44C584.121 92 583.974 92.68 583.974 93.48V99H582.554V88.5H583.914V91.38L583.694 90.84C584.028 90.08 584.561 89.4867 585.294 89.06C586.028 88.62 586.901 88.4 587.914 88.4ZM600.53 99.1C599.437 99.1 598.477 98.8733 597.65 98.42C596.823 97.9533 596.177 97.32 595.71 96.52C595.243 95.7067 595.01 94.78 595.01 93.74C595.01 92.7 595.23 91.78 595.67 90.98C596.123 90.18 596.737 89.5533 597.51 89.1C598.297 88.6333 599.177 88.4 600.15 88.4C601.137 88.4 602.01 88.6267 602.77 89.08C603.543 89.52 604.15 90.1467 604.59 90.96C605.03 91.76 605.25 92.6867 605.25 93.74C605.25 93.8067 605.243 93.88 605.23 93.96C605.23 94.0267 605.23 94.1 605.23 94.18H596.09V93.12H604.47L603.91 93.54C603.91 92.78 603.743 92.1067 603.41 91.52C603.09 90.92 602.65 90.4533 602.09 90.12C601.53 89.7867 600.883 89.62 600.15 89.62C599.43 89.62 598.783 89.7867 598.21 90.12C597.637 90.4533 597.19 90.92 596.87 91.52C596.55 92.12 596.39 92.8067 596.39 93.58V93.8C596.39 94.6 596.563 95.3067 596.91 95.92C597.27 96.52 597.763 96.9933 598.39 97.34C599.03 97.6733 599.757 97.84 600.57 97.84C601.21 97.84 601.803 97.7267 602.35 97.5C602.91 97.2733 603.39 96.9267 603.79 96.46L604.59 97.38C604.123 97.94 603.537 98.3667 602.83 98.66C602.137 98.9533 601.37 99.1 600.53 99.1ZM608.14 99V88.5H609.5V91.36L609.36 90.86C609.653 90.06 610.147 89.4533 610.84 89.04C611.533 88.6133 612.393 88.4 613.42 88.4V89.78C613.367 89.78 613.313 89.78 613.26 89.78C613.207 89.7667 613.153 89.76 613.1 89.76C611.993 89.76 611.127 90.1 610.5 90.78C609.873 91.4467 609.56 92.4 609.56 93.64V99H608.14ZM618.948 99.1C618.082 99.1 617.262 98.98 616.488 98.74C615.715 98.4867 615.108 98.1733 614.668 97.8L615.308 96.68C615.735 97 616.282 97.28 616.948 97.52C617.615 97.7467 618.315 97.86 619.048 97.86C620.048 97.86 620.768 97.7067 621.208 97.4C621.648 97.08 621.868 96.66 621.868 96.14C621.868 95.7533 621.742 95.4533 621.488 95.24C621.248 95.0133 620.928 94.8467 620.528 94.74C620.128 94.62 619.682 94.52 619.188 94.44C618.695 94.36 618.202 94.2667 617.708 94.16C617.228 94.0533 616.788 93.9 616.388 93.7C615.988 93.4867 615.662 93.2 615.408 92.84C615.168 92.48 615.048 92 615.048 91.4C615.048 90.8267 615.208 90.3133 615.528 89.86C615.848 89.4067 616.315 89.0533 616.928 88.8C617.555 88.5333 618.315 88.4 619.208 88.4C619.888 88.4 620.568 88.4933 621.248 88.68C621.928 88.8533 622.488 89.0867 622.928 89.38L622.308 90.52C621.842 90.2 621.342 89.9733 620.808 89.84C620.275 89.6933 619.742 89.62 619.208 89.62C618.262 89.62 617.562 89.7867 617.108 90.12C616.668 90.44 616.448 90.8533 616.448 91.36C616.448 91.76 616.568 92.0733 616.808 92.3C617.062 92.5267 617.388 92.7067 617.788 92.84C618.202 92.96 618.648 93.06 619.128 93.14C619.622 93.22 620.108 93.32 620.588 93.44C621.082 93.5467 621.528 93.7 621.928 93.9C622.342 94.0867 622.668 94.36 622.908 94.72C623.162 95.0667 623.288 95.5267 623.288 96.1C623.288 96.7133 623.115 97.2467 622.768 97.7C622.435 98.14 621.942 98.4867 621.288 98.74C620.648 98.98 619.868 99.1 618.948 99.1ZM152.3 123.1C151.313 123.1 150.553 122.833 150.02 122.3C149.487 121.767 149.22 121.013 149.22 120.04V110.18H150.64V119.96C150.64 120.573 150.793 121.047 151.1 121.38C151.42 121.713 151.873 121.88 152.46 121.88C153.087 121.88 153.607 121.7 154.02 121.34L154.52 122.36C154.24 122.613 153.9 122.8 153.5 122.92C153.113 123.04 152.713 123.1 152.3 123.1ZM147.34 113.68V112.5H153.84V113.68H147.34ZM161.014 123.1C160.001 123.1 159.087 122.873 158.274 122.42C157.474 121.953 156.841 121.32 156.374 120.52C155.907 119.707 155.674 118.78 155.674 117.74C155.674 116.687 155.907 115.76 156.374 114.96C156.841 114.16 157.474 113.533 158.274 113.08C159.074 112.627 159.987 112.4 161.014 112.4C162.054 112.4 162.974 112.627 163.774 113.08C164.587 113.533 165.221 114.16 165.674 114.96C166.141 115.76 166.374 116.687 166.374 117.74C166.374 118.78 166.141 119.707 165.674 120.52C165.221 121.32 164.587 121.953 163.774 122.42C162.961 122.873 162.041 123.1 161.014 123.1ZM161.014 121.84C161.774 121.84 162.447 121.673 163.034 121.34C163.621 120.993 164.081 120.513 164.414 119.9C164.761 119.273 164.934 118.553 164.934 117.74C164.934 116.913 164.761 116.193 164.414 115.58C164.081 114.967 163.621 114.493 163.034 114.16C162.447 113.813 161.781 113.64 161.034 113.64C160.287 113.64 159.621 113.813 159.034 114.16C158.447 114.493 157.981 114.967 157.634 115.58C157.287 116.193 157.114 116.913 157.114 117.74C157.114 118.553 157.287 119.273 157.634 119.9C157.981 120.513 158.447 120.993 159.034 121.34C159.621 121.673 160.281 121.84 161.014 121.84ZM187.627 112.4C188.481 112.4 189.221 112.567 189.847 112.9C190.487 113.22 190.981 113.713 191.327 114.38C191.687 115.047 191.867 115.887 191.867 116.9V123H190.447V117.04C190.447 115.933 190.181 115.1 189.647 114.54C189.127 113.967 188.387 113.68 187.427 113.68C186.707 113.68 186.081 113.833 185.547 114.14C185.027 114.433 184.621 114.867 184.327 115.44C184.047 116 183.907 116.68 183.907 117.48V123H182.487V117.04C182.487 115.933 182.221 115.1 181.687 114.54C181.154 113.967 180.407 113.68 179.447 113.68C178.741 113.68 178.121 113.833 177.587 114.14C177.054 114.433 176.641 114.867 176.347 115.44C176.067 116 175.927 116.68 175.927 117.48V123H174.507V112.5H175.867V115.34L175.647 114.84C175.967 114.08 176.481 113.487 177.187 113.06C177.907 112.62 178.754 112.4 179.727 112.4C180.754 112.4 181.627 112.66 182.347 113.18C183.067 113.687 183.534 114.453 183.747 115.48L183.187 115.26C183.494 114.407 184.034 113.72 184.807 113.2C185.594 112.667 186.534 112.4 187.627 112.4ZM200.178 123.1C199.085 123.1 198.125 122.873 197.298 122.42C196.472 121.953 195.825 121.32 195.358 120.52C194.892 119.707 194.658 118.78 194.658 117.74C194.658 116.7 194.878 115.78 195.318 114.98C195.772 114.18 196.385 113.553 197.158 113.1C197.945 112.633 198.825 112.4 199.798 112.4C200.785 112.4 201.658 112.627 202.418 113.08C203.192 113.52 203.798 114.147 204.238 114.96C204.678 115.76 204.898 116.687 204.898 117.74C204.898 117.807 204.892 117.88 204.878 117.96C204.878 118.027 204.878 118.1 204.878 118.18H195.738V117.12H204.118L203.558 117.54C203.558 116.78 203.392 116.107 203.058 115.52C202.738 114.92 202.298 114.453 201.738 114.12C201.178 113.787 200.532 113.62 199.798 113.62C199.078 113.62 198.432 113.787 197.858 114.12C197.285 114.453 196.838 114.92 196.518 115.52C196.198 116.12 196.038 116.807 196.038 117.58V117.8C196.038 118.6 196.212 119.307 196.558 119.92C196.918 120.52 197.412 120.993 198.038 121.34C198.678 121.673 199.405 121.84 200.218 121.84C200.858 121.84 201.452 121.727 201.998 121.5C202.558 121.273 203.038 120.927 203.438 120.46L204.238 121.38C203.772 121.94 203.185 122.367 202.478 122.66C201.785 122.953 201.018 123.1 200.178 123.1ZM212.249 123.1C211.155 123.1 210.195 122.873 209.369 122.42C208.542 121.953 207.895 121.32 207.429 120.52C206.962 119.707 206.729 118.78 206.729 117.74C206.729 116.7 206.949 115.78 207.389 114.98C207.842 114.18 208.455 113.553 209.229 113.1C210.015 112.633 210.895 112.4 211.869 112.4C212.855 112.4 213.729 112.627 214.489 113.08C215.262 113.52 215.869 114.147 216.309 114.96C216.749 115.76 216.969 116.687 216.969 117.74C216.969 117.807 216.962 117.88 216.949 117.96C216.949 118.027 216.949 118.1 216.949 118.18H207.809V117.12H216.189L215.629 117.54C215.629 116.78 215.462 116.107 215.129 115.52C214.809 114.92 214.369 114.453 213.809 114.12C213.249 113.787 212.602 113.62 211.869 113.62C211.149 113.62 210.502 113.787 209.929 114.12C209.355 114.453 208.909 114.92 208.589 115.52C208.269 116.12 208.109 116.807 208.109 117.58V117.8C208.109 118.6 208.282 119.307 208.629 119.92C208.989 120.52 209.482 120.993 210.109 121.34C210.749 121.673 211.475 121.84 212.289 121.84C212.929 121.84 213.522 121.727 214.069 121.5C214.629 121.273 215.109 120.927 215.509 120.46L216.309 121.38C215.842 121.94 215.255 122.367 214.549 122.66C213.855 122.953 213.089 123.1 212.249 123.1ZM223.179 123.1C222.192 123.1 221.432 122.833 220.899 122.3C220.366 121.767 220.099 121.013 220.099 120.04V110.18H221.519V119.96C221.519 120.573 221.672 121.047 221.979 121.38C222.299 121.713 222.752 121.88 223.339 121.88C223.966 121.88 224.486 121.7 224.899 121.34L225.399 122.36C225.119 122.613 224.779 122.8 224.379 122.92C223.992 123.04 223.592 123.1 223.179 123.1ZM218.219 113.68V112.5H224.719V113.68H218.219ZM233.298 126.98C232.805 126.98 232.332 126.9 231.878 126.74C231.438 126.58 231.058 126.34 230.738 126.02L231.398 124.96C231.665 125.213 231.952 125.407 232.258 125.54C232.578 125.687 232.932 125.76 233.318 125.76C233.785 125.76 234.185 125.627 234.518 125.36C234.865 125.107 235.192 124.653 235.498 124L236.178 122.46L236.338 122.24L240.658 112.5H242.058L236.798 124.26C236.505 124.94 236.178 125.48 235.818 125.88C235.472 126.28 235.092 126.56 234.678 126.72C234.265 126.893 233.805 126.98 233.298 126.98ZM236.098 123.3L231.258 112.5H232.738L237.018 122.14L236.098 123.3ZM248.045 123.1C247.032 123.1 246.118 122.873 245.305 122.42C244.505 121.953 243.872 121.32 243.405 120.52C242.938 119.707 242.705 118.78 242.705 117.74C242.705 116.687 242.938 115.76 243.405 114.96C243.872 114.16 244.505 113.533 245.305 113.08C246.105 112.627 247.018 112.4 248.045 112.4C249.085 112.4 250.005 112.627 250.805 113.08C251.618 113.533 252.252 114.16 252.705 114.96C253.172 115.76 253.405 116.687 253.405 117.74C253.405 118.78 253.172 119.707 252.705 120.52C252.252 121.32 251.618 121.953 250.805 122.42C249.992 122.873 249.072 123.1 248.045 123.1ZM248.045 121.84C248.805 121.84 249.478 121.673 250.065 121.34C250.652 120.993 251.112 120.513 251.445 119.9C251.792 119.273 251.965 118.553 251.965 117.74C251.965 116.913 251.792 116.193 251.445 115.58C251.112 114.967 250.652 114.493 250.065 114.16C249.478 113.813 248.812 113.64 248.065 113.64C247.318 113.64 246.652 113.813 246.065 114.16C245.478 114.493 245.012 114.967 244.665 115.58C244.318 116.193 244.145 116.913 244.145 117.74C244.145 118.553 244.318 119.273 244.665 119.9C245.012 120.513 245.478 120.993 246.065 121.34C246.652 121.673 247.312 121.84 248.045 121.84ZM260.644 123.1C259.751 123.1 258.971 122.933 258.304 122.6C257.638 122.267 257.118 121.767 256.744 121.1C256.384 120.433 256.204 119.6 256.204 118.6V112.5H257.624V118.44C257.624 119.56 257.898 120.407 258.444 120.98C259.004 121.54 259.784 121.82 260.784 121.82C261.518 121.82 262.151 121.673 262.684 121.38C263.231 121.073 263.644 120.633 263.924 120.06C264.218 119.487 264.364 118.8 264.364 118V112.5H265.784V123H264.424V120.12L264.644 120.64C264.311 121.413 263.791 122.02 263.084 122.46C262.391 122.887 261.578 123.1 260.644 123.1ZM269.742 123V112.5H271.102V115.36L270.962 114.86C271.255 114.06 271.748 113.453 272.442 113.04C273.135 112.613 273.995 112.4 275.022 112.4V113.78C274.968 113.78 274.915 113.78 274.862 113.78C274.808 113.767 274.755 113.76 274.702 113.76C273.595 113.76 272.728 114.1 272.102 114.78C271.475 115.447 271.162 116.4 271.162 117.64V123H269.742ZM288.363 112.4C289.217 112.4 289.963 112.567 290.603 112.9C291.257 113.22 291.763 113.713 292.123 114.38C292.497 115.047 292.683 115.887 292.683 116.9V123H291.263V117.04C291.263 115.933 290.983 115.1 290.423 114.54C289.877 113.967 289.103 113.68 288.103 113.68C287.357 113.68 286.703 113.833 286.143 114.14C285.597 114.433 285.17 114.867 284.863 115.44C284.57 116 284.423 116.68 284.423 117.48V123H283.003V112.5H284.363V115.38L284.143 114.84C284.477 114.08 285.01 113.487 285.743 113.06C286.477 112.62 287.35 112.4 288.363 112.4ZM300.979 123.1C299.886 123.1 298.926 122.873 298.099 122.42C297.272 121.953 296.626 121.32 296.159 120.52C295.692 119.707 295.459 118.78 295.459 117.74C295.459 116.7 295.679 115.78 296.119 114.98C296.572 114.18 297.186 113.553 297.959 113.1C298.746 112.633 299.626 112.4 300.599 112.4C301.586 112.4 302.459 112.627 303.219 113.08C303.992 113.52 304.599 114.147 305.039 114.96C305.479 115.76 305.699 116.687 305.699 117.74C305.699 117.807 305.692 117.88 305.679 117.96C305.679 118.027 305.679 118.1 305.679 118.18H296.539V117.12H304.919L304.359 117.54C304.359 116.78 304.192 116.107 303.859 115.52C303.539 114.92 303.099 114.453 302.539 114.12C301.979 113.787 301.332 113.62 300.599 113.62C299.879 113.62 299.232 113.787 298.659 114.12C298.086 114.453 297.639 114.92 297.319 115.52C296.999 116.12 296.839 116.807 296.839 117.58V117.8C296.839 118.6 297.012 119.307 297.359 119.92C297.719 120.52 298.212 120.993 298.839 121.34C299.479 121.673 300.206 121.84 301.019 121.84C301.659 121.84 302.252 121.727 302.799 121.5C303.359 121.273 303.839 120.927 304.239 120.46L305.039 121.38C304.572 121.94 303.986 122.367 303.279 122.66C302.586 122.953 301.819 123.1 300.979 123.1ZM313.049 123.1C311.956 123.1 310.996 122.873 310.169 122.42C309.343 121.953 308.696 121.32 308.229 120.52C307.763 119.707 307.529 118.78 307.529 117.74C307.529 116.7 307.749 115.78 308.189 114.98C308.643 114.18 309.256 113.553 310.029 113.1C310.816 112.633 311.696 112.4 312.669 112.4C313.656 112.4 314.529 112.627 315.289 113.08C316.063 113.52 316.669 114.147 317.109 114.96C317.549 115.76 317.769 116.687 317.769 117.74C317.769 117.807 317.763 117.88 317.749 117.96C317.749 118.027 317.749 118.1 317.749 118.18H308.609V117.12H316.989L316.429 117.54C316.429 116.78 316.263 116.107 315.929 115.52C315.609 114.92 315.169 114.453 314.609 114.12C314.049 113.787 313.403 113.62 312.669 113.62C311.949 113.62 311.303 113.787 310.729 114.12C310.156 114.453 309.709 114.92 309.389 115.52C309.069 116.12 308.909 116.807 308.909 117.58V117.8C308.909 118.6 309.083 119.307 309.429 119.92C309.789 120.52 310.283 120.993 310.909 121.34C311.549 121.673 312.276 121.84 313.089 121.84C313.729 121.84 314.323 121.727 314.869 121.5C315.429 121.273 315.909 120.927 316.309 120.46L317.109 121.38C316.643 121.94 316.056 122.367 315.349 122.66C314.656 122.953 313.889 123.1 313.049 123.1ZM324.84 123.1C323.84 123.1 322.94 122.873 322.14 122.42C321.353 121.967 320.733 121.34 320.28 120.54C319.826 119.727 319.6 118.793 319.6 117.74C319.6 116.673 319.826 115.74 320.28 114.94C320.733 114.14 321.353 113.52 322.14 113.08C322.94 112.627 323.84 112.4 324.84 112.4C325.76 112.4 326.58 112.607 327.3 113.02C328.033 113.433 328.613 114.04 329.04 114.84C329.48 115.627 329.7 116.593 329.7 117.74C329.7 118.873 329.486 119.84 329.06 120.64C328.633 121.44 328.053 122.053 327.32 122.48C326.6 122.893 325.773 123.1 324.84 123.1ZM324.94 121.84C325.686 121.84 326.353 121.673 326.94 121.34C327.54 120.993 328.006 120.513 328.34 119.9C328.686 119.273 328.86 118.553 328.86 117.74C328.86 116.913 328.686 116.193 328.34 115.58C328.006 114.967 327.54 114.493 326.94 114.16C326.353 113.813 325.686 113.64 324.94 113.64C324.206 113.64 323.546 113.813 322.96 114.16C322.373 114.493 321.906 114.967 321.56 115.58C321.213 116.193 321.04 116.913 321.04 117.74C321.04 118.553 321.213 119.273 321.56 119.9C321.906 120.513 322.373 120.993 322.96 121.34C323.546 121.673 324.206 121.84 324.94 121.84ZM328.9 123V119.84L329.04 117.72L328.84 115.6V108.16H330.26V123H328.9ZM337.034 123.1C336.168 123.1 335.348 122.98 334.574 122.74C333.801 122.487 333.194 122.173 332.754 121.8L333.394 120.68C333.821 121 334.368 121.28 335.034 121.52C335.701 121.747 336.401 121.86 337.134 121.86C338.134 121.86 338.854 121.707 339.294 121.4C339.734 121.08 339.954 120.66 339.954 120.14C339.954 119.753 339.828 119.453 339.574 119.24C339.334 119.013 339.014 118.847 338.614 118.74C338.214 118.62 337.768 118.52 337.274 118.44C336.781 118.36 336.288 118.267 335.794 118.16C335.314 118.053 334.874 117.9 334.474 117.7C334.074 117.487 333.748 117.2 333.494 116.84C333.254 116.48 333.134 116 333.134 115.4C333.134 114.827 333.294 114.313 333.614 113.86C333.934 113.407 334.401 113.053 335.014 112.8C335.641 112.533 336.401 112.4 337.294 112.4C337.974 112.4 338.654 112.493 339.334 112.68C340.014 112.853 340.574 113.087 341.014 113.38L340.394 114.52C339.928 114.2 339.428 113.973 338.894 113.84C338.361 113.693 337.828 113.62 337.294 113.62C336.348 113.62 335.648 113.787 335.194 114.12C334.754 114.44 334.534 114.853 334.534 115.36C334.534 115.76 334.654 116.073 334.894 116.3C335.148 116.527 335.474 116.707 335.874 116.84C336.288 116.96 336.734 117.06 337.214 117.14C337.708 117.22 338.194 117.32 338.674 117.44C339.168 117.547 339.614 117.7 340.014 117.9C340.428 118.087 340.754 118.36 340.994 118.72C341.248 119.067 341.374 119.527 341.374 120.1C341.374 120.713 341.201 121.247 340.854 121.7C340.521 122.14 340.028 122.487 339.374 122.74C338.734 122.98 337.954 123.1 337.034 123.1Z" fill="white"/>
<circle cx="73.1816" cy="87.5" r="62" stroke="white" stroke-width="3"/>
</g>
<path d="M43.6326 53.1813C41.0063 53.8242 38.7904 56.0401 38.1885 58.6526C37.997 59.4459 37.9834 61.3472 38.0107 73.8217L38.0518 88.0744L38.3937 88.9635C38.8451 90.1261 39.6248 91.2888 40.4181 91.9864C41.3756 92.8208 43.0444 93.5867 44.3165 93.7646C46.0127 93.9834 46.7376 93.5867 46.7376 92.4241C46.7376 91.4529 46.2452 91.0426 44.8773 90.8784C43.2359 90.6733 41.9775 89.7705 41.2799 88.2933L40.9242 87.5273V73.4387V59.3502L41.2799 58.5979C41.786 57.5036 42.3878 56.8881 43.4274 56.382L44.3439 55.9306L57.913 55.8896L71.4958 55.8622V69.8824C71.4958 84.9831 71.4684 84.5454 72.1934 85.0515C72.6037 85.3388 73.3971 85.3388 73.8075 85.0515C74.5324 84.5454 74.5051 84.9831 74.5051 69.8824V55.8622L88.0879 55.8896L101.657 55.9306L102.409 56.2863C103.504 56.7924 104.119 57.3942 104.625 58.4337L105.077 59.3502V73.4387V87.5273L104.721 88.2933C104.27 89.2371 103.504 90.0304 102.601 90.4818C101.958 90.7964 101.794 90.8101 98.3468 90.8784C94.9818 90.9468 94.7493 90.9605 94.38 91.2341C93.6277 91.7949 93.6277 92.9712 94.38 93.532C94.7356 93.8056 94.9682 93.8193 97.6628 93.8603C101.37 93.915 102.409 93.7782 103.846 93.067C105.719 92.1505 106.841 90.9058 107.607 88.9635L107.949 88.0744L107.99 73.9175C108.017 63.8093 107.99 59.528 107.881 58.9398C107.361 56.1905 105.104 53.8379 102.382 53.195C101.63 53.0172 97.6765 52.9898 72.932 53.0035C50.3488 53.0172 44.1934 53.0445 43.6326 53.1813Z" fill="white"/>
<path d="M54.4936 64.7537C52.1135 65.1777 50.1438 67.1884 49.7471 69.6231C49.6651 70.0745 49.6104 72.7554 49.6104 75.6005C49.6104 81.1402 49.6377 81.4411 50.308 81.9061C50.4858 82.0293 50.8414 82.125 51.115 82.125C51.3886 82.125 51.7442 82.0293 51.922 81.9061C52.4965 81.4958 52.6196 80.935 52.6196 78.5687V76.3802H55.4921H58.3646V78.5687C58.3646 80.935 58.4877 81.4958 59.0622 81.9061C59.4726 82.1934 60.2659 82.1934 60.6763 81.9061C61.3465 81.4411 61.3739 81.1402 61.3739 75.6005C61.3739 72.7554 61.3192 70.0745 61.2371 69.6368C61.0866 68.652 60.5532 67.4893 59.9377 66.7233C58.7339 65.2461 56.4223 64.4117 54.4936 64.7537ZM57.0515 68.0364C57.325 68.2279 57.7217 68.6246 57.9269 68.9119C58.2825 69.4316 58.2962 69.5274 58.3373 71.415L58.3783 73.3709H55.5058H52.6196V71.5928C52.6196 69.5958 52.7291 69.1717 53.454 68.4605C54.1106 67.7902 54.603 67.6124 55.6426 67.6671C56.3402 67.6945 56.6685 67.7766 57.0515 68.0364Z" fill="white"/>
<path d="M85.4887 64.8357C84.6133 65.2735 84.627 65.1777 84.627 73.3573C84.627 81.318 84.6406 81.4137 85.3246 81.9061C85.5981 82.0976 86.1042 82.125 88.881 82.125C92.5058 82.125 92.9572 82.0429 94.1472 81.2359C95.5014 80.3058 96.2811 78.7738 96.2811 77.0641C96.2811 75.8741 96.0485 75.1218 95.3509 74.0959L94.8722 73.3983L95.3373 72.7691C96.158 71.7159 96.5136 70.1702 96.2537 68.8982C95.9118 67.2841 95.0227 66.0394 93.6958 65.3418C92.5332 64.7263 91.7672 64.6169 88.6895 64.6169C86.4599 64.6169 85.8444 64.6579 85.4887 64.8357ZM92.2322 67.845C92.9162 68.1732 93.2855 68.7751 93.3539 69.6642C93.3949 70.2934 93.3539 70.5122 93.0803 70.8952C92.4784 71.798 92.0681 71.9347 89.7291 71.9758L87.6362 72.0305V69.8283V67.6261H89.7017C91.3295 67.6261 91.8629 67.6671 92.2322 67.845ZM92.3827 75.2312C93.0393 75.7099 93.3812 76.3528 93.3812 77.0641C93.3812 77.7753 93.0393 78.4182 92.3827 78.8969C92.0271 79.1568 91.7672 79.1842 89.8111 79.2252L87.6362 79.2663V77.0641V74.8619L89.8111 74.9029C91.7672 74.9439 92.0271 74.9713 92.3827 75.2312Z" fill="white"/>
<path d="M55.4918 90.0025C53.1664 90.8369 52.0448 93.2853 52.9066 95.6243C53.1801 96.3629 53.6042 96.8143 59.4723 102.71C62.9329 106.184 65.7507 109.043 65.7507 109.084C65.7507 109.125 65.272 109.207 64.6975 109.248C62.6183 109.412 60.9085 110.205 59.5133 111.641C58.5831 112.585 57.9266 113.693 57.6804 114.705C57.3384 116.06 58.1044 117.537 59.4586 118.139C59.9647 118.371 60.4161 118.426 61.9891 118.453C64.7522 118.494 65.7917 118.768 69.6628 120.464C75.4898 123.022 79.3609 123.596 82.8762 122.406C84.7365 121.777 85.5709 121.148 88.6075 118.111C90.9055 115.813 91.6031 115.02 92.3965 113.803C93.8464 111.614 94.5577 109.59 94.7082 107.333C94.8586 104.994 94.2705 102.805 92.9436 100.767C92.0545 99.3858 83.396 90.6591 82.4385 90.1804C81.7136 89.8247 80.1816 89.6743 79.3608 89.9068C78.5538 90.1257 77.569 90.7959 77.1449 91.4114C76.9261 91.7123 76.7072 91.9585 76.6525 91.9722C76.5841 91.9722 76.3652 91.8491 76.1464 91.6986C75.5719 91.2883 74.2724 90.9874 73.4791 91.0968C72.0975 91.2609 70.7023 92.2184 70.2099 93.3127L69.9637 93.8461L68.9652 93.7777C67.4879 93.682 66.7219 93.9829 65.6276 95.0772L64.7522 95.9526L62.0028 93.2306C60.2519 91.4935 59.0345 90.3855 58.6379 90.1804C57.8308 89.7837 56.3535 89.6879 55.4918 90.0025ZM57.311 92.8476C57.5573 92.957 60.1972 95.5012 63.357 98.6745C66.4483 101.766 69.143 104.392 69.3618 104.515C69.8679 104.775 70.5382 104.652 71.0033 104.187C71.2768 103.913 71.3589 103.694 71.3589 103.216C71.3589 102.614 71.3315 102.586 69.3755 100.589C67.4468 98.6335 67.3921 98.5651 67.3921 98.0043C67.3921 96.9784 68.3496 96.3356 69.2114 96.7733C69.3755 96.8553 70.6203 98.0317 71.9744 99.3721C73.5611 100.945 74.587 101.862 74.8469 101.93C76.0233 102.258 77.0765 101.068 76.5431 100.001C76.461 99.8372 75.5445 98.8523 74.5186 97.8128C72.672 95.9526 72.6584 95.9252 72.6584 95.3097C72.6584 94.5027 73.1508 94.0239 73.9852 94.0239C74.5186 94.0239 74.6144 94.106 77.2407 96.6912C79.8806 99.3037 79.949 99.3584 80.5098 99.3584C81.3579 99.3584 81.8914 98.7976 81.8914 97.9086C81.8914 97.2794 81.864 97.2383 80.6056 95.9526C79.8806 95.2139 79.2651 94.4753 79.2241 94.2565C79.0189 93.4768 79.7165 92.6561 80.5646 92.6561C80.7424 92.6561 81.1391 92.8339 81.4263 93.0528C82.0692 93.5178 89.4283 100.945 90.1395 101.821C91.7399 103.845 92.2187 106.498 91.439 109.07C90.7004 111.477 89.6608 112.955 86.419 116.183C83.7243 118.877 83.0951 119.329 81.4126 119.821C80.3594 120.122 78.1024 120.122 76.6251 119.807C75.0111 119.479 73.0824 118.795 70.4698 117.646C66.6672 115.991 65.4498 115.663 62.5773 115.54C60.2793 115.444 60.2383 115.417 60.9359 114.459C61.5514 113.611 62.5636 112.804 63.4117 112.476C64.5607 112.024 66.886 111.97 68.6779 112.339C69.8543 112.572 70.0868 112.585 70.4698 112.435C71.058 112.189 71.3589 111.724 71.3589 111.053C71.3589 110.52 71.2632 110.424 63.5758 102.71C59.2944 98.4283 55.7243 94.7762 55.6423 94.6121C55.314 93.9555 55.6696 93.0801 56.3672 92.7929C56.7639 92.6288 56.8049 92.6288 57.311 92.8476Z" fill="white"/>
<defs>
<filter id="filter0_d_809_6566" x="0" y="0" width="653.029" height="184" filterUnits="userSpaceOnUse" color-interpolation-filters="sRGB">
<feFlood flood-opacity="0" result="BackgroundImageFix"/>
<feColorMatrix in="SourceAlpha" type="matrix" values="0 0 0 0 0 0 0 0 0 0 0 0 0 0 0 0 0 0 127 0" result="hardAlpha"/>
<feOffset dy="4"/>
<feGaussianBlur stdDeviation="2"/>
<feComposite in2="hardAlpha" operator="out"/>
<feColorMatrix type="matrix" values="0 0 0 0 0 0 0 0 0 0 0 0 0 0 0 0 0 0 0.25 0"/>
<feBlend mode="normal" in2="BackgroundImageFix" result="effect1_dropShadow_809_6566"/>
<feBlend mode="normal" in="SourceGraphic" in2="effect1_dropShadow_809_6566" result="shape"/>
</filter>
</defs>
</svg>
