<svg width="75" height="85" viewBox="0 0 75 85" fill="none" xmlns="http://www.w3.org/2000/svg">
<path d="M25.9742 0.0484467C21.7382 0.575951 18.0782 2.24941 15.217 4.99607C13.5635 6.59678 12.5231 8.03377 11.4641 10.1802C10.2379 12.6904 9.92206 14.1455 9.92206 17.4015C9.92206 19.9299 9.95921 20.4028 10.4237 22.0035C10.7024 22.9858 11.1297 24.3136 11.3898 24.9503L11.8728 26.1144L9.86632 28.0789C6.20628 31.6623 4.06971 35.3549 2.78776 40.3207C2.32329 42.0851 2.28613 42.5216 2.28613 45.9595C2.28613 49.3974 2.32329 49.8339 2.78776 51.5983C3.73529 55.2909 5.14728 58.2376 7.33959 61.0934C11.1483 66.041 16.7034 69.4062 23.1131 70.6249C25.4169 71.0796 29.9315 71.0614 32.291 70.6249C37.1587 69.6972 41.2089 67.7327 44.9804 64.4767L46.2438 63.3853L49.0678 65.3862L51.8732 67.3689L51.8918 68.3693C51.9289 70.2975 52.0404 70.4066 59.7878 75.9181C63.5965 78.6284 66.9407 80.9567 67.1822 81.0658C68.204 81.5024 69.1701 81.5024 70.2477 81.0113C71.1581 80.6111 71.4553 80.32 72.7744 78.5738C74.5023 76.3001 74.8553 75.6453 74.9853 74.5721C75.1154 73.4625 74.3722 72.0801 73.2203 71.2251C70.0991 68.915 60.3266 62.0393 59.7506 61.7483C59.1747 61.4572 58.8031 61.4026 57.8742 61.4754C57.2425 61.53 56.5551 61.6209 56.3507 61.6937C56.0534 61.7846 55.3289 61.3481 53.1923 59.8201C51.6502 58.7287 50.424 57.7465 50.4426 57.6737C50.4612 57.5828 50.8142 56.7461 51.2415 55.8184C52.7836 52.3623 53.3967 48.9608 53.2295 44.8681C53.0994 41.9759 52.7464 40.1206 51.7989 37.5012C50.4055 33.645 47.8973 29.9707 44.8318 27.2968L43.6056 26.2236L44.0701 25.0594C44.3302 24.4228 44.7761 23.0222 45.0547 21.9672C45.7422 19.3478 45.7793 15.8008 45.1476 13.3088C43.5684 7.16066 38.4778 2.12209 32.2353 0.575951C30.4703 0.139397 27.3862 -0.115257 25.9742 0.0484467ZM30.8047 3.21347C32.0867 3.46813 33.1085 3.83192 34.5205 4.52314C36.174 5.34168 36.7128 5.72366 38.162 7.12428C40.1313 9.03421 41.116 10.5622 41.9706 13.036C43.6613 17.9654 42.3608 23.5315 37.8833 30.771C35.5981 34.4272 31.5479 39.7386 28.7239 42.7581L27.7206 43.8313L25.9928 41.8486C20.2333 35.2275 15.7744 28.3518 13.8422 23.1131C12.0029 18.1109 12.5974 13.0723 15.4586 9.14335C16.7591 7.36075 18.8585 5.55996 20.7164 4.61409C24.0977 2.92244 27.1818 2.48588 30.8047 3.21347ZM14.028 30.3527L14.7154 31.5714L13.4149 32.8992C6.93086 39.5931 5.98333 49.5611 11.0925 57.1826C13.8422 61.2571 18.0782 64.1675 23.1131 65.4408C24.5065 65.7864 25.2311 65.8591 27.6463 65.8591C30.879 65.8591 32.1238 65.6591 34.8549 64.6404C37.2144 63.7673 39.3139 62.494 41.1718 60.7842C43.2526 58.8561 44.3673 57.3827 45.5935 54.9635C49.2721 47.5966 47.953 39.1929 42.1379 32.9902L40.8373 31.6078L41.5247 30.3708C41.8963 29.6978 42.2307 29.0976 42.2679 29.0612C42.398 28.8975 44.8132 31.3713 45.8908 32.7719C48.7891 36.5372 50.3126 41.1392 50.3126 46.0505C50.3126 51.8166 48.176 57.0189 44.0886 61.2207C34.0932 71.498 17.0006 70.0792 8.95595 58.3104C6.29917 54.4178 5.14728 50.6343 5.14728 45.8322C5.14728 40.0842 7.22812 35.0274 11.2783 30.8256C12.2444 29.8433 13.099 29.0612 13.1919 29.0794C13.2848 29.1157 13.675 29.6796 14.028 30.3527ZM19.8803 38.9928C21.6453 41.3211 24.4879 44.6498 25.9928 46.1778C27.3119 47.542 27.795 47.6875 28.6496 47.0327C29.9687 46.0141 35.5423 39.393 37.9576 35.9551C38.5521 35.1002 39.0723 34.3726 39.1095 34.3362C39.221 34.1725 40.6887 35.6823 41.5062 36.7918C42.5837 38.247 43.7171 40.6299 44.2001 42.4125C44.7761 44.5225 44.7946 48.1787 44.2187 50.3796C42.3794 57.5646 36.1369 62.6214 28.631 63.0034C25.2868 63.1671 22.7415 62.6214 19.676 61.057C15.7187 59.038 12.4674 54.9998 11.2597 50.5979C10.7395 48.6516 10.6838 44.4679 11.1668 42.6853C12.0215 39.5749 13.4706 36.9919 15.57 34.8455L16.3132 34.0816L17.4093 35.6459C18.0225 36.519 19.1186 38.0288 19.8803 38.9928ZM51.4459 62.1666C52.8579 63.1671 54.0283 64.0584 54.0283 64.1129C54.0283 64.1857 53.8983 64.404 53.7497 64.5859C53.4896 64.9315 53.471 64.9315 52.8579 64.4949C52.5049 64.2584 51.2972 63.4035 50.1825 62.6032C48.1574 61.2026 48.1388 61.148 48.3989 60.7478C48.5662 60.5113 48.7148 60.3294 48.7705 60.3294C48.8263 60.3294 50.0339 61.148 51.4459 62.1666ZM60.2894 65.5681C65.6773 69.3516 71.251 73.3352 71.6411 73.6626C71.8641 73.8627 72.0499 74.1719 72.0499 74.3538C72.0499 74.8267 69.2259 78.4283 68.7986 78.4829C68.557 78.5011 66.3276 77.0277 62.6675 74.4084C55.4961 69.3152 54.7715 68.7513 54.7715 68.4421C54.7715 68.1693 57.2425 64.7314 57.707 64.3676C57.8742 64.2584 58.06 64.1493 58.1343 64.1493C58.2086 64.1493 59.1747 64.786 60.2894 65.5681Z" fill="#5F0000"/>
<path d="M26.2534 7.7823C23.7081 8.14609 20.7355 10.2379 19.5836 12.4571C16.5366 18.3324 20.4753 25.1899 27.1823 25.6993C28.7244 25.8266 30.9353 25.3173 32.2729 24.5533C35.0969 22.9344 36.9548 19.7876 36.9177 16.6771C36.8805 11.111 31.9014 6.96375 26.2534 7.7823ZM30.1364 11.0383C31.3812 11.5112 32.6259 12.639 33.3505 13.9668C33.815 14.8399 33.8707 15.131 33.8707 16.6771C33.8707 18.7144 33.462 19.7148 32.1429 21.0063C30.9167 22.2068 29.5604 22.7525 27.7397 22.7707C25.8446 22.7707 24.4327 22.1886 23.1507 20.8426C21.9245 19.5693 21.46 18.296 21.5529 16.4043C21.6272 14.6762 22.1103 13.5303 23.2993 12.3661C25.1572 10.5653 27.5539 10.0924 30.1364 11.0383Z" fill="#5F0000"/>
<path d="M54.4564 18.0579C54.0291 18.4762 53.992 18.6218 54.0849 19.4585C54.1406 19.986 54.2521 20.659 54.3078 20.9682L54.4378 21.5503L53.2674 21.6776C51.9483 21.8232 51.168 22.1506 50.9822 22.5871C50.7592 23.1874 50.8893 23.8059 51.3538 24.2606C51.7996 24.6972 51.8925 24.7153 53.2488 24.588C54.0291 24.5153 54.7537 24.4425 54.8466 24.4425C54.9395 24.4243 55.1624 25.0609 55.3296 25.8431C55.6826 27.4074 56.0914 27.9531 56.946 27.9531C58.1908 27.9531 58.6181 27.0982 58.2279 25.352C58.0979 24.679 58.0236 24.0969 58.0979 24.0605C58.1536 24.0241 58.7482 23.9332 59.417 23.8786C60.9033 23.7149 61.4607 23.2965 61.4607 22.3143C61.4607 21.1319 60.7175 20.7863 58.8225 21.041C58.0979 21.1501 57.4848 21.2047 57.4476 21.1683C57.4105 21.1319 57.2618 20.4953 57.0946 19.7495C56.8903 18.7491 56.6859 18.2943 56.3329 17.9851C55.7198 17.4576 55.051 17.4758 54.4564 18.0579Z" fill="#5F0000"/>
<path d="M0.428396 62.2423C-0.203286 62.8426 -0.147549 63.3337 0.669922 64.6797C2.86223 68.3177 7.22827 72.2467 11.5014 74.4295C15.6074 76.5031 19.7319 77.4672 24.5995 77.449C27.7022 77.449 28.241 77.3216 28.594 76.4849C28.7798 76.0484 28.7612 75.8483 28.5197 75.3208C28.3525 74.9752 28.1109 74.6841 27.9809 74.6841C27.8508 74.6659 26.3645 74.6295 24.6738 74.6114C19.0444 74.5568 14.8085 73.3199 10.3681 70.4277C8.4359 69.1908 4.7387 65.5346 3.43818 63.5701C2.84365 62.7152 2.23055 61.9513 2.08192 61.8967C1.48739 61.6784 0.855711 61.8057 0.428396 62.2423Z" fill="#5F0000"/>
<path d="M41.7292 74.4099C41.339 74.7009 41.0232 75.4649 41.1161 75.9015C41.1532 76.1016 41.2275 76.6836 41.2833 77.193L41.3762 78.157H39.9084C38.6451 78.157 38.385 78.2116 37.9762 78.5572C37.2145 79.2302 37.1773 79.8669 37.8276 80.5217C38.3664 81.0492 38.4593 81.0674 39.9642 81.0674C41.7292 81.0674 41.7477 81.0856 41.7663 82.6135C41.8035 84.2324 42.5652 85.2147 43.6242 84.96C44.6275 84.7417 44.7947 84.3961 44.7018 82.6863L44.6275 81.1219L46.0766 80.9946C47.8788 80.8491 48.0646 80.7763 48.3618 80.1033C48.6405 79.4485 48.4176 78.6118 47.8974 78.3389C47.7116 78.2298 46.8384 78.157 45.9651 78.157C44.1444 78.157 44.293 78.3207 44.0887 76.1561C43.9958 75.3194 43.8472 74.8465 43.587 74.5554C43.1412 74.1007 42.2308 74.0279 41.7292 74.4099Z" fill="#5F0000"/>
</svg>
