<svg width="654" height="184" viewBox="0 0 654 184" fill="none" xmlns="http://www.w3.org/2000/svg">
<g filter="url(#filter0_d_809_6570)">
<rect x="5.49902" y="1.5" width="642.029" height="173" rx="16.5" fill="white"/>
<rect x="5.49902" y="1.5" width="642.029" height="173" rx="16.5" fill="#FF0000"/>
<rect x="5.49902" y="1.5" width="642.029" height="173" rx="16.5" stroke="#F7A9A0" stroke-width="3"/>
<path d="M148.75 55.794H158.173V58.764H148.75V55.794ZM149.047 66H145.537V47.1H159.334V50.043H149.047V66ZM161.954 66V51.582H165.329V66H161.954ZM163.655 49.206C163.025 49.206 162.503 49.008 162.089 48.612C161.693 48.216 161.495 47.739 161.495 47.181C161.495 46.605 161.693 46.128 162.089 45.75C162.503 45.354 163.025 45.156 163.655 45.156C164.285 45.156 164.798 45.345 165.194 45.723C165.608 46.083 165.815 46.542 165.815 47.1C165.815 47.694 165.617 48.198 165.221 48.612C164.825 49.008 164.303 49.206 163.655 49.206ZM177.49 51.42C178.642 51.42 179.668 51.645 180.568 52.095C181.486 52.545 182.206 53.238 182.728 54.174C183.25 55.092 183.511 56.28 183.511 57.738V66H180.136V58.17C180.136 56.892 179.83 55.938 179.218 55.308C178.624 54.678 177.787 54.363 176.707 54.363C175.915 54.363 175.213 54.525 174.601 54.849C173.989 55.173 173.512 55.659 173.17 56.307C172.846 56.937 172.684 57.738 172.684 58.71V66H169.309V51.582H172.522V55.47L171.955 54.282C172.459 53.364 173.188 52.662 174.142 52.176C175.114 51.672 176.23 51.42 177.49 51.42ZM193.471 66.189C192.085 66.189 190.834 65.883 189.718 65.271C188.62 64.641 187.756 63.777 187.126 62.679C186.496 61.581 186.181 60.285 186.181 58.791C186.181 57.297 186.496 56.001 187.126 54.903C187.756 53.805 188.62 52.95 189.718 52.338C190.834 51.726 192.085 51.42 193.471 51.42C194.677 51.42 195.757 51.69 196.711 52.23C197.665 52.752 198.421 53.553 198.979 54.633C199.537 55.713 199.816 57.099 199.816 58.791C199.816 60.465 199.546 61.851 199.006 62.949C198.466 64.029 197.719 64.839 196.765 65.379C195.811 65.919 194.713 66.189 193.471 66.189ZM193.876 63.3C194.686 63.3 195.406 63.12 196.036 62.76C196.684 62.4 197.197 61.878 197.575 61.194C197.971 60.51 198.169 59.709 198.169 58.791C198.169 57.855 197.971 57.054 197.575 56.388C197.197 55.704 196.684 55.182 196.036 54.822C195.406 54.462 194.686 54.282 193.876 54.282C193.066 54.282 192.337 54.462 191.689 54.822C191.059 55.182 190.546 55.704 190.15 56.388C189.772 57.054 189.583 57.855 189.583 58.791C189.583 59.709 189.772 60.51 190.15 61.194C190.546 61.878 191.059 62.4 191.689 62.76C192.337 63.12 193.066 63.3 193.876 63.3ZM198.25 66V62.598L198.385 58.764L198.115 54.93V45.966H201.463V66H198.25ZM216.625 66V50.07H210.361V47.1H226.399V50.07H220.135V66H216.625ZM236.44 51.42C237.592 51.42 238.618 51.645 239.518 52.095C240.436 52.545 241.156 53.238 241.678 54.174C242.2 55.092 242.461 56.28 242.461 57.738V66H239.086V58.17C239.086 56.892 238.78 55.938 238.168 55.308C237.574 54.678 236.737 54.363 235.657 54.363C234.865 54.363 234.163 54.525 233.551 54.849C232.939 55.173 232.462 55.659 232.12 56.307C231.796 56.937 231.634 57.738 231.634 58.71V66H228.259V45.966H231.634V55.47L230.905 54.282C231.409 53.364 232.138 52.662 233.092 52.176C234.064 51.672 235.18 51.42 236.44 51.42ZM253.096 66.189C251.494 66.189 250.09 65.874 248.884 65.244C247.696 64.596 246.769 63.714 246.103 62.598C245.455 61.482 245.131 60.213 245.131 58.791C245.131 57.351 245.446 56.082 246.076 54.984C246.724 53.868 247.606 52.995 248.722 52.365C249.856 51.735 251.143 51.42 252.583 51.42C253.987 51.42 255.238 51.726 256.336 52.338C257.434 52.95 258.298 53.814 258.928 54.93C259.558 56.046 259.873 57.36 259.873 58.872C259.873 59.016 259.864 59.178 259.846 59.358C259.846 59.538 259.837 59.709 259.819 59.871H247.804V57.63H258.037L256.714 58.332C256.732 57.504 256.561 56.775 256.201 56.145C255.841 55.515 255.346 55.02 254.716 54.66C254.104 54.3 253.393 54.12 252.583 54.12C251.755 54.12 251.026 54.3 250.396 54.66C249.784 55.02 249.298 55.524 248.938 56.172C248.596 56.802 248.425 57.549 248.425 58.413V58.953C248.425 59.817 248.623 60.582 249.019 61.248C249.415 61.914 249.973 62.427 250.693 62.787C251.413 63.147 252.241 63.327 253.177 63.327C253.987 63.327 254.716 63.201 255.364 62.949C256.012 62.697 256.588 62.301 257.092 61.761L258.901 63.84C258.253 64.596 257.434 65.181 256.444 65.595C255.472 65.991 254.356 66.189 253.096 66.189ZM270.001 66V47.1H272.89L284.743 61.653H283.312V47.1H286.795V66H283.906L272.053 51.447H273.484V66H270.001ZM297.862 66.189C296.26 66.189 294.856 65.874 293.65 65.244C292.462 64.596 291.535 63.714 290.869 62.598C290.221 61.482 289.897 60.213 289.897 58.791C289.897 57.351 290.212 56.082 290.842 54.984C291.49 53.868 292.372 52.995 293.488 52.365C294.622 51.735 295.909 51.42 297.349 51.42C298.753 51.42 300.004 51.726 301.102 52.338C302.2 52.95 303.064 53.814 303.694 54.93C304.324 56.046 304.639 57.36 304.639 58.872C304.639 59.016 304.63 59.178 304.612 59.358C304.612 59.538 304.603 59.709 304.585 59.871H292.57V57.63H302.803L301.48 58.332C301.498 57.504 301.327 56.775 300.967 56.145C300.607 55.515 300.112 55.02 299.482 54.66C298.87 54.3 298.159 54.12 297.349 54.12C296.521 54.12 295.792 54.3 295.162 54.66C294.55 55.02 294.064 55.524 293.704 56.172C293.362 56.802 293.191 57.549 293.191 58.413V58.953C293.191 59.817 293.389 60.582 293.785 61.248C294.181 61.914 294.739 62.427 295.459 62.787C296.179 63.147 297.007 63.327 297.943 63.327C298.753 63.327 299.482 63.201 300.13 62.949C300.778 62.697 301.354 62.301 301.858 61.761L303.667 63.84C303.019 64.596 302.2 65.181 301.21 65.595C300.238 65.991 299.122 66.189 297.862 66.189ZM315.918 66V63.084L315.729 62.463V57.36C315.729 56.37 315.432 55.605 314.838 55.065C314.244 54.507 313.344 54.228 312.138 54.228C311.328 54.228 310.527 54.354 309.735 54.606C308.961 54.858 308.304 55.209 307.764 55.659L306.441 53.202C307.215 52.608 308.133 52.167 309.195 51.879C310.275 51.573 311.391 51.42 312.543 51.42C314.631 51.42 316.242 51.924 317.376 52.932C318.528 53.922 319.104 55.461 319.104 57.549V66H315.918ZM311.382 66.189C310.302 66.189 309.357 66.009 308.547 65.649C307.737 65.271 307.107 64.758 306.657 64.11C306.225 63.444 306.009 62.697 306.009 61.869C306.009 61.059 306.198 60.33 306.576 59.682C306.972 59.034 307.611 58.521 308.493 58.143C309.375 57.765 310.545 57.576 312.003 57.576H316.188V59.817H312.246C311.094 59.817 310.32 60.006 309.924 60.384C309.528 60.744 309.33 61.194 309.33 61.734C309.33 62.346 309.573 62.832 310.059 63.192C310.545 63.552 311.22 63.732 312.084 63.732C312.912 63.732 313.65 63.543 314.298 63.165C314.964 62.787 315.441 62.229 315.729 61.491L316.296 63.516C315.972 64.362 315.387 65.019 314.541 65.487C313.713 65.955 312.66 66.189 311.382 66.189ZM322.986 66V51.582H326.199V55.551L325.821 54.39C326.253 53.418 326.928 52.68 327.846 52.176C328.782 51.672 329.943 51.42 331.329 51.42V54.633C331.185 54.597 331.05 54.579 330.924 54.579C330.798 54.561 330.672 54.552 330.546 54.552C329.268 54.552 328.251 54.93 327.495 55.686C326.739 56.424 326.361 57.531 326.361 59.007V66H322.986ZM340.387 66.189C338.785 66.189 337.381 65.874 336.175 65.244C334.987 64.596 334.06 63.714 333.394 62.598C332.746 61.482 332.422 60.213 332.422 58.791C332.422 57.351 332.737 56.082 333.367 54.984C334.015 53.868 334.897 52.995 336.013 52.365C337.147 51.735 338.434 51.42 339.874 51.42C341.278 51.42 342.529 51.726 343.627 52.338C344.725 52.95 345.589 53.814 346.219 54.93C346.849 56.046 347.164 57.36 347.164 58.872C347.164 59.016 347.155 59.178 347.137 59.358C347.137 59.538 347.128 59.709 347.11 59.871H335.095V57.63H345.328L344.005 58.332C344.023 57.504 343.852 56.775 343.492 56.145C343.132 55.515 342.637 55.02 342.007 54.66C341.395 54.3 340.684 54.12 339.874 54.12C339.046 54.12 338.317 54.3 337.687 54.66C337.075 55.02 336.589 55.524 336.229 56.172C335.887 56.802 335.716 57.549 335.716 58.413V58.953C335.716 59.817 335.914 60.582 336.31 61.248C336.706 61.914 337.264 62.427 337.984 62.787C338.704 63.147 339.532 63.327 340.468 63.327C341.278 63.327 342.007 63.201 342.655 62.949C343.303 62.697 343.879 62.301 344.383 61.761L346.192 63.84C345.544 64.596 344.725 65.181 343.735 65.595C342.763 65.991 341.647 66.189 340.387 66.189ZM354.411 66.189C353.205 66.189 352.044 66.036 350.928 65.73C349.83 65.406 348.957 65.019 348.309 64.569L349.605 62.004C350.253 62.418 351.027 62.76 351.927 63.03C352.827 63.3 353.727 63.435 354.627 63.435C355.689 63.435 356.454 63.291 356.922 63.003C357.408 62.715 357.651 62.328 357.651 61.842C357.651 61.446 357.489 61.149 357.165 60.951C356.841 60.735 356.418 60.573 355.896 60.465C355.374 60.357 354.789 60.258 354.141 60.168C353.511 60.078 352.872 59.961 352.224 59.817C351.594 59.655 351.018 59.43 350.496 59.142C349.974 58.836 349.551 58.431 349.227 57.927C348.903 57.423 348.741 56.757 348.741 55.929C348.741 55.011 349.002 54.219 349.524 53.553C350.046 52.869 350.775 52.347 351.711 51.987C352.665 51.609 353.79 51.42 355.086 51.42C356.058 51.42 357.039 51.528 358.029 51.744C359.019 51.96 359.838 52.266 360.486 52.662L359.19 55.227C358.506 54.813 357.813 54.534 357.111 54.39C356.427 54.228 355.743 54.147 355.059 54.147C354.033 54.147 353.268 54.3 352.764 54.606C352.278 54.912 352.035 55.299 352.035 55.767C352.035 56.199 352.197 56.523 352.521 56.739C352.845 56.955 353.268 57.126 353.79 57.252C354.312 57.378 354.888 57.486 355.518 57.576C356.166 57.648 356.805 57.765 357.435 57.927C358.065 58.089 358.641 58.314 359.163 58.602C359.703 58.872 360.135 59.259 360.459 59.763C360.783 60.267 360.945 60.924 360.945 61.734C360.945 62.634 360.675 63.417 360.135 64.083C359.613 64.749 358.866 65.271 357.894 65.649C356.922 66.009 355.761 66.189 354.411 66.189ZM368.829 66.189C367.245 66.189 366.021 65.784 365.156 64.974C364.293 64.146 363.861 62.931 363.861 61.329V48.396H367.236V61.248C367.236 61.932 367.407 62.463 367.749 62.841C368.109 63.219 368.604 63.408 369.234 63.408C369.99 63.408 370.62 63.21 371.124 62.814L372.069 65.217C371.673 65.541 371.187 65.784 370.611 65.946C370.035 66.108 369.441 66.189 368.829 66.189ZM361.485 54.39V51.69H371.097V54.39H361.485ZM387.59 66.27C386.114 66.27 384.701 66.063 383.351 65.649C382.001 65.217 380.93 64.668 380.138 64.002L381.353 61.275C382.109 61.869 383.045 62.364 384.161 62.76C385.277 63.156 386.42 63.354 387.59 63.354C388.58 63.354 389.381 63.246 389.993 63.03C390.605 62.814 391.055 62.526 391.343 62.166C391.631 61.788 391.775 61.365 391.775 60.897C391.775 60.321 391.568 59.862 391.154 59.52C390.74 59.16 390.2 58.881 389.534 58.683C388.886 58.467 388.157 58.269 387.347 58.089C386.555 57.909 385.754 57.702 384.944 57.468C384.152 57.216 383.423 56.901 382.757 56.523C382.109 56.127 381.578 55.605 381.164 54.957C380.75 54.309 380.543 53.481 380.543 52.473C380.543 51.447 380.813 50.511 381.353 49.665C381.911 48.801 382.748 48.117 383.864 47.613C384.998 47.091 386.429 46.83 388.157 46.83C389.291 46.83 390.416 46.974 391.532 47.262C392.648 47.55 393.62 47.964 394.448 48.504L393.341 51.231C392.495 50.727 391.622 50.358 390.722 50.124C389.822 49.872 388.958 49.746 388.13 49.746C387.158 49.746 386.366 49.863 385.754 50.097C385.16 50.331 384.719 50.637 384.431 51.015C384.161 51.393 384.026 51.825 384.026 52.311C384.026 52.887 384.224 53.355 384.62 53.715C385.034 54.057 385.565 54.327 386.213 54.525C386.879 54.723 387.617 54.921 388.427 55.119C389.237 55.299 390.038 55.506 390.83 55.74C391.64 55.974 392.369 56.28 393.017 56.658C393.683 57.036 394.214 57.549 394.61 58.197C395.024 58.845 395.231 59.664 395.231 60.654C395.231 61.662 394.952 62.598 394.394 63.462C393.854 64.308 393.017 64.992 391.883 65.514C390.749 66.018 389.318 66.27 387.59 66.27ZM404.714 66.189C403.112 66.189 401.708 65.874 400.502 65.244C399.314 64.596 398.387 63.714 397.721 62.598C397.073 61.482 396.749 60.213 396.749 58.791C396.749 57.351 397.064 56.082 397.694 54.984C398.342 53.868 399.224 52.995 400.34 52.365C401.474 51.735 402.761 51.42 404.201 51.42C405.605 51.42 406.856 51.726 407.954 52.338C409.052 52.95 409.916 53.814 410.546 54.93C411.176 56.046 411.491 57.36 411.491 58.872C411.491 59.016 411.482 59.178 411.464 59.358C411.464 59.538 411.455 59.709 411.437 59.871H399.422V57.63H409.655L408.332 58.332C408.35 57.504 408.179 56.775 407.819 56.145C407.459 55.515 406.964 55.02 406.334 54.66C405.722 54.3 405.011 54.12 404.201 54.12C403.373 54.12 402.644 54.3 402.014 54.66C401.402 55.02 400.916 55.524 400.556 56.172C400.214 56.802 400.043 57.549 400.043 58.413V58.953C400.043 59.817 400.241 60.582 400.637 61.248C401.033 61.914 401.591 62.427 402.311 62.787C403.031 63.147 403.859 63.327 404.795 63.327C405.605 63.327 406.334 63.201 406.982 62.949C407.63 62.697 408.206 62.301 408.71 61.761L410.519 63.84C409.871 64.596 409.052 65.181 408.062 65.595C407.09 65.991 405.974 66.189 404.714 66.189ZM414.283 66V51.582H417.496V55.551L417.118 54.39C417.55 53.418 418.225 52.68 419.143 52.176C420.079 51.672 421.24 51.42 422.626 51.42V54.633C422.482 54.597 422.347 54.579 422.221 54.579C422.095 54.561 421.969 54.552 421.843 54.552C420.565 54.552 419.548 54.93 418.792 55.686C418.036 56.424 417.658 57.531 417.658 59.007V66H414.283ZM429.401 66L423.218 51.582H426.728L432.047 64.299H430.319L435.827 51.582H439.067L432.884 66H429.401ZM440.726 66V51.582H444.101V66H440.726ZM442.427 49.206C441.797 49.206 441.275 49.008 440.861 48.612C440.465 48.216 440.267 47.739 440.267 47.181C440.267 46.605 440.465 46.128 440.861 45.75C441.275 45.354 441.797 45.156 442.427 45.156C443.057 45.156 443.57 45.345 443.966 45.723C444.38 46.083 444.587 46.542 444.587 47.1C444.587 47.694 444.389 48.198 443.993 48.612C443.597 49.008 443.075 49.206 442.427 49.206ZM454.696 66.189C453.184 66.189 451.834 65.874 450.646 65.244C449.476 64.596 448.558 63.714 447.892 62.598C447.226 61.482 446.893 60.213 446.893 58.791C446.893 57.351 447.226 56.082 447.892 54.984C448.558 53.868 449.476 52.995 450.646 52.365C451.834 51.735 453.184 51.42 454.696 51.42C456.1 51.42 457.333 51.708 458.395 52.284C459.475 52.842 460.294 53.67 460.852 54.768L458.26 56.28C457.828 55.596 457.297 55.092 456.667 54.768C456.055 54.444 455.389 54.282 454.669 54.282C453.841 54.282 453.094 54.462 452.428 54.822C451.762 55.182 451.24 55.704 450.862 56.388C450.484 57.054 450.295 57.855 450.295 58.791C450.295 59.727 450.484 60.537 450.862 61.221C451.24 61.887 451.762 62.4 452.428 62.76C453.094 63.12 453.841 63.3 454.669 63.3C455.389 63.3 456.055 63.138 456.667 62.814C457.297 62.49 457.828 61.986 458.26 61.302L460.852 62.814C460.294 63.894 459.475 64.731 458.395 65.325C457.333 65.901 456.1 66.189 454.696 66.189ZM469.885 66.189C468.283 66.189 466.879 65.874 465.673 65.244C464.485 64.596 463.558 63.714 462.892 62.598C462.244 61.482 461.92 60.213 461.92 58.791C461.92 57.351 462.235 56.082 462.865 54.984C463.513 53.868 464.395 52.995 465.511 52.365C466.645 51.735 467.932 51.42 469.372 51.42C470.776 51.42 472.027 51.726 473.125 52.338C474.223 52.95 475.087 53.814 475.717 54.93C476.347 56.046 476.662 57.36 476.662 58.872C476.662 59.016 476.653 59.178 476.635 59.358C476.635 59.538 476.626 59.709 476.608 59.871H464.593V57.63H474.826L473.503 58.332C473.521 57.504 473.35 56.775 472.99 56.145C472.63 55.515 472.135 55.02 471.505 54.66C470.893 54.3 470.182 54.12 469.372 54.12C468.544 54.12 467.815 54.3 467.185 54.66C466.573 55.02 466.087 55.524 465.727 56.172C465.385 56.802 465.214 57.549 465.214 58.413V58.953C465.214 59.817 465.412 60.582 465.808 61.248C466.204 61.914 466.762 62.427 467.482 62.787C468.202 63.147 469.03 63.327 469.966 63.327C470.776 63.327 471.505 63.201 472.153 62.949C472.801 62.697 473.377 62.301 473.881 61.761L475.69 63.84C475.042 64.596 474.223 65.181 473.233 65.595C472.261 65.991 471.145 66.189 469.885 66.189ZM486.79 66V47.1H494.566C496.24 47.1 497.671 47.37 498.859 47.91C500.065 48.45 500.992 49.224 501.64 50.232C502.288 51.24 502.612 52.437 502.612 53.823C502.612 55.209 502.288 56.406 501.64 57.414C500.992 58.422 500.065 59.196 498.859 59.736C497.671 60.276 496.24 60.546 494.566 60.546H488.734L490.3 58.899V66H486.79ZM490.3 59.277L488.734 57.576H494.404C495.952 57.576 497.113 57.252 497.887 56.604C498.679 55.938 499.075 55.011 499.075 53.823C499.075 52.617 498.679 51.69 497.887 51.042C497.113 50.394 495.952 50.07 494.404 50.07H488.734L490.3 48.342V59.277ZM505.211 66V51.582H508.424V55.551L508.046 54.39C508.478 53.418 509.153 52.68 510.071 52.176C511.007 51.672 512.168 51.42 513.554 51.42V54.633C513.41 54.597 513.275 54.579 513.149 54.579C513.023 54.561 512.897 54.552 512.771 54.552C511.493 54.552 510.476 54.93 509.72 55.686C508.964 56.424 508.586 57.531 508.586 59.007V66H505.211ZM522.315 66.189C520.839 66.189 519.525 65.874 518.373 65.244C517.221 64.596 516.312 63.714 515.646 62.598C514.98 61.482 514.647 60.213 514.647 58.791C514.647 57.351 514.98 56.082 515.646 54.984C516.312 53.868 517.221 52.995 518.373 52.365C519.525 51.735 520.839 51.42 522.315 51.42C523.809 51.42 525.132 51.735 526.284 52.365C527.454 52.995 528.363 53.859 529.011 54.957C529.677 56.055 530.01 57.333 530.01 58.791C530.01 60.213 529.677 61.482 529.011 62.598C528.363 63.714 527.454 64.596 526.284 65.244C525.132 65.874 523.809 66.189 522.315 66.189ZM522.315 63.3C523.143 63.3 523.881 63.12 524.529 62.76C525.177 62.4 525.681 61.878 526.041 61.194C526.419 60.51 526.608 59.709 526.608 58.791C526.608 57.855 526.419 57.054 526.041 56.388C525.681 55.704 525.177 55.182 524.529 54.822C523.881 54.462 523.152 54.282 522.342 54.282C521.514 54.282 520.776 54.462 520.128 54.822C519.498 55.182 518.994 55.704 518.616 56.388C518.238 57.054 518.049 57.855 518.049 58.791C518.049 59.709 518.238 60.51 518.616 61.194C518.994 61.878 519.498 62.4 520.128 62.76C520.776 63.12 521.505 63.3 522.315 63.3ZM536.226 66L530.043 51.582H533.553L538.872 64.299H537.144L542.652 51.582H545.892L539.709 66H536.226ZM547.552 66V51.582H550.927V66H547.552ZM549.253 49.206C548.623 49.206 548.101 49.008 547.687 48.612C547.291 48.216 547.093 47.739 547.093 47.181C547.093 46.605 547.291 46.128 547.687 45.75C548.101 45.354 548.623 45.156 549.253 45.156C549.883 45.156 550.396 45.345 550.792 45.723C551.206 46.083 551.413 46.542 551.413 47.1C551.413 47.694 551.215 48.198 550.819 48.612C550.423 49.008 549.901 49.206 549.253 49.206ZM561.008 66.189C559.622 66.189 558.371 65.883 557.255 65.271C556.157 64.641 555.293 63.777 554.663 62.679C554.033 61.581 553.718 60.285 553.718 58.791C553.718 57.297 554.033 56.001 554.663 54.903C555.293 53.805 556.157 52.95 557.255 52.338C558.371 51.726 559.622 51.42 561.008 51.42C562.214 51.42 563.294 51.69 564.248 52.23C565.202 52.752 565.958 53.553 566.516 54.633C567.074 55.713 567.353 57.099 567.353 58.791C567.353 60.465 567.083 61.851 566.543 62.949C566.003 64.029 565.256 64.839 564.302 65.379C563.348 65.919 562.25 66.189 561.008 66.189ZM561.413 63.3C562.223 63.3 562.943 63.12 563.573 62.76C564.221 62.4 564.734 61.878 565.112 61.194C565.508 60.51 565.706 59.709 565.706 58.791C565.706 57.855 565.508 57.054 565.112 56.388C564.734 55.704 564.221 55.182 563.573 54.822C562.943 54.462 562.223 54.282 561.413 54.282C560.603 54.282 559.874 54.462 559.226 54.822C558.596 55.182 558.083 55.704 557.687 56.388C557.309 57.054 557.12 57.855 557.12 58.791C557.12 59.709 557.309 60.51 557.687 61.194C558.083 61.878 558.596 62.4 559.226 62.76C559.874 63.12 560.603 63.3 561.413 63.3ZM565.787 66V62.598L565.922 58.764L565.652 54.93V45.966H569V66H565.787ZM579.77 66.189C578.168 66.189 576.764 65.874 575.558 65.244C574.37 64.596 573.443 63.714 572.777 62.598C572.129 61.482 571.805 60.213 571.805 58.791C571.805 57.351 572.12 56.082 572.75 54.984C573.398 53.868 574.28 52.995 575.396 52.365C576.53 51.735 577.817 51.42 579.257 51.42C580.661 51.42 581.912 51.726 583.01 52.338C584.108 52.95 584.972 53.814 585.602 54.93C586.232 56.046 586.547 57.36 586.547 58.872C586.547 59.016 586.538 59.178 586.52 59.358C586.52 59.538 586.511 59.709 586.493 59.871H574.478V57.63H584.711L583.388 58.332C583.406 57.504 583.235 56.775 582.875 56.145C582.515 55.515 582.02 55.02 581.39 54.66C580.778 54.3 580.067 54.12 579.257 54.12C578.429 54.12 577.7 54.3 577.07 54.66C576.458 55.02 575.972 55.524 575.612 56.172C575.27 56.802 575.099 57.549 575.099 58.413V58.953C575.099 59.817 575.297 60.582 575.693 61.248C576.089 61.914 576.647 62.427 577.367 62.787C578.087 63.147 578.915 63.327 579.851 63.327C580.661 63.327 581.39 63.201 582.038 62.949C582.686 62.697 583.262 62.301 583.766 61.761L585.575 63.84C584.927 64.596 584.108 65.181 583.118 65.595C582.146 65.991 581.03 66.189 579.77 66.189ZM589.338 66V51.582H592.551V55.551L592.173 54.39C592.605 53.418 593.28 52.68 594.198 52.176C595.134 51.672 596.295 51.42 597.681 51.42V54.633C597.537 54.597 597.402 54.579 597.276 54.579C597.15 54.561 597.024 54.552 596.898 54.552C595.62 54.552 594.603 54.93 593.847 55.686C593.091 56.424 592.713 57.531 592.713 59.007V66H589.338Z" fill="white"/>
<path d="M155.399 99.12C154.346 99.12 153.366 98.9467 152.459 98.6C151.566 98.24 150.786 97.74 150.119 97.1C149.466 96.4467 148.952 95.6933 148.579 94.84C148.219 93.9733 148.039 93.0267 148.039 92C148.039 90.9733 148.219 90.0333 148.579 89.18C148.952 88.3133 149.466 87.56 150.119 86.92C150.786 86.2667 151.566 85.7667 152.459 85.42C153.352 85.06 154.332 84.88 155.399 84.88C156.452 84.88 157.426 85.06 158.319 85.42C159.212 85.7667 159.986 86.26 160.639 86.9C161.306 87.54 161.819 88.2933 162.179 89.16C162.552 90.0267 162.739 90.9733 162.739 92C162.739 93.0267 162.552 93.9733 162.179 94.84C161.819 95.7067 161.306 96.46 160.639 97.1C159.986 97.74 159.212 98.24 158.319 98.6C157.426 98.9467 156.452 99.12 155.399 99.12ZM159.979 101.78C159.552 101.78 159.139 101.727 158.739 101.62C158.339 101.513 157.932 101.34 157.519 101.1C157.119 100.873 156.706 100.573 156.279 100.2C155.852 99.8267 155.386 99.3733 154.879 98.84L156.499 98.44C156.912 98.9333 157.312 99.34 157.699 99.66C158.099 99.98 158.486 100.213 158.859 100.36C159.246 100.52 159.626 100.6 159.999 100.6C161.039 100.6 161.926 100.173 162.659 99.32L163.379 100.18C162.499 101.247 161.366 101.78 159.979 101.78ZM155.399 97.8C156.239 97.8 157.012 97.66 157.719 97.38C158.439 97.0867 159.059 96.6733 159.579 96.14C160.112 95.6067 160.526 94.9933 160.819 94.3C161.112 93.5933 161.259 92.8267 161.259 92C161.259 91.16 161.112 90.3933 160.819 89.7C160.526 88.9933 160.112 88.38 159.579 87.86C159.059 87.3267 158.439 86.92 157.719 86.64C157.012 86.3467 156.239 86.2 155.399 86.2C154.559 86.2 153.779 86.3467 153.059 86.64C152.339 86.92 151.712 87.3267 151.179 87.86C150.659 88.38 150.246 88.9933 149.939 89.7C149.646 90.3933 149.499 91.16 149.499 92C149.499 92.8267 149.646 93.5933 149.939 94.3C150.246 94.9933 150.659 95.6067 151.179 96.14C151.712 96.6733 152.339 97.0867 153.059 97.38C153.779 97.66 154.559 97.8 155.399 97.8ZM170.096 99.1C169.203 99.1 168.423 98.9333 167.756 98.6C167.09 98.2667 166.57 97.7667 166.196 97.1C165.836 96.4333 165.656 95.6 165.656 94.6V88.5H167.076V94.44C167.076 95.56 167.35 96.4067 167.896 96.98C168.456 97.54 169.236 97.82 170.236 97.82C170.97 97.82 171.603 97.6733 172.136 97.38C172.683 97.0733 173.096 96.6333 173.376 96.06C173.67 95.4867 173.816 94.8 173.816 94V88.5H175.236V99H173.876V96.12L174.096 96.64C173.763 97.4133 173.243 98.02 172.536 98.46C171.843 98.8867 171.03 99.1 170.096 99.1ZM179.194 99V88.5H180.614V99H179.194ZM179.914 86.18C179.621 86.18 179.374 86.08 179.174 85.88C178.974 85.68 178.874 85.44 178.874 85.16C178.874 84.88 178.974 84.6467 179.174 84.46C179.374 84.26 179.621 84.16 179.914 84.16C180.207 84.16 180.454 84.2533 180.654 84.44C180.854 84.6267 180.954 84.86 180.954 85.14C180.954 85.4333 180.854 85.68 180.654 85.88C180.467 86.08 180.221 86.18 179.914 86.18ZM188.925 99.1C187.885 99.1 186.952 98.8733 186.125 98.42C185.312 97.9533 184.672 97.32 184.205 96.52C183.738 95.7067 183.505 94.78 183.505 93.74C183.505 92.6867 183.738 91.76 184.205 90.96C184.672 90.16 185.312 89.5333 186.125 89.08C186.952 88.6267 187.885 88.4 188.925 88.4C189.818 88.4 190.625 88.5733 191.345 88.92C192.065 89.2667 192.632 89.7867 193.045 90.48L191.985 91.2C191.625 90.6667 191.178 90.2733 190.645 90.02C190.112 89.7667 189.532 89.64 188.905 89.64C188.158 89.64 187.485 89.8133 186.885 90.16C186.285 90.4933 185.812 90.9667 185.465 91.58C185.118 92.1933 184.945 92.9133 184.945 93.74C184.945 94.5667 185.118 95.2867 185.465 95.9C185.812 96.5133 186.285 96.9933 186.885 97.34C187.485 97.6733 188.158 97.84 188.905 97.84C189.532 97.84 190.112 97.7133 190.645 97.46C191.178 97.2067 191.625 96.82 191.985 96.3L193.045 97.02C192.632 97.7 192.065 98.22 191.345 98.58C190.625 98.9267 189.818 99.1 188.925 99.1ZM196.798 96.28L196.838 94.46L203.378 88.5H205.118L200.498 92.92L199.698 93.6L196.798 96.28ZM195.678 99V84.16H197.098V99H195.678ZM203.818 99L199.438 93.54L200.358 92.44L205.558 99H203.818ZM207.025 101.92L207.905 98.22L208.065 99.08C207.759 99.08 207.499 98.98 207.285 98.78C207.085 98.58 206.985 98.32 206.985 98C206.985 97.68 207.085 97.42 207.285 97.22C207.499 97.02 207.752 96.92 208.045 96.92C208.352 96.92 208.599 97.0267 208.785 97.24C208.985 97.4533 209.085 97.7067 209.085 98C209.085 98.1067 209.079 98.2133 209.065 98.32C209.052 98.4267 209.025 98.5467 208.985 98.68C208.945 98.8133 208.892 98.9733 208.825 99.16L207.985 101.92H207.025ZM221.818 99.1C220.725 99.1 219.765 98.8733 218.938 98.42C218.111 97.9533 217.465 97.32 216.998 96.52C216.531 95.7067 216.298 94.78 216.298 93.74C216.298 92.7 216.518 91.78 216.958 90.98C217.411 90.18 218.025 89.5533 218.798 89.1C219.585 88.6333 220.465 88.4 221.438 88.4C222.425 88.4 223.298 88.6267 224.058 89.08C224.831 89.52 225.438 90.1467 225.878 90.96C226.318 91.76 226.538 92.6867 226.538 93.74C226.538 93.8067 226.531 93.88 226.518 93.96C226.518 94.0267 226.518 94.1 226.518 94.18H217.378V93.12H225.758L225.198 93.54C225.198 92.78 225.031 92.1067 224.698 91.52C224.378 90.92 223.938 90.4533 223.378 90.12C222.818 89.7867 222.171 89.62 221.438 89.62C220.718 89.62 220.071 89.7867 219.498 90.12C218.925 90.4533 218.478 90.92 218.158 91.52C217.838 92.12 217.678 92.8067 217.678 93.58V93.8C217.678 94.6 217.851 95.3067 218.198 95.92C218.558 96.52 219.051 96.9933 219.678 97.34C220.318 97.6733 221.045 97.84 221.858 97.84C222.498 97.84 223.091 97.7267 223.638 97.5C224.198 97.2733 224.678 96.9267 225.078 96.46L225.878 97.38C225.411 97.94 224.825 98.3667 224.118 98.66C223.425 98.9533 222.658 99.1 221.818 99.1ZM235.715 99V96.68L235.655 96.3V92.42C235.655 91.5267 235.402 90.84 234.895 90.36C234.402 89.88 233.662 89.64 232.675 89.64C231.995 89.64 231.349 89.7533 230.735 89.98C230.122 90.2067 229.602 90.5067 229.175 90.88L228.535 89.82C229.069 89.3667 229.709 89.02 230.455 88.78C231.202 88.5267 231.989 88.4 232.815 88.4C234.175 88.4 235.222 88.74 235.955 89.42C236.702 90.0867 237.075 91.1067 237.075 92.48V99H235.715ZM232.095 99.1C231.309 99.1 230.622 98.9733 230.035 98.72C229.462 98.4533 229.022 98.0933 228.715 97.64C228.409 97.1733 228.255 96.64 228.255 96.04C228.255 95.4933 228.382 95 228.635 94.56C228.902 94.1067 229.329 93.7467 229.915 93.48C230.515 93.2 231.315 93.06 232.315 93.06H235.935V94.12H232.355C231.342 94.12 230.635 94.3 230.235 94.66C229.849 95.02 229.655 95.4667 229.655 96C229.655 96.6 229.889 97.08 230.355 97.44C230.822 97.8 231.475 97.98 232.315 97.98C233.115 97.98 233.802 97.8 234.375 97.44C234.962 97.0667 235.389 96.5333 235.655 95.84L235.975 96.82C235.709 97.5133 235.242 98.0667 234.575 98.48C233.922 98.8933 233.095 99.1 232.095 99.1ZM243.752 99.1C242.885 99.1 242.065 98.98 241.292 98.74C240.519 98.4867 239.912 98.1733 239.472 97.8L240.112 96.68C240.539 97 241.085 97.28 241.752 97.52C242.419 97.7467 243.119 97.86 243.852 97.86C244.852 97.86 245.572 97.7067 246.012 97.4C246.452 97.08 246.672 96.66 246.672 96.14C246.672 95.7533 246.545 95.4533 246.292 95.24C246.052 95.0133 245.732 94.8467 245.332 94.74C244.932 94.62 244.485 94.52 243.992 94.44C243.499 94.36 243.005 94.2667 242.512 94.16C242.032 94.0533 241.592 93.9 241.192 93.7C240.792 93.4867 240.465 93.2 240.212 92.84C239.972 92.48 239.852 92 239.852 91.4C239.852 90.8267 240.012 90.3133 240.332 89.86C240.652 89.4067 241.119 89.0533 241.732 88.8C242.359 88.5333 243.119 88.4 244.012 88.4C244.692 88.4 245.372 88.4933 246.052 88.68C246.732 88.8533 247.292 89.0867 247.732 89.38L247.112 90.52C246.645 90.2 246.145 89.9733 245.612 89.84C245.079 89.6933 244.545 89.62 244.012 89.62C243.065 89.62 242.365 89.7867 241.912 90.12C241.472 90.44 241.252 90.8533 241.252 91.36C241.252 91.76 241.372 92.0733 241.612 92.3C241.865 92.5267 242.192 92.7067 242.592 92.84C243.005 92.96 243.452 93.06 243.932 93.14C244.425 93.22 244.912 93.32 245.392 93.44C245.885 93.5467 246.332 93.7 246.732 93.9C247.145 94.0867 247.472 94.36 247.712 94.72C247.965 95.0667 248.092 95.5267 248.092 96.1C248.092 96.7133 247.919 97.2467 247.572 97.7C247.239 98.14 246.745 98.4867 246.092 98.74C245.452 98.98 244.672 99.1 243.752 99.1ZM250.582 102.98C250.089 102.98 249.616 102.9 249.162 102.74C248.722 102.58 248.342 102.34 248.022 102.02L248.682 100.96C248.949 101.213 249.236 101.407 249.542 101.54C249.862 101.687 250.216 101.76 250.602 101.76C251.069 101.76 251.469 101.627 251.802 101.36C252.149 101.107 252.476 100.653 252.782 100L253.462 98.46L253.622 98.24L257.942 88.5H259.342L254.082 100.26C253.789 100.94 253.462 101.48 253.102 101.88C252.756 102.28 252.376 102.56 251.962 102.72C251.549 102.893 251.089 102.98 250.582 102.98ZM253.382 99.3L248.542 88.5H250.022L254.302 98.14L253.382 99.3ZM273.157 99V96.68L273.097 96.3V92.42C273.097 91.5267 272.843 90.84 272.337 90.36C271.843 89.88 271.103 89.64 270.117 89.64C269.437 89.64 268.79 89.7533 268.177 89.98C267.563 90.2067 267.043 90.5067 266.617 90.88L265.977 89.82C266.51 89.3667 267.15 89.02 267.897 88.78C268.643 88.5267 269.43 88.4 270.257 88.4C271.617 88.4 272.663 88.74 273.397 89.42C274.143 90.0867 274.517 91.1067 274.517 92.48V99H273.157ZM269.537 99.1C268.75 99.1 268.063 98.9733 267.477 98.72C266.903 98.4533 266.463 98.0933 266.157 97.64C265.85 97.1733 265.697 96.64 265.697 96.04C265.697 95.4933 265.823 95 266.077 94.56C266.343 94.1067 266.77 93.7467 267.357 93.48C267.957 93.2 268.757 93.06 269.757 93.06H273.377V94.12H269.797C268.783 94.12 268.077 94.3 267.677 94.66C267.29 95.02 267.097 95.4667 267.097 96C267.097 96.6 267.33 97.08 267.797 97.44C268.263 97.8 268.917 97.98 269.757 97.98C270.557 97.98 271.243 97.8 271.817 97.44C272.403 97.0667 272.83 96.5333 273.097 95.84L273.417 96.82C273.15 97.5133 272.683 98.0667 272.017 98.48C271.363 98.8933 270.537 99.1 269.537 99.1ZM282.734 99.1C281.694 99.1 280.76 98.8733 279.934 98.42C279.12 97.9533 278.48 97.32 278.014 96.52C277.547 95.7067 277.314 94.78 277.314 93.74C277.314 92.6867 277.547 91.76 278.014 90.96C278.48 90.16 279.12 89.5333 279.934 89.08C280.76 88.6267 281.694 88.4 282.734 88.4C283.627 88.4 284.434 88.5733 285.154 88.92C285.874 89.2667 286.44 89.7867 286.854 90.48L285.794 91.2C285.434 90.6667 284.987 90.2733 284.454 90.02C283.92 89.7667 283.34 89.64 282.714 89.64C281.967 89.64 281.294 89.8133 280.694 90.16C280.094 90.4933 279.62 90.9667 279.274 91.58C278.927 92.1933 278.754 92.9133 278.754 93.74C278.754 94.5667 278.927 95.2867 279.274 95.9C279.62 96.5133 280.094 96.9933 280.694 97.34C281.294 97.6733 281.967 97.84 282.714 97.84C283.34 97.84 283.92 97.7133 284.454 97.46C284.987 97.2067 285.434 96.82 285.794 96.3L286.854 97.02C286.44 97.7 285.874 98.22 285.154 98.58C284.434 98.9267 283.627 99.1 282.734 99.1ZM293.827 99.1C292.787 99.1 291.854 98.8733 291.027 98.42C290.214 97.9533 289.574 97.32 289.107 96.52C288.641 95.7067 288.407 94.78 288.407 93.74C288.407 92.6867 288.641 91.76 289.107 90.96C289.574 90.16 290.214 89.5333 291.027 89.08C291.854 88.6267 292.787 88.4 293.827 88.4C294.721 88.4 295.527 88.5733 296.247 88.92C296.967 89.2667 297.534 89.7867 297.947 90.48L296.887 91.2C296.527 90.6667 296.081 90.2733 295.547 90.02C295.014 89.7667 294.434 89.64 293.807 89.64C293.061 89.64 292.387 89.8133 291.787 90.16C291.187 90.4933 290.714 90.9667 290.367 91.58C290.021 92.1933 289.847 92.9133 289.847 93.74C289.847 94.5667 290.021 95.2867 290.367 95.9C290.714 96.5133 291.187 96.9933 291.787 97.34C292.387 97.6733 293.061 97.84 293.807 97.84C294.434 97.84 295.014 97.7133 295.547 97.46C296.081 97.2067 296.527 96.82 296.887 96.3L297.947 97.02C297.534 97.7 296.967 98.22 296.247 98.58C295.527 98.9267 294.721 99.1 293.827 99.1ZM305.021 99.1C303.928 99.1 302.968 98.8733 302.141 98.42C301.314 97.9533 300.668 97.32 300.201 96.52C299.734 95.7067 299.501 94.78 299.501 93.74C299.501 92.7 299.721 91.78 300.161 90.98C300.614 90.18 301.228 89.5533 302.001 89.1C302.788 88.6333 303.668 88.4 304.641 88.4C305.628 88.4 306.501 88.6267 307.261 89.08C308.034 89.52 308.641 90.1467 309.081 90.96C309.521 91.76 309.741 92.6867 309.741 93.74C309.741 93.8067 309.734 93.88 309.721 93.96C309.721 94.0267 309.721 94.1 309.721 94.18H300.581V93.12H308.961L308.401 93.54C308.401 92.78 308.234 92.1067 307.901 91.52C307.581 90.92 307.141 90.4533 306.581 90.12C306.021 89.7867 305.374 89.62 304.641 89.62C303.921 89.62 303.274 89.7867 302.701 90.12C302.128 90.4533 301.681 90.92 301.361 91.52C301.041 92.12 300.881 92.8067 300.881 93.58V93.8C300.881 94.6 301.054 95.3067 301.401 95.92C301.761 96.52 302.254 96.9933 302.881 97.34C303.521 97.6733 304.248 97.84 305.061 97.84C305.701 97.84 306.294 97.7267 306.841 97.5C307.401 97.2733 307.881 96.9267 308.281 96.46L309.081 97.38C308.614 97.94 308.028 98.3667 307.321 98.66C306.628 98.9533 305.861 99.1 305.021 99.1ZM315.451 99.1C314.585 99.1 313.765 98.98 312.991 98.74C312.218 98.4867 311.611 98.1733 311.171 97.8L311.811 96.68C312.238 97 312.785 97.28 313.451 97.52C314.118 97.7467 314.818 97.86 315.551 97.86C316.551 97.86 317.271 97.7067 317.711 97.4C318.151 97.08 318.371 96.66 318.371 96.14C318.371 95.7533 318.245 95.4533 317.991 95.24C317.751 95.0133 317.431 94.8467 317.031 94.74C316.631 94.62 316.185 94.52 315.691 94.44C315.198 94.36 314.705 94.2667 314.211 94.16C313.731 94.0533 313.291 93.9 312.891 93.7C312.491 93.4867 312.165 93.2 311.911 92.84C311.671 92.48 311.551 92 311.551 91.4C311.551 90.8267 311.711 90.3133 312.031 89.86C312.351 89.4067 312.818 89.0533 313.431 88.8C314.058 88.5333 314.818 88.4 315.711 88.4C316.391 88.4 317.071 88.4933 317.751 88.68C318.431 88.8533 318.991 89.0867 319.431 89.38L318.811 90.52C318.345 90.2 317.845 89.9733 317.311 89.84C316.778 89.6933 316.245 89.62 315.711 89.62C314.765 89.62 314.065 89.7867 313.611 90.12C313.171 90.44 312.951 90.8533 312.951 91.36C312.951 91.76 313.071 92.0733 313.311 92.3C313.565 92.5267 313.891 92.7067 314.291 92.84C314.705 92.96 315.151 93.06 315.631 93.14C316.125 93.22 316.611 93.32 317.091 93.44C317.585 93.5467 318.031 93.7 318.431 93.9C318.845 94.0867 319.171 94.36 319.411 94.72C319.665 95.0667 319.791 95.5267 319.791 96.1C319.791 96.7133 319.618 97.2467 319.271 97.7C318.938 98.14 318.445 98.4867 317.791 98.74C317.151 98.98 316.371 99.1 315.451 99.1ZM325.217 99.1C324.35 99.1 323.53 98.98 322.757 98.74C321.984 98.4867 321.377 98.1733 320.937 97.8L321.577 96.68C322.004 97 322.55 97.28 323.217 97.52C323.884 97.7467 324.584 97.86 325.317 97.86C326.317 97.86 327.037 97.7067 327.477 97.4C327.917 97.08 328.137 96.66 328.137 96.14C328.137 95.7533 328.01 95.4533 327.757 95.24C327.517 95.0133 327.197 94.8467 326.797 94.74C326.397 94.62 325.95 94.52 325.457 94.44C324.964 94.36 324.47 94.2667 323.977 94.16C323.497 94.0533 323.057 93.9 322.657 93.7C322.257 93.4867 321.93 93.2 321.677 92.84C321.437 92.48 321.317 92 321.317 91.4C321.317 90.8267 321.477 90.3133 321.797 89.86C322.117 89.4067 322.584 89.0533 323.197 88.8C323.824 88.5333 324.584 88.4 325.477 88.4C326.157 88.4 326.837 88.4933 327.517 88.68C328.197 88.8533 328.757 89.0867 329.197 89.38L328.577 90.52C328.11 90.2 327.61 89.9733 327.077 89.84C326.544 89.6933 326.01 89.62 325.477 89.62C324.53 89.62 323.83 89.7867 323.377 90.12C322.937 90.44 322.717 90.8533 322.717 91.36C322.717 91.76 322.837 92.0733 323.077 92.3C323.33 92.5267 323.657 92.7067 324.057 92.84C324.47 92.96 324.917 93.06 325.397 93.14C325.89 93.22 326.377 93.32 326.857 93.44C327.35 93.5467 327.797 93.7 328.197 93.9C328.61 94.0867 328.937 94.36 329.177 94.72C329.43 95.0667 329.557 95.5267 329.557 96.1C329.557 96.7133 329.384 97.2467 329.037 97.7C328.704 98.14 328.21 98.4867 327.557 98.74C326.917 98.98 326.137 99.1 325.217 99.1ZM340.717 99.1C339.73 99.1 338.97 98.8333 338.437 98.3C337.904 97.7667 337.637 97.0133 337.637 96.04V86.18H339.057V95.96C339.057 96.5733 339.21 97.0467 339.517 97.38C339.837 97.7133 340.29 97.88 340.877 97.88C341.504 97.88 342.024 97.7 342.437 97.34L342.937 98.36C342.657 98.6133 342.317 98.8 341.917 98.92C341.53 99.04 341.13 99.1 340.717 99.1ZM335.757 89.68V88.5H342.257V89.68H335.757ZM349.431 99.1C348.418 99.1 347.504 98.8733 346.691 98.42C345.891 97.9533 345.258 97.32 344.791 96.52C344.324 95.7067 344.091 94.78 344.091 93.74C344.091 92.6867 344.324 91.76 344.791 90.96C345.258 90.16 345.891 89.5333 346.691 89.08C347.491 88.6267 348.404 88.4 349.431 88.4C350.471 88.4 351.391 88.6267 352.191 89.08C353.004 89.5333 353.638 90.16 354.091 90.96C354.558 91.76 354.791 92.6867 354.791 93.74C354.791 94.78 354.558 95.7067 354.091 96.52C353.638 97.32 353.004 97.9533 352.191 98.42C351.378 98.8733 350.458 99.1 349.431 99.1ZM349.431 97.84C350.191 97.84 350.864 97.6733 351.451 97.34C352.038 96.9933 352.498 96.5133 352.831 95.9C353.178 95.2733 353.351 94.5533 353.351 93.74C353.351 92.9133 353.178 92.1933 352.831 91.58C352.498 90.9667 352.038 90.4933 351.451 90.16C350.864 89.8133 350.198 89.64 349.451 89.64C348.704 89.64 348.038 89.8133 347.451 90.16C346.864 90.4933 346.398 90.9667 346.051 91.58C345.704 92.1933 345.531 92.9133 345.531 93.74C345.531 94.5533 345.704 95.2733 346.051 95.9C346.398 96.5133 346.864 96.9933 347.451 97.34C348.038 97.6733 348.698 97.84 349.431 97.84ZM366.244 99.1C365.258 99.1 364.498 98.8333 363.964 98.3C363.431 97.7667 363.164 97.0133 363.164 96.04V86.18H364.584V95.96C364.584 96.5733 364.738 97.0467 365.044 97.38C365.364 97.7133 365.818 97.88 366.404 97.88C367.031 97.88 367.551 97.7 367.964 97.34L368.464 98.36C368.184 98.6133 367.844 98.8 367.444 98.92C367.058 99.04 366.658 99.1 366.244 99.1ZM361.284 89.68V88.5H367.784V89.68H361.284ZM376.409 88.4C377.263 88.4 378.009 88.5667 378.649 88.9C379.303 89.22 379.809 89.7133 380.169 90.38C380.543 91.0467 380.729 91.8867 380.729 92.9V99H379.309V93.04C379.309 91.9333 379.029 91.1 378.469 90.54C377.923 89.9667 377.149 89.68 376.149 89.68C375.403 89.68 374.749 89.8333 374.189 90.14C373.643 90.4333 373.216 90.8667 372.909 91.44C372.616 92 372.469 92.68 372.469 93.48V99H371.049V84.16H372.469V91.38L372.189 90.84C372.523 90.08 373.056 89.4867 373.789 89.06C374.523 88.62 375.396 88.4 376.409 88.4ZM389.025 99.1C387.932 99.1 386.972 98.8733 386.145 98.42C385.318 97.9533 384.672 97.32 384.205 96.52C383.738 95.7067 383.505 94.78 383.505 93.74C383.505 92.7 383.725 91.78 384.165 90.98C384.618 90.18 385.232 89.5533 386.005 89.1C386.792 88.6333 387.672 88.4 388.645 88.4C389.632 88.4 390.505 88.6267 391.265 89.08C392.038 89.52 392.645 90.1467 393.085 90.96C393.525 91.76 393.745 92.6867 393.745 93.74C393.745 93.8067 393.738 93.88 393.725 93.96C393.725 94.0267 393.725 94.1 393.725 94.18H384.585V93.12H392.965L392.405 93.54C392.405 92.78 392.238 92.1067 391.905 91.52C391.585 90.92 391.145 90.4533 390.585 90.12C390.025 89.7867 389.378 89.62 388.645 89.62C387.925 89.62 387.278 89.7867 386.705 90.12C386.132 90.4533 385.685 90.92 385.365 91.52C385.045 92.12 384.885 92.8067 384.885 93.58V93.8C384.885 94.6 385.058 95.3067 385.405 95.92C385.765 96.52 386.258 96.9933 386.885 97.34C387.525 97.6733 388.252 97.84 389.065 97.84C389.705 97.84 390.298 97.7267 390.845 97.5C391.405 97.2733 391.885 96.9267 392.285 96.46L393.085 97.38C392.618 97.94 392.032 98.3667 391.325 98.66C390.632 98.9533 389.865 99.1 389.025 99.1ZM407.23 88.4C408.083 88.4 408.83 88.5667 409.47 88.9C410.123 89.22 410.63 89.7133 410.99 90.38C411.363 91.0467 411.55 91.8867 411.55 92.9V99H410.13V93.04C410.13 91.9333 409.85 91.1 409.29 90.54C408.743 89.9667 407.97 89.68 406.97 89.68C406.223 89.68 405.57 89.8333 405.01 90.14C404.463 90.4333 404.036 90.8667 403.73 91.44C403.436 92 403.29 92.68 403.29 93.48V99H401.87V88.5H403.23V91.38L403.01 90.84C403.343 90.08 403.876 89.4867 404.61 89.06C405.343 88.62 406.216 88.4 407.23 88.4ZM419.845 99.1C418.752 99.1 417.792 98.8733 416.965 98.42C416.139 97.9533 415.492 97.32 415.025 96.52C414.559 95.7067 414.325 94.78 414.325 93.74C414.325 92.7 414.545 91.78 414.985 90.98C415.439 90.18 416.052 89.5533 416.825 89.1C417.612 88.6333 418.492 88.4 419.465 88.4C420.452 88.4 421.325 88.6267 422.085 89.08C422.859 89.52 423.465 90.1467 423.905 90.96C424.345 91.76 424.565 92.6867 424.565 93.74C424.565 93.8067 424.559 93.88 424.545 93.96C424.545 94.0267 424.545 94.1 424.545 94.18H415.405V93.12H423.785L423.225 93.54C423.225 92.78 423.059 92.1067 422.725 91.52C422.405 90.92 421.965 90.4533 421.405 90.12C420.845 89.7867 420.199 89.62 419.465 89.62C418.745 89.62 418.099 89.7867 417.525 90.12C416.952 90.4533 416.505 90.92 416.185 91.52C415.865 92.12 415.705 92.8067 415.705 93.58V93.8C415.705 94.6 415.879 95.3067 416.225 95.92C416.585 96.52 417.079 96.9933 417.705 97.34C418.345 97.6733 419.072 97.84 419.885 97.84C420.525 97.84 421.119 97.7267 421.665 97.5C422.225 97.2733 422.705 96.9267 423.105 96.46L423.905 97.38C423.439 97.94 422.852 98.3667 422.145 98.66C421.452 98.9533 420.685 99.1 419.845 99.1ZM433.743 99V96.68L433.683 96.3V92.42C433.683 91.5267 433.429 90.84 432.923 90.36C432.429 89.88 431.689 89.64 430.703 89.64C430.023 89.64 429.376 89.7533 428.763 89.98C428.149 90.2067 427.629 90.5067 427.203 90.88L426.563 89.82C427.096 89.3667 427.736 89.02 428.483 88.78C429.229 88.5267 430.016 88.4 430.843 88.4C432.203 88.4 433.249 88.74 433.983 89.42C434.729 90.0867 435.103 91.1067 435.103 92.48V99H433.743ZM430.123 99.1C429.336 99.1 428.649 98.9733 428.063 98.72C427.489 98.4533 427.049 98.0933 426.743 97.64C426.436 97.1733 426.283 96.64 426.283 96.04C426.283 95.4933 426.409 95 426.663 94.56C426.929 94.1067 427.356 93.7467 427.943 93.48C428.543 93.2 429.343 93.06 430.343 93.06H433.963V94.12H430.383C429.369 94.12 428.663 94.3 428.263 94.66C427.876 95.02 427.683 95.4667 427.683 96C427.683 96.6 427.916 97.08 428.383 97.44C428.849 97.8 429.503 97.98 430.343 97.98C431.143 97.98 431.829 97.8 432.403 97.44C432.989 97.0667 433.416 96.5333 433.683 95.84L434.003 96.82C433.736 97.5133 433.269 98.0667 432.603 98.48C431.949 98.8933 431.123 99.1 430.123 99.1ZM438.959 99V88.5H440.319V91.36L440.179 90.86C440.473 90.06 440.966 89.4533 441.659 89.04C442.353 88.6133 443.213 88.4 444.239 88.4V89.78C444.186 89.78 444.133 89.78 444.079 89.78C444.026 89.7667 443.973 89.76 443.919 89.76C442.813 89.76 441.946 90.1 441.319 90.78C440.693 91.4467 440.379 92.4 440.379 93.64V99H438.959ZM451.193 99.1C450.1 99.1 449.14 98.8733 448.313 98.42C447.486 97.9533 446.84 97.32 446.373 96.52C445.906 95.7067 445.673 94.78 445.673 93.74C445.673 92.7 445.893 91.78 446.333 90.98C446.786 90.18 447.4 89.5533 448.173 89.1C448.96 88.6333 449.84 88.4 450.813 88.4C451.8 88.4 452.673 88.6267 453.433 89.08C454.206 89.52 454.813 90.1467 455.253 90.96C455.693 91.76 455.913 92.6867 455.913 93.74C455.913 93.8067 455.906 93.88 455.893 93.96C455.893 94.0267 455.893 94.1 455.893 94.18H446.753V93.12H455.133L454.573 93.54C454.573 92.78 454.406 92.1067 454.073 91.52C453.753 90.92 453.313 90.4533 452.753 90.12C452.193 89.7867 451.546 89.62 450.813 89.62C450.093 89.62 449.446 89.7867 448.873 90.12C448.3 90.4533 447.853 90.92 447.533 91.52C447.213 92.12 447.053 92.8067 447.053 93.58V93.8C447.053 94.6 447.226 95.3067 447.573 95.92C447.933 96.52 448.426 96.9933 449.053 97.34C449.693 97.6733 450.42 97.84 451.233 97.84C451.873 97.84 452.466 97.7267 453.013 97.5C453.573 97.2733 454.053 96.9267 454.453 96.46L455.253 97.38C454.786 97.94 454.2 98.3667 453.493 98.66C452.8 98.9533 452.033 99.1 451.193 99.1ZM461.623 99.1C460.757 99.1 459.937 98.98 459.163 98.74C458.39 98.4867 457.783 98.1733 457.343 97.8L457.983 96.68C458.41 97 458.957 97.28 459.623 97.52C460.29 97.7467 460.99 97.86 461.723 97.86C462.723 97.86 463.443 97.7067 463.883 97.4C464.323 97.08 464.543 96.66 464.543 96.14C464.543 95.7533 464.417 95.4533 464.163 95.24C463.923 95.0133 463.603 94.8467 463.203 94.74C462.803 94.62 462.357 94.52 461.863 94.44C461.37 94.36 460.877 94.2667 460.383 94.16C459.903 94.0533 459.463 93.9 459.063 93.7C458.663 93.4867 458.337 93.2 458.083 92.84C457.843 92.48 457.723 92 457.723 91.4C457.723 90.8267 457.883 90.3133 458.203 89.86C458.523 89.4067 458.99 89.0533 459.603 88.8C460.23 88.5333 460.99 88.4 461.883 88.4C462.563 88.4 463.243 88.4933 463.923 88.68C464.603 88.8533 465.163 89.0867 465.603 89.38L464.983 90.52C464.517 90.2 464.017 89.9733 463.483 89.84C462.95 89.6933 462.417 89.62 461.883 89.62C460.937 89.62 460.237 89.7867 459.783 90.12C459.343 90.44 459.123 90.8533 459.123 91.36C459.123 91.76 459.243 92.0733 459.483 92.3C459.737 92.5267 460.063 92.7067 460.463 92.84C460.877 92.96 461.323 93.06 461.803 93.14C462.297 93.22 462.783 93.32 463.263 93.44C463.757 93.5467 464.203 93.7 464.603 93.9C465.017 94.0867 465.343 94.36 465.583 94.72C465.837 95.0667 465.963 95.5267 465.963 96.1C465.963 96.7133 465.79 97.2467 465.443 97.7C465.11 98.14 464.617 98.4867 463.963 98.74C463.323 98.98 462.543 99.1 461.623 99.1ZM471.889 99.1C470.902 99.1 470.142 98.8333 469.609 98.3C469.076 97.7667 468.809 97.0133 468.809 96.04V86.18H470.229V95.96C470.229 96.5733 470.382 97.0467 470.689 97.38C471.009 97.7133 471.462 97.88 472.049 97.88C472.676 97.88 473.196 97.7 473.609 97.34L474.109 98.36C473.829 98.6133 473.489 98.8 473.089 98.92C472.702 99.04 472.302 99.1 471.889 99.1ZM466.929 89.68V88.5H473.429V89.68H466.929ZM484.748 99.1C483.882 99.1 483.062 98.98 482.288 98.74C481.515 98.4867 480.908 98.1733 480.468 97.8L481.108 96.68C481.535 97 482.082 97.28 482.748 97.52C483.415 97.7467 484.115 97.86 484.848 97.86C485.848 97.86 486.568 97.7067 487.008 97.4C487.448 97.08 487.668 96.66 487.668 96.14C487.668 95.7533 487.542 95.4533 487.288 95.24C487.048 95.0133 486.728 94.8467 486.328 94.74C485.928 94.62 485.482 94.52 484.988 94.44C484.495 94.36 484.002 94.2667 483.508 94.16C483.028 94.0533 482.588 93.9 482.188 93.7C481.788 93.4867 481.462 93.2 481.208 92.84C480.968 92.48 480.848 92 480.848 91.4C480.848 90.8267 481.008 90.3133 481.328 89.86C481.648 89.4067 482.115 89.0533 482.728 88.8C483.355 88.5333 484.115 88.4 485.008 88.4C485.688 88.4 486.368 88.4933 487.048 88.68C487.728 88.8533 488.288 89.0867 488.728 89.38L488.108 90.52C487.642 90.2 487.142 89.9733 486.608 89.84C486.075 89.6933 485.542 89.62 485.008 89.62C484.062 89.62 483.362 89.7867 482.908 90.12C482.468 90.44 482.248 90.8533 482.248 91.36C482.248 91.76 482.368 92.0733 482.608 92.3C482.862 92.5267 483.188 92.7067 483.588 92.84C484.002 92.96 484.448 93.06 484.928 93.14C485.422 93.22 485.908 93.32 486.388 93.44C486.882 93.5467 487.328 93.7 487.728 93.9C488.142 94.0867 488.468 94.36 488.708 94.72C488.962 95.0667 489.088 95.5267 489.088 96.1C489.088 96.7133 488.915 97.2467 488.568 97.7C488.235 98.14 487.742 98.4867 487.088 98.74C486.448 98.98 485.668 99.1 484.748 99.1ZM496.154 99.1C495.061 99.1 494.101 98.8733 493.274 98.42C492.447 97.9533 491.801 97.32 491.334 96.52C490.867 95.7067 490.634 94.78 490.634 93.74C490.634 92.7 490.854 91.78 491.294 90.98C491.747 90.18 492.361 89.5533 493.134 89.1C493.921 88.6333 494.801 88.4 495.774 88.4C496.761 88.4 497.634 88.6267 498.394 89.08C499.167 89.52 499.774 90.1467 500.214 90.96C500.654 91.76 500.874 92.6867 500.874 93.74C500.874 93.8067 500.867 93.88 500.854 93.96C500.854 94.0267 500.854 94.1 500.854 94.18H491.714V93.12H500.094L499.534 93.54C499.534 92.78 499.367 92.1067 499.034 91.52C498.714 90.92 498.274 90.4533 497.714 90.12C497.154 89.7867 496.507 89.62 495.774 89.62C495.054 89.62 494.407 89.7867 493.834 90.12C493.261 90.4533 492.814 90.92 492.494 91.52C492.174 92.12 492.014 92.8067 492.014 93.58V93.8C492.014 94.6 492.187 95.3067 492.534 95.92C492.894 96.52 493.387 96.9933 494.014 97.34C494.654 97.6733 495.381 97.84 496.194 97.84C496.834 97.84 497.427 97.7267 497.974 97.5C498.534 97.2733 499.014 96.9267 499.414 96.46L500.214 97.38C499.747 97.94 499.161 98.3667 498.454 98.66C497.761 98.9533 496.994 99.1 496.154 99.1ZM503.764 99V88.5H505.124V91.36L504.984 90.86C505.278 90.06 505.771 89.4533 506.464 89.04C507.158 88.6133 508.018 88.4 509.044 88.4V89.78C508.991 89.78 508.938 89.78 508.884 89.78C508.831 89.7667 508.778 89.76 508.724 89.76C507.618 89.76 506.751 90.1 506.124 90.78C505.498 91.4467 505.184 92.4 505.184 93.64V99H503.764ZM514.784 99L510.124 88.5H511.604L515.884 98.24H515.184L519.524 88.5H520.924L516.244 99H514.784ZM522.924 99V88.5H524.344V99H522.924ZM523.644 86.18C523.351 86.18 523.104 86.08 522.904 85.88C522.704 85.68 522.604 85.44 522.604 85.16C522.604 84.88 522.704 84.6467 522.904 84.46C523.104 84.26 523.351 84.16 523.644 84.16C523.938 84.16 524.184 84.2533 524.384 84.44C524.584 84.6267 524.684 84.86 524.684 85.14C524.684 85.4333 524.584 85.68 524.384 85.88C524.198 86.08 523.951 86.18 523.644 86.18ZM532.655 99.1C531.615 99.1 530.682 98.8733 529.855 98.42C529.042 97.9533 528.402 97.32 527.935 96.52C527.469 95.7067 527.235 94.78 527.235 93.74C527.235 92.6867 527.469 91.76 527.935 90.96C528.402 90.16 529.042 89.5333 529.855 89.08C530.682 88.6267 531.615 88.4 532.655 88.4C533.549 88.4 534.355 88.5733 535.075 88.92C535.795 89.2667 536.362 89.7867 536.775 90.48L535.715 91.2C535.355 90.6667 534.909 90.2733 534.375 90.02C533.842 89.7667 533.262 89.64 532.635 89.64C531.889 89.64 531.215 89.8133 530.615 90.16C530.015 90.4933 529.542 90.9667 529.195 91.58C528.849 92.1933 528.675 92.9133 528.675 93.74C528.675 94.5667 528.849 95.2867 529.195 95.9C529.542 96.5133 530.015 96.9933 530.615 97.34C531.215 97.6733 531.889 97.84 532.635 97.84C533.262 97.84 533.842 97.7133 534.375 97.46C534.909 97.2067 535.355 96.82 535.715 96.3L536.775 97.02C536.362 97.7 535.795 98.22 535.075 98.58C534.355 98.9267 533.549 99.1 532.655 99.1ZM543.849 99.1C542.756 99.1 541.796 98.8733 540.969 98.42C540.143 97.9533 539.496 97.32 539.029 96.52C538.563 95.7067 538.329 94.78 538.329 93.74C538.329 92.7 538.549 91.78 538.989 90.98C539.443 90.18 540.056 89.5533 540.829 89.1C541.616 88.6333 542.496 88.4 543.469 88.4C544.456 88.4 545.329 88.6267 546.089 89.08C546.863 89.52 547.469 90.1467 547.909 90.96C548.349 91.76 548.569 92.6867 548.569 93.74C548.569 93.8067 548.563 93.88 548.549 93.96C548.549 94.0267 548.549 94.1 548.549 94.18H539.409V93.12H547.789L547.229 93.54C547.229 92.78 547.063 92.1067 546.729 91.52C546.409 90.92 545.969 90.4533 545.409 90.12C544.849 89.7867 544.203 89.62 543.469 89.62C542.749 89.62 542.103 89.7867 541.529 90.12C540.956 90.4533 540.509 90.92 540.189 91.52C539.869 92.12 539.709 92.8067 539.709 93.58V93.8C539.709 94.6 539.883 95.3067 540.229 95.92C540.589 96.52 541.083 96.9933 541.709 97.34C542.349 97.6733 543.076 97.84 543.889 97.84C544.529 97.84 545.123 97.7267 545.669 97.5C546.229 97.2733 546.709 96.9267 547.109 96.46L547.909 97.38C547.443 97.94 546.856 98.3667 546.149 98.66C545.456 98.9533 544.689 99.1 543.849 99.1ZM556.774 102.98C556.281 102.98 555.807 102.9 555.354 102.74C554.914 102.58 554.534 102.34 554.214 102.02L554.874 100.96C555.141 101.213 555.427 101.407 555.734 101.54C556.054 101.687 556.407 101.76 556.794 101.76C557.261 101.76 557.661 101.627 557.994 101.36C558.341 101.107 558.667 100.653 558.974 100L559.654 98.46L559.814 98.24L564.134 88.5H565.534L560.274 100.26C559.981 100.94 559.654 101.48 559.294 101.88C558.947 102.28 558.567 102.56 558.154 102.72C557.741 102.893 557.281 102.98 556.774 102.98ZM559.574 99.3L554.734 88.5H556.214L560.494 98.14L559.574 99.3ZM571.521 99.1C570.507 99.1 569.594 98.8733 568.781 98.42C567.981 97.9533 567.347 97.32 566.881 96.52C566.414 95.7067 566.181 94.78 566.181 93.74C566.181 92.6867 566.414 91.76 566.881 90.96C567.347 90.16 567.981 89.5333 568.781 89.08C569.581 88.6267 570.494 88.4 571.521 88.4C572.561 88.4 573.481 88.6267 574.281 89.08C575.094 89.5333 575.727 90.16 576.181 90.96C576.647 91.76 576.881 92.6867 576.881 93.74C576.881 94.78 576.647 95.7067 576.181 96.52C575.727 97.32 575.094 97.9533 574.281 98.42C573.467 98.8733 572.547 99.1 571.521 99.1ZM571.521 97.84C572.281 97.84 572.954 97.6733 573.541 97.34C574.127 96.9933 574.587 96.5133 574.921 95.9C575.267 95.2733 575.441 94.5533 575.441 93.74C575.441 92.9133 575.267 92.1933 574.921 91.58C574.587 90.9667 574.127 90.4933 573.541 90.16C572.954 89.8133 572.287 89.64 571.541 89.64C570.794 89.64 570.127 89.8133 569.541 90.16C568.954 90.4933 568.487 90.9667 568.141 91.58C567.794 92.1933 567.621 92.9133 567.621 93.74C567.621 94.5533 567.794 95.2733 568.141 95.9C568.487 96.5133 568.954 96.9933 569.541 97.34C570.127 97.6733 570.787 97.84 571.521 97.84ZM584.12 99.1C583.226 99.1 582.446 98.9333 581.78 98.6C581.113 98.2667 580.593 97.7667 580.22 97.1C579.86 96.4333 579.68 95.6 579.68 94.6V88.5H581.1V94.44C581.1 95.56 581.373 96.4067 581.92 96.98C582.48 97.54 583.26 97.82 584.26 97.82C584.993 97.82 585.626 97.6733 586.16 97.38C586.706 97.0733 587.12 96.6333 587.4 96.06C587.693 95.4867 587.84 94.8 587.84 94V88.5H589.26V99H587.9V96.12L588.12 96.64C587.786 97.4133 587.266 98.02 586.56 98.46C585.866 98.8867 585.053 99.1 584.12 99.1ZM154.339 112.4C155.192 112.4 155.939 112.567 156.579 112.9C157.232 113.22 157.739 113.713 158.099 114.38C158.472 115.047 158.659 115.887 158.659 116.9V123H157.239V117.04C157.239 115.933 156.959 115.1 156.399 114.54C155.852 113.967 155.079 113.68 154.079 113.68C153.332 113.68 152.679 113.833 152.119 114.14C151.572 114.433 151.146 114.867 150.839 115.44C150.546 116 150.399 116.68 150.399 117.48V123H148.979V112.5H150.339V115.38L150.119 114.84C150.452 114.08 150.986 113.487 151.719 113.06C152.452 112.62 153.326 112.4 154.339 112.4ZM166.955 123.1C165.861 123.1 164.901 122.873 164.075 122.42C163.248 121.953 162.601 121.32 162.135 120.52C161.668 119.707 161.435 118.78 161.435 117.74C161.435 116.7 161.655 115.78 162.095 114.98C162.548 114.18 163.161 113.553 163.935 113.1C164.721 112.633 165.601 112.4 166.575 112.4C167.561 112.4 168.435 112.627 169.195 113.08C169.968 113.52 170.575 114.147 171.015 114.96C171.455 115.76 171.675 116.687 171.675 117.74C171.675 117.807 171.668 117.88 171.655 117.96C171.655 118.027 171.655 118.1 171.655 118.18H162.515V117.12H170.895L170.335 117.54C170.335 116.78 170.168 116.107 169.835 115.52C169.515 114.92 169.075 114.453 168.515 114.12C167.955 113.787 167.308 113.62 166.575 113.62C165.855 113.62 165.208 113.787 164.635 114.12C164.061 114.453 163.615 114.92 163.295 115.52C162.975 116.12 162.815 116.807 162.815 117.58V117.8C162.815 118.6 162.988 119.307 163.335 119.92C163.695 120.52 164.188 120.993 164.815 121.34C165.455 121.673 166.181 121.84 166.995 121.84C167.635 121.84 168.228 121.727 168.775 121.5C169.335 121.273 169.815 120.927 170.215 120.46L171.015 121.38C170.548 121.94 169.961 122.367 169.255 122.66C168.561 122.953 167.795 123.1 166.955 123.1ZM179.025 123.1C177.932 123.1 176.972 122.873 176.145 122.42C175.318 121.953 174.672 121.32 174.205 120.52C173.738 119.707 173.505 118.78 173.505 117.74C173.505 116.7 173.725 115.78 174.165 114.98C174.618 114.18 175.232 113.553 176.005 113.1C176.792 112.633 177.672 112.4 178.645 112.4C179.632 112.4 180.505 112.627 181.265 113.08C182.038 113.52 182.645 114.147 183.085 114.96C183.525 115.76 183.745 116.687 183.745 117.74C183.745 117.807 183.738 117.88 183.725 117.96C183.725 118.027 183.725 118.1 183.725 118.18H174.585V117.12H182.965L182.405 117.54C182.405 116.78 182.238 116.107 181.905 115.52C181.585 114.92 181.145 114.453 180.585 114.12C180.025 113.787 179.378 113.62 178.645 113.62C177.925 113.62 177.278 113.787 176.705 114.12C176.132 114.453 175.685 114.92 175.365 115.52C175.045 116.12 174.885 116.807 174.885 117.58V117.8C174.885 118.6 175.058 119.307 175.405 119.92C175.765 120.52 176.258 120.993 176.885 121.34C177.525 121.673 178.252 121.84 179.065 121.84C179.705 121.84 180.298 121.727 180.845 121.5C181.405 121.273 181.885 120.927 182.285 120.46L183.085 121.38C182.618 121.94 182.032 122.367 181.325 122.66C180.632 122.953 179.865 123.1 179.025 123.1ZM190.815 123.1C189.815 123.1 188.915 122.873 188.115 122.42C187.329 121.967 186.709 121.34 186.255 120.54C185.802 119.727 185.575 118.793 185.575 117.74C185.575 116.673 185.802 115.74 186.255 114.94C186.709 114.14 187.329 113.52 188.115 113.08C188.915 112.627 189.815 112.4 190.815 112.4C191.735 112.4 192.555 112.607 193.275 113.02C194.009 113.433 194.589 114.04 195.015 114.84C195.455 115.627 195.675 116.593 195.675 117.74C195.675 118.873 195.462 119.84 195.035 120.64C194.609 121.44 194.029 122.053 193.295 122.48C192.575 122.893 191.749 123.1 190.815 123.1ZM190.915 121.84C191.662 121.84 192.329 121.673 192.915 121.34C193.515 120.993 193.982 120.513 194.315 119.9C194.662 119.273 194.835 118.553 194.835 117.74C194.835 116.913 194.662 116.193 194.315 115.58C193.982 114.967 193.515 114.493 192.915 114.16C192.329 113.813 191.662 113.64 190.915 113.64C190.182 113.64 189.522 113.813 188.935 114.16C188.349 114.493 187.882 114.967 187.535 115.58C187.189 116.193 187.015 116.913 187.015 117.74C187.015 118.553 187.189 119.273 187.535 119.9C187.882 120.513 188.349 120.993 188.935 121.34C189.522 121.673 190.182 121.84 190.915 121.84ZM194.875 123V119.84L195.015 117.72L194.815 115.6V108.16H196.235V123H194.875ZM199.33 125.92L200.21 122.22L200.37 123.08C200.063 123.08 199.803 122.98 199.59 122.78C199.39 122.58 199.29 122.32 199.29 122C199.29 121.68 199.39 121.42 199.59 121.22C199.803 121.02 200.057 120.92 200.35 120.92C200.657 120.92 200.903 121.027 201.09 121.24C201.29 121.453 201.39 121.707 201.39 122C201.39 122.107 201.383 122.213 201.37 122.32C201.357 122.427 201.33 122.547 201.29 122.68C201.25 122.813 201.197 122.973 201.13 123.16L200.29 125.92H199.33ZM214.123 123.1C213.029 123.1 212.069 122.873 211.243 122.42C210.416 121.953 209.769 121.32 209.303 120.52C208.836 119.707 208.603 118.78 208.603 117.74C208.603 116.7 208.823 115.78 209.263 114.98C209.716 114.18 210.329 113.553 211.103 113.1C211.889 112.633 212.769 112.4 213.743 112.4C214.729 112.4 215.603 112.627 216.363 113.08C217.136 113.52 217.743 114.147 218.183 114.96C218.623 115.76 218.843 116.687 218.843 117.74C218.843 117.807 218.836 117.88 218.823 117.96C218.823 118.027 218.823 118.1 218.823 118.18H209.683V117.12H218.063L217.503 117.54C217.503 116.78 217.336 116.107 217.003 115.52C216.683 114.92 216.243 114.453 215.683 114.12C215.123 113.787 214.476 113.62 213.743 113.62C213.023 113.62 212.376 113.787 211.803 114.12C211.229 114.453 210.783 114.92 210.463 115.52C210.143 116.12 209.983 116.807 209.983 117.58V117.8C209.983 118.6 210.156 119.307 210.503 119.92C210.863 120.52 211.356 120.993 211.983 121.34C212.623 121.673 213.349 121.84 214.163 121.84C214.803 121.84 215.396 121.727 215.943 121.5C216.503 121.273 216.983 120.927 217.383 120.46L218.183 121.38C217.716 121.94 217.129 122.367 216.423 122.66C215.729 122.953 214.963 123.1 214.123 123.1ZM219.84 123L224.28 117.24L224.26 117.94L220.04 112.5H221.64L225.1 117L224.5 116.98L227.96 112.5H229.52L225.26 118L225.28 117.24L229.76 123H228.14L224.48 118.2L225.04 118.28L221.44 123H219.84ZM238.508 123V120.68L238.448 120.3V116.42C238.448 115.527 238.195 114.84 237.688 114.36C237.195 113.88 236.455 113.64 235.468 113.64C234.788 113.64 234.142 113.753 233.528 113.98C232.915 114.207 232.395 114.507 231.968 114.88L231.328 113.82C231.862 113.367 232.502 113.02 233.248 112.78C233.995 112.527 234.782 112.4 235.608 112.4C236.968 112.4 238.015 112.74 238.748 113.42C239.495 114.087 239.868 115.107 239.868 116.48V123H238.508ZM234.888 123.1C234.102 123.1 233.415 122.973 232.828 122.72C232.255 122.453 231.815 122.093 231.508 121.64C231.202 121.173 231.048 120.64 231.048 120.04C231.048 119.493 231.175 119 231.428 118.56C231.695 118.107 232.122 117.747 232.708 117.48C233.308 117.2 234.108 117.06 235.108 117.06H238.728V118.12H235.148C234.135 118.12 233.428 118.3 233.028 118.66C232.642 119.02 232.448 119.467 232.448 120C232.448 120.6 232.682 121.08 233.148 121.44C233.615 121.8 234.268 121.98 235.108 121.98C235.908 121.98 236.595 121.8 237.168 121.44C237.755 121.067 238.182 120.533 238.448 119.84L238.768 120.82C238.502 121.513 238.035 122.067 237.368 122.48C236.715 122.893 235.888 123.1 234.888 123.1ZM248.085 123.1C247.045 123.1 246.112 122.873 245.285 122.42C244.472 121.953 243.832 121.32 243.365 120.52C242.898 119.707 242.665 118.78 242.665 117.74C242.665 116.687 242.898 115.76 243.365 114.96C243.832 114.16 244.472 113.533 245.285 113.08C246.112 112.627 247.045 112.4 248.085 112.4C248.978 112.4 249.785 112.573 250.505 112.92C251.225 113.267 251.792 113.787 252.205 114.48L251.145 115.2C250.785 114.667 250.338 114.273 249.805 114.02C249.272 113.767 248.692 113.64 248.065 113.64C247.318 113.64 246.645 113.813 246.045 114.16C245.445 114.493 244.972 114.967 244.625 115.58C244.278 116.193 244.105 116.913 244.105 117.74C244.105 118.567 244.278 119.287 244.625 119.9C244.972 120.513 245.445 120.993 246.045 121.34C246.645 121.673 247.318 121.84 248.065 121.84C248.692 121.84 249.272 121.713 249.805 121.46C250.338 121.207 250.785 120.82 251.145 120.3L252.205 121.02C251.792 121.7 251.225 122.22 250.505 122.58C249.785 122.927 248.978 123.1 248.085 123.1ZM258.432 123.1C257.445 123.1 256.685 122.833 256.152 122.3C255.619 121.767 255.352 121.013 255.352 120.04V110.18H256.772V119.96C256.772 120.573 256.925 121.047 257.232 121.38C257.552 121.713 258.005 121.88 258.592 121.88C259.219 121.88 259.739 121.7 260.152 121.34L260.652 122.36C260.372 122.613 260.032 122.8 259.632 122.92C259.245 123.04 258.845 123.1 258.432 123.1ZM253.472 113.68V112.5H259.972V113.68H253.472ZM263.237 123V108.16H264.657V123H263.237ZM268.688 126.98C268.195 126.98 267.721 126.9 267.268 126.74C266.828 126.58 266.448 126.34 266.128 126.02L266.788 124.96C267.055 125.213 267.341 125.407 267.648 125.54C267.968 125.687 268.321 125.76 268.708 125.76C269.175 125.76 269.575 125.627 269.908 125.36C270.255 125.107 270.581 124.653 270.888 124L271.568 122.46L271.728 122.24L276.048 112.5H277.448L272.188 124.26C271.895 124.94 271.568 125.48 271.208 125.88C270.861 126.28 270.481 126.56 270.068 126.72C269.655 126.893 269.195 126.98 268.688 126.98ZM271.488 123.3L266.648 112.5H268.128L272.408 122.14L271.488 123.3ZM286.822 123L282.862 112.5H284.222L287.822 122.24H287.202L290.902 112.5H292.122L295.782 122.24H295.162L298.822 112.5H300.122L296.142 123H294.802L291.282 113.84H291.702L288.162 123H286.822ZM307.62 112.4C308.474 112.4 309.22 112.567 309.86 112.9C310.514 113.22 311.02 113.713 311.38 114.38C311.754 115.047 311.94 115.887 311.94 116.9V123H310.52V117.04C310.52 115.933 310.24 115.1 309.68 114.54C309.134 113.967 308.36 113.68 307.36 113.68C306.614 113.68 305.96 113.833 305.4 114.14C304.854 114.433 304.427 114.867 304.12 115.44C303.827 116 303.68 116.68 303.68 117.48V123H302.26V108.16H303.68V115.38L303.4 114.84C303.734 114.08 304.267 113.487 305 113.06C305.734 112.62 306.607 112.4 307.62 112.4ZM320.236 123.1C319.143 123.1 318.183 122.873 317.356 122.42C316.529 121.953 315.883 121.32 315.416 120.52C314.949 119.707 314.716 118.78 314.716 117.74C314.716 116.7 314.936 115.78 315.376 114.98C315.829 114.18 316.443 113.553 317.216 113.1C318.003 112.633 318.883 112.4 319.856 112.4C320.843 112.4 321.716 112.627 322.476 113.08C323.249 113.52 323.856 114.147 324.296 114.96C324.736 115.76 324.956 116.687 324.956 117.74C324.956 117.807 324.949 117.88 324.936 117.96C324.936 118.027 324.936 118.1 324.936 118.18H315.796V117.12H324.176L323.616 117.54C323.616 116.78 323.449 116.107 323.116 115.52C322.796 114.92 322.356 114.453 321.796 114.12C321.236 113.787 320.589 113.62 319.856 113.62C319.136 113.62 318.489 113.787 317.916 114.12C317.343 114.453 316.896 114.92 316.576 115.52C316.256 116.12 316.096 116.807 316.096 117.58V117.8C316.096 118.6 316.269 119.307 316.616 119.92C316.976 120.52 317.469 120.993 318.096 121.34C318.736 121.673 319.463 121.84 320.276 121.84C320.916 121.84 321.509 121.727 322.056 121.5C322.616 121.273 323.096 120.927 323.496 120.46L324.296 121.38C323.829 121.94 323.243 122.367 322.536 122.66C321.843 122.953 321.076 123.1 320.236 123.1ZM333.206 112.4C334.06 112.4 334.806 112.567 335.446 112.9C336.1 113.22 336.606 113.713 336.966 114.38C337.34 115.047 337.526 115.887 337.526 116.9V123H336.106V117.04C336.106 115.933 335.826 115.1 335.266 114.54C334.72 113.967 333.946 113.68 332.946 113.68C332.2 113.68 331.546 113.833 330.986 114.14C330.44 114.433 330.013 114.867 329.706 115.44C329.413 116 329.266 116.68 329.266 117.48V123H327.846V112.5H329.206V115.38L328.986 114.84C329.32 114.08 329.853 113.487 330.586 113.06C331.32 112.62 332.193 112.4 333.206 112.4ZM346.676 126.98C346.183 126.98 345.71 126.9 345.256 126.74C344.816 126.58 344.436 126.34 344.116 126.02L344.776 124.96C345.043 125.213 345.33 125.407 345.636 125.54C345.956 125.687 346.31 125.76 346.696 125.76C347.163 125.76 347.563 125.627 347.896 125.36C348.243 125.107 348.57 124.653 348.876 124L349.556 122.46L349.716 122.24L354.036 112.5H355.436L350.176 124.26C349.883 124.94 349.556 125.48 349.196 125.88C348.85 126.28 348.47 126.56 348.056 126.72C347.643 126.893 347.183 126.98 346.676 126.98ZM349.476 123.3L344.636 112.5H346.116L350.396 122.14L349.476 123.3ZM361.423 123.1C360.41 123.1 359.496 122.873 358.683 122.42C357.883 121.953 357.25 121.32 356.783 120.52C356.316 119.707 356.083 118.78 356.083 117.74C356.083 116.687 356.316 115.76 356.783 114.96C357.25 114.16 357.883 113.533 358.683 113.08C359.483 112.627 360.396 112.4 361.423 112.4C362.463 112.4 363.383 112.627 364.183 113.08C364.996 113.533 365.63 114.16 366.083 114.96C366.55 115.76 366.783 116.687 366.783 117.74C366.783 118.78 366.55 119.707 366.083 120.52C365.63 121.32 364.996 121.953 364.183 122.42C363.37 122.873 362.45 123.1 361.423 123.1ZM361.423 121.84C362.183 121.84 362.856 121.673 363.443 121.34C364.03 120.993 364.49 120.513 364.823 119.9C365.17 119.273 365.343 118.553 365.343 117.74C365.343 116.913 365.17 116.193 364.823 115.58C364.49 114.967 364.03 114.493 363.443 114.16C362.856 113.813 362.19 113.64 361.443 113.64C360.696 113.64 360.03 113.813 359.443 114.16C358.856 114.493 358.39 114.967 358.043 115.58C357.696 116.193 357.523 116.913 357.523 117.74C357.523 118.553 357.696 119.273 358.043 119.9C358.39 120.513 358.856 120.993 359.443 121.34C360.03 121.673 360.69 121.84 361.423 121.84ZM374.022 123.1C373.129 123.1 372.349 122.933 371.682 122.6C371.015 122.267 370.495 121.767 370.122 121.1C369.762 120.433 369.582 119.6 369.582 118.6V112.5H371.002V118.44C371.002 119.56 371.275 120.407 371.822 120.98C372.382 121.54 373.162 121.82 374.162 121.82C374.895 121.82 375.529 121.673 376.062 121.38C376.609 121.073 377.022 120.633 377.302 120.06C377.595 119.487 377.742 118.8 377.742 118V112.5H379.162V123H377.802V120.12L378.022 120.64C377.689 121.413 377.169 122.02 376.462 122.46C375.769 122.887 374.955 123.1 374.022 123.1ZM393.714 112.4C394.567 112.4 395.314 112.567 395.954 112.9C396.607 113.22 397.114 113.713 397.474 114.38C397.847 115.047 398.034 115.887 398.034 116.9V123H396.614V117.04C396.614 115.933 396.334 115.1 395.774 114.54C395.227 113.967 394.454 113.68 393.454 113.68C392.707 113.68 392.054 113.833 391.494 114.14C390.947 114.433 390.521 114.867 390.214 115.44C389.921 116 389.774 116.68 389.774 117.48V123H388.354V112.5H389.714V115.38L389.494 114.84C389.827 114.08 390.361 113.487 391.094 113.06C391.827 112.62 392.701 112.4 393.714 112.4ZM406.33 123.1C405.236 123.1 404.276 122.873 403.45 122.42C402.623 121.953 401.976 121.32 401.51 120.52C401.043 119.707 400.81 118.78 400.81 117.74C400.81 116.7 401.03 115.78 401.47 114.98C401.923 114.18 402.536 113.553 403.31 113.1C404.096 112.633 404.976 112.4 405.95 112.4C406.936 112.4 407.81 112.627 408.57 113.08C409.343 113.52 409.95 114.147 410.39 114.96C410.83 115.76 411.05 116.687 411.05 117.74C411.05 117.807 411.043 117.88 411.03 117.96C411.03 118.027 411.03 118.1 411.03 118.18H401.89V117.12H410.27L409.71 117.54C409.71 116.78 409.543 116.107 409.21 115.52C408.89 114.92 408.45 114.453 407.89 114.12C407.33 113.787 406.683 113.62 405.95 113.62C405.23 113.62 404.583 113.787 404.01 114.12C403.436 114.453 402.99 114.92 402.67 115.52C402.35 116.12 402.19 116.807 402.19 117.58V117.8C402.19 118.6 402.363 119.307 402.71 119.92C403.07 120.52 403.563 120.993 404.19 121.34C404.83 121.673 405.556 121.84 406.37 121.84C407.01 121.84 407.603 121.727 408.15 121.5C408.71 121.273 409.19 120.927 409.59 120.46L410.39 121.38C409.923 121.94 409.336 122.367 408.63 122.66C407.936 122.953 407.17 123.1 406.33 123.1ZM418.4 123.1C417.307 123.1 416.347 122.873 415.52 122.42C414.693 121.953 414.047 121.32 413.58 120.52C413.113 119.707 412.88 118.78 412.88 117.74C412.88 116.7 413.1 115.78 413.54 114.98C413.993 114.18 414.607 113.553 415.38 113.1C416.167 112.633 417.047 112.4 418.02 112.4C419.007 112.4 419.88 112.627 420.64 113.08C421.413 113.52 422.02 114.147 422.46 114.96C422.9 115.76 423.12 116.687 423.12 117.74C423.12 117.807 423.113 117.88 423.1 117.96C423.1 118.027 423.1 118.1 423.1 118.18H413.96V117.12H422.34L421.78 117.54C421.78 116.78 421.613 116.107 421.28 115.52C420.96 114.92 420.52 114.453 419.96 114.12C419.4 113.787 418.753 113.62 418.02 113.62C417.3 113.62 416.653 113.787 416.08 114.12C415.507 114.453 415.06 114.92 414.74 115.52C414.42 116.12 414.26 116.807 414.26 117.58V117.8C414.26 118.6 414.433 119.307 414.78 119.92C415.14 120.52 415.633 120.993 416.26 121.34C416.9 121.673 417.627 121.84 418.44 121.84C419.08 121.84 419.673 121.727 420.22 121.5C420.78 121.273 421.26 120.927 421.66 120.46L422.46 121.38C421.993 121.94 421.407 122.367 420.7 122.66C420.007 122.953 419.24 123.1 418.4 123.1ZM430.19 123.1C429.19 123.1 428.29 122.873 427.49 122.42C426.704 121.967 426.084 121.34 425.63 120.54C425.177 119.727 424.95 118.793 424.95 117.74C424.95 116.673 425.177 115.74 425.63 114.94C426.084 114.14 426.704 113.52 427.49 113.08C428.29 112.627 429.19 112.4 430.19 112.4C431.11 112.4 431.93 112.607 432.65 113.02C433.384 113.433 433.964 114.04 434.39 114.84C434.83 115.627 435.05 116.593 435.05 117.74C435.05 118.873 434.837 119.84 434.41 120.64C433.984 121.44 433.404 122.053 432.67 122.48C431.95 122.893 431.124 123.1 430.19 123.1ZM430.29 121.84C431.037 121.84 431.704 121.673 432.29 121.34C432.89 120.993 433.357 120.513 433.69 119.9C434.037 119.273 434.21 118.553 434.21 117.74C434.21 116.913 434.037 116.193 433.69 115.58C433.357 114.967 432.89 114.493 432.29 114.16C431.704 113.813 431.037 113.64 430.29 113.64C429.557 113.64 428.897 113.813 428.31 114.16C427.724 114.493 427.257 114.967 426.91 115.58C426.564 116.193 426.39 116.913 426.39 117.74C426.39 118.553 426.564 119.273 426.91 119.9C427.257 120.513 427.724 120.993 428.31 121.34C428.897 121.673 429.557 121.84 430.29 121.84ZM434.25 123V119.84L434.39 117.72L434.19 115.6V108.16H435.61V123H434.25ZM444.799 123V112.5H446.219V123H444.799ZM445.519 110.18C445.226 110.18 444.979 110.08 444.779 109.88C444.579 109.68 444.479 109.44 444.479 109.16C444.479 108.88 444.579 108.647 444.779 108.46C444.979 108.26 445.226 108.16 445.519 108.16C445.813 108.16 446.059 108.253 446.259 108.44C446.459 108.627 446.559 108.86 446.559 109.14C446.559 109.433 446.459 109.68 446.259 109.88C446.073 110.08 445.826 110.18 445.519 110.18ZM453.49 123.1C452.504 123.1 451.744 122.833 451.21 122.3C450.677 121.767 450.41 121.013 450.41 120.04V110.18H451.83V119.96C451.83 120.573 451.984 121.047 452.29 121.38C452.61 121.713 453.064 121.88 453.65 121.88C454.277 121.88 454.797 121.7 455.21 121.34L455.71 122.36C455.43 122.613 455.09 122.8 454.69 122.92C454.304 123.04 453.904 123.1 453.49 123.1ZM448.53 113.68V112.5H455.03V113.68H448.53ZM458.631 123.1C458.337 123.1 458.084 122.993 457.871 122.78C457.671 122.567 457.571 122.307 457.571 122C457.571 121.68 457.671 121.42 457.871 121.22C458.084 121.02 458.337 120.92 458.631 120.92C458.924 120.92 459.171 121.02 459.371 121.22C459.584 121.42 459.691 121.68 459.691 122C459.691 122.307 459.584 122.567 459.371 122.78C459.171 122.993 458.924 123.1 458.631 123.1Z" fill="white"/>
<circle cx="73.1807" cy="87.5" r="62" stroke="white" stroke-width="3"/>
</g>
<path d="M66.9742 41.0484C62.7382 41.576 59.0782 43.2494 56.217 45.9961C54.5635 47.5968 53.5231 49.0338 52.4641 51.1802C51.2379 53.6904 50.9221 55.1455 50.9221 58.4015C50.9221 60.9299 50.9592 61.4028 51.4237 63.0035C51.7024 63.9858 52.1297 65.3136 52.3898 65.9503L52.8728 67.1144L50.8663 69.0789C47.2063 72.6623 45.0697 76.3549 43.7878 81.3207C43.3233 83.0851 43.2861 83.5216 43.2861 86.9595C43.2861 90.3974 43.3233 90.8339 43.7878 92.5983C44.7353 96.2909 46.1473 99.2376 48.3396 102.093C52.1483 107.041 57.7034 110.406 64.1131 111.625C66.4169 112.08 70.9315 112.061 73.291 111.625C78.1587 110.697 82.2089 108.733 85.9804 105.477L87.2438 104.385L90.0678 106.386L92.8732 108.369L92.8918 109.369C92.9289 111.297 93.0404 111.407 100.788 116.918C104.596 119.628 107.941 121.957 108.182 122.066C109.204 122.502 110.17 122.502 111.248 122.011C112.158 121.611 112.455 121.32 113.774 119.574C115.502 117.3 115.855 116.645 115.985 115.572C116.115 114.462 115.372 113.08 114.22 112.225C111.099 109.915 101.327 103.039 100.751 102.748C100.175 102.457 99.8031 102.403 98.8742 102.475C98.2425 102.53 97.5551 102.621 97.3507 102.694C97.0534 102.785 96.3289 102.348 94.1923 100.82C92.6502 99.7287 91.424 98.7465 91.4426 98.6737C91.4612 98.5828 91.8142 97.7461 92.2415 96.8184C93.7836 93.3623 94.3967 89.9608 94.2295 85.8681C94.0994 82.9759 93.7464 81.1206 92.7989 78.5012C91.4055 74.645 88.8973 70.9707 85.8318 68.2968L84.6056 67.2236L85.0701 66.0594C85.3302 65.4228 85.7761 64.0222 86.0547 62.9672C86.7422 60.3478 86.7793 56.8008 86.1476 54.3088C84.5684 48.1607 79.4778 43.1221 73.2353 41.576C71.4703 41.1394 68.3862 40.8847 66.9742 41.0484ZM71.8047 44.2135C73.0867 44.4681 74.1085 44.8319 75.5205 45.5231C77.174 46.3417 77.7128 46.7237 79.162 48.1243C81.1313 50.0342 82.116 51.5622 82.9706 54.036C84.6613 58.9654 83.3608 64.5315 78.8833 71.771C76.5981 75.4272 72.5479 80.7386 69.7239 83.7581L68.7206 84.8313L66.9928 82.8486C61.2333 76.2275 56.7744 69.3518 54.8422 64.1131C53.0029 59.1109 53.5974 54.0723 56.4586 50.1433C57.7591 48.3607 59.8585 46.56 61.7164 45.6141C65.0978 43.9224 68.1818 43.4859 71.8047 44.2135ZM55.028 71.3527L55.7154 72.5714L54.4149 73.8992C47.9309 80.5931 46.9833 90.5611 52.0925 98.1826C54.8422 102.257 59.0782 105.167 64.1131 106.441C65.5065 106.786 66.2311 106.859 68.6463 106.859C71.879 106.859 73.1238 106.659 75.8549 105.64C78.2144 104.767 80.3139 103.494 82.1718 101.784C84.2526 99.8561 85.3673 98.3827 86.5935 95.9635C90.2721 88.5966 88.953 80.1929 83.1379 73.9902L81.8373 72.6078L82.5247 71.3708C82.8963 70.6978 83.2307 70.0976 83.2679 70.0612C83.398 69.8975 85.8132 72.3713 86.8908 73.7719C89.7891 77.5372 91.3126 82.1392 91.3126 87.0505C91.3126 92.8166 89.176 98.0189 85.0886 102.221C75.0932 112.498 58.0006 111.079 49.956 99.3104C47.2992 95.4178 46.1473 91.6343 46.1473 86.8322C46.1473 81.0842 48.2281 76.0274 52.2783 71.8256C53.2444 70.8433 54.099 70.0612 54.1919 70.0794C54.2848 70.1158 54.675 70.6796 55.028 71.3527ZM60.8803 79.9928C62.6453 82.3211 65.4879 85.6498 66.9928 87.1778C68.3119 88.542 68.7949 88.6875 69.6496 88.0327C70.9687 87.0141 76.5423 80.393 78.9576 76.9551C79.5521 76.1002 80.0723 75.3726 80.1095 75.3362C80.221 75.1725 81.6887 76.6823 82.5062 77.7918C83.5837 79.247 84.7171 81.6299 85.2001 83.4125C85.7761 85.5225 85.7946 89.1787 85.2187 91.3796C83.3794 98.5646 77.1369 103.621 69.631 104.003C66.2868 104.167 63.7415 103.621 60.676 102.057C56.7187 100.038 53.4674 95.9998 52.2597 91.5979C51.7395 89.6516 51.6838 85.4679 52.1668 83.6853C53.0215 80.5749 54.4706 77.9919 56.57 75.8455L57.3132 75.0816L58.4093 76.6459C59.0225 77.519 60.1186 79.0288 60.8803 79.9928ZM92.4459 103.167C93.8579 104.167 95.0283 105.058 95.0283 105.113C95.0283 105.186 94.8983 105.404 94.7497 105.586C94.4896 105.931 94.471 105.931 93.8579 105.495C93.5049 105.258 92.2972 104.404 91.1825 103.603C89.1574 102.203 89.1388 102.148 89.3989 101.748C89.5661 101.511 89.7148 101.329 89.7705 101.329C89.8263 101.329 91.0339 102.148 92.4459 103.167ZM101.289 106.568C106.677 110.352 112.251 114.335 112.641 114.663C112.864 114.863 113.05 115.172 113.05 115.354C113.05 115.827 110.226 119.428 109.799 119.483C109.557 119.501 107.328 118.028 103.668 115.408C96.4961 110.315 95.7715 109.751 95.7715 109.442C95.7715 109.169 98.2425 105.731 98.707 105.368C98.8742 105.258 99.06 105.149 99.1343 105.149C99.2086 105.149 100.175 105.786 101.289 106.568Z" fill="white"/>
<path d="M67.2534 48.7823C64.7081 49.1461 61.7355 51.2379 60.5836 53.4571C57.5366 59.3324 61.4753 66.1899 68.1823 66.6993C69.7244 66.8266 71.9353 66.3173 73.2729 65.5533C76.0969 63.9344 77.9548 60.7876 77.9177 57.6771C77.8805 52.111 72.9014 47.9638 67.2534 48.7823ZM71.1364 52.0383C72.3812 52.5112 73.6259 53.639 74.3505 54.9668C74.815 55.8399 74.8707 56.131 74.8707 57.6771C74.8707 59.7144 74.462 60.7148 73.1429 62.0063C71.9167 63.2068 70.5604 63.7525 68.7397 63.7707C66.8446 63.7707 65.4327 63.1886 64.1507 61.8426C62.9245 60.5693 62.46 59.296 62.5529 57.4043C62.6272 55.6762 63.1103 54.5303 64.2993 53.3661C66.1572 51.5653 68.5539 51.0924 71.1364 52.0383Z" fill="white"/>
<path d="M95.4564 59.0579C95.0291 59.4762 94.992 59.6218 95.0849 60.4585C95.1406 60.986 95.2521 61.659 95.3078 61.9682L95.4378 62.5503L94.2674 62.6776C92.9483 62.8232 92.168 63.1506 91.9822 63.5871C91.7592 64.1874 91.8893 64.8059 92.3538 65.2606C92.7996 65.6972 92.8925 65.7153 94.2488 65.588C95.0291 65.5153 95.7537 65.4425 95.8466 65.4425C95.9395 65.4243 96.1624 66.0609 96.3296 66.8431C96.6826 68.4074 97.0914 68.9531 97.946 68.9531C99.1908 68.9531 99.6181 68.0982 99.2279 66.352C99.0979 65.679 99.0236 65.0969 99.0979 65.0605C99.1536 65.0241 99.7482 64.9332 100.417 64.8786C101.903 64.7149 102.461 64.2965 102.461 63.3143C102.461 62.1319 101.718 61.7863 99.8225 62.041C99.0979 62.1501 98.4848 62.2047 98.4476 62.1683C98.4105 62.1319 98.2618 61.4953 98.0946 60.7495C97.8903 59.7491 97.6859 59.2943 97.3329 58.9851C96.7198 58.4576 96.051 58.4758 95.4564 59.0579Z" fill="white"/>
<path d="M41.4284 103.242C40.7967 103.843 40.8525 104.334 41.6699 105.68C43.8622 109.318 48.2283 113.247 52.5014 115.429C56.6074 117.503 60.7319 118.467 65.5995 118.449C68.7022 118.449 69.241 118.322 69.594 117.485C69.7798 117.048 69.7612 116.848 69.5197 116.321C69.3525 115.975 69.1109 115.684 68.9809 115.684C68.8508 115.666 67.3645 115.63 65.6738 115.611C60.0444 115.557 55.8085 114.32 51.3681 111.428C49.4359 110.191 45.7387 106.535 44.4382 104.57C43.8437 103.715 43.2305 102.951 43.0819 102.897C42.4874 102.678 41.8557 102.806 41.4284 103.242Z" fill="white"/>
<path d="M82.7292 115.41C82.339 115.701 82.0232 116.465 82.1161 116.901C82.1532 117.102 82.2275 117.684 82.2833 118.193L82.3762 119.157H80.9084C79.6451 119.157 79.385 119.212 78.9762 119.557C78.2145 120.23 78.1773 120.867 78.8276 121.522C79.3664 122.049 79.4593 122.067 80.9642 122.067C82.7292 122.067 82.7477 122.086 82.7663 123.614C82.8035 125.232 83.5652 126.215 84.6242 125.96C85.6275 125.742 85.7947 125.396 85.7018 123.686L85.6275 122.122L87.0766 121.995C88.8788 121.849 89.0646 121.776 89.3618 121.103C89.6405 120.448 89.4176 119.612 88.8974 119.339C88.7116 119.23 87.8384 119.157 86.9651 119.157C85.1444 119.157 85.293 119.321 85.0887 117.156C84.9958 116.319 84.8472 115.846 84.587 115.555C84.1412 115.101 83.2308 115.028 82.7292 115.41Z" fill="black"/>
<path d="M82.7292 115.41C82.339 115.701 82.0232 116.465 82.1161 116.901C82.1532 117.102 82.2275 117.684 82.2833 118.193L82.3762 119.157H80.9084C79.6451 119.157 79.385 119.212 78.9762 119.557C78.2145 120.23 78.1773 120.867 78.8276 121.522C79.3664 122.049 79.4593 122.067 80.9642 122.067C82.7292 122.067 82.7477 122.086 82.7663 123.614C82.8035 125.232 83.5652 126.215 84.6242 125.96C85.6275 125.742 85.7947 125.396 85.7018 123.686L85.6275 122.122L87.0766 121.995C88.8788 121.849 89.0646 121.776 89.3618 121.103C89.6405 120.448 89.4176 119.612 88.8974 119.339C88.7116 119.23 87.8384 119.157 86.9651 119.157C85.1444 119.157 85.293 119.321 85.0887 117.156C84.9958 116.319 84.8472 115.846 84.587 115.555C84.1412 115.101 83.2308 115.028 82.7292 115.41Z" fill="white"/>
<defs>
<filter id="filter0_d_809_6570" x="-0.000976562" y="0" width="653.028" height="184" filterUnits="userSpaceOnUse" color-interpolation-filters="sRGB">
<feFlood flood-opacity="0" result="BackgroundImageFix"/>
<feColorMatrix in="SourceAlpha" type="matrix" values="0 0 0 0 0 0 0 0 0 0 0 0 0 0 0 0 0 0 127 0" result="hardAlpha"/>
<feOffset dy="4"/>
<feGaussianBlur stdDeviation="2"/>
<feComposite in2="hardAlpha" operator="out"/>
<feColorMatrix type="matrix" values="0 0 0 0 0 0 0 0 0 0 0 0 0 0 0 0 0 0 0.25 0"/>
<feBlend mode="normal" in2="BackgroundImageFix" result="effect1_dropShadow_809_6570"/>
<feBlend mode="normal" in="SourceGraphic" in2="effect1_dropShadow_809_6570" result="shape"/>
</filter>
</defs>
</svg>
