<svg width="85" height="80" viewBox="0 0 85 80" fill="none" xmlns="http://www.w3.org/2000/svg">
<path d="M41.3667 0.279018C40.1448 0.766487 39.7198 1.47738 37.1698 7.327C35.2042 11.8564 34.6375 12.9938 34.3188 13.0751C34.0886 13.1157 31.6448 13.5422 28.8646 13.9891C24.4198 14.7203 23.7292 14.8828 23.0386 15.3702C21.6219 16.3655 21.0552 18.4169 21.6927 20.2449C21.8698 20.7527 23.2334 22.4182 25.9604 25.4649L29.9625 29.9333L29.0594 35.9251C28.5636 39.2359 28.1563 42.2419 28.1563 42.6278C28.174 45.0042 30.4584 46.9744 32.3886 46.3042C32.7781 46.1823 35.1511 44.8418 37.6479 43.3387C40.1271 41.8357 42.3229 40.5967 42.5 40.5967C42.6948 40.5967 44.8906 41.8357 47.4052 43.359C49.9198 44.8621 52.3104 46.2026 52.7177 46.3448C54.6479 46.9338 56.8261 44.9433 56.8438 42.5872C56.8438 42.181 56.4365 39.1749 55.9406 35.8845L55.0375 29.9333L59.0396 25.4649C61.7667 22.4182 63.1302 20.7527 63.3073 20.2449C63.9448 18.4169 63.3781 16.3655 61.9615 15.3702C61.2709 14.8828 60.5979 14.7203 56.1354 13.9891C53.3552 13.5422 50.9115 13.1157 50.6813 13.0548C50.3625 12.9938 49.8136 11.8564 47.8302 7.327C45.2094 1.31489 44.7844 0.62431 43.4386 0.197773C42.5709 -0.0865822 42.2167 -0.0662689 41.3667 0.279018ZM42.7834 3.38663C42.9073 3.46788 44.0761 6.0474 45.4219 9.11438C46.75 12.1814 47.9896 14.8624 48.149 15.0859C48.8042 15.9186 49.6896 16.1827 54.8073 17.0357C57.6406 17.4826 60.1198 17.9497 60.35 18.0513C60.5625 18.1529 60.7396 18.4169 60.7396 18.62C60.7396 18.8638 59.1636 20.7933 56.7906 23.4744C53.5146 27.1507 52.7709 28.1053 52.5052 28.8975L52.1865 29.8724L53.125 36.2298C53.9042 41.4904 54.0281 42.6685 53.8334 42.9325C53.7094 43.095 53.5323 43.2372 53.4438 43.2372C53.3552 43.2372 51.1594 41.9373 48.5563 40.353L43.8281 37.4485H42.5L41.1719 37.4688L36.4438 40.353C33.8584 41.9373 31.6448 43.2372 31.5563 43.2372C31.4677 43.2372 31.2906 43.095 31.1667 42.9325C30.9719 42.6685 31.0959 41.4904 31.875 36.2298L32.8136 29.8724L32.4948 28.8772C32.2292 28.085 31.4854 27.1507 28.2094 23.4541C25.8188 20.773 24.2604 18.8638 24.2604 18.62C24.2604 18.4169 24.4375 18.1529 24.6677 18.0513C24.8802 17.9497 27.3594 17.5029 30.175 17.0357C35.3104 16.203 36.1959 15.9389 36.8511 15.0859C37.0104 14.8624 38.25 12.1814 39.5781 9.11438C41.7563 4.09752 42.199 3.22414 42.5 3.22414C42.5531 3.22414 42.6771 3.30539 42.7834 3.38663Z" fill="#5F0000"/>
<path d="M8.19863 29.9744C7.7028 30.0963 7.08301 30.9697 7.08301 31.5587C7.08301 31.8024 7.24238 32.2493 7.45488 32.5539L7.80905 33.082H12.0413H16.2736L16.6278 32.5539C17.1236 31.843 17.0882 31.1931 16.5747 30.5025L16.1497 29.9338L12.3601 29.9135C10.2882 29.8932 8.41113 29.9135 8.19863 29.9744Z" fill="#5F0000"/>
<path d="M69.1156 29.9744C68.6198 30.0963 68 30.9697 68 31.5587C68 31.8024 68.1594 32.2493 68.3719 32.5539L68.726 33.082H72.9583H77.1906L77.5448 32.5539C78.0406 31.843 78.0052 31.1931 77.4917 30.5025L77.0667 29.9338L73.2771 29.9135C71.2052 29.8932 69.3281 29.9135 69.1156 29.9744Z" fill="#5F0000"/>
<path d="M0.442708 38.8713C0.159375 39.1759 0 39.6025 0 39.9884C0 40.3743 0.159375 40.8008 0.442708 41.1055L0.867708 41.6133H8.5H16.1323L16.5573 41.1055C17.1417 40.4555 17.1417 39.5212 16.5573 38.8713L16.1323 38.3635H8.5H0.867708L0.442708 38.8713Z" fill="#5F0000"/>
<path d="M68.4427 38.8674C68.1594 39.172 68 39.5986 68 39.9845C68 40.3704 68.1594 40.7969 68.4427 41.1016L68.8677 41.6094H76.5H84.1323L84.5573 41.1016C84.8406 40.7969 85 40.3704 85 39.9845C85 39.5986 84.8406 39.172 84.5573 38.8674L84.1323 38.3596H76.5H68.8677L68.4427 38.8674Z" fill="#5F0000"/>
<path d="M11.9524 52.5795C10.8014 52.8639 10.4649 53.3513 9.10135 56.5605C8.39302 58.2666 7.73781 59.7087 7.66698 59.7494C7.57843 59.8103 6.32114 60.054 4.86906 60.2978C3.39927 60.5212 1.96489 60.8258 1.64614 60.9274C0.920101 61.1914 0.229476 62.1258 0.0701006 63.0398C-0.160108 64.4412 0.0878089 64.9287 2.47843 67.7113L4.7451 70.3518L4.23156 73.6828C3.84198 76.303 3.75343 77.1967 3.8951 77.7654C4.17843 78.9434 5.34718 79.9793 6.42739 79.9996C6.63989 80.0199 8.09198 79.2684 9.65031 78.3544L12.4836 76.6889L15.2816 78.3341C16.8045 79.2481 18.2566 79.9996 18.5045 79.9996C19.2128 79.9996 20.0628 79.5121 20.5941 78.8012C21.2139 77.9482 21.2139 76.9732 20.6295 73.1547L20.1868 70.2705L22.4711 67.6707C25.0566 64.7256 25.2691 64.2787 24.7024 62.6335C24.2243 61.1508 23.7639 60.9071 20.2753 60.3384L17.2295 59.8306L15.9191 56.8042C15.193 55.1387 14.3961 53.5544 14.1482 53.2701C13.5993 52.6607 12.7139 52.3967 11.9524 52.5795ZM13.7764 59.1603C15.3524 62.8163 15.2993 62.7757 18.8764 63.3647C20.3284 63.6085 21.5503 63.8319 21.5857 63.8725C21.6389 63.9335 20.7357 65.0303 19.6201 66.3505C18.3097 67.8535 17.5128 68.9503 17.4243 69.3362C17.3357 69.7221 17.4597 71.083 17.743 73.0938C18.0086 74.8202 18.1857 76.2827 18.1503 76.303C18.1149 76.3436 16.9993 75.7139 15.6534 74.9015C12.4836 72.9719 12.4836 72.9719 9.31385 74.9015C7.96802 75.7139 6.83468 76.3436 6.79927 76.303C6.76385 76.2623 6.94093 74.8609 7.18885 73.175C7.45448 71.347 7.59614 69.8643 7.52531 69.4378C7.43677 68.8894 6.94093 68.1785 5.29406 66.2692L3.18677 63.8319L5.52427 63.4663C9.59718 62.857 9.47323 62.9382 11.2264 58.9166C11.8639 57.4542 12.4305 56.2355 12.4659 56.2355C12.5014 56.2355 13.1034 57.5557 13.7764 59.1603Z" fill="#5F0000"/>
<path d="M41.7382 52.6815C41.3663 52.8236 40.9059 53.108 40.7288 53.2908C40.5341 53.4939 39.7903 55.0376 39.082 56.7437L37.7716 59.831L34.9559 60.2778C31.733 60.8059 31.3965 60.9278 30.7236 61.7402C30.334 62.1871 30.2101 62.573 30.1393 63.4261C30.1038 64.0151 30.1393 64.6854 30.2455 64.8885C30.334 65.0916 31.3965 66.3712 32.6007 67.732L34.7611 70.21L34.283 73.602C33.9997 75.4706 33.8403 77.2783 33.8934 77.6033C34.0528 78.5579 34.6549 79.3297 35.5049 79.7156C36.5497 80.1625 36.9216 80.0406 39.9851 78.172C41.2778 77.4002 42.4111 76.7502 42.482 76.7502C42.5705 76.7502 43.8632 77.4814 45.3861 78.3751C46.9091 79.2688 48.308 80 48.5028 80C49.158 80 50.2913 79.35 50.6455 78.7813C51.2299 77.847 51.2299 77.1767 50.7163 73.602L50.2382 70.21L52.4695 67.6508C53.7091 66.2696 54.7716 64.8885 54.8247 64.6244C55.0195 63.7307 54.7893 62.3293 54.3466 61.7809C53.7091 60.9887 53.0716 60.7653 50.0434 60.2778L47.2455 59.8107L45.9351 56.7843C44.5184 53.4736 44.4122 53.2908 43.757 52.9049C42.9778 52.458 42.4466 52.3971 41.7382 52.6815ZM43.8101 59.0795C44.483 60.6638 45.2268 62.1059 45.4747 62.3293C46.0236 62.8371 46.6611 63.0199 49.4591 63.4667C50.6986 63.6698 51.708 63.8932 51.708 63.9745C51.708 64.0557 50.9111 64.99 49.9372 66.0259C47.1747 68.9507 47.1393 69.0929 47.7945 73.277C48.007 74.5566 48.1663 75.7753 48.1663 75.9987C48.1663 76.3237 47.7945 76.1612 45.7403 74.9019C42.5174 72.9723 42.482 72.9723 39.3299 74.8816C38.0195 75.694 36.9038 76.3034 36.8684 76.2424C36.8153 76.1815 36.9747 74.7597 37.2226 73.0739C37.5768 70.7381 37.6476 69.8444 37.5059 69.2757C37.382 68.707 36.8507 67.9758 35.2747 66.2493C34.1413 65.0104 33.2382 63.9542 33.2913 63.8932C33.3445 63.8526 34.3716 63.6495 35.5934 63.4667C39.6309 62.8371 39.6841 62.7964 41.2955 58.8967C41.8799 57.4343 42.4288 56.2359 42.4997 56.2359C42.5528 56.2359 43.1549 57.5155 43.8101 59.0795Z" fill="#5F0000"/>
<path d="M71.9313 52.6002C70.9928 52.8236 70.4793 53.5752 69.0803 56.8046L67.7699 59.831L64.724 60.3388C61.2355 60.9075 60.7751 61.1512 60.297 62.6339C59.7303 64.2995 59.9251 64.726 62.5282 67.6711L64.8303 70.2506L64.3699 73.1348C63.7855 76.9736 63.7855 77.9486 64.4053 78.8016C64.9365 79.5125 65.7865 80 66.4949 80C66.7428 80 68.1949 79.2485 69.7355 78.3345L72.5334 76.6893L75.3313 78.3345C76.872 79.2485 78.3063 80 78.5365 80C79.6345 80 80.8209 78.9641 81.1043 77.7658C81.2459 77.1971 81.1574 76.3034 80.7678 73.6832L80.2543 70.3522L82.5209 67.7117C84.3449 65.5791 84.823 64.9291 84.9115 64.3198C85.1595 62.8167 84.4865 61.334 83.3532 60.9278C83.0345 60.8262 81.6001 60.5216 80.1303 60.2982C78.6782 60.0544 77.4209 59.8107 77.3324 59.7498C77.2615 59.7091 76.6063 58.267 75.898 56.5609C74.5345 53.3517 74.198 52.8643 73.0647 52.5799C72.7636 52.519 72.2501 52.519 71.9313 52.6002ZM73.773 58.917C75.5261 62.9386 75.4022 62.8574 79.4751 63.4667L81.8126 63.8323L79.7053 66.2696C78.0584 68.1789 77.5626 68.8898 77.474 69.4382C77.4032 69.8647 77.5449 71.3474 77.8105 73.1754C78.0584 74.8613 78.2355 76.2424 78.2001 76.2831C78.1647 76.3237 77.0313 75.694 75.7032 74.9019C72.5157 72.9926 72.5334 72.9926 69.3459 74.9019C68.0178 75.7143 66.8845 76.344 66.8668 76.3237C66.8313 76.2831 67.0084 74.8206 67.2563 73.0942C67.5397 71.1037 67.6636 69.7225 67.5751 69.3366C67.4865 68.9507 66.6897 67.8539 65.3793 66.3509C64.2636 65.0307 63.3605 63.9339 63.4136 63.8729C63.449 63.8323 64.6709 63.6089 66.123 63.3651C69.6824 62.7761 69.647 62.8167 71.223 59.1607C71.9136 57.5561 72.498 56.2359 72.5334 56.2359C72.5688 56.2359 73.1355 57.4546 73.773 58.917Z" fill="#5F0000"/>
</svg>
