<svg width="654" height="184" viewBox="0 0 654 184" fill="none" xmlns="http://www.w3.org/2000/svg">
<g filter="url(#filter0_d_809_6568)">
<rect x="5.5" y="1.5" width="642.029" height="173" rx="16.5" fill="white"/>
<rect x="5.5" y="1.5" width="642.029" height="173" rx="16.5" fill="#FF0000"/>
<rect x="5.5" y="1.5" width="642.029" height="173" rx="16.5" stroke="#F7A9A0" stroke-width="3"/>
<path d="M149.372 66V50.07H143.108V47.1H159.146V50.07H152.882V66H149.372ZM160.663 66V51.582H163.876V55.551L163.498 54.39C163.93 53.418 164.605 52.68 165.523 52.176C166.459 51.672 167.62 51.42 169.006 51.42V54.633C168.862 54.597 168.727 54.579 168.601 54.579C168.475 54.561 168.349 54.552 168.223 54.552C166.945 54.552 165.928 54.93 165.172 55.686C164.416 56.424 164.038 57.531 164.038 59.007V66H160.663ZM177.653 66.189C176.429 66.189 175.349 65.964 174.413 65.514C173.477 65.046 172.748 64.344 172.226 63.408C171.704 62.454 171.443 61.257 171.443 59.817V51.582H174.818V59.358C174.818 60.654 175.106 61.626 175.682 62.274C176.276 62.904 177.113 63.219 178.193 63.219C178.985 63.219 179.669 63.057 180.245 62.733C180.839 62.409 181.298 61.923 181.622 61.275C181.964 60.627 182.135 59.826 182.135 58.872V51.582H185.51V66H182.297V62.112L182.864 63.3C182.378 64.236 181.667 64.956 180.731 65.46C179.795 65.946 178.769 66.189 177.653 66.189ZM193.934 66.189C192.728 66.189 191.567 66.036 190.451 65.73C189.353 65.406 188.48 65.019 187.832 64.569L189.128 62.004C189.776 62.418 190.55 62.76 191.45 63.03C192.35 63.3 193.25 63.435 194.15 63.435C195.212 63.435 195.977 63.291 196.445 63.003C196.931 62.715 197.174 62.328 197.174 61.842C197.174 61.446 197.012 61.149 196.688 60.951C196.364 60.735 195.941 60.573 195.419 60.465C194.897 60.357 194.312 60.258 193.664 60.168C193.034 60.078 192.395 59.961 191.747 59.817C191.117 59.655 190.541 59.43 190.019 59.142C189.497 58.836 189.074 58.431 188.75 57.927C188.426 57.423 188.264 56.757 188.264 55.929C188.264 55.011 188.525 54.219 189.047 53.553C189.569 52.869 190.298 52.347 191.234 51.987C192.188 51.609 193.313 51.42 194.609 51.42C195.581 51.42 196.562 51.528 197.552 51.744C198.542 51.96 199.361 52.266 200.009 52.662L198.713 55.227C198.029 54.813 197.336 54.534 196.634 54.39C195.95 54.228 195.266 54.147 194.582 54.147C193.556 54.147 192.791 54.3 192.287 54.606C191.801 54.912 191.558 55.299 191.558 55.767C191.558 56.199 191.72 56.523 192.044 56.739C192.368 56.955 192.791 57.126 193.313 57.252C193.835 57.378 194.411 57.486 195.041 57.576C195.689 57.648 196.328 57.765 196.958 57.927C197.588 58.089 198.164 58.314 198.686 58.602C199.226 58.872 199.658 59.259 199.982 59.763C200.306 60.267 200.468 60.924 200.468 61.734C200.468 62.634 200.198 63.417 199.658 64.083C199.136 64.749 198.389 65.271 197.417 65.649C196.445 66.009 195.284 66.189 193.934 66.189ZM208.352 66.189C206.768 66.189 205.544 65.784 204.68 64.974C203.816 64.146 203.384 62.931 203.384 61.329V48.396H206.759V61.248C206.759 61.932 206.93 62.463 207.272 62.841C207.632 63.219 208.127 63.408 208.757 63.408C209.513 63.408 210.143 63.21 210.647 62.814L211.592 65.217C211.196 65.541 210.71 65.784 210.134 65.946C209.558 66.108 208.964 66.189 208.352 66.189ZM201.008 54.39V51.69H210.62V54.39H201.008ZM220.22 66.189C218.618 66.189 217.214 65.874 216.008 65.244C214.82 64.596 213.893 63.714 213.227 62.598C212.579 61.482 212.255 60.213 212.255 58.791C212.255 57.351 212.57 56.082 213.2 54.984C213.848 53.868 214.73 52.995 215.846 52.365C216.98 51.735 218.267 51.42 219.707 51.42C221.111 51.42 222.362 51.726 223.46 52.338C224.558 52.95 225.422 53.814 226.052 54.93C226.682 56.046 226.997 57.36 226.997 58.872C226.997 59.016 226.988 59.178 226.97 59.358C226.97 59.538 226.961 59.709 226.943 59.871H214.928V57.63H225.161L223.838 58.332C223.856 57.504 223.685 56.775 223.325 56.145C222.965 55.515 222.47 55.02 221.84 54.66C221.228 54.3 220.517 54.12 219.707 54.12C218.879 54.12 218.15 54.3 217.52 54.66C216.908 55.02 216.422 55.524 216.062 56.172C215.72 56.802 215.549 57.549 215.549 58.413V58.953C215.549 59.817 215.747 60.582 216.143 61.248C216.539 61.914 217.097 62.427 217.817 62.787C218.537 63.147 219.365 63.327 220.301 63.327C221.111 63.327 221.84 63.201 222.488 62.949C223.136 62.697 223.712 62.301 224.216 61.761L226.025 63.84C225.377 64.596 224.558 65.181 223.568 65.595C222.596 65.991 221.48 66.189 220.22 66.189ZM235.891 66.189C234.505 66.189 233.254 65.883 232.138 65.271C231.04 64.641 230.176 63.777 229.546 62.679C228.916 61.581 228.601 60.285 228.601 58.791C228.601 57.297 228.916 56.001 229.546 54.903C230.176 53.805 231.04 52.95 232.138 52.338C233.254 51.726 234.505 51.42 235.891 51.42C237.097 51.42 238.177 51.69 239.131 52.23C240.085 52.752 240.841 53.553 241.399 54.633C241.957 55.713 242.236 57.099 242.236 58.791C242.236 60.465 241.966 61.851 241.426 62.949C240.886 64.029 240.139 64.839 239.185 65.379C238.231 65.919 237.133 66.189 235.891 66.189ZM236.296 63.3C237.106 63.3 237.826 63.12 238.456 62.76C239.104 62.4 239.617 61.878 239.995 61.194C240.391 60.51 240.589 59.709 240.589 58.791C240.589 57.855 240.391 57.054 239.995 56.388C239.617 55.704 239.104 55.182 238.456 54.822C237.826 54.462 237.106 54.282 236.296 54.282C235.486 54.282 234.757 54.462 234.109 54.822C233.479 55.182 232.966 55.704 232.57 56.388C232.192 57.054 232.003 57.855 232.003 58.791C232.003 59.709 232.192 60.51 232.57 61.194C232.966 61.878 233.479 62.4 234.109 62.76C234.757 63.12 235.486 63.3 236.296 63.3ZM240.67 66V62.598L240.805 58.764L240.535 54.93V45.966H243.883V66H240.67ZM255.211 66V47.1H262.987C264.661 47.1 266.092 47.37 267.28 47.91C268.486 48.45 269.413 49.224 270.061 50.232C270.709 51.24 271.033 52.437 271.033 53.823C271.033 55.209 270.709 56.406 270.061 57.414C269.413 58.404 268.486 59.169 267.28 59.709C266.092 60.231 264.661 60.492 262.987 60.492H257.155L258.721 58.899V66H255.211ZM267.577 66L262.798 59.142H266.551L271.357 66H267.577ZM258.721 59.277L257.155 57.603H262.825C264.373 57.603 265.534 57.27 266.308 56.604C267.1 55.938 267.496 55.011 267.496 53.823C267.496 52.617 267.1 51.69 266.308 51.042C265.534 50.394 264.373 50.07 262.825 50.07H257.155L258.721 48.342V59.277ZM280.963 66.189C279.361 66.189 277.957 65.874 276.751 65.244C275.563 64.596 274.636 63.714 273.97 62.598C273.322 61.482 272.998 60.213 272.998 58.791C272.998 57.351 273.313 56.082 273.943 54.984C274.591 53.868 275.473 52.995 276.589 52.365C277.723 51.735 279.01 51.42 280.45 51.42C281.854 51.42 283.105 51.726 284.203 52.338C285.301 52.95 286.165 53.814 286.795 54.93C287.425 56.046 287.74 57.36 287.74 58.872C287.74 59.016 287.731 59.178 287.713 59.358C287.713 59.538 287.704 59.709 287.686 59.871H275.671V57.63H285.904L284.581 58.332C284.599 57.504 284.428 56.775 284.068 56.145C283.708 55.515 283.213 55.02 282.583 54.66C281.971 54.3 281.26 54.12 280.45 54.12C279.622 54.12 278.893 54.3 278.263 54.66C277.651 55.02 277.165 55.524 276.805 56.172C276.463 56.802 276.292 57.549 276.292 58.413V58.953C276.292 59.817 276.49 60.582 276.886 61.248C277.282 61.914 277.84 62.427 278.56 62.787C279.28 63.147 280.108 63.327 281.044 63.327C281.854 63.327 282.583 63.201 283.231 62.949C283.879 62.697 284.455 62.301 284.959 61.761L286.768 63.84C286.12 64.596 285.301 65.181 284.311 65.595C283.339 65.991 282.223 66.189 280.963 66.189ZM294.103 66L287.92 51.582H291.43L296.749 64.299H295.021L300.529 51.582H303.769L297.586 66H294.103ZM305.428 66V51.582H308.803V66H305.428ZM307.129 49.206C306.499 49.206 305.977 49.008 305.563 48.612C305.167 48.216 304.969 47.739 304.969 47.181C304.969 46.605 305.167 46.128 305.563 45.75C305.977 45.354 306.499 45.156 307.129 45.156C307.759 45.156 308.272 45.345 308.668 45.723C309.082 46.083 309.289 46.542 309.289 47.1C309.289 47.694 309.091 48.198 308.695 48.612C308.299 49.008 307.777 49.206 307.129 49.206ZM319.56 66.189C317.958 66.189 316.554 65.874 315.348 65.244C314.16 64.596 313.233 63.714 312.567 62.598C311.919 61.482 311.595 60.213 311.595 58.791C311.595 57.351 311.91 56.082 312.54 54.984C313.188 53.868 314.07 52.995 315.186 52.365C316.32 51.735 317.607 51.42 319.047 51.42C320.451 51.42 321.702 51.726 322.8 52.338C323.898 52.95 324.762 53.814 325.392 54.93C326.022 56.046 326.337 57.36 326.337 58.872C326.337 59.016 326.328 59.178 326.31 59.358C326.31 59.538 326.301 59.709 326.283 59.871H314.268V57.63H324.501L323.178 58.332C323.196 57.504 323.025 56.775 322.665 56.145C322.305 55.515 321.81 55.02 321.18 54.66C320.568 54.3 319.857 54.12 319.047 54.12C318.219 54.12 317.49 54.3 316.86 54.66C316.248 55.02 315.762 55.524 315.402 56.172C315.06 56.802 314.889 57.549 314.889 58.413V58.953C314.889 59.817 315.087 60.582 315.483 61.248C315.879 61.914 316.437 62.427 317.157 62.787C317.877 63.147 318.705 63.327 319.641 63.327C320.451 63.327 321.18 63.201 321.828 62.949C322.476 62.697 323.052 62.301 323.556 61.761L325.365 63.84C324.717 64.596 323.898 65.181 322.908 65.595C321.936 65.991 320.82 66.189 319.56 66.189ZM332.051 66L326.759 51.582H329.945L334.481 64.299H332.969L337.721 51.582H340.556L345.173 64.299H343.688L348.359 51.582H351.356L346.037 66H342.797L338.585 54.741H339.584L335.291 66H332.051ZM357.497 66.189C356.291 66.189 355.13 66.036 354.014 65.73C352.916 65.406 352.043 65.019 351.395 64.569L352.691 62.004C353.339 62.418 354.113 62.76 355.013 63.03C355.913 63.3 356.813 63.435 357.713 63.435C358.775 63.435 359.54 63.291 360.008 63.003C360.494 62.715 360.737 62.328 360.737 61.842C360.737 61.446 360.575 61.149 360.251 60.951C359.927 60.735 359.504 60.573 358.982 60.465C358.46 60.357 357.875 60.258 357.227 60.168C356.597 60.078 355.958 59.961 355.31 59.817C354.68 59.655 354.104 59.43 353.582 59.142C353.06 58.836 352.637 58.431 352.313 57.927C351.989 57.423 351.827 56.757 351.827 55.929C351.827 55.011 352.088 54.219 352.61 53.553C353.132 52.869 353.861 52.347 354.797 51.987C355.751 51.609 356.876 51.42 358.172 51.42C359.144 51.42 360.125 51.528 361.115 51.744C362.105 51.96 362.924 52.266 363.572 52.662L362.276 55.227C361.592 54.813 360.899 54.534 360.197 54.39C359.513 54.228 358.829 54.147 358.145 54.147C357.119 54.147 356.354 54.3 355.85 54.606C355.364 54.912 355.121 55.299 355.121 55.767C355.121 56.199 355.283 56.523 355.607 56.739C355.931 56.955 356.354 57.126 356.876 57.252C357.398 57.378 357.974 57.486 358.604 57.576C359.252 57.648 359.891 57.765 360.521 57.927C361.151 58.089 361.727 58.314 362.249 58.602C362.789 58.872 363.221 59.259 363.545 59.763C363.869 60.267 364.031 60.924 364.031 61.734C364.031 62.634 363.761 63.417 363.221 64.083C362.699 64.749 361.952 65.271 360.98 65.649C360.008 66.009 358.847 66.189 357.497 66.189ZM371.15 66L379.655 47.1H383.111L391.643 66H387.971L380.654 48.963H382.058L374.768 66H371.15ZM375.065 61.626L376.01 58.872H386.216L387.161 61.626H375.065ZM401.454 51.42C402.606 51.42 403.632 51.645 404.532 52.095C405.45 52.545 406.17 53.238 406.692 54.174C407.214 55.092 407.475 56.28 407.475 57.738V66H404.1V58.17C404.1 56.892 403.794 55.938 403.182 55.308C402.588 54.678 401.751 54.363 400.671 54.363C399.879 54.363 399.177 54.525 398.565 54.849C397.953 55.173 397.476 55.659 397.134 56.307C396.81 56.937 396.648 57.738 396.648 58.71V66H393.273V51.582H396.486V55.47L395.919 54.282C396.423 53.364 397.152 52.662 398.106 52.176C399.078 51.672 400.194 51.42 401.454 51.42ZM417.435 66.189C416.049 66.189 414.798 65.883 413.682 65.271C412.584 64.641 411.72 63.777 411.09 62.679C410.46 61.581 410.145 60.285 410.145 58.791C410.145 57.297 410.46 56.001 411.09 54.903C411.72 53.805 412.584 52.95 413.682 52.338C414.798 51.726 416.049 51.42 417.435 51.42C418.641 51.42 419.721 51.69 420.675 52.23C421.629 52.752 422.385 53.553 422.943 54.633C423.501 55.713 423.78 57.099 423.78 58.791C423.78 60.465 423.51 61.851 422.97 62.949C422.43 64.029 421.683 64.839 420.729 65.379C419.775 65.919 418.677 66.189 417.435 66.189ZM417.84 63.3C418.65 63.3 419.37 63.12 420 62.76C420.648 62.4 421.161 61.878 421.539 61.194C421.935 60.51 422.133 59.709 422.133 58.791C422.133 57.855 421.935 57.054 421.539 56.388C421.161 55.704 420.648 55.182 420 54.822C419.37 54.462 418.65 54.282 417.84 54.282C417.03 54.282 416.301 54.462 415.653 54.822C415.023 55.182 414.51 55.704 414.114 56.388C413.736 57.054 413.547 57.855 413.547 58.791C413.547 59.709 413.736 60.51 414.114 61.194C414.51 61.878 415.023 62.4 415.653 62.76C416.301 63.12 417.03 63.3 417.84 63.3ZM422.214 66V62.598L422.349 58.764L422.079 54.93V45.966H425.427V66H422.214ZM436.755 66V47.1H444.531C446.205 47.1 447.636 47.37 448.824 47.91C450.03 48.45 450.957 49.224 451.605 50.232C452.253 51.24 452.577 52.437 452.577 53.823C452.577 55.209 452.253 56.406 451.605 57.414C450.957 58.404 450.03 59.169 448.824 59.709C447.636 60.231 446.205 60.492 444.531 60.492H438.699L440.265 58.899V66H436.755ZM449.121 66L444.342 59.142H448.095L452.901 66H449.121ZM440.265 59.277L438.699 57.603H444.369C445.917 57.603 447.078 57.27 447.852 56.604C448.644 55.938 449.04 55.011 449.04 53.823C449.04 52.617 448.644 51.69 447.852 51.042C447.078 50.394 445.917 50.07 444.369 50.07H438.699L440.265 48.342V59.277ZM464.481 66V63.084L464.292 62.463V57.36C464.292 56.37 463.995 55.605 463.401 55.065C462.807 54.507 461.907 54.228 460.701 54.228C459.891 54.228 459.09 54.354 458.298 54.606C457.524 54.858 456.867 55.209 456.327 55.659L455.004 53.202C455.778 52.608 456.696 52.167 457.758 51.879C458.838 51.573 459.954 51.42 461.106 51.42C463.194 51.42 464.805 51.924 465.939 52.932C467.091 53.922 467.667 55.461 467.667 57.549V66H464.481ZM459.945 66.189C458.865 66.189 457.92 66.009 457.11 65.649C456.3 65.271 455.67 64.758 455.22 64.11C454.788 63.444 454.572 62.697 454.572 61.869C454.572 61.059 454.761 60.33 455.139 59.682C455.535 59.034 456.174 58.521 457.056 58.143C457.938 57.765 459.108 57.576 460.566 57.576H464.751V59.817H460.809C459.657 59.817 458.883 60.006 458.487 60.384C458.091 60.744 457.893 61.194 457.893 61.734C457.893 62.346 458.136 62.832 458.622 63.192C459.108 63.552 459.783 63.732 460.647 63.732C461.475 63.732 462.213 63.543 462.861 63.165C463.527 62.787 464.004 62.229 464.292 61.491L464.859 63.516C464.535 64.362 463.95 65.019 463.104 65.487C462.276 65.955 461.223 66.189 459.945 66.189ZM476.975 66.189C475.391 66.189 474.167 65.784 473.303 64.974C472.439 64.146 472.007 62.931 472.007 61.329V48.396H475.382V61.248C475.382 61.932 475.553 62.463 475.895 62.841C476.255 63.219 476.75 63.408 477.38 63.408C478.136 63.408 478.766 63.21 479.27 62.814L480.215 65.217C479.819 65.541 479.333 65.784 478.757 65.946C478.181 66.108 477.587 66.189 476.975 66.189ZM469.631 54.39V51.69H479.243V54.39H469.631ZM482.542 66V51.582H485.917V66H482.542ZM484.243 49.206C483.613 49.206 483.091 49.008 482.677 48.612C482.281 48.216 482.083 47.739 482.083 47.181C482.083 46.605 482.281 46.128 482.677 45.75C483.091 45.354 483.613 45.156 484.243 45.156C484.873 45.156 485.386 45.345 485.782 45.723C486.196 46.083 486.403 46.542 486.403 47.1C486.403 47.694 486.205 48.198 485.809 48.612C485.413 49.008 484.891 49.206 484.243 49.206ZM498.077 51.42C499.229 51.42 500.255 51.645 501.155 52.095C502.073 52.545 502.793 53.238 503.315 54.174C503.837 55.092 504.098 56.28 504.098 57.738V66H500.723V58.17C500.723 56.892 500.417 55.938 499.805 55.308C499.211 54.678 498.374 54.363 497.294 54.363C496.502 54.363 495.8 54.525 495.188 54.849C494.576 55.173 494.099 55.659 493.757 56.307C493.433 56.937 493.271 57.738 493.271 58.71V66H489.896V51.582H493.109V55.47L492.542 54.282C493.046 53.364 493.775 52.662 494.729 52.176C495.701 51.672 496.817 51.42 498.077 51.42ZM514.49 71.427C513.158 71.427 511.853 71.247 510.575 70.887C509.315 70.545 508.28 70.041 507.47 69.375L508.982 66.837C509.612 67.359 510.404 67.773 511.358 68.079C512.33 68.403 513.311 68.565 514.301 68.565C515.885 68.565 517.046 68.196 517.784 67.458C518.522 66.738 518.891 65.649 518.891 64.191V61.626L519.161 58.359L519.053 55.092V51.582H522.266V63.813C522.266 66.423 521.6 68.34 520.268 69.564C518.936 70.806 517.01 71.427 514.49 71.427ZM514.058 65.352C512.69 65.352 511.448 65.064 510.332 64.488C509.234 63.894 508.361 63.075 507.713 62.031C507.083 60.987 506.768 59.763 506.768 58.359C506.768 56.973 507.083 55.758 507.713 54.714C508.361 53.67 509.234 52.86 510.332 52.284C511.448 51.708 512.69 51.42 514.058 51.42C515.282 51.42 516.38 51.663 517.352 52.149C518.324 52.635 519.098 53.391 519.674 54.417C520.268 55.443 520.565 56.757 520.565 58.359C520.565 59.961 520.268 61.284 519.674 62.328C519.098 63.354 518.324 64.119 517.352 64.623C516.38 65.109 515.282 65.352 514.058 65.352ZM514.571 62.49C515.417 62.49 516.173 62.319 516.839 61.977C517.505 61.617 518.018 61.131 518.378 60.519C518.756 59.889 518.945 59.169 518.945 58.359C518.945 57.549 518.756 56.838 518.378 56.226C518.018 55.596 517.505 55.119 516.839 54.795C516.173 54.453 515.417 54.282 514.571 54.282C513.725 54.282 512.96 54.453 512.276 54.795C511.61 55.119 511.088 55.596 510.71 56.226C510.35 56.838 510.17 57.549 510.17 58.359C510.17 59.169 510.35 59.889 510.71 60.519C511.088 61.131 511.61 61.617 512.276 61.977C512.96 62.319 513.725 62.49 514.571 62.49ZM530.708 66.189C529.502 66.189 528.341 66.036 527.225 65.73C526.127 65.406 525.254 65.019 524.606 64.569L525.902 62.004C526.55 62.418 527.324 62.76 528.224 63.03C529.124 63.3 530.024 63.435 530.924 63.435C531.986 63.435 532.751 63.291 533.219 63.003C533.705 62.715 533.948 62.328 533.948 61.842C533.948 61.446 533.786 61.149 533.462 60.951C533.138 60.735 532.715 60.573 532.193 60.465C531.671 60.357 531.086 60.258 530.438 60.168C529.808 60.078 529.169 59.961 528.521 59.817C527.891 59.655 527.315 59.43 526.793 59.142C526.271 58.836 525.848 58.431 525.524 57.927C525.2 57.423 525.038 56.757 525.038 55.929C525.038 55.011 525.299 54.219 525.821 53.553C526.343 52.869 527.072 52.347 528.008 51.987C528.962 51.609 530.087 51.42 531.383 51.42C532.355 51.42 533.336 51.528 534.326 51.744C535.316 51.96 536.135 52.266 536.783 52.662L535.487 55.227C534.803 54.813 534.11 54.534 533.408 54.39C532.724 54.228 532.04 54.147 531.356 54.147C530.33 54.147 529.565 54.3 529.061 54.606C528.575 54.912 528.332 55.299 528.332 55.767C528.332 56.199 528.494 56.523 528.818 56.739C529.142 56.955 529.565 57.126 530.087 57.252C530.609 57.378 531.185 57.486 531.815 57.576C532.463 57.648 533.102 57.765 533.732 57.927C534.362 58.089 534.938 58.314 535.46 58.602C536 58.872 536.432 59.259 536.756 59.763C537.08 60.267 537.242 60.924 537.242 61.734C537.242 62.634 536.972 63.417 536.432 64.083C535.91 64.749 535.163 65.271 534.191 65.649C533.219 66.009 532.058 66.189 530.708 66.189Z" fill="white"/>
<path d="M152 99V86.28H147.08V85H158.4V86.28H153.48V99H152ZM160.191 99V88.5H161.551V91.36L161.411 90.86C161.704 90.06 162.198 89.4533 162.891 89.04C163.584 88.6133 164.444 88.4 165.471 88.4V89.78C165.418 89.78 165.364 89.78 165.311 89.78C165.258 89.7667 165.204 89.76 165.151 89.76C164.044 89.76 163.178 90.1 162.551 90.78C161.924 91.4467 161.611 92.4 161.611 93.64V99H160.191ZM173.861 99V96.68L173.801 96.3V92.42C173.801 91.5267 173.547 90.84 173.041 90.36C172.547 89.88 171.807 89.64 170.821 89.64C170.141 89.64 169.494 89.7533 168.881 89.98C168.267 90.2067 167.747 90.5067 167.321 90.88L166.681 89.82C167.214 89.3667 167.854 89.02 168.601 88.78C169.347 88.5267 170.134 88.4 170.961 88.4C172.321 88.4 173.367 88.74 174.101 89.42C174.847 90.0867 175.221 91.1067 175.221 92.48V99H173.861ZM170.241 99.1C169.454 99.1 168.767 98.9733 168.181 98.72C167.607 98.4533 167.167 98.0933 166.861 97.64C166.554 97.1733 166.401 96.64 166.401 96.04C166.401 95.4933 166.527 95 166.781 94.56C167.047 94.1067 167.474 93.7467 168.061 93.48C168.661 93.2 169.461 93.06 170.461 93.06H174.081V94.12H170.501C169.487 94.12 168.781 94.3 168.381 94.66C167.994 95.02 167.801 95.4667 167.801 96C167.801 96.6 168.034 97.08 168.501 97.44C168.967 97.8 169.621 97.98 170.461 97.98C171.261 97.98 171.947 97.8 172.521 97.44C173.107 97.0667 173.534 96.5333 173.801 95.84L174.121 96.82C173.854 97.5133 173.387 98.0667 172.721 98.48C172.067 98.8933 171.241 99.1 170.241 99.1ZM184.438 88.4C185.291 88.4 186.038 88.5667 186.678 88.9C187.331 89.22 187.838 89.7133 188.198 90.38C188.571 91.0467 188.758 91.8867 188.758 92.9V99H187.338V93.04C187.338 91.9333 187.058 91.1 186.498 90.54C185.951 89.9667 185.178 89.68 184.178 89.68C183.431 89.68 182.778 89.8333 182.218 90.14C181.671 90.4333 181.244 90.8667 180.938 91.44C180.644 92 180.498 92.68 180.498 93.48V99H179.078V88.5H180.438V91.38L180.218 90.84C180.551 90.08 181.084 89.4867 181.818 89.06C182.551 88.62 183.424 88.4 184.438 88.4ZM195.413 99.1C194.547 99.1 193.727 98.98 192.953 98.74C192.18 98.4867 191.573 98.1733 191.133 97.8L191.773 96.68C192.2 97 192.747 97.28 193.413 97.52C194.08 97.7467 194.78 97.86 195.513 97.86C196.513 97.86 197.233 97.7067 197.673 97.4C198.113 97.08 198.333 96.66 198.333 96.14C198.333 95.7533 198.207 95.4533 197.953 95.24C197.713 95.0133 197.393 94.8467 196.993 94.74C196.593 94.62 196.147 94.52 195.653 94.44C195.16 94.36 194.667 94.2667 194.173 94.16C193.693 94.0533 193.253 93.9 192.853 93.7C192.453 93.4867 192.127 93.2 191.873 92.84C191.633 92.48 191.513 92 191.513 91.4C191.513 90.8267 191.673 90.3133 191.993 89.86C192.313 89.4067 192.78 89.0533 193.393 88.8C194.02 88.5333 194.78 88.4 195.673 88.4C196.353 88.4 197.033 88.4933 197.713 88.68C198.393 88.8533 198.953 89.0867 199.393 89.38L198.773 90.52C198.307 90.2 197.807 89.9733 197.273 89.84C196.74 89.6933 196.207 89.62 195.673 89.62C194.727 89.62 194.027 89.7867 193.573 90.12C193.133 90.44 192.913 90.8533 192.913 91.36C192.913 91.76 193.033 92.0733 193.273 92.3C193.527 92.5267 193.853 92.7067 194.253 92.84C194.667 92.96 195.113 93.06 195.593 93.14C196.087 93.22 196.573 93.32 197.053 93.44C197.547 93.5467 197.993 93.7 198.393 93.9C198.807 94.0867 199.133 94.36 199.373 94.72C199.627 95.0667 199.753 95.5267 199.753 96.1C199.753 96.7133 199.58 97.2467 199.233 97.7C198.9 98.14 198.407 98.4867 197.753 98.74C197.113 98.98 196.333 99.1 195.413 99.1ZM207.779 99.1C206.872 99.1 206.052 98.8933 205.319 98.48C204.586 98.0533 203.999 97.4467 203.559 96.66C203.132 95.86 202.919 94.8867 202.919 93.74C202.919 92.5933 203.132 91.6267 203.559 90.84C203.986 90.04 204.566 89.4333 205.299 89.02C206.032 88.6067 206.859 88.4 207.779 88.4C208.779 88.4 209.672 88.6267 210.459 89.08C211.259 89.52 211.886 90.1467 212.339 90.96C212.792 91.76 213.019 92.6867 213.019 93.74C213.019 94.8067 212.792 95.74 212.339 96.54C211.886 97.34 211.259 97.9667 210.459 98.42C209.672 98.8733 208.779 99.1 207.779 99.1ZM202.359 102.88V88.5H203.719V91.66L203.579 93.76L203.779 95.88V102.88H202.359ZM207.679 97.84C208.426 97.84 209.092 97.6733 209.679 97.34C210.266 96.9933 210.732 96.5133 211.079 95.9C211.426 95.2733 211.599 94.5533 211.599 93.74C211.599 92.9267 211.426 92.2133 211.079 91.6C210.732 90.9867 210.266 90.5067 209.679 90.16C209.092 89.8133 208.426 89.64 207.679 89.64C206.932 89.64 206.259 89.8133 205.659 90.16C205.072 90.5067 204.606 90.9867 204.259 91.6C203.926 92.2133 203.759 92.9267 203.759 93.74C203.759 94.5533 203.926 95.2733 204.259 95.9C204.606 96.5133 205.072 96.9933 205.659 97.34C206.259 97.6733 206.932 97.84 207.679 97.84ZM222.435 99V96.68L222.375 96.3V92.42C222.375 91.5267 222.122 90.84 221.615 90.36C221.122 89.88 220.382 89.64 219.395 89.64C218.715 89.64 218.068 89.7533 217.455 89.98C216.842 90.2067 216.322 90.5067 215.895 90.88L215.255 89.82C215.788 89.3667 216.428 89.02 217.175 88.78C217.922 88.5267 218.708 88.4 219.535 88.4C220.895 88.4 221.942 88.74 222.675 89.42C223.422 90.0867 223.795 91.1067 223.795 92.48V99H222.435ZM218.815 99.1C218.028 99.1 217.342 98.9733 216.755 98.72C216.182 98.4533 215.742 98.0933 215.435 97.64C215.128 97.1733 214.975 96.64 214.975 96.04C214.975 95.4933 215.102 95 215.355 94.56C215.622 94.1067 216.048 93.7467 216.635 93.48C217.235 93.2 218.035 93.06 219.035 93.06H222.655V94.12H219.075C218.062 94.12 217.355 94.3 216.955 94.66C216.568 95.02 216.375 95.4667 216.375 96C216.375 96.6 216.608 97.08 217.075 97.44C217.542 97.8 218.195 97.98 219.035 97.98C219.835 97.98 220.522 97.8 221.095 97.44C221.682 97.0667 222.108 96.5333 222.375 95.84L222.695 96.82C222.428 97.5133 221.962 98.0667 221.295 98.48C220.642 98.8933 219.815 99.1 218.815 99.1ZM227.652 99V88.5H229.012V91.36L228.872 90.86C229.165 90.06 229.659 89.4533 230.352 89.04C231.045 88.6133 231.905 88.4 232.932 88.4V89.78C232.879 89.78 232.825 89.78 232.772 89.78C232.719 89.7667 232.665 89.76 232.612 89.76C231.505 89.76 230.639 90.1 230.012 90.78C229.385 91.4467 229.072 92.4 229.072 93.64V99H227.652ZM239.885 99.1C238.792 99.1 237.832 98.8733 237.005 98.42C236.179 97.9533 235.532 97.32 235.065 96.52C234.599 95.7067 234.365 94.78 234.365 93.74C234.365 92.7 234.585 91.78 235.025 90.98C235.479 90.18 236.092 89.5533 236.865 89.1C237.652 88.6333 238.532 88.4 239.505 88.4C240.492 88.4 241.365 88.6267 242.125 89.08C242.899 89.52 243.505 90.1467 243.945 90.96C244.385 91.76 244.605 92.6867 244.605 93.74C244.605 93.8067 244.599 93.88 244.585 93.96C244.585 94.0267 244.585 94.1 244.585 94.18H235.445V93.12H243.825L243.265 93.54C243.265 92.78 243.099 92.1067 242.765 91.52C242.445 90.92 242.005 90.4533 241.445 90.12C240.885 89.7867 240.239 89.62 239.505 89.62C238.785 89.62 238.139 89.7867 237.565 90.12C236.992 90.4533 236.545 90.92 236.225 91.52C235.905 92.12 235.745 92.8067 235.745 93.58V93.8C235.745 94.6 235.919 95.3067 236.265 95.92C236.625 96.52 237.119 96.9933 237.745 97.34C238.385 97.6733 239.112 97.84 239.925 97.84C240.565 97.84 241.159 97.7267 241.705 97.5C242.265 97.2733 242.745 96.9267 243.145 96.46L243.945 97.38C243.479 97.94 242.892 98.3667 242.185 98.66C241.492 98.9533 240.725 99.1 239.885 99.1ZM252.856 88.4C253.709 88.4 254.456 88.5667 255.096 88.9C255.749 89.22 256.256 89.7133 256.616 90.38C256.989 91.0467 257.176 91.8867 257.176 92.9V99H255.756V93.04C255.756 91.9333 255.476 91.1 254.916 90.54C254.369 89.9667 253.596 89.68 252.596 89.68C251.849 89.68 251.196 89.8333 250.636 90.14C250.089 90.4333 249.662 90.8667 249.356 91.44C249.062 92 248.916 92.68 248.916 93.48V99H247.496V88.5H248.856V91.38L248.636 90.84C248.969 90.08 249.502 89.4867 250.236 89.06C250.969 88.62 251.842 88.4 252.856 88.4ZM264.331 99.1C263.345 99.1 262.585 98.8333 262.051 98.3C261.518 97.7667 261.251 97.0133 261.251 96.04V86.18H262.671V95.96C262.671 96.5733 262.825 97.0467 263.131 97.38C263.451 97.7133 263.905 97.88 264.491 97.88C265.118 97.88 265.638 97.7 266.051 97.34L266.551 98.36C266.271 98.6133 265.931 98.8 265.531 98.92C265.145 99.04 264.745 99.1 264.331 99.1ZM259.371 89.68V88.5H265.871V89.68H259.371ZM274.371 99V88.5H275.731V91.36L275.591 90.86C275.884 90.06 276.377 89.4533 277.071 89.04C277.764 88.6133 278.624 88.4 279.651 88.4V89.78C279.597 89.78 279.544 89.78 279.491 89.78C279.437 89.7667 279.384 89.76 279.331 89.76C278.224 89.76 277.357 90.1 276.731 90.78C276.104 91.4467 275.791 92.4 275.791 93.64V99H274.371ZM286.604 99.1C285.511 99.1 284.551 98.8733 283.724 98.42C282.897 97.9533 282.251 97.32 281.784 96.52C281.317 95.7067 281.084 94.78 281.084 93.74C281.084 92.7 281.304 91.78 281.744 90.98C282.197 90.18 282.811 89.5533 283.584 89.1C284.371 88.6333 285.251 88.4 286.224 88.4C287.211 88.4 288.084 88.6267 288.844 89.08C289.617 89.52 290.224 90.1467 290.664 90.96C291.104 91.76 291.324 92.6867 291.324 93.74C291.324 93.8067 291.317 93.88 291.304 93.96C291.304 94.0267 291.304 94.1 291.304 94.18H282.164V93.12H290.544L289.984 93.54C289.984 92.78 289.817 92.1067 289.484 91.52C289.164 90.92 288.724 90.4533 288.164 90.12C287.604 89.7867 286.957 89.62 286.224 89.62C285.504 89.62 284.857 89.7867 284.284 90.12C283.711 90.4533 283.264 90.92 282.944 91.52C282.624 92.12 282.464 92.8067 282.464 93.58V93.8C282.464 94.6 282.637 95.3067 282.984 95.92C283.344 96.52 283.837 96.9933 284.464 97.34C285.104 97.6733 285.831 97.84 286.644 97.84C287.284 97.84 287.877 97.7267 288.424 97.5C288.984 97.2733 289.464 96.9267 289.864 96.46L290.664 97.38C290.197 97.94 289.611 98.3667 288.904 98.66C288.211 98.9533 287.444 99.1 286.604 99.1ZM296.719 99L292.059 88.5H293.539L297.819 98.24H297.119L301.459 88.5H302.859L298.179 99H296.719ZM304.859 99V88.5H306.279V99H304.859ZM305.579 86.18C305.286 86.18 305.039 86.08 304.839 85.88C304.639 85.68 304.539 85.44 304.539 85.16C304.539 84.88 304.639 84.6467 304.839 84.46C305.039 84.26 305.286 84.16 305.579 84.16C305.872 84.16 306.119 84.2533 306.319 84.44C306.519 84.6267 306.619 84.86 306.619 85.14C306.619 85.4333 306.519 85.68 306.319 85.88C306.132 86.08 305.886 86.18 305.579 86.18ZM314.69 99.1C313.597 99.1 312.637 98.8733 311.81 98.42C310.983 97.9533 310.337 97.32 309.87 96.52C309.403 95.7067 309.17 94.78 309.17 93.74C309.17 92.7 309.39 91.78 309.83 90.98C310.283 90.18 310.897 89.5533 311.67 89.1C312.457 88.6333 313.337 88.4 314.31 88.4C315.297 88.4 316.17 88.6267 316.93 89.08C317.703 89.52 318.31 90.1467 318.75 90.96C319.19 91.76 319.41 92.6867 319.41 93.74C319.41 93.8067 319.403 93.88 319.39 93.96C319.39 94.0267 319.39 94.1 319.39 94.18H310.25V93.12H318.63L318.07 93.54C318.07 92.78 317.903 92.1067 317.57 91.52C317.25 90.92 316.81 90.4533 316.25 90.12C315.69 89.7867 315.043 89.62 314.31 89.62C313.59 89.62 312.943 89.7867 312.37 90.12C311.797 90.4533 311.35 90.92 311.03 91.52C310.71 92.12 310.55 92.8067 310.55 93.58V93.8C310.55 94.6 310.723 95.3067 311.07 95.92C311.43 96.52 311.923 96.9933 312.55 97.34C313.19 97.6733 313.917 97.84 314.73 97.84C315.37 97.84 315.963 97.7267 316.51 97.5C317.07 97.2733 317.55 96.9267 317.95 96.46L318.75 97.38C318.283 97.94 317.697 98.3667 316.99 98.66C316.297 98.9533 315.53 99.1 314.69 99.1ZM324.245 99L320.285 88.5H321.645L325.245 98.24H324.625L328.325 88.5H329.545L333.205 98.24H332.585L336.245 88.5H337.545L333.565 99H332.225L328.705 89.84H329.125L325.585 99H324.245ZM342.386 99.1C341.519 99.1 340.699 98.98 339.926 98.74C339.153 98.4867 338.546 98.1733 338.106 97.8L338.746 96.68C339.173 97 339.719 97.28 340.386 97.52C341.053 97.7467 341.753 97.86 342.486 97.86C343.486 97.86 344.206 97.7067 344.646 97.4C345.086 97.08 345.306 96.66 345.306 96.14C345.306 95.7533 345.179 95.4533 344.926 95.24C344.686 95.0133 344.366 94.8467 343.966 94.74C343.566 94.62 343.119 94.52 342.626 94.44C342.133 94.36 341.639 94.2667 341.146 94.16C340.666 94.0533 340.226 93.9 339.826 93.7C339.426 93.4867 339.099 93.2 338.846 92.84C338.606 92.48 338.486 92 338.486 91.4C338.486 90.8267 338.646 90.3133 338.966 89.86C339.286 89.4067 339.753 89.0533 340.366 88.8C340.993 88.5333 341.753 88.4 342.646 88.4C343.326 88.4 344.006 88.4933 344.686 88.68C345.366 88.8533 345.926 89.0867 346.366 89.38L345.746 90.52C345.279 90.2 344.779 89.9733 344.246 89.84C343.713 89.6933 343.179 89.62 342.646 89.62C341.699 89.62 340.999 89.7867 340.546 90.12C340.106 90.44 339.886 90.8533 339.886 91.36C339.886 91.76 340.006 92.0733 340.246 92.3C340.499 92.5267 340.826 92.7067 341.226 92.84C341.639 92.96 342.086 93.06 342.566 93.14C343.059 93.22 343.546 93.32 344.026 93.44C344.519 93.5467 344.966 93.7 345.366 93.9C345.779 94.0867 346.106 94.36 346.346 94.72C346.599 95.0667 346.726 95.5267 346.726 96.1C346.726 96.7133 346.553 97.2467 346.206 97.7C345.873 98.14 345.379 98.4867 344.726 98.74C344.086 98.98 343.306 99.1 342.386 99.1ZM361.146 99V96.68L361.086 96.3V92.42C361.086 91.5267 360.833 90.84 360.326 90.36C359.833 89.88 359.093 89.64 358.106 89.64C357.426 89.64 356.779 89.7533 356.166 89.98C355.553 90.2067 355.033 90.5067 354.606 90.88L353.966 89.82C354.499 89.3667 355.139 89.02 355.886 88.78C356.633 88.5267 357.419 88.4 358.246 88.4C359.606 88.4 360.653 88.74 361.386 89.42C362.133 90.0867 362.506 91.1067 362.506 92.48V99H361.146ZM357.526 99.1C356.739 99.1 356.053 98.9733 355.466 98.72C354.893 98.4533 354.453 98.0933 354.146 97.64C353.839 97.1733 353.686 96.64 353.686 96.04C353.686 95.4933 353.813 95 354.066 94.56C354.333 94.1067 354.759 93.7467 355.346 93.48C355.946 93.2 356.746 93.06 357.746 93.06H361.366V94.12H357.786C356.773 94.12 356.066 94.3 355.666 94.66C355.279 95.02 355.086 95.4667 355.086 96C355.086 96.6 355.319 97.08 355.786 97.44C356.253 97.8 356.906 97.98 357.746 97.98C358.546 97.98 359.233 97.8 359.806 97.44C360.393 97.0667 360.819 96.5333 361.086 95.84L361.406 96.82C361.139 97.5133 360.673 98.0667 360.006 98.48C359.353 98.8933 358.526 99.1 357.526 99.1ZM371.723 88.4C372.576 88.4 373.323 88.5667 373.963 88.9C374.616 89.22 375.123 89.7133 375.483 90.38C375.856 91.0467 376.043 91.8867 376.043 92.9V99H374.623V93.04C374.623 91.9333 374.343 91.1 373.783 90.54C373.236 89.9667 372.463 89.68 371.463 89.68C370.716 89.68 370.063 89.8333 369.503 90.14C368.956 90.4333 368.529 90.8667 368.223 91.44C367.929 92 367.783 92.68 367.783 93.48V99H366.363V88.5H367.723V91.38L367.503 90.84C367.836 90.08 368.369 89.4867 369.103 89.06C369.836 88.62 370.709 88.4 371.723 88.4ZM384.058 99.1C383.058 99.1 382.158 98.8733 381.358 98.42C380.572 97.9667 379.952 97.34 379.498 96.54C379.045 95.7267 378.818 94.7933 378.818 93.74C378.818 92.6733 379.045 91.74 379.498 90.94C379.952 90.14 380.572 89.52 381.358 89.08C382.158 88.6267 383.058 88.4 384.058 88.4C384.978 88.4 385.798 88.6067 386.518 89.02C387.252 89.4333 387.832 90.04 388.258 90.84C388.698 91.6267 388.918 92.5933 388.918 93.74C388.918 94.8733 388.705 95.84 388.278 96.64C387.852 97.44 387.272 98.0533 386.538 98.48C385.818 98.8933 384.992 99.1 384.058 99.1ZM384.158 97.84C384.905 97.84 385.572 97.6733 386.158 97.34C386.758 96.9933 387.225 96.5133 387.558 95.9C387.905 95.2733 388.078 94.5533 388.078 93.74C388.078 92.9133 387.905 92.1933 387.558 91.58C387.225 90.9667 386.758 90.4933 386.158 90.16C385.572 89.8133 384.905 89.64 384.158 89.64C383.425 89.64 382.765 89.8133 382.178 90.16C381.592 90.4933 381.125 90.9667 380.778 91.58C380.432 92.1933 380.258 92.9133 380.258 93.74C380.258 94.5533 380.432 95.2733 380.778 95.9C381.125 96.5133 381.592 96.9933 382.178 97.34C382.765 97.6733 383.425 97.84 384.158 97.84ZM388.118 99V95.84L388.258 93.72L388.058 91.6V84.16H389.478V99H388.118ZM398.668 99V88.5H400.028V91.36L399.888 90.86C400.181 90.06 400.674 89.4533 401.368 89.04C402.061 88.6133 402.921 88.4 403.948 88.4V89.78C403.894 89.78 403.841 89.78 403.788 89.78C403.734 89.7667 403.681 89.76 403.628 89.76C402.521 89.76 401.654 90.1 401.028 90.78C400.401 91.4467 400.088 92.4 400.088 93.64V99H398.668ZM412.337 99V96.68L412.277 96.3V92.42C412.277 91.5267 412.024 90.84 411.517 90.36C411.024 89.88 410.284 89.64 409.297 89.64C408.617 89.64 407.971 89.7533 407.357 89.98C406.744 90.2067 406.224 90.5067 405.797 90.88L405.157 89.82C405.691 89.3667 406.331 89.02 407.077 88.78C407.824 88.5267 408.611 88.4 409.437 88.4C410.797 88.4 411.844 88.74 412.577 89.42C413.324 90.0867 413.697 91.1067 413.697 92.48V99H412.337ZM408.717 99.1C407.931 99.1 407.244 98.9733 406.657 98.72C406.084 98.4533 405.644 98.0933 405.337 97.64C405.031 97.1733 404.877 96.64 404.877 96.04C404.877 95.4933 405.004 95 405.257 94.56C405.524 94.1067 405.951 93.7467 406.537 93.48C407.137 93.2 407.937 93.06 408.937 93.06H412.557V94.12H408.977C407.964 94.12 407.257 94.3 406.857 94.66C406.471 95.02 406.277 95.4667 406.277 96C406.277 96.6 406.511 97.08 406.977 97.44C407.444 97.8 408.097 97.98 408.937 97.98C409.737 97.98 410.424 97.8 410.997 97.44C411.584 97.0667 412.011 96.5333 412.277 95.84L412.597 96.82C412.331 97.5133 411.864 98.0667 411.197 98.48C410.544 98.8933 409.717 99.1 408.717 99.1ZM420.874 99.1C419.888 99.1 419.128 98.8333 418.594 98.3C418.061 97.7667 417.794 97.0133 417.794 96.04V86.18H419.214V95.96C419.214 96.5733 419.368 97.0467 419.674 97.38C419.994 97.7133 420.448 97.88 421.034 97.88C421.661 97.88 422.181 97.7 422.594 97.34L423.094 98.36C422.814 98.6133 422.474 98.8 422.074 98.92C421.688 99.04 421.288 99.1 420.874 99.1ZM415.914 89.68V88.5H422.414V89.68H415.914ZM425.679 99V88.5H427.099V99H425.679ZM426.399 86.18C426.106 86.18 425.859 86.08 425.659 85.88C425.459 85.68 425.359 85.44 425.359 85.16C425.359 84.88 425.459 84.6467 425.659 84.46C425.859 84.26 426.106 84.16 426.399 84.16C426.693 84.16 426.939 84.2533 427.139 84.44C427.339 84.6267 427.439 84.86 427.439 85.14C427.439 85.4333 427.339 85.68 427.139 85.88C426.953 86.08 426.706 86.18 426.399 86.18ZM436.41 88.4C437.264 88.4 438.01 88.5667 438.65 88.9C439.304 89.22 439.81 89.7133 440.17 90.38C440.544 91.0467 440.73 91.8867 440.73 92.9V99H439.31V93.04C439.31 91.9333 439.03 91.1 438.47 90.54C437.924 89.9667 437.15 89.68 436.15 89.68C435.404 89.68 434.75 89.8333 434.19 90.14C433.644 90.4333 433.217 90.8667 432.91 91.44C432.617 92 432.47 92.68 432.47 93.48V99H431.05V88.5H432.41V91.38L432.19 90.84C432.524 90.08 433.057 89.4867 433.79 89.06C434.524 88.62 435.397 88.4 436.41 88.4ZM449.046 102.98C448.086 102.98 447.166 102.84 446.286 102.56C445.406 102.28 444.693 101.88 444.146 101.36L444.866 100.28C445.359 100.72 445.966 101.067 446.686 101.32C447.419 101.587 448.193 101.72 449.006 101.72C450.339 101.72 451.319 101.407 451.946 100.78C452.573 100.167 452.886 99.2067 452.886 97.9V95.28L453.086 93.48L452.946 91.68V88.5H454.306V97.72C454.306 99.5333 453.859 100.86 452.966 101.7C452.086 102.553 450.779 102.98 449.046 102.98ZM448.786 98.6C447.786 98.6 446.886 98.3867 446.086 97.96C445.286 97.52 444.653 96.9133 444.186 96.14C443.733 95.3667 443.506 94.48 443.506 93.48C443.506 92.48 443.733 91.6 444.186 90.84C444.653 90.0667 445.286 89.4667 446.086 89.04C446.886 88.6133 447.786 88.4 448.786 88.4C449.719 88.4 450.559 88.5933 451.306 88.98C452.053 89.3667 452.646 89.94 453.086 90.7C453.526 91.46 453.746 92.3867 453.746 93.48C453.746 94.5733 453.526 95.5 453.086 96.26C452.646 97.02 452.053 97.6 451.306 98C450.559 98.4 449.719 98.6 448.786 98.6ZM448.926 97.34C449.699 97.34 450.386 97.18 450.986 96.86C451.586 96.5267 452.059 96.0733 452.406 95.5C452.753 94.9133 452.926 94.24 452.926 93.48C452.926 92.72 452.753 92.0533 452.406 91.48C452.059 90.9067 451.586 90.46 450.986 90.14C450.386 89.8067 449.699 89.64 448.926 89.64C448.166 89.64 447.479 89.8067 446.866 90.14C446.266 90.46 445.793 90.9067 445.446 91.48C445.113 92.0533 444.946 92.72 444.946 93.48C444.946 94.24 445.113 94.9133 445.446 95.5C445.793 96.0733 446.266 96.5267 446.866 96.86C447.479 97.18 448.166 97.34 448.926 97.34ZM461.077 99.1C460.211 99.1 459.391 98.98 458.617 98.74C457.844 98.4867 457.237 98.1733 456.797 97.8L457.437 96.68C457.864 97 458.411 97.28 459.077 97.52C459.744 97.7467 460.444 97.86 461.177 97.86C462.177 97.86 462.897 97.7067 463.337 97.4C463.777 97.08 463.997 96.66 463.997 96.14C463.997 95.7533 463.871 95.4533 463.617 95.24C463.377 95.0133 463.057 94.8467 462.657 94.74C462.257 94.62 461.811 94.52 461.317 94.44C460.824 94.36 460.331 94.2667 459.837 94.16C459.357 94.0533 458.917 93.9 458.517 93.7C458.117 93.4867 457.791 93.2 457.537 92.84C457.297 92.48 457.177 92 457.177 91.4C457.177 90.8267 457.337 90.3133 457.657 89.86C457.977 89.4067 458.444 89.0533 459.057 88.8C459.684 88.5333 460.444 88.4 461.337 88.4C462.017 88.4 462.697 88.4933 463.377 88.68C464.057 88.8533 464.617 89.0867 465.057 89.38L464.437 90.52C463.971 90.2 463.471 89.9733 462.937 89.84C462.404 89.6933 461.871 89.62 461.337 89.62C460.391 89.62 459.691 89.7867 459.237 90.12C458.797 90.44 458.577 90.8533 458.577 91.36C458.577 91.76 458.697 92.0733 458.937 92.3C459.191 92.5267 459.517 92.7067 459.917 92.84C460.331 92.96 460.777 93.06 461.257 93.14C461.751 93.22 462.237 93.32 462.717 93.44C463.211 93.5467 463.657 93.7 464.057 93.9C464.471 94.0867 464.797 94.36 465.037 94.72C465.291 95.0667 465.417 95.5267 465.417 96.1C465.417 96.7133 465.244 97.2467 464.897 97.7C464.564 98.14 464.071 98.4867 463.417 98.74C462.777 98.98 461.997 99.1 461.077 99.1ZM476.577 99.1C475.591 99.1 474.831 98.8333 474.297 98.3C473.764 97.7667 473.497 97.0133 473.497 96.04V86.18H474.917V95.96C474.917 96.5733 475.071 97.0467 475.377 97.38C475.697 97.7133 476.151 97.88 476.737 97.88C477.364 97.88 477.884 97.7 478.297 97.34L478.797 98.36C478.517 98.6133 478.177 98.8 477.777 98.92C477.391 99.04 476.991 99.1 476.577 99.1ZM471.617 89.68V88.5H478.117V89.68H471.617ZM485.291 99.1C484.278 99.1 483.365 98.8733 482.551 98.42C481.751 97.9533 481.118 97.32 480.651 96.52C480.185 95.7067 479.951 94.78 479.951 93.74C479.951 92.6867 480.185 91.76 480.651 90.96C481.118 90.16 481.751 89.5333 482.551 89.08C483.351 88.6267 484.265 88.4 485.291 88.4C486.331 88.4 487.251 88.6267 488.051 89.08C488.865 89.5333 489.498 90.16 489.951 90.96C490.418 91.76 490.651 92.6867 490.651 93.74C490.651 94.78 490.418 95.7067 489.951 96.52C489.498 97.32 488.865 97.9533 488.051 98.42C487.238 98.8733 486.318 99.1 485.291 99.1ZM485.291 97.84C486.051 97.84 486.725 97.6733 487.311 97.34C487.898 96.9933 488.358 96.5133 488.691 95.9C489.038 95.2733 489.211 94.5533 489.211 93.74C489.211 92.9133 489.038 92.1933 488.691 91.58C488.358 90.9667 487.898 90.4933 487.311 90.16C486.725 89.8133 486.058 89.64 485.311 89.64C484.565 89.64 483.898 89.8133 483.311 90.16C482.725 90.4933 482.258 90.9667 481.911 91.58C481.565 92.1933 481.391 92.9133 481.391 93.74C481.391 94.5533 481.565 95.2733 481.911 95.9C482.258 96.5133 482.725 96.9933 483.311 97.34C483.898 97.6733 484.558 97.84 485.291 97.84ZM504.145 88.4C504.998 88.4 505.745 88.5667 506.385 88.9C507.038 89.22 507.545 89.7133 507.905 90.38C508.278 91.0467 508.465 91.8867 508.465 92.9V99H507.045V93.04C507.045 91.9333 506.765 91.1 506.205 90.54C505.658 89.9667 504.885 89.68 503.885 89.68C503.138 89.68 502.485 89.8333 501.925 90.14C501.378 90.4333 500.951 90.8667 500.645 91.44C500.351 92 500.205 92.68 500.205 93.48V99H498.785V84.16H500.205V91.38L499.925 90.84C500.258 90.08 500.791 89.4867 501.525 89.06C502.258 88.62 503.131 88.4 504.145 88.4ZM516.76 99.1C515.667 99.1 514.707 98.8733 513.88 98.42C513.054 97.9533 512.407 97.32 511.94 96.52C511.474 95.7067 511.24 94.78 511.24 93.74C511.24 92.7 511.46 91.78 511.9 90.98C512.354 90.18 512.967 89.5533 513.74 89.1C514.527 88.6333 515.407 88.4 516.38 88.4C517.367 88.4 518.24 88.6267 519 89.08C519.774 89.52 520.38 90.1467 520.82 90.96C521.26 91.76 521.48 92.6867 521.48 93.74C521.48 93.8067 521.474 93.88 521.46 93.96C521.46 94.0267 521.46 94.1 521.46 94.18H512.32V93.12H520.7L520.14 93.54C520.14 92.78 519.974 92.1067 519.64 91.52C519.32 90.92 518.88 90.4533 518.32 90.12C517.76 89.7867 517.114 89.62 516.38 89.62C515.66 89.62 515.014 89.7867 514.44 90.12C513.867 90.4533 513.42 90.92 513.1 91.52C512.78 92.12 512.62 92.8067 512.62 93.58V93.8C512.62 94.6 512.794 95.3067 513.14 95.92C513.5 96.52 513.994 96.9933 514.62 97.34C515.26 97.6733 515.987 97.84 516.8 97.84C517.44 97.84 518.034 97.7267 518.58 97.5C519.14 97.2733 519.62 96.9267 520.02 96.46L520.82 97.38C520.354 97.94 519.767 98.3667 519.06 98.66C518.367 98.9533 517.6 99.1 516.76 99.1ZM524.371 99V84.16H525.791V99H524.371ZM535.162 99.1C534.255 99.1 533.435 98.8933 532.702 98.48C531.968 98.0533 531.382 97.4467 530.942 96.66C530.515 95.86 530.302 94.8867 530.302 93.74C530.302 92.5933 530.515 91.6267 530.942 90.84C531.368 90.04 531.948 89.4333 532.682 89.02C533.415 88.6067 534.242 88.4 535.162 88.4C536.162 88.4 537.055 88.6267 537.842 89.08C538.642 89.52 539.268 90.1467 539.722 90.96C540.175 91.76 540.402 92.6867 540.402 93.74C540.402 94.8067 540.175 95.74 539.722 96.54C539.268 97.34 538.642 97.9667 537.842 98.42C537.055 98.8733 536.162 99.1 535.162 99.1ZM529.742 102.88V88.5H531.102V91.66L530.962 93.76L531.162 95.88V102.88H529.742ZM535.062 97.84C535.808 97.84 536.475 97.6733 537.062 97.34C537.648 96.9933 538.115 96.5133 538.462 95.9C538.808 95.2733 538.982 94.5533 538.982 93.74C538.982 92.9267 538.808 92.2133 538.462 91.6C538.115 90.9867 537.648 90.5067 537.062 90.16C536.475 89.8133 535.808 89.64 535.062 89.64C534.315 89.64 533.642 89.8133 533.042 90.16C532.455 90.5067 531.988 90.9867 531.642 91.6C531.308 92.2133 531.142 92.9267 531.142 93.74C531.142 94.5533 531.308 95.2733 531.642 95.9C531.988 96.5133 532.455 96.9933 533.042 97.34C533.642 97.6733 534.315 97.84 535.062 97.84ZM548.611 102.98C548.117 102.98 547.644 102.9 547.191 102.74C546.751 102.58 546.371 102.34 546.051 102.02L546.711 100.96C546.977 101.213 547.264 101.407 547.571 101.54C547.891 101.687 548.244 101.76 548.631 101.76C549.097 101.76 549.497 101.627 549.831 101.36C550.177 101.107 550.504 100.653 550.811 100L551.491 98.46L551.651 98.24L555.971 88.5H557.371L552.111 100.26C551.817 100.94 551.491 101.48 551.131 101.88C550.784 102.28 550.404 102.56 549.991 102.72C549.577 102.893 549.117 102.98 548.611 102.98ZM551.411 99.3L546.571 88.5H548.051L552.331 98.14L551.411 99.3ZM563.358 99.1C562.344 99.1 561.431 98.8733 560.618 98.42C559.818 97.9533 559.184 97.32 558.718 96.52C558.251 95.7067 558.018 94.78 558.018 93.74C558.018 92.6867 558.251 91.76 558.718 90.96C559.184 90.16 559.818 89.5333 560.618 89.08C561.418 88.6267 562.331 88.4 563.358 88.4C564.398 88.4 565.318 88.6267 566.118 89.08C566.931 89.5333 567.564 90.16 568.018 90.96C568.484 91.76 568.718 92.6867 568.718 93.74C568.718 94.78 568.484 95.7067 568.018 96.52C567.564 97.32 566.931 97.9533 566.118 98.42C565.304 98.8733 564.384 99.1 563.358 99.1ZM563.358 97.84C564.118 97.84 564.791 97.6733 565.378 97.34C565.964 96.9933 566.424 96.5133 566.758 95.9C567.104 95.2733 567.278 94.5533 567.278 93.74C567.278 92.9133 567.104 92.1933 566.758 91.58C566.424 90.9667 565.964 90.4933 565.378 90.16C564.791 89.8133 564.124 89.64 563.378 89.64C562.631 89.64 561.964 89.8133 561.378 90.16C560.791 90.4933 560.324 90.9667 559.978 91.58C559.631 92.1933 559.458 92.9133 559.458 93.74C559.458 94.5533 559.631 95.2733 559.978 95.9C560.324 96.5133 560.791 96.9933 561.378 97.34C561.964 97.6733 562.624 97.84 563.358 97.84ZM575.957 99.1C575.063 99.1 574.283 98.9333 573.617 98.6C572.95 98.2667 572.43 97.7667 572.057 97.1C571.697 96.4333 571.517 95.6 571.517 94.6V88.5H572.937V94.44C572.937 95.56 573.21 96.4067 573.757 96.98C574.317 97.54 575.097 97.82 576.097 97.82C576.83 97.82 577.463 97.6733 577.997 97.38C578.543 97.0733 578.957 96.6333 579.237 96.06C579.53 95.4867 579.677 94.8 579.677 94V88.5H581.097V99H579.737V96.12L579.957 96.64C579.623 97.4133 579.103 98.02 578.397 98.46C577.703 98.8867 576.89 99.1 575.957 99.1ZM153.16 123.1C152.16 123.1 151.26 122.873 150.46 122.42C149.673 121.967 149.053 121.34 148.6 120.54C148.147 119.727 147.92 118.793 147.92 117.74C147.92 116.673 148.147 115.74 148.6 114.94C149.053 114.14 149.673 113.52 150.46 113.08C151.26 112.627 152.16 112.4 153.16 112.4C154.08 112.4 154.9 112.607 155.62 113.02C156.353 113.433 156.933 114.04 157.36 114.84C157.8 115.627 158.02 116.593 158.02 117.74C158.02 118.873 157.807 119.84 157.38 120.64C156.953 121.44 156.373 122.053 155.64 122.48C154.92 122.893 154.093 123.1 153.16 123.1ZM153.26 121.84C154.007 121.84 154.673 121.673 155.26 121.34C155.86 120.993 156.327 120.513 156.66 119.9C157.007 119.273 157.18 118.553 157.18 117.74C157.18 116.913 157.007 116.193 156.66 115.58C156.327 114.967 155.86 114.493 155.26 114.16C154.673 113.813 154.007 113.64 153.26 113.64C152.527 113.64 151.867 113.813 151.28 114.16C150.693 114.493 150.227 114.967 149.88 115.58C149.533 116.193 149.36 116.913 149.36 117.74C149.36 118.553 149.533 119.273 149.88 119.9C150.227 120.513 150.693 120.993 151.28 121.34C151.867 121.673 152.527 121.84 153.26 121.84ZM157.22 123V119.84L157.36 117.72L157.16 115.6V108.16H158.58V123H157.22ZM166.995 123.1C165.901 123.1 164.941 122.873 164.115 122.42C163.288 121.953 162.641 121.32 162.175 120.52C161.708 119.707 161.475 118.78 161.475 117.74C161.475 116.7 161.695 115.78 162.135 114.98C162.588 114.18 163.201 113.553 163.975 113.1C164.761 112.633 165.641 112.4 166.615 112.4C167.601 112.4 168.475 112.627 169.235 113.08C170.008 113.52 170.615 114.147 171.055 114.96C171.495 115.76 171.715 116.687 171.715 117.74C171.715 117.807 171.708 117.88 171.695 117.96C171.695 118.027 171.695 118.1 171.695 118.18H162.555V117.12H170.935L170.375 117.54C170.375 116.78 170.208 116.107 169.875 115.52C169.555 114.92 169.115 114.453 168.555 114.12C167.995 113.787 167.348 113.62 166.615 113.62C165.895 113.62 165.248 113.787 164.675 114.12C164.101 114.453 163.655 114.92 163.335 115.52C163.015 116.12 162.855 116.807 162.855 117.58V117.8C162.855 118.6 163.028 119.307 163.375 119.92C163.735 120.52 164.228 120.993 164.855 121.34C165.495 121.673 166.221 121.84 167.035 121.84C167.675 121.84 168.268 121.727 168.815 121.5C169.375 121.273 169.855 120.927 170.255 120.46L171.055 121.38C170.588 121.94 170.001 122.367 169.295 122.66C168.601 122.953 167.835 123.1 166.995 123.1ZM178.965 123.1C177.925 123.1 176.992 122.873 176.165 122.42C175.352 121.953 174.712 121.32 174.245 120.52C173.778 119.707 173.545 118.78 173.545 117.74C173.545 116.687 173.778 115.76 174.245 114.96C174.712 114.16 175.352 113.533 176.165 113.08C176.992 112.627 177.925 112.4 178.965 112.4C179.858 112.4 180.665 112.573 181.385 112.92C182.105 113.267 182.672 113.787 183.085 114.48L182.025 115.2C181.665 114.667 181.218 114.273 180.685 114.02C180.152 113.767 179.572 113.64 178.945 113.64C178.198 113.64 177.525 113.813 176.925 114.16C176.325 114.493 175.852 114.967 175.505 115.58C175.158 116.193 174.985 116.913 174.985 117.74C174.985 118.567 175.158 119.287 175.505 119.9C175.852 120.513 176.325 120.993 176.925 121.34C177.525 121.673 178.198 121.84 178.945 121.84C179.572 121.84 180.152 121.713 180.685 121.46C181.218 121.207 181.665 120.82 182.025 120.3L183.085 121.02C182.672 121.7 182.105 122.22 181.385 122.58C180.665 122.927 179.858 123.1 178.965 123.1ZM185.718 123V112.5H187.138V123H185.718ZM186.438 110.18C186.145 110.18 185.898 110.08 185.698 109.88C185.498 109.68 185.398 109.44 185.398 109.16C185.398 108.88 185.498 108.647 185.698 108.46C185.898 108.26 186.145 108.16 186.438 108.16C186.732 108.16 186.978 108.253 187.178 108.44C187.378 108.627 187.478 108.86 187.478 109.14C187.478 109.433 187.378 109.68 187.178 109.88C186.992 110.08 186.745 110.18 186.438 110.18ZM195.269 123.1C194.269 123.1 193.369 122.873 192.569 122.42C191.783 121.967 191.163 121.34 190.709 120.54C190.256 119.727 190.029 118.793 190.029 117.74C190.029 116.673 190.256 115.74 190.709 114.94C191.163 114.14 191.783 113.52 192.569 113.08C193.369 112.627 194.269 112.4 195.269 112.4C196.189 112.4 197.009 112.607 197.729 113.02C198.463 113.433 199.043 114.04 199.469 114.84C199.909 115.627 200.129 116.593 200.129 117.74C200.129 118.873 199.916 119.84 199.489 120.64C199.063 121.44 198.483 122.053 197.749 122.48C197.029 122.893 196.203 123.1 195.269 123.1ZM195.369 121.84C196.116 121.84 196.783 121.673 197.369 121.34C197.969 120.993 198.436 120.513 198.769 119.9C199.116 119.273 199.289 118.553 199.289 117.74C199.289 116.913 199.116 116.193 198.769 115.58C198.436 114.967 197.969 114.493 197.369 114.16C196.783 113.813 196.116 113.64 195.369 113.64C194.636 113.64 193.976 113.813 193.389 114.16C192.803 114.493 192.336 114.967 191.989 115.58C191.643 116.193 191.469 116.913 191.469 117.74C191.469 118.553 191.643 119.273 191.989 119.9C192.336 120.513 192.803 120.993 193.389 121.34C193.976 121.673 194.636 121.84 195.369 121.84ZM199.329 123V119.84L199.469 117.72L199.269 115.6V108.16H200.689V123H199.329ZM209.104 123.1C208.011 123.1 207.051 122.873 206.224 122.42C205.397 121.953 204.751 121.32 204.284 120.52C203.817 119.707 203.584 118.78 203.584 117.74C203.584 116.7 203.804 115.78 204.244 114.98C204.697 114.18 205.311 113.553 206.084 113.1C206.871 112.633 207.751 112.4 208.724 112.4C209.711 112.4 210.584 112.627 211.344 113.08C212.117 113.52 212.724 114.147 213.164 114.96C213.604 115.76 213.824 116.687 213.824 117.74C213.824 117.807 213.817 117.88 213.804 117.96C213.804 118.027 213.804 118.1 213.804 118.18H204.664V117.12H213.044L212.484 117.54C212.484 116.78 212.317 116.107 211.984 115.52C211.664 114.92 211.224 114.453 210.664 114.12C210.104 113.787 209.457 113.62 208.724 113.62C208.004 113.62 207.357 113.787 206.784 114.12C206.211 114.453 205.764 114.92 205.444 115.52C205.124 116.12 204.964 116.807 204.964 117.58V117.8C204.964 118.6 205.137 119.307 205.484 119.92C205.844 120.52 206.337 120.993 206.964 121.34C207.604 121.673 208.331 121.84 209.144 121.84C209.784 121.84 210.377 121.727 210.924 121.5C211.484 121.273 211.964 120.927 212.364 120.46L213.164 121.38C212.697 121.94 212.111 122.367 211.404 122.66C210.711 122.953 209.944 123.1 209.104 123.1Z" fill="white"/>
<circle cx="73.1816" cy="87.5" r="62" stroke="white" stroke-width="3"/>
</g>
<path d="M71.3667 43.279C70.1448 43.7665 69.7198 44.4774 67.1698 50.327C65.2042 54.8564 64.6375 55.9938 64.3188 56.0751C64.0886 56.1157 61.6448 56.5422 58.8646 56.9891C54.4198 57.7203 53.7292 57.8828 53.0386 58.3702C51.6219 59.3655 51.0552 61.4169 51.6927 63.2449C51.8698 63.7527 53.2334 65.4182 55.9604 68.4649L59.9625 72.9333L59.0594 78.9251C58.5636 82.2359 58.1563 85.2419 58.1563 85.6278C58.174 88.0042 60.4584 89.9744 62.3886 89.3042C62.7781 89.1823 65.1511 87.8418 67.6479 86.3387C70.1271 84.8357 72.3229 83.5967 72.5 83.5967C72.6948 83.5967 74.8906 84.8357 77.4052 86.359C79.9198 87.8621 82.3104 89.2026 82.7177 89.3448C84.6479 89.9338 86.8261 87.9433 86.8438 85.5872C86.8438 85.181 86.4365 82.1749 85.9406 78.8845L85.0375 72.9333L89.0396 68.4649C91.7667 65.4182 93.1302 63.7527 93.3073 63.2449C93.9448 61.4169 93.3781 59.3655 91.9615 58.3702C91.2709 57.8828 90.5979 57.7203 86.1354 56.9891C83.3552 56.5422 80.9115 56.1157 80.6813 56.0548C80.3625 55.9938 79.8136 54.8564 77.8302 50.327C75.2094 44.3149 74.7844 43.6243 73.4386 43.1978C72.5709 42.9134 72.2167 42.9337 71.3667 43.279ZM72.7834 46.3866C72.9073 46.4679 74.0761 49.0474 75.4219 52.1144C76.75 55.1814 77.9896 57.8624 78.149 58.0859C78.8042 58.9186 79.6896 59.1827 84.8073 60.0357C87.6406 60.4826 90.1198 60.9497 90.35 61.0513C90.5625 61.1529 90.7396 61.4169 90.7396 61.62C90.7396 61.8638 89.1636 63.7933 86.7906 66.4744C83.5146 70.1507 82.7709 71.1053 82.5052 71.8975L82.1865 72.8724L83.125 79.2298C83.9042 84.4904 84.0281 85.6685 83.8334 85.9325C83.7094 86.095 83.5323 86.2372 83.4438 86.2372C83.3552 86.2372 81.1594 84.9373 78.5563 83.353L73.8281 80.4485H72.5L71.1719 80.4688L66.4438 83.353C63.8584 84.9373 61.6448 86.2372 61.5563 86.2372C61.4677 86.2372 61.2906 86.095 61.1667 85.9325C60.9719 85.6685 61.0959 84.4904 61.875 79.2298L62.8136 72.8724L62.4948 71.8772C62.2292 71.085 61.4854 70.1507 58.2094 66.4541C55.8188 63.773 54.2604 61.8638 54.2604 61.62C54.2604 61.4169 54.4375 61.1529 54.6677 61.0513C54.8802 60.9497 57.3594 60.5029 60.175 60.0357C65.3104 59.203 66.1959 58.9389 66.8511 58.0859C67.0104 57.8624 68.25 55.1814 69.5781 52.1144C71.7563 47.0975 72.199 46.2241 72.5 46.2241C72.5531 46.2241 72.6771 46.3054 72.7834 46.3866Z" fill="white"/>
<path d="M38.1986 72.9744C37.7028 73.0963 37.083 73.9697 37.083 74.5587C37.083 74.8024 37.2424 75.2493 37.4549 75.5539L37.809 76.082H42.0413H46.2736L46.6278 75.5539C47.1236 74.843 47.0882 74.1931 46.5747 73.5025L46.1497 72.9338L42.3601 72.9135C40.2882 72.8932 38.4111 72.9135 38.1986 72.9744Z" fill="black"/>
<path d="M38.1986 72.9744C37.7028 73.0963 37.083 73.9697 37.083 74.5587C37.083 74.8024 37.2424 75.2493 37.4549 75.5539L37.809 76.082H42.0413H46.2736L46.6278 75.5539C47.1236 74.843 47.0882 74.1931 46.5747 73.5025L46.1497 72.9338L42.3601 72.9135C40.2882 72.8932 38.4111 72.9135 38.1986 72.9744Z" fill="white"/>
<path d="M99.1156 72.9744C98.6198 73.0963 98 73.9697 98 74.5587C98 74.8024 98.1594 75.2493 98.3719 75.5539L98.726 76.082H102.958H107.191L107.545 75.5539C108.041 74.843 108.005 74.1931 107.492 73.5025L107.067 72.9338L103.277 72.9135C101.205 72.8932 99.3281 72.9135 99.1156 72.9744Z" fill="black"/>
<path d="M99.1156 72.9744C98.6198 73.0963 98 73.9697 98 74.5587C98 74.8024 98.1594 75.2493 98.3719 75.5539L98.726 76.082H102.958H107.191L107.545 75.5539C108.041 74.843 108.005 74.1931 107.492 73.5025L107.067 72.9338L103.277 72.9135C101.205 72.8932 99.3281 72.9135 99.1156 72.9744Z" fill="white"/>
<path d="M30.4427 81.8713C30.1594 82.1759 30 82.6025 30 82.9884C30 83.3743 30.1594 83.8008 30.4427 84.1055L30.8677 84.6133H38.5H46.1323L46.5573 84.1055C47.1417 83.4555 47.1417 82.5212 46.5573 81.8713L46.1323 81.3635H38.5H30.8677L30.4427 81.8713Z" fill="white"/>
<path d="M98.4427 81.8674C98.1594 82.172 98 82.5986 98 82.9845C98 83.3704 98.1594 83.7969 98.4427 84.1016L98.8677 84.6094H106.5H114.132L114.557 84.1016C114.841 83.7969 115 83.3704 115 82.9845C115 82.5986 114.841 82.172 114.557 81.8674L114.132 81.3596H106.5H98.8677L98.4427 81.8674Z" fill="white"/>
<path d="M41.9524 95.5795C40.8014 95.8639 40.4649 96.3513 39.1014 99.5605C38.393 101.267 37.7378 102.709 37.667 102.749C37.5784 102.81 36.3211 103.054 34.8691 103.298C33.3993 103.521 31.9649 103.826 31.6461 103.927C30.9201 104.191 30.2295 105.126 30.0701 106.04C29.8399 107.441 30.0878 107.929 32.4784 110.711L34.7451 113.352L34.2316 116.683C33.842 119.303 33.7534 120.197 33.8951 120.765C34.1784 121.943 35.3472 122.979 36.4274 123C36.6399 123.02 38.092 122.268 39.6503 121.354L42.4836 119.689L45.2816 121.334C46.8045 122.248 48.2566 123 48.5045 123C49.2128 123 50.0628 122.512 50.5941 121.801C51.2139 120.948 51.2139 119.973 50.6295 116.155L50.1868 113.271L52.4711 110.671C55.0566 107.726 55.2691 107.279 54.7024 105.634C54.2243 104.151 53.7639 103.907 50.2753 103.338L47.2295 102.831L45.9191 99.8042C45.193 98.1387 44.3961 96.5544 44.1482 96.2701C43.5993 95.6607 42.7139 95.3967 41.9524 95.5795ZM43.7764 102.16C45.3524 105.816 45.2993 105.776 48.8764 106.365C50.3284 106.608 51.5503 106.832 51.5857 106.873C51.6389 106.933 50.7357 108.03 49.6201 109.35C48.3097 110.854 47.5128 111.95 47.4243 112.336C47.3357 112.722 47.4597 114.083 47.743 116.094C48.0086 117.82 48.1857 119.283 48.1503 119.303C48.1149 119.344 46.9993 118.714 45.6534 117.901C42.4836 115.972 42.4836 115.972 39.3139 117.901C37.968 118.714 36.8347 119.344 36.7993 119.303C36.7639 119.262 36.9409 117.861 37.1889 116.175C37.4545 114.347 37.5961 112.864 37.5253 112.438C37.4368 111.889 36.9409 111.178 35.2941 109.269L33.1868 106.832L35.5243 106.466C39.5972 105.857 39.4732 105.938 41.2264 101.917C41.8639 100.454 42.4305 99.2355 42.4659 99.2355C42.5014 99.2355 43.1034 100.556 43.7764 102.16Z" fill="white"/>
<path d="M71.7382 95.6815C71.3663 95.8236 70.9059 96.108 70.7288 96.2908C70.5341 96.4939 69.7903 98.0376 69.082 99.7437L67.7716 102.831L64.9559 103.278C61.733 103.806 61.3965 103.928 60.7236 104.74C60.334 105.187 60.2101 105.573 60.1393 106.426C60.1038 107.015 60.1393 107.685 60.2455 107.888C60.334 108.092 61.3965 109.371 62.6007 110.732L64.7611 113.21L64.283 116.602C63.9997 118.471 63.8403 120.278 63.8934 120.603C64.0528 121.558 64.6549 122.33 65.5049 122.716C66.5497 123.162 66.9216 123.041 69.9851 121.172C71.2778 120.4 72.4111 119.75 72.482 119.75C72.5705 119.75 73.8632 120.481 75.3861 121.375C76.9091 122.269 78.308 123 78.5028 123C79.158 123 80.2913 122.35 80.6455 121.781C81.2299 120.847 81.2299 120.177 80.7163 116.602L80.2382 113.21L82.4695 110.651C83.7091 109.27 84.7716 107.888 84.8247 107.624C85.0195 106.731 84.7893 105.329 84.3466 104.781C83.7091 103.989 83.0716 103.765 80.0434 103.278L77.2455 102.811L75.9351 99.7843C74.5184 96.4736 74.4122 96.2908 73.757 95.9049C72.9778 95.458 72.4466 95.3971 71.7382 95.6815ZM73.8101 102.079C74.483 103.664 75.2268 105.106 75.4747 105.329C76.0236 105.837 76.6611 106.02 79.4591 106.467C80.6986 106.67 81.708 106.893 81.708 106.974C81.708 107.056 80.9111 107.99 79.9372 109.026C77.1747 111.951 77.1393 112.093 77.7945 116.277C78.007 117.557 78.1663 118.775 78.1663 118.999C78.1663 119.324 77.7945 119.161 75.7403 117.902C72.5174 115.972 72.482 115.972 69.3299 117.882C68.0195 118.694 66.9038 119.303 66.8684 119.242C66.8153 119.181 66.9747 117.76 67.2226 116.074C67.5768 113.738 67.6476 112.844 67.5059 112.276C67.382 111.707 66.8507 110.976 65.2747 109.249C64.1413 108.01 63.2382 106.954 63.2913 106.893C63.3445 106.853 64.3715 106.65 65.5934 106.467C69.6309 105.837 69.6841 105.796 71.2955 101.897C71.8799 100.434 72.4288 99.2359 72.4997 99.2359C72.5528 99.2359 73.1549 100.516 73.8101 102.079Z" fill="white"/>
<path d="M101.931 95.6002C100.993 95.8236 100.479 96.5752 99.0803 99.8046L97.7699 102.831L94.724 103.339C91.2355 103.907 90.7751 104.151 90.297 105.634C89.7303 107.299 89.9251 107.726 92.5282 110.671L94.8303 113.251L94.3699 116.135C93.7855 119.974 93.7855 120.949 94.4053 121.802C94.9365 122.513 95.7865 123 96.4949 123C96.7428 123 98.1949 122.248 99.7355 121.334L102.533 119.689L105.331 121.334C106.872 122.248 108.306 123 108.537 123C109.634 123 110.821 121.964 111.104 120.766C111.246 120.197 111.157 119.303 110.768 116.683L110.254 113.352L112.521 110.712C114.345 108.579 114.823 107.929 114.912 107.32C115.159 105.817 114.487 104.334 113.353 103.928C113.034 103.826 111.6 103.522 110.13 103.298C108.678 103.054 107.421 102.811 107.332 102.75C107.262 102.709 106.606 101.267 105.898 99.5609C104.534 96.3517 104.198 95.8643 103.065 95.5799C102.764 95.519 102.25 95.519 101.931 95.6002ZM103.773 101.917C105.526 105.939 105.402 105.857 109.475 106.467L111.813 106.832L109.705 109.27C108.058 111.179 107.563 111.89 107.474 112.438C107.403 112.865 107.545 114.347 107.811 116.175C108.058 117.861 108.236 119.242 108.2 119.283C108.165 119.324 107.031 118.694 105.703 117.902C102.516 115.993 102.533 115.993 99.3459 117.902C98.0178 118.714 96.8845 119.344 96.8668 119.324C96.8313 119.283 97.0084 117.821 97.2563 116.094C97.5397 114.104 97.6636 112.723 97.5751 112.337C97.4865 111.951 96.6897 110.854 95.3793 109.351C94.2636 108.031 93.3605 106.934 93.4136 106.873C93.449 106.832 94.6709 106.609 96.123 106.365C99.6824 105.776 99.647 105.817 101.223 102.161C101.914 100.556 102.498 99.2359 102.533 99.2359C102.569 99.2359 103.136 100.455 103.773 101.917Z" fill="white"/>
<defs>
<filter id="filter0_d_809_6568" x="0" y="0" width="653.029" height="184" filterUnits="userSpaceOnUse" color-interpolation-filters="sRGB">
<feFlood flood-opacity="0" result="BackgroundImageFix"/>
<feColorMatrix in="SourceAlpha" type="matrix" values="0 0 0 0 0 0 0 0 0 0 0 0 0 0 0 0 0 0 127 0" result="hardAlpha"/>
<feOffset dy="4"/>
<feGaussianBlur stdDeviation="2"/>
<feComposite in2="hardAlpha" operator="out"/>
<feColorMatrix type="matrix" values="0 0 0 0 0 0 0 0 0 0 0 0 0 0 0 0 0 0 0.25 0"/>
<feBlend mode="normal" in2="BackgroundImageFix" result="effect1_dropShadow_809_6568"/>
<feBlend mode="normal" in="SourceGraphic" in2="effect1_dropShadow_809_6568" result="shape"/>
</filter>
</defs>
</svg>
