<svg width="75" height="75" viewBox="0 0 75 75" fill="none" xmlns="http://www.w3.org/2000/svg">
<path d="M17.6705 0.693756C17.2538 1.0894 13.1061 5.21068 8.44698 9.87596L0 18.3328V46.3245C0 73.2117 0.0189394 74.3162 0.340909 74.5635C0.662879 74.8273 2.23485 74.8438 18.9962 74.8438C37.0644 74.8438 37.3106 74.8438 37.6894 74.514C38.1629 74.1019 38.1629 73.6733 37.7084 73.1788L37.3485 72.7831L19.8106 72.7337L2.27273 72.7007V46.3245V19.9648L11.9508 19.9154L21.6288 19.8659L21.9887 19.4703C22.3296 19.1076 22.3485 18.7449 22.3485 12.6784C22.3485 6.48003 22.3296 6.24924 21.9697 5.93602C21.4584 5.49092 20.5493 5.50741 20.1894 5.96899C19.9243 6.28221 19.8864 7.15592 19.8864 12.0685V17.8053H11.9129C7.17804 17.8053 3.97728 17.7394 4.01515 17.6569C4.05303 17.5745 7.51895 14.0467 11.7424 9.82651L19.4129 2.14445H40.0947H60.7955V13.8324C60.7955 25.3884 60.7955 25.5203 61.1932 25.9489C61.6667 26.46 62.3485 26.5094 62.8788 26.0478C63.2576 25.7181 63.2576 25.5038 63.2576 13.14C63.2576 1.15534 63.2387 0.528908 62.9167 0.281631C62.5947 0.017868 60.7576 0.00138855 40.5114 0.00138855H18.447L17.6705 0.693756Z" fill="#5F0000"/>
<path d="M55.5873 28.4695C54.7918 28.6344 53.9774 28.6839 52.841 28.6014C51.9509 28.552 50.5873 28.4695 49.7918 28.4201C47.9168 28.2882 47.1971 28.5685 45.1895 30.1345C44.0532 31.0247 43.3145 31.4533 42.2539 31.8325C39.2994 32.8711 38.5797 33.5799 37.7842 36.1186C37.3865 37.3715 37.0266 38.0968 36.3069 39.0365C34.4698 41.4763 34.2804 42.383 35.1516 44.6249C35.5683 45.68 35.6819 46.3394 35.7766 48.3011C35.8903 50.5266 35.9282 50.7409 36.4206 51.4663C36.7236 51.9114 37.5001 52.6367 38.2388 53.1642C38.9585 53.6588 39.716 54.2687 39.9244 54.516L40.3032 54.9776L35.966 61.4892C33.5986 65.0665 31.6478 68.1492 31.6289 68.3305C31.6289 68.5119 31.7615 68.8416 31.9319 69.0394C32.2918 69.4845 32.8221 69.501 36.5342 69.1383C38.0115 69.0064 39.3941 68.9075 39.6213 68.9405C39.9244 68.9734 40.3032 69.5669 41.3827 71.6935C42.1403 73.1771 42.8979 74.5289 43.0683 74.6938C43.4282 75.0729 44.3751 75.1059 44.7539 74.7597C44.9054 74.6443 46.8941 71.71 49.1668 68.2646C52.6517 62.9729 53.3335 62.0497 53.5039 62.2805C53.6365 62.4288 55.4926 65.2313 57.6706 68.4954C59.8297 71.7594 61.7236 74.5619 61.8941 74.7102C62.2729 75.0894 63.2956 75.0894 63.6744 74.7102C63.8259 74.5619 64.5835 73.1771 65.36 71.644L66.7615 68.8745L67.8979 68.9569C68.5229 69.0064 70.2085 69.1383 71.6289 69.2537C74.0911 69.4515 74.2426 69.4515 74.6214 69.1548C74.8297 68.9899 75.0002 68.6437 75.0002 68.38C75.0002 68.0503 73.6176 65.8083 70.7388 61.4727C68.3903 57.9449 66.4774 54.9941 66.4774 54.9116C66.4774 54.7962 67.0835 54.2852 69.2805 52.5543C70.663 51.4663 70.8903 50.8728 71.0229 48.0538C71.1176 46.0921 71.2312 45.3997 71.5532 44.6744C72.4812 42.6467 72.2918 41.5093 70.7388 39.4651C69.5835 37.965 69.4698 37.7342 68.9206 35.9538C68.2198 33.6623 67.4055 32.8876 64.6971 31.8984C63.3145 31.4039 62.2918 30.7939 60.6441 29.4916C59.9812 28.9641 59.2994 28.6014 58.6744 28.4366C57.5001 28.1398 57.0645 28.1398 55.5873 28.4695ZM51.3448 30.761C53.0115 30.9918 53.5229 31.0083 55.0001 30.8269C57.9357 30.4642 58.1441 30.5137 59.8676 31.8984C61.1365 32.904 62.0645 33.3986 64.0721 34.1239C64.9623 34.4371 65.663 34.8163 65.8524 35.0471C66.0229 35.2779 66.307 36.0527 66.4964 36.778C66.8941 38.2617 67.4433 39.2508 68.6555 40.8169C69.6782 42.1027 69.7161 42.4984 68.9964 44.2952C68.5608 45.3997 68.485 45.8943 68.4471 47.7736C68.3903 50.3453 68.3714 50.3618 66.4964 51.6806C65.038 52.6697 64.4698 53.2631 63.4471 54.7798C62.538 56.1645 61.932 56.4777 60.0001 56.6261C58.0683 56.7745 56.5721 57.1701 55.2653 57.8625C53.7691 58.6702 53.2009 58.6702 51.4963 57.8954C49.7918 57.1042 48.5039 56.7745 46.591 56.6261C44.7918 56.4777 44.2615 56.1975 43.4282 54.9776C42.3486 53.362 41.4963 52.5048 40.1138 51.5817C39.3941 51.1036 38.6744 50.5101 38.5229 50.2628C38.3335 49.9496 38.2577 49.2408 38.2766 47.9384C38.2766 45.9767 38.1441 45.2184 37.4812 43.6029C37.0077 42.4324 37.1403 41.839 38.1441 40.7015C39.091 39.6135 39.735 38.4101 40.2463 36.7286C40.7766 35.0306 41.1176 34.6185 42.3865 34.2064C44.1857 33.6129 45.4736 32.937 46.7236 31.9479C47.841 31.0742 48.807 30.5302 49.2804 30.4972C49.3562 30.4972 50.2842 30.6126 51.3448 30.761ZM42.6327 57.7636C43.4282 58.39 44.8865 58.8516 46.1176 58.8516C47.1971 58.8516 48.8448 59.2472 50.1895 59.8407C50.8145 60.1209 51.3259 60.3682 51.3259 60.4012C51.3259 60.5166 44.4509 70.9681 44.2426 71.166C44.0721 71.3308 43.7501 70.8198 42.8789 69.1053C42.1213 67.6217 41.591 66.7809 41.3448 66.6655C41.0418 66.5501 40.1706 66.5666 38.2766 66.7315C36.7994 66.8633 35.5494 66.9458 35.5115 66.8963C35.4168 66.8304 41.6857 57.2196 41.8372 57.2031C41.8751 57.2031 42.235 57.4503 42.6327 57.7636ZM68.163 62.0662C69.9055 64.7038 71.2502 66.8798 71.1555 66.9128C71.0608 66.9458 70.0759 66.8798 68.9585 66.7809C65.9471 66.4842 65.5494 66.5007 65.1517 66.8633C64.9623 67.0282 64.3562 68.0668 63.8259 69.1548C63.2767 70.2428 62.7842 71.1989 62.7085 71.2649C62.5948 71.3638 55.663 61.209 55.341 60.5001C55.2842 60.3682 56.8751 59.6758 58.2388 59.2307C58.6554 59.0989 59.7539 58.9175 60.7009 58.8351C62.538 58.6702 63.8259 58.2416 64.3562 57.5987C64.5267 57.3844 64.7539 57.236 64.8297 57.2525C64.9244 57.269 66.4206 59.445 68.163 62.0662Z" fill="#5F0000"/>
<path d="M51.0423 36.0033C47.4059 36.7781 44.5271 39.3498 43.6559 42.5644C42.065 48.4496 47.8415 54.0875 54.6219 53.2632C58.6181 52.7851 61.9325 50.197 62.9741 46.7186C63.4097 45.2514 63.3529 44.592 62.7658 44.1964C62.1219 43.7513 61.8756 43.7678 61.3075 44.2129C60.9855 44.4766 60.7961 44.8888 60.6446 45.6141C60.2279 47.7572 58.5612 49.653 56.3075 50.5761C55.3415 50.9718 54.9817 51.0212 53.315 51.0212C51.5537 51.0212 51.3264 50.9883 50.1521 50.4772C46.44 48.8947 44.9059 44.9053 46.762 41.6412C47.5385 40.2729 49.2052 38.9047 50.7014 38.4101C52.1597 37.9156 54.2241 37.8826 55.7582 38.3112C56.762 38.608 56.9135 38.608 57.3681 38.3936C58.0688 38.0475 58.0688 37.0089 57.387 36.5803C56.2506 35.8549 53.0878 35.5582 51.0423 36.0033Z" fill="#5F0000"/>
<path d="M58.6369 40.687C56.6482 42.385 54.5649 44.1324 54.0346 44.5775L53.0308 45.4018L51.6293 44.2148C50.8528 43.5554 50.0573 43.0279 49.849 43.0279C49.2429 43.0279 48.4854 43.6543 48.4854 44.1654C48.4854 44.5116 48.8831 44.9567 50.3604 46.2095C52.1217 47.7097 52.2732 47.8086 53.0119 47.8086C53.7694 47.8086 53.9399 47.7097 56.2126 45.8469C60.5119 42.352 64.0157 39.1539 64.0157 38.7583C64.0157 38.2967 63.2013 37.5878 62.671 37.5878C62.3679 37.5878 61.1369 38.5275 58.6369 40.687Z" fill="#5F0000"/>
<path d="M10.8332 29.0474C10.4544 29.4595 10.4923 30.2013 10.909 30.564C11.1741 30.7948 12.5188 30.8278 22.9166 30.8278C35.7954 30.8278 35.2272 30.8772 35.2272 29.8386C35.2272 28.8001 35.7954 28.8495 22.8408 28.8495C13.6173 28.8495 10.9847 28.899 10.8332 29.0474Z" fill="#5F0000"/>
<path d="M10.8716 38.6597C10.3603 39.1048 10.3792 39.5499 10.9474 40.0939C11.2125 40.3741 11.8944 40.3906 20.1709 40.3906C28.8262 40.3906 29.1103 40.3741 29.4512 40.0609C29.9057 39.6158 29.8679 38.907 29.3565 38.5443C28.9588 38.264 28.3527 38.2476 20.133 38.2476H11.3451L10.8716 38.6597Z" fill="#5F0000"/>
<path d="M10.8895 48.0369C10.3781 48.3502 10.4349 49.2568 10.9652 49.6525C11.3819 49.9327 11.9311 49.9492 20.1698 49.9492C28.3516 49.9492 28.9577 49.9327 29.3554 49.6525C29.8668 49.2898 29.9047 48.581 29.4501 48.1359C29.1092 47.8226 28.8251 47.8062 20.1698 47.8062C12.9539 47.8062 11.1736 47.8556 10.8895 48.0369Z" fill="#5F0000"/>
<path d="M10.8332 57.5673C10.4544 57.9794 10.4923 58.7212 10.909 59.0839C11.1741 59.3147 12.2726 59.3477 20.1704 59.3477C28.0681 59.3477 29.1666 59.3147 29.4317 59.0839C29.7916 58.7872 29.8295 57.8475 29.5075 57.5673C29.1666 57.2705 11.1173 57.287 10.8332 57.5673Z" fill="#5F0000"/>
</svg>
