<svg width="654" height="184" viewBox="0 0 654 184" fill="none" xmlns="http://www.w3.org/2000/svg">
<g filter="url(#filter0_d_809_6572)">
<rect x="5.5" y="1.5" width="642.029" height="173" rx="16.5" fill="white"/>
<rect x="5.5" y="1.5" width="642.029" height="173" rx="16.5" fill="#F13636"/>
<rect x="5.5" y="1.5" width="642.029" height="173" rx="16.5" stroke="#F7A9A0" stroke-width="3"/>
<path d="M154.286 66.27C152.846 66.27 151.505 66.036 150.263 65.568C149.039 65.082 147.968 64.407 147.05 63.543C146.15 62.661 145.448 61.626 144.944 60.438C144.44 59.25 144.188 57.954 144.188 56.55C144.188 55.146 144.44 53.85 144.944 52.662C145.448 51.474 146.159 50.448 147.077 49.584C147.995 48.702 149.066 48.027 150.29 47.559C151.514 47.073 152.855 46.83 154.313 46.83C155.861 46.83 157.274 47.1 158.552 47.64C159.83 48.162 160.91 48.945 161.792 49.989L159.524 52.122C158.84 51.384 158.075 50.835 157.229 50.475C156.383 50.097 155.465 49.908 154.475 49.908C153.485 49.908 152.576 50.07 151.748 50.394C150.938 50.718 150.227 51.177 149.615 51.771C149.021 52.365 148.553 53.067 148.211 53.877C147.887 54.687 147.725 55.578 147.725 56.55C147.725 57.522 147.887 58.413 148.211 59.223C148.553 60.033 149.021 60.735 149.615 61.329C150.227 61.923 150.938 62.382 151.748 62.706C152.576 63.03 153.485 63.192 154.475 63.192C155.465 63.192 156.383 63.012 157.229 62.652C158.075 62.274 158.84 61.707 159.524 60.951L161.792 63.111C160.91 64.137 159.83 64.92 158.552 65.46C157.274 66 155.852 66.27 154.286 66.27ZM170.604 66.189C169.002 66.189 167.598 65.874 166.392 65.244C165.204 64.596 164.277 63.714 163.611 62.598C162.963 61.482 162.639 60.213 162.639 58.791C162.639 57.351 162.954 56.082 163.584 54.984C164.232 53.868 165.114 52.995 166.23 52.365C167.364 51.735 168.651 51.42 170.091 51.42C171.495 51.42 172.746 51.726 173.844 52.338C174.942 52.95 175.806 53.814 176.436 54.93C177.066 56.046 177.381 57.36 177.381 58.872C177.381 59.016 177.372 59.178 177.354 59.358C177.354 59.538 177.345 59.709 177.327 59.871H165.312V57.63H175.545L174.222 58.332C174.24 57.504 174.069 56.775 173.709 56.145C173.349 55.515 172.854 55.02 172.224 54.66C171.612 54.3 170.901 54.12 170.091 54.12C169.263 54.12 168.534 54.3 167.904 54.66C167.292 55.02 166.806 55.524 166.446 56.172C166.104 56.802 165.933 57.549 165.933 58.413V58.953C165.933 59.817 166.131 60.582 166.527 61.248C166.923 61.914 167.481 62.427 168.201 62.787C168.921 63.147 169.749 63.327 170.685 63.327C171.495 63.327 172.224 63.201 172.872 62.949C173.52 62.697 174.096 62.301 174.6 61.761L176.409 63.84C175.761 64.596 174.942 65.181 173.952 65.595C172.98 65.991 171.864 66.189 170.604 66.189ZM180.173 66V51.582H183.386V55.551L183.008 54.39C183.44 53.418 184.115 52.68 185.033 52.176C185.969 51.672 187.13 51.42 188.516 51.42V54.633C188.372 54.597 188.237 54.579 188.111 54.579C187.985 54.561 187.859 54.552 187.733 54.552C186.455 54.552 185.438 54.93 184.682 55.686C183.926 56.424 183.548 57.531 183.548 59.007V66H180.173ZM196.884 66.189C195.3 66.189 194.076 65.784 193.212 64.974C192.348 64.146 191.916 62.931 191.916 61.329V48.396H195.291V61.248C195.291 61.932 195.462 62.463 195.804 62.841C196.164 63.219 196.659 63.408 197.289 63.408C198.045 63.408 198.675 63.21 199.179 62.814L200.124 65.217C199.728 65.541 199.242 65.784 198.666 65.946C198.09 66.108 197.496 66.189 196.884 66.189ZM189.54 54.39V51.69H199.152V54.39H189.54ZM202.45 66V51.582H205.825V66H202.45ZM204.151 49.206C203.521 49.206 202.999 49.008 202.585 48.612C202.189 48.216 201.991 47.739 201.991 47.181C201.991 46.605 202.189 46.128 202.585 45.75C202.999 45.354 203.521 45.156 204.151 45.156C204.781 45.156 205.294 45.345 205.69 45.723C206.104 46.083 206.311 46.542 206.311 47.1C206.311 47.694 206.113 48.198 205.717 48.612C205.321 49.008 204.799 49.206 204.151 49.206ZM210.264 66V50.772C210.264 49.26 210.705 48.054 211.587 47.154C212.487 46.236 213.765 45.777 215.421 45.777C216.015 45.777 216.573 45.84 217.095 45.966C217.635 46.092 218.085 46.29 218.445 46.56L217.527 49.098C217.275 48.9 216.987 48.756 216.663 48.666C216.339 48.558 216.006 48.504 215.664 48.504C214.962 48.504 214.431 48.702 214.071 49.098C213.711 49.476 213.531 50.052 213.531 50.826V52.446L213.639 53.958V66H210.264ZM207.888 54.39V51.69H217.5V54.39H207.888ZM219.876 66V51.582H223.251V66H219.876ZM221.577 49.206C220.947 49.206 220.425 49.008 220.011 48.612C219.615 48.216 219.417 47.739 219.417 47.181C219.417 46.605 219.615 46.128 220.011 45.75C220.425 45.354 220.947 45.156 221.577 45.156C222.207 45.156 222.72 45.345 223.116 45.723C223.53 46.083 223.737 46.542 223.737 47.1C223.737 47.694 223.539 48.198 223.143 48.612C222.747 49.008 222.225 49.206 221.577 49.206ZM234.009 66.189C232.407 66.189 231.003 65.874 229.797 65.244C228.609 64.596 227.682 63.714 227.016 62.598C226.368 61.482 226.044 60.213 226.044 58.791C226.044 57.351 226.359 56.082 226.989 54.984C227.637 53.868 228.519 52.995 229.635 52.365C230.769 51.735 232.056 51.42 233.496 51.42C234.9 51.42 236.151 51.726 237.249 52.338C238.347 52.95 239.211 53.814 239.841 54.93C240.471 56.046 240.786 57.36 240.786 58.872C240.786 59.016 240.777 59.178 240.759 59.358C240.759 59.538 240.75 59.709 240.732 59.871H228.717V57.63H238.95L237.627 58.332C237.645 57.504 237.474 56.775 237.114 56.145C236.754 55.515 236.259 55.02 235.629 54.66C235.017 54.3 234.306 54.12 233.496 54.12C232.668 54.12 231.939 54.3 231.309 54.66C230.697 55.02 230.211 55.524 229.851 56.172C229.509 56.802 229.338 57.549 229.338 58.413V58.953C229.338 59.817 229.536 60.582 229.932 61.248C230.328 61.914 230.886 62.427 231.606 62.787C232.326 63.147 233.154 63.327 234.09 63.327C234.9 63.327 235.629 63.201 236.277 62.949C236.925 62.697 237.501 62.301 238.005 61.761L239.814 63.84C239.166 64.596 238.347 65.181 237.357 65.595C236.385 65.991 235.269 66.189 234.009 66.189ZM249.68 66.189C248.294 66.189 247.043 65.883 245.927 65.271C244.829 64.641 243.965 63.777 243.335 62.679C242.705 61.581 242.39 60.285 242.39 58.791C242.39 57.297 242.705 56.001 243.335 54.903C243.965 53.805 244.829 52.95 245.927 52.338C247.043 51.726 248.294 51.42 249.68 51.42C250.886 51.42 251.966 51.69 252.92 52.23C253.874 52.752 254.63 53.553 255.188 54.633C255.746 55.713 256.025 57.099 256.025 58.791C256.025 60.465 255.755 61.851 255.215 62.949C254.675 64.029 253.928 64.839 252.974 65.379C252.02 65.919 250.922 66.189 249.68 66.189ZM250.085 63.3C250.895 63.3 251.615 63.12 252.245 62.76C252.893 62.4 253.406 61.878 253.784 61.194C254.18 60.51 254.378 59.709 254.378 58.791C254.378 57.855 254.18 57.054 253.784 56.388C253.406 55.704 252.893 55.182 252.245 54.822C251.615 54.462 250.895 54.282 250.085 54.282C249.275 54.282 248.546 54.462 247.898 54.822C247.268 55.182 246.755 55.704 246.359 56.388C245.981 57.054 245.792 57.855 245.792 58.791C245.792 59.709 245.981 60.51 246.359 61.194C246.755 61.878 247.268 62.4 247.898 62.76C248.546 63.12 249.275 63.3 250.085 63.3ZM254.459 66V62.598L254.594 58.764L254.324 54.93V45.966H257.672V66H254.459ZM266.327 66L274.832 47.1H278.288L286.82 66H283.148L275.831 48.963H277.235L269.945 66H266.327ZM270.242 61.626L271.187 58.872H281.393L282.338 61.626H270.242ZM296.63 51.42C297.782 51.42 298.808 51.645 299.708 52.095C300.626 52.545 301.346 53.238 301.868 54.174C302.39 55.092 302.651 56.28 302.651 57.738V66H299.276V58.17C299.276 56.892 298.97 55.938 298.358 55.308C297.764 54.678 296.927 54.363 295.847 54.363C295.055 54.363 294.353 54.525 293.741 54.849C293.129 55.173 292.652 55.659 292.31 56.307C291.986 56.937 291.824 57.738 291.824 58.71V66H288.449V51.582H291.662V55.47L291.095 54.282C291.599 53.364 292.328 52.662 293.282 52.176C294.254 51.672 295.37 51.42 296.63 51.42ZM312.611 66.189C311.225 66.189 309.974 65.883 308.858 65.271C307.76 64.641 306.896 63.777 306.266 62.679C305.636 61.581 305.321 60.285 305.321 58.791C305.321 57.297 305.636 56.001 306.266 54.903C306.896 53.805 307.76 52.95 308.858 52.338C309.974 51.726 311.225 51.42 312.611 51.42C313.817 51.42 314.897 51.69 315.851 52.23C316.805 52.752 317.561 53.553 318.119 54.633C318.677 55.713 318.956 57.099 318.956 58.791C318.956 60.465 318.686 61.851 318.146 62.949C317.606 64.029 316.859 64.839 315.905 65.379C314.951 65.919 313.853 66.189 312.611 66.189ZM313.016 63.3C313.826 63.3 314.546 63.12 315.176 62.76C315.824 62.4 316.337 61.878 316.715 61.194C317.111 60.51 317.309 59.709 317.309 58.791C317.309 57.855 317.111 57.054 316.715 56.388C316.337 55.704 315.824 55.182 315.176 54.822C314.546 54.462 313.826 54.282 313.016 54.282C312.206 54.282 311.477 54.462 310.829 54.822C310.199 55.182 309.686 55.704 309.29 56.388C308.912 57.054 308.723 57.855 308.723 58.791C308.723 59.709 308.912 60.51 309.29 61.194C309.686 61.878 310.199 62.4 310.829 62.76C311.477 63.12 312.206 63.3 313.016 63.3ZM317.39 66V62.598L317.525 58.764L317.255 54.93V45.966H320.603V66H317.39ZM331.931 66V47.1H339.707C341.381 47.1 342.812 47.37 344 47.91C345.206 48.45 346.133 49.224 346.781 50.232C347.429 51.24 347.753 52.437 347.753 53.823C347.753 55.209 347.429 56.406 346.781 57.414C346.133 58.404 345.206 59.169 344 59.709C342.812 60.231 341.381 60.492 339.707 60.492H333.875L335.441 58.899V66H331.931ZM344.297 66L339.518 59.142H343.271L348.077 66H344.297ZM335.441 59.277L333.875 57.603H339.545C341.093 57.603 342.254 57.27 343.028 56.604C343.82 55.938 344.216 55.011 344.216 53.823C344.216 52.617 343.82 51.69 343.028 51.042C342.254 50.394 341.093 50.07 339.545 50.07H333.875L335.441 48.342V59.277ZM357.683 66.189C356.081 66.189 354.677 65.874 353.471 65.244C352.283 64.596 351.356 63.714 350.69 62.598C350.042 61.482 349.718 60.213 349.718 58.791C349.718 57.351 350.033 56.082 350.663 54.984C351.311 53.868 352.193 52.995 353.309 52.365C354.443 51.735 355.73 51.42 357.17 51.42C358.574 51.42 359.825 51.726 360.923 52.338C362.021 52.95 362.885 53.814 363.515 54.93C364.145 56.046 364.46 57.36 364.46 58.872C364.46 59.016 364.451 59.178 364.433 59.358C364.433 59.538 364.424 59.709 364.406 59.871H352.391V57.63H362.624L361.301 58.332C361.319 57.504 361.148 56.775 360.788 56.145C360.428 55.515 359.933 55.02 359.303 54.66C358.691 54.3 357.98 54.12 357.17 54.12C356.342 54.12 355.613 54.3 354.983 54.66C354.371 55.02 353.885 55.524 353.525 56.172C353.183 56.802 353.012 57.549 353.012 58.413V58.953C353.012 59.817 353.21 60.582 353.606 61.248C354.002 61.914 354.56 62.427 355.28 62.787C356 63.147 356.828 63.327 357.764 63.327C358.574 63.327 359.303 63.201 359.951 62.949C360.599 62.697 361.175 62.301 361.679 61.761L363.488 63.84C362.84 64.596 362.021 65.181 361.031 65.595C360.059 65.991 358.943 66.189 357.683 66.189ZM367.252 66V45.966H370.627V66H367.252ZM374.607 66V51.582H377.982V66H374.607ZM376.308 49.206C375.678 49.206 375.156 49.008 374.742 48.612C374.346 48.216 374.148 47.739 374.148 47.181C374.148 46.605 374.346 46.128 374.742 45.75C375.156 45.354 375.678 45.156 376.308 45.156C376.938 45.156 377.451 45.345 377.847 45.723C378.261 46.083 378.468 46.542 378.468 47.1C378.468 47.694 378.27 48.198 377.874 48.612C377.478 49.008 376.956 49.206 376.308 49.206ZM390.844 66V63.084L390.655 62.463V57.36C390.655 56.37 390.358 55.605 389.764 55.065C389.17 54.507 388.27 54.228 387.064 54.228C386.254 54.228 385.453 54.354 384.661 54.606C383.887 54.858 383.23 55.209 382.69 55.659L381.367 53.202C382.141 52.608 383.059 52.167 384.121 51.879C385.201 51.573 386.317 51.42 387.469 51.42C389.557 51.42 391.168 51.924 392.302 52.932C393.454 53.922 394.03 55.461 394.03 57.549V66H390.844ZM386.308 66.189C385.228 66.189 384.283 66.009 383.473 65.649C382.663 65.271 382.033 64.758 381.583 64.11C381.151 63.444 380.935 62.697 380.935 61.869C380.935 61.059 381.124 60.33 381.502 59.682C381.898 59.034 382.537 58.521 383.419 58.143C384.301 57.765 385.471 57.576 386.929 57.576H391.114V59.817H387.172C386.02 59.817 385.246 60.006 384.85 60.384C384.454 60.744 384.256 61.194 384.256 61.734C384.256 62.346 384.499 62.832 384.985 63.192C385.471 63.552 386.146 63.732 387.01 63.732C387.838 63.732 388.576 63.543 389.224 63.165C389.89 62.787 390.367 62.229 390.655 61.491L391.222 63.516C390.898 64.362 390.313 65.019 389.467 65.487C388.639 65.955 387.586 66.189 386.308 66.189ZM405.904 66.189C404.68 66.189 403.591 65.919 402.637 65.379C401.683 64.839 400.927 64.029 400.369 62.949C399.829 61.851 399.559 60.465 399.559 58.791C399.559 57.099 399.838 55.713 400.396 54.633C400.972 53.553 401.737 52.752 402.691 52.23C403.663 51.69 404.734 51.42 405.904 51.42C407.326 51.42 408.577 51.726 409.657 52.338C410.755 52.95 411.619 53.805 412.249 54.903C412.897 56.001 413.221 57.297 413.221 58.791C413.221 60.285 412.897 61.581 412.249 62.679C411.619 63.777 410.755 64.641 409.657 65.271C408.577 65.883 407.326 66.189 405.904 66.189ZM397.912 66V45.966H401.287V54.93L401.017 58.764L401.125 62.598V66H397.912ZM405.526 63.3C406.336 63.3 407.056 63.12 407.686 62.76C408.334 62.4 408.847 61.878 409.225 61.194C409.603 60.51 409.792 59.709 409.792 58.791C409.792 57.855 409.603 57.054 409.225 56.388C408.847 55.704 408.334 55.182 407.686 54.822C407.056 54.462 406.336 54.282 405.526 54.282C404.716 54.282 403.987 54.462 403.339 54.822C402.691 55.182 402.178 55.704 401.8 56.388C401.422 57.054 401.233 57.855 401.233 58.791C401.233 59.709 401.422 60.51 401.8 61.194C402.178 61.878 402.691 62.4 403.339 62.76C403.987 63.12 404.716 63.3 405.526 63.3ZM415.972 66V45.966H419.347V66H415.972ZM430.103 66.189C428.501 66.189 427.097 65.874 425.891 65.244C424.703 64.596 423.776 63.714 423.11 62.598C422.462 61.482 422.138 60.213 422.138 58.791C422.138 57.351 422.453 56.082 423.083 54.984C423.731 53.868 424.613 52.995 425.729 52.365C426.863 51.735 428.15 51.42 429.59 51.42C430.994 51.42 432.245 51.726 433.343 52.338C434.441 52.95 435.305 53.814 435.935 54.93C436.565 56.046 436.88 57.36 436.88 58.872C436.88 59.016 436.871 59.178 436.853 59.358C436.853 59.538 436.844 59.709 436.826 59.871H424.811V57.63H435.044L433.721 58.332C433.739 57.504 433.568 56.775 433.208 56.145C432.848 55.515 432.353 55.02 431.723 54.66C431.111 54.3 430.4 54.12 429.59 54.12C428.762 54.12 428.033 54.3 427.403 54.66C426.791 55.02 426.305 55.524 425.945 56.172C425.603 56.802 425.432 57.549 425.432 58.413V58.953C425.432 59.817 425.63 60.582 426.026 61.248C426.422 61.914 426.98 62.427 427.7 62.787C428.42 63.147 429.248 63.327 430.184 63.327C430.994 63.327 431.723 63.201 432.371 62.949C433.019 62.697 433.595 62.301 434.099 61.761L435.908 63.84C435.26 64.596 434.441 65.181 433.451 65.595C432.479 65.991 431.363 66.189 430.103 66.189ZM447.008 66V47.1H454.784C456.458 47.1 457.889 47.37 459.077 47.91C460.283 48.45 461.21 49.224 461.858 50.232C462.506 51.24 462.83 52.437 462.83 53.823C462.83 55.209 462.506 56.406 461.858 57.414C461.21 58.422 460.283 59.196 459.077 59.736C457.889 60.276 456.458 60.546 454.784 60.546H448.952L450.518 58.899V66H447.008ZM450.518 59.277L448.952 57.576H454.622C456.17 57.576 457.331 57.252 458.105 56.604C458.897 55.938 459.293 55.011 459.293 53.823C459.293 52.617 458.897 51.69 458.105 51.042C457.331 50.394 456.17 50.07 454.622 50.07H448.952L450.518 48.342V59.277ZM465.429 66V51.582H468.642V55.551L468.264 54.39C468.696 53.418 469.371 52.68 470.289 52.176C471.225 51.672 472.386 51.42 473.772 51.42V54.633C473.628 54.597 473.493 54.579 473.367 54.579C473.241 54.561 473.115 54.552 472.989 54.552C471.711 54.552 470.694 54.93 469.938 55.686C469.182 56.424 468.804 57.531 468.804 59.007V66H465.429ZM482.534 66.189C481.058 66.189 479.744 65.874 478.592 65.244C477.44 64.596 476.531 63.714 475.865 62.598C475.199 61.482 474.866 60.213 474.866 58.791C474.866 57.351 475.199 56.082 475.865 54.984C476.531 53.868 477.44 52.995 478.592 52.365C479.744 51.735 481.058 51.42 482.534 51.42C484.028 51.42 485.351 51.735 486.503 52.365C487.673 52.995 488.582 53.859 489.23 54.957C489.896 56.055 490.229 57.333 490.229 58.791C490.229 60.213 489.896 61.482 489.23 62.598C488.582 63.714 487.673 64.596 486.503 65.244C485.351 65.874 484.028 66.189 482.534 66.189ZM482.534 63.3C483.362 63.3 484.1 63.12 484.748 62.76C485.396 62.4 485.9 61.878 486.26 61.194C486.638 60.51 486.827 59.709 486.827 58.791C486.827 57.855 486.638 57.054 486.26 56.388C485.9 55.704 485.396 55.182 484.748 54.822C484.1 54.462 483.371 54.282 482.561 54.282C481.733 54.282 480.995 54.462 480.347 54.822C479.717 55.182 479.213 55.704 478.835 56.388C478.457 57.054 478.268 57.855 478.268 58.791C478.268 59.709 478.457 60.51 478.835 61.194C479.213 61.878 479.717 62.4 480.347 62.76C480.995 63.12 481.724 63.3 482.534 63.3ZM496.444 66L490.261 51.582H493.771L499.09 64.299H497.362L502.87 51.582H506.11L499.927 66H496.444ZM507.77 66V51.582H511.145V66H507.77ZM509.471 49.206C508.841 49.206 508.319 49.008 507.905 48.612C507.509 48.216 507.311 47.739 507.311 47.181C507.311 46.605 507.509 46.128 507.905 45.75C508.319 45.354 508.841 45.156 509.471 45.156C510.101 45.156 510.614 45.345 511.01 45.723C511.424 46.083 511.631 46.542 511.631 47.1C511.631 47.694 511.433 48.198 511.037 48.612C510.641 49.008 510.119 49.206 509.471 49.206ZM521.227 66.189C519.841 66.189 518.59 65.883 517.474 65.271C516.376 64.641 515.512 63.777 514.882 62.679C514.252 61.581 513.937 60.285 513.937 58.791C513.937 57.297 514.252 56.001 514.882 54.903C515.512 53.805 516.376 52.95 517.474 52.338C518.59 51.726 519.841 51.42 521.227 51.42C522.433 51.42 523.513 51.69 524.467 52.23C525.421 52.752 526.177 53.553 526.735 54.633C527.293 55.713 527.572 57.099 527.572 58.791C527.572 60.465 527.302 61.851 526.762 62.949C526.222 64.029 525.475 64.839 524.521 65.379C523.567 65.919 522.469 66.189 521.227 66.189ZM521.632 63.3C522.442 63.3 523.162 63.12 523.792 62.76C524.44 62.4 524.953 61.878 525.331 61.194C525.727 60.51 525.925 59.709 525.925 58.791C525.925 57.855 525.727 57.054 525.331 56.388C524.953 55.704 524.44 55.182 523.792 54.822C523.162 54.462 522.442 54.282 521.632 54.282C520.822 54.282 520.093 54.462 519.445 54.822C518.815 55.182 518.302 55.704 517.906 56.388C517.528 57.054 517.339 57.855 517.339 58.791C517.339 59.709 517.528 60.51 517.906 61.194C518.302 61.878 518.815 62.4 519.445 62.76C520.093 63.12 520.822 63.3 521.632 63.3ZM526.006 66V62.598L526.141 58.764L525.871 54.93V45.966H529.219V66H526.006ZM539.988 66.189C538.386 66.189 536.982 65.874 535.776 65.244C534.588 64.596 533.661 63.714 532.995 62.598C532.347 61.482 532.023 60.213 532.023 58.791C532.023 57.351 532.338 56.082 532.968 54.984C533.616 53.868 534.498 52.995 535.614 52.365C536.748 51.735 538.035 51.42 539.475 51.42C540.879 51.42 542.13 51.726 543.228 52.338C544.326 52.95 545.19 53.814 545.82 54.93C546.45 56.046 546.765 57.36 546.765 58.872C546.765 59.016 546.756 59.178 546.738 59.358C546.738 59.538 546.729 59.709 546.711 59.871H534.696V57.63H544.929L543.606 58.332C543.624 57.504 543.453 56.775 543.093 56.145C542.733 55.515 542.238 55.02 541.608 54.66C540.996 54.3 540.285 54.12 539.475 54.12C538.647 54.12 537.918 54.3 537.288 54.66C536.676 55.02 536.19 55.524 535.83 56.172C535.488 56.802 535.317 57.549 535.317 58.413V58.953C535.317 59.817 535.515 60.582 535.911 61.248C536.307 61.914 536.865 62.427 537.585 62.787C538.305 63.147 539.133 63.327 540.069 63.327C540.879 63.327 541.608 63.201 542.256 62.949C542.904 62.697 543.48 62.301 543.984 61.761L545.793 63.84C545.145 64.596 544.326 65.181 543.336 65.595C542.364 65.991 541.248 66.189 539.988 66.189ZM549.557 66V51.582H552.77V55.551L552.392 54.39C552.824 53.418 553.499 52.68 554.417 52.176C555.353 51.672 556.514 51.42 557.9 51.42V54.633C557.756 54.597 557.621 54.579 557.495 54.579C557.369 54.561 557.243 54.552 557.117 54.552C555.839 54.552 554.822 54.93 554.066 55.686C553.31 56.424 552.932 57.531 552.932 59.007V66H549.557ZM564.899 66.189C563.693 66.189 562.532 66.036 561.416 65.73C560.318 65.406 559.445 65.019 558.797 64.569L560.093 62.004C560.741 62.418 561.515 62.76 562.415 63.03C563.315 63.3 564.215 63.435 565.115 63.435C566.177 63.435 566.942 63.291 567.41 63.003C567.896 62.715 568.139 62.328 568.139 61.842C568.139 61.446 567.977 61.149 567.653 60.951C567.329 60.735 566.906 60.573 566.384 60.465C565.862 60.357 565.277 60.258 564.629 60.168C563.999 60.078 563.36 59.961 562.712 59.817C562.082 59.655 561.506 59.43 560.984 59.142C560.462 58.836 560.039 58.431 559.715 57.927C559.391 57.423 559.229 56.757 559.229 55.929C559.229 55.011 559.49 54.219 560.012 53.553C560.534 52.869 561.263 52.347 562.199 51.987C563.153 51.609 564.278 51.42 565.574 51.42C566.546 51.42 567.527 51.528 568.517 51.744C569.507 51.96 570.326 52.266 570.974 52.662L569.678 55.227C568.994 54.813 568.301 54.534 567.599 54.39C566.915 54.228 566.231 54.147 565.547 54.147C564.521 54.147 563.756 54.3 563.252 54.606C562.766 54.912 562.523 55.299 562.523 55.767C562.523 56.199 562.685 56.523 563.009 56.739C563.333 56.955 563.756 57.126 564.278 57.252C564.8 57.378 565.376 57.486 566.006 57.576C566.654 57.648 567.293 57.765 567.923 57.927C568.553 58.089 569.129 58.314 569.651 58.602C570.191 58.872 570.623 59.259 570.947 59.763C571.271 60.267 571.433 60.924 571.433 61.734C571.433 62.634 571.163 63.417 570.623 64.083C570.101 64.749 569.354 65.271 568.382 65.649C567.41 66.009 566.249 66.189 564.899 66.189Z" fill="white"/>
<path d="M155.4 99.12C154.347 99.12 153.367 98.9467 152.46 98.6C151.567 98.24 150.787 97.74 150.12 97.1C149.467 96.4467 148.953 95.6933 148.58 94.84C148.22 93.9733 148.04 93.0267 148.04 92C148.04 90.9733 148.22 90.0333 148.58 89.18C148.953 88.3133 149.467 87.56 150.12 86.92C150.787 86.2667 151.567 85.7667 152.46 85.42C153.353 85.06 154.333 84.88 155.4 84.88C156.453 84.88 157.427 85.06 158.32 85.42C159.213 85.7667 159.987 86.26 160.64 86.9C161.307 87.54 161.82 88.2933 162.18 89.16C162.553 90.0267 162.74 90.9733 162.74 92C162.74 93.0267 162.553 93.9733 162.18 94.84C161.82 95.7067 161.307 96.46 160.64 97.1C159.987 97.74 159.213 98.24 158.32 98.6C157.427 98.9467 156.453 99.12 155.4 99.12ZM155.4 97.8C156.24 97.8 157.013 97.66 157.72 97.38C158.44 97.0867 159.06 96.68 159.58 96.16C160.113 95.6267 160.527 95.0133 160.82 94.32C161.113 93.6133 161.26 92.84 161.26 92C161.26 91.16 161.113 90.3933 160.82 89.7C160.527 88.9933 160.113 88.38 159.58 87.86C159.06 87.3267 158.44 86.92 157.72 86.64C157.013 86.3467 156.24 86.2 155.4 86.2C154.56 86.2 153.78 86.3467 153.06 86.64C152.34 86.92 151.713 87.3267 151.18 87.86C150.66 88.38 150.247 88.9933 149.94 89.7C149.647 90.3933 149.5 91.16 149.5 92C149.5 92.8267 149.647 93.5933 149.94 94.3C150.247 95.0067 150.66 95.6267 151.18 96.16C151.713 96.68 152.34 97.0867 153.06 97.38C153.78 97.66 154.56 97.8 155.4 97.8ZM170.097 99.1C169.204 99.1 168.424 98.9333 167.757 98.6C167.091 98.2667 166.571 97.7667 166.197 97.1C165.837 96.4333 165.657 95.6 165.657 94.6V88.5H167.077V94.44C167.077 95.56 167.351 96.4067 167.897 96.98C168.457 97.54 169.237 97.82 170.237 97.82C170.971 97.82 171.604 97.6733 172.137 97.38C172.684 97.0733 173.097 96.6333 173.377 96.06C173.671 95.4867 173.817 94.8 173.817 94V88.5H175.237V99H173.877V96.12L174.097 96.64C173.764 97.4133 173.244 98.02 172.537 98.46C171.844 98.8867 171.031 99.1 170.097 99.1ZM179.195 99V88.5H180.555V91.36L180.415 90.86C180.708 90.06 181.202 89.4533 181.895 89.04C182.588 88.6133 183.448 88.4 184.475 88.4V89.78C184.422 89.78 184.368 89.78 184.315 89.78C184.262 89.7667 184.208 89.76 184.155 89.76C183.048 89.76 182.182 90.1 181.555 90.78C180.928 91.4467 180.615 92.4 180.615 93.64V99H179.195ZM195.777 99.1C194.79 99.1 194.03 98.8333 193.497 98.3C192.963 97.7667 192.697 97.0133 192.697 96.04V86.18H194.117V95.96C194.117 96.5733 194.27 97.0467 194.577 97.38C194.897 97.7133 195.35 97.88 195.937 97.88C196.563 97.88 197.083 97.7 197.497 97.34L197.997 98.36C197.717 98.6133 197.377 98.8 196.977 98.92C196.59 99.04 196.19 99.1 195.777 99.1ZM190.817 89.68V88.5H197.317V89.68H190.817ZM200.582 99V88.5H201.942V91.36L201.802 90.86C202.095 90.06 202.588 89.4533 203.282 89.04C203.975 88.6133 204.835 88.4 205.862 88.4V89.78C205.808 89.78 205.755 89.78 205.702 89.78C205.648 89.7667 205.595 89.76 205.542 89.76C204.435 89.76 203.568 90.1 202.942 90.78C202.315 91.4467 202.002 92.4 202.002 93.64V99H200.582ZM212.949 99.1C212.056 99.1 211.276 98.9333 210.609 98.6C209.942 98.2667 209.422 97.7667 209.049 97.1C208.689 96.4333 208.509 95.6 208.509 94.6V88.5H209.929V94.44C209.929 95.56 210.202 96.4067 210.749 96.98C211.309 97.54 212.089 97.82 213.089 97.82C213.822 97.82 214.456 97.6733 214.989 97.38C215.536 97.0733 215.949 96.6333 216.229 96.06C216.522 95.4867 216.669 94.8 216.669 94V88.5H218.089V99H216.729V96.12L216.949 96.64C216.616 97.4133 216.096 98.02 215.389 98.46C214.696 98.8867 213.882 99.1 212.949 99.1ZM224.866 99.1C224 99.1 223.18 98.98 222.406 98.74C221.633 98.4867 221.026 98.1733 220.586 97.8L221.226 96.68C221.653 97 222.2 97.28 222.866 97.52C223.533 97.7467 224.233 97.86 224.966 97.86C225.966 97.86 226.686 97.7067 227.126 97.4C227.566 97.08 227.786 96.66 227.786 96.14C227.786 95.7533 227.66 95.4533 227.406 95.24C227.166 95.0133 226.846 94.8467 226.446 94.74C226.046 94.62 225.6 94.52 225.106 94.44C224.613 94.36 224.12 94.2667 223.626 94.16C223.146 94.0533 222.706 93.9 222.306 93.7C221.906 93.4867 221.58 93.2 221.326 92.84C221.086 92.48 220.966 92 220.966 91.4C220.966 90.8267 221.126 90.3133 221.446 89.86C221.766 89.4067 222.233 89.0533 222.846 88.8C223.473 88.5333 224.233 88.4 225.126 88.4C225.806 88.4 226.486 88.4933 227.166 88.68C227.846 88.8533 228.406 89.0867 228.846 89.38L228.226 90.52C227.76 90.2 227.26 89.9733 226.726 89.84C226.193 89.6933 225.66 89.62 225.126 89.62C224.18 89.62 223.48 89.7867 223.026 90.12C222.586 90.44 222.366 90.8533 222.366 91.36C222.366 91.76 222.486 92.0733 222.726 92.3C222.98 92.5267 223.306 92.7067 223.706 92.84C224.12 92.96 224.566 93.06 225.046 93.14C225.54 93.22 226.026 93.32 226.506 93.44C227 93.5467 227.446 93.7 227.846 93.9C228.26 94.0867 228.586 94.36 228.826 94.72C229.08 95.0667 229.206 95.5267 229.206 96.1C229.206 96.7133 229.033 97.2467 228.686 97.7C228.353 98.14 227.86 98.4867 227.206 98.74C226.566 98.98 225.786 99.1 224.866 99.1ZM235.132 99.1C234.145 99.1 233.385 98.8333 232.852 98.3C232.319 97.7667 232.052 97.0133 232.052 96.04V86.18H233.472V95.96C233.472 96.5733 233.625 97.0467 233.932 97.38C234.252 97.7133 234.705 97.88 235.292 97.88C235.919 97.88 236.439 97.7 236.852 97.34L237.352 98.36C237.072 98.6133 236.732 98.8 236.332 98.92C235.945 99.04 235.545 99.1 235.132 99.1ZM230.172 89.68V88.5H236.672V89.68H230.172ZM244.026 99.1C242.933 99.1 241.973 98.8733 241.146 98.42C240.319 97.9533 239.673 97.32 239.206 96.52C238.739 95.7067 238.506 94.78 238.506 93.74C238.506 92.7 238.726 91.78 239.166 90.98C239.619 90.18 240.233 89.5533 241.006 89.1C241.793 88.6333 242.673 88.4 243.646 88.4C244.633 88.4 245.506 88.6267 246.266 89.08C247.039 89.52 247.646 90.1467 248.086 90.96C248.526 91.76 248.746 92.6867 248.746 93.74C248.746 93.8067 248.739 93.88 248.726 93.96C248.726 94.0267 248.726 94.1 248.726 94.18H239.586V93.12H247.966L247.406 93.54C247.406 92.78 247.239 92.1067 246.906 91.52C246.586 90.92 246.146 90.4533 245.586 90.12C245.026 89.7867 244.379 89.62 243.646 89.62C242.926 89.62 242.279 89.7867 241.706 90.12C241.133 90.4533 240.686 90.92 240.366 91.52C240.046 92.12 239.886 92.8067 239.886 93.58V93.8C239.886 94.6 240.059 95.3067 240.406 95.92C240.766 96.52 241.259 96.9933 241.886 97.34C242.526 97.6733 243.253 97.84 244.066 97.84C244.706 97.84 245.299 97.7267 245.846 97.5C246.406 97.2733 246.886 96.9267 247.286 96.46L248.086 97.38C247.619 97.94 247.033 98.3667 246.326 98.66C245.633 98.9533 244.866 99.1 244.026 99.1ZM255.816 99.1C254.816 99.1 253.916 98.8733 253.116 98.42C252.33 97.9667 251.71 97.34 251.256 96.54C250.803 95.7267 250.576 94.7933 250.576 93.74C250.576 92.6733 250.803 91.74 251.256 90.94C251.71 90.14 252.33 89.52 253.116 89.08C253.916 88.6267 254.816 88.4 255.816 88.4C256.736 88.4 257.556 88.6067 258.276 89.02C259.01 89.4333 259.59 90.04 260.016 90.84C260.456 91.6267 260.676 92.5933 260.676 93.74C260.676 94.8733 260.463 95.84 260.036 96.64C259.61 97.44 259.03 98.0533 258.296 98.48C257.576 98.8933 256.75 99.1 255.816 99.1ZM255.916 97.84C256.663 97.84 257.33 97.6733 257.916 97.34C258.516 96.9933 258.983 96.5133 259.316 95.9C259.663 95.2733 259.836 94.5533 259.836 93.74C259.836 92.9133 259.663 92.1933 259.316 91.58C258.983 90.9667 258.516 90.4933 257.916 90.16C257.33 89.8133 256.663 89.64 255.916 89.64C255.183 89.64 254.523 89.8133 253.936 90.16C253.35 90.4933 252.883 90.9667 252.536 91.58C252.19 92.1933 252.016 92.9133 252.016 93.74C252.016 94.5533 252.19 95.2733 252.536 95.9C252.883 96.5133 253.35 96.9933 253.936 97.34C254.523 97.6733 255.183 97.84 255.916 97.84ZM259.876 99V95.84L260.016 93.72L259.816 91.6V84.16H261.236V99H259.876ZM275.845 99.1C274.939 99.1 274.119 98.8933 273.385 98.48C272.652 98.0533 272.065 97.4467 271.625 96.66C271.199 95.86 270.985 94.8867 270.985 93.74C270.985 92.5933 271.199 91.6267 271.625 90.84C272.052 90.04 272.632 89.4333 273.365 89.02C274.099 88.6067 274.925 88.4 275.845 88.4C276.845 88.4 277.739 88.6267 278.525 89.08C279.325 89.52 279.952 90.1467 280.405 90.96C280.859 91.76 281.085 92.6867 281.085 93.74C281.085 94.8067 280.859 95.74 280.405 96.54C279.952 97.34 279.325 97.9667 278.525 98.42C277.739 98.8733 276.845 99.1 275.845 99.1ZM270.425 102.88V88.5H271.785V91.66L271.645 93.76L271.845 95.88V102.88H270.425ZM275.745 97.84C276.492 97.84 277.159 97.6733 277.745 97.34C278.332 96.9933 278.799 96.5133 279.145 95.9C279.492 95.2733 279.665 94.5533 279.665 93.74C279.665 92.9267 279.492 92.2133 279.145 91.6C278.799 90.9867 278.332 90.5067 277.745 90.16C277.159 89.8133 276.492 89.64 275.745 89.64C274.999 89.64 274.325 89.8133 273.725 90.16C273.139 90.5067 272.672 90.9867 272.325 91.6C271.992 92.2133 271.825 92.9267 271.825 93.74C271.825 94.5533 271.992 95.2733 272.325 95.9C272.672 96.5133 273.139 96.9933 273.725 97.34C274.325 97.6733 274.999 97.84 275.745 97.84ZM290.501 99V96.68L290.441 96.3V92.42C290.441 91.5267 290.188 90.84 289.681 90.36C289.188 89.88 288.448 89.64 287.461 89.64C286.781 89.64 286.135 89.7533 285.521 89.98C284.908 90.2067 284.388 90.5067 283.961 90.88L283.321 89.82C283.855 89.3667 284.495 89.02 285.241 88.78C285.988 88.5267 286.775 88.4 287.601 88.4C288.961 88.4 290.008 88.74 290.741 89.42C291.488 90.0867 291.861 91.1067 291.861 92.48V99H290.501ZM286.881 99.1C286.095 99.1 285.408 98.9733 284.821 98.72C284.248 98.4533 283.808 98.0933 283.501 97.64C283.195 97.1733 283.041 96.64 283.041 96.04C283.041 95.4933 283.168 95 283.421 94.56C283.688 94.1067 284.115 93.7467 284.701 93.48C285.301 93.2 286.101 93.06 287.101 93.06H290.721V94.12H287.141C286.128 94.12 285.421 94.3 285.021 94.66C284.635 95.02 284.441 95.4667 284.441 96C284.441 96.6 284.675 97.08 285.141 97.44C285.608 97.8 286.261 97.98 287.101 97.98C287.901 97.98 288.588 97.8 289.161 97.44C289.748 97.0667 290.175 96.5333 290.441 95.84L290.761 96.82C290.495 97.5133 290.028 98.0667 289.361 98.48C288.708 98.8933 287.881 99.1 286.881 99.1ZM295.718 99V88.5H297.078V91.36L296.938 90.86C297.232 90.06 297.725 89.4533 298.418 89.04C299.112 88.6133 299.972 88.4 300.998 88.4V89.78C300.945 89.78 300.892 89.78 300.838 89.78C300.785 89.7667 300.732 89.76 300.678 89.76C299.572 89.76 298.705 90.1 298.078 90.78C297.452 91.4467 297.138 92.4 297.138 93.64V99H295.718ZM307.359 99.1C306.372 99.1 305.612 98.8333 305.079 98.3C304.545 97.7667 304.279 97.0133 304.279 96.04V86.18H305.699V95.96C305.699 96.5733 305.852 97.0467 306.159 97.38C306.479 97.7133 306.932 97.88 307.519 97.88C308.145 97.88 308.665 97.7 309.079 97.34L309.579 98.36C309.299 98.6133 308.959 98.8 308.559 98.92C308.172 99.04 307.772 99.1 307.359 99.1ZM302.399 89.68V88.5H308.899V89.68H302.399ZM317.524 88.4C318.377 88.4 319.124 88.5667 319.764 88.9C320.417 89.22 320.924 89.7133 321.284 90.38C321.657 91.0467 321.844 91.8867 321.844 92.9V99H320.424V93.04C320.424 91.9333 320.144 91.1 319.584 90.54C319.037 89.9667 318.264 89.68 317.264 89.68C316.517 89.68 315.864 89.8333 315.304 90.14C314.757 90.4333 314.33 90.8667 314.024 91.44C313.73 92 313.584 92.68 313.584 93.48V99H312.164V88.5H313.524V91.38L313.304 90.84C313.637 90.08 314.17 89.4867 314.904 89.06C315.637 88.62 316.51 88.4 317.524 88.4ZM330.139 99.1C329.046 99.1 328.086 98.8733 327.259 98.42C326.433 97.9533 325.786 97.32 325.319 96.52C324.853 95.7067 324.619 94.78 324.619 93.74C324.619 92.7 324.839 91.78 325.279 90.98C325.733 90.18 326.346 89.5533 327.119 89.1C327.906 88.6333 328.786 88.4 329.759 88.4C330.746 88.4 331.619 88.6267 332.379 89.08C333.153 89.52 333.759 90.1467 334.199 90.96C334.639 91.76 334.859 92.6867 334.859 93.74C334.859 93.8067 334.853 93.88 334.839 93.96C334.839 94.0267 334.839 94.1 334.839 94.18H325.699V93.12H334.079L333.519 93.54C333.519 92.78 333.353 92.1067 333.019 91.52C332.699 90.92 332.259 90.4533 331.699 90.12C331.139 89.7867 330.493 89.62 329.759 89.62C329.039 89.62 328.393 89.7867 327.819 90.12C327.246 90.4533 326.799 90.92 326.479 91.52C326.159 92.12 325.999 92.8067 325.999 93.58V93.8C325.999 94.6 326.173 95.3067 326.519 95.92C326.879 96.52 327.373 96.9933 327.999 97.34C328.639 97.6733 329.366 97.84 330.179 97.84C330.819 97.84 331.413 97.7267 331.959 97.5C332.519 97.2733 332.999 96.9267 333.399 96.46L334.199 97.38C333.733 97.94 333.146 98.3667 332.439 98.66C331.746 98.9533 330.979 99.1 330.139 99.1ZM337.75 99V88.5H339.11V91.36L338.97 90.86C339.263 90.06 339.756 89.4533 340.45 89.04C341.143 88.6133 342.003 88.4 343.03 88.4V89.78C342.976 89.78 342.923 89.78 342.87 89.78C342.816 89.7667 342.763 89.76 342.71 89.76C341.603 89.76 340.736 90.1 340.11 90.78C339.483 91.4467 339.17 92.4 339.17 93.64V99H337.75ZM348.558 99.1C347.691 99.1 346.871 98.98 346.098 98.74C345.324 98.4867 344.718 98.1733 344.278 97.8L344.918 96.68C345.344 97 345.891 97.28 346.558 97.52C347.224 97.7467 347.924 97.86 348.658 97.86C349.658 97.86 350.378 97.7067 350.818 97.4C351.258 97.08 351.478 96.66 351.478 96.14C351.478 95.7533 351.351 95.4533 351.098 95.24C350.858 95.0133 350.538 94.8467 350.138 94.74C349.738 94.62 349.291 94.52 348.798 94.44C348.304 94.36 347.811 94.2667 347.318 94.16C346.838 94.0533 346.398 93.9 345.998 93.7C345.598 93.4867 345.271 93.2 345.018 92.84C344.778 92.48 344.658 92 344.658 91.4C344.658 90.8267 344.818 90.3133 345.138 89.86C345.458 89.4067 345.924 89.0533 346.538 88.8C347.164 88.5333 347.924 88.4 348.818 88.4C349.498 88.4 350.178 88.4933 350.858 88.68C351.538 88.8533 352.098 89.0867 352.538 89.38L351.918 90.52C351.451 90.2 350.951 89.9733 350.418 89.84C349.884 89.6933 349.351 89.62 348.818 89.62C347.871 89.62 347.171 89.7867 346.718 90.12C346.278 90.44 346.058 90.8533 346.058 91.36C346.058 91.76 346.178 92.0733 346.418 92.3C346.671 92.5267 346.998 92.7067 347.398 92.84C347.811 92.96 348.258 93.06 348.738 93.14C349.231 93.22 349.718 93.32 350.198 93.44C350.691 93.5467 351.138 93.7 351.538 93.9C351.951 94.0867 352.278 94.36 352.518 94.72C352.771 95.0667 352.898 95.5267 352.898 96.1C352.898 96.7133 352.724 97.2467 352.378 97.7C352.044 98.14 351.551 98.4867 350.898 98.74C350.258 98.98 349.478 99.1 348.558 99.1ZM367.318 99V96.68L367.258 96.3V92.42C367.258 91.5267 367.004 90.84 366.498 90.36C366.004 89.88 365.264 89.64 364.278 89.64C363.598 89.64 362.951 89.7533 362.338 89.98C361.724 90.2067 361.204 90.5067 360.778 90.88L360.138 89.82C360.671 89.3667 361.311 89.02 362.058 88.78C362.804 88.5267 363.591 88.4 364.418 88.4C365.778 88.4 366.824 88.74 367.558 89.42C368.304 90.0867 368.678 91.1067 368.678 92.48V99H367.318ZM363.698 99.1C362.911 99.1 362.224 98.9733 361.638 98.72C361.064 98.4533 360.624 98.0933 360.318 97.64C360.011 97.1733 359.858 96.64 359.858 96.04C359.858 95.4933 359.984 95 360.238 94.56C360.504 94.1067 360.931 93.7467 361.518 93.48C362.118 93.2 362.918 93.06 363.918 93.06H367.538V94.12H363.958C362.944 94.12 362.238 94.3 361.838 94.66C361.451 95.02 361.258 95.4667 361.258 96C361.258 96.6 361.491 97.08 361.958 97.44C362.424 97.8 363.078 97.98 363.918 97.98C364.718 97.98 365.404 97.8 365.978 97.44C366.564 97.0667 366.991 96.5333 367.258 95.84L367.578 96.82C367.311 97.5133 366.844 98.0667 366.178 98.48C365.524 98.8933 364.698 99.1 363.698 99.1ZM372.535 99V88.5H373.895V91.36L373.755 90.86C374.048 90.06 374.541 89.4533 375.235 89.04C375.928 88.6133 376.788 88.4 377.815 88.4V89.78C377.761 89.78 377.708 89.78 377.655 89.78C377.601 89.7667 377.548 89.76 377.495 89.76C376.388 89.76 375.521 90.1 374.895 90.78C374.268 91.4467 373.955 92.4 373.955 93.64V99H372.535ZM384.768 99.1C383.675 99.1 382.715 98.8733 381.888 98.42C381.061 97.9533 380.415 97.32 379.948 96.52C379.481 95.7067 379.248 94.78 379.248 93.74C379.248 92.7 379.468 91.78 379.908 90.98C380.361 90.18 380.975 89.5533 381.748 89.1C382.535 88.6333 383.415 88.4 384.388 88.4C385.375 88.4 386.248 88.6267 387.008 89.08C387.781 89.52 388.388 90.1467 388.828 90.96C389.268 91.76 389.488 92.6867 389.488 93.74C389.488 93.8067 389.481 93.88 389.468 93.96C389.468 94.0267 389.468 94.1 389.468 94.18H380.328V93.12H388.708L388.148 93.54C388.148 92.78 387.981 92.1067 387.648 91.52C387.328 90.92 386.888 90.4533 386.328 90.12C385.768 89.7867 385.121 89.62 384.388 89.62C383.668 89.62 383.021 89.7867 382.448 90.12C381.875 90.4533 381.428 90.92 381.108 91.52C380.788 92.12 380.628 92.8067 380.628 93.58V93.8C380.628 94.6 380.801 95.3067 381.148 95.92C381.508 96.52 382.001 96.9933 382.628 97.34C383.268 97.6733 383.995 97.84 384.808 97.84C385.448 97.84 386.041 97.7267 386.588 97.5C387.148 97.2733 387.628 96.9267 388.028 96.46L388.828 97.38C388.361 97.94 387.775 98.3667 387.068 98.66C386.375 98.9533 385.608 99.1 384.768 99.1ZM400.313 99L395.653 88.5H397.133L401.413 98.24H400.713L405.053 88.5H406.453L401.773 99H400.313ZM412.62 99.1C411.526 99.1 410.566 98.8733 409.74 98.42C408.913 97.9533 408.266 97.32 407.8 96.52C407.333 95.7067 407.1 94.78 407.1 93.74C407.1 92.7 407.32 91.78 407.76 90.98C408.213 90.18 408.826 89.5533 409.6 89.1C410.386 88.6333 411.266 88.4 412.24 88.4C413.226 88.4 414.1 88.6267 414.86 89.08C415.633 89.52 416.24 90.1467 416.68 90.96C417.12 91.76 417.34 92.6867 417.34 93.74C417.34 93.8067 417.333 93.88 417.32 93.96C417.32 94.0267 417.32 94.1 417.32 94.18H408.18V93.12H416.56L416 93.54C416 92.78 415.833 92.1067 415.5 91.52C415.18 90.92 414.74 90.4533 414.18 90.12C413.62 89.7867 412.973 89.62 412.24 89.62C411.52 89.62 410.873 89.7867 410.3 90.12C409.726 90.4533 409.28 90.92 408.96 91.52C408.64 92.12 408.48 92.8067 408.48 93.58V93.8C408.48 94.6 408.653 95.3067 409 95.92C409.36 96.52 409.853 96.9933 410.48 97.34C411.12 97.6733 411.846 97.84 412.66 97.84C413.3 97.84 413.893 97.7267 414.44 97.5C415 97.2733 415.48 96.9267 415.88 96.46L416.68 97.38C416.213 97.94 415.626 98.3667 414.92 98.66C414.226 98.9533 413.46 99.1 412.62 99.1ZM420.23 99V88.5H421.59V91.36L421.45 90.86C421.743 90.06 422.237 89.4533 422.93 89.04C423.623 88.6133 424.483 88.4 425.51 88.4V89.78C425.457 89.78 425.403 89.78 425.35 89.78C425.297 89.7667 425.243 89.76 425.19 89.76C424.083 89.76 423.217 90.1 422.59 90.78C421.963 91.4467 421.65 92.4 421.65 93.64V99H420.23ZM428.101 99V88.5H429.521V99H428.101ZM428.821 86.18C428.528 86.18 428.281 86.08 428.081 85.88C427.881 85.68 427.781 85.44 427.781 85.16C427.781 84.88 427.881 84.6467 428.081 84.46C428.281 84.26 428.528 84.16 428.821 84.16C429.114 84.16 429.361 84.2533 429.561 84.44C429.761 84.6267 429.861 84.86 429.861 85.14C429.861 85.4333 429.761 85.68 429.561 85.88C429.374 86.08 429.128 86.18 428.821 86.18ZM433.712 99V87.18C433.712 86.2467 433.986 85.4933 434.532 84.92C435.079 84.3467 435.866 84.06 436.892 84.06C437.292 84.06 437.679 84.1133 438.052 84.22C438.426 84.3267 438.739 84.4933 438.992 84.72L438.512 85.78C438.312 85.6067 438.079 85.48 437.812 85.4C437.546 85.3067 437.259 85.26 436.952 85.26C436.352 85.26 435.892 85.4267 435.572 85.76C435.252 86.0933 435.092 86.5867 435.092 87.24V88.84L435.132 89.5V99H433.712ZM431.832 89.68V88.5H438.332V89.68H431.832ZM440.252 99V88.5H441.672V99H440.252ZM440.972 86.18C440.679 86.18 440.432 86.08 440.232 85.88C440.032 85.68 439.932 85.44 439.932 85.16C439.932 84.88 440.032 84.6467 440.232 84.46C440.432 84.26 440.679 84.16 440.972 84.16C441.266 84.16 441.512 84.2533 441.712 84.44C441.912 84.6267 442.012 84.86 442.012 85.14C442.012 85.4333 441.912 85.68 441.712 85.88C441.526 86.08 441.279 86.18 440.972 86.18ZM450.12 99.1C449.026 99.1 448.066 98.8733 447.24 98.42C446.413 97.9533 445.766 97.32 445.3 96.52C444.833 95.7067 444.6 94.78 444.6 93.74C444.6 92.7 444.82 91.78 445.26 90.98C445.713 90.18 446.326 89.5533 447.1 89.1C447.886 88.6333 448.766 88.4 449.74 88.4C450.726 88.4 451.6 88.6267 452.36 89.08C453.133 89.52 453.74 90.1467 454.18 90.96C454.62 91.76 454.84 92.6867 454.84 93.74C454.84 93.8067 454.833 93.88 454.82 93.96C454.82 94.0267 454.82 94.1 454.82 94.18H445.68V93.12H454.06L453.5 93.54C453.5 92.78 453.333 92.1067 453 91.52C452.68 90.92 452.24 90.4533 451.68 90.12C451.12 89.7867 450.473 89.62 449.74 89.62C449.02 89.62 448.373 89.7867 447.8 90.12C447.226 90.4533 446.78 90.92 446.46 91.52C446.14 92.12 445.98 92.8067 445.98 93.58V93.8C445.98 94.6 446.153 95.3067 446.5 95.92C446.86 96.52 447.353 96.9933 447.98 97.34C448.62 97.6733 449.346 97.84 450.16 97.84C450.8 97.84 451.393 97.7267 451.94 97.5C452.5 97.2733 452.98 96.9267 453.38 96.46L454.18 97.38C453.713 97.94 453.126 98.3667 452.42 98.66C451.726 98.9533 450.96 99.1 450.12 99.1ZM461.91 99.1C460.91 99.1 460.01 98.8733 459.21 98.42C458.423 97.9667 457.803 97.34 457.35 96.54C456.897 95.7267 456.67 94.7933 456.67 93.74C456.67 92.6733 456.897 91.74 457.35 90.94C457.803 90.14 458.423 89.52 459.21 89.08C460.01 88.6267 460.91 88.4 461.91 88.4C462.83 88.4 463.65 88.6067 464.37 89.02C465.103 89.4333 465.683 90.04 466.11 90.84C466.55 91.6267 466.77 92.5933 466.77 93.74C466.77 94.8733 466.557 95.84 466.13 96.64C465.703 97.44 465.123 98.0533 464.39 98.48C463.67 98.8933 462.843 99.1 461.91 99.1ZM462.01 97.84C462.757 97.84 463.423 97.6733 464.01 97.34C464.61 96.9933 465.077 96.5133 465.41 95.9C465.757 95.2733 465.93 94.5533 465.93 93.74C465.93 92.9133 465.757 92.1933 465.41 91.58C465.077 90.9667 464.61 90.4933 464.01 90.16C463.423 89.8133 462.757 89.64 462.01 89.64C461.277 89.64 460.617 89.8133 460.03 90.16C459.443 90.4933 458.977 90.9667 458.63 91.58C458.283 92.1933 458.11 92.9133 458.11 93.74C458.11 94.5533 458.283 95.2733 458.63 95.9C458.977 96.5133 459.443 96.9933 460.03 97.34C460.617 97.6733 461.277 97.84 462.01 97.84ZM465.97 99V95.84L466.11 93.72L465.91 91.6V84.16H467.33V99H465.97ZM476.759 99V87.18C476.759 86.2467 477.032 85.4933 477.579 84.92C478.126 84.3467 478.912 84.06 479.939 84.06C480.339 84.06 480.726 84.1133 481.099 84.22C481.472 84.3267 481.786 84.4933 482.039 84.72L481.559 85.78C481.359 85.6067 481.126 85.48 480.859 85.4C480.592 85.3067 480.306 85.26 479.999 85.26C479.399 85.26 478.939 85.4267 478.619 85.76C478.299 86.0933 478.139 86.5867 478.139 87.24V88.84L478.179 89.5V99H476.759ZM474.879 89.68V88.5H481.379V89.68H474.879ZM487.401 99.1C486.387 99.1 485.474 98.8733 484.661 98.42C483.861 97.9533 483.227 97.32 482.761 96.52C482.294 95.7067 482.061 94.78 482.061 93.74C482.061 92.6867 482.294 91.76 482.761 90.96C483.227 90.16 483.861 89.5333 484.661 89.08C485.461 88.6267 486.374 88.4 487.401 88.4C488.441 88.4 489.361 88.6267 490.161 89.08C490.974 89.5333 491.607 90.16 492.061 90.96C492.527 91.76 492.761 92.6867 492.761 93.74C492.761 94.78 492.527 95.7067 492.061 96.52C491.607 97.32 490.974 97.9533 490.161 98.42C489.347 98.8733 488.427 99.1 487.401 99.1ZM487.401 97.84C488.161 97.84 488.834 97.6733 489.421 97.34C490.007 96.9933 490.467 96.5133 490.801 95.9C491.147 95.2733 491.321 94.5533 491.321 93.74C491.321 92.9133 491.147 92.1933 490.801 91.58C490.467 90.9667 490.007 90.4933 489.421 90.16C488.834 89.8133 488.167 89.64 487.421 89.64C486.674 89.64 486.007 89.8133 485.421 90.16C484.834 90.4933 484.367 90.9667 484.021 91.58C483.674 92.1933 483.501 92.9133 483.501 93.74C483.501 94.5533 483.674 95.2733 484.021 95.9C484.367 96.5133 484.834 96.9933 485.421 97.34C486.007 97.6733 486.667 97.84 487.401 97.84ZM495.66 99V88.5H497.02V91.36L496.88 90.86C497.173 90.06 497.666 89.4533 498.36 89.04C499.053 88.6133 499.913 88.4 500.94 88.4V89.78C500.886 89.78 500.833 89.78 500.78 89.78C500.726 89.7667 500.673 89.76 500.62 89.76C499.513 89.76 498.646 90.1 498.02 90.78C497.393 91.4467 497.08 92.4 497.08 93.64V99H495.66ZM513.101 99.1C512.101 99.1 511.201 98.8733 510.401 98.42C509.615 97.9667 508.995 97.34 508.541 96.54C508.088 95.74 507.861 94.8067 507.861 93.74C507.861 92.6867 508.088 91.76 508.541 90.96C508.995 90.1467 509.615 89.52 510.401 89.08C511.201 88.6267 512.101 88.4 513.101 88.4C514.035 88.4 514.861 88.6067 515.581 89.02C516.315 89.4333 516.895 90.04 517.321 90.84C517.748 91.6267 517.961 92.5933 517.961 93.74C517.961 94.8867 517.741 95.86 517.301 96.66C516.875 97.4467 516.295 98.0533 515.561 98.48C514.841 98.8933 514.021 99.1 513.101 99.1ZM513.201 97.84C513.948 97.84 514.615 97.6733 515.201 97.34C515.801 96.9933 516.268 96.5133 516.601 95.9C516.948 95.2733 517.121 94.5533 517.121 93.74C517.121 92.9267 516.948 92.2133 516.601 91.6C516.268 90.9867 515.801 90.5067 515.201 90.16C514.615 89.8133 513.948 89.64 513.201 89.64C512.468 89.64 511.808 89.8133 511.221 90.16C510.635 90.5067 510.168 90.9867 509.821 91.6C509.475 92.2133 509.301 92.9267 509.301 93.74C509.301 94.5533 509.475 95.2733 509.821 95.9C510.168 96.5133 510.635 96.9933 511.221 97.34C511.808 97.6733 512.468 97.84 513.201 97.84ZM517.101 102.88V95.88L517.301 93.76L517.161 91.66V88.5H518.521V102.88H517.101ZM526.816 99.1C525.923 99.1 525.143 98.9333 524.476 98.6C523.809 98.2667 523.289 97.7667 522.916 97.1C522.556 96.4333 522.376 95.6 522.376 94.6V88.5H523.796V94.44C523.796 95.56 524.069 96.4067 524.616 96.98C525.176 97.54 525.956 97.82 526.956 97.82C527.689 97.82 528.323 97.6733 528.856 97.38C529.403 97.0733 529.816 96.6333 530.096 96.06C530.389 95.4867 530.536 94.8 530.536 94V88.5H531.956V99H530.596V96.12L530.816 96.64C530.483 97.4133 529.963 98.02 529.256 98.46C528.563 98.8867 527.749 99.1 526.816 99.1ZM542.494 99V96.68L542.434 96.3V92.42C542.434 91.5267 542.18 90.84 541.674 90.36C541.18 89.88 540.44 89.64 539.454 89.64C538.774 89.64 538.127 89.7533 537.514 89.98C536.9 90.2067 536.38 90.5067 535.954 90.88L535.314 89.82C535.847 89.3667 536.487 89.02 537.234 88.78C537.98 88.5267 538.767 88.4 539.594 88.4C540.954 88.4 542 88.74 542.734 89.42C543.48 90.0867 543.854 91.1067 543.854 92.48V99H542.494ZM538.874 99.1C538.087 99.1 537.4 98.9733 536.814 98.72C536.24 98.4533 535.8 98.0933 535.494 97.64C535.187 97.1733 535.034 96.64 535.034 96.04C535.034 95.4933 535.16 95 535.414 94.56C535.68 94.1067 536.107 93.7467 536.694 93.48C537.294 93.2 538.094 93.06 539.094 93.06H542.714V94.12H539.134C538.12 94.12 537.414 94.3 537.014 94.66C536.627 95.02 536.434 95.4667 536.434 96C536.434 96.6 536.667 97.08 537.134 97.44C537.6 97.8 538.254 97.98 539.094 97.98C539.894 97.98 540.58 97.8 541.154 97.44C541.74 97.0667 542.167 96.5333 542.434 95.84L542.754 96.82C542.487 97.5133 542.02 98.0667 541.354 98.48C540.7 98.8933 539.874 99.1 538.874 99.1ZM547.71 99V84.16H549.13V99H547.71ZM553.082 99V88.5H554.502V99H553.082ZM553.802 86.18C553.508 86.18 553.262 86.08 553.062 85.88C552.862 85.68 552.762 85.44 552.762 85.16C552.762 84.88 552.862 84.6467 553.062 84.46C553.262 84.26 553.508 84.16 553.802 84.16C554.095 84.16 554.342 84.2533 554.542 84.44C554.742 84.6267 554.842 84.86 554.842 85.14C554.842 85.4333 554.742 85.68 554.542 85.88C554.355 86.08 554.108 86.18 553.802 86.18ZM561.773 99.1C560.786 99.1 560.026 98.8333 559.493 98.3C558.959 97.7667 558.693 97.0133 558.693 96.04V86.18H560.113V95.96C560.113 96.5733 560.266 97.0467 560.573 97.38C560.893 97.7133 561.346 97.88 561.933 97.88C562.559 97.88 563.079 97.7 563.493 97.34L563.993 98.36C563.713 98.6133 563.373 98.8 562.973 98.92C562.586 99.04 562.186 99.1 561.773 99.1ZM556.813 89.68V88.5H563.313V89.68H556.813ZM566.462 102.98C565.969 102.98 565.496 102.9 565.042 102.74C564.602 102.58 564.222 102.34 563.902 102.02L564.562 100.96C564.829 101.213 565.116 101.407 565.422 101.54C565.742 101.687 566.096 101.76 566.482 101.76C566.949 101.76 567.349 101.627 567.682 101.36C568.029 101.107 568.356 100.653 568.662 100L569.342 98.46L569.502 98.24L573.822 88.5H575.222L569.962 100.26C569.669 100.94 569.342 101.48 568.982 101.88C568.636 102.28 568.256 102.56 567.842 102.72C567.429 102.893 566.969 102.98 566.462 102.98ZM569.262 99.3L564.422 88.5H565.902L570.182 98.14L569.262 99.3ZM589.037 99V96.68L588.977 96.3V92.42C588.977 91.5267 588.723 90.84 588.217 90.36C587.723 89.88 586.983 89.64 585.997 89.64C585.317 89.64 584.67 89.7533 584.057 89.98C583.443 90.2067 582.923 90.5067 582.497 90.88L581.857 89.82C582.39 89.3667 583.03 89.02 583.777 88.78C584.523 88.5267 585.31 88.4 586.137 88.4C587.497 88.4 588.543 88.74 589.277 89.42C590.023 90.0867 590.397 91.1067 590.397 92.48V99H589.037ZM585.417 99.1C584.63 99.1 583.943 98.9733 583.357 98.72C582.783 98.4533 582.343 98.0933 582.037 97.64C581.73 97.1733 581.577 96.64 581.577 96.04C581.577 95.4933 581.703 95 581.957 94.56C582.223 94.1067 582.65 93.7467 583.237 93.48C583.837 93.2 584.637 93.06 585.637 93.06H589.257V94.12H585.677C584.663 94.12 583.957 94.3 583.557 94.66C583.17 95.02 582.977 95.4667 582.977 96C582.977 96.6 583.21 97.08 583.677 97.44C584.143 97.8 584.797 97.98 585.637 97.98C586.437 97.98 587.123 97.8 587.697 97.44C588.283 97.0667 588.71 96.5333 588.977 95.84L589.297 96.82C589.03 97.5133 588.563 98.0667 587.897 98.48C587.243 98.8933 586.417 99.1 585.417 99.1ZM599.613 88.4C600.467 88.4 601.213 88.5667 601.853 88.9C602.507 89.22 603.013 89.7133 603.373 90.38C603.747 91.0467 603.933 91.8867 603.933 92.9V99H602.513V93.04C602.513 91.9333 602.233 91.1 601.673 90.54C601.127 89.9667 600.353 89.68 599.353 89.68C598.607 89.68 597.953 89.8333 597.393 90.14C596.847 90.4333 596.42 90.8667 596.113 91.44C595.82 92 595.673 92.68 595.673 93.48V99H594.253V88.5H595.613V91.38L595.393 90.84C595.727 90.08 596.26 89.4867 596.993 89.06C597.727 88.62 598.6 88.4 599.613 88.4ZM611.949 99.1C610.949 99.1 610.049 98.8733 609.249 98.42C608.462 97.9667 607.842 97.34 607.389 96.54C606.936 95.7267 606.709 94.7933 606.709 93.74C606.709 92.6733 606.936 91.74 607.389 90.94C607.842 90.14 608.462 89.52 609.249 89.08C610.049 88.6267 610.949 88.4 611.949 88.4C612.869 88.4 613.689 88.6067 614.409 89.02C615.142 89.4333 615.722 90.04 616.149 90.84C616.589 91.6267 616.809 92.5933 616.809 93.74C616.809 94.8733 616.596 95.84 616.169 96.64C615.742 97.44 615.162 98.0533 614.429 98.48C613.709 98.8933 612.882 99.1 611.949 99.1ZM612.049 97.84C612.796 97.84 613.462 97.6733 614.049 97.34C614.649 96.9933 615.116 96.5133 615.449 95.9C615.796 95.2733 615.969 94.5533 615.969 93.74C615.969 92.9133 615.796 92.1933 615.449 91.58C615.116 90.9667 614.649 90.4933 614.049 90.16C613.462 89.8133 612.796 89.64 612.049 89.64C611.316 89.64 610.656 89.8133 610.069 90.16C609.482 90.4933 609.016 90.9667 608.669 91.58C608.322 92.1933 608.149 92.9133 608.149 93.74C608.149 94.5533 608.322 95.2733 608.669 95.9C609.016 96.5133 609.482 96.9933 610.069 97.34C610.656 97.6733 611.316 97.84 612.049 97.84ZM616.009 99V95.84L616.149 93.72L615.949 91.6V84.16H617.369V99H616.009ZM148.98 123V112.5H150.34V115.36L150.2 114.86C150.493 114.06 150.987 113.453 151.68 113.04C152.373 112.613 153.233 112.4 154.26 112.4V113.78C154.207 113.78 154.153 113.78 154.1 113.78C154.047 113.767 153.993 113.76 153.94 113.76C152.833 113.76 151.967 114.1 151.34 114.78C150.713 115.447 150.4 116.4 150.4 117.64V123H148.98ZM161.213 123.1C160.12 123.1 159.16 122.873 158.333 122.42C157.507 121.953 156.86 121.32 156.393 120.52C155.927 119.707 155.693 118.78 155.693 117.74C155.693 116.7 155.913 115.78 156.353 114.98C156.807 114.18 157.42 113.553 158.193 113.1C158.98 112.633 159.86 112.4 160.833 112.4C161.82 112.4 162.693 112.627 163.453 113.08C164.227 113.52 164.833 114.147 165.273 114.96C165.713 115.76 165.933 116.687 165.933 117.74C165.933 117.807 165.927 117.88 165.913 117.96C165.913 118.027 165.913 118.1 165.913 118.18H156.773V117.12H165.153L164.593 117.54C164.593 116.78 164.427 116.107 164.093 115.52C163.773 114.92 163.333 114.453 162.773 114.12C162.213 113.787 161.567 113.62 160.833 113.62C160.113 113.62 159.467 113.787 158.893 114.12C158.32 114.453 157.873 114.92 157.553 115.52C157.233 116.12 157.073 116.807 157.073 117.58V117.8C157.073 118.6 157.247 119.307 157.593 119.92C157.953 120.52 158.447 120.993 159.073 121.34C159.713 121.673 160.44 121.84 161.253 121.84C161.893 121.84 162.487 121.727 163.033 121.5C163.593 121.273 164.073 120.927 164.473 120.46L165.273 121.38C164.807 121.94 164.22 122.367 163.513 122.66C162.82 122.953 162.053 123.1 161.213 123.1ZM168.824 123V108.16H170.244V123H168.824ZM174.195 123V112.5H175.615V123H174.195ZM174.915 110.18C174.622 110.18 174.375 110.08 174.175 109.88C173.975 109.68 173.875 109.44 173.875 109.16C173.875 108.88 173.975 108.647 174.175 108.46C174.375 108.26 174.622 108.16 174.915 108.16C175.208 108.16 175.455 108.253 175.655 108.44C175.855 108.627 175.955 108.86 175.955 109.14C175.955 109.433 175.855 109.68 175.655 109.88C175.468 110.08 175.222 110.18 174.915 110.18ZM186.146 123V120.68L186.086 120.3V116.42C186.086 115.527 185.833 114.84 185.326 114.36C184.833 113.88 184.093 113.64 183.106 113.64C182.426 113.64 181.779 113.753 181.166 113.98C180.553 114.207 180.033 114.507 179.606 114.88L178.966 113.82C179.499 113.367 180.139 113.02 180.886 112.78C181.633 112.527 182.419 112.4 183.246 112.4C184.606 112.4 185.653 112.74 186.386 113.42C187.133 114.087 187.506 115.107 187.506 116.48V123H186.146ZM182.526 123.1C181.739 123.1 181.053 122.973 180.466 122.72C179.893 122.453 179.453 122.093 179.146 121.64C178.839 121.173 178.686 120.64 178.686 120.04C178.686 119.493 178.813 119 179.066 118.56C179.333 118.107 179.759 117.747 180.346 117.48C180.946 117.2 181.746 117.06 182.746 117.06H186.366V118.12H182.786C181.773 118.12 181.066 118.3 180.666 118.66C180.279 119.02 180.086 119.467 180.086 120C180.086 120.6 180.319 121.08 180.786 121.44C181.253 121.8 181.906 121.98 182.746 121.98C183.546 121.98 184.233 121.8 184.806 121.44C185.393 121.067 185.819 120.533 186.086 119.84L186.406 120.82C186.139 121.513 185.673 122.067 185.006 122.48C184.353 122.893 183.526 123.1 182.526 123.1ZM196.783 123.1C195.863 123.1 195.036 122.893 194.303 122.48C193.569 122.053 192.989 121.44 192.563 120.64C192.136 119.84 191.923 118.873 191.923 117.74C191.923 116.593 192.136 115.627 192.563 114.84C193.003 114.04 193.589 113.433 194.323 113.02C195.056 112.607 195.876 112.4 196.783 112.4C197.783 112.4 198.676 112.627 199.463 113.08C200.263 113.52 200.889 114.14 201.343 114.94C201.796 115.74 202.023 116.673 202.023 117.74C202.023 118.793 201.796 119.727 201.343 120.54C200.889 121.34 200.263 121.967 199.463 122.42C198.676 122.873 197.783 123.1 196.783 123.1ZM191.363 123V108.16H192.783V115.6L192.583 117.72L192.723 119.84V123H191.363ZM196.683 121.84C197.429 121.84 198.096 121.673 198.683 121.34C199.269 120.993 199.736 120.513 200.083 119.9C200.429 119.273 200.603 118.553 200.603 117.74C200.603 116.913 200.429 116.193 200.083 115.58C199.736 114.967 199.269 114.493 198.683 114.16C198.096 113.813 197.429 113.64 196.683 113.64C195.936 113.64 195.263 113.813 194.663 114.16C194.076 114.493 193.609 114.967 193.263 115.58C192.929 116.193 192.763 116.913 192.763 117.74C192.763 118.553 192.929 119.273 193.263 119.9C193.609 120.513 194.076 120.993 194.663 121.34C195.263 121.673 195.936 121.84 196.683 121.84ZM204.918 123V112.5H206.338V123H204.918ZM205.638 110.18C205.344 110.18 205.098 110.08 204.898 109.88C204.698 109.68 204.598 109.44 204.598 109.16C204.598 108.88 204.698 108.647 204.898 108.46C205.098 108.26 205.344 108.16 205.638 108.16C205.931 108.16 206.178 108.253 206.378 108.44C206.578 108.627 206.678 108.86 206.678 109.14C206.678 109.433 206.578 109.68 206.378 109.88C206.191 110.08 205.944 110.18 205.638 110.18ZM210.289 123V108.16H211.709V123H210.289ZM215.66 123V112.5H217.08V123H215.66ZM216.38 110.18C216.086 110.18 215.84 110.08 215.64 109.88C215.44 109.68 215.34 109.44 215.34 109.16C215.34 108.88 215.44 108.647 215.64 108.46C215.84 108.26 216.086 108.16 216.38 108.16C216.673 108.16 216.92 108.253 217.12 108.44C217.32 108.627 217.42 108.86 217.42 109.14C217.42 109.433 217.32 109.68 217.12 109.88C216.933 110.08 216.686 110.18 216.38 110.18ZM224.351 123.1C223.364 123.1 222.604 122.833 222.071 122.3C221.537 121.767 221.271 121.013 221.271 120.04V110.18H222.691V119.96C222.691 120.573 222.844 121.047 223.151 121.38C223.471 121.713 223.924 121.88 224.511 121.88C225.137 121.88 225.657 121.7 226.071 121.34L226.571 122.36C226.291 122.613 225.951 122.8 225.551 122.92C225.164 123.04 224.764 123.1 224.351 123.1ZM219.391 113.68V112.5H225.891V113.68H219.391ZM229.04 126.98C228.547 126.98 228.074 126.9 227.62 126.74C227.18 126.58 226.8 126.34 226.48 126.02L227.14 124.96C227.407 125.213 227.694 125.407 228 125.54C228.32 125.687 228.674 125.76 229.06 125.76C229.527 125.76 229.927 125.627 230.26 125.36C230.607 125.107 230.934 124.653 231.24 124L231.92 122.46L232.08 122.24L236.4 112.5H237.8L232.54 124.26C232.247 124.94 231.92 125.48 231.56 125.88C231.214 126.28 230.834 126.56 230.42 126.72C230.007 126.893 229.547 126.98 229.04 126.98ZM231.84 123.3L227 112.5H228.48L232.76 122.14L231.84 123.3ZM238.257 125.92L239.137 122.22L239.297 123.08C238.99 123.08 238.73 122.98 238.517 122.78C238.317 122.58 238.217 122.32 238.217 122C238.217 121.68 238.317 121.42 238.517 121.22C238.73 121.02 238.983 120.92 239.277 120.92C239.583 120.92 239.83 121.027 240.017 121.24C240.217 121.453 240.317 121.707 240.317 122C240.317 122.107 240.31 122.213 240.297 122.32C240.283 122.427 240.257 122.547 240.217 122.68C240.177 122.813 240.123 122.973 240.057 123.16L239.217 125.92H238.257ZM251.409 123.1C250.543 123.1 249.723 122.98 248.949 122.74C248.176 122.487 247.569 122.173 247.129 121.8L247.769 120.68C248.196 121 248.743 121.28 249.409 121.52C250.076 121.747 250.776 121.86 251.509 121.86C252.509 121.86 253.229 121.707 253.669 121.4C254.109 121.08 254.329 120.66 254.329 120.14C254.329 119.753 254.203 119.453 253.949 119.24C253.709 119.013 253.389 118.847 252.989 118.74C252.589 118.62 252.143 118.52 251.649 118.44C251.156 118.36 250.663 118.267 250.169 118.16C249.689 118.053 249.249 117.9 248.849 117.7C248.449 117.487 248.123 117.2 247.869 116.84C247.629 116.48 247.509 116 247.509 115.4C247.509 114.827 247.669 114.313 247.989 113.86C248.309 113.407 248.776 113.053 249.389 112.8C250.016 112.533 250.776 112.4 251.669 112.4C252.349 112.4 253.029 112.493 253.709 112.68C254.389 112.853 254.949 113.087 255.389 113.38L254.769 114.52C254.303 114.2 253.803 113.973 253.269 113.84C252.736 113.693 252.203 113.62 251.669 113.62C250.723 113.62 250.023 113.787 249.569 114.12C249.129 114.44 248.909 114.853 248.909 115.36C248.909 115.76 249.029 116.073 249.269 116.3C249.523 116.527 249.849 116.707 250.249 116.84C250.663 116.96 251.109 117.06 251.589 117.14C252.083 117.22 252.569 117.32 253.049 117.44C253.543 117.547 253.989 117.7 254.389 117.9C254.803 118.087 255.129 118.36 255.369 118.72C255.623 119.067 255.749 119.527 255.749 120.1C255.749 120.713 255.576 121.247 255.229 121.7C254.896 122.14 254.403 122.487 253.749 122.74C253.109 122.98 252.329 123.1 251.409 123.1ZM262.635 123.1C261.622 123.1 260.708 122.873 259.895 122.42C259.095 121.953 258.462 121.32 257.995 120.52C257.528 119.707 257.295 118.78 257.295 117.74C257.295 116.687 257.528 115.76 257.995 114.96C258.462 114.16 259.095 113.533 259.895 113.08C260.695 112.627 261.608 112.4 262.635 112.4C263.675 112.4 264.595 112.627 265.395 113.08C266.208 113.533 266.842 114.16 267.295 114.96C267.762 115.76 267.995 116.687 267.995 117.74C267.995 118.78 267.762 119.707 267.295 120.52C266.842 121.32 266.208 121.953 265.395 122.42C264.582 122.873 263.662 123.1 262.635 123.1ZM262.635 121.84C263.395 121.84 264.068 121.673 264.655 121.34C265.242 120.993 265.702 120.513 266.035 119.9C266.382 119.273 266.555 118.553 266.555 117.74C266.555 116.913 266.382 116.193 266.035 115.58C265.702 114.967 265.242 114.493 264.655 114.16C264.068 113.813 263.402 113.64 262.655 113.64C261.908 113.64 261.242 113.813 260.655 114.16C260.068 114.493 259.602 114.967 259.255 115.58C258.908 116.193 258.735 116.913 258.735 117.74C258.735 118.553 258.908 119.273 259.255 119.9C259.602 120.513 260.068 120.993 260.655 121.34C261.242 121.673 261.902 121.84 262.635 121.84ZM276.208 126.98C275.715 126.98 275.242 126.9 274.788 126.74C274.348 126.58 273.968 126.34 273.648 126.02L274.308 124.96C274.575 125.213 274.862 125.407 275.168 125.54C275.488 125.687 275.842 125.76 276.228 125.76C276.695 125.76 277.095 125.627 277.428 125.36C277.775 125.107 278.102 124.653 278.408 124L279.088 122.46L279.248 122.24L283.568 112.5H284.968L279.708 124.26C279.415 124.94 279.088 125.48 278.728 125.88C278.382 126.28 278.002 126.56 277.588 126.72C277.175 126.893 276.715 126.98 276.208 126.98ZM279.008 123.3L274.168 112.5H275.648L279.928 122.14L279.008 123.3ZM290.955 123.1C289.942 123.1 289.029 122.873 288.215 122.42C287.415 121.953 286.782 121.32 286.315 120.52C285.849 119.707 285.615 118.78 285.615 117.74C285.615 116.687 285.849 115.76 286.315 114.96C286.782 114.16 287.415 113.533 288.215 113.08C289.015 112.627 289.929 112.4 290.955 112.4C291.995 112.4 292.915 112.627 293.715 113.08C294.529 113.533 295.162 114.16 295.615 114.96C296.082 115.76 296.315 116.687 296.315 117.74C296.315 118.78 296.082 119.707 295.615 120.52C295.162 121.32 294.529 121.953 293.715 122.42C292.902 122.873 291.982 123.1 290.955 123.1ZM290.955 121.84C291.715 121.84 292.389 121.673 292.975 121.34C293.562 120.993 294.022 120.513 294.355 119.9C294.702 119.273 294.875 118.553 294.875 117.74C294.875 116.913 294.702 116.193 294.355 115.58C294.022 114.967 293.562 114.493 292.975 114.16C292.389 113.813 291.722 113.64 290.975 113.64C290.229 113.64 289.562 113.813 288.975 114.16C288.389 114.493 287.922 114.967 287.575 115.58C287.229 116.193 287.055 116.913 287.055 117.74C287.055 118.553 287.229 119.273 287.575 119.9C287.922 120.513 288.389 120.993 288.975 121.34C289.562 121.673 290.222 121.84 290.955 121.84ZM303.554 123.1C302.661 123.1 301.881 122.933 301.214 122.6C300.548 122.267 300.028 121.767 299.654 121.1C299.294 120.433 299.114 119.6 299.114 118.6V112.5H300.534V118.44C300.534 119.56 300.808 120.407 301.354 120.98C301.914 121.54 302.694 121.82 303.694 121.82C304.428 121.82 305.061 121.673 305.594 121.38C306.141 121.073 306.554 120.633 306.834 120.06C307.128 119.487 307.274 118.8 307.274 118V112.5H308.694V123H307.334V120.12L307.554 120.64C307.221 121.413 306.701 122.02 305.994 122.46C305.301 122.887 304.488 123.1 303.554 123.1ZM322.246 123.1C321.206 123.1 320.273 122.873 319.446 122.42C318.633 121.953 317.993 121.32 317.526 120.52C317.06 119.707 316.826 118.78 316.826 117.74C316.826 116.687 317.06 115.76 317.526 114.96C317.993 114.16 318.633 113.533 319.446 113.08C320.273 112.627 321.206 112.4 322.246 112.4C323.14 112.4 323.946 112.573 324.666 112.92C325.386 113.267 325.953 113.787 326.366 114.48L325.306 115.2C324.946 114.667 324.5 114.273 323.966 114.02C323.433 113.767 322.853 113.64 322.226 113.64C321.48 113.64 320.806 113.813 320.206 114.16C319.606 114.493 319.133 114.967 318.786 115.58C318.44 116.193 318.266 116.913 318.266 117.74C318.266 118.567 318.44 119.287 318.786 119.9C319.133 120.513 319.606 120.993 320.206 121.34C320.806 121.673 321.48 121.84 322.226 121.84C322.853 121.84 323.433 121.713 323.966 121.46C324.5 121.207 324.946 120.82 325.306 120.3L326.366 121.02C325.953 121.7 325.386 122.22 324.666 122.58C323.946 122.927 323.14 123.1 322.246 123.1ZM335.736 123V120.68L335.676 120.3V116.42C335.676 115.527 335.422 114.84 334.916 114.36C334.422 113.88 333.682 113.64 332.696 113.64C332.016 113.64 331.369 113.753 330.756 113.98C330.142 114.207 329.622 114.507 329.196 114.88L328.556 113.82C329.089 113.367 329.729 113.02 330.476 112.78C331.222 112.527 332.009 112.4 332.836 112.4C334.196 112.4 335.242 112.74 335.976 113.42C336.722 114.087 337.096 115.107 337.096 116.48V123H335.736ZM332.116 123.1C331.329 123.1 330.642 122.973 330.056 122.72C329.482 122.453 329.042 122.093 328.736 121.64C328.429 121.173 328.276 120.64 328.276 120.04C328.276 119.493 328.402 119 328.656 118.56C328.922 118.107 329.349 117.747 329.936 117.48C330.536 117.2 331.336 117.06 332.336 117.06H335.956V118.12H332.376C331.362 118.12 330.656 118.3 330.256 118.66C329.869 119.02 329.676 119.467 329.676 120C329.676 120.6 329.909 121.08 330.376 121.44C330.842 121.8 331.496 121.98 332.336 121.98C333.136 121.98 333.822 121.8 334.396 121.44C334.982 121.067 335.409 120.533 335.676 119.84L335.996 120.82C335.729 121.513 335.262 122.067 334.596 122.48C333.942 122.893 333.116 123.1 332.116 123.1ZM346.313 112.4C347.166 112.4 347.913 112.567 348.553 112.9C349.206 113.22 349.713 113.713 350.073 114.38C350.446 115.047 350.633 115.887 350.633 116.9V123H349.213V117.04C349.213 115.933 348.933 115.1 348.373 114.54C347.826 113.967 347.053 113.68 346.053 113.68C345.306 113.68 344.653 113.833 344.093 114.14C343.546 114.433 343.119 114.867 342.813 115.44C342.519 116 342.373 116.68 342.373 117.48V123H340.953V112.5H342.313V115.38L342.093 114.84C342.426 114.08 342.959 113.487 343.693 113.06C344.426 112.62 345.299 112.4 346.313 112.4ZM359.703 123V112.5H361.063V115.36L360.923 114.86C361.216 114.06 361.709 113.453 362.403 113.04C363.096 112.613 363.956 112.4 364.983 112.4V113.78C364.929 113.78 364.876 113.78 364.823 113.78C364.769 113.767 364.716 113.76 364.663 113.76C363.556 113.76 362.689 114.1 362.063 114.78C361.436 115.447 361.123 116.4 361.123 117.64V123H359.703ZM371.936 123.1C370.843 123.1 369.883 122.873 369.056 122.42C368.229 121.953 367.583 121.32 367.116 120.52C366.649 119.707 366.416 118.78 366.416 117.74C366.416 116.7 366.636 115.78 367.076 114.98C367.529 114.18 368.143 113.553 368.916 113.1C369.703 112.633 370.583 112.4 371.556 112.4C372.543 112.4 373.416 112.627 374.176 113.08C374.949 113.52 375.556 114.147 375.996 114.96C376.436 115.76 376.656 116.687 376.656 117.74C376.656 117.807 376.649 117.88 376.636 117.96C376.636 118.027 376.636 118.1 376.636 118.18H367.496V117.12H375.876L375.316 117.54C375.316 116.78 375.149 116.107 374.816 115.52C374.496 114.92 374.056 114.453 373.496 114.12C372.936 113.787 372.289 113.62 371.556 113.62C370.836 113.62 370.189 113.787 369.616 114.12C369.043 114.453 368.596 114.92 368.276 115.52C367.956 116.12 367.796 116.807 367.796 117.58V117.8C367.796 118.6 367.969 119.307 368.316 119.92C368.676 120.52 369.169 120.993 369.796 121.34C370.436 121.673 371.163 121.84 371.976 121.84C372.616 121.84 373.209 121.727 373.756 121.5C374.316 121.273 374.796 120.927 375.196 120.46L375.996 121.38C375.529 121.94 374.943 122.367 374.236 122.66C373.543 122.953 372.776 123.1 371.936 123.1ZM382.366 123.1C381.5 123.1 380.68 122.98 379.906 122.74C379.133 122.487 378.526 122.173 378.086 121.8L378.726 120.68C379.153 121 379.7 121.28 380.366 121.52C381.033 121.747 381.733 121.86 382.466 121.86C383.466 121.86 384.186 121.707 384.626 121.4C385.066 121.08 385.286 120.66 385.286 120.14C385.286 119.753 385.16 119.453 384.906 119.24C384.666 119.013 384.346 118.847 383.946 118.74C383.546 118.62 383.1 118.52 382.606 118.44C382.113 118.36 381.62 118.267 381.126 118.16C380.646 118.053 380.206 117.9 379.806 117.7C379.406 117.487 379.08 117.2 378.826 116.84C378.586 116.48 378.466 116 378.466 115.4C378.466 114.827 378.626 114.313 378.946 113.86C379.266 113.407 379.733 113.053 380.346 112.8C380.973 112.533 381.733 112.4 382.626 112.4C383.306 112.4 383.986 112.493 384.666 112.68C385.346 112.853 385.906 113.087 386.346 113.38L385.726 114.52C385.26 114.2 384.76 113.973 384.226 113.84C383.693 113.693 383.16 113.62 382.626 113.62C381.68 113.62 380.98 113.787 380.526 114.12C380.086 114.44 379.866 114.853 379.866 115.36C379.866 115.76 379.986 116.073 380.226 116.3C380.48 116.527 380.806 116.707 381.206 116.84C381.62 116.96 382.066 117.06 382.546 117.14C383.04 117.22 383.526 117.32 384.006 117.44C384.5 117.547 384.946 117.7 385.346 117.9C385.76 118.087 386.086 118.36 386.326 118.72C386.58 119.067 386.706 119.527 386.706 120.1C386.706 120.713 386.533 121.247 386.186 121.7C385.853 122.14 385.36 122.487 384.706 122.74C384.066 122.98 383.286 123.1 382.366 123.1ZM392.632 123.1C391.645 123.1 390.885 122.833 390.352 122.3C389.819 121.767 389.552 121.013 389.552 120.04V110.18H390.972V119.96C390.972 120.573 391.125 121.047 391.432 121.38C391.752 121.713 392.205 121.88 392.792 121.88C393.419 121.88 393.939 121.7 394.352 121.34L394.852 122.36C394.572 122.613 394.232 122.8 393.832 122.92C393.445 123.04 393.045 123.1 392.632 123.1ZM387.672 113.68V112.5H394.172V113.68H387.672ZM407.131 123.1C406.038 123.1 405.078 122.873 404.251 122.42C403.425 121.953 402.778 121.32 402.311 120.52C401.845 119.707 401.611 118.78 401.611 117.74C401.611 116.7 401.831 115.78 402.271 114.98C402.725 114.18 403.338 113.553 404.111 113.1C404.898 112.633 405.778 112.4 406.751 112.4C407.738 112.4 408.611 112.627 409.371 113.08C410.145 113.52 410.751 114.147 411.191 114.96C411.631 115.76 411.851 116.687 411.851 117.74C411.851 117.807 411.845 117.88 411.831 117.96C411.831 118.027 411.831 118.1 411.831 118.18H402.691V117.12H411.071L410.511 117.54C410.511 116.78 410.345 116.107 410.011 115.52C409.691 114.92 409.251 114.453 408.691 114.12C408.131 113.787 407.485 113.62 406.751 113.62C406.031 113.62 405.385 113.787 404.811 114.12C404.238 114.453 403.791 114.92 403.471 115.52C403.151 116.12 402.991 116.807 402.991 117.58V117.8C402.991 118.6 403.165 119.307 403.511 119.92C403.871 120.52 404.365 120.993 404.991 121.34C405.631 121.673 406.358 121.84 407.171 121.84C407.811 121.84 408.405 121.727 408.951 121.5C409.511 121.273 409.991 120.927 410.391 120.46L411.191 121.38C410.725 121.94 410.138 122.367 409.431 122.66C408.738 122.953 407.971 123.1 407.131 123.1ZM421.029 123V120.68L420.969 120.3V116.42C420.969 115.527 420.715 114.84 420.209 114.36C419.715 113.88 418.975 113.64 417.989 113.64C417.309 113.64 416.662 113.753 416.049 113.98C415.435 114.207 414.915 114.507 414.489 114.88L413.849 113.82C414.382 113.367 415.022 113.02 415.769 112.78C416.515 112.527 417.302 112.4 418.129 112.4C419.489 112.4 420.535 112.74 421.269 113.42C422.015 114.087 422.389 115.107 422.389 116.48V123H421.029ZM417.409 123.1C416.622 123.1 415.935 122.973 415.349 122.72C414.775 122.453 414.335 122.093 414.029 121.64C413.722 121.173 413.569 120.64 413.569 120.04C413.569 119.493 413.695 119 413.949 118.56C414.215 118.107 414.642 117.747 415.229 117.48C415.829 117.2 416.629 117.06 417.629 117.06H421.249V118.12H417.669C416.655 118.12 415.949 118.3 415.549 118.66C415.162 119.02 414.969 119.467 414.969 120C414.969 120.6 415.202 121.08 415.669 121.44C416.135 121.8 416.789 121.98 417.629 121.98C418.429 121.98 419.115 121.8 419.689 121.44C420.275 121.067 420.702 120.533 420.969 119.84L421.289 120.82C421.022 121.513 420.555 122.067 419.889 122.48C419.235 122.893 418.409 123.1 417.409 123.1ZM429.066 123.1C428.199 123.1 427.379 122.98 426.606 122.74C425.832 122.487 425.226 122.173 424.786 121.8L425.426 120.68C425.852 121 426.399 121.28 427.066 121.52C427.732 121.747 428.432 121.86 429.166 121.86C430.166 121.86 430.886 121.707 431.326 121.4C431.766 121.08 431.986 120.66 431.986 120.14C431.986 119.753 431.859 119.453 431.606 119.24C431.366 119.013 431.046 118.847 430.646 118.74C430.246 118.62 429.799 118.52 429.306 118.44C428.812 118.36 428.319 118.267 427.826 118.16C427.346 118.053 426.906 117.9 426.506 117.7C426.106 117.487 425.779 117.2 425.526 116.84C425.286 116.48 425.166 116 425.166 115.4C425.166 114.827 425.326 114.313 425.646 113.86C425.966 113.407 426.432 113.053 427.046 112.8C427.672 112.533 428.432 112.4 429.326 112.4C430.006 112.4 430.686 112.493 431.366 112.68C432.046 112.853 432.606 113.087 433.046 113.38L432.426 114.52C431.959 114.2 431.459 113.973 430.926 113.84C430.392 113.693 429.859 113.62 429.326 113.62C428.379 113.62 427.679 113.787 427.226 114.12C426.786 114.44 426.566 114.853 426.566 115.36C426.566 115.76 426.686 116.073 426.926 116.3C427.179 116.527 427.506 116.707 427.906 116.84C428.319 116.96 428.766 117.06 429.246 117.14C429.739 117.22 430.226 117.32 430.706 117.44C431.199 117.547 431.646 117.7 432.046 117.9C432.459 118.087 432.786 118.36 433.026 118.72C433.279 119.067 433.406 119.527 433.406 120.1C433.406 120.713 433.232 121.247 432.886 121.7C432.552 122.14 432.059 122.487 431.406 122.74C430.766 122.98 429.986 123.1 429.066 123.1ZM435.896 126.98C435.403 126.98 434.929 126.9 434.476 126.74C434.036 126.58 433.656 126.34 433.336 126.02L433.996 124.96C434.263 125.213 434.549 125.407 434.856 125.54C435.176 125.687 435.529 125.76 435.916 125.76C436.383 125.76 436.783 125.627 437.116 125.36C437.463 125.107 437.789 124.653 438.096 124L438.776 122.46L438.936 122.24L443.256 112.5H444.656L439.396 124.26C439.103 124.94 438.776 125.48 438.416 125.88C438.069 126.28 437.689 126.56 437.276 126.72C436.863 126.893 436.403 126.98 435.896 126.98ZM438.696 123.3L433.856 112.5H435.336L439.616 122.14L438.696 123.3ZM446.112 123.1C445.819 123.1 445.566 122.993 445.352 122.78C445.152 122.567 445.052 122.307 445.052 122C445.052 121.68 445.152 121.42 445.352 121.22C445.566 121.02 445.819 120.92 446.112 120.92C446.406 120.92 446.652 121.02 446.852 121.22C447.066 121.42 447.172 121.68 447.172 122C447.172 122.307 447.066 122.567 446.852 122.78C446.652 122.993 446.406 123.1 446.112 123.1Z" fill="white"/>
<circle cx="73.1816" cy="87.5" r="62" stroke="white" stroke-width="3"/>
</g>
<path d="M54.6705 48.6938C54.2538 49.0894 50.1061 53.2107 45.447 57.876L37 66.3328V94.3245C37 121.212 37.0189 122.316 37.3409 122.564C37.6629 122.827 39.2349 122.844 55.9962 122.844C74.0644 122.844 74.3106 122.844 74.6894 122.514C75.1629 122.102 75.1629 121.673 74.7084 121.179L74.3485 120.783L56.8106 120.734L39.2727 120.701V94.3245V67.9648L48.9508 67.9154L58.6288 67.8659L58.9887 67.4703C59.3296 67.1076 59.3485 66.7449 59.3485 60.6784C59.3485 54.48 59.3296 54.2492 58.9697 53.936C58.4584 53.4909 57.5493 53.5074 57.1894 53.969C56.9243 54.2822 56.8864 55.1559 56.8864 60.0685V65.8053H48.9129C44.178 65.8053 40.9773 65.7394 41.0152 65.6569C41.053 65.5745 44.5189 62.0467 48.7424 57.8265L56.4129 50.1444H77.0947H97.7955V61.8324C97.7955 73.3884 97.7955 73.5203 98.1932 73.9489C98.6667 74.46 99.3485 74.5094 99.8788 74.0478C100.258 73.7181 100.258 73.5038 100.258 61.14C100.258 49.1553 100.239 48.5289 99.9167 48.2816C99.5947 48.0179 97.7576 48.0014 77.5114 48.0014H55.447L54.6705 48.6938Z" fill="white"/>
<path d="M92.5873 76.4695C91.7918 76.6344 90.9774 76.6839 89.841 76.6014C88.9509 76.552 87.5873 76.4695 86.7918 76.4201C84.9168 76.2882 84.1971 76.5685 82.1895 78.1345C81.0532 79.0247 80.3145 79.4533 79.2539 79.8325C76.2994 80.8711 75.5797 81.5799 74.7842 84.1186C74.3865 85.3715 74.0266 86.0968 73.3069 87.0365C71.4698 89.4763 71.2804 90.383 72.1516 92.6249C72.5683 93.68 72.6819 94.3394 72.7766 96.3011C72.8903 98.5266 72.9282 98.7409 73.4206 99.4663C73.7236 99.9114 74.5001 100.637 75.2388 101.164C75.9585 101.659 76.716 102.269 76.9244 102.516L77.3032 102.978L72.966 109.489C70.5986 113.066 68.6478 116.149 68.6289 116.331C68.6289 116.512 68.7615 116.842 68.9319 117.039C69.2918 117.484 69.8221 117.501 73.5342 117.138C75.0115 117.006 76.3941 116.907 76.6213 116.94C76.9244 116.973 77.3032 117.567 78.3827 119.693C79.1403 121.177 79.8979 122.529 80.0683 122.694C80.4282 123.073 81.3751 123.106 81.7539 122.76C81.9054 122.644 83.8941 119.71 86.1668 116.265C89.6517 110.973 90.3335 110.05 90.5039 110.28C90.6365 110.429 92.4926 113.231 94.6706 116.495C96.8297 119.759 98.7236 122.562 98.8941 122.71C99.2729 123.089 100.296 123.089 100.674 122.71C100.826 122.562 101.583 121.177 102.36 119.644L103.762 116.875L104.898 116.957C105.523 117.006 107.208 117.138 108.629 117.254C111.091 117.452 111.243 117.452 111.621 117.155C111.83 116.99 112 116.644 112 116.38C112 116.05 110.618 113.808 107.739 109.473C105.39 105.945 103.477 102.994 103.477 102.912C103.477 102.796 104.083 102.285 106.28 100.554C107.663 99.4663 107.89 98.8728 108.023 96.0538C108.118 94.0921 108.231 93.3997 108.553 92.6744C109.481 90.6467 109.292 89.5093 107.739 87.4651C106.583 85.965 106.47 85.7342 105.921 83.9538C105.22 81.6623 104.405 80.8876 101.697 79.8984C100.315 79.4039 99.2918 78.7939 97.6441 77.4916C96.9812 76.9641 96.2994 76.6014 95.6744 76.4366C94.5001 76.1398 94.0645 76.1398 92.5873 76.4695ZM88.3448 78.761C90.0115 78.9918 90.5229 79.0083 92.0001 78.8269C94.9357 78.4642 95.1441 78.5137 96.8676 79.8984C98.1365 80.904 99.0645 81.3986 101.072 82.1239C101.962 82.4371 102.663 82.8163 102.852 83.0471C103.023 83.2779 103.307 84.0527 103.496 84.778C103.894 86.2617 104.443 87.2508 105.655 88.8169C106.678 90.1027 106.716 90.4984 105.996 92.2952C105.561 93.3997 105.485 93.8943 105.447 95.7736C105.39 98.3453 105.371 98.3618 103.496 99.6806C102.038 100.67 101.47 101.263 100.447 102.78C99.538 104.165 98.932 104.478 97.0001 104.626C95.0683 104.774 93.5721 105.17 92.2653 105.862C90.7691 106.67 90.2009 106.67 88.4963 105.895C86.7918 105.104 85.5039 104.774 83.591 104.626C81.7918 104.478 81.2615 104.197 80.4282 102.978C79.3486 101.362 78.4963 100.505 77.1138 99.5817C76.3941 99.1036 75.6744 98.5101 75.5229 98.2628C75.3335 97.9496 75.2577 97.2408 75.2766 95.9384C75.2766 93.9767 75.1441 93.2184 74.4812 91.6029C74.0077 90.4324 74.1403 89.839 75.1441 88.7015C76.091 87.6135 76.735 86.4101 77.2463 84.7286C77.7766 83.0306 78.1176 82.6185 79.3865 82.2064C81.1857 81.6129 82.4736 80.937 83.7236 79.9479C84.841 79.0742 85.807 78.5302 86.2804 78.4972C86.3562 78.4972 87.2842 78.6126 88.3448 78.761ZM79.6327 105.764C80.4282 106.39 81.8865 106.852 83.1176 106.852C84.1971 106.852 85.8448 107.247 87.1895 107.841C87.8145 108.121 88.3259 108.368 88.3259 108.401C88.3259 108.517 81.4509 118.968 81.2426 119.166C81.0721 119.331 80.7501 118.82 79.8789 117.105C79.1213 115.622 78.591 114.781 78.3448 114.666C78.0418 114.55 77.1706 114.567 75.2766 114.731C73.7994 114.863 72.5494 114.946 72.5115 114.896C72.4168 114.83 78.6857 105.22 78.8372 105.203C78.8751 105.203 79.235 105.45 79.6327 105.764ZM105.163 110.066C106.905 112.704 108.25 114.88 108.155 114.913C108.061 114.946 107.076 114.88 105.958 114.781C102.947 114.484 102.549 114.501 102.152 114.863C101.962 115.028 101.356 116.067 100.826 117.155C100.277 118.243 99.7842 119.199 99.7085 119.265C99.5948 119.364 92.663 109.209 92.341 108.5C92.2842 108.368 93.8751 107.676 95.2388 107.231C95.6554 107.099 96.7539 106.918 97.7009 106.835C99.538 106.67 100.826 106.242 101.356 105.599C101.527 105.384 101.754 105.236 101.83 105.253C101.924 105.269 103.421 107.445 105.163 110.066Z" fill="white"/>
<path d="M88.0423 84.0033C84.4059 84.7781 81.5271 87.3498 80.6559 90.5644C79.065 96.4496 84.8415 102.087 91.6219 101.263C95.6181 100.785 98.9325 98.197 99.9741 94.7186C100.41 93.2514 100.353 92.592 99.7658 92.1964C99.1219 91.7513 98.8756 91.7678 98.3075 92.2129C97.9855 92.4766 97.7961 92.8888 97.6446 93.6141C97.2279 95.7572 95.5612 97.653 93.3075 98.5761C92.3415 98.9718 91.9817 99.0212 90.315 99.0212C88.5537 99.0212 88.3264 98.9883 87.1521 98.4772C83.44 96.8947 81.9059 92.9053 83.762 89.6412C84.5385 88.2729 86.2052 86.9047 87.7014 86.4101C89.1597 85.9156 91.2241 85.8826 92.7582 86.3112C93.762 86.608 93.9135 86.608 94.3681 86.3936C95.0688 86.0475 95.0688 85.0089 94.387 84.5803C93.2506 83.8549 90.0878 83.5582 88.0423 84.0033Z" fill="white"/>
<path d="M95.6369 88.687C93.6482 90.385 91.5649 92.1324 91.0346 92.5775L90.0308 93.4018L88.6293 92.2148C87.8528 91.5554 87.0573 91.0279 86.849 91.0279C86.2429 91.0279 85.4854 91.6543 85.4854 92.1654C85.4854 92.5116 85.8831 92.9567 87.3604 94.2095C89.1217 95.7097 89.2732 95.8086 90.0119 95.8086C90.7694 95.8086 90.9399 95.7097 93.2126 93.8469C97.5119 90.352 101.016 87.1539 101.016 86.7583C101.016 86.2967 100.201 85.5878 99.671 85.5878C99.3679 85.5878 98.1369 86.5275 95.6369 88.687Z" fill="white"/>
<path d="M47.8332 77.0474C47.4544 77.4595 47.4923 78.2013 47.909 78.564C48.1741 78.7948 49.5188 78.8278 59.9166 78.8278C72.7954 78.8278 72.2272 78.8772 72.2272 77.8386C72.2272 76.8001 72.7954 76.8495 59.8408 76.8495C50.6173 76.8495 47.9847 76.899 47.8332 77.0474Z" fill="white"/>
<path d="M47.8716 86.6597C47.3603 87.1048 47.3792 87.5499 47.9474 88.0939C48.2125 88.3741 48.8944 88.3906 57.1709 88.3906C65.8262 88.3906 66.1103 88.3741 66.4512 88.0609C66.9057 87.6158 66.8679 86.907 66.3565 86.5443C65.9588 86.264 65.3527 86.2476 57.133 86.2476H48.3451L47.8716 86.6597Z" fill="white"/>
<path d="M47.8895 96.0369C47.3781 96.3502 47.4349 97.2568 47.9652 97.6525C48.3819 97.9327 48.9311 97.9492 57.1698 97.9492C65.3516 97.9492 65.9577 97.9327 66.3554 97.6525C66.8668 97.2898 66.9047 96.581 66.4501 96.1359C66.1092 95.8226 65.8251 95.8062 57.1698 95.8062C49.9539 95.8062 48.1736 95.8556 47.8895 96.0369Z" fill="#141414"/>
<path d="M47.8895 96.0369C47.3781 96.3502 47.4349 97.2568 47.9652 97.6525C48.3819 97.9327 48.9311 97.9492 57.1698 97.9492C65.3516 97.9492 65.9577 97.9327 66.3554 97.6525C66.8668 97.2898 66.9047 96.581 66.4501 96.1359C66.1092 95.8226 65.8251 95.8062 57.1698 95.8062C49.9539 95.8062 48.1736 95.8556 47.8895 96.0369Z" fill="white"/>
<path d="M47.8332 105.567C47.4544 105.979 47.4923 106.721 47.909 107.084C48.1741 107.315 49.2726 107.348 57.1704 107.348C65.0681 107.348 66.1666 107.315 66.4317 107.084C66.7916 106.787 66.8295 105.848 66.5075 105.567C66.1666 105.271 48.1173 105.287 47.8332 105.567Z" fill="#141414"/>
<path d="M47.8332 105.567C47.4544 105.979 47.4923 106.721 47.909 107.084C48.1741 107.315 49.2726 107.348 57.1704 107.348C65.0681 107.348 66.1666 107.315 66.4317 107.084C66.7916 106.787 66.8295 105.848 66.5075 105.567C66.1666 105.271 48.1173 105.287 47.8332 105.567Z" fill="white"/>
<defs>
<filter id="filter0_d_809_6572" x="0" y="0" width="653.029" height="184" filterUnits="userSpaceOnUse" color-interpolation-filters="sRGB">
<feFlood flood-opacity="0" result="BackgroundImageFix"/>
<feColorMatrix in="SourceAlpha" type="matrix" values="0 0 0 0 0 0 0 0 0 0 0 0 0 0 0 0 0 0 127 0" result="hardAlpha"/>
<feOffset dy="4"/>
<feGaussianBlur stdDeviation="2"/>
<feComposite in2="hardAlpha" operator="out"/>
<feColorMatrix type="matrix" values="0 0 0 0 0 0 0 0 0 0 0 0 0 0 0 0 0 0 0.25 0"/>
<feBlend mode="normal" in2="BackgroundImageFix" result="effect1_dropShadow_809_6572"/>
<feBlend mode="normal" in="SourceGraphic" in2="effect1_dropShadow_809_6572" result="shape"/>
</filter>
</defs>
</svg>
