<svg width="1398" height="427" viewBox="0 0 1398 427" fill="none" xmlns="http://www.w3.org/2000/svg">
<path d="M1346.22 427H51.7778C23.3 427 0 402.981 0 373.625V53.375C0 24.0188 23.3 0 51.7778 0H1346.22C1374.7 0 1398 24.0188 1398 53.375V373.625C1398 402.981 1374.7 427 1346.22 427Z" fill="black"/>
<path d="M1346.22 8.54C1357.76 8.54 1368.82 13.2637 1376.98 21.6719C1385.13 30.0801 1389.72 41.484 1389.72 53.375V373.625C1389.72 385.516 1385.13 396.92 1376.98 405.328C1368.82 413.736 1357.76 418.46 1346.22 418.46H51.7778C40.2426 418.46 29.1799 413.736 21.0233 405.328C12.8668 396.92 8.28445 385.516 8.28445 373.625V53.375C8.28445 41.484 12.8668 30.0801 21.0233 21.6719C29.1799 13.2637 40.2426 8.54 51.7778 8.54H1346.22ZM1346.22 0H51.7778C23.3 0 0 24.0188 0 53.375V373.625C0 402.981 23.3 427 51.7778 427H1346.22C1374.7 427 1398 402.981 1398 373.625V53.375C1398 24.0188 1374.7 0 1346.22 0Z" fill="#A6A6A6"/>
<path d="M491.06 109.312C491.06 118.279 488.471 125.431 483.294 130.662C477.495 136.96 469.935 140.163 460.511 140.163C451.502 140.163 443.839 136.96 437.626 130.555C431.412 124.15 428.306 116.144 428.306 106.75C428.306 97.356 431.412 89.3497 437.626 82.9447C443.839 76.5397 451.502 73.2305 460.511 73.2305C465.068 73.2305 469.417 74.0845 473.456 75.6857C477.495 77.3937 480.808 79.7422 483.397 82.7312L477.702 88.6025C475.838 86.254 473.352 84.3325 470.246 83.0515C467.176 81.6747 463.859 80.9835 460.511 81.0232C453.78 81.0232 447.981 83.4785 443.321 88.2822C438.661 93.1927 436.383 99.2775 436.383 106.643C436.383 114.009 438.661 120.094 443.321 125.004C447.981 129.808 453.677 132.263 460.511 132.263C466.725 132.263 471.799 130.448 475.941 126.926C480.083 123.403 482.465 118.386 483.087 112.194H460.511V104.508H490.646C490.853 106.216 491.06 107.817 491.06 109.312ZM538.799 74.725V82.6245H510.529V102.907H536.003V110.593H510.529V130.875H538.799V138.775H502.555V74.725H538.799ZM572.455 82.6245V138.775H564.481V82.6245H547.084V74.725H589.749V82.6245H572.455ZM628.686 138.775H620.712V74.725H628.686V138.775ZM664.102 82.6245V138.775H656.128V82.6245H638.731V74.725H681.395V82.6245H664.102ZM771.385 106.75C771.385 116.251 768.279 124.15 762.169 130.555C755.955 136.96 748.396 140.163 739.387 140.163C730.377 140.163 722.818 136.96 716.604 130.555C710.495 124.15 707.388 116.251 707.388 106.75C707.388 97.2492 710.495 89.3497 716.604 82.9447C722.714 76.5397 730.274 73.2305 739.387 73.2305C748.396 73.2305 755.955 76.433 762.169 82.9447C768.382 89.4565 771.385 97.356 771.385 106.75ZM715.672 106.75C715.672 114.116 717.951 120.307 722.403 125.111C726.96 129.915 732.655 132.37 739.387 132.37C746.118 132.37 751.813 129.915 756.266 125.111C760.823 120.307 763.101 114.222 763.101 106.75C763.101 99.2775 760.823 93.1927 756.266 88.389C751.71 83.5852 746.118 81.13 739.387 81.13C732.655 81.13 726.96 83.5852 722.403 88.389C717.951 93.1927 715.672 99.3842 715.672 106.75ZM790.543 138.775H782.569V74.725H792.303L822.542 124.577H822.852L822.542 112.194V74.725H830.515V138.775H822.231L790.647 86.5742H790.336L790.647 98.9572V138.775H790.543Z" fill="white" stroke="white" stroke-width="3" stroke-miterlimit="10"/>
<path d="M705.628 232.18C681.292 232.18 661.41 251.289 661.41 277.549C661.41 303.703 681.292 322.918 705.628 322.918C729.963 322.918 749.846 303.703 749.846 277.549C749.846 251.289 729.963 232.18 705.628 232.18ZM705.628 305.091C692.269 305.091 680.774 293.775 680.774 277.549C680.774 261.216 692.269 250.008 705.628 250.008C718.986 250.008 730.481 261.216 730.481 277.549C730.481 293.775 718.883 305.091 705.628 305.091ZM609.114 232.18C584.778 232.18 564.896 251.289 564.896 277.549C564.896 303.703 584.778 322.918 609.114 322.918C633.45 322.918 653.332 303.703 653.332 277.549C653.332 251.289 633.45 232.18 609.114 232.18ZM609.114 305.091C595.755 305.091 584.261 293.775 584.261 277.549C584.261 261.216 595.755 250.008 609.114 250.008C622.473 250.008 633.967 261.216 633.967 277.549C633.967 293.775 622.473 305.091 609.114 305.091ZM494.374 246.165V265.38H539.11C537.764 276.161 534.243 284.168 528.962 289.612C522.438 296.337 512.29 303.703 494.478 303.703C466.932 303.703 445.393 280.858 445.393 252.463C445.393 224.067 466.932 201.223 494.478 201.223C509.286 201.223 520.16 207.201 528.134 214.994L541.285 201.436C530.101 190.441 515.293 182.008 494.374 182.008C456.68 182.008 424.992 213.606 424.992 252.57C424.992 291.427 456.68 323.131 494.374 323.131C514.775 323.131 530.101 316.299 542.113 303.383C554.437 290.679 558.268 272.745 558.268 258.334C558.268 253.851 557.958 249.687 557.233 246.271H494.374V246.165ZM963.585 261.11C959.96 250.968 948.776 232.18 925.89 232.18C903.212 232.18 884.365 250.541 884.365 277.549C884.365 302.956 903.005 322.918 928.065 322.918C948.258 322.918 959.96 310.215 964.724 302.849L949.708 292.494C944.738 300.073 937.903 305.091 928.065 305.091C918.227 305.091 911.185 300.5 906.733 291.32L965.656 266.234L963.585 261.11ZM903.522 276.268C903.005 258.761 916.674 249.794 926.512 249.794C934.175 249.794 940.699 253.744 942.874 259.402L903.522 276.268ZM855.68 320.249H875.045V186.812H855.68V320.249ZM823.992 242.322H823.267C818.918 236.984 810.633 232.18 800.07 232.18C778.013 232.18 757.82 252.143 757.82 277.763C757.82 303.169 778.013 323.025 800.07 323.025C810.53 323.025 818.918 318.221 823.267 312.67H823.888V319.182C823.888 336.582 814.879 345.869 800.381 345.869C788.576 345.869 781.223 337.116 778.22 329.75L761.341 337.009C766.208 349.072 779.049 363.803 800.381 363.803C823.06 363.803 842.218 350.032 842.218 316.513V234.956H823.888V242.322H823.992ZM801.727 305.091C788.369 305.091 777.185 293.562 777.185 277.763C777.185 261.75 788.369 250.114 801.727 250.114C814.879 250.114 825.234 261.857 825.234 277.763C825.338 293.562 814.982 305.091 801.727 305.091ZM1054.3 186.812H1008.01V320.249H1027.37V269.65H1054.4C1075.84 269.65 1096.86 253.637 1096.86 228.231C1096.76 202.824 1075.63 186.812 1054.3 186.812ZM1054.71 251.075H1027.27V205.279H1054.71C1069.21 205.279 1077.39 217.662 1077.39 228.124C1077.39 238.585 1069.21 251.075 1054.71 251.075ZM1174.22 231.967C1160.24 231.967 1145.74 238.372 1139.73 252.356L1156.92 259.722C1160.55 252.356 1167.38 249.901 1174.53 249.901C1184.47 249.901 1194.72 256.092 1194.82 267.088V268.475C1191.3 266.447 1183.85 263.351 1174.63 263.351C1156.09 263.351 1137.35 273.813 1137.35 293.348C1137.35 311.175 1152.47 322.704 1169.45 322.704C1182.4 322.704 1189.65 316.726 1194.1 309.681H1194.72V319.929H1213.36V268.796C1213.46 245.204 1196.27 231.967 1174.22 231.967ZM1171.83 305.091C1165.52 305.091 1156.72 301.781 1156.72 293.775C1156.72 283.527 1167.69 279.577 1177.22 279.577C1185.71 279.577 1189.75 281.499 1194.82 284.061C1194.11 289.839 1191.38 295.153 1187.15 299.019C1182.93 302.885 1177.49 305.042 1171.83 305.091ZM1281.4 234.849L1259.24 292.708H1258.61L1235.63 234.849H1214.81L1249.29 315.766L1229.62 360.707H1249.81L1302.94 234.849H1281.4ZM1107.42 320.249H1126.79V186.812H1107.42V320.249Z" fill="white"/>
<path d="M214.567 207.309L104.28 327.936V328.043C105.474 332.612 107.675 336.836 110.713 340.384C113.751 343.931 117.543 346.707 121.794 348.495C126.044 350.283 130.638 351.034 135.216 350.69C139.795 350.345 144.234 348.915 148.188 346.511L148.499 346.297L272.558 272.533L214.567 207.309Z" fill="#EA4335"/>
<path d="M326.097 186.815L325.993 186.709L272.455 154.684L212.082 210.087L272.662 272.536L325.993 240.831C330.71 238.199 334.652 234.303 337.402 229.556C340.152 224.808 341.609 219.384 341.619 213.855C341.63 208.325 340.194 202.895 337.462 198.137C334.73 193.378 330.804 189.467 326.097 186.815Z" fill="#FBBC04"/>
<path d="M104.281 99.0625C103.659 101.624 103.245 104.186 103.245 106.962V320.142C103.245 322.917 103.556 325.479 104.281 328.041L218.295 210.509L104.281 99.0625Z" fill="#4285F4"/>
<path d="M215.395 213.501L272.455 154.682L148.499 80.5975C144.536 78.1551 140.079 76.6911 135.476 76.3203C130.873 75.9495 126.249 76.6819 121.967 78.4602C117.684 80.2384 113.859 83.0143 110.791 86.5705C107.722 90.1266 105.494 94.3667 104.28 98.9585L215.395 213.501Z" fill="#34A853"/>
</svg>
