<svg width="153" height="34" viewBox="0 0 153 34" fill="none" xmlns="http://www.w3.org/2000/svg">
<path d="M0 33.2692V13.9785H6.48039V16.0099H6.55394C8.23737 14.2807 10.0291 13.416 11.9311 13.416C12.8627 13.416 13.7862 13.5419 14.7014 13.7938C15.6167 14.0414 16.4931 14.4276 17.3328 14.9522C18.1766 15.479 18.861 16.2261 19.384 17.1936C19.907 18.1568 20.1685 19.2796 20.1685 20.5598V33.2692H13.6881V22.3646C13.6881 21.3636 13.3776 20.4884 12.7565 19.7371C12.1354 18.9816 11.3223 18.6039 10.3212 18.6039C9.34468 18.6039 8.46006 18.9942 7.66533 19.7707C6.87469 20.5493 6.48039 21.4139 6.48039 22.3646V33.2692H0Z" fill="black"/>
<path d="M25.4732 30.8851C23.7182 28.9166 22.8418 26.501 22.8418 23.6406C22.8418 20.7822 23.7182 18.3646 25.4732 16.3877C27.2322 14.4066 29.4652 13.416 32.1742 13.416C34.6626 13.416 36.7138 14.2177 38.3277 15.8169V13.9785H44.8081V33.2692H38.4013V31.0866H38.3277C36.7138 32.9166 34.6626 33.8316 32.1742 33.8316C29.4652 33.8316 27.2322 32.8494 25.4732 30.8851ZM30.9811 20.3751C30.1414 21.2272 29.7226 22.3184 29.7226 23.649C29.7226 24.9753 30.1251 26.0582 30.9321 26.8977C31.737 27.7371 32.7994 28.1569 34.1192 28.1569C35.3879 28.1569 36.4318 27.7329 37.249 26.8809C38.0662 26.0246 38.4748 24.9459 38.4748 23.6406C38.4748 22.3143 38.0519 21.2272 37.2082 20.3751C36.3685 19.5189 35.3388 19.0907 34.1192 19.0907C32.8709 19.0907 31.8249 19.5189 30.9811 20.3751Z" fill="black"/>
<path d="M49.8229 3.22544C50.5788 2.44894 51.4818 2.05859 52.5279 2.05859C53.578 2.05859 54.483 2.44894 55.241 3.22544C55.9969 3.99774 56.3769 4.92534 56.3769 6.00404C56.3769 7.08484 55.9969 8.01453 55.241 8.79103C54.483 9.56333 53.578 9.94948 52.5279 9.94948C51.4818 9.94948 50.5788 9.56333 49.8229 8.79103C49.065 8.01453 48.687 7.08484 48.687 6.00404C48.687 4.92534 49.065 3.99774 49.8229 3.22544ZM49.2018 13.9789V33.2696H55.6822V13.9789H49.2018Z" fill="black"/>
<path d="M79.587 16.3886C81.3461 18.3655 82.2266 20.7831 82.2266 23.6415C82.2266 26.5019 81.3461 28.9174 79.587 30.886C77.8321 32.8503 75.5991 33.8325 72.886 33.8325C70.3956 33.8325 68.3464 32.9175 66.7406 31.0874H66.6671V33.27H60.2603V0.925781H66.7406V15.8177C68.3464 14.2186 70.3956 13.4169 72.886 13.4169C75.5991 13.4169 77.8321 14.4074 79.587 16.3886ZM74.1363 26.8986C74.9412 26.0591 75.3458 24.9762 75.3458 23.6499C75.3458 22.3193 74.9229 21.228 74.0791 20.376C73.2333 19.5197 72.1914 19.0916 70.9492 19.0916C69.7275 19.0916 68.6958 19.5197 67.852 20.376C67.0124 21.228 66.5936 22.3151 66.5936 23.6415C66.5936 24.9468 67.0022 26.0255 67.8194 26.8818C68.6366 27.7338 69.6785 28.1577 70.9492 28.1577C72.267 28.1577 73.3293 27.738 74.1363 26.8986Z" fill="#FF2E2E"/>
<path d="M104.264 24.5472H90.6414C90.6414 25.9029 91.0684 26.9061 91.9244 27.5609C92.7784 28.2114 93.708 28.5346 94.7111 28.5346C95.7571 28.5346 96.5845 28.3898 97.1954 28.0981C97.8042 27.8085 98.5029 27.2377 99.2874 26.3856L103.97 28.7949C102.019 32.1527 98.7726 33.8316 94.2289 33.8316C91.4014 33.8316 88.9744 32.8368 86.9477 30.8431C84.921 28.8515 83.9077 26.4507 83.9077 23.6406C83.9077 20.8326 84.921 18.4255 86.9477 16.4213C88.9744 14.4192 91.4014 13.416 94.2289 13.416C97.2076 13.416 99.6306 14.3016 101.494 16.0687C103.361 17.8316 104.297 20.3562 104.297 23.6406C104.297 24.0939 104.285 24.3961 104.264 24.5472ZM90.8294 20.862H97.9636C97.8165 19.8546 97.4324 19.0823 96.8113 18.5451C96.1902 18.0078 95.3914 17.7392 94.4169 17.7392C93.3423 17.7392 92.4883 18.0288 91.8509 18.6039C91.2176 19.181 90.8784 19.9344 90.8294 20.862Z" fill="#FF2E2E"/>
<path d="M108.613 30.8851C106.858 28.9166 105.982 26.501 105.982 23.6406C105.982 20.7822 106.858 18.3646 108.613 16.3877C110.372 14.4066 112.605 13.416 115.314 13.416C117.803 13.416 119.854 14.2177 121.468 15.8169V13.9785H127.948V33.2692H121.541V31.0866H121.468C119.854 32.9166 117.803 33.8316 115.314 33.8316C112.605 33.8316 110.372 32.8494 108.613 30.8851ZM114.121 20.3751C113.282 21.2272 112.863 22.3184 112.863 23.649C112.863 24.9753 113.265 26.0582 114.072 26.8977C114.877 27.7371 115.94 28.1569 117.259 28.1569C118.528 28.1569 119.572 27.7329 120.389 26.8809C121.206 26.0246 121.615 24.9459 121.615 23.6406C121.615 22.3143 121.192 21.2272 120.348 20.3751C119.509 19.5189 118.479 19.0907 117.259 19.0907C116.011 19.0907 114.965 19.5189 114.121 20.3751Z" fill="#FF2E2E"/>
<path d="M138.455 13.9785V23.1538C138.455 25.0572 138.734 26.4109 139.296 27.2167C139.856 28.0184 140.808 28.4172 142.148 28.4172C143.493 28.4172 144.447 28.0184 145.008 27.2167C145.568 26.4109 145.85 25.0572 145.85 23.1538V13.9785H152.331V24.7739C152.331 27.9806 151.517 30.2933 149.895 31.7078C148.271 33.1244 145.689 33.8317 142.148 33.8317C138.612 33.8317 136.032 33.1244 134.409 31.7078C132.785 30.2933 131.974 27.9806 131.974 24.7739V13.9785H138.455Z" fill="#FF2E2E"/>
</svg>
