<svg width="153" height="33" viewBox="0 0 153 33" fill="none" xmlns="http://www.w3.org/2000/svg">
<path d="M0 31.4869V12.7077H6.46954V14.6853H6.54296C8.22357 13.0019 10.0123 12.1602 11.9111 12.1602C12.8412 12.1602 13.7631 12.2827 14.6768 12.5279C15.5905 12.769 16.4655 13.1449 17.3038 13.6556C18.1461 14.1684 18.8294 14.8957 19.3515 15.8376C19.8736 16.7753 20.1347 17.8683 20.1347 19.1145V31.4869H13.6652V20.8715C13.6652 19.897 13.3551 19.0451 12.7351 18.3137C12.1151 17.5782 11.3033 17.2105 10.3039 17.2105C9.32902 17.2105 8.44588 17.5904 7.65249 18.3464C6.86317 19.1043 6.46954 19.946 6.46954 20.8715V31.4869H0Z" fill="white"/>
<path d="M25.4297 29.1661C23.6777 27.2498 22.8027 24.8983 22.8027 22.1136C22.8027 19.3311 23.6777 16.9775 25.4297 15.053C27.1858 13.1245 29.415 12.1602 32.1195 12.1602C34.6037 12.1602 36.6515 12.9406 38.2627 14.4973V12.7077H44.7323V31.4869H38.3361V29.3622H38.2627C36.6515 31.1437 34.6037 32.0345 32.1195 32.0345C29.415 32.0345 27.1858 31.0783 25.4297 29.1661ZM30.9284 18.9347C30.0901 19.7642 29.672 20.8266 29.672 22.1218C29.672 23.413 30.0738 24.4672 30.8795 25.2844C31.6831 26.1016 32.7436 26.5102 34.0612 26.5102C35.3278 26.5102 36.37 26.0975 37.1858 25.268C38.0017 24.4345 38.4096 23.3844 38.4096 22.1136C38.4096 20.8225 37.9874 19.7642 37.145 18.9347C36.3068 18.1012 35.2788 17.6844 34.0612 17.6844C32.815 17.6844 31.7708 18.1012 30.9284 18.9347Z" fill="white"/>
<path d="M49.7391 2.23942C50.4938 1.48351 51.3953 1.10352 52.4397 1.10352C53.4881 1.10352 54.3917 1.48351 55.1484 2.23942C55.9031 2.99125 56.2825 3.89425 56.2825 4.94435C56.2825 5.9965 55.9031 6.90155 55.1484 7.65746C54.3917 8.40928 53.4881 8.78519 52.4397 8.78519C51.3953 8.78519 50.4938 8.40928 49.7391 7.65746C48.9823 6.90155 48.605 5.9965 48.605 4.94435C48.605 3.89425 48.9823 2.99125 49.7391 2.23942ZM49.119 12.7078V31.487H55.589V12.7078H49.119Z" fill="white"/>
<path d="M79.4533 15.0528C81.2094 16.9773 82.0885 19.3309 82.0885 22.1134C82.0885 24.898 81.2094 27.2495 79.4533 29.1659C77.7013 31.0781 75.4721 32.0342 72.7635 32.0342C70.2773 32.0342 68.2316 31.1435 66.6285 29.362H66.555V31.4867H60.1589V0H66.6285V14.4971C68.2316 12.9404 70.2773 12.1599 72.7635 12.1599C75.4721 12.1599 77.7013 13.1242 79.4533 15.0528ZM74.0117 25.2842C74.8153 24.467 75.2192 23.4128 75.2192 22.1216C75.2192 20.8263 74.797 19.764 73.9546 18.9345C73.1102 18.101 72.0701 17.6842 70.83 17.6842C69.6103 17.6842 68.5803 18.101 67.738 18.9345C66.8997 19.764 66.4816 20.8223 66.4816 22.1134C66.4816 23.3842 66.8895 24.4343 67.7054 25.2678C68.5212 26.0973 69.5614 26.51 70.83 26.51C72.1455 26.51 73.2061 26.1014 74.0117 25.2842Z" fill="#FF2E2E"/>
<path d="M104.089 22.9962H90.489C90.489 24.316 90.9153 25.2926 91.7699 25.93C92.6224 26.5633 93.5504 26.8779 94.5519 26.8779C95.5961 26.8779 96.4222 26.737 97.032 26.453C97.6398 26.171 98.3373 25.6154 99.1205 24.7859L103.795 27.1313C101.847 30.4001 98.6066 32.0345 94.0705 32.0345C91.2478 32.0345 88.8248 31.0661 86.8015 29.1252C84.7782 27.1864 83.7666 24.8492 83.7666 22.1136C83.7666 19.3801 84.7782 17.0368 86.8015 15.0857C88.8248 13.1367 91.2478 12.1602 94.0705 12.1602C97.0442 12.1602 99.4632 13.0223 101.323 14.7425C103.187 16.4586 104.122 18.9164 104.122 22.1136C104.122 22.5549 104.109 22.8491 104.089 22.9962ZM90.6767 19.4087H97.7989C97.652 18.4281 97.2686 17.6763 96.6486 17.1532C96.0285 16.6302 95.2311 16.3687 94.2582 16.3687C93.1854 16.3687 92.3328 16.6507 91.6965 17.2105C91.0642 17.7723 90.7256 18.5057 90.6767 19.4087Z" fill="#FF2E2E"/>
<path d="M108.431 29.1661C106.679 27.2498 105.804 24.8983 105.804 22.1136C105.804 19.3311 106.679 16.9775 108.431 15.053C110.187 13.1245 112.416 12.1602 115.121 12.1602C117.605 12.1602 119.653 12.9406 121.264 14.4973V12.7077H127.733V31.4869H121.337V29.3622H121.264C119.653 31.1437 117.605 32.0345 115.121 32.0345C112.416 32.0345 110.187 31.0783 108.431 29.1661ZM113.93 18.9347C113.091 19.7642 112.673 20.8266 112.673 22.1218C112.673 23.413 113.075 24.4672 113.881 25.2844C114.684 26.1016 115.745 26.5102 117.062 26.5102C118.329 26.5102 119.371 26.0975 120.187 25.268C121.003 24.4345 121.411 23.3844 121.411 22.1136C121.411 20.8225 120.989 19.7642 120.146 18.9347C119.308 18.1012 118.28 17.6844 117.062 17.6844C115.816 17.6844 114.772 18.1012 113.93 18.9347Z" fill="#FF2E2E"/>
<path d="M138.223 12.709V21.641C138.223 23.494 138.503 24.8117 139.064 25.5962C139.622 26.3767 140.573 26.7648 141.911 26.7648C143.253 26.7648 144.205 26.3767 144.766 25.5962C145.325 24.8117 145.606 23.494 145.606 21.641V12.709H152.076V23.2182C152.076 26.3399 151.264 28.5913 149.645 29.9682C148.023 31.3473 145.445 32.0358 141.911 32.0358C138.38 32.0358 135.804 31.3473 134.185 29.9682C132.563 28.5913 131.754 26.3399 131.754 23.2182V12.709H138.223Z" fill="#FF2E2E"/>
</svg>
