<svg width="153" height="33" viewBox="0 0 153 33" fill="none" xmlns="http://www.w3.org/2000/svg">
<path d="M0 32.3434V13.0527H6.48039V15.0842H6.55394C8.23737 13.3549 10.0291 12.4902 11.9311 12.4902C12.8627 12.4902 13.7862 12.6162 14.7014 12.868C15.6167 13.1156 16.4931 13.5018 17.3328 14.0264C18.1766 14.5532 18.861 15.3003 19.384 16.2678C19.907 17.2311 20.1685 18.3538 20.1685 19.634V32.3434H13.6881V21.4388C13.6881 20.4378 13.3776 19.5627 12.7565 18.8113C12.1354 18.0558 11.3223 17.6781 10.3212 17.6781C9.34468 17.6781 8.46006 18.0684 7.66533 18.8449C6.87469 19.6235 6.48039 20.4882 6.48039 21.4388V32.3434H0Z" fill="black"/>
<path d="M25.4732 29.9593C23.7182 27.9908 22.8418 25.5753 22.8418 22.7148C22.8418 19.8565 23.7182 17.4388 25.4732 15.4619C27.2322 13.4808 29.4652 12.4902 32.1742 12.4902C34.6626 12.4902 36.7138 13.2919 38.3277 14.8911V13.0527H44.8081V32.3434H38.4013V30.1608H38.3277C36.7138 31.9908 34.6626 32.9058 32.1742 32.9058C29.4652 32.9058 27.2322 31.9236 25.4732 29.9593ZM30.9811 19.4493C30.1414 20.3014 29.7226 21.3927 29.7226 22.7232C29.7226 24.0495 30.1251 25.1324 30.9321 25.9719C31.737 26.8114 32.7994 27.2311 34.1192 27.2311C35.3879 27.2311 36.4318 26.8072 37.249 25.9551C38.0662 25.0989 38.4748 24.0202 38.4748 22.7148C38.4748 21.3885 38.0519 20.3014 37.2082 19.4493C36.3685 18.5931 35.3388 18.165 34.1192 18.165C32.8709 18.165 31.8249 18.5931 30.9811 19.4493Z" fill="black"/>
<path d="M49.8234 2.29966C50.5793 1.52316 51.4823 1.13281 52.5283 1.13281C53.5784 1.13281 54.4835 1.52316 55.2414 2.29966C55.9974 3.07196 56.3773 3.99956 56.3773 5.07826C56.3773 6.15906 55.9974 7.08875 55.2414 7.86525C54.4835 8.63755 53.5784 9.0237 52.5283 9.0237C51.4823 9.0237 50.5793 8.63755 49.8234 7.86525C49.0655 7.08875 48.6875 6.15906 48.6875 5.07826C48.6875 3.99956 49.0655 3.07196 49.8234 2.29966ZM49.2023 13.0531V32.3438H55.6827V13.0531H49.2023Z" fill="black"/>
<path d="M79.5865 15.4628C81.3456 17.4397 82.2261 19.8573 82.2261 22.7157C82.2261 25.5761 81.3456 27.9917 79.5865 29.9602C77.8316 31.9245 75.5986 32.9067 72.8855 32.9067C70.3951 32.9067 68.346 31.9917 66.7402 30.1617H66.6666V32.3442H60.2598V0H66.7402V14.892C68.346 13.2928 70.3951 12.4911 72.8855 12.4911C75.5986 12.4911 77.8316 13.4817 79.5865 15.4628ZM74.1358 25.9728C74.9408 25.1333 75.3453 24.0504 75.3453 22.7241C75.3453 21.3935 74.9224 20.3022 74.0786 19.4502C73.2328 18.594 72.1909 18.1658 70.9487 18.1658C69.727 18.1658 68.6953 18.594 67.8516 19.4502C67.0119 20.3022 66.5931 21.3893 66.5931 22.7157C66.5931 24.021 67.0017 25.0997 67.8189 25.956C68.6361 26.808 69.678 27.232 70.9487 27.232C72.2665 27.232 73.3288 26.8122 74.1358 25.9728Z" fill="#FF2E2E"/>
<path d="M104.265 23.6214H90.6419C90.6419 24.9771 91.0689 25.9803 91.9249 26.6351C92.7789 27.2856 93.7085 27.6088 94.7116 27.6088C95.7576 27.6088 96.585 27.464 97.1959 27.1723C97.8047 26.8827 98.5034 26.3119 99.2879 25.4598L103.97 27.8691C102.019 31.2269 98.7731 32.9058 94.2294 32.9058C91.4019 32.9058 88.9748 31.9111 86.9482 29.9173C84.9215 27.9257 83.9082 25.5249 83.9082 22.7148C83.9082 19.9068 84.9215 17.4997 86.9482 15.4955C88.9748 13.4934 91.4019 12.4902 94.2294 12.4902C97.2081 12.4902 99.6311 13.3759 101.494 15.1429C103.362 16.9058 104.297 19.4304 104.297 22.7148C104.297 23.1681 104.285 23.4703 104.265 23.6214ZM90.8299 19.9362H97.964C97.8169 18.9289 97.4329 18.1566 96.8118 17.6193C96.1907 17.0821 95.3919 16.8134 94.4174 16.8134C93.3428 16.8134 92.4888 17.103 91.8514 17.6781C91.2181 18.2552 90.8789 19.0086 90.8299 19.9362Z" fill="#FF2E2E"/>
<path d="M108.614 29.9593C106.859 27.9908 105.982 25.5753 105.982 22.7148C105.982 19.8565 106.859 17.4388 108.614 15.4619C110.373 13.4808 112.606 12.4902 115.315 12.4902C117.803 12.4902 119.854 13.2919 121.468 14.8911V13.0527H127.949V32.3434H121.542V30.1608H121.468C119.854 31.9908 117.803 32.9058 115.315 32.9058C112.606 32.9058 110.373 31.9236 108.614 29.9593ZM114.122 19.4493C113.282 20.3014 112.863 21.3927 112.863 22.7232C112.863 24.0495 113.266 25.1324 114.073 25.9719C114.878 26.8114 115.94 27.2311 117.26 27.2311C118.528 27.2311 119.572 26.8072 120.39 25.9551C121.207 25.0989 121.615 24.0202 121.615 22.7148C121.615 21.3885 121.193 20.3014 120.349 19.4493C119.509 18.5931 118.479 18.165 117.26 18.165C116.012 18.165 114.965 18.5931 114.122 19.4493Z" fill="#FF2E2E"/>
<path d="M138.455 13.0527V22.228C138.455 24.1315 138.735 25.4851 139.297 26.291C139.857 27.0926 140.809 27.4914 142.149 27.4914C143.493 27.4914 144.447 27.0926 145.009 26.291C145.569 25.4851 145.851 24.1315 145.851 22.228V13.0527H152.331V23.8481C152.331 27.0549 151.518 29.3676 149.896 30.782C148.272 32.1986 145.689 32.9059 142.149 32.9059C138.612 32.9059 136.032 32.1986 134.41 30.782C132.786 29.3676 131.975 27.0549 131.975 23.8481V13.0527H138.455Z" fill="#FF2E2E"/>
</svg>
