<svg width="18" height="18" viewBox="0 0 18 18" fill="none" xmlns="http://www.w3.org/2000/svg">
<mask id="path-1-inside-1_687_2989" fill="white">
<path d="M0.0895735 0.0930241L0 0.188032L0.00853081 6.0046C0.021327 11.5361 0.0255924 11.8247 0.0981043 11.8845C0.170616 11.9443 0.588626 11.9478 8.88483 11.9584C15.1209 11.9654 17.6417 11.9584 17.7569 11.9302C17.8678 11.9021 17.9318 11.8634 17.9573 11.8036C17.9829 11.7473 18 9.52339 18 5.94478V0.173956L17.8934 0.0895053L17.791 0.00153544H8.98294H0.174882L0.0895735 0.0930241ZM17.4028 3.11567V5.73717H9H0.597156V3.11567V0.494167H9H17.4028V3.11567ZM17.4028 8.8513V11.4728H9H0.597156V8.8513V6.2298H9H17.4028V8.8513Z"/>
</mask>
<path d="M0.0895735 0.0930241L0 0.188032L0.00853081 6.0046C0.021327 11.5361 0.0255924 11.8247 0.0981043 11.8845C0.170616 11.9443 0.588626 11.9478 8.88483 11.9584C15.1209 11.9654 17.6417 11.9584 17.7569 11.9302C17.8678 11.9021 17.9318 11.8634 17.9573 11.8036C17.9829 11.7473 18 9.52339 18 5.94478V0.173956L17.8934 0.0895053L17.791 0.00153544H8.98294H0.174882L0.0895735 0.0930241ZM17.4028 3.11567V5.73717H9H0.597156V3.11567V0.494167H9H17.4028V3.11567ZM17.4028 8.8513V11.4728H9H0.597156V8.8513V6.2298H9H17.4028V8.8513Z" fill="black"/>
<path d="M0.0895735 0.0930241L1.55235 1.45699L1.54479 1.46501L0.0895735 0.0930241ZM0 0.188032L-2 0.190965L-2.00117 -0.604886L-1.45522 -1.18395L0 0.188032ZM0.00853081 6.0046L-1.99146 6.00923L-1.99147 6.00753L0.00853081 6.0046ZM8.88483 11.9584L8.88258 13.9584L8.88229 13.9584L8.88483 11.9584ZM17.7569 11.9302L18.2489 13.8688L18.2404 13.871L18.2318 13.8731L17.7569 11.9302ZM17.9573 11.8036L16.1186 11.0169L16.1274 10.9963L16.1366 10.9759L17.9573 11.8036ZM18 0.173956L19.2417 -1.39391L20 -0.793357V0.173956H18ZM17.8934 0.0895053L16.6517 1.65737L16.6203 1.63249L16.5899 1.60637L17.8934 0.0895053ZM17.791 0.00153544V-1.99846H18.5323L19.0945 -1.51533L17.791 0.00153544ZM0.174882 0.00153544L-1.28788 -1.36241L-0.694788 -1.99846H0.174882V0.00153544ZM17.4028 5.73717H19.4028V7.73717H17.4028V5.73717ZM0.597156 5.73717V7.73717H-1.40284V5.73717H0.597156ZM0.597156 0.494167H-1.40284V-1.50583H0.597156V0.494167ZM17.4028 0.494167V-1.50583H19.4028V0.494167H17.4028ZM17.4028 11.4728H19.4028V13.4728H17.4028V11.4728ZM0.597156 11.4728V13.4728H-1.40284V11.4728H0.597156ZM0.597156 6.2298H-1.40284V4.2298H0.597156V6.2298ZM17.4028 6.2298V4.2298H19.4028V6.2298H17.4028ZM0.0895735 0.0930241L1.54479 1.46501L1.45522 1.56002L0 0.188032L-1.45522 -1.18395L-1.36564 -1.27896L0.0895735 0.0930241ZM0 0.188032L2 0.185098L2.00853 6.00167L0.00853081 6.0046L-1.99147 6.00753L-2 0.190965L0 0.188032ZM0.00853081 6.0046L2.00853 5.99997C2.01494 8.77391 2.01921 10.2115 2.03069 10.966C2.0367 11.3606 2.04416 11.504 2.04752 11.5419C2.05042 11.5747 2.04389 11.4537 1.99482 11.2845C1.92718 11.0512 1.76132 10.6639 1.37084 10.3417L0.0981043 11.8845L-1.17463 13.4273C-1.58324 13.0902 -1.76509 12.6807 -1.8469 12.3986C-1.91013 12.1805 -1.92899 11.984 -1.93688 11.8949C-1.95512 11.689 -1.96312 11.4033 -1.96884 11.0269C-1.98083 10.2393 -1.98508 8.76683 -1.99146 6.00923L0.00853081 6.0046ZM0.0981043 11.8845L1.37084 10.3417C0.967652 10.0091 0.556297 9.94368 0.489417 9.93237C0.400992 9.91743 0.35684 9.91842 0.434356 9.92227C0.565659 9.92881 0.843469 9.93511 1.4244 9.94C2.56586 9.9496 4.73474 9.95312 8.88738 9.9584L8.88483 11.9584L8.88229 13.9584C4.73872 13.9531 2.55049 13.9496 1.39076 13.9399C0.821105 13.9351 0.462303 13.9286 0.235579 13.9173C0.134081 13.9123 -0.0194387 13.9031 -0.177009 13.8765C-0.313036 13.8535 -0.753316 13.7748 -1.17463 13.4273L0.0981043 11.8845ZM8.88483 11.9584L8.88709 9.9584C12.0051 9.96192 14.1906 9.96191 15.61 9.95753C16.3207 9.95533 16.8334 9.95206 17.1732 9.94768C17.3445 9.94547 17.4623 9.9431 17.536 9.9408C17.5743 9.93961 17.588 9.93881 17.5857 9.93895C17.5853 9.93897 17.5671 9.94003 17.5388 9.94287C17.5245 9.94431 17.4981 9.94715 17.4643 9.95203C17.4373 9.95592 17.3688 9.96623 17.282 9.98745L17.7569 11.9302L18.2318 13.8731C18.0816 13.9098 17.9552 13.9212 17.9392 13.9228C17.8942 13.9273 17.8546 13.93 17.8279 13.9316C17.7729 13.9349 17.7145 13.9372 17.6607 13.9389C17.5501 13.9423 17.4034 13.945 17.2247 13.9473C16.8646 13.952 16.3358 13.9553 15.6224 13.9575C14.1936 13.9619 12.0006 13.9619 8.88258 13.9584L8.88483 11.9584ZM17.7569 11.9302L17.2648 9.99173C17.2181 10.0036 17.0408 10.0504 16.8286 10.1831C16.5875 10.3339 16.2968 10.6004 16.1186 11.0169L17.9573 11.8036L19.7961 12.5903C19.3783 13.5669 18.4721 13.8121 18.2489 13.8688L17.7569 11.9302ZM17.9573 11.8036L16.1366 10.9759C16.0392 11.1903 16.0043 11.3732 15.9991 11.3987C15.9864 11.4607 15.9796 11.5095 15.9767 11.5319C15.9706 11.5786 15.9681 11.612 15.9677 11.6171C15.9666 11.6323 15.967 11.6315 15.9681 11.6028C15.9702 11.5506 15.9727 11.4616 15.9752 11.3295C15.9801 11.0689 15.9846 10.683 15.9883 10.1803C15.9957 9.17694 16 7.73181 16 5.94478H18H20C20 7.73636 19.9957 9.19248 19.9882 10.2098C19.9845 10.7174 19.9799 11.1217 19.9744 11.4058C19.9718 11.546 19.9687 11.6679 19.9649 11.7621C19.9632 11.8066 19.9606 11.8628 19.9564 11.9185C19.9544 11.9439 19.9504 11.9934 19.9427 12.0521C19.939 12.0804 19.9315 12.1341 19.918 12.2C19.912 12.2293 19.8763 12.4151 19.7781 12.6312L17.9573 11.8036ZM18 5.94478H16V0.173956H18H20V5.94478H18ZM18 0.173956L16.7583 1.74182L16.6517 1.65737L17.8934 0.0895053L19.1351 -1.47836L19.2417 -1.39391L18 0.173956ZM17.8934 0.0895053L16.5899 1.60637L16.4875 1.5184L17.791 0.00153544L19.0945 -1.51533L19.1969 -1.42736L17.8934 0.0895053ZM17.791 0.00153544V2.00154H8.98294V0.00153544V-1.99846H17.791V0.00153544ZM8.98294 0.00153544V2.00154H0.174882V0.00153544V-1.99846H8.98294V0.00153544ZM0.174882 0.00153544L1.63764 1.36548L1.55233 1.45697L0.0895735 0.0930241L-1.37319 -1.27092L-1.28788 -1.36241L0.174882 0.00153544ZM17.4028 3.11567H19.4028V5.73717H17.4028H15.4028V3.11567H17.4028ZM17.4028 5.73717V7.73717H9V5.73717V3.73717H17.4028V5.73717ZM9 5.73717V7.73717H0.597156V5.73717V3.73717H9V5.73717ZM0.597156 5.73717H-1.40284V3.11567H0.597156H2.59716V5.73717H0.597156ZM0.597156 3.11567H-1.40284V0.494167H0.597156H2.59716V3.11567H0.597156ZM0.597156 0.494167V-1.50583H9V0.494167V2.49417H0.597156V0.494167ZM9 0.494167V-1.50583H17.4028V0.494167V2.49417H9V0.494167ZM17.4028 0.494167H19.4028V3.11567H17.4028H15.4028V0.494167H17.4028ZM17.4028 8.8513H19.4028V11.4728H17.4028H15.4028V8.8513H17.4028ZM17.4028 11.4728V13.4728H9V11.4728V9.47281H17.4028V11.4728ZM9 11.4728V13.4728H0.597156V11.4728V9.47281H9V11.4728ZM0.597156 11.4728H-1.40284V8.8513H0.597156H2.59716V11.4728H0.597156ZM0.597156 8.8513H-1.40284V6.2298H0.597156H2.59716V8.8513H0.597156ZM0.597156 6.2298V4.2298H9V6.2298V8.2298H0.597156V6.2298ZM9 6.2298V4.2298H17.4028V6.2298V8.2298H9V6.2298ZM17.4028 6.2298H19.4028V8.8513H17.4028H15.4028V6.2298H17.4028Z" fill="black" mask="url(#path-1-inside-1_687_2989)"/>
<mask id="path-3-inside-2_687_2989" fill="white">
<path d="M1.45021 1.00911C1.41609 1.01967 1.3521 1.05133 1.31372 1.083C1.2412 1.13227 1.23694 1.27302 1.23694 3.10279C1.23694 5.02054 1.23694 5.06628 1.32225 5.13666C1.40755 5.20703 1.463 5.20703 8.99997 5.20703C16.5369 5.20703 16.5924 5.20703 16.6777 5.13666C16.763 5.06628 16.763 5.02054 16.763 3.10279C16.763 1.14986 16.763 1.13579 16.6734 1.06893C16.5839 1.00207 16.3919 1.00207 9.04689 0.995033C4.90518 0.991515 1.48433 0.998552 1.45021 1.00911ZM16.2085 3.09575V4.7144H8.99997H1.79144V3.09575V1.47711H8.99997H16.2085V3.09575Z"/>
</mask>
<path d="M1.45021 1.00911C1.41609 1.01967 1.3521 1.05133 1.31372 1.083C1.2412 1.13227 1.23694 1.27302 1.23694 3.10279C1.23694 5.02054 1.23694 5.06628 1.32225 5.13666C1.40755 5.20703 1.463 5.20703 8.99997 5.20703C16.5369 5.20703 16.5924 5.20703 16.6777 5.13666C16.763 5.06628 16.763 5.02054 16.763 3.10279C16.763 1.14986 16.763 1.13579 16.6734 1.06893C16.5839 1.00207 16.3919 1.00207 9.04689 0.995033C4.90518 0.991515 1.48433 0.998552 1.45021 1.00911ZM16.2085 3.09575V4.7144H8.99997H1.79144V3.09575V1.47711H8.99997H16.2085V3.09575Z" fill="black"/>
<path d="M1.31372 1.083L2.58645 2.62578L2.51464 2.68502L2.43763 2.73733L1.31372 1.083ZM9.04689 0.995033L9.04859 -1.00497L9.04881 -1.00497L9.04689 0.995033ZM16.2085 4.7144H18.2085V6.7144H16.2085V4.7144ZM1.79144 4.7144V6.7144H-0.208559V4.7144H1.79144ZM1.79144 1.47711H-0.208559V-0.522892H1.79144V1.47711ZM16.2085 1.47711V-0.522892H18.2085V1.47711H16.2085ZM1.45021 1.00911L2.04129 2.91977C2.12362 2.8943 2.18457 2.86902 2.21642 2.85519C2.2533 2.83918 2.28601 2.82327 2.31541 2.80779C2.34472 2.79235 2.37994 2.77251 2.41976 2.74718C2.45708 2.72344 2.51654 2.68345 2.58645 2.62578L1.31372 1.083L0.0409847 -0.459772C0.301322 -0.67454 0.603214 -0.822382 0.859126 -0.901551L1.45021 1.00911ZM1.31372 1.083L2.43763 2.73733C2.52544 2.67768 2.63369 2.59339 2.74401 2.47842C2.85502 2.36273 2.94596 2.2391 3.01863 2.1141C3.15553 1.87861 3.20663 1.67359 3.22542 1.58719C3.23621 1.53763 3.2421 1.49924 3.24512 1.47732C3.24821 1.45482 3.24951 1.44056 3.24977 1.43764C3.2501 1.43388 3.24859 1.45057 3.24673 1.50017C3.23839 1.72255 3.23694 2.16578 3.23694 3.10279H1.23694H-0.763062C-0.763062 2.21004 -0.762379 1.668 -0.750459 1.35024C-0.745541 1.21911 -0.735653 0.97822 -0.683166 0.736939C-0.653774 0.601825 -0.590451 0.363431 -0.439429 0.103667C-0.262628 -0.200441 -0.0333742 -0.419708 0.189797 -0.571326L1.31372 1.083ZM1.23694 3.10279H3.23694C3.23694 3.58433 3.23694 3.94099 3.23825 4.21004C3.23958 4.48536 3.24223 4.64054 3.24592 4.73051C3.24773 4.77464 3.2489 4.77875 3.24692 4.75981C3.24562 4.74745 3.23659 4.65824 3.20295 4.53443C3.16521 4.39555 3.08969 4.18658 2.93569 3.96529C2.78427 3.74771 2.62249 3.61658 2.59498 3.59388L1.32225 5.13666L0.0495155 6.67943C0.000675257 6.63914 -0.179768 6.49118 -0.347517 6.25014C-0.517846 6.00538 -0.607359 5.76631 -0.657092 5.58328C-0.735288 5.2955 -0.745801 5.01431 -0.750717 4.89446C-0.763559 4.58141 -0.763062 4.03131 -0.763062 3.10279H1.23694ZM1.32225 5.13666L2.59498 3.59388C2.45412 3.47768 2.21784 3.31981 1.89965 3.23198C1.72406 3.18351 1.5981 3.17931 1.64426 3.1827C1.70388 3.18707 1.88863 3.1938 2.38494 3.19832C3.33976 3.20701 5.22454 3.20703 8.99997 3.20703V5.20703V7.20703C5.23843 7.20703 3.32701 7.20706 2.34854 7.19815C1.8782 7.19387 1.56203 7.18741 1.35173 7.17199C1.26293 7.16547 1.05976 7.14973 0.835367 7.08779C0.46837 6.98649 0.211696 6.81322 0.0495155 6.67943L1.32225 5.13666ZM8.99997 5.20703V3.20703C12.7754 3.20703 14.6602 3.20701 15.615 3.19832C16.1113 3.1938 16.2961 3.18707 16.3557 3.1827C16.4018 3.17931 16.2759 3.18351 16.1003 3.23198C15.7821 3.31981 15.5458 3.47768 15.405 3.59388L16.6777 5.13666L17.9504 6.67943C17.7882 6.81322 17.5316 6.98649 17.1646 7.08779C16.9402 7.14973 16.737 7.16547 16.6482 7.17199C16.4379 7.18741 16.1217 7.19387 15.6514 7.19815C14.6729 7.20706 12.7615 7.20703 8.99997 7.20703V5.20703ZM16.6777 5.13666L15.405 3.59388C15.3775 3.61658 15.2157 3.74771 15.0643 3.96529C14.9102 4.18658 14.8347 4.39555 14.797 4.53443C14.7634 4.65824 14.7543 4.74745 14.753 4.75981C14.751 4.77875 14.7522 4.77464 14.754 4.73051C14.7577 4.64054 14.7604 4.48536 14.7617 4.21004C14.763 3.94099 14.763 3.58433 14.763 3.10279H16.763H18.763C18.763 4.03131 18.7635 4.58141 18.7507 4.89446C18.7457 5.01431 18.7352 5.2955 18.657 5.58328C18.6073 5.76631 18.5178 6.00538 18.3475 6.25014C18.1797 6.49118 17.9993 6.63914 17.9504 6.67943L16.6777 5.13666ZM16.763 3.10279H14.763C14.763 2.61234 14.763 2.25133 14.7616 1.98061C14.7602 1.70284 14.7574 1.55099 14.7537 1.46598C14.7519 1.42417 14.7509 1.42638 14.754 1.45313C14.7561 1.47187 14.7682 1.57956 14.8125 1.72458C14.8639 1.89291 14.9619 2.1231 15.148 2.35323C15.2346 2.46025 15.3184 2.54004 15.3814 2.59452C15.4116 2.62059 15.4367 2.64056 15.4523 2.6527C15.4602 2.65888 15.4666 2.66374 15.4706 2.66675C15.4744 2.66967 15.4771 2.67169 15.4771 2.6717L16.6734 1.06893L17.8697 -0.533842C17.8755 -0.529529 18.0738 -0.390012 18.258 -0.162399C18.4613 0.0889288 18.5739 0.34644 18.638 0.556009C18.7344 0.871829 18.7451 1.1809 18.7499 1.29119C18.7636 1.60386 18.763 2.15922 18.763 3.10279H16.763ZM16.6734 1.06893L15.4771 2.6717C15.9892 3.05394 16.5425 3.03874 16.3463 3.0259C16.266 3.02065 16.0601 3.01417 15.5621 3.00946C14.5958 3.00033 12.7239 2.99856 9.04497 2.99503L9.04689 0.995033L9.04881 -1.00497C12.7149 -1.00145 14.6115 -0.999703 15.5999 -0.990362C16.0791 -0.985833 16.397 -0.979337 16.6075 -0.965565C16.702 -0.95938 17.3128 -0.94951 17.8697 -0.533842L16.6734 1.06893ZM9.04689 0.995033L9.04519 2.99503C6.97571 2.99327 5.08697 2.99415 3.71204 2.99679C3.02426 2.99811 2.46668 2.99986 2.07987 3.00193C1.88586 3.00297 1.73808 3.00407 1.63935 3.0052C1.58894 3.00577 1.55733 3.00629 1.54077 3.00666C1.5309 3.00689 1.53572 3.00685 1.54812 3.00633C1.55248 3.00614 1.57429 3.00523 1.60381 3.00302C1.61735 3.002 1.64991 2.99945 1.69162 2.99441C1.7125 2.99189 1.74865 2.9872 1.79344 2.97941C1.82653 2.97366 1.92236 2.95656 2.04129 2.91977L1.45021 1.00911L0.859126 -0.901551C0.97832 -0.938425 1.07453 -0.955603 1.10809 -0.961439C1.15335 -0.96931 1.19008 -0.974081 1.21163 -0.976687C1.2547 -0.981892 1.28903 -0.984607 1.30475 -0.985786C1.33862 -0.988325 1.36641 -0.989561 1.37837 -0.990069C1.40598 -0.991241 1.43245 -0.991911 1.45052 -0.992319C1.48984 -0.993206 1.53927 -0.99392 1.59375 -0.994541C1.70481 -0.995807 1.86224 -0.99696 2.05845 -0.99801C2.45207 -1.00012 3.01496 -1.00188 3.70437 -1.0032C5.08383 -1.00585 6.97637 -1.00673 9.04859 -1.00497L9.04689 0.995033ZM16.2085 3.09575H18.2085V4.7144H16.2085H14.2085V3.09575H16.2085ZM16.2085 4.7144V6.7144H8.99997V4.7144V2.7144H16.2085V4.7144ZM8.99997 4.7144V6.7144H1.79144V4.7144V2.7144H8.99997V4.7144ZM1.79144 4.7144H-0.208559V3.09575H1.79144H3.79144V4.7144H1.79144ZM1.79144 3.09575H-0.208559V1.47711H1.79144H3.79144V3.09575H1.79144ZM1.79144 1.47711V-0.522892H8.99997V1.47711V3.47711H1.79144V1.47711ZM8.99997 1.47711V-0.522892H16.2085V1.47711V3.47711H8.99997V1.47711ZM16.2085 1.47711H18.2085V3.09575H16.2085H14.2085V1.47711H16.2085Z" fill="black" mask="url(#path-3-inside-2_687_2989)"/>
<path d="M3.62558 7.24794C3.28008 7.30424 2.84501 7.50833 2.58908 7.73705C1.60804 8.60971 2.02605 9.98204 3.39525 10.3797C3.73221 10.4782 4.27818 10.4782 4.62368 10.3761C5.28055 10.1896 5.73269 9.78499 5.90757 9.2255C6.2616 8.09949 5.02036 7.02273 3.62558 7.24794ZM4.59809 7.80391C5.16965 8.0467 5.47676 8.53933 5.36586 9.039C5.31041 9.28884 5.19951 9.46478 4.98624 9.64072C4.48719 10.0524 3.71089 10.0841 3.13506 9.72517C2.95164 9.60905 2.74264 9.35218 2.68292 9.16568C2.48671 8.56749 2.86634 7.96929 3.57866 7.74761C3.81326 7.67723 4.36776 7.70538 4.59809 7.80391Z" fill="black"/>
<path d="M8.5351 7.2686C7.47728 7.50084 6.8332 8.38405 7.10192 9.22857C7.33652 9.97807 8.0787 10.4566 8.99576 10.4531C9.92562 10.4531 10.6635 9.97807 10.8981 9.22857C11.2607 8.07792 9.91709 6.96246 8.5351 7.2686ZM9.63131 7.82808C10.3607 8.15533 10.5996 8.91539 10.1517 9.47136C9.8915 9.79509 9.49055 9.97103 9.00003 9.97103C8.71851 9.97455 8.63747 9.95696 8.39007 9.85843C7.9678 9.68601 7.71614 9.4045 7.64363 9.02799C7.53273 8.45443 7.93368 7.91957 8.61614 7.7366C8.67586 7.719 8.87633 7.71196 9.06401 7.71548C9.34552 7.72604 9.44789 7.74363 9.63131 7.82808Z" fill="black"/>
<path d="M13.5341 7.26152C12.9711 7.37412 12.4805 7.70489 12.2118 8.14826C12.0796 8.37346 12.0583 8.44736 12.0369 8.7359C12.0071 9.24612 12.1606 9.60152 12.5786 9.96748C12.9455 10.2947 13.4147 10.4566 13.9862 10.4531C14.9161 10.4531 15.654 9.97803 15.8886 9.22853C16.2511 8.0814 14.9374 6.98354 13.5341 7.26152ZM14.6218 7.82805C15.253 8.10955 15.5218 8.70775 15.2701 9.2602C15.0056 9.84784 14.1227 10.1434 13.436 9.88302C13.099 9.75635 12.9028 9.598 12.7493 9.34113C12.3739 8.71478 12.7791 7.96176 13.6066 7.73656C13.6663 7.71897 13.8668 7.71193 14.0545 7.71545C14.336 7.726 14.4383 7.7436 14.6218 7.82805Z" fill="black"/>
<mask id="path-8-inside-3_687_2989" fill="white">
<path d="M2.19665 12.1768C1.88527 12.2049 1.62508 12.2823 1.35636 12.4231C0.899964 12.6659 0.379585 13.2781 0.443566 13.4928C0.481954 13.6159 0.665367 13.7602 0.946883 13.8869L1.16015 13.9819L0.772002 14.0628C0.332665 14.1508 0.157784 14.2247 0.0895371 14.3408C0.0682101 14.383 0.0340869 14.5942 0.0170253 14.8088C-0.0213633 15.3437 0.00422907 15.3753 0.729348 15.6217L1.11323 15.7518L0.81039 15.7765C0.413708 15.8046 0.243092 15.868 0.174845 16.0017C0.127926 16.0932 0.136457 16.146 0.255888 16.4345C0.69949 17.5324 1.62935 18.1094 2.74688 17.9828C3.06679 17.9441 3.11371 17.9265 4.80707 17.1171L6.54309 16.2902H6.97816C7.6265 16.2902 17.0104 15.977 17.1426 15.9524C17.4839 15.882 17.8038 15.6463 17.936 15.3613C18.1407 14.9179 17.791 14.3654 17.2109 14.2317C17.0744 14.2001 16.554 14.1684 15.7606 14.1473C15.0824 14.1262 14.0331 14.091 13.436 14.0734C9.6739 13.9467 7.8739 13.8974 7.26394 13.8974H6.57295L6.21892 13.7285C6.02271 13.6335 5.22508 13.2535 4.44451 12.8805C3.08812 12.2331 3.01134 12.2014 2.73835 12.1803C2.58053 12.1662 2.3374 12.1662 2.19665 12.1768ZM4.49996 13.4646L6.1848 14.2669L6.17627 15.0903L6.16347 15.9102L4.49996 16.709L2.83646 17.5042H2.43124C2.07721 17.5042 2.00044 17.4901 1.81276 17.4092C1.50139 17.2755 1.18148 16.9764 0.981006 16.6351C0.887167 16.4767 0.81039 16.3289 0.81039 16.3043C0.81039 16.2761 0.904229 16.2515 1.05778 16.241C2.11134 16.1565 2.22224 16.1284 2.30328 15.9524C2.35447 15.8504 2.30328 15.7378 2.16679 15.6322C2.11134 15.5865 1.74025 15.4422 1.34357 15.312L0.618447 15.0692L0.605651 14.9003C0.580058 14.5871 0.575793 14.5906 1.14736 14.4816C1.79143 14.3584 1.93646 14.288 1.95352 14.0769C1.96631 13.9432 1.94925 13.908 1.82556 13.8024C1.74878 13.7356 1.56963 13.6265 1.42887 13.5596C1.01939 13.3696 1.04072 13.3907 1.15162 13.2605C1.52698 12.8066 1.94072 12.6201 2.50802 12.6448L2.81939 12.6623L4.49996 13.4646ZM7.59238 15.0938V15.7976H7.18717H6.78195V15.0938V14.3901H7.18717H7.59238V15.0938ZM12.7066 14.5308C17.3602 14.6857 17.2066 14.6716 17.3388 14.8862C17.4625 15.0833 17.3772 15.3296 17.1511 15.4246C17.0872 15.4527 16.8483 15.4879 16.6094 15.4985C16.0677 15.5266 8.73124 15.7624 8.42413 15.7624H8.18954V15.0762V14.3901H8.30897C8.37295 14.3901 10.3521 14.4534 12.7066 14.5308Z"/>
</mask>
<path d="M2.19665 12.1768C1.88527 12.2049 1.62508 12.2823 1.35636 12.4231C0.899964 12.6659 0.379585 13.2781 0.443566 13.4928C0.481954 13.6159 0.665367 13.7602 0.946883 13.8869L1.16015 13.9819L0.772002 14.0628C0.332665 14.1508 0.157784 14.2247 0.0895371 14.3408C0.0682101 14.383 0.0340869 14.5942 0.0170253 14.8088C-0.0213633 15.3437 0.00422907 15.3753 0.729348 15.6217L1.11323 15.7518L0.81039 15.7765C0.413708 15.8046 0.243092 15.868 0.174845 16.0017C0.127926 16.0932 0.136457 16.146 0.255888 16.4345C0.69949 17.5324 1.62935 18.1094 2.74688 17.9828C3.06679 17.9441 3.11371 17.9265 4.80707 17.1171L6.54309 16.2902H6.97816C7.6265 16.2902 17.0104 15.977 17.1426 15.9524C17.4839 15.882 17.8038 15.6463 17.936 15.3613C18.1407 14.9179 17.791 14.3654 17.2109 14.2317C17.0744 14.2001 16.554 14.1684 15.7606 14.1473C15.0824 14.1262 14.0331 14.091 13.436 14.0734C9.6739 13.9467 7.8739 13.8974 7.26394 13.8974H6.57295L6.21892 13.7285C6.02271 13.6335 5.22508 13.2535 4.44451 12.8805C3.08812 12.2331 3.01134 12.2014 2.73835 12.1803C2.58053 12.1662 2.3374 12.1662 2.19665 12.1768ZM4.49996 13.4646L6.1848 14.2669L6.17627 15.0903L6.16347 15.9102L4.49996 16.709L2.83646 17.5042H2.43124C2.07721 17.5042 2.00044 17.4901 1.81276 17.4092C1.50139 17.2755 1.18148 16.9764 0.981006 16.6351C0.887167 16.4767 0.81039 16.3289 0.81039 16.3043C0.81039 16.2761 0.904229 16.2515 1.05778 16.241C2.11134 16.1565 2.22224 16.1284 2.30328 15.9524C2.35447 15.8504 2.30328 15.7378 2.16679 15.6322C2.11134 15.5865 1.74025 15.4422 1.34357 15.312L0.618447 15.0692L0.605651 14.9003C0.580058 14.5871 0.575793 14.5906 1.14736 14.4816C1.79143 14.3584 1.93646 14.288 1.95352 14.0769C1.96631 13.9432 1.94925 13.908 1.82556 13.8024C1.74878 13.7356 1.56963 13.6265 1.42887 13.5596C1.01939 13.3696 1.04072 13.3907 1.15162 13.2605C1.52698 12.8066 1.94072 12.6201 2.50802 12.6448L2.81939 12.6623L4.49996 13.4646ZM7.59238 15.0938V15.7976H7.18717H6.78195V15.0938V14.3901H7.18717H7.59238V15.0938ZM12.7066 14.5308C17.3602 14.6857 17.2066 14.6716 17.3388 14.8862C17.4625 15.0833 17.3772 15.3296 17.1511 15.4246C17.0872 15.4527 16.8483 15.4879 16.6094 15.4985C16.0677 15.5266 8.73124 15.7624 8.42413 15.7624H8.18954V15.0762V14.3901H8.30897C8.37295 14.3901 10.3521 14.4534 12.7066 14.5308Z" fill="black"/>
<path d="M2.19665 12.1768L1.92653 9.18894L1.94939 9.18687L1.97229 9.18515L2.19665 12.1768ZM1.35636 12.4231L-0.0526214 9.77453L-0.0441295 9.77001L-0.0356087 9.76555L1.35636 12.4231ZM0.443566 13.4928L-2.42052 14.3855L-2.42609 14.3677L-2.43143 14.3497L0.443566 13.4928ZM0.946883 13.8869L-0.273909 16.6273L-0.284164 16.6227L0.946883 13.8869ZM1.16015 13.9819L2.38094 11.2415L10.8679 15.0223L1.7725 16.9187L1.16015 13.9819ZM0.772002 14.0628L1.38435 16.9997L1.37269 17.0021L1.36101 17.0044L0.772002 14.0628ZM0.0895371 14.3408L-2.58829 12.9883L-2.54523 12.9031L-2.49685 12.8207L0.0895371 14.3408ZM0.0170253 14.8088L-2.97528 14.594L-2.97445 14.5826L-2.97354 14.5711L0.0170253 14.8088ZM0.729348 15.6217L-0.234198 18.4627L-0.235572 18.4622L0.729348 15.6217ZM1.11323 15.7518L2.07678 12.9108L1.35643 18.742L1.11323 15.7518ZM0.81039 15.7765L1.05359 18.7666L1.03818 18.7679L1.02275 18.769L0.81039 15.7765ZM0.174845 16.0017L2.84693 17.3655L2.84427 17.3707L0.174845 16.0017ZM0.255888 16.4345L3.02782 15.2872L3.03266 15.2989L3.03741 15.3106L0.255888 16.4345ZM2.74688 17.9828L3.10724 20.961L3.09601 20.9624L3.08478 20.9637L2.74688 17.9828ZM4.80707 17.1171L3.51342 14.4104L3.51697 14.4087L4.80707 17.1171ZM6.54309 16.2902L5.25298 13.5818L5.86509 13.2902H6.54309V16.2902ZM17.1426 15.9524L17.7486 18.8906L17.7204 18.8964L17.692 18.9017L17.1426 15.9524ZM17.936 15.3613L20.6596 16.619L20.6574 16.6238L17.936 15.3613ZM17.2109 14.2317L16.537 17.1551L16.5328 17.1541L17.2109 14.2317ZM15.7606 14.1473L15.6808 17.1462L15.6673 17.1458L15.7606 14.1473ZM13.436 14.0734L13.3476 17.0721L13.335 17.0717L13.436 14.0734ZM6.57295 13.8974V16.8974H5.89398L5.28117 16.6051L6.57295 13.8974ZM6.21892 13.7285L4.92714 16.4362L4.9193 16.4324L4.91148 16.4287L6.21892 13.7285ZM4.44451 12.8805L5.73684 10.1731L5.73797 10.1737L4.44451 12.8805ZM2.73835 12.1803L2.50702 15.1713L2.48943 15.17L2.47185 15.1684L2.73835 12.1803ZM4.49996 13.4646L3.21018 16.1732L3.20752 16.172L4.49996 13.4646ZM6.1848 14.2669L7.47458 11.5583L9.20449 12.3821L9.18464 14.298L6.1848 14.2669ZM6.17627 15.0903L9.17611 15.1214L9.17602 15.1293L9.1759 15.1371L6.17627 15.0903ZM6.16347 15.9102L9.16311 15.957L9.13416 17.8117L7.46204 18.6146L6.16347 15.9102ZM4.49996 16.709L5.79853 19.4134L5.79388 19.4156L4.49996 16.709ZM2.83646 17.5042L4.13037 20.2108L3.51667 20.5042H2.83646V17.5042ZM1.81276 17.4092L2.99652 14.6526L3.0007 14.6544L1.81276 17.4092ZM0.981006 16.6351L3.56187 15.1056L3.56782 15.1157L0.981006 16.6351ZM1.05778 16.241L1.29749 19.2314L1.28052 19.2327L1.26354 19.2339L1.05778 16.241ZM2.30328 15.9524L-0.421541 14.6973L-0.400664 14.652L-0.378292 14.6074L2.30328 15.9524ZM2.16679 15.6322L0.331444 18.0053L0.294104 17.9764L0.257692 17.9464L2.16679 15.6322ZM1.34357 15.312L0.408034 18.1624L0.399525 18.1596L0.391032 18.1568L1.34357 15.312ZM0.618447 15.0692L-0.334086 17.914L-2.22253 17.2816L-2.37298 15.2958L0.618447 15.0692ZM0.605651 14.9003L3.59568 14.656L3.59641 14.6648L3.59708 14.6737L0.605651 14.9003ZM1.14736 14.4816L1.7108 17.4282L1.70975 17.4284L1.14736 14.4816ZM1.95352 14.0769L-1.03673 13.8353L-1.03495 13.8132L-1.03284 13.7911L1.95352 14.0769ZM1.82556 13.8024L-0.121901 16.0844L-0.13328 16.0747L-0.144561 16.0649L1.82556 13.8024ZM1.42887 13.5596L2.69166 10.8384L2.70385 10.844L2.716 10.8498L1.42887 13.5596ZM1.15162 13.2605L3.46357 15.1723L3.44961 15.1892L3.43541 15.2059L1.15162 13.2605ZM2.50802 12.6448L2.63816 9.64757L2.65772 9.64842L2.67726 9.64953L2.50802 12.6448ZM2.81939 12.6623L2.98864 9.66712L3.57859 9.70046L4.11184 9.95502L2.81939 12.6623ZM7.59238 15.7976H10.5924V18.7976H7.59238V15.7976ZM6.78195 15.7976V18.7976H3.78195V15.7976H6.78195ZM6.78195 14.3901H3.78195V11.3901H6.78195V14.3901ZM7.59238 14.3901V11.3901H10.5924V14.3901H7.59238ZM12.7066 14.5308L12.8052 11.5324L12.8064 11.5325L12.7066 14.5308ZM17.3388 14.8862L14.798 16.4812L14.7912 16.4705L14.7846 16.4597L17.3388 14.8862ZM17.1511 15.4246L15.943 12.6786L15.9658 12.6686L15.9888 12.6589L17.1511 15.4246ZM16.6094 15.4985L16.4538 12.5025L16.4654 12.5019L16.477 12.5014L16.6094 15.4985ZM8.18954 15.7624V18.7624H5.18954V15.7624H8.18954ZM8.18954 14.3901H5.18954V11.3901H8.18954V14.3901ZM2.19665 12.1768L2.46676 15.1646C2.48644 15.1628 2.53831 15.156 2.60715 15.1357C2.67627 15.1154 2.72615 15.0922 2.74833 15.0806L1.35636 12.4231L-0.0356087 9.76555C0.582591 9.44174 1.22408 9.25244 1.92653 9.18894L2.19665 12.1768ZM1.35636 12.4231L2.76534 15.0716C2.88745 15.0067 2.9466 14.9555 2.95189 14.951C2.96323 14.9414 2.97242 14.9328 2.9883 14.9142C2.99199 14.9098 3.07118 14.8199 3.16377 14.6395C3.20972 14.55 3.29981 14.3599 3.36399 14.0905C3.42133 13.8499 3.51734 13.3027 3.31856 12.6358L0.443566 13.4928L-2.43143 14.3497C-2.64621 13.6292 -2.54793 13.0159 -2.47259 12.6998C-2.39041 12.3549 -2.26661 12.0798 -2.17374 11.8989C-1.98731 11.5358 -1.76149 11.2374 -1.57866 11.0228C-1.22835 10.6117 -0.701202 10.1196 -0.0526214 9.77453L1.35636 12.4231ZM0.443566 13.4928L3.30765 12.6C3.1694 12.1565 2.95417 11.8511 2.81597 11.683C2.67128 11.5071 2.53671 11.3916 2.45497 11.3276C2.29583 11.2028 2.18494 11.1543 2.17793 11.1511L0.946883 13.8869L-0.284164 16.6227C-0.572691 16.4928 -0.916042 16.3088 -1.24687 16.0495C-1.49679 15.8535 -2.12964 15.3187 -2.42052 14.3855L0.443566 13.4928ZM0.946883 13.8869L2.16767 11.1465L2.38094 11.2415L1.16015 13.9819L-0.0606301 16.7223L-0.2739 16.6273L0.946883 13.8869ZM1.16015 13.9819L1.7725 16.9187L1.38435 16.9997L0.772002 14.0628L0.15965 11.126L0.547802 11.0451L1.16015 13.9819ZM0.772002 14.0628L1.36101 17.0044C1.17645 17.0414 1.25823 17.0374 1.43069 16.9666C1.62315 16.8876 2.24175 16.5996 2.67592 15.8609L0.0895371 14.3408L-2.49685 12.8207C-1.99442 11.9659 -1.25426 11.5829 -0.847468 11.4159C-0.460674 11.2572 -0.0717787 11.1722 0.182993 11.1212L0.772002 14.0628ZM0.0895371 14.3408L2.76736 15.6933C2.83724 15.555 2.88145 15.44 2.90459 15.3764C2.93006 15.3064 2.94798 15.2486 2.95928 15.2101C2.98135 15.135 2.99447 15.078 3.00014 15.0525C3.00671 15.0229 3.01068 15.002 3.01245 14.9923C3.01439 14.9817 3.0153 14.976 3.01537 14.9755C3.01542 14.9752 3.01407 14.984 3.01218 15.0001C3.01035 15.0157 3.00875 15.032 3.00759 15.0465L0.0170253 14.8088L-2.97354 14.5711C-2.95925 14.3913 -2.93776 14.2088 -2.91201 14.0448C-2.89947 13.965 -2.88159 13.8616 -2.85692 13.7506C-2.84479 13.6961 -2.82537 13.6139 -2.79728 13.5184C-2.77926 13.4571 -2.71568 13.2405 -2.58829 12.9883L0.0895371 14.3408ZM0.0170253 14.8088L3.00933 15.0236C2.99608 15.2082 3.01735 15.0457 2.99481 14.8237C2.96021 14.483 2.82193 13.8942 2.34597 13.3495C1.95755 12.905 1.54555 12.7335 1.52172 12.723C1.48076 12.7048 1.48718 12.7107 1.69427 12.7811L0.729348 15.6217L-0.235572 18.4622C-0.391046 18.4094 -0.659738 18.319 -0.908245 18.2089C-1.13961 18.1064 -1.69157 17.8475 -2.17223 17.2974C-2.74042 16.6471 -2.92323 15.9347 -2.97449 15.4299C-3.01369 15.0439 -2.98122 14.6768 -2.97528 14.594L0.0170253 14.8088ZM0.729348 15.6217L1.69289 12.7806L2.07678 12.9108L1.11323 15.7518L0.149688 18.5929L-0.234198 18.4627L0.729348 15.6217ZM1.11323 15.7518L1.35643 18.742L1.05359 18.7666L0.81039 15.7765L0.56719 12.7864L0.870034 12.7617L1.11323 15.7518ZM0.81039 15.7765L1.02275 18.769C0.890405 18.7783 1.08295 18.7805 1.38041 18.674C1.55506 18.6115 1.82457 18.4917 2.10989 18.2657C2.41265 18.0259 2.6665 17.719 2.84693 17.3655L0.174845 16.0017L-2.49724 14.6379C-2.02172 13.7062 -1.24025 13.2393 -0.641501 13.025C-0.1425 12.8464 0.333693 12.8028 0.598031 12.784L0.81039 15.7765ZM0.174845 16.0017L2.84427 17.3707C2.90041 17.2612 3.03632 16.9801 3.10543 16.5878C3.17711 16.1809 3.14664 15.8354 3.10321 15.6C3.06576 15.397 3.01474 15.2581 3.0097 15.2441C3.00121 15.2204 3.00135 15.2232 3.02782 15.2872L0.255888 16.4345L-2.51604 17.5818C-2.54402 17.5143 -2.71747 17.1208 -2.79724 16.6884C-2.85186 16.3923 -2.88314 15.9984 -2.80359 15.5469C-2.72662 15.1099 -2.57418 14.7879 -2.49458 14.6327L0.174845 16.0017ZM0.255888 16.4345L3.03741 15.3106C3.05233 15.3475 3.01178 15.2314 2.83186 15.1196C2.64376 15.0027 2.46986 14.995 2.40899 15.0019L2.74688 17.9828L3.08478 20.9637C0.534901 21.2527 -1.61338 19.8161 -2.52563 17.5584L0.255888 16.4345ZM2.74688 17.9828L2.38653 15.0045C2.45213 14.9965 2.34345 15.007 2.21004 15.0417C2.09162 15.0725 2.03394 15.1008 2.10221 15.0722C2.17295 15.0425 2.30024 14.9856 2.54213 14.8722C2.77782 14.7617 3.08797 14.6137 3.51342 14.4104L4.80707 17.1171L6.10073 19.8239C5.29308 20.2099 4.7712 20.4592 4.42165 20.6057C3.88794 20.8294 3.52561 20.9104 3.10724 20.961L2.74688 17.9828ZM4.80707 17.1171L3.51697 14.4087L5.25298 13.5818L6.54309 16.2902L7.8332 18.9987L6.09718 19.8256L4.80707 17.1171ZM6.54309 16.2902V13.2902H6.97816V16.2902V19.2902H6.54309V16.2902ZM6.97816 16.2902V13.2902C6.97399 13.2902 6.98368 13.2902 7.01559 13.2897C7.04446 13.2892 7.08291 13.2885 7.13162 13.2874C7.22896 13.2853 7.35754 13.2821 7.51466 13.2778C7.82838 13.2693 8.2446 13.2571 8.72961 13.2423C9.699 13.2127 10.934 13.1728 12.1541 13.1322C13.3742 13.0916 14.5768 13.0502 15.4815 13.0175C15.9344 13.0012 16.3094 12.9871 16.5735 12.9764C16.7065 12.9711 16.8055 12.9668 16.8703 12.9637C16.886 12.963 16.8984 12.9623 16.9077 12.9618C16.9124 12.9616 16.9159 12.9614 16.9184 12.9613C16.921 12.9611 16.9221 12.9611 16.9218 12.9611C16.9217 12.9611 16.9191 12.9612 16.9147 12.9615C16.9106 12.9618 16.9017 12.9624 16.8894 12.9634C16.8791 12.9642 16.8548 12.9663 16.8229 12.9696C16.8111 12.9709 16.7148 12.9805 16.5932 13.0032L17.1426 15.9524L17.692 18.9017C17.5684 18.9247 17.4688 18.9348 17.4528 18.9365C17.4166 18.9403 17.3868 18.9428 17.37 18.9441C17.3354 18.9469 17.3046 18.9489 17.2855 18.95C17.2448 18.9525 17.1997 18.9548 17.1573 18.9568C17.0698 18.961 16.953 18.966 16.8155 18.9716C16.5386 18.9827 16.1537 18.9972 15.6981 19.0136C14.7859 19.0466 13.5772 19.0882 12.3538 19.1289C9.95587 19.2087 7.36802 19.2902 6.97816 19.2902V16.2902ZM17.1426 15.9524L16.5366 13.0143C16.2545 13.0725 16.0199 13.1871 15.8288 13.329C15.6443 13.466 15.3963 13.707 15.2146 14.0987L17.936 15.3613L20.6574 16.6238C20.0685 17.8931 18.8802 18.6572 17.7486 18.8906L17.1426 15.9524ZM17.936 15.3613L15.2124 14.1035C14.8054 14.9847 15.0356 15.8197 15.3398 16.2958C15.6409 16.767 16.0845 17.0508 16.537 17.1551L17.2109 14.2317L17.8847 11.3084C18.9173 11.5464 19.8258 12.1733 20.3956 13.0649C20.9686 13.9615 21.2713 15.2944 20.6596 16.619L17.936 15.3613ZM17.2109 14.2317L16.5328 17.1541C16.6454 17.1802 16.7255 17.1909 16.736 17.1923C16.7582 17.1953 16.765 17.1957 16.7502 17.1943C16.7206 17.1914 16.6583 17.1864 16.5556 17.1803C16.3529 17.1684 16.0591 17.1563 15.6808 17.1462L15.7606 14.1473L15.8404 11.1483C16.2555 11.1594 16.6186 11.1737 16.9085 11.1907C17.0816 11.2009 17.5226 11.2244 17.8889 11.3094L17.2109 14.2317ZM15.7606 14.1473L15.6673 17.1458C14.9727 17.1242 13.9449 17.0897 13.3476 17.0721L13.436 14.0734L13.5243 11.0747C14.1214 11.0923 15.1921 11.1281 15.854 11.1487L15.7606 14.1473ZM13.436 14.0734L13.335 17.0717C9.54548 16.9441 7.81006 16.8974 7.26394 16.8974V13.8974V10.8974C7.93773 10.8974 9.80231 10.9493 13.5369 11.0751L13.436 14.0734ZM7.26394 13.8974V16.8974H6.57295V13.8974V10.8974H7.26394V13.8974ZM6.57295 13.8974L5.28117 16.6051L4.92714 16.4362L6.21892 13.7285L7.5107 11.0209L7.86473 11.1898L6.57295 13.8974ZM6.21892 13.7285L4.91148 16.4287C4.72452 16.3381 3.94327 15.9659 3.15106 15.5873L4.44451 12.8805L5.73797 10.1737C6.50689 10.5411 7.32091 10.9289 7.52636 11.0284L6.21892 13.7285ZM4.44451 12.8805L3.15218 15.5879C2.81085 15.425 2.56378 15.3074 2.3756 15.2195C2.18114 15.1288 2.08877 15.0884 2.04589 15.0708C2.0059 15.0544 2.08605 15.0903 2.22812 15.1244C2.39226 15.1639 2.52175 15.1725 2.50702 15.1713L2.73835 12.1803L2.96968 9.1892C3.42852 9.22469 3.82173 9.31389 4.32442 9.52025C4.64547 9.65204 5.10096 9.86961 5.73684 10.1731L4.44451 12.8805ZM2.73835 12.1803L2.47185 15.1684C2.48533 15.1696 2.49339 15.1701 2.49521 15.1702C2.49733 15.1703 2.49617 15.1703 2.49165 15.1701C2.48198 15.1697 2.46654 15.1693 2.44765 15.1692C2.42882 15.1692 2.41293 15.1694 2.40265 15.1697C2.3978 15.1698 2.39627 15.1699 2.39803 15.1698C2.3994 15.1698 2.40737 15.1694 2.42101 15.1684L2.19665 12.1768L1.97229 9.18515C2.26607 9.16312 2.67369 9.1626 3.00485 9.19213L2.73835 12.1803ZM4.49996 13.4646L5.78974 10.756L7.47458 11.5583L6.1848 14.2669L4.89502 16.9755L3.21018 16.1732L4.49996 13.4646ZM6.1848 14.2669L9.18464 14.298L9.17611 15.1214L6.17627 15.0903L3.17643 15.0592L3.18496 14.2358L6.1848 14.2669ZM6.17627 15.0903L9.1759 15.1371L9.16311 15.957L6.16347 15.9102L3.16384 15.8634L3.17663 15.0435L6.17627 15.0903ZM6.16347 15.9102L7.46204 18.6146L5.79853 19.4133L4.49996 16.709L3.2014 14.0046L4.8649 13.2058L6.16347 15.9102ZM4.49996 16.709L5.79388 19.4156L4.13037 20.2108L2.83646 17.5042L1.54254 14.7976L3.20605 14.0023L4.49996 16.709ZM2.83646 17.5042V20.5042H2.43124V17.5042V14.5042H2.83646V17.5042ZM2.43124 17.5042V20.5042C2.26875 20.5042 1.94229 20.5053 1.59462 20.4508C1.14604 20.3804 0.814008 20.2456 0.624817 20.164L1.81276 17.4092L3.0007 14.6544C3.01589 14.661 2.95697 14.6346 2.86513 14.6048C2.75732 14.5698 2.64141 14.5416 2.52462 14.5233C2.42078 14.507 2.34981 14.5039 2.34091 14.5035C2.33538 14.5033 2.35531 14.5042 2.43124 14.5042V17.5042ZM1.81276 17.4092L0.628998 20.1658C-0.371828 19.736 -1.14251 18.9432 -1.6058 18.1544L0.981006 16.6351L3.56782 15.1157C3.51479 15.0254 3.45945 14.9601 3.40057 14.9053C3.34872 14.8569 3.22255 14.7497 2.99652 14.6526L1.81276 17.4092ZM0.981006 16.6351L-1.59984 18.1645C-1.66893 18.0479 -1.74109 17.9198 -1.80445 17.7972C-1.83376 17.7405 -1.879 17.6508 -1.92439 17.5471C-1.94559 17.4986 -1.98572 17.4045 -2.02618 17.2856C-2.02689 17.2835 -2.18961 16.8556 -2.18961 16.3043H0.81039H3.81039C3.81039 15.9682 3.75234 15.7112 3.73071 15.6198C3.70221 15.4992 3.67188 15.4054 3.65393 15.3526C3.61803 15.2471 3.58464 15.1698 3.57209 15.1411C3.55613 15.1046 3.54357 15.0785 3.53765 15.0663C3.53107 15.0527 3.52674 15.0443 3.52547 15.0419C3.52396 15.0389 3.5371 15.0638 3.56185 15.1056L0.981006 16.6351ZM0.81039 16.3043H-2.18961C-2.18961 14.5329 -0.79368 13.7555 -0.667037 13.6828C-0.313616 13.4797 0.00316808 13.3931 0.127589 13.361C0.423747 13.2847 0.690876 13.2591 0.852029 13.248L1.05778 16.241L1.26354 19.2339C1.27114 19.2334 1.41457 19.2254 1.62542 19.171C1.70719 19.15 1.99091 19.0754 2.32194 18.8853C2.48841 18.7896 2.80356 18.588 3.10526 18.2313C3.42653 17.8515 3.81039 17.1931 3.81039 16.3043H0.81039ZM1.05778 16.241L0.818078 13.2506C1.08092 13.2295 1.24872 13.2147 1.36327 13.2023C1.49603 13.188 1.46284 13.1863 1.36313 13.2096C1.2755 13.23 0.865512 13.3276 0.422291 13.6601C-0.0957547 14.0488 -0.335576 14.5107 -0.421541 14.6973L2.30328 15.9524L5.0281 17.2075C4.90162 17.4821 4.61754 18.0135 4.02299 18.4596C3.50325 18.8495 2.9845 18.9924 2.72732 19.0524C2.28625 19.1554 1.7259 19.197 1.29749 19.2314L1.05778 16.241ZM2.30328 15.9524L-0.378292 14.6074C-0.785596 15.4194 -0.744938 16.3 -0.446961 16.9871C-0.196363 17.565 0.17453 17.8839 0.331444 18.0053L2.16679 15.6322L4.00213 13.2591C4.29554 13.486 4.76027 13.914 5.05779 14.6001C5.40269 15.3955 5.44334 16.3834 4.98485 17.2975L2.30328 15.9524ZM2.16679 15.6322L0.257692 17.9464C0.336531 18.0114 0.405274 18.0612 0.454331 18.0951C0.504896 18.1301 0.548749 18.158 0.582166 18.1785C0.647183 18.2185 0.699748 18.247 0.729955 18.263C0.789383 18.2944 0.830461 18.3129 0.83764 18.3161C0.855131 18.324 0.84456 18.3187 0.795748 18.2998C0.703925 18.2641 0.563355 18.2134 0.408034 18.1624L1.34357 15.312L2.2791 12.4616C2.52046 12.5408 2.76378 12.6274 2.97053 12.7078C3.07101 12.7469 3.1884 12.7944 3.30346 12.8462C3.35942 12.8715 3.44169 12.9097 3.53358 12.9583C3.57464 12.98 3.81784 13.1052 4.07588 13.318L2.16679 15.6322ZM1.34357 15.312L0.391032 18.1568L-0.334086 17.914L0.618447 15.0692L1.57098 12.2244L2.2961 12.4672L1.34357 15.312ZM0.618447 15.0692L-2.37298 15.2958L-2.38578 15.1269L0.605651 14.9003L3.59708 14.6737L3.60987 14.8426L0.618447 15.0692ZM0.605651 14.9003L-2.38438 15.1446C-2.38584 15.1268 -2.39395 15.0334 -2.39839 14.9412C-2.40278 14.8501 -2.41056 14.6448 -2.38335 14.3942C-2.35466 14.13 -2.27975 13.7381 -2.06528 13.3115C-1.83934 12.8621 -1.52498 12.5057 -1.18156 12.2404C-0.612877 11.801 -0.0185665 11.6658 0.0900686 11.6386C0.272889 11.5929 0.483649 11.5541 0.58496 11.5347L1.14736 14.4816L1.70975 17.4284C1.52528 17.4636 1.52224 17.4652 1.54591 17.4593C1.56826 17.4537 1.6709 17.4279 1.8093 17.3739C1.94594 17.3205 2.20403 17.2068 2.4867 16.9884C2.79653 16.749 3.08663 16.4218 3.29547 16.0064C3.49285 15.6138 3.55783 15.2607 3.58158 15.042C3.60386 14.8368 3.59615 14.6834 3.59466 14.6525C3.59312 14.6206 3.59074 14.5955 3.59568 14.656L0.605651 14.9003ZM1.14736 14.4816L0.583916 11.5349C0.649949 11.5223 0.698846 11.5124 0.73516 11.5046C0.772109 11.4966 0.78689 11.4928 0.786114 11.493C0.785057 11.4933 0.777514 11.4953 0.764669 11.4991C0.751904 11.5029 0.731454 11.5092 0.704872 11.5183C0.655298 11.5354 0.562308 11.5698 0.44518 11.6283C0.209174 11.7462 -0.217795 12.0087 -0.567589 12.5216C-0.925426 13.0463 -1.01422 13.5567 -1.03673 13.8353L1.95352 14.0769L4.94377 14.3185C4.91273 14.7027 4.79941 15.301 4.38945 15.9021C3.98754 16.4915 3.48086 16.8189 3.12596 16.9961C2.57078 17.2734 1.94807 17.3828 1.7108 17.4282L1.14736 14.4816ZM1.95352 14.0769L-1.03284 13.7911C-1.03436 13.807 -1.0526 13.9795 -1.03573 14.2107C-1.01578 14.4842 -0.948834 14.8326 -0.776082 15.2015C-0.612698 15.5504 -0.414935 15.7874 -0.29849 15.9128C-0.240719 15.975 -0.193027 16.0201 -0.166875 16.0443C-0.140525 16.0686 -0.122731 16.0837 -0.121901 16.0844L1.82556 13.8024L3.77301 11.5205C3.78953 11.5346 4.32711 11.9512 4.65753 12.6567C5.04496 13.484 4.95155 14.2407 4.93987 14.3627L1.95352 14.0769ZM1.82556 13.8024L-0.144561 16.0649C-0.0916393 16.111 -0.0485643 16.1446 -0.0224721 16.1644C0.00514022 16.1854 0.0268561 16.2008 0.0406502 16.2104C0.0672318 16.2288 0.0831641 16.2386 0.0869103 16.2409C0.0918782 16.2439 0.0953948 16.246 0.0996196 16.2483C0.102951 16.2501 0.116784 16.2576 0.141752 16.2695L1.42887 13.5596L2.716 10.8498C2.97612 10.9733 3.428 11.2198 3.79567 11.54L1.82556 13.8024ZM1.42887 13.5596L0.166087 16.2809C0.105286 16.2527 -0.0364771 16.188 -0.138461 16.1373C-0.195162 16.1091 -0.309647 16.0512 -0.439689 15.9712C-0.545906 15.9059 -0.829018 15.7269 -1.11198 15.4196C-1.4301 15.0741 -1.85509 14.4448 -1.91142 13.551C-1.96423 12.7129 -1.65974 12.0979 -1.50431 11.83C-1.35423 11.5713 -1.19387 11.3871 -1.17266 11.3621C-1.15098 11.3365 -1.12997 11.3126 -1.12815 11.3105C-1.12159 11.303 -1.12595 11.3079 -1.13217 11.3152L1.15162 13.2605L3.43541 15.2059C3.41533 15.2294 3.39781 15.2495 3.39207 15.2561C3.38159 15.2681 3.39117 15.2572 3.40246 15.2439C3.40288 15.2434 3.54657 15.0804 3.68546 14.841C3.82969 14.5924 4.12845 13.9948 4.0767 13.1736C4.02144 12.2967 3.60431 11.6839 3.30219 11.3557C3.03523 11.0657 2.77624 10.9051 2.70361 10.8605C2.60716 10.8011 2.53573 10.7662 2.53288 10.7648C2.52296 10.7599 2.52574 10.7614 2.56044 10.7776C2.6038 10.7978 2.62163 10.8059 2.69166 10.8384L1.42887 13.5596ZM1.15162 13.2605L-1.16033 11.3488C-0.752466 10.8555 -0.207766 10.3703 0.519409 10.0407C1.25174 9.70882 1.98289 9.61912 2.63816 9.64757L2.50802 12.6448L2.37789 15.6419C2.46585 15.6457 2.70648 15.637 2.99628 15.5056C3.28092 15.3766 3.43107 15.2116 3.46357 15.1723L1.15162 13.2605ZM2.50802 12.6448L2.67726 9.64953L2.98864 9.66712L2.81939 12.6623L2.65015 15.6576L2.33878 15.64L2.50802 12.6448ZM2.81939 12.6623L4.11184 9.95502L5.79241 10.7573L4.49996 13.4646L3.20752 16.172L1.52695 15.3697L2.81939 12.6623ZM7.59238 15.0938H10.5924V15.7976H7.59238H4.59238V15.0938H7.59238ZM7.59238 15.7976V18.7976H7.18717V15.7976V12.7976H7.59238V15.7976ZM7.18717 15.7976V18.7976H6.78195V15.7976V12.7976H7.18717V15.7976ZM6.78195 15.7976H3.78195V15.0938H6.78195H9.78195V15.7976H6.78195ZM6.78195 15.0938H3.78195V14.3901H6.78195H9.78195V15.0938H6.78195ZM6.78195 14.3901V11.3901H7.18717V14.3901V17.3901H6.78195V14.3901ZM7.18717 14.3901V11.3901H7.59238V14.3901V17.3901H7.18717V14.3901ZM7.59238 14.3901H10.5924V15.0938H7.59238H4.59238V14.3901H7.59238ZM12.7066 14.5308L12.8064 11.5325C15.0766 11.608 16.3023 11.6457 16.9462 11.6948C17.1534 11.7106 17.7631 11.7467 18.344 11.983C18.7723 12.1572 19.2063 12.4386 19.57 12.8628C19.7919 13.1215 20.028 13.5318 19.8931 13.3127L17.3388 14.8862L14.7846 16.4597C14.766 16.4296 14.7503 16.403 14.7484 16.3998C14.7422 16.3894 14.7531 16.4079 14.7669 16.4302C14.7966 16.478 14.8815 16.6124 15.0153 16.7685C15.344 17.1518 15.7319 17.3979 16.0833 17.5408C16.3576 17.6524 16.5656 17.6822 16.5792 17.6843C16.6128 17.6896 16.5972 17.6856 16.4902 17.6774C16.0144 17.6412 14.9901 17.6085 12.6068 17.5292L12.7066 14.5308ZM17.3388 14.8862L19.8797 13.2912C21.0802 15.2037 20.0809 17.4475 18.3135 18.1903L17.1511 15.4246L15.9888 12.6589C14.6735 13.2117 13.8448 14.9628 14.798 16.4812L17.3388 14.8862ZM17.1511 15.4246L18.3593 18.1706C18.0399 18.3111 17.7527 18.3692 17.6934 18.3817C17.5713 18.4075 17.4561 18.426 17.3611 18.4393C17.1693 18.4661 16.9555 18.4861 16.7419 18.4956L16.6094 15.4985L16.477 12.5014C16.4864 12.501 16.4989 12.5002 16.512 12.499C16.5255 12.4977 16.5325 12.4968 16.5307 12.497C16.5294 12.4972 16.5231 12.4981 16.5121 12.4999C16.5018 12.5017 16.4814 12.5053 16.4528 12.5114C16.4268 12.5169 16.3762 12.5281 16.3098 12.5467C16.2757 12.5563 16.2287 12.5702 16.1729 12.5892C16.1193 12.6073 16.0389 12.6364 15.943 12.6786L17.1511 15.4246ZM16.6094 15.4985L16.7651 18.4945C16.1994 18.5238 8.80507 18.7624 8.42413 18.7624V15.7624V12.7624C8.40813 12.7624 8.49726 12.7607 8.75742 12.7534C8.98501 12.747 9.2962 12.7378 9.66506 12.7265C10.4023 12.704 11.3632 12.6738 12.3323 12.6426C14.2989 12.5792 16.2217 12.5146 16.4538 12.5025L16.6094 15.4985ZM8.42413 15.7624V18.7624H8.18954V15.7624V12.7624H8.42413V15.7624ZM8.18954 15.7624H5.18954V15.0762H8.18954H11.1895V15.7624H8.18954ZM8.18954 15.0762H5.18954V14.3901H8.18954H11.1895V15.0762H8.18954ZM8.18954 14.3901V11.3901H8.30897V14.3901V17.3901H8.18954V14.3901ZM8.30897 14.3901V11.3901C8.4386 11.3901 10.5095 11.457 12.8052 11.5324L12.7066 14.5308L12.608 17.5292C10.1947 17.4499 8.3073 17.3901 8.30897 17.3901V14.3901Z" fill="black" mask="url(#path-8-inside-3_687_2989)"/>
</svg>
