<svg width="45" height="48" viewBox="0 0 45 48" fill="none" xmlns="http://www.w3.org/2000/svg">
<mask id="path-1-inside-1_242_5059" fill="white">
<path d="M0.46699 47.9756C0.628229 48.0257 0.79953 47.998 0.943763 47.8986C1.08799 47.7992 1.19354 47.6361 1.23751 47.4446C2.5343 41.6794 7.80455 40.1852 10.9546 39.2911C11.744 39.0676 12.3672 38.8906 12.7726 38.682C16.3609 36.8263 17.5305 33.841 17.8805 31.6627C17.9013 31.5331 17.8931 31.3993 17.8566 31.2747C17.8201 31.1501 17.7567 31.0392 17.6727 30.9531C15.8044 29.0314 14.2281 26.1466 13.2334 22.8282C13.2051 22.7331 13.161 22.6459 13.1038 22.5716C11.7881 20.8674 11.0327 19.0657 11.0327 17.6301C11.0327 16.7915 11.2983 16.2289 11.8964 15.8043C11.9859 15.7405 12.0608 15.6512 12.1142 15.5444C12.1676 15.4375 12.1979 15.3165 12.2023 15.1923C12.4806 7.55038 17.0483 1.53468 22.6509 1.49568L22.7856 1.50618C28.416 1.59919 32.9547 7.74391 33.1171 15.4938C33.1196 15.5997 33.1408 15.7038 33.1794 15.7992C33.2181 15.8946 33.2732 15.9792 33.3412 16.0474C33.7353 16.4449 33.9191 16.949 33.9191 17.6331C33.9191 18.8347 33.3815 20.3124 32.4071 21.7916C32.3601 21.8623 32.3243 21.9426 32.3013 22.0286C31.2941 25.833 29.4861 29.1919 27.3433 31.2472C27.2543 31.3324 27.1864 31.4448 27.147 31.5724C27.1075 31.7001 27.0979 31.8381 27.1192 31.9717C27.4692 34.1485 28.6388 37.1323 32.227 38.9911C32.6513 39.2101 33.3098 39.3811 34.1445 39.5956C37.2631 40.3997 42.4817 41.7484 43.7621 47.4446C43.7836 47.5397 43.8207 47.6289 43.8711 47.707C43.9215 47.7851 43.9843 47.8506 44.056 47.8998C44.1277 47.949 44.2067 47.9808 44.2888 47.9936C44.3708 48.0063 44.4541 47.9997 44.5339 47.9741C44.6138 47.9485 44.6886 47.9044 44.7542 47.8443C44.8197 47.7843 44.8747 47.7094 44.916 47.624C44.9573 47.5386 44.984 47.4444 44.9947 47.3466C45.0054 47.2489 44.9999 47.1497 44.9784 47.0545C43.499 40.4732 37.5867 38.9476 34.4114 38.1285C33.6749 37.9379 33.0391 37.7744 32.7294 37.6124C30.3876 36.4003 28.9448 34.5535 28.4348 32.1143C30.6092 29.8895 32.4285 26.4571 33.4684 22.6076C34.5726 20.8974 35.1794 19.1362 35.1794 17.6316C35.1794 16.6279 34.9075 15.7908 34.3686 15.1368C34.069 6.72979 29.0341 0.109513 22.7856 0.00300035L22.598 0C16.4628 0.0390046 11.4066 6.48526 10.9647 14.7467C10.1765 15.4368 9.77618 16.4044 9.77618 17.6331C9.77618 19.4078 10.6185 21.5305 12.0928 23.4777C13.1113 26.8126 14.6901 29.7425 16.5698 31.7932C16.0625 34.2415 14.6184 36.0942 12.2716 37.3079C11.9681 37.4654 11.3638 37.6379 10.6638 37.8359C7.46462 38.742 1.51198 40.4297 0.0212971 47.0575C-0.0217533 47.2497 0.00101515 47.4544 0.0845952 47.6265C0.168175 47.7987 0.305723 47.9243 0.46699 47.9756Z"/>
</mask>
<path d="M0.46699 47.9756C0.628229 48.0257 0.79953 47.998 0.943763 47.8986C1.08799 47.7992 1.19354 47.6361 1.23751 47.4446C2.5343 41.6794 7.80455 40.1852 10.9546 39.2911C11.744 39.0676 12.3672 38.8906 12.7726 38.682C16.3609 36.8263 17.5305 33.841 17.8805 31.6627C17.9013 31.5331 17.8931 31.3993 17.8566 31.2747C17.8201 31.1501 17.7567 31.0392 17.6727 30.9531C15.8044 29.0314 14.2281 26.1466 13.2334 22.8282C13.2051 22.7331 13.161 22.6459 13.1038 22.5716C11.7881 20.8674 11.0327 19.0657 11.0327 17.6301C11.0327 16.7915 11.2983 16.2289 11.8964 15.8043C11.9859 15.7405 12.0608 15.6512 12.1142 15.5444C12.1676 15.4375 12.1979 15.3165 12.2023 15.1923C12.4806 7.55038 17.0483 1.53468 22.6509 1.49568L22.7856 1.50618C28.416 1.59919 32.9547 7.74391 33.1171 15.4938C33.1196 15.5997 33.1408 15.7038 33.1794 15.7992C33.2181 15.8946 33.2732 15.9792 33.3412 16.0474C33.7353 16.4449 33.9191 16.949 33.9191 17.6331C33.9191 18.8347 33.3815 20.3124 32.4071 21.7916C32.3601 21.8623 32.3243 21.9426 32.3013 22.0286C31.2941 25.833 29.4861 29.1919 27.3433 31.2472C27.2543 31.3324 27.1864 31.4448 27.147 31.5724C27.1075 31.7001 27.0979 31.8381 27.1192 31.9717C27.4692 34.1485 28.6388 37.1323 32.227 38.9911C32.6513 39.2101 33.3098 39.3811 34.1445 39.5956C37.2631 40.3997 42.4817 41.7484 43.7621 47.4446C43.7836 47.5397 43.8207 47.6289 43.8711 47.707C43.9215 47.7851 43.9843 47.8506 44.056 47.8998C44.1277 47.949 44.2067 47.9808 44.2888 47.9936C44.3708 48.0063 44.4541 47.9997 44.5339 47.9741C44.6138 47.9485 44.6886 47.9044 44.7542 47.8443C44.8197 47.7843 44.8747 47.7094 44.916 47.624C44.9573 47.5386 44.984 47.4444 44.9947 47.3466C45.0054 47.2489 44.9999 47.1497 44.9784 47.0545C43.499 40.4732 37.5867 38.9476 34.4114 38.1285C33.6749 37.9379 33.0391 37.7744 32.7294 37.6124C30.3876 36.4003 28.9448 34.5535 28.4348 32.1143C30.6092 29.8895 32.4285 26.4571 33.4684 22.6076C34.5726 20.8974 35.1794 19.1362 35.1794 17.6316C35.1794 16.6279 34.9075 15.7908 34.3686 15.1368C34.069 6.72979 29.0341 0.109513 22.7856 0.00300035L22.598 0C16.4628 0.0390046 11.4066 6.48526 10.9647 14.7467C10.1765 15.4368 9.77618 16.4044 9.77618 17.6331C9.77618 19.4078 10.6185 21.5305 12.0928 23.4777C13.1113 26.8126 14.6901 29.7425 16.5698 31.7932C16.0625 34.2415 14.6184 36.0942 12.2716 37.3079C11.9681 37.4654 11.3638 37.6379 10.6638 37.8359C7.46462 38.742 1.51198 40.4297 0.0212971 47.0575C-0.0217533 47.2497 0.00101515 47.4544 0.0845952 47.6265C0.168175 47.7987 0.305723 47.9243 0.46699 47.9756Z" fill="black"/>
<path d="M0.46699 47.9756C0.628229 48.0257 0.79953 47.998 0.943763 47.8986C1.08799 47.7992 1.19354 47.6361 1.23751 47.4446C2.5343 41.6794 7.80455 40.1852 10.9546 39.2911C11.744 39.0676 12.3672 38.8906 12.7726 38.682C16.3609 36.8263 17.5305 33.841 17.8805 31.6627C17.9013 31.5331 17.8931 31.3993 17.8566 31.2747C17.8201 31.1501 17.7567 31.0392 17.6727 30.9531C15.8044 29.0314 14.2281 26.1466 13.2334 22.8282C13.2051 22.7331 13.161 22.6459 13.1038 22.5716C11.7881 20.8674 11.0327 19.0657 11.0327 17.6301C11.0327 16.7915 11.2983 16.2289 11.8964 15.8043C11.9859 15.7405 12.0608 15.6512 12.1142 15.5444C12.1676 15.4375 12.1979 15.3165 12.2023 15.1923C12.4806 7.55038 17.0483 1.53468 22.6509 1.49568L22.7856 1.50618C28.416 1.59919 32.9547 7.74391 33.1171 15.4938C33.1196 15.5997 33.1408 15.7038 33.1794 15.7992C33.2181 15.8946 33.2732 15.9792 33.3412 16.0474C33.7353 16.4449 33.9191 16.949 33.9191 17.6331C33.9191 18.8347 33.3815 20.3124 32.4071 21.7916C32.3601 21.8623 32.3243 21.9426 32.3013 22.0286C31.2941 25.833 29.4861 29.1919 27.3433 31.2472C27.2543 31.3324 27.1864 31.4448 27.147 31.5724C27.1075 31.7001 27.0979 31.8381 27.1192 31.9717C27.4692 34.1485 28.6388 37.1323 32.227 38.9911C32.6513 39.2101 33.3098 39.3811 34.1445 39.5956C37.2631 40.3997 42.4817 41.7484 43.7621 47.4446C43.7836 47.5397 43.8207 47.6289 43.8711 47.707C43.9215 47.7851 43.9843 47.8506 44.056 47.8998C44.1277 47.949 44.2067 47.9808 44.2888 47.9936C44.3708 48.0063 44.4541 47.9997 44.5339 47.9741C44.6138 47.9485 44.6886 47.9044 44.7542 47.8443C44.8197 47.7843 44.8747 47.7094 44.916 47.624C44.9573 47.5386 44.984 47.4444 44.9947 47.3466C45.0054 47.2489 44.9999 47.1497 44.9784 47.0545C43.499 40.4732 37.5867 38.9476 34.4114 38.1285C33.6749 37.9379 33.0391 37.7744 32.7294 37.6124C30.3876 36.4003 28.9448 34.5535 28.4348 32.1143C30.6092 29.8895 32.4285 26.4571 33.4684 22.6076C34.5726 20.8974 35.1794 19.1362 35.1794 17.6316C35.1794 16.6279 34.9075 15.7908 34.3686 15.1368C34.069 6.72979 29.0341 0.109513 22.7856 0.00300035L22.598 0C16.4628 0.0390046 11.4066 6.48526 10.9647 14.7467C10.1765 15.4368 9.77618 16.4044 9.77618 17.6331C9.77618 19.4078 10.6185 21.5305 12.0928 23.4777C13.1113 26.8126 14.6901 29.7425 16.5698 31.7932C16.0625 34.2415 14.6184 36.0942 12.2716 37.3079C11.9681 37.4654 11.3638 37.6379 10.6638 37.8359C7.46462 38.742 1.51198 40.4297 0.0212971 47.0575C-0.0217533 47.2497 0.00101515 47.4544 0.0845952 47.6265C0.168175 47.7987 0.305723 47.9243 0.46699 47.9756Z" fill="white"/>
<path d="M0.46699 47.9756L-1.05005 52.7399L-1.03285 52.7454L-1.01561 52.7507L0.46699 47.9756ZM1.23751 47.4446L6.11068 48.5636L6.11318 48.5527L6.11563 48.5418L1.23751 47.4446ZM10.9546 39.2911L9.59239 34.4802L9.58937 34.4811L10.9546 39.2911ZM12.7726 38.682L15.0597 43.1283L15.0695 43.1232L12.7726 38.682ZM17.8805 31.6627L22.8172 32.4559L22.8172 32.4555L17.8805 31.6627ZM17.6727 30.9531L14.0878 34.4386L14.0936 34.4445L17.6727 30.9531ZM13.2334 22.8282L8.44164 24.256L8.44396 24.2637L13.2334 22.8282ZM13.1038 22.5716L17.0633 19.5184L17.0615 19.5162L13.1038 22.5716ZM11.8964 15.8043L14.7907 19.8814L14.7972 19.8768L11.8964 15.8043ZM12.2023 15.1923L7.20562 15.0103L7.20547 15.0146L12.2023 15.1923ZM22.6509 1.49568L23.0395 -3.4892L22.8281 -3.50568L22.6161 -3.5042L22.6509 1.49568ZM22.7856 1.50618L22.397 6.49105L22.5498 6.50296L22.703 6.50549L22.7856 1.50618ZM33.1171 15.4938L28.1182 15.5986L28.1185 15.6086L33.1171 15.4938ZM33.3412 16.0474L36.8923 12.5274L36.8863 12.5214L36.8804 12.5155L33.3412 16.0474ZM32.4071 21.7916L36.5745 24.5542L36.5785 24.5483L36.5824 24.5423L32.4071 21.7916ZM32.3013 22.0286L27.4713 20.7358L27.4678 20.7489L32.3013 22.0286ZM27.3433 31.2472L30.8015 34.8584L30.8043 34.8557L27.3433 31.2472ZM27.1192 31.9717L22.1815 32.7586L22.1826 32.7655L27.1192 31.9717ZM32.227 38.9911L29.9272 43.4308L29.9335 43.434L32.227 38.9911ZM34.1445 39.5956L35.3929 34.754L35.3891 34.753L34.1445 39.5956ZM43.7621 47.4446L38.8839 48.5411L38.885 48.5462L43.7621 47.4446ZM44.9784 47.0545L40.1001 48.1511L40.1012 48.1562L44.9784 47.0545ZM34.4114 38.1285L33.1592 42.9691L33.1625 42.97L34.4114 38.1285ZM32.7294 37.6124L35.047 33.182L35.0374 33.177L35.0278 33.172L32.7294 37.6124ZM28.4348 32.1143L24.859 28.6195L22.9949 30.5268L23.5406 33.1373L28.4348 32.1143ZM33.4684 22.6076L29.2678 19.8956L28.8448 20.5508L28.6415 21.3036L33.4684 22.6076ZM34.3686 15.1368L29.3718 15.3149L29.4321 17.0082L30.5096 18.316L34.3686 15.1368ZM22.7856 0.00300035L22.8708 -4.99628L22.8656 -4.99636L22.7856 0.00300035ZM22.598 0L22.678 -4.99936L22.6221 -5.00025L22.5662 -4.9999L22.598 0ZM10.9647 14.7467L14.2584 18.5085L15.8449 17.1195L15.9576 15.0138L10.9647 14.7467ZM12.0928 23.4777L16.8747 22.0172L16.6153 21.1677L16.0791 20.4596L12.0928 23.4777ZM16.5698 31.7932L21.4658 32.8079L21.9852 30.3016L20.2557 28.4147L16.5698 31.7932ZM12.2716 37.3079L9.97478 32.8666L9.96781 32.8702L12.2716 37.3079ZM10.6638 37.8359L9.30277 33.0247L9.30123 33.0252L10.6638 37.8359ZM0.0212971 47.0575L-4.85684 45.9603L-4.85777 45.9645L0.0212971 47.0575ZM0.46699 47.9756L-1.01561 52.7507C0.673183 53.2751 2.42929 52.9473 3.78123 52.0155L0.943763 47.8986L-1.8937 43.7817C-0.830232 43.0487 0.583275 42.7763 1.94959 43.2005L0.46699 47.9756ZM0.943763 47.8986L3.78123 52.0155C5.08253 51.1186 5.82357 49.8139 6.11068 48.5636L1.23751 47.4446L-3.63566 46.3255C-3.4365 45.4582 -2.90654 44.4798 -1.8937 43.7817L0.943763 47.8986ZM1.23751 47.4446L6.11563 48.5418C6.68664 46.0033 8.78802 45.1036 12.3199 44.1011L10.9546 39.2911L9.58937 34.4811C6.82109 35.2668 -1.61804 37.3555 -3.64061 46.3473L1.23751 47.4446ZM10.9546 39.2911L12.3169 44.102C12.8817 43.942 14.1 43.622 15.0597 43.1283L12.7726 38.682L10.4856 34.2357C10.5841 34.1851 10.6397 34.1647 10.6251 34.1703C10.6132 34.1749 10.5683 34.1916 10.4751 34.2216C10.2715 34.2871 10.0105 34.3619 9.59239 34.4802L10.9546 39.2911ZM12.7726 38.682L15.0695 43.1232C20.4755 40.3274 22.2989 35.6816 22.8172 32.4559L17.8805 31.6627L12.9438 30.8695C12.8481 31.465 12.6531 32.082 12.3056 32.6359C11.9811 33.153 11.4514 33.7362 10.4758 34.2408L12.7726 38.682ZM17.8805 31.6627L22.8172 32.4555C22.9545 31.6006 22.9028 30.7158 22.6552 29.8698L17.8566 31.2747L13.058 32.6795C12.8833 32.0828 12.8481 31.4656 12.9437 30.8699L17.8805 31.6627ZM17.8566 31.2747L22.6552 29.8698C22.4077 29.0247 21.9518 28.1792 21.2519 27.4617L17.6727 30.9531L14.0936 34.4445C13.5616 33.8991 13.2325 33.2755 13.058 32.6795L17.8566 31.2747ZM17.6727 30.9531L21.2577 27.4677C20.0896 26.2662 18.8521 24.159 18.0229 21.3926L13.2334 22.8282L8.44396 24.2637C9.60404 28.1341 11.5192 31.7966 14.0878 34.4386L17.6727 30.9531ZM13.2334 22.8282L18.0252 21.4004C17.8318 20.7512 17.5166 20.1062 17.0633 19.5184L13.1038 22.5716L9.14425 25.6249C8.80548 25.1855 8.57845 24.7151 8.44165 24.256L13.2334 22.8282ZM13.1038 22.5716L17.0615 19.5162C16.6333 18.9615 16.3499 18.4581 16.1861 18.0673C16.0121 17.652 16.0327 17.5098 16.0327 17.6301H11.0327H6.03268C6.03268 20.6034 7.47723 23.4656 9.14599 25.6271L13.1038 22.5716ZM11.0327 17.6301H16.0327C16.0327 17.731 16.017 18.1566 15.7604 18.6994C15.4854 19.2809 15.0899 19.669 14.7907 19.8814L11.8964 15.8043L9.00201 11.7273C8.10475 12.3642 7.27749 13.2459 6.72015 14.4245C6.18114 15.5644 6.03268 16.6905 6.03268 17.6301H11.0327ZM11.8964 15.8043L14.7972 19.8768C15.6093 19.2984 16.1997 18.5539 16.5866 17.7799L12.1142 15.5444L7.6418 13.3088C7.92189 12.7485 8.36255 12.1827 8.99554 11.7319L11.8964 15.8043ZM12.1142 15.5444L16.5866 17.7799C16.9733 17.0063 17.1704 16.1798 17.1992 15.3699L12.2023 15.1923L7.20547 15.0146C7.22543 14.4532 7.36194 13.8687 7.6418 13.3088L12.1142 15.5444ZM12.2023 15.1923L17.199 15.3742C17.3051 12.4609 18.2273 10.0719 19.4074 8.52278C20.5849 6.97703 21.7882 6.5018 22.6857 6.49555L22.6509 1.49568L22.6161 -3.5042C17.911 -3.47145 14.0291 -0.91932 11.4526 2.46301C8.87857 5.84194 7.37779 10.2818 7.20562 15.0103L12.2023 15.1923ZM22.6509 1.49568L22.2623 6.48055L22.397 6.49105L22.7856 1.50618L23.1742 -3.4787L23.0395 -3.4892L22.6509 1.49568ZM22.7856 1.50618L22.703 6.50549C23.5967 6.52026 24.8064 7.01035 25.98 8.5993C27.1546 10.1895 28.0561 12.6322 28.1182 15.5986L33.1171 15.4938L38.116 15.3891C38.0158 10.6055 36.5667 6.10091 34.0237 2.65802C31.4798 -0.786125 27.6049 -3.41489 22.8682 -3.49314L22.7856 1.50618ZM33.1171 15.4938L28.1185 15.6086C28.1343 16.3009 28.2727 17.0034 28.5448 17.6755L33.1794 15.7992L37.814 13.9229C38.0089 14.4042 38.1048 14.8985 38.1158 15.3791L33.1171 15.4938ZM33.1794 15.7992L28.5448 17.6755C28.8168 18.3474 29.2302 19.0062 29.8021 19.5793L33.3412 16.0474L36.8804 12.5155C37.3162 12.9522 37.6193 13.4419 37.814 13.9229L33.1794 15.7992ZM33.3412 16.0474L29.7902 19.5674C29.4921 19.2666 29.2386 18.8794 29.0803 18.4451C28.9323 18.039 28.9191 17.734 28.9191 17.6331H33.9191H38.9191C38.9191 15.9405 38.4121 14.0606 36.8923 12.5274L33.3412 16.0474ZM33.9191 17.6331H28.9191C28.9191 17.5142 28.9395 17.5971 28.8296 17.8994C28.7252 18.1864 28.5365 18.5782 28.2317 19.0408L32.4071 21.7916L36.5824 24.5423C37.8535 22.6128 38.9191 20.1743 38.9191 17.6331H33.9191ZM32.4071 21.7916L28.2396 19.0289C27.8798 19.5717 27.6275 20.1523 27.4713 20.7358L32.3013 22.0286L37.1313 23.3214C37.0211 23.733 36.8405 24.153 36.5745 24.5542L32.4071 21.7916ZM32.3013 22.0286L27.4678 20.7489C26.6217 23.9449 25.1812 26.3928 23.8823 27.6386L27.3433 31.2472L30.8043 34.8557C33.7911 31.991 35.9665 27.7212 37.1348 23.3082L32.3013 22.0286ZM27.3433 31.2472L23.8851 27.636C23.1313 28.3578 22.639 29.226 22.3702 30.0951L27.147 31.5724L31.9237 33.0498C31.7339 33.6636 31.3773 34.307 30.8015 34.8584L27.3433 31.2472ZM27.147 31.5724L22.3702 30.0951C22.1012 30.9649 22.0412 31.878 22.1815 32.7586L27.1192 31.9717L32.0569 31.1849C32.1546 31.7982 32.1138 32.4353 31.9237 33.0498L27.147 31.5724ZM27.1192 31.9717L22.1826 32.7655C22.7013 35.9912 24.5252 40.6325 29.9272 43.4308L32.227 38.9911L34.5268 34.5514C33.5493 34.045 33.0187 33.4605 32.6939 32.9429C32.3462 32.3888 32.1513 31.7723 32.0558 31.178L27.1192 31.9717ZM32.227 38.9911L29.9335 43.434C30.9826 43.9756 32.3138 44.2876 32.8999 44.4383L34.1445 39.5956L35.3891 34.753C34.9481 34.6397 34.6789 34.5692 34.4734 34.5073C34.4287 34.4939 34.3953 34.4833 34.3713 34.4753C34.3472 34.4674 34.3366 34.4634 34.3368 34.4635C34.3369 34.4635 34.3531 34.4695 34.382 34.482C34.4106 34.4944 34.4584 34.516 34.5205 34.5481L32.227 38.9911ZM34.1445 39.5956L32.8961 44.4373C34.5277 44.858 35.8919 45.2432 37.0081 45.9352C37.938 46.5117 38.5895 47.2316 38.8839 48.5411L43.7621 47.4446L48.6404 46.348C46.6155 37.34 38.1124 35.4552 35.3929 34.754L34.1445 39.5956ZM43.7621 47.4446L38.885 48.5462C39.0293 49.1849 39.2862 49.8236 39.6702 50.4186L43.8711 47.707L48.072 44.9954C48.3551 45.4342 48.538 45.8945 48.6393 46.3429L43.7621 47.4446ZM43.8711 47.707L39.6702 50.4186C40.0546 51.0141 40.5719 51.573 41.2271 52.0226L44.056 47.8998L46.8849 43.777C47.3968 44.1282 47.7884 44.5561 48.072 44.9954L43.8711 47.707ZM44.056 47.8998L41.2271 52.0226C41.8859 52.4746 42.664 52.801 43.5204 52.9342L44.2888 47.9936L45.0571 43.053C45.7495 43.1607 46.3694 43.4233 46.8849 43.777L44.056 47.8998ZM44.2888 47.9936L43.5204 52.9342C44.3794 53.0678 45.2483 52.9958 46.0608 52.7353L44.5339 47.9741L43.007 43.213C43.6598 43.0036 44.3622 42.9449 45.0571 43.053L44.2888 47.9936ZM44.5339 47.9741L46.0608 52.7353C46.8692 52.476 47.5672 52.0484 48.1323 51.5305L44.7542 47.8443L41.376 44.1581C41.81 43.7604 42.3584 43.421 43.007 43.213L44.5339 47.9741ZM44.7542 47.8443L48.1323 51.5305C48.6952 51.0147 49.1196 50.4167 49.4178 49.7997L44.916 47.624L40.4142 45.4483C40.6298 45.002 40.9443 44.5538 41.376 44.1581L44.7542 47.8443ZM44.916 47.624L49.4178 49.7997C49.716 49.1826 49.8945 48.5344 49.965 47.891L44.9947 47.3466L40.0244 46.8022C40.0735 46.3543 40.1985 45.8946 40.4142 45.4483L44.916 47.624ZM44.9947 47.3466L49.965 47.891C50.0355 47.2476 49.9999 46.592 49.8555 45.9528L44.9784 47.0545L40.1012 48.1562C39.9999 47.7073 39.9754 47.2503 40.0244 46.8022L44.9947 47.3466ZM44.9784 47.0545L49.8566 45.958C47.6431 36.1103 38.5415 34.0302 35.6603 33.287L34.4114 38.1285L33.1625 42.97C36.6319 43.8649 39.355 44.8362 40.1001 48.1511L44.9784 47.0545ZM34.4114 38.1285L35.6636 33.2878C35.4744 33.2389 35.3143 33.1975 35.1657 33.158C35.0176 33.1186 34.9047 33.0874 34.8171 33.0617C34.7256 33.0349 34.6954 33.0239 34.706 33.0277C34.7135 33.0304 34.7457 33.042 34.796 33.0632C34.8441 33.0834 34.9327 33.1222 35.047 33.182L32.7294 37.6124L30.4117 42.0428C31.0449 42.374 31.7035 42.5698 32.0036 42.6578C32.3871 42.7702 32.8177 42.8808 33.1592 42.9691L34.4114 38.1285ZM32.7294 37.6124L35.0278 33.172C33.9311 32.6043 33.5113 31.9628 33.3291 31.0912L28.4348 32.1143L23.5406 33.1373C24.3782 37.1443 26.8441 40.1962 30.4309 42.0528L32.7294 37.6124ZM28.4348 32.1143L32.0107 35.609C34.9263 32.6257 37.0932 28.3617 38.2954 23.9117L33.4684 22.6076L28.6415 21.3036C27.7638 24.5525 26.292 27.1533 24.859 28.6195L28.4348 32.1143ZM33.4684 22.6076L37.669 25.3197C39.1138 23.0819 40.1794 20.3854 40.1794 17.6316H35.1794H30.1794C30.1794 17.8871 30.0314 18.713 29.2678 19.8956L33.4684 22.6076ZM35.1794 17.6316H40.1794C40.1794 15.692 39.635 13.6658 38.2276 11.9575L34.3686 15.1368L30.5096 18.316C30.366 18.1418 30.2721 17.9559 30.2209 17.7984C30.1727 17.6501 30.1794 17.5806 30.1794 17.6316H35.1794ZM34.3686 15.1368L39.3654 14.9587C39.1831 9.84267 37.5582 5.05719 34.7813 1.42199C31.9988 -2.22054 27.8555 -4.9113 22.8708 -4.99627L22.7856 0.00300035L22.7004 5.00227C23.9642 5.02382 25.4627 5.69645 26.8346 7.49243C28.2121 9.29574 29.2545 12.0239 29.3718 15.3149L34.3686 15.1368ZM22.7856 0.00300035L22.8656 -4.99636L22.678 -4.99936L22.598 0L22.5181 4.99936L22.7057 5.00236L22.7856 0.00300035ZM22.598 0L22.5662 -4.9999C17.6419 -4.96859 13.5163 -2.35663 10.7182 1.19649C7.92389 4.7448 6.24145 9.43927 5.97183 14.4797L10.9647 14.7467L15.9576 15.0138C16.1299 11.7927 17.1965 9.13332 18.5746 7.38339C19.9489 5.63826 21.4189 5.0076 22.6298 4.9999L22.598 0ZM10.9647 14.7467L7.67095 10.9849C5.6143 12.7857 4.77618 15.2275 4.77618 17.6331H9.77618H14.7762C14.7762 17.5614 14.7872 17.676 14.6974 17.8937C14.6005 18.1289 14.4412 18.3485 14.2584 18.5085L10.9647 14.7467ZM9.77618 17.6331H4.77618C4.77618 20.8431 6.2192 24.0033 8.10647 26.4959L12.0928 23.4777L16.0791 20.4596C15.0177 19.0578 14.7762 17.9724 14.7762 17.6331H9.77618ZM12.0928 23.4777L7.31084 24.9383C8.49411 28.8125 10.3907 32.4516 12.884 35.1717L16.5698 31.7932L20.2557 28.4147C18.9896 27.0334 17.7285 24.8128 16.8747 22.0172L12.0928 23.4777ZM16.5698 31.7932L11.6739 30.7786C11.4917 31.6577 11.0705 32.3 9.97478 32.8666L12.2716 37.3079L14.5683 41.7491C18.1663 39.8885 20.6332 36.8254 21.4658 32.8079L16.5698 31.7932ZM12.2716 37.3079L9.96781 32.8702C10.0612 32.8217 10.1321 32.7902 10.169 32.7743C10.2077 32.7576 10.2306 32.749 10.2325 32.7483C10.2326 32.7483 10.1961 32.7617 10.1068 32.7901C9.91788 32.8499 9.66944 32.921 9.30277 33.0247L10.6638 37.8359L12.0248 42.6471C12.439 42.53 13.697 42.2015 14.5753 41.7455L12.2716 37.3079ZM10.6638 37.8359L9.30123 33.0252C6.38246 33.8519 -2.64984 36.1477 -4.85684 45.9603L0.0212971 47.0575L4.89944 48.1547C5.67379 44.7118 8.54677 43.6322 12.0263 42.6467L10.6638 37.8359ZM0.0212971 47.0575L-4.85777 45.9645C-5.14035 47.2259 -5.00629 48.5888 -4.41342 49.8101L0.0845952 47.6265L4.58261 45.443C5.00832 46.3199 5.09684 47.2735 4.90037 48.1505L0.0212971 47.0575ZM0.0845952 47.6265L-4.41342 49.8101C-3.81762 51.0374 -2.69296 52.2168 -1.05005 52.7399L0.46699 47.9756L1.98403 43.2113C3.30441 43.6317 4.15397 44.56 4.58261 45.443L0.0845952 47.6265Z" fill="black" mask="url(#path-1-inside-1_242_5059)"/>
</svg>
