<svg width="261" height="258" viewBox="0 0 261 258" fill="none" xmlns="http://www.w3.org/2000/svg">
<path d="M240.381 229.75C240.381 229.75 232.237 227.211 231.591 231.148C230.678 236.759 224.73 239.781 218.568 242.396C216.447 243.294 216.06 244.004 215.845 244.923C215.597 245.64 215.479 246.677 216.389 247.559C217.94 249.08 224.754 249.271 230.484 247.496C232.035 247.009 232.569 245.208 236.631 246.224C237.308 246.391 240.049 245.548 240.049 245.548C240.049 245.548 240.842 243.103 240.682 240.645C241.224 237.162 240.844 232.193 240.381 229.75Z" fill="black"/>
<path d="M215.603 123.119C216.555 138.341 219.659 168.01 221.963 185.118C222.353 188.011 224.053 192.305 224.372 194.203C225.863 203.147 227.754 231.672 227.754 234.458C233.307 235.649 241.899 234.688 241.899 234.688C241.899 234.688 246.363 209.082 240.672 188.019C238.64 180.476 239.817 133.097 241.407 126.74C242.992 120.377 215.603 123.119 215.603 123.119Z" fill="black"/>
<path d="M257.768 235.883C257.768 235.883 250.049 233.438 248.98 237.279C247.915 241.107 244.797 244.927 239.36 249.171C237.555 250.585 236.655 251.747 236.438 252.671C236.192 253.373 236.069 254.42 236.977 255.308C238.538 256.824 244.489 257.738 251.022 253.457C252.39 252.551 252.782 251.852 254.02 252.352C254.663 252.629 257.435 251.682 257.435 251.682C257.435 251.682 258.228 249.242 258.066 246.778C258.615 243.306 258.241 238.324 257.768 235.883Z" fill="black"/>
<path d="M247.724 123.261C247.724 123.261 253.138 133.532 251.049 142.523C248.504 153.491 252.675 180.838 253.729 184.535C254.789 188.25 261.691 206.546 260.708 238.7C260.708 238.7 254.059 241.046 245.914 238.135C245.914 229.115 242.383 202.787 238.405 196.958C236.92 194.775 235.235 187.949 235.235 184.768C235.235 181.595 223.447 136.625 224.501 128.142C225.563 119.669 247.724 123.261 247.724 123.261Z" fill="black"/>
<path d="M223.879 141.537C226.322 148.305 232.052 177.932 232.283 182.574C232.424 185.394 235.042 191.086 235.981 192.963C236.917 194.841 243.932 225.183 244.685 239.096C245.248 239.664 249.202 239.735 249.95 239.735C250.706 239.735 245.465 209.505 240.861 193.72C239.779 189.994 235.528 184.664 234.1 177.173C232.921 170.978 223.879 141.537 223.879 141.537Z" fill="#282626"/>
<path d="M188.289 77.8329C189.921 77.6523 198.371 83.0458 203.304 84.2554C210.965 86.1248 215.043 87.7716 218.445 87.3894C225.22 86.6353 238.736 54.709 238.736 54.709C238.736 54.709 228.165 52.7165 225.866 56.0678C223.569 59.4191 223.148 68.5121 218.725 75.7881C215.445 75.364 188.767 73.1856 188.265 72.9447L188.289 77.8329Z" fill="#E0AC9B"/>
<path d="M174.611 76.4191C174.321 77.4532 173.332 79.2153 174.125 78.943C174.914 78.6733 174.805 78.0868 175.555 77.5868C176.303 77.071 177.585 75.089 177.585 75.089C177.585 75.089 174.522 78.5005 175.202 78.8592C175.872 79.2127 178.461 76.2934 178.461 76.2934C178.461 76.2934 176.813 78.4272 177.161 78.3644C177.287 78.3356 177.496 78.4534 177.739 78.3303C178.181 78.1261 178.754 77.5815 179.285 77.1914C180.09 76.584 184.453 75.3927 183.598 74.7041C182.74 74.0155 180.841 72.9316 178.485 73.8715C176.12 74.8088 174.611 76.4191 174.611 76.4191Z" fill="#CC9483"/>
<path d="M189.392 72.825C185.772 72.4715 179.586 72.2202 178.14 72.6364C176.699 73.0554 173.819 74.5765 173.819 74.5765C173.819 74.5765 170.91 77.2707 172.03 77.755C172.587 77.9985 174.133 75.8699 174.852 75.6552C175.569 75.4379 177.619 74.8069 177.619 74.8069L181.393 75.5165C181.393 75.5165 176.782 75.7259 176.753 76.4381C176.727 77.1555 177.125 77.1712 178.799 77.2445C180.447 77.3073 182.314 78.9516 183.75 79.1401C186.143 79.4359 187.281 78.7264 188.764 78.4803C189.954 78.2839 192.488 78.8521 192.488 78.8521L194.513 73.8251L189.392 72.825Z" fill="#E0AC9B"/>
<path d="M192.635 188.883C194.735 185.582 196.137 184.181 196.31 182.019C196.428 180.576 196.606 176.628 193.004 175.408C190.388 174.515 176.892 175.567 173.733 175.567C166.232 175.567 160.833 186.48 165.034 188.582C169.234 190.687 192.635 188.883 192.635 188.883Z" fill="#4A75DD"/>
<path d="M203.234 127.567C196.635 125.559 193.332 125.812 182.232 131.515C160.431 147.334 132.058 154.466 128.826 155.796C124.324 157.647 122.525 166.355 116.172 178.815C116.172 178.815 112.024 185.28 118.024 185.429C122.222 185.536 182.229 186.633 189.429 182.426C190.366 181.876 191.292 180.784 192.186 179.289C185.014 180.378 165.699 180.708 163.628 180.274C161.224 179.776 159.728 179.274 162.027 177.47C164.132 175.82 188.54 170.542 197.446 165.025C200.396 154.097 203.629 139.388 204.429 136.178C205.936 130.167 203.234 127.567 203.234 127.567Z" fill="#4A75DD"/>
<path d="M157.398 206.595C159.158 205.155 178.576 200.6 187.144 207.035C187.144 207.035 187.5 208.821 186.074 208.821C184.646 208.821 180.621 205.92 178.845 205.737C174.38 205.286 166.299 208.14 164.117 208.017C161.938 207.894 157.398 206.595 157.398 206.595Z" fill="#929BB7"/>
<path d="M171.362 203.573H160.047V240.887H171.362V203.573Z" fill="#929BB7"/>
<path d="M171.362 203.46C171.362 203.902 168.814 204.261 165.676 204.261C162.532 204.261 159.984 203.902 159.984 203.46C159.984 203.014 162.532 202.656 165.676 202.656C168.814 202.656 171.362 203.014 171.362 203.46Z" fill="#B2BCCE"/>
<path opacity="0.71" d="M164.868 204.593V239.866H169.955V204.418C168.956 204.544 167.654 204.622 166.207 204.622C165.744 204.622 165.3 204.609 164.868 204.593Z" fill="#B2BCCE"/>
<path d="M193.873 246.542C193.873 246.542 193.876 246.537 193.876 246.532L193.873 246.521V244.641H191.31C186.864 243.07 177.074 241.984 165.676 241.984C154.28 241.984 144.485 243.07 140.036 244.641H137.47V246.657H137.509C137.936 249.116 150.367 251.08 165.676 251.08C180.982 251.08 193.413 249.116 193.837 246.657H193.873V246.542Z" fill="#929BB7"/>
<path d="M193.875 244.638C193.875 247.154 181.248 249.188 165.672 249.188C150.097 249.188 137.467 247.156 137.467 244.638C137.467 242.124 150.097 240.09 165.672 240.09C181.248 240.092 193.875 242.124 193.875 244.638Z" fill="#B2BCCE"/>
<path d="M166.243 244.505C170.363 243.973 185.187 242.056 184.01 242.056C182.645 242.056 174.09 239.514 171.681 238.038C171.451 237.896 171.236 238.446 169.091 238.705C168.027 238.836 166.688 238.823 165.956 238.841C165.218 238.826 164.038 238.802 162.974 238.674C160.829 238.412 160.447 237.899 160.212 238.038C157.808 239.514 148.761 242.056 147.396 242.056C146.219 242.056 161.044 243.973 165.163 244.505L165.187 244.641C165.187 244.641 165.375 244.62 165.702 244.575C166.031 244.62 166.217 244.641 166.217 244.641L166.243 244.505Z" fill="#B2BCCE"/>
<path opacity="0.59" d="M160.259 238.839C157.717 241.719 141.386 245.675 140.58 245.536C145.267 247.885 170.033 248.895 180.077 247.416C175.793 245.138 170.436 240.449 170.036 239.106C164.342 240.245 160.259 238.839 160.259 238.839Z" fill="#D3DCEA"/>
<path d="M168.57 187.222H162.803V203.245H168.57V187.222Z" fill="#929BB7"/>
<path d="M168.576 203.313C168.576 203.035 167.274 202.818 165.673 202.818C164.07 202.818 162.772 203.035 162.772 203.313C162.772 203.585 164.072 203.805 165.673 203.805C167.276 203.802 168.576 203.585 168.576 203.313Z" fill="#929BB7"/>
<path opacity="0.71" d="M165.948 202.601C166.686 202.601 167.35 202.645 167.857 202.726V187.847H165.26V202.609C165.483 202.603 165.71 202.601 165.948 202.601Z" fill="#B2BCCE"/>
<path d="M167.344 207.594C167.258 208.479 166.466 209.125 165.587 209.034L158.836 208.361C157.957 208.266 157.311 207.484 157.4 206.599C157.487 205.716 158.274 205.072 159.161 205.159L165.911 205.834C166.79 205.921 167.433 206.711 167.344 207.594Z" fill="#B2BCCE"/>
<path d="M166.795 207.583C166.795 208.152 166.423 208.62 165.96 208.62C165.497 208.62 165.121 208.154 165.121 207.583C165.121 207.005 165.497 206.544 165.96 206.544C166.423 206.544 166.795 207.005 166.795 207.583Z" fill="#929BB7"/>
<path d="M158.937 208.155L165.199 208.786C164.916 208.589 164.788 207.45 164.788 207.45L157.538 206.783C157.64 207.495 158.189 208.081 158.937 208.155Z" fill="#929BB7"/>
<path d="M116.653 228.804C115.764 231.78 116.674 234.875 117.292 238.797C117.896 242.717 120.095 245.657 116.185 246.754C115.427 246.971 112.537 245.989 110.855 246.16C108.749 246.385 105.551 249.223 102.912 249.377C96.8306 249.733 91.6807 248.424 91.6807 248.424C91.6807 248.424 87.9431 243.95 96.7469 242.368C103.581 241.143 106.84 234.839 106.343 229.115C106.22 227.649 116.653 228.804 116.653 228.804Z" fill="black"/>
<path d="M131.727 229.539C133.291 232.877 136.239 239.025 136.825 244.156C137.175 247.251 131.915 244.162 128.494 250.249C124.934 256.588 115.38 256.308 113.908 255.986C112.406 255.658 110.502 253.661 113.704 250.83C117.114 247.819 121.676 243.245 121.908 240.661C122.123 238.085 121.315 230.476 121.315 230.476L131.727 229.539Z" fill="black"/>
<path d="M105.041 171.943C101.96 173.82 101.482 179.077 101.372 181.591C100.883 192.747 102.36 235.366 102.36 235.366L119.199 235.115C119.199 235.115 127.406 196.258 123.083 180.601C121.773 175.854 111.504 168.002 105.041 171.943Z" fill="black"/>
<path d="M185.96 91.3574C185.683 94.0437 189.112 105.65 190.78 109.394C192.439 113.13 184.359 118.422 184.359 118.422L176.222 116.508C176.222 116.508 174.303 109.881 172.532 107.376C170.756 104.844 185.96 91.3574 185.96 91.3574Z" fill="#E0AC9B"/>
<path d="M177.752 79.5836C171.935 79.6019 169.204 81.8064 168.043 90.4596C167.975 91.0094 168.611 92.2347 168.577 92.7715C168.566 92.8945 168.566 92.9966 168.548 93.1197C167.808 95.2876 166.44 98.5655 166.531 99.1285C166.604 99.5919 167.706 100.092 168.739 100.212C168.922 101.548 169.189 102.645 169.382 103.629C169.874 106.171 170.172 106.805 170.923 106.944C173.706 107.428 176.907 106.522 179.972 105.889C184.168 105.017 184.481 98.8405 185.146 94.3764C186.223 87.0009 185.19 79.5548 177.752 79.5836Z" fill="#E0AC9B"/>
<path d="M184.722 91.4737C185.718 89.8662 187.9 90.0677 188.344 91.4816C188.776 92.9425 187.751 97.9355 185.153 98.2784C182.564 98.6293 184.722 91.4737 184.722 91.4737Z" fill="#E0AC9B"/>
<path d="M169.204 84.338C168.079 83.2069 169.12 83.6546 167.737 81.8166C167.187 81.0835 167.276 79.3241 167.276 79.3241L171.194 79.9132C171.194 79.9132 168.336 79.599 167.598 78.7638C167.418 78.557 174.696 77.7951 174.696 77.7951C174.696 77.7951 179.786 75.6796 185.773 77.2164C189.738 78.2506 190.34 80.1515 190.34 80.1515C190.34 80.1515 199.763 84.4505 192.628 99.2512C192.628 99.2512 190.45 102.951 192.137 104.645C190.17 105.771 184.75 103.446 184.75 103.446C184.75 103.446 183.636 97.8243 184.298 96.3817C185.7 93.2818 183.843 91.9465 182.995 93.0723C182.695 93.465 182.917 95.5648 182.363 95.8895C181.871 96.1644 178.86 98.238 178.981 97.7798C180.322 92.3497 176.836 86.9981 175.426 85.8644C174.019 84.7438 180.424 82.5445 182.111 82.2591C183.798 81.9789 179.292 82.0051 174.953 84.8616C174.077 85.4481 169.204 84.338 169.204 84.338Z" fill="black"/>
<path d="M182.627 92.5441C183.386 92.0519 185.711 91.4366 185.79 93.4265C185.865 95.4215 184.597 99.5373 182.91 99.3619C181.244 99.1865 182.627 92.5441 182.627 92.5441Z" fill="#E0AC9B"/>
<path d="M179.357 97.4033C178.617 98.4166 176.493 102.48 175.761 103.216C175.02 103.954 169.768 105.344 169.768 105.344C169.768 105.344 168.767 109.711 169.415 109.887C170.059 110.073 178.185 108.214 178.923 107.664C179.66 107.104 182.08 96.4084 182.163 95.3925C182.26 94.3845 179.357 97.4033 179.357 97.4033Z" fill="black"/>
<path d="M148.037 169.809C134.18 170.188 117.138 174.838 112.794 178.561C110.058 180.902 110.277 181.402 110.434 185.251C110.986 199.096 117.109 224.325 118.019 238.953L136.323 234.748C136.323 234.748 136.197 207.987 130.27 189.751C129.551 187.531 183.462 188.167 186.613 182.481C190.228 175.961 187.819 169.476 187.819 169.476C187.819 169.476 149.743 169.759 148.037 169.809Z" fill="black"/>
<path d="M111.434 180.165L118.019 238.954C118.019 238.954 123.517 238.024 125.445 236.702C127.367 235.38 117.554 181.997 116.68 180.848C115.815 179.699 111.434 180.165 111.434 180.165Z" fill="#282626"/>
<path d="M172.874 110.633C174.712 114.236 188.457 107.497 189.861 106.371C191.263 105.245 192.262 108.651 192.262 108.651C192.262 108.651 196.735 114.299 199.136 117.907C201.534 121.512 202.235 130.018 199.834 136.027C197.433 142.031 195.035 148.039 192.035 154.645C189.035 161.251 152.64 181.448 149.039 185.053C149.039 185.053 145.829 201.37 147.31 212.005C147.809 215.587 129.773 207.803 120.637 206.567C112.741 205.496 109.864 197.361 105.569 198.16C94.9475 200.139 87.6006 192.842 87.6006 192.842C87.6006 192.842 99.1637 163.442 103.963 159.84C108.765 156.237 131.907 148.304 137.308 142.903C142.707 137.496 159.331 124.918 164.133 119.512C168.932 114.1 172.874 110.633 172.874 110.633Z" fill="black"/>
<path d="M195.132 114.699C189.733 114.699 185.334 116.302 183.134 121.711C181.487 125.756 164.433 154.645 160.23 157.648C156.032 160.654 134.428 165.76 130.231 166.359C128.421 166.618 121.67 163.39 117.629 162.756C112.288 161.911 105.982 158.79 111.252 156.868C134.355 148.456 156.032 131.817 171.435 113.097C171.982 112.432 174.634 114.699 181.738 113C184.288 112.387 189.733 109.397 189.733 109.397L195.132 114.699Z" fill="#282626"/>
<path d="M180.031 118.208C176.83 119.811 163.63 148.237 158.828 151.444C154.028 154.649 147.23 156.652 147.23 156.652C147.23 156.652 160.645 146.849 166.63 136.028C172.831 124.814 180.031 118.208 180.031 118.208Z" fill="black"/>
<path d="M122.829 158.651C126.828 157.452 140.831 151.048 144.833 148.241C148.832 145.44 159.237 132.223 159.237 132.223C159.237 132.223 146.434 145.437 142.032 147.04C137.633 148.642 124.029 156.651 122.831 156.651C121.626 156.651 122.829 158.651 122.829 158.651Z" fill="black"/>
<path d="M113.618 167.7C111.623 169.299 107.417 197.333 107.019 197.935C106.622 198.537 110.422 199.935 110.422 199.935C110.422 199.935 112.821 174.109 113.019 172.104C113.218 170.101 113.618 167.7 113.618 167.7Z" fill="#282626"/>
<path d="M105.261 159.093C102.92 159.093 101.377 163.675 92.4265 182.547C89.9365 187.794 88.022 191.76 88.022 191.76L90.2739 193.334C90.2739 193.334 94.4927 182.086 96.8022 176.156C100.506 166.631 105.692 159.093 105.261 159.093Z" fill="#282626"/>
<path d="M206.078 128.859C204.566 127.16 203.295 126.733 201.676 126.314C201.184 126.34 201.522 129.616 201.862 129.794C203.287 130.548 203.496 132.116 203.509 132.951C203.737 144.963 165.708 164.048 147.331 166.967C142.526 167.729 140.332 178.982 135.676 189.782C135.676 189.782 132.731 196.547 138.731 196.699C142.929 196.801 183.634 196.398 190.835 192.193C192.679 191.117 194.536 187.258 196.311 182.027C188.041 183.87 166.688 183.585 165.334 183.585C163.733 183.585 160.934 182.388 163.735 180.783C166.32 179.304 194.138 172.978 200.912 165.158C203.957 151.988 206.274 138.389 207.04 135.326C207.754 132.446 207.03 130.309 206.078 128.859Z" fill="#6597EF"/>
<path d="M232.092 46.9039C229.924 45.2021 228.794 40.0075 228.857 39.7876C229.757 36.6431 230.437 32.1346 230.787 28.079C230.787 28.079 225.517 27.0553 222.067 26.6128C220.717 22.6332 218.044 19.9914 213.274 20.7742C207.321 21.743 204.881 24.4423 205.105 33.4987C205.121 34.0721 206.343 36.041 206.343 36.1719C205.997 39.3294 204.941 41.7958 205.126 42.3692C205.281 42.8221 206.322 43.4165 207.397 43.3693C207.807 44.7125 208.576 46.142 208.932 47.116C209.845 49.6347 210.726 49.9855 211.521 49.996C212.976 50.0143 214.459 49.5064 215.949 48.8492C218.152 51.2475 220.38 58.013 220.38 58.013L227.272 55.2507C227.272 55.2507 235.422 49.5247 232.092 46.9039Z" fill="#CC9483"/>
<path d="M205.384 27.6203C204.05 26.649 202.635 24.8869 202.389 23.7218C201.754 20.669 204.947 16.383 204.947 16.383L206.407 21.7817C206.407 21.7817 205.855 20.6533 205.805 18.9488C205.748 16.9355 207.22 13.3118 207.003 14.7074C206.341 19.0195 209.948 20.0276 209.948 20.0276C217.188 14.5555 206.208 15.8515 220.826 17.2365C225.053 17.645 227.163 20.203 227.163 20.203C227.163 20.203 235.664 20.4962 229.865 41.125C229.865 41.125 225.675 40.4077 224.741 39.0436C221.095 33.7181 218.825 34.933 218.061 33.8019C216.497 31.5005 215.169 31.3722 214.831 32.0163C214.585 32.4692 214.708 26.8349 211.366 27.2224C210.272 27.3428 205.384 27.6203 205.384 27.6203Z" fill="#A0593A"/>
<path d="M225.304 21.8477C223.716 19.397 220.146 18.6142 215.718 20.9732C218.019 20.3579 219.649 19.2975 221.877 21.0413C224.1 22.7902 225.304 21.8477 225.304 21.8477Z" fill="#BA784A"/>
<path d="M213.367 20.9467C209.439 21.1117 207.276 17.365 207.448 13.731C206.515 17.4383 206.951 22.0726 211.052 22.4129C214.209 22.68 213.367 20.9467 213.367 20.9467Z" fill="#BA784A"/>
<path d="M218.84 22.6776C207.887 27.3197 204.429 21.6225 206.001 16.7212C203.459 20.2243 204.28 25.0366 206.485 25.7461C210.222 26.9479 218.84 22.6776 218.84 22.6776Z" fill="#BA784A"/>
<path d="M216.272 18.7812C213.353 18.3492 212.113 15.244 211.488 14.1444C210.973 14.6759 211.834 16.341 211.834 16.341C211.834 16.341 210.531 14.7492 210.424 13.1128C208.705 14.5868 209.477 15.6682 210.058 16.472C208.755 14.8801 209.399 13.5788 209.399 13.5788C209.399 13.5788 207.115 19.3467 209.372 20.6349C212.545 22.4493 218.085 19.4934 218.77 19.0875C219.453 18.6791 216.272 18.7812 216.272 18.7812Z" fill="#BA784A"/>
<path d="M208.05 13.8911C208.04 15.2473 207.878 19.4181 210.681 21.0231C209.476 20.9917 207.765 17.4623 207.64 16.6559C207.514 15.8548 208.05 13.8911 208.05 13.8911Z" fill="#A0593A"/>
<path d="M210.872 13.6001C210.731 14.273 211.505 19.2895 214.406 19.6298C215.266 19.6927 214.05 19.9597 213.697 19.8916C210.971 19.3759 211.081 16.5534 210.846 15.0689C210.637 13.7546 210.872 13.6001 210.872 13.6001Z" fill="#A0593A"/>
<path d="M226.881 22.3442C227.407 20.0114 225.561 16.8565 221.763 16.558C221.763 16.558 223.398 16.4454 224.138 18.2834C224.875 20.1135 224.739 18.7835 224.739 18.7835C224.739 18.7835 224.703 17.1392 219.362 16.5606C221.901 17.4377 220.586 17.6471 221.65 18.6787C222.712 19.7051 226.881 22.3442 226.881 22.3442Z" fill="#A0593A"/>
<path d="M219.367 34.1946C219.597 31.8565 222.702 31.5397 223.102 33.5636C223.505 35.5901 222.869 40.0175 221.117 40.1091C219.378 40.206 219.367 34.1946 219.367 34.1946Z" fill="#CC9483"/>
<path d="M216.332 57.6312C217.004 56.6651 217.177 55.28 217.177 55.28C217.93 57.5369 230.843 50.5175 232.389 45.8833L233.798 47.4778C233.798 47.4778 240.39 52.5204 240.986 53.1907C240.986 53.1907 247.229 57.6312 247.229 77.8437C247.229 88.4003 253.993 126.286 253.993 126.286C253.993 126.286 243.758 132.381 234.743 133.13C225.73 133.881 213.047 128.912 213.047 128.912C213.047 128.912 212.482 94.7652 211.734 90.2514C210.981 85.7402 211.245 74.5788 211.826 70.0415C212.451 65.1481 214.985 59.566 216.332 57.6312Z" fill="#FF0000"/>
<path d="M216.332 57.6312C217.004 56.6651 217.177 55.28 217.177 55.28C217.93 57.5369 230.843 50.5175 232.389 45.8833L233.798 47.4778C233.798 47.4778 240.39 52.5204 240.986 53.1907C240.986 53.1907 247.229 57.6312 247.229 77.8437C247.229 88.4003 253.993 126.286 253.993 126.286C253.993 126.286 243.758 132.381 234.743 133.13C225.73 133.881 213.047 128.912 213.047 128.912C213.047 128.912 212.482 94.7652 211.734 90.2514C210.981 85.7402 211.245 74.5788 211.826 70.0415C212.451 65.1481 214.985 59.566 216.332 57.6312Z" fill="#EC1C24"/>
<path d="M240.986 53.1906C240.458 52.5988 235.059 48.4437 233.862 47.6426C232.797 48.9831 231.16 50.7687 229.575 51.3343L233.893 54.9081C233.893 54.9081 240.28 62.9905 239.718 66.7502C239.153 70.5074 242.519 98.2027 243.377 104.447C244.504 112.624 247.214 128.956 247.276 129.236C247.745 129.152 253.802 126.288 253.802 126.288C253.802 126.288 247.041 88.4002 247.041 77.8436C247.044 57.6337 240.986 53.1906 240.986 53.1906Z" fill="#FF0000"/>
<path d="M228.887 61.9714C226.64 65.0505 220.844 77.0314 216.503 83.7313C213.44 83.2496 194.339 83.6947 193.878 83.4512C191.77 82.3594 191.556 82.3568 190.314 81.6813C189.061 81.0163 187.698 80.9534 185.893 79.1076C185.404 78.6075 184.586 78.5735 184.952 79.3275C185.318 80.0816 186.312 81.1053 187.018 81.9562C187.899 83.0008 183.974 83.2103 182.974 83.1161C182.111 83.0297 177.045 83.1475 177.082 83.7732C177.152 84.9252 182.964 84.6948 182.514 84.9017C182.224 85.0326 176.153 84.2916 176.349 84.9828C176.752 86.4726 181.931 85.894 182.535 86.6271C182.535 86.6271 181.159 86.381 179.807 86.4124C178.565 86.4412 177.505 86.0118 177.286 86.3678C176.535 87.5277 184.293 87.9964 183.409 88.5384C183.048 88.7583 178.983 87.0067 179.266 87.944C179.407 88.4048 184.34 90.5125 184.34 90.5125C184.34 90.5125 188.987 91.1278 191.543 90.9131C193.078 90.79 200.833 92.7249 205.517 93.5967C212.864 94.9739 218.106 95.5866 221.31 95.3169C227.681 94.7959 241.305 68.7159 241.305 68.7159C241.305 68.7159 231.136 58.8846 228.887 61.9714Z" fill="#CC9483"/>
<path d="M223.223 70.6969C225.072 70.7912 234.849 76.0826 236.237 79.8632C240.268 73.7236 242.159 67.9897 242.355 64.2902C242.549 60.5907 241.479 55.7679 237.257 55.5454C233.036 55.3228 230.326 56.5036 228.851 59.3418C227.381 62.1721 223.223 70.6969 223.223 70.6969Z" fill="#FF0000"/>
<path d="M237.827 56.1038C231.612 54.7162 229.813 57.9156 226.297 65.1602C224.291 69.297 223.839 70.3338 223.839 70.3338C223.839 70.3338 228.991 72.9912 229.768 73.295C231.991 61.3559 239.38 56.4494 237.827 56.1038Z" fill="#FF2E2E"/>
<path d="M48.9146 241.421L0.873047 249.909V0.949219L48.9146 3.7795V241.421Z" fill="black"/>
<path d="M47.9756 249.909H0.873047V257.452H47.9756V249.909Z" fill="#282626"/>
<path d="M74.3542 242.838L47.9769 257.453L46.6221 247.082L74.3542 236.237V242.838Z" fill="#282626"/>
<path d="M47.9756 249.91L74.3529 236.237H46.5632L0.873047 249.91H47.9756Z" fill="black"/>
<path d="M11.8237 7.55225V239.564L42.7939 229.869V9.43736L11.8237 7.55225Z" fill="#282626"/>
<path d="M12.9722 8.73145L12.8833 236.473L39.7314 228.692V10.2631L12.9722 8.73145Z" fill="#D3DCEA"/>
<path d="M44.5627 235.339H41.7354V244.958H44.5627V235.339Z" fill="#B2BCCE"/>
<path d="M47.9174 246.207V246.202V245.764H47.4806C46.7248 245.4 45.0587 245.146 43.118 245.146C41.1747 245.146 39.5086 245.4 38.7501 245.764H38.3159V246.23H38.3211C38.3944 246.799 40.5103 247.257 43.118 247.257C45.723 247.257 47.8416 246.801 47.9122 246.23H47.9174V246.207Z" fill="#929BB7"/>
<path d="M47.9174 245.767C47.9174 246.351 45.7675 246.822 43.118 246.822C40.4659 246.822 38.3159 246.348 38.3159 245.767C38.3159 245.183 40.4659 244.714 43.118 244.714C45.7675 244.714 47.9174 245.183 47.9174 245.767Z" fill="#B2BCCE"/>
<path d="M43.216 245.736C43.917 245.613 46.4383 245.186 46.2395 245.168C45.5909 245.105 44.4898 244.175 44.4898 244.175C44.1367 244.175 44.0661 244.335 43.6999 244.393C43.5194 244.421 43.2893 244.421 43.1637 244.424C43.0408 244.421 42.8394 244.416 42.6563 244.385C42.2927 244.325 41.7723 244.173 41.7513 244.217C41.5316 244.704 40.237 245.165 40.0068 245.165C39.8028 245.165 42.3294 245.61 43.0303 245.733L43.0329 245.765C43.0329 245.765 43.0669 245.759 43.1245 245.751C43.1794 245.759 43.2108 245.765 43.2108 245.765L43.216 245.736Z" fill="#B2BCCE"/>
<path opacity="0.59" d="M42.1947 244.425C41.7605 245.093 38.9802 246.009 38.8442 245.978C39.642 246.52 43.8608 246.753 45.5687 246.413C44.839 245.884 43.9288 244.797 43.8608 244.485C42.8904 244.75 42.1947 244.425 42.1947 244.425Z" fill="#D3DCEA"/>
<path d="M57.2992 230.656H55.0996V239.21H57.2992V230.656Z" fill="#B2BCCE"/>
<path d="M60.1879 239.947C60.1879 239.944 60.1879 239.944 60.1879 239.947V239.941V239.578H59.8191C59.1862 239.269 57.7869 239.059 56.16 239.059C54.5332 239.059 53.1339 239.269 52.5009 239.578H52.1348V239.968H52.14C52.2002 240.441 53.9735 240.826 56.16 240.826C58.344 240.826 60.1199 240.444 60.18 239.968H60.1853L60.1879 239.947Z" fill="#929BB7"/>
<path d="M60.1877 239.577C60.1877 240.064 58.3856 240.462 56.1625 240.462C53.9393 240.462 52.1372 240.064 52.1372 239.577C52.1372 239.085 53.9367 238.697 56.1625 238.697C58.3856 238.697 60.1877 239.087 60.1877 239.577Z" fill="#B2BCCE"/>
<path d="M56.2424 239.548C56.8309 239.448 58.9442 239.087 58.7794 239.074C58.238 239.019 57.3095 238.241 57.3095 238.241C57.0139 238.241 56.9564 238.37 56.6478 238.419C56.4961 238.445 56.3051 238.445 56.2005 238.448C56.0959 238.445 55.9259 238.443 55.7768 238.414C55.4682 238.364 55.034 238.239 55.0157 238.275C54.83 238.686 53.7472 239.071 53.5536 239.071C53.3836 239.071 55.4996 239.446 56.088 239.545V239.574C56.088 239.574 56.1194 239.566 56.1665 239.561C56.211 239.569 56.2398 239.574 56.2398 239.574L56.2424 239.548Z" fill="#B2BCCE"/>
<path opacity="0.59" d="M55.3903 238.451C55.0215 239.006 52.6937 239.776 52.5786 239.755C53.2482 240.208 56.7843 240.402 58.2176 240.116C57.6056 239.674 56.8419 238.76 56.7843 238.504C55.9709 238.723 55.3903 238.451 55.3903 238.451Z" fill="#D3DCEA"/>
<path d="M62.3109 229.084C62.5202 229.639 62.1278 230.262 61.4374 230.495L36.373 238.711C35.6773 238.936 34.9476 238.677 34.7357 238.13C34.5265 237.577 34.9162 236.954 35.6093 236.721L60.671 228.505C61.3667 228.28 62.0965 228.537 62.3109 229.084Z" fill="#B2BCCE"/>
<path d="M61.8374 228.985C61.7406 228.733 61.398 228.624 61.0736 228.733L36.3493 236.957C36.0198 237.067 35.8314 237.355 35.9282 237.601C36.0276 237.85 36.3702 237.957 36.6946 237.853L61.4189 229.624C61.7484 229.516 61.9341 229.226 61.8374 228.985Z" fill="#D3DCEA"/>
</svg>
