<svg width="258" height="258" viewBox="0 0 258 258" fill="none" xmlns="http://www.w3.org/2000/svg">
<g style="mix-blend-mode:multiply" opacity="0.3">
<path d="M254.338 154.691L207.102 179.103C204.494 180.45 203.043 182.278 203.058 184.175C203.058 185.948 203.089 187.721 203.105 189.714C203.105 191.625 201.654 193.439 199.062 194.786L141.624 224.517C139.016 225.864 135.482 226.62 131.794 226.62H121.054C117.366 226.62 113.832 227.376 111.239 228.709L58.7092 255.843C54.8203 257.849 48.7556 257.987 45.1446 256.131L2.8305 234.372C-0.780551 232.517 -0.533641 229.397 3.35518 227.376L55.8851 200.243C58.4777 198.896 59.9437 197.068 59.9128 195.171L59.882 189.631C59.882 187.721 61.3171 185.907 63.9251 184.559L98.8782 166.471L111.656 159.859L115.097 158.086L121.362 154.842C123.955 153.495 127.489 152.739 131.192 152.739C134.896 152.739 138.492 152.739 141.918 152.739C145.421 152.739 148.785 152.066 151.331 150.842L151.732 150.636L198.969 126.238C202.858 124.231 208.923 124.094 212.534 125.95L254.848 147.708C258.459 149.564 258.212 152.698 254.323 154.691H254.338Z" fill="#858585"/>
</g>
<path d="M53.7098 103.05C53.7098 103.05 49.6976 78.1027 55.3765 68.2061L93.632 74.6526L92.3511 95.3392L53.7098 103.05Z" fill="#603813"/>
<path d="M47.9531 166.416C48.7864 173.329 50.6536 174.608 56.6875 176.326C61.0701 177.577 63.5083 176.463 63.4929 172.436C63.462 164.986 59.6041 161.811 58.956 159.35C58.1535 156.299 60.314 153.715 56.6257 152.615C53.9869 151.832 48.7401 152.368 47.629 155.131C46.8265 157.124 47.7216 164.326 47.9685 166.416H47.9531Z" fill="black"/>
<path d="M103.678 148.603C103.678 148.603 104.403 152.328 103.678 154.953C102.952 157.592 101.919 160.396 104.789 162.884C107.659 165.372 108.03 166.018 108.215 167.255C108.4 168.492 107.659 169.894 109.511 172.286C111.363 174.677 113.029 178.306 117.489 177.564C121.934 176.822 124.989 172.945 122.952 168.478C120.915 164.025 118.431 161.015 116.502 158.32C113.323 153.895 112.489 145.854 112.489 145.854L103.678 148.575V148.603Z" fill="black"/>
<path d="M97.1045 135.818L98.9409 151.804C98.9409 151.804 103.586 154.663 109.188 151.804C114.789 148.945 113.524 145.605 113.524 145.605L112.012 126.32L97.1045 135.818Z" fill="#603813"/>
<path d="M109.018 24.0975C108.94 26.3105 108.863 27.8637 108.863 27.8637C108.863 27.8637 105.576 48.3854 105.761 52.3028C105.947 56.2065 106.178 69.2783 106.178 69.2783C106.178 69.2783 104.049 77.5667 82.7217 79.2436C79.8977 79.4635 77.3052 79.546 74.9287 79.5048C69.867 79.4223 65.8393 78.8312 62.6758 78.0478C55.3611 76.2196 52.6914 73.3331 52.6914 73.3331C52.6914 72.4259 52.8766 71.1201 53.1698 69.6219C54.0803 64.921 56.0247 58.2683 56.5802 55.8629C56.6265 55.6842 56.6574 55.5192 56.6728 55.3955C57.1358 52.9764 59.7283 34.8601 58.6172 29.1695C58.432 28.2486 58.324 27.094 58.2314 25.8157C57.8302 19.1355 58.6172 8.84026 58.6172 8.84026C69.5584 4.27683 86.1322 7.39701 86.1322 7.39701C96.7801 4.52424 108.107 7.79562 108.848 9.70621C109.373 11.0258 109.172 19.1905 109.002 24.125L109.018 24.0975Z" fill="#EC1C24"/>
<g style="mix-blend-mode:multiply" opacity="0.5">
<path d="M108.863 27.8634C108.863 27.8634 105.576 48.3851 105.761 52.3025C105.947 56.2062 106.178 69.278 106.178 69.278C106.178 69.278 104.049 77.5664 82.7218 79.2433C59.8363 81.0302 52.6914 73.3191 52.6914 73.3191C52.6914 69.3604 56.2099 57.8006 56.6883 55.3815C57.1512 52.9623 59.7438 34.846 58.6327 29.1555C58.4475 28.2345 58.3395 27.0799 58.2469 25.8016C58.9104 23.245 59.574 20.6884 60.253 18.1455L59.7129 22.4065C61.5956 25.6642 63.5091 28.9905 64.2807 32.5918C64.8054 35.011 64.79 37.4851 65.2375 39.9043C65.9936 44.0416 68.0306 47.8903 70.0522 51.6703C71.6571 54.6805 73.262 57.6907 74.8669 60.7009C75.4842 61.8693 76.1787 63.1063 77.4132 63.7798C79.6663 65.0169 82.552 63.9036 84.8822 62.7764C88.5241 61.0308 92.166 59.2851 95.7925 57.5257C97.0579 56.9209 98.3542 56.2887 99.3418 55.354C101.533 53.2785 101.795 50.1583 102.058 47.313C102.829 39.272 104.851 31.2173 109.018 24.0835C108.94 26.2965 108.863 27.8497 108.863 27.8497V27.8634Z" fill="#BF2235"/>
</g>
<path d="M177.227 54.8315V136.836C177.227 137.441 177.674 138.032 178.554 138.485C180.328 139.393 183.214 139.393 184.989 138.485C185.884 138.032 186.316 137.427 186.316 136.836V54.8315H177.227Z" fill="#808080"/>
<path d="M231.253 140.932L185.636 117.469C185.343 117.318 184.942 117.345 184.494 117.565C183.599 118.019 182.889 119.132 182.889 120.039C182.889 120.493 183.074 120.823 183.368 120.96L231.268 145.592V140.918L231.253 140.932Z" fill="#4D4D4D"/>
<path d="M178.229 119.558C177.781 119.325 177.38 119.311 177.087 119.462L22.7686 198.841V203.514L179.355 122.967C179.649 122.816 179.818 122.5 179.818 122.046C179.818 121.139 179.093 120.026 178.213 119.572L178.229 119.558Z" fill="#4D4D4D"/>
<path d="M19.2661 135.819V217.824C19.2661 218.428 19.7136 219.02 20.5933 219.473C22.3679 220.38 25.2537 220.38 27.0283 219.473C27.9234 219.02 28.3555 218.415 28.3555 217.824V135.819H19.2661Z" fill="#808080"/>
<path d="M227.658 62.0205V162.705C227.658 163.309 228.105 163.901 228.985 164.354C230.76 165.261 233.645 165.261 235.42 164.354C236.315 163.901 236.747 163.296 236.747 162.705V62.0205H227.658Z" fill="#808080"/>
<path d="M230.142 144.946C229.694 144.712 229.293 144.698 229 144.85L73.3696 224.888V229.562L231.268 148.355C231.561 148.204 231.731 147.887 231.731 147.434C231.731 146.527 231.006 145.413 230.126 144.96L230.142 144.946Z" fill="#4D4D4D"/>
<path d="M73.6324 221.988L28.0159 198.525C27.7227 198.374 27.3215 198.401 26.874 198.621C25.9789 199.075 25.269 200.188 25.269 201.095C25.269 201.549 25.4542 201.879 25.7474 202.016L73.6478 226.648V221.975L73.6324 221.988Z" fill="#4D4D4D"/>
<path d="M69.8662 144.025V243.844C69.8662 244.448 70.3137 245.039 71.1933 245.493C72.968 246.4 75.8538 246.4 77.6284 245.493C78.5235 245.039 78.9556 244.435 78.9556 243.844V144.025H69.8662Z" fill="#808080"/>
<path d="M227.842 63.0376V162.856C227.842 163.461 228.29 164.052 229.169 164.505C230.944 165.412 233.83 165.412 235.604 164.505C236.5 164.052 236.932 163.447 236.932 162.856V63.0376H227.842Z" fill="#808080"/>
<path d="M240.126 54.804C240.234 53.6357 239.432 52.4399 237.704 51.5464L199.51 31.9044C196.254 30.2275 191.007 30.2412 187.782 31.9044L30.4849 113.331C28.88 114.17 28.0775 115.256 28.0775 116.342L28.0312 132.767C28.0312 133.867 28.8491 134.967 30.4849 135.819L68.6787 155.461C71.9194 157.124 77.1816 157.138 80.4069 155.461L237.704 74.0337C239.308 73.209 240.111 72.1231 240.111 71.0235L240.157 54.5841C240.157 54.6528 240.157 54.7216 240.142 54.7903L240.126 54.804ZM240.049 55.2164C240.065 55.1477 240.095 55.0652 240.111 54.9965C240.111 55.0652 240.065 55.1477 240.049 55.2164ZM28.88 118.184C28.88 118.184 28.9726 118.293 29.0189 118.348C28.9726 118.293 28.9263 118.239 28.88 118.184ZM28.093 116.562C28.093 116.562 28.093 116.685 28.1084 116.754C28.1084 116.685 28.1084 116.63 28.093 116.562ZM28.1701 116.974C28.1701 116.974 28.201 117.098 28.2319 117.166C28.201 117.098 28.201 117.043 28.1701 116.974ZM28.3245 117.386C28.3245 117.386 28.3708 117.51 28.417 117.565C28.3862 117.51 28.3553 117.441 28.3245 117.386ZM28.5559 117.785C28.5559 117.785 28.6331 117.895 28.6794 117.964C28.6331 117.909 28.6022 117.854 28.5559 117.785ZM29.9448 119.049C29.9448 119.049 29.8522 118.981 29.7905 118.94C29.8368 118.981 29.8831 119.008 29.9448 119.049ZM29.451 118.706C29.451 118.706 29.343 118.61 29.2812 118.568C29.343 118.61 29.3893 118.665 29.451 118.706ZM238.954 56.7834C239.031 56.7146 239.123 56.6459 239.2 56.5634C239.123 56.6322 239.031 56.7146 238.954 56.7834ZM237.734 57.6081C237.935 57.4981 238.12 57.4019 238.305 57.2782C238.136 57.3882 237.935 57.4981 237.734 57.6081ZM238.46 57.1682C238.568 57.0858 238.691 57.017 238.784 56.9346C238.676 57.017 238.568 57.0858 238.46 57.1682ZM240.003 55.3951C239.972 55.4638 239.941 55.5463 239.895 55.615C239.926 55.5463 239.972 55.4638 240.003 55.3951ZM239.818 55.8074C239.771 55.8762 239.725 55.9586 239.679 56.0274C239.725 55.9586 239.787 55.8899 239.818 55.8074ZM239.54 56.1923C239.478 56.261 239.416 56.3435 239.339 56.4122C239.401 56.3435 239.478 56.2748 239.54 56.1923Z" fill="#CCCCCC"/>
<path d="M257.41 45.3752C257.456 44.1381 256.623 42.9422 254.864 42.035L212.55 20.2763C208.954 18.4206 202.889 18.5581 199 20.5649L151.764 44.9628C149.171 46.3098 145.637 47.0658 141.934 47.0658C138.492 47.0658 135.066 47.0658 131.193 47.0658C127.505 47.0658 123.955 47.8218 121.363 49.1688L63.9102 78.8999C61.3177 80.2469 59.8671 82.0751 59.8671 83.9719V90.0748C59.6047 91.7655 58.2004 93.3737 55.8702 94.5833L3.3557 121.744C1.24154 122.844 0.207611 124.259 0.300202 125.634C0.300202 125.579 0.300202 125.538 0.300202 125.483L0.253906 132.768C0.253906 133.964 1.10266 135.146 2.81559 136.025L45.1297 157.784C48.7253 159.64 54.79 159.502 58.6788 157.495L111.209 130.348C113.801 129.001 117.335 128.245 121.023 128.245H131.764C135.452 128.245 138.986 127.489 141.594 126.142L199.047 96.4114C201.639 95.0643 203.105 93.2362 203.09 91.3394V85.1952C203.383 83.5183 204.772 81.9239 207.087 80.728L254.324 56.3301C256.361 55.2718 257.395 53.911 257.395 52.5914V45.3064C257.395 45.3064 257.395 45.3614 257.395 45.3889L257.41 45.3752Z" fill="#858585"/>
<path d="M254.339 49.0319L207.102 73.4435C204.51 74.7905 203.059 76.6186 203.075 78.5155C203.075 80.2886 203.09 82.0618 203.106 84.0548C203.121 85.9654 201.655 87.7798 199.062 89.1268L141.61 118.872C139.017 120.219 135.483 120.975 131.795 120.975H121.055C117.366 120.975 113.832 121.731 111.224 123.064L58.7099 150.211C54.8211 152.218 48.7564 152.355 45.1454 150.5L2.83127 128.741C-0.764349 126.885 -0.532872 123.765 3.35595 121.744L55.8705 94.6112C58.4785 93.2642 59.9291 91.4361 59.9136 89.5392L59.8828 83.9861C59.8673 82.3229 60.9939 80.701 63.0463 79.4227C63.3241 79.244 63.6173 79.079 63.9259 78.9141L70.7313 75.3953L98.879 60.8253L111.657 54.2001L115.098 52.4269L121.363 49.183C123.956 47.836 127.505 47.08 131.193 47.08H141.934C145.437 47.08 148.801 46.3928 151.347 45.1832L151.748 44.977L198.985 20.5791C202.874 18.5586 208.939 18.4348 212.55 20.2767L254.864 42.0492C258.46 43.9049 258.228 47.025 254.339 49.0319Z" fill="#A5A5A5"/>
<g style="mix-blend-mode:multiply" opacity="0.3">
<path d="M112.382 109.854C121.95 105.167 131.533 100.48 141.101 95.8065C147.459 92.7001 153.817 89.5799 159.928 86.0886C176.563 76.6043 191.131 64.4672 207.735 54.9555C216.408 49.9797 225.559 45.0452 235.405 41.7051C230.513 39.547 224.263 36.152 219.371 33.994C217.519 33.183 215.621 32.3445 213.569 32.1796C208.276 31.726 203.908 35.5334 199.881 38.6399C188.461 47.5056 174.017 52.5501 161.085 59.5877C153.23 63.8625 145.854 68.907 137.49 72.3295C130.144 75.326 122.212 76.9892 114.512 79.1884C104.358 82.0887 94.5739 85.9511 85.1759 90.4321C75.2841 95.1467 62.9541 102.5 62.5065 113.675C62.0436 125.565 83.0772 120.96 90.6542 118.857C98.3084 116.741 105.376 113.29 112.367 109.868L112.382 109.854Z" fill="#227FBC"/>
</g>
<path d="M67.4745 117.194C73.0454 120.053 70.9312 125.784 62.7832 129.977C54.6352 134.169 43.4935 135.255 37.9226 132.396C32.3517 129.537 34.4658 123.805 42.6293 119.613C50.7927 115.42 61.9191 114.335 67.4899 117.194H67.4745Z" fill="#858585"/>
<path d="M118.601 69.8559L107.012 81.1821L99.6819 88.3433L97.5831 88.7007L94.7283 89.1956L90.4382 89.9378L80.8242 91.601L78.4785 92.0133L77.6452 92.1645L75.1453 92.5906L74.2502 92.7556L71.8428 93.1679L71.1639 93.2917L69.667 93.5528L69.2503 93.5941L53.7104 94.9548C53.7104 94.9548 53.7259 88.687 60.6856 85.6355C62.4449 84.8658 64.2658 84.1373 66.0868 83.4363C70.5466 81.7181 74.9447 80.2061 78.139 78.7217C78.8026 78.4193 79.4199 78.1031 79.96 77.8007C84.2192 75.409 96.4566 72.5088 99.6973 71.203C99.8825 71.1343 100.114 71.038 100.361 70.9418C102.768 70.0209 108 68.1653 112.012 66.7633C114.99 65.7186 117.305 64.9214 117.305 64.9214L118.601 69.8697V69.8559Z" fill="#EBAB89"/>
<g style="mix-blend-mode:multiply" opacity="0.5">
<path d="M84.0789 83.5722C86.2857 82.7612 88.5078 81.9365 90.5294 80.7956C94.5571 78.5552 97.6281 75.2151 101.332 72.576C105.298 69.7582 109.927 67.8064 114.526 65.8683C115.267 65.5521 116.054 65.236 116.872 65.3185C116.933 66.5693 116.239 67.7514 115.529 68.851C113.446 72.0949 111.115 75.2013 108.585 78.184C106.964 80.0809 105.267 81.9228 103.245 83.476C97.8441 87.6408 90.5757 89.4552 83.4462 89.7163C80.5759 89.8263 77.721 89.7026 74.8661 89.6476C73.5544 89.6201 69.3569 90.4173 70.5606 88.4793C71.502 86.9673 75.0976 86.6786 76.7642 86.1426C79.2333 85.3591 81.6561 84.4519 84.0789 83.5584V83.5722Z" fill="#F09471"/>
</g>
<path d="M224.586 34.5579L220.003 36.8808L217.503 38.1454C217.503 38.1454 211.67 37.1969 209.617 38.0629C207.58 38.9289 189.371 46.7774 182.828 51.2721C177.828 54.7084 171.655 59.0382 170.266 60.1928C168.877 61.3474 162.766 66.1308 162.766 66.1308L158.615 68.1926L141.764 76.5909L135.683 79.6149L135.097 79.9035L134.48 79.395L122.89 69.7183L118.585 66.1308C118.585 66.1308 119.403 65.3198 121.872 64.2339C124.897 62.9006 130.375 61.1687 139.804 60.0279C139.804 60.0279 140.838 59.8904 142.242 59.6842C144.881 59.2994 148.847 58.6946 149.804 58.3784C151.285 57.8836 153.507 57.5537 155.544 55.4919C157.581 53.4301 161.763 48.6055 167.921 45.0867C175.683 40.6608 189.803 37.0045 189.803 37.0045C189.803 37.0045 199.756 34.3654 200.59 30.4755C201.423 26.5993 201.701 25.6509 203.784 24.9087C205.867 24.1664 208.09 25.5684 208.09 25.5684C210.682 26.943 213.506 27.9601 216.67 29.0323C219.092 29.857 219.447 31.259 220.697 31.5476C221.947 31.8363 224.54 34.5579 224.54 34.5579H224.586Z" fill="#EBAB89"/>
<path d="M220.003 36.8799L217.503 38.1445C217.503 38.1445 211.67 37.196 209.617 38.062C207.58 38.9279 189.371 46.7765 182.828 51.2712C177.828 54.7075 171.655 59.0373 170.266 60.1919C168.877 61.3465 162.766 66.1299 162.766 66.1299L135.683 79.614C135.683 79.614 135.56 79.614 135.514 79.6002C135.174 79.5452 134.835 79.4765 134.495 79.4078C132.643 78.9679 130.93 78.102 129.341 77.1261C126.44 75.3117 123.909 73.03 121.903 70.4321L122.906 69.7311L124.835 68.3841C127.597 68.5628 130.375 68.7415 133.153 68.9201C135.529 69.0713 137.921 69.2225 140.298 69.0301C143.615 68.7415 146.794 67.7793 149.942 66.8171C152.334 66.0886 154.742 65.3464 156.887 64.1918C159.124 62.9822 161.023 61.3327 162.967 59.7658C174.155 50.7076 187.226 43.4776 201.315 38.5706C202.858 38.0345 204.479 37.4709 205.512 36.3301C206.546 35.1892 206.67 33.2511 205.312 32.3989C210.019 34.5982 214.833 36.2339 220.018 36.8936L220.003 36.8799Z" fill="#E37D56"/>
<path d="M235.404 41.7047C234.108 41.6635 228.661 41.7597 225.25 42.7906C221.84 43.8078 214.093 47.3678 214.093 47.3678C214.093 47.3678 202.565 52.7559 192.087 61.0169C192.087 61.0169 185.421 65.6353 183.183 67.3672C180.961 69.0991 176.331 73.4014 173.831 74.9546C171.331 76.5215 159.001 86.9267 153.616 90.6379C151.363 92.1912 147.443 93.4695 143.662 94.4316C138.415 95.7787 133.4 96.4934 133.4 96.4934V75.6831C133.4 75.6831 135.776 74.6522 139.264 73.2089C145.637 70.5698 155.745 66.5287 161.856 64.8793C171.316 62.3227 174.186 58.2815 174.186 58.2815C174.186 58.2815 178.291 51.0103 191.809 46.2269C205.328 41.4436 208.383 40.2065 209.031 39.7117C209.679 39.2168 212.056 38.0485 212.442 35.7255C212.828 33.4026 215.127 30.7085 218.738 31.7944C222.349 32.8803 223.29 34.3922 225.821 34.9833C228.352 35.5743 232.071 36.3166 233.429 37.5262C234.756 38.7083 235.62 38.5846 236.207 39.6842C236.222 39.7117 236.238 39.7254 236.253 39.7529C236.839 40.9213 236.67 41.7322 235.389 41.7047H235.404Z" fill="#EBAB89"/>
<path d="M61.5947 104.768C61.5947 104.768 60.0206 107.572 56.317 107.572C56.317 107.572 48.3387 104.768 42.9684 109.552C37.5982 114.335 35.9315 121.029 39.0796 126.472C42.2277 131.915 48.5393 132.41 53.9096 131.008C59.2799 129.606 65.0359 124.232 65.3137 120.438C65.5915 116.644 68.8322 115.82 68.8322 115.82C68.8322 115.82 70.8692 114.17 74.758 114.582C78.6468 114.995 72.0729 99.5589 61.5947 104.755V104.768Z" fill="#EBAB89"/>
<path d="M143.985 92.3007C143.877 93.2903 143.754 94.0326 143.692 94.4449C143.646 94.6649 143.63 94.7748 143.63 94.7748L115.668 103.008L109.711 104.768L97.0571 110.637L91.7794 113.084L84.9585 116.245C84.9585 116.245 80.2518 116.066 74.7581 114.596C71.7026 113.785 67.5668 112.438 64.4496 111.379C61.8416 110.486 59.9281 109.812 59.9281 109.812C59.9281 109.812 62.0577 106.183 59.0022 103.709C55.9467 101.221 51.6721 96.438 54.743 92.232C57.8139 88.0259 63.0916 86.7888 68.6471 87.4486C74.2025 88.1084 90.8843 84.4796 95.159 81.4144C95.7608 80.9746 96.4244 80.4248 97.1188 79.7787C101.224 75.9438 106.193 69.2773 106.193 69.2773C106.193 69.2773 114.68 62.171 121.902 64.2466C122.813 64.5077 123.692 64.9063 124.541 65.4836C124.541 65.4836 127.874 68.2877 128.245 69.4423C128.245 69.4423 134.634 68.5901 139.294 73.236C140.05 73.992 140.76 74.8854 141.408 75.9575C141.532 76.1637 141.655 76.3836 141.763 76.5898C143.322 79.5176 143.954 82.8714 144.155 85.8954C144.309 88.397 144.17 90.6787 144.001 92.3007H143.985Z" fill="#EBAB89"/>
<g style="mix-blend-mode:multiply" opacity="0.5">
<path d="M235.403 41.7038C234.107 41.6626 228.66 41.7588 225.249 42.7897C221.839 43.8068 214.092 47.3668 214.092 47.3668C214.092 47.3668 202.565 52.755 192.086 61.0159C192.086 61.0159 185.42 65.6343 183.182 67.3662C180.96 69.0981 176.33 73.4004 173.83 74.9536C171.331 76.5206 159 86.9258 153.615 90.637C151.362 92.1902 147.442 93.4685 143.661 94.4307C143.615 94.6506 143.6 94.7606 143.6 94.7606L109.68 104.753L97.0262 110.623C95.0047 108.932 93.3689 106.966 92.335 104.891C103.677 99.434 115.282 94.1833 127.705 91.1043C129.603 90.637 131.532 90.2109 133.43 89.7298C134.664 89.4137 135.884 89.0838 137.087 88.6852C139.51 87.9017 141.825 86.8983 144.14 85.8811C144.294 85.8124 144.448 85.7437 144.603 85.6749C146.809 84.7128 149.001 83.7369 151.207 82.7747C155.081 81.0703 158.954 79.3659 162.596 77.3178C170.729 72.7132 177.488 66.4453 184.17 60.2599C192.395 52.6175 204.031 47.9716 215.25 44.4529C216.777 43.9718 218.398 43.4769 219.385 42.3498C220.373 41.2227 220.296 39.2296 218.83 38.6523C224.308 40.2605 230.882 41.3602 236.237 39.6832C236.252 39.7107 236.268 39.7245 236.283 39.752C236.869 40.9203 236.7 41.7313 235.419 41.7038H235.403Z" fill="#F09471"/>
</g>
<path d="M115.962 105.826C116.024 105.964 116.07 106.115 116.132 106.253C116.024 106.115 115.962 105.978 115.962 105.826Z" fill="white"/>
<path d="M181.425 93.0027C178.909 95.3394 176.301 97.676 173.076 99.188C171.209 100.068 169.172 100.645 167.166 101.222C156.194 104.411 144.635 108.026 137.228 115.916C133.864 114.294 130.145 113.359 126.549 112.15C122.969 110.954 119.389 109.428 116.811 106.899C116.611 106.707 116.333 106.514 116.148 106.281C116.148 106.308 116.163 106.336 116.163 106.363C116.148 106.322 116.132 106.294 116.117 106.253C115.855 105.208 115.716 104.109 115.654 103.009C115.5 100.301 115.808 97.5248 115.453 94.8583C115.345 94.061 115.176 93.2638 114.929 92.4941C113.756 88.934 110.808 85.9788 107.352 83.917C104.219 82.0477 102.522 81.3879 98.9414 80.3295C103.046 76.4946 106.179 69.2645 106.179 69.2645C106.179 69.2645 114.666 62.1582 121.889 64.2338C124.913 62.9005 130.391 61.1686 139.82 60.0277C139.82 60.0277 140.854 59.8903 142.259 59.6841C143.678 61.0998 144.789 62.9829 146.271 64.385C147.799 65.842 149.866 66.8316 152.058 67.189C153.709 67.4502 155.406 67.3677 157.027 67.7251C157.567 67.8488 158.092 68.0137 158.601 68.2199C160.993 69.2096 162.875 71.1476 163.956 73.3057C164.388 74.1716 164.727 75.0651 165.005 75.9585C165.545 77.7591 165.761 79.6147 165.684 81.5253C171.363 84.7555 176.594 88.8103 181.394 93.0164L181.425 93.0027Z" fill="white"/>
<g style="mix-blend-mode:multiply" opacity="0.3">
<path d="M115.669 103.022C115.731 104.122 115.869 105.222 116.147 106.294C116.147 106.294 116.147 106.349 116.163 106.376C116.163 106.349 116.147 106.321 116.147 106.294C116.332 106.528 116.61 106.72 116.811 106.912C117.876 107.957 119.126 108.823 120.468 109.579C120.731 109.565 120.993 109.551 121.24 109.524C125.283 107.902 129.558 106.857 133.415 104.947C138.539 102.404 143.57 100.191 148.924 98.0329C153.523 96.1773 159.217 94.9952 163.338 92.4249C166.548 90.4318 169.433 88.0676 172.458 85.8546C170.282 84.3014 168.045 82.8444 165.714 81.5248C165.791 79.6143 165.575 77.7586 165.035 75.958C156.548 81.03 148.477 87.0092 138.647 89.4421C135.946 90.1156 133.169 90.4868 130.406 90.9953C126.425 91.7238 122.505 92.686 118.678 93.8956C117.613 94.2392 116.502 94.5141 115.468 94.8853C115.823 97.5656 115.515 100.328 115.669 103.036V103.022Z" fill="#52AABF"/>
</g>
<path d="M151.594 95.3384C151.594 95.3384 132.227 102.871 128.045 105.18C123.878 107.489 112.381 109.139 109.511 109.716C106.641 110.293 97.644 113.427 93.1997 115.407C88.7553 117.386 84.9436 116.231 84.9436 116.231C83.9869 115.434 83.2461 114.678 82.6906 113.963C77.8296 107.654 87.5825 104.245 94.9898 103.022L98.4156 102.568C98.4156 102.568 113.94 99.8881 117.181 98.2799C120.421 96.6717 129.002 95.1047 129.557 94.926C129.958 94.8023 138.97 93.1941 143.955 92.3007C145.884 91.9571 147.211 91.7234 147.211 91.7234C148.569 91.4073 149.973 92.9742 150.807 94.1426C151.285 94.8023 151.563 95.3384 151.563 95.3384H151.594Z" fill="#EBAB89"/>
<path d="M169.572 85.2646C169.572 85.5945 169.078 86.0481 167.643 86.6941C166.208 87.3264 163.615 88.8246 163.615 88.8246C163.615 88.8246 163.245 89.127 162.736 89.5257C161.794 90.2542 160.421 91.3125 160.051 91.4637C159.464 91.7112 151.594 95.3537 151.594 95.3537L149.526 94.7489L145.961 93.7042L147.242 91.7524C147.242 91.7524 146.625 89.7043 149.31 88.2061C151.995 86.6941 152.782 85.1959 152.782 85.1959C152.782 85.1959 154.526 82.8867 155.359 83.1753C156.193 83.464 155.653 84.7835 155.359 85.0997C155.051 85.4021 153.338 87.6975 153.338 87.6975L153.893 88.0549L157.396 86.5842C157.396 86.5842 159.665 84.976 159.974 84.7011C160.267 84.4262 162.335 82.8592 163.399 82.763C164.464 82.653 164.14 83.3953 163.893 83.6839C163.646 83.9726 161.301 85.9244 161.131 86.0756C161.301 85.9931 164.078 84.5224 164.603 84.2612C165.143 84 166.733 82.6942 167.458 83.2303C168.106 83.7114 167.597 84.0138 167.473 84.0688C167.643 84.0001 168.708 83.6014 169.078 84.0963C169.48 84.6323 168.785 84.9897 168.785 84.9897C168.785 84.9897 169.618 84.976 169.618 85.2921L169.572 85.2646Z" fill="#EBAB89"/>
<path d="M162.736 89.5112C161.81 90.2397 160.421 91.2981 160.051 91.4493C159.465 91.6967 151.594 95.3392 151.594 95.3392C151.594 95.3392 132.227 102.872 128.045 105.181C123.879 107.49 112.382 109.139 109.512 109.717C106.641 110.294 97.6447 113.428 93.2003 115.407C88.7559 117.387 84.9443 116.232 84.9443 116.232C84.9443 116.232 80.2376 116.053 74.7438 114.583C71.6883 113.772 67.5526 112.425 64.4354 111.366C64.2348 110.267 64.2348 109.181 65.2224 108.961C66.4569 108.672 69.6668 110.858 70.855 111.339C74.6204 112.823 78.5864 113.785 82.7067 113.978C82.9381 113.978 83.185 113.992 83.4165 114.005C86.2714 114.047 89.0337 113.689 91.7806 113.084C98.2774 111.655 104.558 108.906 111.009 107.119C117.027 105.456 123.292 104.604 129.295 102.899C136.348 100.892 142.906 97.7172 149.526 94.7344C149.959 94.542 150.391 94.3496 150.838 94.1434C154.727 92.4115 158.662 90.7758 162.736 89.5112Z" fill="#E37D56"/>
<path d="M60.3618 105.496C71.1487 107.036 68.7105 115.97 75.8863 118.719C69.0037 122.348 66.7198 120.768 60.5933 124.259C56.6891 126.472 56.6891 135.228 42.2294 131.681C30.671 128.85 35.6863 115.97 37.4919 112.809C40.0073 108.397 48.3405 102.198 60.3618 105.496Z" fill="black"/>
<g style="mix-blend-mode:multiply" opacity="0.3">
<path d="M126.764 68.3023C126.903 68.5772 127.026 68.8796 127.273 69.0995C127.69 69.4569 128.338 69.4844 128.909 69.4981C133.755 69.6905 138.446 71.8898 141.378 75.3261C140.961 74.2127 142.273 73.2368 143.415 72.6733C146.81 70.9826 150.406 69.5943 154.109 68.5222C149.835 67.3401 145.529 70.3641 141.054 70.4603C137.983 70.529 135.128 69.2232 132.258 68.2198C130.39 67.56 127.428 66.2817 125.421 66.5841C125.915 67.0927 126.44 67.6562 126.749 68.2885L126.764 68.3023Z" fill="#52AABF"/>
</g>
<path d="M60.2983 40.6191C61.502 40.3579 62.3662 39.7944 62.9989 38.9422C63.3384 36.3855 63.4618 32.9355 62.9989 28.482C62.9989 28.482 64.9433 11.6028 58.6162 8.8125C58.6162 8.8125 49.1565 10.1595 48.8787 22.1317C48.8787 22.1317 48.4158 28.0696 47.9528 31.2173C47.6905 33.0042 47.7522 35.7395 47.8448 38.2137C49.5423 42.2135 56.5021 42.3098 60.2829 40.6328L60.2983 40.6191Z" fill="#FF0000"/>
<g style="mix-blend-mode:multiply" opacity="0.5">
<path d="M70.7301 75.3939L63.9246 78.9127C63.616 79.0777 63.3228 79.2426 63.045 79.4213C62.9216 78.8715 62.7827 78.3629 62.6901 78.0468C62.6284 77.8131 62.5666 77.6619 62.5666 77.6619C61.7333 77.0984 57.6747 73.5658 53.1841 69.6072C54.0791 64.9063 56.039 58.2536 56.5945 55.8481C57.9679 57.5388 59.3105 59.4357 60.4216 61.4425C63.4617 66.8856 69.3875 74.1981 70.7301 75.3939Z" fill="#BF2235"/>
</g>
<g style="mix-blend-mode:multiply" opacity="0.3">
<path d="M75.2525 79.7798C72.0581 81.2643 67.66 82.79 63.2002 84.5081C63.1539 83.3948 63.2002 82.3226 63.2774 81.6491C63.3545 81.0168 63.2156 80.1646 63.0459 79.4224C63.3237 79.2437 63.6169 79.0788 63.9255 78.9138L70.7309 75.395C70.8081 75.4637 70.8698 75.5187 70.9161 75.5462C71.5797 75.9311 73.2309 77.8829 74.9438 79.5049C75.0519 79.6011 75.1445 79.6973 75.2525 79.7798Z" fill="#227FBC"/>
</g>
<g style="mix-blend-mode:multiply" opacity="0.5">
<path d="M85.1604 88.8652C83.3394 89.2226 82.0123 87.2433 81.8117 86.7209C81.5956 86.2124 80.824 85.4014 80.3765 85.0028C79.929 84.6042 79.5123 84.1643 79.5123 84.1643L80.1296 87.6556L80.824 91.6143L81.0401 92.8513C81.0401 92.8513 81.3024 94.1709 80.2068 94.3496C79.1111 94.5283 78.8642 93.4149 78.8642 93.4149L78.463 92.0266L77.8611 89.8961L76.642 86.2674L76.2716 86.3636L77.6296 92.1778L77.8303 93.0438C77.8303 93.0438 78.3704 94.7619 77.1204 95.0231C75.8858 95.2843 75.4846 93.9785 75.4229 93.6348C75.4075 93.5249 75.284 93.1125 75.1297 92.6177C74.8056 91.573 74.3272 90.116 74.3272 90.116L73.2933 86.8721L72.9692 86.9409L74.2192 92.7826L74.2964 93.1125C74.2964 93.1125 75.1914 94.9544 73.7254 95.2018C72.2748 95.4492 71.9507 93.6898 71.9507 93.6898L71.7964 93.195L70.1298 87.6281L69.8057 87.6831L70.994 92.5764C70.994 92.5764 71.0865 92.9201 71.102 93.3049C71.102 93.7723 70.994 94.3221 70.423 94.3908C69.6977 94.5008 69.3427 93.9372 69.2039 93.5936C69.1267 93.4286 69.1113 93.3187 69.1113 93.3187C69.1113 93.3187 67.028 88.1367 66.4879 86.7484C66.2101 86.0062 66.0712 84.7141 66.0249 83.4358C70.4847 81.7177 74.8828 80.2057 78.0772 78.7212C78.4167 79.0373 78.7562 79.326 79.0802 79.5871C81.179 81.2503 83.3086 84.1093 83.4783 84.508C83.6326 84.9066 85.1141 86.7209 85.1141 86.7209C85.1141 86.7209 86.935 88.5078 85.1141 88.8652H85.1604Z" fill="#F09471"/>
</g>
<path d="M86.533 87.3931C86.533 87.3931 85.3911 85.3863 85.2985 84.9739C85.2059 84.5616 83.601 81.4414 81.8263 79.5033C80.0516 77.5652 78.1844 74.3076 77.4437 73.7028C76.7029 73.098 71.703 64.4522 69.5426 58.3218C67.3821 52.1914 63.2155 46.6796 61.4717 44.7002C61.4717 44.7002 62.4748 42.9134 62.9995 38.941C62.3668 39.7794 61.4871 40.343 60.2989 40.6179C56.5335 42.2948 49.5583 42.1986 47.8608 38.1987C47.9226 40.0681 48.0152 41.8 47.9689 42.8584C47.8763 45.3188 47.6911 48.8651 49.6355 51.4217C51.5799 53.9783 67.1506 73.0843 68.8173 74.6375C68.8173 74.6375 69.2339 77.2628 68.8173 78.6648C68.4006 80.0669 67.8451 83.3657 68.1228 84.809C68.4006 86.2522 69.558 91.6679 69.558 91.6679C69.558 91.6679 69.6043 92.905 70.6691 92.905C71.7339 92.905 71.5487 91.1868 71.5487 91.1868L71.2246 86.1835H71.5641L72.2894 92.4101C72.2894 92.4101 72.2894 94.1833 73.7709 94.142C75.2523 94.1008 74.6968 92.1627 74.6968 92.1627L74.4653 85.8949H74.8048L75.2523 89.2212C75.2523 89.2212 75.7153 92.5064 75.7153 92.85C75.7153 93.1936 75.885 94.5406 77.1505 94.4582C78.4313 94.3757 78.1998 92.6026 78.1998 92.6026L77.8295 85.7986L78.2153 85.7574L78.7708 89.5099L79.1412 93.1249C79.1412 93.1249 79.1875 94.2657 80.2985 94.2383C81.4096 94.2245 81.3788 92.8775 81.3788 92.8775V84.0805C81.3788 84.0805 81.7028 84.5753 82.0886 85.0289C82.459 85.4825 83.0917 86.3897 83.1997 86.9258C83.3232 87.4618 84.28 89.6061 86.1318 89.4961C87.999 89.3999 86.5176 87.3794 86.5176 87.3794L86.533 87.3931Z" fill="#FFD2BA"/>
<g style="mix-blend-mode:multiply" opacity="0.3">
<path d="M115.098 52.4121C114.311 55.6285 113 59.7658 111.703 62.3225C111.102 63.5046 110.145 65.5114 109.095 67.7656C105.068 69.1676 99.8363 71.0095 97.4443 71.9442C98.0153 69.4838 98.54 66.7347 98.6172 64.6042C98.6635 63.4496 98.756 62.1438 98.8795 60.8105L111.657 54.199L115.098 52.4259V52.4121Z" fill="#227FBC"/>
</g>
<g style="mix-blend-mode:multiply" opacity="0.5">
<path d="M110.314 91.9986C110.591 93.6481 110.684 95.2975 110.684 95.2975C110.684 95.2975 110.699 96.5071 109.866 96.4796C109.048 96.4658 108.724 96.1772 108.493 95.6961C108.523 95.8473 108.801 97.4143 107.675 97.5929C106.502 97.7854 106.224 96.6858 106.147 95.7373C106.085 94.7752 104.835 90.7753 104.835 90.7753C104.835 90.7753 105.375 95.4349 105.375 95.9848C105.375 96.5346 105.545 97.5792 104.419 97.6892C103.292 97.7991 102.86 96.8095 102.767 96.0672C102.675 95.325 102.443 92.6996 102.366 92.2735C102.289 91.8474 101.409 89.5382 101.409 89.5382C101.409 89.5382 101.487 92.4522 101.487 92.6859C101.487 92.9196 101.872 95.6686 101.826 95.9573C101.78 96.2459 102.011 96.9882 100.746 97.0019C99.4958 97.0294 99.3724 94.5965 99.3724 94.5965C99.3724 94.5965 98.6316 90.9265 98.5236 90.5554C98.4465 90.3492 98.1378 89.3733 97.5668 88.7135C97.0885 88.1637 96.4557 87.8201 95.6224 88.3011C95.6224 88.3011 95.0515 88.741 94.7274 89.2083C94.6657 89.2908 94.6348 89.3595 94.5885 89.442C94.3416 89.9781 93.1225 91.5588 91.8416 91.5725C90.7305 91.5863 90.0824 90.899 90.4528 89.9643C90.5145 89.8131 90.5917 89.6619 90.6997 89.497C91.5021 88.3286 91.8725 86.5142 92.1348 86.1294C92.3972 85.7308 94.7891 83.1192 95.1132 82.7755C95.4527 82.4182 98.6471 77.2087 98.6471 77.2087C98.6471 77.2087 99.5576 74.3359 100.36 70.9271C102.767 70.0062 107.999 68.1506 112.011 66.7485C109.403 72.2879 106.162 79.3392 106.162 79.3392C106.162 79.3392 106.564 80.1914 107.011 81.1948C107.397 82.0883 107.814 83.0779 108.014 83.6827C108.446 84.9885 110.036 90.3492 110.314 92.0124V91.9986Z" fill="#F09471"/>
</g>
<path d="M76.6724 15.7395C76.9039 23.9454 80.947 29.9246 88.7247 29.9246C92.5209 29.9246 99.172 26.5708 99.6967 17.5126C100.221 8.67442 97.7523 2.14541 87.7216 1.93923C85.3605 1.89799 83.0766 2.18664 81.3483 3.65739C77.9533 6.5439 76.4718 9.14176 76.657 15.7395H76.6724Z" fill="#FFD2BA"/>
<path d="M87.3045 31.1213C87.752 31.465 88.431 31.5062 88.9711 31.3275C89.5267 31.1488 89.9588 30.7502 90.2828 30.3104C90.6069 29.8705 90.8075 29.3757 91.0236 28.8809C89.5884 29.1145 88.0915 29.087 86.6409 29.0183C86.4094 29.0183 86.1162 28.8946 86.0545 29.1283C86.0082 29.307 86.3169 29.5956 86.394 29.7468C86.6718 30.2142 86.8107 30.7777 87.2891 31.1351L87.3045 31.1213Z" fill="#FFD2BA"/>
<path d="M74.8513 11.9461C74.7587 11.9324 74.6353 11.9324 74.5581 11.9873C74.4964 12.0286 74.4809 12.1111 74.4655 12.1798C74.0643 13.733 74.126 15.3824 74.6198 16.9082C74.6816 17.1143 74.7742 17.3205 74.9439 17.4717C75.0982 17.5954 75.3297 17.6504 75.5457 17.6916C75.8698 17.7466 76.2247 17.7466 76.5025 17.6092C76.9655 17.3892 77.1198 16.8669 77.1661 16.3996C77.2895 15.0663 76.6723 12.276 74.8513 11.9599V11.9461Z" fill="#FFD2BA"/>
<path d="M99.773 10.8467C99.8965 10.6406 100.113 10.4069 100.39 10.4481C100.653 10.4894 100.776 10.7505 100.838 10.9842C101.116 12.0288 101.085 13.1147 101.054 14.1869C101.023 15.204 99.7576 17.0184 99.2484 15.204C98.878 13.8432 99.0169 12.0701 99.773 10.8467Z" fill="#FFD2BA"/>
<path d="M88.2154 0.936035C88.2154 0.936035 73.2619 1.14221 75.1755 15.9184C77.6755 35.2443 101.194 30.4059 100.407 15.4923C99.7121 2.31056 94.635 1.9257 88.2154 0.936035Z" fill="black"/>
<path d="M108.678 41.9928C108.986 43.2024 109.202 43.9722 109.202 43.9722C109.202 43.9722 110.422 46.2676 109.202 48.5493C107.983 50.8311 106.039 58.4597 105.329 63.4767C104.619 68.5075 101.039 76.7959 101.039 76.7959C101.039 76.7959 97.3045 81.7167 96.9341 82.0466C96.5638 82.3765 93.9249 84.7682 93.6163 85.1393C93.3076 85.5104 92.7521 87.2698 91.8416 88.3694C90.9157 89.469 91.4713 90.445 92.7675 90.5412C94.0484 90.6374 95.4218 89.1666 95.7304 88.6581C96.0391 88.1495 96.8878 87.5997 96.8878 87.5997C98.8322 86.72 99.4649 89.7027 99.5421 90.0876C99.6347 90.4725 99.9742 94.1837 99.9742 94.1837C99.9742 94.1837 99.8353 96.6166 101.085 96.6853C102.335 96.7678 102.196 95.9981 102.274 95.7231C102.335 95.4482 102.243 92.6717 102.274 92.438C102.304 92.2044 102.536 89.2904 102.536 89.2904C102.536 89.2904 103.169 91.6545 103.199 92.0944C103.23 92.5342 103.184 95.1596 103.199 95.9018C103.215 96.6441 103.554 97.6612 104.681 97.6475C105.807 97.6337 105.761 96.5891 105.807 96.0393C105.854 95.4757 105.807 90.8023 105.807 90.8023C105.807 90.8023 106.641 94.8984 106.61 95.8606C106.579 96.8228 106.733 97.9361 107.937 97.8399C109.125 97.7437 108.94 96.0118 108.94 96.0118C109.11 96.5066 109.403 96.8228 110.221 96.9052C111.039 96.9877 111.162 95.7919 111.162 95.7919C111.162 95.7919 111.239 94.1562 111.131 92.4793C111.023 90.8023 110.005 85.3455 109.712 83.9984C109.418 82.6514 108.323 79.5175 108.323 79.5175C108.323 79.5175 116.131 66.1708 118.616 62.2671C121.1 58.3635 124.063 50.4462 124.202 48.5219C124.295 47.2985 123.955 43.6148 123.569 40.3159C119.218 43.4224 113.6 44.9343 108.693 41.9654L108.678 41.9928Z" fill="#FFD2BA"/>
<path d="M120.915 27.5608C120.637 26.6261 121.471 24.097 119.526 17.5954C117.582 11.0939 106.996 8.31738 106.996 8.31738C106.996 8.31738 107.073 25.8839 106.872 30.6535C106.718 34.0211 107.937 39.4504 108.678 42.3644C113.601 45.3334 119.202 43.8214 123.554 40.715C123.338 38.8319 123.107 37.0863 122.937 35.9866C122.443 32.9489 121.193 28.4955 120.915 27.5608Z" fill="#FF0000"/>
</svg>
