<svg width="346" height="386" viewBox="0 0 346 386" fill="none" xmlns="http://www.w3.org/2000/svg">
<path d="M161.25 184.191L1.5 353.691V353.841C3.22857 360.262 6.41753 366.197 10.818 371.182C15.2185 376.167 20.7115 380.068 26.8682 382.58C33.0249 385.092 39.6788 386.147 46.3107 385.664C52.9426 385.18 59.373 383.17 65.1 379.791L65.55 379.491L245.25 275.841L161.25 184.191Z" fill="#EA4335"/>
<path d="M322.8 155.392L322.65 155.242L245.1 110.242L157.65 188.092L245.4 275.842L322.65 231.292C329.483 227.593 335.192 222.12 339.175 215.449C343.158 208.778 345.269 201.157 345.284 193.387C345.3 185.617 343.219 177.987 339.262 171.3C335.305 164.614 329.618 159.118 322.8 155.392Z" fill="#FBBC04"/>
<path d="M1.50001 32.0898C0.600006 35.6898 0 39.2898 0 43.1898V342.74C0 346.64 0.450006 350.24 1.50001 353.84L166.65 188.69L1.50001 32.0898Z" fill="#4285F4"/>
<path d="M162.45 192.892L245.1 110.242L65.55 6.14188C59.8103 2.70982 53.3541 0.652773 46.6868 0.131733C40.0196 -0.389307 33.3222 0.639829 27.119 3.13855C20.9157 5.63728 15.375 9.53777 10.9305 14.5348C6.48594 19.5317 3.25822 25.4896 1.5 31.9419L162.45 192.892Z" fill="#34A853"/>
</svg>
