<svg width="603" height="281" viewBox="0 0 603 281" fill="none" xmlns="http://www.w3.org/2000/svg">
<g filter="url(#filter0_d_493_6345)">
<path d="M147.019 69L117.619 216H90.3191L115.099 91.89H83.8091L88.4291 69H147.019ZM210.95 218.1C194.99 218.1 182.39 213.27 173.15 203.61C164.05 193.95 159.5 180.51 159.5 163.29C159.5 145.93 162.65 129.9 168.95 115.2C175.25 100.36 184.07 88.6 195.41 79.92C206.89 71.24 220.05 66.9 234.89 66.9C250.85 66.9 263.38 71.73 272.48 81.39C281.58 91.05 286.13 104.49 286.13 121.71C286.13 139.07 282.98 155.17 276.68 170.01C270.38 184.71 261.49 196.4 250.01 205.08C238.67 213.76 225.65 218.1 210.95 218.1ZM213.26 194.37C222.5 194.37 230.55 190.66 237.41 183.24C244.27 175.82 249.52 166.51 253.16 155.31C256.8 144.11 258.62 133.12 258.62 122.34C258.62 111.98 256.31 104.14 251.69 98.82C247.21 93.36 240.84 90.63 232.58 90.63C223.34 90.63 215.22 94.34 208.22 101.76C201.22 109.18 195.9 118.49 192.26 129.69C188.62 140.89 186.8 151.88 186.8 162.66C186.8 173.16 189.11 181.07 193.73 186.39C198.35 191.71 204.86 194.37 213.26 194.37ZM352.163 218.1C336.203 218.1 323.603 213.27 314.363 203.61C305.263 193.95 300.713 180.51 300.713 163.29C300.713 145.93 303.863 129.9 310.163 115.2C316.463 100.36 325.283 88.6 336.623 79.92C348.103 71.24 361.263 66.9 376.103 66.9C392.063 66.9 404.593 71.73 413.693 81.39C422.793 91.05 427.343 104.49 427.343 121.71C427.343 139.07 424.193 155.17 417.893 170.01C411.593 184.71 402.703 196.4 391.223 205.08C379.883 213.76 366.863 218.1 352.163 218.1ZM354.473 194.37C363.713 194.37 371.763 190.66 378.623 183.24C385.483 175.82 390.733 166.51 394.373 155.31C398.013 144.11 399.833 133.12 399.833 122.34C399.833 111.98 397.523 104.14 392.903 98.82C388.423 93.36 382.053 90.63 373.793 90.63C364.553 90.63 356.433 94.34 349.433 101.76C342.433 109.18 337.113 118.49 333.473 129.69C329.833 140.89 328.013 151.88 328.013 162.66C328.013 173.16 330.323 181.07 334.943 186.39C339.563 191.71 346.073 194.37 354.473 194.37ZM493.377 218.1C477.417 218.1 464.817 213.27 455.577 203.61C446.477 193.95 441.927 180.51 441.927 163.29C441.927 145.93 445.077 129.9 451.377 115.2C457.677 100.36 466.497 88.6 477.837 79.92C489.317 71.24 502.477 66.9 517.317 66.9C533.277 66.9 545.807 71.73 554.907 81.39C564.007 91.05 568.557 104.49 568.557 121.71C568.557 139.07 565.407 155.17 559.107 170.01C552.807 184.71 543.917 196.4 532.437 205.08C521.097 213.76 508.077 218.1 493.377 218.1ZM495.687 194.37C504.927 194.37 512.977 190.66 519.837 183.24C526.697 175.82 531.947 166.51 535.587 155.31C539.227 144.11 541.047 133.12 541.047 122.34C541.047 111.98 538.737 104.14 534.117 98.82C529.637 93.36 523.267 90.63 515.007 90.63C505.767 90.63 497.647 94.34 490.647 101.76C483.647 109.18 478.327 118.49 474.687 129.69C471.047 140.89 469.227 151.88 469.227 162.66C469.227 173.16 471.537 181.07 476.157 186.39C480.777 191.71 487.287 194.37 495.687 194.37Z" fill="white"/>
</g>
<g filter="url(#filter1_d_493_6345)">
<path d="M43.8232 163.707C43.2536 168.997 41.1987 173.269 37.6587 176.524C34.1187 179.78 28.8086 181.936 21.7285 182.994L48.1567 214H35.3394L8.97217 183.177L10.1929 174.266H15.8081C17.8019 174.266 19.5516 174.185 21.0571 174.022C22.5627 173.859 23.8647 173.635 24.9634 173.351C26.1027 173.025 27.0793 172.639 27.8931 172.191C28.7069 171.703 29.4596 171.153 30.1514 170.543C31.9417 168.834 33.1014 166.555 33.6304 163.707H8.97217V154.796H33.5083C33.1828 153.209 32.6538 151.866 31.9214 150.768C31.2297 149.628 30.3141 148.611 29.1748 147.716C28.0355 146.821 26.5299 146.17 24.6582 145.763C22.8271 145.356 20.3654 145.152 17.2729 145.152H8.97217V136.241H61.7065V145.152H38.269C39.6932 146.17 40.8732 147.512 41.8091 149.181C42.745 150.849 43.396 152.721 43.7622 154.796H61.7065V163.707H43.8232Z" fill="white"/>
</g>
<defs>
<filter id="filter0_d_493_6345" x="83.8096" y="66.9004" width="494.748" height="162.199" filterUnits="userSpaceOnUse" color-interpolation-filters="sRGB">
<feFlood flood-opacity="0" result="BackgroundImageFix"/>
<feColorMatrix in="SourceAlpha" type="matrix" values="0 0 0 0 0 0 0 0 0 0 0 0 0 0 0 0 0 0 127 0" result="hardAlpha"/>
<feOffset dx="10" dy="11"/>
<feComposite in2="hardAlpha" operator="out"/>
<feColorMatrix type="matrix" values="0 0 0 0 0 0 0 0 0 0 0 0 0 0 0 0 0 0 1 0"/>
<feBlend mode="normal" in2="BackgroundImageFix" result="effect1_dropShadow_493_6345"/>
<feBlend mode="normal" in="SourceGraphic" in2="effect1_dropShadow_493_6345" result="shape"/>
</filter>
<filter id="filter1_d_493_6345" x="8.97266" y="136.242" width="62.7344" height="88.7578" filterUnits="userSpaceOnUse" color-interpolation-filters="sRGB">
<feFlood flood-opacity="0" result="BackgroundImageFix"/>
<feColorMatrix in="SourceAlpha" type="matrix" values="0 0 0 0 0 0 0 0 0 0 0 0 0 0 0 0 0 0 127 0" result="hardAlpha"/>
<feOffset dx="10" dy="11"/>
<feComposite in2="hardAlpha" operator="out"/>
<feColorMatrix type="matrix" values="0 0 0 0 0 0 0 0 0 0 0 0 0 0 0 0 0 0 1 0"/>
<feBlend mode="normal" in2="BackgroundImageFix" result="effect1_dropShadow_493_6345"/>
<feBlend mode="normal" in="SourceGraphic" in2="effect1_dropShadow_493_6345" result="shape"/>
</filter>
</defs>
</svg>
