<svg width="24" height="18" viewBox="0 0 24 18" fill="none" xmlns="http://www.w3.org/2000/svg">
<path d="M19.8964 2.12401H15.669C14.9052 2.12551 14.9337 2.82752 15.669 2.82339H19.8964V3.18227H15.669C14.9094 3.17815 14.9374 3.87978 15.669 3.88165H19.8964V4.2484H15.669C14.9094 4.2484 14.9374 4.94966 15.669 4.94778H19.8964V5.29729H15.669C14.9252 5.30066 14.9374 6.00267 15.669 6.00492H19.8964V6.35517H15.669C14.9252 6.35367 14.9222 7.05455 15.669 7.05455H19.8964V7.40405H15.669C14.9252 7.40555 14.9222 8.10718 15.669 8.10381H19.8964V8.46193H15.669C14.9252 8.45781 14.9222 9.15869 15.669 9.16131H19.8964V9.51007H15.669C14.9252 9.50969 14.9374 10.2121 15.669 10.2098H19.8964V17.0195C19.8988 18.0571 22.4549 18.0384 22.4622 17.0195V1.08376C22.4549 0.609754 21.8236 0.0105001 20.7849 0.00862506H15.669C14.9052 0.00900006 14.9337 0.711005 15.669 0.708005L19.8964 0.71663V1.06538H15.669C14.9064 1.06313 14.935 1.76476 15.669 1.76514H19.8964V2.12401ZM15.3783 14.1969C15.3759 12.9856 13.3397 11.6828 10.9071 12.5266V7.8938L9.33376 0.253127C9.30092 0.0510003 9.02299 0.00337502 8.83628 0C8.6435 0.00337502 8.25731 0.0510003 8.21535 0.253127L6.64993 7.8938V12.5266C4.21728 11.6828 2.24682 12.9938 2.24622 14.1875C2.24682 15.2495 3.57262 16.1217 5.36671 16.1191C7.17417 16.1217 8.47443 15.1441 8.47443 14.1875V9.37507H9.08259V14.1875C9.08259 15.2585 10.4278 16.0512 11.9227 16.1015C11.8978 16.6887 12.2086 17.5265 12.7936 17.8588C13.4796 18.2488 14.2964 17.75 13.9613 17.3439C13.6377 16.9659 13.3203 16.742 13.5781 15.9166C14.6558 15.6091 15.3759 14.9619 15.3783 14.1969ZM5.43604 15.1497C5.02594 15.1497 4.63265 15.0493 4.34267 14.8705C4.05269 14.6917 3.88978 14.4492 3.88978 14.1963C3.88978 13.9434 4.05269 13.7009 4.34267 13.5221C4.63265 13.3433 5.02594 13.2428 5.43604 13.2428C6.27895 13.2458 6.96557 13.6722 6.97165 14.1969C6.97023 14.4483 6.8083 14.6892 6.5209 14.8676C6.23349 15.0459 5.84375 15.1473 5.43604 15.1497ZM10.6486 14.1969C10.65 13.9453 10.812 13.7041 11.0995 13.5256C11.387 13.3471 11.7768 13.2455 12.1848 13.2428C12.5929 13.2453 12.9829 13.3468 13.2703 13.5254C13.5578 13.704 13.7195 13.9452 13.7205 14.1969C13.7198 14.4484 13.5581 14.6896 13.2706 14.8681C12.983 15.0465 12.5928 15.1478 12.1848 15.1497C11.777 15.1474 11.3871 15.046 11.0996 14.8677C10.8121 14.6893 10.65 14.4483 10.6486 14.1969Z" fill="black"/>
</svg>
