<svg width="246" height="214" viewBox="0 0 246 214" fill="none" xmlns="http://www.w3.org/2000/svg">
<g clip-path="url(#clip0_242_4384)">
<path opacity="0.3" d="M241.993 194.791L195.841 170.443L188.901 174.101C188.901 171.372 186.912 168.647 182.962 166.575C177.264 163.565 169.028 162.742 161.902 164.067L162.908 163.54L121.942 141.967L53.6697 115.738L0.490234 143.768L100.415 196.447L102.838 195.162L113.827 200.917L111.377 202.211L130.013 212.035L167.292 192.383L206.879 213.309L241.993 194.791Z" fill="#010101"/>
<path d="M119.651 138.425C88.7673 122.169 56.8124 117.473 56.5816 117.353L25.4893 133.754L108.041 187.968L150.705 165.481C150.705 165.481 150.705 154.77 119.651 138.425Z" fill="#764D2A"/>
<path d="M108.042 187.968L25.4839 144.445V133.739C25.4839 133.739 45.9283 144.566 76.9876 160.916C108.047 177.266 108.042 187.968 108.042 187.968Z" fill="#603B17"/>
<path d="M34.5771 110.43V135.61L42.9175 131.21L42.912 106.03L34.5771 110.43Z" fill="#3C2517"/>
<path d="M30.5938 108.328L30.6487 133.543L34.5771 135.61V110.43L30.5938 108.328Z" fill="#603B17"/>
<path d="M38.9286 103.928L30.5938 108.328L34.5771 110.43L42.912 106.03L38.9286 103.928Z" fill="#764D2A"/>
<path d="M127.898 84.5719C127.898 84.5719 119.8 82.7357 115.514 80.5081L79.3339 61.4434C75.0758 59.2058 70.8562 57.2241 69.9496 57.0435C69.0431 56.8629 66.9992 57.4148 66.9058 57.4599C66.8124 57.5051 62.2246 57.4599 62.2246 57.4599V66.014C62.2246 70.5042 65.708 76.0079 69.9606 78.2505L93.9323 90.8884C98.1849 93.136 102.201 98.6096 102.85 103.06L105.745 122.872C106.393 127.317 109.536 132.329 112.728 134.01C115.921 135.69 119.25 137.221 120.173 137.421C121.096 137.622 123.937 136.634 125.008 136.062C125.848 135.636 126.659 135.166 127.437 134.652C127.695 134.441 127.898 130.167 127.898 125.681V84.5719Z" fill="#595959"/>
<path d="M126.969 85.7708C128.211 85.1136 128.211 84.0399 126.969 83.3877L71.5921 54.2438C70.8913 53.9198 70.1168 53.751 69.3312 53.751C68.5457 53.751 67.7712 53.9198 67.0703 54.2438L63.1529 56.3008C61.9111 56.958 61.9166 58.0317 63.1529 58.6889L118.536 87.8328C119.235 88.1568 120.009 88.3256 120.794 88.3256C121.578 88.3256 122.352 88.1568 123.052 87.8328L126.969 85.7708Z" fill="#858585"/>
<path d="M75.6965 49.2217H75.2954V49.312C75.1539 49.1768 74.9909 49.0618 74.8119 48.9709C74.1524 48.6642 73.4229 48.5044 72.6829 48.5044C71.9428 48.5044 71.2133 48.6642 70.5538 48.9709C70.3741 49.0631 70.2095 49.1779 70.0648 49.312V49.2217H69.6747V58.6838C69.6742 58.6922 69.6742 58.7005 69.6747 58.7089C69.7 58.9503 69.7953 59.1813 69.9507 59.3779C70.1062 59.5746 70.3163 59.7298 70.5593 59.8277C71.2188 60.1343 71.9483 60.2941 72.6884 60.2941C73.4284 60.2941 74.1579 60.1343 74.8174 59.8277C75.0591 59.7287 75.2677 59.573 75.4221 59.3765C75.5765 59.18 75.6712 58.9496 75.6965 58.7089V58.6838V49.2217Z" fill="#3C2517"/>
<path d="M70.5592 50.3457C71.2194 50.65 71.9487 50.8085 72.6882 50.8085C73.4278 50.8085 74.157 50.65 74.8173 50.3457C75.0733 50.2649 75.2953 50.1132 75.4525 49.9118C75.6096 49.7104 75.6941 49.4692 75.6941 49.2219C75.6941 48.9746 75.6096 48.7334 75.4525 48.5319C75.2953 48.3305 75.0733 48.1788 74.8173 48.0981C74.157 47.7938 73.4278 47.6353 72.6882 47.6353C71.9487 47.6353 71.2194 47.7938 70.5592 48.0981C70.3215 48.1966 70.1156 48.3495 69.9616 48.542C69.8076 48.7345 69.7106 48.96 69.6801 49.1968C69.6796 49.2051 69.6796 49.2135 69.6801 49.2219C69.705 49.4634 69.7995 49.6945 69.9539 49.8919C70.1083 50.0893 70.3171 50.2458 70.5592 50.3457Z" fill="#0D8175"/>
<path d="M106.19 65.2967H105.8V65.387C105.654 65.2544 105.49 65.1397 105.311 65.0458C104.651 64.7415 103.922 64.583 103.182 64.583C102.442 64.583 101.713 64.7415 101.053 65.0458C100.876 65.1397 100.714 65.2544 100.569 65.387V65.2967H100.174V74.7839C100.199 75.0253 100.293 75.2565 100.448 75.4539C100.602 75.6513 100.811 75.8078 101.053 75.9077C101.713 76.212 102.442 76.3705 103.182 76.3705C103.922 76.3705 104.651 76.212 105.311 75.9077C105.554 75.8087 105.763 75.6524 105.918 75.4548C106.072 75.2573 106.166 75.0256 106.19 74.7839V65.2967Z" fill="#3C2517"/>
<path d="M101.053 66.4205C101.713 66.7248 102.442 66.8833 103.182 66.8833C103.922 66.8833 104.651 66.7248 105.311 66.4205C105.568 66.341 105.791 66.1901 105.948 65.989C106.106 65.7879 106.191 65.5466 106.191 65.2992C106.191 65.0517 106.106 64.8105 105.948 64.6094C105.791 64.4082 105.568 64.2574 105.311 64.1779C104.652 63.8713 103.922 63.7114 103.182 63.7114C102.442 63.7114 101.712 63.8713 101.053 64.1779C100.816 64.2756 100.61 64.4276 100.456 64.6192C100.302 64.8109 100.205 65.0356 100.174 65.2716V65.2967C100.199 65.5382 100.293 65.7693 100.448 65.9667C100.602 66.1641 100.811 66.3206 101.053 66.4205Z" fill="#0D8175"/>
<path d="M118.442 69.5359V66.3952H113.8L71.5924 44.1447C70.8916 43.8207 70.1171 43.6519 69.3315 43.6519C68.546 43.6519 67.7714 43.8207 67.0706 44.1447L66.7409 44.3203H62.2246V47.4008C62.251 47.6574 62.3514 47.903 62.5154 48.1127C62.6795 48.3224 62.9014 48.4888 63.1586 48.5948L109.08 72.802C109.78 73.1259 110.554 73.2947 111.338 73.2947C112.123 73.2947 112.897 73.1259 113.596 72.802L117.514 70.7349C117.773 70.6304 117.996 70.4637 118.16 70.2526C118.323 70.0414 118.421 69.7937 118.442 69.5359Z" fill="#603B17"/>
<path d="M117.514 67.5844C118.755 66.9271 118.75 65.8585 117.514 65.2063L71.5921 40.9941C70.8905 40.6724 70.1163 40.5049 69.3312 40.5049C68.5461 40.5049 67.7719 40.6724 67.0703 40.9941L63.1529 43.0611C61.9111 43.7133 61.9166 44.787 63.1529 45.4442L109.074 69.6514C109.774 69.9753 110.548 70.1442 111.333 70.1442C112.117 70.1442 112.891 69.9753 113.591 69.6514L117.514 67.5844Z" fill="#764D2A"/>
<path d="M76.9819 160.911L60.999 152.482L50.7686 107.419L89.0255 127.593L76.9819 160.911Z" fill="#603B17"/>
<path d="M119.651 138.42L76.9819 160.911L89.0255 127.593L131.689 105.097L119.651 138.42Z" fill="#3C2517"/>
<path d="M141.458 111.182L100.415 132.811L98.0913 129.138L40.7086 98.9558C40.0523 98.5645 39.506 98.0377 39.1138 97.4181C38.7215 96.7985 38.4943 96.1033 38.4504 95.3887V95.0375L36.1978 91.4654L77.1744 69.8922C77.4299 69.7816 77.7135 69.7362 77.995 69.761C78.2765 69.7857 78.5455 69.8796 78.7732 70.0327L139.859 102.142C140.516 102.533 141.063 103.061 141.456 103.681C141.848 104.302 142.075 104.998 142.117 105.714V109.848C142.149 110.104 142.104 110.363 141.988 110.598C141.872 110.832 141.689 111.034 141.458 111.182Z" fill="#595959"/>
<path d="M101.08 131.476C101.08 132.785 100.058 133.317 98.8168 132.665L37.7309 100.556C37.0736 100.164 36.5262 99.6367 36.133 99.0162C35.7398 98.3957 35.5118 97.6996 35.4673 96.9839V92.8549C35.4673 91.5454 36.4892 91.0136 37.7255 91.6658L98.8168 123.775C99.4742 124.167 100.022 124.694 100.415 125.315C100.808 125.935 101.036 126.631 101.08 127.347V131.476Z" fill="#2C2C2C"/>
<path d="M150.43 113.906L150.304 114.102L150.249 114.072C150.283 114.188 150.3 114.308 150.298 114.428C150.273 114.857 150.137 115.274 149.902 115.647C149.667 116.019 149.34 116.335 148.947 116.571C148.832 116.629 148.71 116.674 148.584 116.706L148.639 116.736L148.513 116.932L138.227 111.548C138.09 111.458 137.981 111.337 137.911 111.196C137.842 111.055 137.814 110.899 137.832 110.746C137.857 110.316 137.993 109.898 138.228 109.525C138.462 109.152 138.79 108.835 139.183 108.598C139.321 108.51 139.482 108.456 139.649 108.441C139.817 108.426 139.985 108.451 140.139 108.513L150.43 113.906Z" fill="#313133"/>
<path d="M148.117 116.134C148.141 115.705 148.276 115.287 148.511 114.915C148.746 114.542 149.074 114.226 149.469 113.992C149.598 113.886 149.76 113.82 149.933 113.804C150.105 113.787 150.279 113.821 150.429 113.9C150.58 113.979 150.699 114.099 150.77 114.244C150.841 114.388 150.861 114.549 150.826 114.704C150.801 115.134 150.665 115.553 150.429 115.926C150.193 116.3 149.864 116.617 149.469 116.852C149.334 116.94 149.177 116.994 149.013 117.011C148.848 117.028 148.682 117.006 148.529 116.947C148.385 116.859 148.27 116.737 148.198 116.593C148.125 116.45 148.097 116.291 148.117 116.134Z" fill="#141416"/>
<path d="M170.638 126.584L153.238 135.73L150.914 132.058L140.557 126.675C139.902 126.282 139.357 125.754 138.965 125.133C138.574 124.513 138.348 123.817 138.304 123.103V122.751L136.052 119.184L153.392 110.063C153.649 109.958 153.932 109.915 154.213 109.941C154.493 109.966 154.761 110.059 154.991 110.209L169.056 117.554C169.713 117.946 170.26 118.473 170.652 119.094C171.044 119.714 171.271 120.41 171.314 121.126V125.25C171.344 125.507 171.297 125.767 171.178 126.002C171.059 126.237 170.872 126.438 170.638 126.584Z" fill="#161616"/>
<path d="M153.903 134.411C153.903 135.721 152.886 136.252 151.645 135.6L137.574 128.255C136.918 127.862 136.372 127.335 135.98 126.714C135.588 126.094 135.36 125.398 135.315 124.683V120.559C135.315 119.245 136.332 118.708 137.574 119.365L151.667 126.7C152.325 127.091 152.872 127.619 153.266 128.239C153.659 128.86 153.887 129.556 153.93 130.272L153.903 134.411Z" fill="#2C2C2C"/>
<path d="M77.493 69.6912L61.1584 8.61897C60.7738 7.16905 59.5101 5.80943 58.3068 5.60875L54.4278 4.90636C54.2199 4.85883 54.0017 4.86459 53.7972 4.92302C53.5926 4.98144 53.4097 5.09025 53.2685 5.23749L12.1875 26.8107L35.5548 93.6475L77.0315 71.7683C77.5479 71.4221 77.7622 70.6595 77.493 69.6912Z" fill="#595959"/>
<path d="M30.8739 93.0107C29.6927 92.795 28.4125 91.4354 28.0224 90.0005L11.6768 28.9182C11.2922 27.4683 11.9405 26.4548 13.1218 26.6706L17.0008 27.3729C18.1821 27.5837 19.4622 28.9433 19.8523 30.3832L36.1979 91.4655C36.5825 92.9154 35.9342 93.9288 34.7529 93.7131L30.8739 93.0107Z" fill="#2C2C2C"/>
<path d="M112.415 43.7684C112.415 43.7684 109.223 42.6346 107.064 43.8387C105.377 44.7869 101.503 47.2603 100.773 47.5663C96.0806 47.9075 88.1358 48.3991 83.6304 49.3524C81.7735 49.7643 79.9605 50.3267 78.213 51.0331L78.1196 54.9564C78.1196 54.9564 81.4162 58.3078 84.6359 58.0669C90.8884 57.6104 96.8113 52.6134 101.053 52.3074C102.839 54.2791 108.311 51.6301 108.311 51.6301C108.311 51.6301 108.69 52.5432 110.217 52.5432C112.805 52.5432 114.399 46.3923 114.399 46.3923L113.849 45.8154L112.415 43.7684Z" fill="#F0C7B5"/>
<path d="M56.752 24.538C65.0924 21.0261 71.3449 35.1089 71.3449 35.1089C71.3449 35.1089 79.6249 43.9138 83.6302 49.3522C80.5205 51.1182 78.1359 54.9563 78.1359 54.9563C78.1359 54.9563 66.0045 44.4205 56.7081 34.3162C55.6532 33.0068 50.2578 27.2673 56.752 24.538Z" fill="#AC1E3C"/>
<path d="M111.129 45.3135C111.017 45.2532 110.925 45.1664 110.862 45.0622C110.799 44.958 110.768 44.8403 110.772 44.7215C110.772 44.3452 110.855 43.8585 111.272 43.7181C111.69 43.5776 112.635 43.8335 112.877 43.9388L112.954 43.5475C112.91 43.5475 111.822 43.0458 110.998 43.3719C110.728 43.4982 110.508 43.6979 110.369 43.9432C110.229 44.1886 110.176 44.4676 110.217 44.7415C110.216 44.9219 110.265 45.0996 110.362 45.257C110.458 45.4145 110.598 45.5464 110.767 45.6396C111.403 45.9372 112.114 46.0757 112.827 46.0409H113.97L113.64 45.6045C113.64 45.6045 111.904 45.775 111.129 45.3135Z" fill="white"/>
<path d="M111.129 45.685C111.017 45.6247 110.925 45.538 110.862 45.4338C110.799 45.3296 110.768 45.2119 110.772 45.093C110.772 44.7168 110.855 44.2351 111.272 44.0646C111.69 43.894 112.723 44.2151 112.954 44.3104V43.899C112.349 43.6165 111.65 43.5537 110.998 43.7234C110.728 43.8497 110.508 44.0494 110.369 44.2947C110.229 44.5401 110.176 44.8191 110.217 45.093C110.213 45.2732 110.261 45.4513 110.358 45.6084C110.455 45.7655 110.596 45.896 110.767 45.9861C111.4 46.2916 112.112 46.4339 112.827 46.3975H113.97L113.64 45.956C113.64 45.956 111.904 46.1516 111.129 45.685Z" fill="#C0BFBF"/>
<path d="M120.497 47.3106C119.798 46.9867 119.026 46.8179 118.242 46.8179C117.458 46.8179 116.685 46.9867 115.986 47.3106C114.745 47.9628 114.745 49.0314 115.986 49.6887C116.686 50.0103 117.459 50.1778 118.242 50.1778C119.025 50.1778 119.798 50.0103 120.497 49.6887C121.75 49.0314 121.75 47.9628 120.497 47.3106Z" fill="white"/>
<path d="M118.245 48.3992C118.971 48.3927 119.689 48.2547 120.357 47.993C121.025 47.7314 121.63 47.3513 122.135 46.8749C122.641 46.3985 123.039 45.8352 123.305 45.2176C123.57 44.6 123.699 43.9403 123.684 43.2769H112.805C112.783 44.6146 113.344 45.9056 114.364 46.8662C115.384 47.8267 116.78 48.3781 118.245 48.3992Z" fill="#C0BFBF"/>
<path d="M122.145 45.8154C120.937 46.3743 119.602 46.6656 118.247 46.6656C116.893 46.6656 115.557 46.3743 114.349 45.8154C113.798 45.5478 113.336 45.1513 113.008 44.6665C113.142 45.1218 113.346 45.5575 113.613 45.9609C113.838 46.1512 114.085 46.3193 114.349 46.4626C115.557 47.0231 116.892 47.3152 118.247 47.3152C119.602 47.3152 120.938 47.0231 122.145 46.4626C122.407 46.3182 122.652 46.1501 122.876 45.9609C123.143 45.5575 123.347 45.1218 123.48 44.6665C123.154 45.15 122.693 45.5463 122.145 45.8154Z" fill="#15A89F"/>
<path d="M122.09 41.2095C120.899 40.6577 119.581 40.3701 118.244 40.3701C116.908 40.3701 115.59 40.6577 114.398 41.2095C112.272 42.3283 112.272 44.1495 114.398 45.2733C115.59 45.8251 116.908 46.1127 118.244 46.1127C119.581 46.1127 120.899 45.8251 122.09 45.2733C124.195 44.1495 124.195 42.3283 122.09 41.2095Z" fill="white"/>
<path d="M121.706 41.4153C120.634 40.9182 119.449 40.6592 118.247 40.6592C117.045 40.6592 115.86 40.9182 114.788 41.4153C113.552 42.0625 113.14 42.9656 113.47 43.7984C113.741 43.2549 114.206 42.8111 114.788 42.5391C115.86 42.0421 117.045 41.783 118.247 41.783C119.449 41.783 120.634 42.0421 121.706 42.5391C122.287 42.8114 122.75 43.2552 123.019 43.7984C123.376 42.9656 122.937 42.0625 121.706 41.4153Z" fill="#AEAEAE"/>
<path d="M121.706 42.5393C120.634 42.0423 119.449 41.7832 118.247 41.7832C117.045 41.7832 115.86 42.0423 114.788 42.5393C114.206 42.8113 113.741 43.2551 113.47 43.7986C113.735 44.3458 114.202 44.7912 114.788 45.0579C115.86 45.5549 117.045 45.814 118.247 45.814C119.449 45.814 120.634 45.5549 121.706 45.0579C122.291 44.7913 122.756 44.3457 123.019 43.7986C122.749 43.2555 122.287 42.8116 121.706 42.5393Z" fill="#7A441C"/>
<path d="M119.151 43.3773C118.881 43.256 118.584 43.1929 118.283 43.1929C117.982 43.1929 117.685 43.256 117.415 43.3773C116.931 43.6381 116.931 44.0445 117.415 44.3004C117.684 44.424 117.982 44.4883 118.283 44.4883C118.584 44.4883 118.882 44.424 119.151 44.3004C119.635 44.0445 119.635 43.6381 119.151 43.3773Z" fill="#FBB163"/>
<path d="M117.942 43.8138C117.975 43.8261 118.009 43.8324 118.044 43.8324C118.079 43.8324 118.114 43.8261 118.146 43.8138C118.158 43.8091 118.168 43.8014 118.175 43.7916C118.182 43.7818 118.186 43.7703 118.186 43.7586C118.186 43.7469 118.182 43.7354 118.175 43.7256C118.168 43.7158 118.158 43.7081 118.146 43.7034C118.115 43.6885 118.08 43.6807 118.044 43.6807C118.009 43.6807 117.974 43.6885 117.942 43.7034C117.882 43.7335 117.882 43.7837 117.942 43.8138Z" fill="#7A441C"/>
<path d="M118.481 44.2148C118.547 44.2347 118.618 44.2347 118.685 44.2148C118.745 44.1847 118.745 44.1345 118.685 44.0994C118.653 44.0845 118.618 44.0767 118.583 44.0767C118.547 44.0767 118.512 44.0845 118.481 44.0994C118.42 44.1345 118.42 44.1847 118.481 44.2148Z" fill="#7A441C"/>
<path d="M118.811 43.6981C118.842 43.713 118.877 43.7208 118.912 43.7208C118.948 43.7208 118.983 43.713 119.014 43.6981C119.075 43.668 119.075 43.6178 119.014 43.5877C118.983 43.5727 118.948 43.5649 118.912 43.5649C118.877 43.5649 118.842 43.5727 118.811 43.5877C118.75 43.6027 118.75 43.668 118.811 43.6981Z" fill="#7A441C"/>
<path d="M117.646 43.4974C117.679 43.5124 117.716 43.5202 117.753 43.5202C117.79 43.5202 117.827 43.5124 117.86 43.4974C117.915 43.4673 117.915 43.4221 117.86 43.392C117.827 43.377 117.79 43.3691 117.753 43.3691C117.716 43.3691 117.679 43.377 117.646 43.392C117.636 43.3972 117.627 43.4048 117.621 43.4141C117.615 43.4234 117.612 43.4339 117.612 43.4447C117.612 43.4554 117.615 43.466 117.621 43.4753C117.627 43.4845 117.636 43.4922 117.646 43.4974Z" fill="#7A441C"/>
<path d="M117.47 43.9906C117.488 44.0035 117.511 44.0104 117.534 44.0104C117.557 44.0104 117.58 44.0035 117.598 43.9906C117.626 43.9906 117.626 43.9497 117.598 43.9292C117.578 43.9215 117.556 43.9175 117.534 43.9175C117.512 43.9175 117.49 43.9215 117.47 43.9292C117.442 43.9497 117.442 43.9753 117.47 43.9906Z" fill="#7A441C"/>
<path d="M118.855 44.0409C118.895 44.0512 118.937 44.0512 118.977 44.0409C118.982 44.0366 118.986 44.0315 118.988 44.0257C118.991 44.02 118.992 44.0139 118.992 44.0077C118.992 44.0014 118.991 43.9953 118.988 43.9896C118.986 43.9839 118.982 43.9787 118.977 43.9744C118.958 43.9668 118.937 43.9629 118.916 43.9629C118.895 43.9629 118.874 43.9668 118.855 43.9744C118.847 43.9771 118.841 43.9817 118.837 43.9876C118.832 43.9935 118.83 44.0005 118.83 44.0077C118.83 44.0148 118.832 44.0218 118.837 44.0277C118.841 44.0337 118.847 44.0383 118.855 44.0409Z" fill="#7A441C"/>
<path d="M118.294 43.4387C118.313 43.4485 118.334 43.4537 118.355 43.4537C118.377 43.4537 118.398 43.4485 118.417 43.4387C118.45 43.4387 118.45 43.3977 118.417 43.3772C118.397 43.3696 118.376 43.3657 118.355 43.3657C118.334 43.3657 118.313 43.3696 118.294 43.3772C118.261 43.3977 118.261 43.4233 118.294 43.4387Z" fill="#7A441C"/>
<path d="M117.882 44.2763C117.904 44.2815 117.927 44.2815 117.949 44.2763C117.949 44.2763 117.949 44.2763 117.949 44.2349H117.882C117.882 44.2349 117.865 44.2659 117.882 44.2763Z" fill="#7A441C"/>
<path d="M119.146 43.86H119.212V43.8237H119.146V43.86Z" fill="#7A441C"/>
<path d="M118.701 43.3782C118.709 43.3855 118.72 43.3896 118.731 43.3896C118.742 43.3896 118.753 43.3855 118.761 43.3782C118.761 43.3782 118.761 43.3782 118.761 43.3524C118.752 43.3474 118.741 43.3447 118.731 43.3447C118.72 43.3447 118.71 43.3474 118.701 43.3524C118.701 43.3524 118.701 43.373 118.701 43.3782Z" fill="#7A441C"/>
<path d="M117.415 43.6644H117.482C117.482 43.6644 117.482 43.6385 117.482 43.6282C117.472 43.6232 117.46 43.6206 117.448 43.6206C117.437 43.6206 117.425 43.6232 117.415 43.6282V43.6644Z" fill="#7A441C"/>
<path d="M113.102 44.8569C113.569 46.2165 112.509 46.1613 111.278 46.5928C110.047 47.0243 108.877 46.959 108.652 46.4373C108.426 45.9155 109.245 45.1328 110.47 44.7014C111.695 44.2699 112.75 43.8585 113.102 44.8569Z" fill="#F0C7B5"/>
<path opacity="0.3" d="M143.282 104.309C133.749 102.834 114.86 94.8466 113.723 93.2713C111.866 89.9049 106.651 88.7259 101.437 85.826C93.1354 81.2154 87.4433 76.1733 74.5152 74.4073C73.2899 72.571 72.7295 71.959 68.9329 67.4135C67.1473 66.9419 63.4386 68.0959 63.4386 68.0959L63.1749 69.325L41.835 76.4392C41.835 76.4392 39.0878 93.2312 52.0983 97.3853C61.4991 100.395 66.6033 101.981 77.8942 104.058C89.185 106.135 111.959 120.037 110.816 127.327L117.662 123.775C112.47 116.284 108.151 107.565 105.157 100.927C107.322 102.733 110.201 105.132 113.228 106.632C120.728 110.339 137.178 109.431 137.788 113.114L139.436 112.256L138.172 111.553C138.172 111.553 137.271 111.137 138.172 109.547C139.073 107.956 141.914 105.312 143.282 104.309Z" fill="#010101"/>
<path d="M145.348 102.397C150.639 103.451 157.04 106.105 157.04 106.105C157.04 106.105 162.644 104.725 163.595 106.105C164.375 107.254 161.287 109.757 159.65 111.122C158.012 112.487 154.474 114.132 154.474 114.132C154.474 114.132 153.117 117.735 150.787 117.87C148.458 118.005 146.678 112.13 145.672 111.012C144.667 109.893 142.431 109.948 142.431 109.948L139.475 107.535L140.288 102.844C140.288 102.844 143.81 102.568 145.348 102.397Z" fill="#C8A597"/>
<path d="M71.0097 65.5071C74.8063 70.0525 75.3667 70.6646 76.5919 72.5008C89.5146 74.2668 95.2067 79.3089 103.514 83.9196C108.728 86.8144 113.953 88.0034 115.799 91.3598C116.937 92.9302 135.826 100.917 145.353 102.397C141.54 105.282 142.436 109.923 142.436 109.923C142.436 109.923 122.832 108.418 115.332 104.725C110.937 102.548 106.838 98.4489 104.811 97.0642C102.393 95.4136 80.2127 93.5773 78.1249 92.7947C76.037 92.012 64.2627 82.1787 64.2627 82.1787V72.0894L65.5374 66.1794C65.5374 66.1794 69.2515 65.0355 71.0097 65.5071Z" fill="#1D384E"/>
<path d="M119.739 121.587H124.36C124.36 121.587 128.173 119.425 129.272 119.545C130.37 119.666 130.239 121.592 128.909 123.584C127.579 125.576 124.118 127.924 123.667 128.742C123.217 129.559 123.349 134.401 119.739 134.551C115.893 134.717 115.344 128.997 114.008 127.452C113.146 126.449 114.008 123.965 114.008 123.965L115.723 120.022L119.739 121.587Z" fill="#F0C7B5"/>
<path d="M43.9336 74.5279C43.9336 74.5279 41.1864 91.3249 54.197 95.479C65.735 99.1716 68.9657 94.3904 90.1078 91.3601C92.0418 105.538 104.486 109.075 114.008 127.453C114.558 123.895 119.739 121.588 119.739 121.588C110.096 107.68 103.547 90.5222 102.706 87.6575C101.866 84.7928 95.8714 79.5048 93.8165 79.7758C91.7616 80.0467 77.1412 75.1751 67.1086 75.1751C70.4766 71.5829 70.9986 65.5073 70.9986 65.5073L43.9336 74.5279Z" fill="#1D384E"/>
<path d="M36.8354 22.9877C36.8903 27.5783 35.4673 29.6704 35.4673 29.6704L37.5441 33.1372L44.5714 37.5522H53.8678L54.8897 29.3945L53.2414 26.1986L48.2526 22.185C48.2526 22.185 36.8354 20.4391 36.8354 22.9877Z" fill="#C8A597"/>
<path d="M29.5114 35.8916C33.8245 32.1137 35.4673 29.6704 35.4673 29.6704C35.4673 29.6704 44.8076 36.604 50.258 34.4617C55.7083 32.3194 49.9723 24.4678 49.9723 24.4678C49.9723 24.4678 54.148 25.115 56.7523 24.538C56.7523 24.538 61.1477 25.8625 62.5488 31.6522C67.2794 37.1308 71.01 41.1494 71.01 45.168C71.0135 46.2144 70.7513 47.2473 70.2442 48.1857C69.737 49.1241 68.9987 49.9423 68.087 50.5764C68.087 50.5764 68.5541 61.368 71.01 65.5071C56.7248 78.1098 43.6044 74.9993 43.6044 74.9993C43.6044 74.9993 45.0988 66.38 37.8408 61.373C35.9453 59.0351 32.0608 48.4341 32.0608 48.4341C32.0608 48.4341 29.2147 40.2815 29.5114 35.8916Z" fill="#EE3059"/>
<path d="M68.087 50.5767C68.087 50.5767 48.9668 57.741 49.8129 58.8347C50.659 59.9284 68.087 50.5767 68.087 50.5767Z" fill="#AC1E3C"/>
<path d="M53.7029 17.6099C53.7029 17.6099 51.5052 30.1073 45.8845 30.6893C39.9616 31.3013 35.3464 21.6586 35.2365 19.9478C34.7311 19.6016 34.2695 17.6099 34.2695 17.6099L37.9342 13.1999L46.1098 9.4873L52.8623 10.6111L54.8732 12.7183L53.7029 17.6099Z" fill="#F0C7B5"/>
<path d="M36.0002 18.5526C36.4287 18.6529 36.0002 20.2183 36.0002 20.2183C36.0002 20.2183 41.8241 20.2183 42.978 14.1978C45.4779 14.6243 43.7032 17.8201 43.7032 17.8201C43.7032 17.8201 47.5218 17.9205 48.0602 14.5039C49.269 15.2363 48.9558 16.902 48.9558 16.902C48.9558 16.902 52.0656 17.0676 53.4776 13.7413C53.8842 14.4537 53.7029 17.5893 53.7029 17.5893C54.7285 16.1239 55.3723 14.4632 55.5847 12.735C55.7971 11.0067 55.5725 9.25702 54.9281 7.62049C52.7304 2.01647 48.6151 0.691976 47.4998 0.531431C40.7473 -0.416787 37.9342 2.46299 37.9342 2.46299C37.9342 2.46299 32.2585 1.08331 31.341 8.68912C30.2971 17.3535 35.187 19.9724 35.187 19.9724C35.187 19.9724 34.6046 18.4171 36.0002 18.5526Z" fill="#603B17"/>
<path d="M38.5879 2.96484C43.0163 6.73765 42.5713 12.6878 42.5713 12.6878C41.7376 9.29549 40.3973 6.02387 38.5879 2.96484Z" fill="#3C2517"/>
<path d="M115.327 132.404L115.206 132.6L115.146 132.57C115.182 132.686 115.201 132.806 115.201 132.926C115.175 133.355 115.039 133.773 114.803 134.145C114.567 134.518 114.238 134.834 113.844 135.068C113.73 135.13 113.608 135.177 113.481 135.209L113.541 135.234L113.415 135.435L103.13 130.046C102.991 129.957 102.882 129.835 102.812 129.694C102.743 129.553 102.716 129.397 102.734 129.244C102.76 128.814 102.896 128.396 103.131 128.024C103.367 127.652 103.696 127.335 104.091 127.101C104.227 127.011 104.387 126.955 104.554 126.94C104.721 126.925 104.889 126.951 105.042 127.016L115.327 132.404Z" fill="#313133"/>
<path d="M113.014 134.652C113.041 134.223 113.177 133.805 113.413 133.433C113.649 133.061 113.977 132.745 114.371 132.51C114.507 132.418 114.668 132.361 114.836 132.346C115.005 132.331 115.174 132.358 115.327 132.425C115.465 132.514 115.575 132.636 115.645 132.777C115.714 132.918 115.741 133.073 115.723 133.227C115.696 133.656 115.56 134.073 115.325 134.445C115.091 134.817 114.764 135.134 114.371 135.369C114.236 135.457 114.079 135.511 113.914 135.527C113.75 135.543 113.583 135.52 113.432 135.46C113.288 135.372 113.174 135.251 113.1 135.109C113.027 134.966 112.997 134.809 113.014 134.652Z" fill="#141416"/>
<path d="M146.952 139.097L129.546 148.243L127.228 144.57L116.871 139.182C116.213 138.791 115.665 138.264 115.272 137.643C114.878 137.022 114.651 136.326 114.607 135.61V135.259L112.354 131.692L129.689 122.576C129.945 122.468 130.228 122.424 130.509 122.449C130.79 122.473 131.059 122.566 131.288 122.716L145.353 130.061C146.01 130.453 146.557 130.981 146.949 131.601C147.341 132.222 147.568 132.918 147.612 133.633V137.762C147.642 138.018 147.597 138.277 147.481 138.511C147.365 138.746 147.182 138.948 146.952 139.097Z" fill="#161616"/>
<path d="M130.239 146.908C130.239 148.218 129.222 148.755 127.98 148.097L113.915 140.757C113.259 140.365 112.713 139.837 112.321 139.217C111.928 138.596 111.701 137.9 111.657 137.185V133.056C111.657 131.747 112.673 131.21 113.915 131.867L127.975 139.207C128.633 139.599 129.18 140.126 129.573 140.747C129.967 141.367 130.194 142.063 130.239 142.779V146.908Z" fill="#2C2C2C"/>
<path opacity="0.3" d="M108.564 64.9955C106.647 65.9111 104.479 66.2931 102.328 66.0942L96.0805 62.798C95.7673 61.634 96.4596 60.4099 98.1628 59.5118C100.165 58.5636 102.434 58.1894 104.674 58.4382L110.602 61.5588C111.009 62.7679 110.338 64.0573 108.564 64.9955Z" fill="#010101"/>
<path d="M110.717 61.1626L96.0034 61.2027V61.5188C96.0034 62.5222 96.7287 63.5256 98.1627 64.2631C101.036 65.7682 105.69 65.7682 108.563 64.2631C110.003 63.5055 110.717 62.5122 110.717 61.5188V61.1626Z" fill="#C8C7C6"/>
<path d="M108.564 63.9116C105.69 65.4167 101.036 65.4167 98.163 63.9116C95.2894 62.4065 95.2894 59.9431 98.163 58.428C101.036 56.9129 105.69 56.9229 108.564 58.428C111.437 59.9331 111.437 62.3965 108.564 63.9116Z" fill="white"/>
<path d="M108.899 61.2027C108.855 60.4852 108.316 59.7778 107.284 59.231C106.069 58.667 104.726 58.373 103.363 58.373C102.001 58.373 100.658 58.667 99.4431 59.231C98.4102 59.7778 97.8663 60.4852 97.8223 61.2027C97.7784 60.425 98.3168 59.6373 99.4431 59.0403C100.658 58.4787 102.001 58.186 103.363 58.186C104.725 58.186 106.068 58.4787 107.284 59.0403C108.41 59.6574 108.948 60.425 108.899 61.2027Z" fill="#C8C7C6"/>
<path d="M108.899 61.2028C108.855 61.9202 108.316 62.6277 107.283 63.1745C106.071 63.7313 104.733 64.0208 103.376 64.02C102.019 64.0191 100.682 63.7278 99.4704 63.1695C98.4375 62.6226 97.8936 61.9152 97.8496 61.1978C97.8936 60.4804 98.4375 59.773 99.4704 59.2261C100.685 58.6621 102.028 58.3682 103.391 58.3682C104.753 58.3682 106.096 58.6621 107.311 59.2261C108.316 59.778 108.855 60.4854 108.899 61.2028Z" fill="white"/>
<path d="M78.224 110.831C78.224 110.831 70.0924 109.005 65.8343 106.762L29.6487 87.7529C25.3961 85.5103 21.171 83.5286 20.2699 83.348C19.3689 83.1674 17.3195 83.7142 17.2261 83.7644C17.1327 83.8145 12.5449 83.7644 12.5449 83.7644V92.2933C12.5449 96.8086 16.0283 102.287 20.2809 104.535L44.2526 117.173C48.5052 119.41 52.5216 124.889 53.1699 129.334L56.0654 149.141C56.7137 153.591 59.8565 158.603 63.0487 160.284C66.2409 161.965 69.5924 163.485 70.488 163.666C71.3836 163.846 74.2516 162.873 75.3285 162.306C76.168 161.881 76.979 161.41 77.757 160.896C78.0097 160.685 78.224 156.411 78.224 151.926V110.831Z" fill="#595959"/>
<path d="M77.2844 112.035C78.5316 111.378 78.5316 110.304 77.2844 109.652L21.9126 80.508C21.2118 80.184 20.4373 80.0151 19.6517 80.0151C18.8662 80.0151 18.0917 80.184 17.3908 80.508L13.4789 82.57C12.2317 83.2222 12.2317 84.2958 13.4789 84.9531L68.8561 114.097C69.556 114.421 70.3296 114.59 71.1143 114.59C71.8989 114.59 72.6726 114.421 73.3724 114.097L77.2844 112.035Z" fill="#858585"/>
<path d="M26.0168 75.4863H25.6212V75.5766C25.4779 75.4411 25.3131 75.326 25.1322 75.2354C24.4737 74.9289 23.745 74.769 23.0059 74.769C22.2667 74.769 21.5381 74.9289 20.8796 75.2354C20.7002 75.3261 20.5356 75.4393 20.3906 75.5716V75.4863H20.0005V84.9735C20.0252 85.2144 20.1197 85.445 20.2742 85.6416C20.4286 85.8382 20.6376 85.9937 20.8796 86.0923C21.5381 86.3989 22.2667 86.5587 23.0059 86.5587C23.745 86.5587 24.4737 86.3989 25.1322 86.0923C25.3752 85.9944 25.5853 85.8392 25.7408 85.6425C25.8962 85.4459 25.9915 85.2149 26.0168 84.9735V84.9434V75.4863Z" fill="#3C2517"/>
<path d="M20.9016 76.6098C21.5616 76.9117 22.2896 77.069 23.0279 77.069C23.7661 77.069 24.4941 76.9117 25.1542 76.6098C25.4128 76.5315 25.6378 76.3807 25.7973 76.179C25.9568 75.9773 26.0426 75.7348 26.0426 75.486C26.0426 75.2372 25.9568 74.9947 25.7973 74.793C25.6378 74.5912 25.4128 74.4405 25.1542 74.3622C24.4949 74.0579 23.7665 73.8994 23.0279 73.8994C22.2892 73.8994 21.5608 74.0579 20.9016 74.3622C20.6646 74.4603 20.4592 74.6124 20.3053 74.804C20.1513 74.9955 20.0539 75.22 20.0225 75.4559V75.486C20.0463 75.7278 20.1403 75.9594 20.2948 76.1569C20.4494 76.3545 20.6588 76.5108 20.9016 76.6098Z" fill="#0D8175"/>
<path d="M56.5104 91.5608H56.1203V91.6511C55.9742 91.5186 55.8098 91.4039 55.6313 91.31C54.9711 91.0057 54.2419 90.8472 53.5023 90.8472C52.7627 90.8472 52.0335 91.0057 51.3732 91.31C51.197 91.405 51.033 91.5178 50.8842 91.6461V91.5608H50.4941V101.048C50.518 101.29 50.612 101.521 50.7665 101.719C50.921 101.917 51.1305 102.073 51.3732 102.172C52.0335 102.476 52.7627 102.635 53.5023 102.635C54.2419 102.635 54.9711 102.476 55.6313 102.172C55.8741 102.073 56.0835 101.917 56.2381 101.719C56.3926 101.521 56.4866 101.29 56.5104 101.048V101.018V91.5608Z" fill="#3C2517"/>
<path d="M51.3732 92.6846C52.0335 92.9889 52.7627 93.1475 53.5023 93.1475C54.2419 93.1475 54.9711 92.9889 55.6313 92.6846C55.888 92.6052 56.1109 92.4543 56.2688 92.2532C56.4267 92.052 56.5116 91.8108 56.5116 91.5633C56.5116 91.3159 56.4267 91.0746 56.2688 90.8735C56.1109 90.6724 55.888 90.5215 55.6313 90.442C54.9719 90.1354 54.2423 89.9756 53.5023 89.9756C52.7622 89.9756 52.0327 90.1354 51.3732 90.442C51.1359 90.5397 50.9303 90.6918 50.7763 90.8834C50.6223 91.075 50.5251 91.2997 50.4941 91.5358C50.5132 91.7819 50.605 92.0188 50.7598 92.2211C50.9146 92.4234 51.1266 92.5836 51.3732 92.6846Z" fill="#0D8175"/>
<path d="M68.7628 95.805V92.6593H64.1201L21.9127 70.4038C21.2111 70.0821 20.4369 69.9146 19.6518 69.9146C18.8667 69.9146 18.0925 70.0821 17.3909 70.4038L17.0558 70.5844H12.5449V73.6598C12.5702 73.9167 12.6701 74.1628 12.8343 74.3727C12.9985 74.5826 13.221 74.7487 13.479 74.8539L59.4005 99.061C60.1003 99.385 60.874 99.5538 61.6586 99.5538C62.4433 99.5538 63.2169 99.385 63.9168 99.061L67.8342 96.994C68.0911 96.8894 68.3126 96.724 68.4758 96.515C68.6391 96.3059 68.7382 96.0608 68.7628 95.805Z" fill="#603B17"/>
<path d="M67.8342 93.8485C69.0704 93.1963 69.0704 92.1227 67.8342 91.4704L21.9126 67.2583C21.211 66.9366 20.4368 66.769 19.6517 66.769C18.8666 66.769 18.0924 66.9366 17.3908 67.2583L13.4789 69.3203C12.2317 69.9775 12.2317 71.0511 13.4789 71.7034L59.4004 95.9155C60.101 96.2372 60.8743 96.4047 61.6585 96.4047C62.4427 96.4047 63.2161 96.2372 63.9167 95.9155L67.8342 93.8485Z" fill="#764D2A"/>
<path d="M69.9716 80.9695C63.8289 77.0312 46.8955 79.4644 46.7361 79.5096L46.5933 57.7156C47.2526 57.6203 64.1751 55.3425 70.4881 59.316V80.3022L69.9716 80.9695Z" fill="#0D8175"/>
<path d="M68.0486 78.7521C64.9718 77.538 60.417 77.7237 60.417 77.7237V75.4911C60.417 75.4911 64.8124 75.2703 68.109 76.6801L68.0486 78.7521Z" fill="#D2D3D4"/>
<path d="M68.0486 75.3006C64.9718 74.0815 60.417 74.2671 60.417 74.2671V72.0345C60.417 72.0345 64.8124 71.8138 68.109 73.2236L68.0486 75.3006Z" fill="#EE3059"/>
<path d="M64.2081 63.8166C63.9279 65.0107 62.4444 65.7381 60.9115 65.4371C59.3786 65.1361 58.3346 63.932 58.6149 62.7279C58.8951 61.5238 60.373 60.8014 61.9114 61.1024C63.4499 61.4034 64.4883 62.6176 64.2081 63.8166Z" fill="#D2D3D4"/>
<path d="M62.6583 68.5925C56.5321 67.3684 48.2632 69.1895 48.2632 69.1895V65.0354C48.2632 65.0354 56.1201 62.9283 62.6363 64.4585L62.6583 68.5925Z" fill="#F6851F"/>
<path d="M58.5761 70.74C58.5761 72.6114 56.6146 74.1315 54.1806 74.1315C51.7466 74.1315 49.7852 72.6264 49.7852 70.74C49.7852 68.8536 51.7466 67.3535 54.1806 67.3535C56.6146 67.3535 58.5761 68.8687 58.5761 70.74Z" fill="#EE3059"/>
<path d="M61.4059 72.9573C61.4059 74.1814 60.1202 75.1748 58.5378 75.1748C56.9555 75.1748 55.6753 74.1714 55.6753 72.9573C55.6753 71.7432 56.9555 70.7397 58.5378 70.7397C60.1202 70.7397 61.4059 71.7331 61.4059 72.9573Z" fill="#4DC1B8"/>
<path d="M43.8185 64.4437H46.725C46.725 64.4437 46.8569 58.8497 46.725 58.5236C44.6427 57.6355 43.6372 59.7427 43.6372 59.7427L43.8185 64.4437Z" fill="#F6851F"/>
<path d="M70.4881 59.316C64.3399 55.3826 46.9064 58.4982 46.7361 58.5233L46.5933 57.7155C47.302 57.6102 64.0432 55.207 70.4881 59.316Z" fill="white"/>
<path d="M44.9558 61.4534C43.9503 61.7644 43.1866 59.9834 43.1866 59.9834V80.6285C43.162 80.8821 43.1918 81.1378 43.2745 81.381C43.3595 81.7803 43.6025 82.1371 43.9572 82.3832C44.3119 82.6294 44.7534 82.7477 45.1975 82.7155C46.0206 82.6661 46.8332 82.5193 47.615 82.2791C49.4171 81.8075 51.6588 81.2255 53.7796 82.1737L53.9774 71.347L53.7796 61.2326C53.7796 61.2326 52.3072 59.2158 44.9558 61.4534Z" fill="#2B4F69"/>
<path d="M53.8018 61.2379V82.1789L54.1932 81.4464V60.5054L53.8018 61.2379Z" fill="#BDBEC0"/>
<path d="M45.2195 61.7795C44.7754 61.8117 44.3339 61.6934 43.9793 61.4472C43.6246 61.2011 43.3815 60.8443 43.2965 60.445C43.1858 60.17 43.1505 59.8744 43.1936 59.5841C43.2367 59.2938 43.3569 59.0175 43.5438 58.7793C44.3954 57.7358 46.4338 57.7007 46.6646 57.7007L46.736 58.5185C46.236 58.5185 44.758 58.6589 44.258 59.271C44.1569 59.4082 44.0944 59.5661 44.0762 59.7306C44.0579 59.8952 44.0846 60.0613 44.1537 60.2142C44.4778 61.2176 45.2525 61.1123 47.3953 60.5554C49.3403 60.0537 51.7908 59.4215 54.1973 60.5102L53.8017 61.2377C51.6809 60.2945 49.4392 60.8765 47.637 61.343C46.8553 61.5833 46.0426 61.73 45.2195 61.7795Z" fill="white"/>
<path d="M31.2146 35.6509C23.0775 35.6509 27.4235 49.0464 27.4235 49.0464L28.5224 72.4458L34.2749 71.914C34.2749 71.914 36.6924 71.8538 37.7528 67.4538C37.9946 57.204 37.7528 43.4022 37.7528 43.4022C37.7528 43.4022 38.3627 35.6459 31.2146 35.6509Z" fill="#AC1E3C"/>
<path d="M42.17 66.1797C38.9064 68.0059 30.2693 67.3236 28.5166 72.4359C27.9672 74.1216 31.9616 77.2272 34.3406 77.0466C37.2086 76.8258 38.5108 74.4929 42.181 73.2336C43.615 72.3857 43.9227 66.5108 42.17 66.1797Z" fill="#C8A597"/>
<path d="M43.1866 67.534C43.1866 67.534 47.3678 68.0809 47.7799 69.9874C48.1919 71.8938 46.681 74.0612 46.3294 74.4375C45.9777 74.8137 44.0492 75.3656 43.0328 74.8188C42.0163 74.2719 40.835 72.7467 40.1702 70.4891C39.1318 66.9771 43.1701 65.7329 43.1701 65.7329L43.1866 67.534Z" fill="#F0C7B5"/>
<path d="M201.006 89.7593C205.978 85.9865 213.159 76.2585 218.879 83.1971C225.296 90.9835 207.483 96.8434 207.483 96.8434C203.242 98.9455 199.132 91.415 201.006 89.7593Z" fill="#DE1B22"/>
<path d="M173.731 165.517C172.116 167.303 168.825 168.672 167.089 168.647C167.089 168.647 164.891 170.754 165.38 172.129C166.951 173.865 170.616 173.097 174.973 173.765C177.034 174.427 179.429 176.935 181.017 176.775C182.369 176.639 185.934 175.3 184.165 172.259C183.182 170.318 182.517 169.49 182.132 167.804L173.731 165.517Z" fill="white"/>
<path d="M177.22 123.098C177.22 123.098 168.506 120.835 166.973 127.864C165.523 132.178 168.572 137.682 170.682 145.423C173.308 153.536 174.715 161.403 174.149 164.639C174.053 164.952 173.913 165.252 173.731 165.532C173.731 165.532 173.182 167.759 176.957 168.988C180.731 170.217 182.127 167.829 182.127 167.829C180.786 162.185 182.028 154.71 181.127 149.768L177.22 123.098Z" fill="#141416"/>
<path d="M161.007 172.129C160.628 173.484 157.419 174.226 154.694 174.592C147.958 175.495 151.353 179.715 154.1 180.613C156.847 181.511 159.924 181.616 161.913 182.143C172.863 185.103 173.644 181.225 173.644 181.225C174.089 178.862 172.808 175.581 171.792 173.137L161.007 172.129Z" fill="white"/>
<path d="M152.93 136.418C152.26 139.629 162.347 160.766 161.007 172.109C161.007 172.109 160.243 175.476 165.402 175.817C170.561 176.158 171.814 173.097 171.814 173.097C171.336 171.969 170.918 171.02 170.754 170.428C168.44 162.065 170.798 154.319 168.616 144.3L152.93 136.418Z" fill="#313133"/>
<path d="M157.265 139.604C162.177 145.313 168.594 144.32 168.594 144.32C168.594 144.32 162.001 143.196 157.265 139.604Z" fill="#141416"/>
<path d="M217.461 189.227V189.779C216.564 188.958 215.549 188.253 214.445 187.682C207.208 183.864 195.467 183.864 188.226 187.682C187.124 188.248 186.114 188.952 185.226 189.774V189.227H182.803V191.866C182.841 194.344 184.643 196.808 188.226 198.694C195.467 202.517 207.208 202.517 214.445 198.694C218.065 196.788 219.878 194.284 219.878 191.786V189.227H217.461Z" fill="#0D8175"/>
<path d="M188.226 195.854C195.467 199.672 207.209 199.672 214.445 195.854C218.065 193.948 219.878 191.444 219.878 188.941C219.878 186.437 218.071 183.924 214.445 182.032C207.209 178.214 195.467 178.214 188.226 182.032C184.687 183.894 182.885 186.327 182.803 188.77C182.803 188.83 182.803 188.886 182.803 188.941C182.797 191.444 184.632 193.948 188.226 195.854Z" fill="#15A89F"/>
<path opacity="0.3" d="M197.434 190.361C198.643 190.92 199.98 191.211 201.335 191.211C202.69 191.211 204.027 190.92 205.236 190.361C206.335 189.794 206.846 189.047 206.846 188.304C206.846 187.562 206.296 186.799 205.236 186.247C204.027 185.688 202.69 185.397 201.335 185.397C199.98 185.397 198.643 185.688 197.434 186.247C196.385 186.804 195.846 187.527 195.824 188.254V188.309C195.824 189.047 196.363 189.794 197.434 190.361Z" fill="#010101"/>
<path d="M196.906 168.11H197.483V168.241C197.697 168.044 197.939 167.876 198.203 167.739C199.175 167.291 200.249 167.058 201.338 167.058C202.426 167.058 203.5 167.291 204.472 167.739C204.732 167.879 204.972 168.047 205.186 168.241V168.115H205.736V188.033C205.736 188.635 205.307 189.227 204.445 189.688C203.472 190.136 202.399 190.369 201.31 190.369C200.221 190.369 199.148 190.136 198.176 189.688C197.313 189.227 196.879 188.635 196.879 188.033V187.993L196.906 168.11Z" fill="#102034"/>
<path d="M204.467 169.761C203.497 170.211 202.424 170.446 201.335 170.446C200.247 170.446 199.174 170.211 198.203 169.761C197.335 169.304 196.907 168.707 196.907 168.11C196.941 167.754 197.079 167.413 197.306 167.122C197.533 166.831 197.841 166.601 198.198 166.455C199.169 166.004 200.243 165.77 201.332 165.77C202.422 165.77 203.496 166.004 204.467 166.455C204.816 166.599 205.119 166.823 205.346 167.105C205.573 167.387 205.717 167.718 205.764 168.065V168.11C205.728 168.466 205.589 168.806 205.361 169.096C205.133 169.387 204.824 169.616 204.467 169.761Z" fill="#1D384E"/>
<path d="M236.515 146.111L201.769 127.794C200.917 127.342 200.154 127.357 199.632 127.718L165.567 145.684L208.258 176.243L242.323 158.277L236.515 146.111Z" fill="#AC1E3C"/>
<path d="M202.439 164.072L167.698 145.76C166.138 144.937 164.863 145.609 164.863 147.265V150.406C164.919 151.302 165.204 152.174 165.697 152.952C166.189 153.729 166.875 154.39 167.698 154.881L208.257 176.243L202.439 164.072Z" fill="#EE3059"/>
<path d="M181.127 149.763C180.836 148.037 194.571 137.888 197.544 132.565C200.516 127.242 196.874 124.236 192.214 123.845C187.121 122.942 177.22 123.098 177.22 123.098L175.429 127.864L181.127 149.763Z" fill="#141416"/>
<path d="M168.594 144.32C168.594 144.32 192.072 157.038 204.692 156.325C210.186 155.824 223.23 150.305 227.581 141.746C231.318 134.406 221.609 125.661 221.329 124.507C209.829 124.914 197.083 131.23 194.028 132.565C184.242 130.439 174.208 129.412 164.15 129.504C160.304 129.59 157.556 129.886 156.375 130.508C154.776 131.441 153.403 134.17 152.93 136.418L168.594 144.32Z" fill="#313133"/>
<path d="M194.03 132.565C189.948 139.498 194.03 144.29 194.03 144.29C192.95 140.444 192.95 136.411 194.03 132.565Z" fill="#141416"/>
<path d="M166.303 100.411C166.303 100.411 162.243 99.3072 162.292 100.707C162.342 102.107 165.589 103.301 167.441 103.215L167.215 101.645L166.303 100.411Z" fill="#C8A597"/>
<path d="M167.05 96.8938C167.418 97.1999 167.342 97.827 166.885 98.2886L154.655 110.535C154.593 110.659 154.499 110.768 154.382 110.852C154.265 110.937 154.127 110.995 153.981 111.022C153.835 111.05 153.683 111.045 153.539 111.009C153.395 110.972 153.263 110.906 153.152 110.814C153.042 110.722 152.956 110.608 152.903 110.48C152.85 110.353 152.831 110.216 152.847 110.08C152.862 109.944 152.913 109.814 152.994 109.7C153.076 109.585 153.185 109.49 153.315 109.421L165.539 97.1698C165.701 96.952 165.95 96.8011 166.233 96.7495C166.516 96.6979 166.809 96.7497 167.05 96.8938Z" fill="#D2D3D4"/>
<path d="M167.441 103.2C170.188 103.05 174.583 102.051 177.143 100.692C185.989 101.018 198.396 103.351 201.665 103.14C204.934 102.929 206.456 102.327 206.456 102.327L205.357 96.1864C205.357 96.1864 204.137 92.835 202.17 93.0307C195.577 94.7214 175.962 96.2215 175.962 96.2215C175.962 96.2215 170.38 94.5559 167.847 94.3C166.633 94.1746 163.875 95.6095 162.941 96.1463C162.007 96.6831 159.518 100.546 160.902 101.545C161.825 102.212 162.1 100.275 163.309 100.712L166.99 102.071L167.441 103.2Z" fill="#F0C7B5"/>
<path d="M192.165 89.6292C192.02 87.8728 191.474 86.1636 190.56 84.6122C190.031 83.1436 189.866 81.5858 190.077 80.0517L190.626 74.1617L199.154 70.7451L203.395 75.7621C203.943 77.8288 204.872 79.7952 206.142 81.5769C206.406 83.7342 206.818 87.201 206.818 87.201L198.45 90.7631L192.165 89.6292Z" fill="#F0C7B5"/>
<path d="M193.346 128.892C193.346 128.892 193.637 131.045 194.027 132.575C210.164 138.796 221.329 124.518 221.329 124.518L220.104 121.598L193.346 128.892Z" fill="#3C2517"/>
<path d="M182.022 111.117C181.605 110.209 180.874 106.562 181.539 104.314C182.33 101.68 185.088 98.5145 187.632 95.7551C190.319 93.7081 191.736 91.6712 192.165 89.6293C194.681 86.2277 206.148 81.6021 206.148 81.6021C207.027 81.9884 208.434 82.0436 210.445 82.0034C213.401 82.5051 217.318 83.93 219.433 86.9903C224.345 94.0142 220.104 121.608 220.104 121.608C220.104 121.608 207.373 135.405 193.346 128.903C191.066 114.002 183.693 115.738 182.022 111.117Z" fill="#EC1C24"/>
<path d="M174.111 67.1427C173.083 73.2283 176.611 75.8422 177.622 76.966C179.149 82.4396 184.726 85.8813 186.154 85.6906C187.583 85.5 190.314 85.1889 190.989 84.3962C192.434 82.6754 191.649 77.0312 191.649 77.0312L181.611 66.5657C181.611 66.5657 174.743 64.6292 174.111 67.1427Z" fill="#F0C7B5"/>
<path d="M198.439 59.9182C198.439 59.9182 189.725 51.2187 180.643 56.336C173.501 60.3496 173.66 66.631 174.105 68.4873C174.933 71.4465 176.78 74.0846 179.374 76.0128C179.374 76.0128 178.66 72.0795 182.352 72.6263C184.885 73.0026 184.44 75.0295 186.511 76.1382C188.676 77.2972 193.396 76.6901 195.154 76.3138C202.533 74.7184 202.533 68.5324 202.533 68.5324L202.104 63.2445L198.439 59.9182Z" fill="#764D2A"/>
<path d="M195.84 58.6941C195.958 59.4125 195.839 60.1465 195.5 60.8034C195.16 61.4602 194.615 62.0104 193.933 62.3843C193.251 62.7582 192.463 62.9391 191.669 62.904C190.874 62.869 190.109 62.6196 189.469 62.1874C188.83 61.7552 188.346 61.1596 188.077 60.4759C187.808 59.7922 187.768 59.0512 187.961 58.3465C188.153 57.6417 188.57 57.005 189.159 56.5168C189.748 56.0286 190.482 55.7108 191.269 55.6036C191.792 55.5311 192.325 55.5536 192.838 55.6698C193.351 55.7861 193.834 55.9938 194.259 56.281C194.683 56.5682 195.042 56.9292 195.313 57.3433C195.585 57.7575 195.764 58.2165 195.84 58.6941Z" fill="#15A89F"/>
<path d="M193.583 56.4116C191.347 56.4968 189.38 58.2829 191.643 61.6393C197.401 81.7074 210.198 82.6857 212.368 83.1573C211.274 76.2138 213.324 54.9667 193.583 56.4116Z" fill="#603B17"/>
<path d="M169.012 109.466C161.908 109.466 158.386 110.59 152.199 110.705C149.172 108.403 149.134 107.735 147.623 108.954C146.985 109.456 142.43 109.923 142.43 109.923C141.843 111.087 142.897 115.11 146.562 116.706C148.408 117.508 152.82 116.144 152.82 116.144C159.743 116.485 163.759 118.236 171.743 117.147C173.94 116.42 173.979 114.799 181.237 111.794C182.165 110.736 180.687 106.08 180.687 106.08L174.743 104.725C174.743 104.725 170.012 108.99 169.012 109.466Z" fill="#F0C7B5"/>
<path d="M174.743 104.725C179.688 100.953 186.891 91.2245 192.61 98.158C199.055 105.944 181.237 111.834 181.237 111.834C177.001 113.901 172.886 106.371 174.743 104.725Z" fill="#DE1B22"/>
<path d="M242.323 105.864L239.339 104.309C238.466 103.842 237.691 103.867 237.142 104.259L203.159 122.159L210.181 176.408L244.246 158.488C244.557 158.311 244.808 158.058 244.968 157.757C245.129 157.456 245.193 157.12 245.152 156.787V110.329C245.095 109.435 244.809 108.565 244.318 107.79C243.826 107.015 243.143 106.355 242.323 105.864Z" fill="#AC1E3C"/>
<path d="M208.258 176.243C209.813 177.061 211.087 176.394 211.087 174.738V128.306C211.032 127.41 210.747 126.538 210.255 125.761C209.764 124.984 209.08 124.322 208.258 123.83L205.274 122.26C203.719 121.442 202.45 122.11 202.45 123.765V164.087L203.945 170.86L208.258 176.243Z" fill="#EE3059"/>
</g>
<defs>
<clipPath id="clip0_242_4384">
<rect width="244.657" height="212.958" fill="white" transform="translate(0.490234 0.351074)"/>
</clipPath>
</defs>
</svg>
