<svg width="254" height="222" viewBox="0 0 254 222" fill="none" xmlns="http://www.w3.org/2000/svg">
<g clip-path="url(#clip0_477_5059)" filter="url(#filter0_d_477_5059)">
<path opacity="0.3" d="M245.993 194.792L199.841 170.444L192.901 174.101C192.901 171.372 190.912 168.648 186.962 166.576C181.264 163.566 173.028 162.743 165.902 164.067L166.908 163.541L125.942 141.967L57.6697 115.738L4.49023 143.768L104.415 196.447L106.838 195.163L117.827 200.917L115.377 202.212L134.013 212.035L171.292 192.383L210.879 213.309L245.993 194.792Z" fill="#010101"/>
<path d="M123.651 138.425C92.7673 122.17 60.8124 117.474 60.5816 117.354L29.4893 133.754L112.041 187.968L154.705 165.482C154.705 165.482 154.705 154.771 123.651 138.425Z" fill="#764D2A"/>
<path d="M112.042 187.967L29.4844 144.445V133.738C29.4844 133.738 49.9287 144.565 80.9881 160.916C112.048 177.266 112.042 187.967 112.042 187.967Z" fill="#603B17"/>
<path d="M38.5771 110.429V135.61L46.9175 131.21L46.912 106.029L38.5771 110.429Z" fill="#3C2517"/>
<path d="M34.5938 108.328L34.6487 133.544L38.5771 135.611V110.43L34.5938 108.328Z" fill="#603B17"/>
<path d="M42.9286 103.928L34.5938 108.328L38.5771 110.43L46.912 106.03L42.9286 103.928Z" fill="#764D2A"/>
<path d="M131.898 84.5724C131.898 84.5724 123.8 82.7362 119.514 80.5086L83.3339 61.4439C79.0758 59.2063 74.8562 57.2246 73.9496 57.044C73.0431 56.8634 70.9992 57.4153 70.9058 57.4604C70.8124 57.5056 66.2246 57.4604 66.2246 57.4604V66.0144C66.2246 70.5047 69.708 76.0084 73.9606 78.251L97.9323 90.8889C102.185 93.1365 106.201 98.6101 106.85 103.06L109.745 122.872C110.393 127.317 113.536 132.33 116.728 134.01C119.921 135.691 123.25 137.221 124.173 137.422C125.096 137.622 127.937 136.634 129.008 136.062C129.848 135.637 130.659 135.166 131.437 134.652C131.695 134.442 131.898 130.167 131.898 125.682V84.5724Z" fill="#595959"/>
<path d="M130.969 85.7718C132.211 85.1146 132.211 84.0409 130.969 83.3887L75.5921 54.2448C74.8913 53.9208 74.1168 53.752 73.3312 53.752C72.5457 53.752 71.7712 53.9208 71.0703 54.2448L67.1529 56.3018C65.9111 56.959 65.9166 58.0327 67.1529 58.6899L122.536 87.8338C123.235 88.1578 124.009 88.3266 124.794 88.3266C125.578 88.3266 126.352 88.1578 127.052 87.8338L130.969 85.7718Z" fill="#858585"/>
<path d="M79.696 49.2232H79.2949V49.3135C79.1534 49.1783 78.9904 49.0633 78.8114 48.9723C78.1519 48.6657 77.4224 48.5059 76.6824 48.5059C75.9423 48.5059 75.2128 48.6657 74.5533 48.9723C74.3736 49.0645 74.209 49.1794 74.0643 49.3135V49.2232H73.6742V58.6853C73.6737 58.6936 73.6737 58.702 73.6742 58.7104C73.6995 58.9518 73.7948 59.1827 73.9502 59.3794C74.1057 59.576 74.3158 59.7313 74.5588 59.8292C75.2183 60.1358 75.9478 60.2956 76.6879 60.2956C77.4279 60.2956 78.1574 60.1358 78.8169 59.8292C79.0586 59.7301 79.2672 59.5745 79.4216 59.378C79.576 59.1815 79.6707 58.9511 79.696 58.7104V58.6853V49.2232Z" fill="#3C2517"/>
<path d="M74.5592 50.3472C75.2194 50.6514 75.9487 50.81 76.6882 50.81C77.4278 50.81 78.157 50.6514 78.8173 50.3472C79.0733 50.2664 79.2953 50.1147 79.4525 49.9133C79.6096 49.7118 79.6941 49.4707 79.6941 49.2233C79.6941 48.976 79.6096 48.7348 79.4525 48.5334C79.2953 48.332 79.0733 48.1803 78.8173 48.0995C78.157 47.7952 77.4278 47.6367 76.6882 47.6367C75.9487 47.6367 75.2194 47.7952 74.5592 48.0995C74.3215 48.1981 74.1156 48.351 73.9616 48.5435C73.8076 48.736 73.7106 48.9615 73.6801 49.1982C73.6796 49.2066 73.6796 49.215 73.6801 49.2233C73.705 49.4648 73.7995 49.696 73.9539 49.8934C74.1083 50.0907 74.3171 50.2473 74.5592 50.3472Z" fill="#0D8175"/>
<path d="M110.19 65.2976H109.8V65.388C109.654 65.2554 109.49 65.1407 109.311 65.0468C108.651 64.7425 107.922 64.584 107.182 64.584C106.442 64.584 105.713 64.7425 105.053 65.0468C104.876 65.1407 104.714 65.2554 104.569 65.388V65.2976H104.174V74.7848C104.199 75.0263 104.293 75.2575 104.448 75.4549C104.602 75.6522 104.811 75.8088 105.053 75.9087C105.713 76.2129 106.442 76.3715 107.182 76.3715C107.922 76.3715 108.651 76.2129 109.311 75.9087C109.554 75.8097 109.763 75.6533 109.918 75.4558C110.072 75.2582 110.166 75.0266 110.19 74.7848V65.2976Z" fill="#3C2517"/>
<path d="M105.053 66.42C105.713 66.7243 106.442 66.8828 107.182 66.8828C107.922 66.8828 108.651 66.7243 109.311 66.42C109.568 66.3405 109.791 66.1896 109.948 65.9885C110.106 65.7874 110.191 65.5462 110.191 65.2987C110.191 65.0512 110.106 64.81 109.948 64.6089C109.791 64.4078 109.568 64.2569 109.311 64.1774C108.652 63.8708 107.922 63.7109 107.182 63.7109C106.442 63.7109 105.712 63.8708 105.053 64.1774C104.816 64.2751 104.61 64.4271 104.456 64.6188C104.302 64.8104 104.205 65.0351 104.174 65.2711V65.2962C104.199 65.5377 104.293 65.7688 104.448 65.9662C104.602 66.1636 104.811 66.3202 105.053 66.42Z" fill="#0D8175"/>
<path d="M122.442 69.5364V66.3957H117.8L75.5924 44.1452C74.8916 43.8212 74.1171 43.6523 73.3315 43.6523C72.546 43.6523 71.7714 43.8212 71.0706 44.1452L70.7409 44.3208H66.2246V47.4012C66.251 47.6578 66.3514 47.9035 66.5154 48.1132C66.6795 48.3229 66.9014 48.4893 67.1586 48.5953L113.08 72.8025C113.78 73.1264 114.554 73.2952 115.338 73.2952C116.123 73.2952 116.897 73.1264 117.596 72.8025L121.514 70.7354C121.773 70.6309 121.996 70.4642 122.16 70.2531C122.323 70.0419 122.421 69.7942 122.442 69.5364Z" fill="#603B17"/>
<path d="M121.514 67.5853C122.755 66.9281 122.75 65.8595 121.514 65.2073L75.5921 40.9951C74.8905 40.6734 74.1163 40.5059 73.3312 40.5059C72.5461 40.5059 71.7719 40.6734 71.0703 40.9951L67.1529 43.0621C65.9111 43.7143 65.9166 44.788 67.1529 45.4452L113.074 69.6524C113.774 69.9763 114.548 70.1451 115.333 70.1451C116.117 70.1451 116.891 69.9763 117.591 69.6524L121.514 67.5853Z" fill="#764D2A"/>
<path d="M80.9819 160.911L64.999 152.483L54.7686 107.42L93.0255 127.593L80.9819 160.911Z" fill="#603B17"/>
<path d="M123.651 138.421L80.9824 160.912L93.026 127.594L135.689 105.098L123.651 138.421Z" fill="#3C2517"/>
<path d="M145.458 111.182L104.416 132.81L102.092 129.138L44.7091 98.9553C44.0528 98.564 43.5065 98.0373 43.1143 97.4176C42.722 96.798 42.4948 96.1028 42.4509 95.3882V95.037L40.1982 91.4649L81.1749 69.8917C81.4304 69.7811 81.714 69.7357 81.9955 69.7605C82.277 69.7852 82.5459 69.8791 82.7737 70.0322L143.86 102.141C144.517 102.533 145.064 103.06 145.456 103.681C145.848 104.301 146.075 104.998 146.118 105.713V109.847C146.149 110.103 146.105 110.362 145.988 110.597C145.872 110.832 145.689 111.034 145.458 111.182Z" fill="#595959"/>
<path d="M105.08 131.477C105.08 132.787 104.058 133.319 102.816 132.666L41.7305 100.557C41.0731 100.166 40.5257 99.6382 40.1325 99.0177C39.7393 98.3972 39.5113 97.701 39.4668 96.9853V92.8563C39.4668 91.5469 40.4887 91.0151 41.725 91.6673L102.816 123.776C103.474 124.168 104.021 124.696 104.414 125.316C104.807 125.937 105.035 126.633 105.08 127.348V131.477Z" fill="#2C2C2C"/>
<path d="M154.431 113.907L154.304 114.103L154.249 114.073C154.284 114.189 154.3 114.308 154.299 114.429C154.273 114.858 154.137 115.275 153.903 115.647C153.668 116.019 153.341 116.336 152.947 116.571C152.833 116.629 152.711 116.675 152.585 116.706L152.639 116.737L152.513 116.932L142.228 111.549C142.09 111.459 141.981 111.337 141.912 111.196C141.842 111.055 141.815 110.9 141.832 110.746C141.858 110.317 141.993 109.899 142.228 109.526C142.463 109.153 142.79 108.835 143.184 108.599C143.322 108.511 143.482 108.457 143.65 108.442C143.817 108.427 143.986 108.452 144.14 108.514L154.431 113.907Z" fill="#313133"/>
<path d="M152.117 116.135C152.14 115.706 152.275 115.288 152.51 114.916C152.745 114.543 153.074 114.227 153.468 113.993C153.597 113.887 153.76 113.821 153.932 113.805C154.105 113.788 154.279 113.822 154.429 113.901C154.579 113.98 154.698 114.1 154.77 114.244C154.841 114.389 154.86 114.55 154.825 114.705C154.8 115.135 154.664 115.554 154.429 115.927C154.193 116.301 153.864 116.618 153.468 116.853C153.334 116.94 153.177 116.995 153.012 117.012C152.848 117.029 152.681 117.007 152.529 116.948C152.385 116.86 152.27 116.738 152.197 116.594C152.125 116.451 152.097 116.292 152.117 116.135Z" fill="#141416"/>
<path d="M174.638 126.584L157.238 135.73L154.914 132.058L144.557 126.675C143.902 126.282 143.357 125.754 142.965 125.133C142.574 124.513 142.348 123.817 142.304 123.103V122.751L140.052 119.184L157.392 110.063C157.649 109.958 157.932 109.915 158.213 109.941C158.493 109.966 158.761 110.059 158.991 110.209L173.056 117.554C173.713 117.946 174.26 118.473 174.652 119.094C175.044 119.714 175.271 120.41 175.314 121.126V125.25C175.344 125.507 175.297 125.767 175.178 126.002C175.059 126.237 174.872 126.438 174.638 126.584Z" fill="#161616"/>
<path d="M157.903 134.411C157.903 135.72 156.886 136.252 155.645 135.6L141.574 128.255C140.918 127.862 140.372 127.334 139.98 126.714C139.588 126.093 139.36 125.398 139.315 124.683V120.559C139.315 119.244 140.332 118.707 141.574 119.365L155.667 126.7C156.325 127.091 156.872 127.618 157.266 128.239C157.659 128.859 157.887 129.556 157.93 130.272L157.903 134.411Z" fill="#2C2C2C"/>
<path d="M81.493 69.6917L65.1584 8.61946C64.7738 7.16954 63.5101 5.80992 62.3068 5.60924L58.4278 4.90685C58.2199 4.85932 58.0017 4.86508 57.7972 4.9235C57.5926 4.98193 57.4097 5.09074 57.2685 5.23798L16.1875 26.8112L39.5548 93.648L81.0315 71.7688C81.5479 71.4226 81.7622 70.66 81.493 69.6917Z" fill="#595959"/>
<path d="M34.8734 93.0117C33.6922 92.796 32.412 91.4363 32.0219 90.0015L15.6763 28.9192C15.2917 27.4692 15.94 26.4558 17.1213 26.6715L21.0003 27.3739C22.1816 27.5846 23.4617 28.9442 23.8518 30.3841L40.1974 91.4664C40.582 92.9164 39.9337 93.9298 38.7524 93.7141L34.8734 93.0117Z" fill="#2C2C2C"/>
<path d="M116.415 43.7689C116.415 43.7689 113.222 42.6351 111.063 43.8391C109.376 44.7874 105.503 47.2608 104.772 47.5668C100.08 47.908 92.1353 48.3996 87.6299 49.3529C85.773 49.7648 83.96 50.3272 82.2125 51.0336L82.1191 54.9569C82.1191 54.9569 85.4157 58.3082 88.6354 58.0674C94.8879 57.6109 100.811 52.6139 105.052 52.3079C106.838 54.2796 112.31 51.6306 112.31 51.6306C112.31 51.6306 112.69 52.5437 114.217 52.5437C116.805 52.5437 118.398 46.3928 118.398 46.3928L117.849 45.8159L116.415 43.7689Z" fill="#F0C7B5"/>
<path d="M60.752 24.539C69.0924 21.0271 75.3449 35.1099 75.3449 35.1099C75.3449 35.1099 83.6249 43.9148 87.6302 49.3532C84.5205 51.1192 82.1359 54.9572 82.1359 54.9572C82.1359 54.9572 70.0045 44.4215 60.7081 34.3172C59.6532 33.0077 54.2578 27.2683 60.752 24.539Z" fill="#AC1E3C"/>
<path d="M115.129 45.3135C115.017 45.2532 114.924 45.1664 114.861 45.0622C114.799 44.958 114.768 44.8403 114.772 44.7215C114.772 44.3452 114.854 43.8585 115.272 43.7181C115.689 43.5776 116.634 43.8335 116.876 43.9388L116.953 43.5475C116.909 43.5475 115.821 43.0458 114.997 43.3719C114.728 43.4982 114.508 43.6979 114.368 43.9432C114.228 44.1886 114.175 44.4676 114.217 44.7415C114.215 44.9219 114.265 45.0996 114.361 45.257C114.458 45.4145 114.597 45.5464 114.766 45.6396C115.402 45.9372 116.113 46.0757 116.827 46.0409H117.969L117.64 45.6045C117.64 45.6045 115.904 45.775 115.129 45.3135Z" fill="white"/>
<path d="M115.129 45.686C115.017 45.6257 114.924 45.5389 114.861 45.4348C114.799 45.3306 114.768 45.2129 114.772 45.094C114.772 44.7177 114.854 44.2361 115.272 44.0655C115.689 43.895 116.722 44.216 116.953 44.3114V43.9C116.349 43.6175 115.65 43.5547 114.997 43.7244C114.728 43.8507 114.508 44.0503 114.368 44.2957C114.228 44.5411 114.175 44.82 114.217 45.094C114.212 45.2742 114.261 45.4522 114.357 45.6094C114.454 45.7665 114.595 45.897 114.766 45.987C115.399 46.2926 116.112 46.4349 116.827 46.3984H117.969L117.64 45.9569C117.64 45.9569 115.904 46.1526 115.129 45.686Z" fill="#C0BFBF"/>
<path d="M124.497 47.3111C123.798 46.9872 123.025 46.8184 122.241 46.8184C121.458 46.8184 120.685 46.9872 119.986 47.3111C118.744 47.9633 118.744 49.0319 119.986 49.6892C120.686 50.0108 121.458 50.1783 122.241 50.1783C123.025 50.1783 123.797 50.0108 124.497 49.6892C125.75 49.0319 125.75 47.9633 124.497 47.3111Z" fill="white"/>
<path d="M122.245 48.3997C122.971 48.3932 123.689 48.2552 124.357 47.9935C125.025 47.7319 125.63 47.3518 126.135 46.8754C126.641 46.399 127.039 45.8357 127.305 45.2181C127.57 44.6004 127.699 43.9408 127.684 43.2773H116.805C116.783 44.6151 117.344 45.9061 118.364 46.8667C119.384 47.8272 120.78 48.3786 122.245 48.3997Z" fill="#C0BFBF"/>
<path d="M126.146 45.8149C124.938 46.3739 123.602 46.6651 122.248 46.6651C120.893 46.6651 119.558 46.3739 118.349 45.8149C117.799 45.5473 117.336 45.1508 117.009 44.666C117.143 45.1213 117.346 45.557 117.613 45.9604C117.839 46.1507 118.085 46.3188 118.349 46.4621C119.557 47.0226 120.893 47.3147 122.248 47.3147C123.602 47.3147 124.938 47.0226 126.146 46.4621C126.407 46.3177 126.652 46.1497 126.877 45.9604C127.144 45.557 127.347 45.1213 127.481 44.666C127.154 45.1495 126.694 45.5458 126.146 45.8149Z" fill="#15A89F"/>
<path d="M126.09 41.2105C124.899 40.6587 123.581 40.3711 122.244 40.3711C120.908 40.3711 119.59 40.6587 118.398 41.2105C116.272 42.3293 116.272 44.1505 118.398 45.2743C119.59 45.8261 120.908 46.1137 122.244 46.1137C123.581 46.1137 124.899 45.8261 126.09 45.2743C128.195 44.1505 128.195 42.3293 126.09 41.2105Z" fill="white"/>
<path d="M125.706 41.4163C124.635 40.9192 123.45 40.6602 122.248 40.6602C121.046 40.6602 119.861 40.9192 118.789 41.4163C117.553 42.0635 117.141 42.9666 117.47 43.7994C117.742 43.2559 118.206 42.8121 118.789 42.5401C119.861 42.043 121.046 41.784 122.248 41.784C123.45 41.784 124.635 42.043 125.706 42.5401C126.287 42.8123 126.75 43.2562 127.019 43.7994C127.377 42.9666 126.937 42.0635 125.706 41.4163Z" fill="#AEAEAE"/>
<path d="M125.706 42.5393C124.634 42.0423 123.449 41.7832 122.247 41.7832C121.045 41.7832 119.86 42.0423 118.788 42.5393C118.206 42.8113 117.741 43.2551 117.47 43.7986C117.735 44.3458 118.202 44.7912 118.788 45.0579C119.86 45.5549 121.045 45.814 122.247 45.814C123.449 45.814 124.634 45.5549 125.706 45.0579C126.291 44.7913 126.756 44.3457 127.019 43.7986C126.749 43.2555 126.287 42.8116 125.706 42.5393Z" fill="#7A441C"/>
<path d="M123.151 43.3777C122.88 43.2564 122.583 43.1934 122.282 43.1934C121.981 43.1934 121.684 43.2564 121.414 43.3777C120.931 43.6386 120.931 44.045 121.414 44.3009C121.684 44.4244 121.981 44.4888 122.282 44.4888C122.584 44.4888 122.881 44.4244 123.151 44.3009C123.634 44.045 123.634 43.6386 123.151 43.3777Z" fill="#FBB163"/>
<path d="M121.942 43.8148C121.974 43.8271 122.009 43.8334 122.044 43.8334C122.079 43.8334 122.113 43.8271 122.145 43.8148C122.157 43.8101 122.167 43.8024 122.174 43.7926C122.181 43.7828 122.185 43.7713 122.185 43.7596C122.185 43.7479 122.181 43.7364 122.174 43.7266C122.167 43.7168 122.157 43.7091 122.145 43.7044C122.114 43.6895 122.079 43.6816 122.044 43.6816C122.008 43.6816 121.973 43.6895 121.942 43.7044C121.881 43.7345 121.881 43.7847 121.942 43.8148Z" fill="#7A441C"/>
<path d="M122.481 44.2163C122.547 44.2362 122.618 44.2362 122.685 44.2163C122.745 44.1862 122.745 44.136 122.685 44.1009C122.653 44.0859 122.618 44.0781 122.583 44.0781C122.547 44.0781 122.512 44.0859 122.481 44.1009C122.42 44.136 122.42 44.1862 122.481 44.2163Z" fill="#7A441C"/>
<path d="M122.81 43.6995C122.841 43.7145 122.876 43.7223 122.912 43.7223C122.947 43.7223 122.982 43.7145 123.014 43.6995C123.074 43.6694 123.074 43.6193 123.014 43.5892C122.982 43.5742 122.947 43.5664 122.912 43.5664C122.876 43.5664 122.841 43.5742 122.81 43.5892C122.75 43.6042 122.75 43.6694 122.81 43.6995Z" fill="#7A441C"/>
<path d="M121.645 43.4974C121.679 43.5124 121.715 43.5202 121.753 43.5202C121.79 43.5202 121.827 43.5124 121.86 43.4974C121.915 43.4673 121.915 43.4221 121.86 43.392C121.827 43.377 121.79 43.3691 121.753 43.3691C121.715 43.3691 121.679 43.377 121.645 43.392C121.635 43.3972 121.626 43.4048 121.62 43.4141C121.614 43.4234 121.611 43.4339 121.611 43.4447C121.611 43.4554 121.614 43.466 121.62 43.4753C121.626 43.4845 121.635 43.4922 121.645 43.4974Z" fill="#7A441C"/>
<path d="M121.47 43.9911C121.488 44.004 121.511 44.0109 121.534 44.0109C121.557 44.0109 121.58 44.004 121.598 43.9911C121.626 43.9911 121.626 43.9502 121.598 43.9297C121.578 43.922 121.556 43.918 121.534 43.918C121.512 43.918 121.49 43.922 121.47 43.9297C121.442 43.9502 121.442 43.9758 121.47 43.9911Z" fill="#7A441C"/>
<path d="M122.855 44.0409C122.895 44.0512 122.937 44.0512 122.977 44.0409C122.982 44.0366 122.986 44.0315 122.988 44.0257C122.991 44.02 122.992 44.0139 122.992 44.0077C122.992 44.0014 122.991 43.9953 122.988 43.9896C122.986 43.9839 122.982 43.9787 122.977 43.9744C122.958 43.9668 122.937 43.9629 122.916 43.9629C122.895 43.9629 122.874 43.9668 122.855 43.9744C122.847 43.9771 122.841 43.9817 122.837 43.9876C122.832 43.9935 122.83 44.0005 122.83 44.0077C122.83 44.0148 122.832 44.0218 122.837 44.0277C122.841 44.0337 122.847 44.0383 122.855 44.0409Z" fill="#7A441C"/>
<path d="M122.295 43.4401C122.313 43.45 122.334 43.4552 122.356 43.4552C122.377 43.4552 122.398 43.45 122.417 43.4401C122.45 43.4401 122.45 43.3992 122.417 43.3787C122.398 43.3711 122.377 43.3672 122.356 43.3672C122.335 43.3672 122.314 43.3711 122.295 43.3787C122.261 43.3992 122.261 43.4248 122.295 43.4401Z" fill="#7A441C"/>
<path d="M121.882 44.2777C121.904 44.283 121.927 44.283 121.949 44.2777C121.949 44.2777 121.949 44.2778 121.949 44.2363H121.882C121.882 44.2363 121.866 44.2674 121.882 44.2777Z" fill="#7A441C"/>
<path d="M123.146 43.8605H123.212V43.8242H123.146V43.8605Z" fill="#7A441C"/>
<path d="M122.7 43.3792C122.708 43.3865 122.719 43.3905 122.73 43.3905C122.741 43.3905 122.752 43.3865 122.76 43.3792C122.76 43.3792 122.76 43.3792 122.76 43.3533C122.751 43.3483 122.741 43.3457 122.73 43.3457C122.72 43.3457 122.709 43.3483 122.7 43.3533C122.7 43.3533 122.7 43.374 122.7 43.3792Z" fill="#7A441C"/>
<path d="M121.415 43.6649H121.482C121.482 43.6649 121.482 43.639 121.482 43.6287C121.472 43.6237 121.46 43.6211 121.448 43.6211C121.437 43.6211 121.425 43.6237 121.415 43.6287V43.6649Z" fill="#7A441C"/>
<path d="M117.102 44.8584C117.569 46.218 116.509 46.1628 115.278 46.5943C114.047 47.0257 112.877 46.9605 112.652 46.4387C112.426 45.917 113.245 45.1343 114.47 44.7028C115.695 44.2714 116.75 43.86 117.102 44.8584Z" fill="#F0C7B5"/>
<path opacity="0.3" d="M147.282 104.309C137.749 102.834 118.86 94.8471 117.723 93.2718C115.866 89.9054 110.651 88.7264 105.437 85.8265C97.1354 81.2159 91.4433 76.1738 78.5152 74.4078C77.2899 72.5715 76.7295 71.9594 72.9329 67.414C71.1473 66.9424 67.4386 68.0963 67.4386 68.0963L67.1749 69.3255L45.835 76.4397C45.835 76.4397 43.0878 93.2317 56.0983 97.3858C65.4991 100.396 70.6033 101.981 81.8942 104.058C93.185 106.135 115.959 120.038 114.816 127.327L121.662 123.775C116.47 116.285 112.151 107.565 109.157 100.928C111.322 102.734 114.201 105.132 117.228 106.632C124.728 110.34 141.178 109.432 141.788 113.114L143.436 112.256L142.172 111.554C142.172 111.554 141.271 111.137 142.172 109.547C143.073 107.957 145.914 105.313 147.282 104.309Z" fill="#010101"/>
<path d="M149.348 102.398C154.639 103.452 161.04 106.106 161.04 106.106C161.04 106.106 166.644 104.726 167.595 106.106C168.375 107.255 165.287 109.758 163.65 111.123C162.012 112.488 158.474 114.133 158.474 114.133C158.474 114.133 157.117 117.735 154.787 117.871C152.458 118.006 150.678 112.131 149.672 111.013C148.667 109.894 146.431 109.949 146.431 109.949L143.475 107.536L144.288 102.845C144.288 102.845 147.81 102.569 149.348 102.398Z" fill="#C8A597"/>
<path d="M75.0097 65.5085C78.8063 70.054 79.3667 70.6661 80.5919 72.5023C93.5146 74.2683 99.2067 79.3104 107.514 83.921C112.728 86.8159 117.953 88.0049 119.799 91.3613C120.937 92.9316 139.826 100.919 149.353 102.399C145.54 105.284 146.436 109.924 146.436 109.924C146.436 109.924 126.832 108.419 119.332 104.727C114.937 102.549 110.838 98.4503 108.811 97.0656C106.393 95.415 84.2127 93.5788 82.1249 92.7961C80.037 92.0135 68.2627 82.1801 68.2627 82.1801V72.0909L69.5374 66.1808C69.5374 66.1808 73.2515 65.0369 75.0097 65.5085Z" fill="#1D384E"/>
<path d="M123.739 121.588H128.36C128.36 121.588 132.173 119.425 133.272 119.546C134.37 119.666 134.239 121.593 132.909 123.585C131.579 125.576 128.118 127.924 127.667 128.742C127.217 129.56 127.349 134.401 123.739 134.552C119.893 134.717 119.344 128.998 118.008 127.453C117.146 126.449 118.008 123.966 118.008 123.966L119.723 120.022L123.739 121.588Z" fill="#F0C7B5"/>
<path d="M47.9336 74.5284C47.9336 74.5284 45.1864 91.3254 58.197 95.4795C69.735 99.1721 72.9657 94.3908 94.1078 91.3606C96.0418 105.539 108.486 109.076 118.008 127.453C118.558 123.896 123.739 121.588 123.739 121.588C114.096 107.681 107.547 90.5227 106.706 87.658C105.866 84.7933 99.8714 79.5053 97.8165 79.7762C95.7616 80.0472 81.1412 75.1756 71.1086 75.1756C74.4766 71.5834 74.9986 65.5078 74.9986 65.5078L47.9336 74.5284Z" fill="#1D384E"/>
<path d="M40.8349 22.9877C40.8898 27.5783 39.4668 29.6704 39.4668 29.6704L41.5436 33.1372L48.5709 37.5522H57.8673L58.8892 29.3945L57.2409 26.1986L52.2521 22.185C52.2521 22.185 40.8349 20.4391 40.8349 22.9877Z" fill="#C8A597"/>
<path d="M33.5109 35.8925C37.824 32.1147 39.4668 29.6714 39.4668 29.6714C39.4668 29.6714 48.8071 36.6049 54.2575 34.4627C59.7079 32.3204 53.9718 24.4688 53.9718 24.4688C53.9718 24.4688 58.1475 25.116 60.7518 24.539C60.7518 24.539 65.1472 25.8635 66.5483 31.6531C71.2789 37.1317 75.0095 41.1504 75.0095 45.169C75.013 46.2154 74.7508 47.2483 74.2437 48.1867C73.7365 49.125 72.9982 49.9433 72.0866 50.5774C72.0866 50.5774 72.5536 61.369 75.0095 65.508C60.7243 78.1108 47.6039 75.0002 47.6039 75.0002C47.6039 75.0002 49.0983 66.381 41.8403 61.374C39.9448 59.0361 36.0603 48.4351 36.0603 48.4351C36.0603 48.4351 33.2142 40.2824 33.5109 35.8925Z" fill="#EE3059"/>
<path d="M72.0865 50.5762C72.0865 50.5762 52.9663 57.7405 53.8124 58.8342C54.6586 59.9279 72.0865 50.5762 72.0865 50.5762Z" fill="#AC1E3C"/>
<path d="M57.7029 17.6108C57.7029 17.6108 55.5052 30.1083 49.8845 30.6902C43.9616 31.3023 39.3464 21.6596 39.2365 19.9488C38.7311 19.6026 38.2695 17.6108 38.2695 17.6108L41.9342 13.2009L50.1098 9.48828L56.8623 10.6121L58.8732 12.7192L57.7029 17.6108Z" fill="#F0C7B5"/>
<path d="M39.9997 18.5526C40.4282 18.6529 39.9997 20.2183 39.9997 20.2183C39.9997 20.2183 45.8237 20.2183 46.9775 14.1978C49.4774 14.6243 47.7027 17.8201 47.7027 17.8201C47.7027 17.8201 51.5213 17.9205 52.0597 14.5039C53.2685 15.2363 52.9553 16.902 52.9553 16.902C52.9553 16.902 56.0651 17.0676 57.4771 13.7413C57.8837 14.4537 57.7024 17.5893 57.7024 17.5893C58.728 16.1239 59.3718 14.4632 59.5842 12.735C59.7967 11.0067 59.572 9.25702 58.9276 7.62049C56.7299 2.01647 52.6146 0.691976 51.4993 0.531431C44.7468 -0.416787 41.9337 2.46299 41.9337 2.46299C41.9337 2.46299 36.2581 1.08331 35.3405 8.68912C34.2966 17.3535 39.1865 19.9724 39.1865 19.9724C39.1865 19.9724 38.6041 18.4171 39.9997 18.5526Z" fill="#603B17"/>
<path d="M42.5879 2.96484C47.0163 6.73765 46.5713 12.6878 46.5713 12.6878C45.7376 9.29549 44.3973 6.02387 42.5879 2.96484Z" fill="#3C2517"/>
<path d="M119.327 132.404L119.206 132.599L119.146 132.569C119.182 132.685 119.201 132.805 119.201 132.926C119.175 133.355 119.039 133.773 118.803 134.145C118.567 134.517 118.238 134.833 117.844 135.068C117.73 135.129 117.608 135.177 117.481 135.208L117.541 135.233L117.415 135.434L107.13 130.046C106.991 129.956 106.882 129.835 106.812 129.694C106.743 129.553 106.716 129.397 106.734 129.243C106.76 128.814 106.896 128.396 107.131 128.023C107.367 127.651 107.696 127.335 108.091 127.101C108.227 127.01 108.387 126.955 108.554 126.94C108.721 126.925 108.889 126.951 109.042 127.016L119.327 132.404Z" fill="#313133"/>
<path d="M117.013 134.652C117.04 134.222 117.177 133.805 117.413 133.433C117.648 133.061 117.976 132.744 118.371 132.509C118.507 132.417 118.667 132.361 118.836 132.346C119.004 132.331 119.174 132.358 119.327 132.424C119.465 132.513 119.575 132.635 119.644 132.776C119.714 132.917 119.741 133.073 119.722 133.227C119.696 133.655 119.56 134.072 119.325 134.444C119.09 134.816 118.763 135.133 118.371 135.369C118.236 135.457 118.078 135.511 117.914 135.527C117.749 135.543 117.583 135.519 117.431 135.459C117.288 135.372 117.173 135.251 117.1 135.108C117.026 134.966 116.996 134.808 117.013 134.652Z" fill="#141416"/>
<path d="M150.952 139.098L133.546 148.244L131.228 144.572L120.871 139.184C120.213 138.792 119.665 138.265 119.272 137.644C118.878 137.024 118.651 136.327 118.607 135.611V135.26L116.354 131.693L133.689 122.577C133.945 122.469 134.228 122.425 134.509 122.45C134.79 122.475 135.059 122.567 135.288 122.718L149.353 130.063C150.01 130.455 150.557 130.982 150.949 131.603C151.341 132.223 151.568 132.919 151.612 133.635V137.764C151.642 138.02 151.597 138.278 151.481 138.513C151.365 138.748 151.182 138.95 150.952 139.098Z" fill="#161616"/>
<path d="M134.239 146.91C134.239 148.219 133.223 148.756 131.981 148.099L117.915 140.759C117.259 140.366 116.713 139.838 116.321 139.218C115.929 138.598 115.702 137.902 115.657 137.187V133.058C115.657 131.748 116.674 131.211 117.915 131.869L131.975 139.209C132.633 139.6 133.181 140.128 133.574 140.748C133.967 141.369 134.195 142.065 134.239 142.781V146.91Z" fill="#2C2C2C"/>
<path opacity="0.3" d="M112.563 64.9955C110.647 65.9111 108.479 66.2931 106.327 66.0942L100.08 62.798C99.7668 61.634 100.459 60.4099 102.162 59.5118C104.165 58.5636 106.434 58.1894 108.673 58.4382L114.601 61.5588C115.008 62.7679 114.338 64.0573 112.563 64.9955Z" fill="#010101"/>
<path d="M114.718 61.1621L100.004 61.2022V61.5183C100.004 62.5217 100.729 63.5251 102.163 64.2626C105.037 65.7677 109.69 65.7677 112.564 64.2626C114.003 63.5051 114.718 62.5117 114.718 61.5183V61.1621Z" fill="#C8C7C6"/>
<path d="M112.564 63.9131C109.69 65.4182 105.036 65.4182 102.163 63.9131C99.2894 62.408 99.2894 59.9446 102.163 58.4295C105.036 56.9143 109.69 56.9244 112.564 58.4295C115.437 59.9346 115.437 62.398 112.564 63.9131Z" fill="white"/>
<path d="M112.898 61.2022C112.854 60.4847 112.316 59.7773 111.283 59.2305C110.069 58.6665 108.725 58.3725 107.363 58.3725C106 58.3725 104.657 58.6665 103.443 59.2305C102.41 59.7773 101.866 60.4847 101.822 61.2022C101.778 60.4245 102.316 59.6369 103.443 59.0398C104.658 58.4782 106.001 58.1855 107.363 58.1855C108.725 58.1855 110.068 58.4782 111.283 59.0398C112.409 59.6569 112.948 60.4245 112.898 61.2022Z" fill="#C8C7C6"/>
<path d="M112.899 61.2038C112.855 61.9212 112.316 62.6286 111.283 63.1755C110.071 63.7322 108.733 64.0218 107.376 64.0209C106.019 64.0201 104.682 63.7288 103.47 63.1705C102.437 62.6236 101.894 61.9162 101.85 61.1988C101.894 60.4813 102.437 59.7739 103.47 59.2271C104.685 58.6631 106.028 58.3691 107.391 58.3691C108.753 58.3691 110.096 58.6631 111.311 59.2271C112.316 59.779 112.855 60.4864 112.899 61.2038Z" fill="white"/>
<path d="M82.224 110.832C82.224 110.832 74.0924 109.006 69.8343 106.763L33.6487 87.7539C29.3961 85.5113 25.171 83.5296 24.2699 83.3489C23.3689 83.1683 21.3195 83.7152 21.2261 83.7653C21.1327 83.8155 16.5449 83.7653 16.5449 83.7653V92.2943C16.5449 96.8096 20.0283 102.288 24.2809 104.536L48.2526 117.174C52.5052 119.411 56.5216 124.89 57.1699 129.335L60.0654 149.142C60.7137 153.592 63.8565 158.604 67.0487 160.285C70.2409 161.966 73.5924 163.486 74.488 163.667C75.3836 163.847 78.2516 162.874 79.3285 162.307C80.168 161.882 80.979 161.411 81.757 160.897C82.0097 160.686 82.224 156.412 82.224 151.927V110.832Z" fill="#595959"/>
<path d="M81.2839 112.035C82.5311 111.378 82.5311 110.305 81.2839 109.652L25.9122 80.5085C25.2113 80.1845 24.4368 80.0156 23.6512 80.0156C22.8657 80.0156 22.0912 80.1845 21.3903 80.5085L17.4784 82.5705C16.2312 83.2227 16.2312 84.2963 17.4784 84.9536L72.8556 114.097C73.5555 114.421 74.3291 114.59 75.1138 114.59C75.8984 114.59 76.6721 114.421 77.3719 114.097L81.2839 112.035Z" fill="#858585"/>
<path d="M30.0173 75.4868H29.6217V75.5771C29.4784 75.4416 29.3135 75.3265 29.1327 75.2359C28.4742 74.9294 27.7455 74.7695 27.0064 74.7695C26.2672 74.7695 25.5386 74.9294 24.8801 75.2359C24.7007 75.3266 24.5361 75.4397 24.3911 75.5721V75.4868H24.001V84.974C24.0257 85.2149 24.1202 85.4455 24.2747 85.642C24.4291 85.8386 24.6381 85.9942 24.8801 86.0928C25.5386 86.3994 26.2672 86.5592 27.0064 86.5592C27.7455 86.5592 28.4742 86.3994 29.1327 86.0928C29.3757 85.9949 29.5858 85.8396 29.7412 85.643C29.8967 85.4464 29.992 85.2154 30.0173 84.974V84.9439V75.4868Z" fill="#3C2517"/>
<path d="M24.9016 76.6108C25.5616 76.9127 26.2896 77.0699 27.0279 77.0699C27.7661 77.0699 28.4941 76.9127 29.1542 76.6108C29.4128 76.5324 29.6378 76.3817 29.7973 76.18C29.9568 75.9782 30.0426 75.7358 30.0426 75.487C30.0426 75.2381 29.9568 74.9957 29.7973 74.7939C29.6378 74.5922 29.4128 74.4415 29.1542 74.3631C28.4949 74.0589 27.7665 73.9004 27.0279 73.9004C26.2892 73.9004 25.5608 74.0589 24.9016 74.3631C24.6646 74.4613 24.4592 74.6134 24.3053 74.8049C24.1513 74.9965 24.0539 75.221 24.0225 75.4569V75.487C24.0463 75.7287 24.1403 75.9604 24.2948 76.1579C24.4494 76.3555 24.6588 76.5118 24.9016 76.6108Z" fill="#0D8175"/>
<path d="M60.5104 91.5613H60.1203V91.6516C59.9742 91.5191 59.8098 91.4044 59.6313 91.3105C58.9711 91.0062 58.2419 90.8477 57.5023 90.8477C56.7627 90.8477 56.0335 91.0062 55.3732 91.3105C55.197 91.4055 55.033 91.5183 54.8842 91.6466V91.5613H54.4941V101.049C54.518 101.29 54.612 101.522 54.7665 101.719C54.921 101.917 55.1305 102.073 55.3732 102.172C56.0335 102.477 56.7627 102.635 57.5023 102.635C58.2419 102.635 58.9711 102.477 59.6313 102.172C59.8741 102.073 60.0835 101.917 60.2381 101.719C60.3926 101.522 60.4866 101.29 60.5104 101.049V101.018V91.5613Z" fill="#3C2517"/>
<path d="M55.3732 92.6856C56.0335 92.9899 56.7627 93.1484 57.5023 93.1484C58.2419 93.1484 58.9711 92.9899 59.6313 92.6856C59.888 92.6061 60.1109 92.4553 60.2688 92.2541C60.4267 92.053 60.5116 91.8118 60.5116 91.5643C60.5116 91.3169 60.4267 91.0756 60.2688 90.8745C60.1109 90.6734 59.888 90.5225 59.6313 90.443C58.9719 90.1364 58.2423 89.9766 57.5023 89.9766C56.7622 89.9766 56.0327 90.1364 55.3732 90.443C55.1359 90.5407 54.9303 90.6928 54.7763 90.8844C54.6223 91.076 54.5251 91.3007 54.4941 91.5367C54.5132 91.7829 54.605 92.0198 54.7598 92.2221C54.9146 92.4244 55.1266 92.5846 55.3732 92.6856Z" fill="#0D8175"/>
<path d="M72.7628 95.8065V92.6608H68.1201L25.9127 70.4053C25.2111 70.0836 24.4369 69.916 23.6518 69.916C22.8667 69.916 22.0925 70.0836 21.3909 70.4053L21.0558 70.5859H16.5449V73.6613C16.5702 73.9182 16.6701 74.1643 16.8343 74.3742C16.9985 74.5841 17.221 74.7502 17.479 74.8554L63.4005 99.0625C64.1004 99.3865 64.874 99.5553 65.6586 99.5553C66.4433 99.5553 67.2169 99.3865 67.9168 99.0625L71.8342 96.9955C72.0911 96.8909 72.3126 96.7255 72.4759 96.5164C72.6391 96.3074 72.7382 96.0622 72.7628 95.8065Z" fill="#603B17"/>
<path d="M71.8337 93.849C73.0699 93.1968 73.0699 92.1231 71.8337 91.4709L25.9122 67.2588C25.2106 66.9371 24.4363 66.7695 23.6512 66.7695C22.8662 66.7695 22.0919 66.9371 21.3903 67.2588L17.4784 69.3208C16.2312 69.978 16.2312 71.0516 17.4784 71.7038L63.3999 95.916C64.1005 96.2377 64.8739 96.4052 65.6581 96.4052C66.4423 96.4052 67.2156 96.2377 67.9162 95.916L71.8337 93.849Z" fill="#764D2A"/>
<path d="M73.9711 80.97C67.8285 77.0316 50.895 79.4649 50.7356 79.5101L50.5928 57.7161C51.2521 57.6208 68.1746 55.343 74.4876 59.3165V80.3027L73.9711 80.97Z" fill="#0D8175"/>
<path d="M72.0486 78.7521C68.9718 77.538 64.417 77.7237 64.417 77.7237V75.4911C64.417 75.4911 68.8124 75.2703 72.109 76.6801L72.0486 78.7521Z" fill="#D2D3D4"/>
<path d="M72.0486 75.3001C68.9718 74.081 64.417 74.2666 64.417 74.2666V72.034C64.417 72.034 68.8124 71.8133 72.109 73.2231L72.0486 75.3001Z" fill="#EE3059"/>
<path d="M68.2081 63.8176C67.9279 65.0117 66.4444 65.7391 64.9115 65.4381C63.3786 65.1371 62.3346 63.933 62.6149 62.7289C62.8951 61.5248 64.373 60.8024 65.9114 61.1034C67.4499 61.4044 68.4883 62.6185 68.2081 63.8176Z" fill="#D2D3D4"/>
<path d="M66.6588 68.5935C60.5326 67.3693 52.2637 69.1905 52.2637 69.1905V65.0364C52.2637 65.0364 60.1205 62.9293 66.6368 64.4595L66.6588 68.5935Z" fill="#F6851F"/>
<path d="M62.5761 70.74C62.5761 72.6114 60.6146 74.1315 58.1806 74.1315C55.7466 74.1315 53.7852 72.6264 53.7852 70.74C53.7852 68.8536 55.7466 67.3535 58.1806 67.3535C60.6146 67.3535 62.5761 68.8687 62.5761 70.74Z" fill="#EE3059"/>
<path d="M65.4054 72.9578C65.4054 74.1819 64.1197 75.1753 62.5373 75.1753C60.955 75.1753 59.6748 74.1719 59.6748 72.9578C59.6748 71.7436 60.955 70.7402 62.5373 70.7402C64.1197 70.7402 65.4054 71.7336 65.4054 72.9578Z" fill="#4DC1B8"/>
<path d="M47.818 64.4432H50.7245C50.7245 64.4432 50.8564 58.8492 50.7245 58.5231C48.6422 57.6351 47.6367 59.7422 47.6367 59.7422L47.818 64.4432Z" fill="#F6851F"/>
<path d="M74.4876 59.316C68.3394 55.3826 50.906 58.4982 50.7356 58.5233L50.5928 57.7155C51.3015 57.6102 68.0427 55.207 74.4876 59.316Z" fill="white"/>
<path d="M48.9562 61.4544C47.9508 61.7654 47.1871 59.9844 47.1871 59.9844V80.6294C47.1625 80.8831 47.1923 81.1388 47.275 81.382C47.36 81.7813 47.603 82.1381 47.9577 82.3842C48.3124 82.6304 48.7539 82.7486 49.198 82.7165C50.0211 82.667 50.8337 82.5203 51.6155 82.28C53.4176 81.8084 55.6593 81.2265 57.7801 82.1747L57.9779 71.3479L57.7801 61.2336C57.7801 61.2336 56.3076 59.2168 48.9562 61.4544Z" fill="#2B4F69"/>
<path d="M57.8018 61.2383V82.1794L58.1932 81.4469V60.5059L57.8018 61.2383Z" fill="#BDBEC0"/>
<path d="M49.2195 61.78C48.7754 61.8121 48.3339 61.6939 47.9793 61.4477C47.6246 61.2016 47.3815 60.8448 47.2965 60.4455C47.1858 60.1705 47.1505 59.8749 47.1936 59.5846C47.2367 59.2943 47.3569 59.018 47.5438 58.7798C48.3954 57.7363 50.4338 57.7012 50.6646 57.7012L50.736 58.5189C50.236 58.5189 48.758 58.6594 48.258 59.2715C48.1569 59.4087 48.0944 59.5666 48.0762 59.7311C48.0579 59.8957 48.0846 60.0618 48.1537 60.2147C48.4778 61.2181 49.2525 61.1128 51.3953 60.5559C53.3403 60.0542 55.7908 59.422 58.1973 60.5107L57.8017 61.2382C55.6809 60.295 53.4392 60.8769 51.637 61.3435C50.8553 61.5838 50.0426 61.7305 49.2195 61.78Z" fill="white"/>
<path d="M35.2141 35.6504C27.077 35.6504 31.423 49.0459 31.423 49.0459L32.5219 72.4453L38.2744 71.9135C38.2744 71.9135 40.6919 71.8533 41.7523 67.4533C41.9941 57.2035 41.7523 43.4017 41.7523 43.4017C41.7523 43.4017 42.3622 35.6454 35.2141 35.6504Z" fill="#AC1E3C"/>
<path d="M46.1705 66.1797C42.9069 68.0059 34.2698 67.3236 32.5171 72.4359C31.9677 74.1216 35.962 77.2272 38.3411 77.0466C41.2091 76.8258 42.5113 74.4929 46.1815 73.2336C47.6155 72.3857 47.9232 66.5108 46.1705 66.1797Z" fill="#C8A597"/>
<path d="M47.1861 67.5355C47.1861 67.5355 51.3673 68.0823 51.7794 69.9888C52.1914 71.8953 50.6805 74.0626 50.3289 74.4389C49.9772 74.8152 48.0487 75.3671 47.0323 74.8202C46.0158 74.2734 44.8346 72.7482 44.1697 70.4905C43.1313 66.9786 47.1696 65.7344 47.1696 65.7344L47.1861 67.5355Z" fill="#F0C7B5"/>
<path d="M205.006 89.7603C209.978 85.9875 217.159 76.2595 222.879 83.198C229.296 90.9845 211.483 96.8444 211.483 96.8444C207.242 98.9465 203.132 91.4159 205.006 89.7603Z" fill="#DE1B22"/>
<path d="M177.732 165.518C176.117 167.304 172.825 168.673 171.089 168.648C171.089 168.648 168.892 170.755 169.381 172.13C170.952 173.866 174.617 173.098 178.974 173.766C181.034 174.428 183.43 176.936 185.017 176.776C186.369 176.64 189.935 175.301 188.166 172.26C187.182 170.319 186.517 169.491 186.133 167.805L177.732 165.518Z" fill="white"/>
<path d="M181.22 123.099C181.22 123.099 172.506 120.836 170.973 127.865C169.523 132.18 172.572 137.684 174.682 145.425C177.308 153.537 178.715 161.404 178.149 164.64C178.053 164.953 177.913 165.254 177.731 165.533C177.731 165.533 177.182 167.761 180.957 168.99C184.731 170.219 186.127 167.831 186.127 167.831C184.786 162.187 186.028 154.711 185.127 149.77L181.22 123.099Z" fill="#141416"/>
<path d="M165.007 172.129C164.628 173.484 161.419 174.226 158.694 174.592C151.958 175.495 155.354 179.715 158.101 180.613C160.848 181.511 163.925 181.616 165.914 182.143C176.864 185.103 177.644 181.225 177.644 181.225C178.089 178.862 176.809 175.581 175.793 173.137L165.007 172.129Z" fill="white"/>
<path d="M156.93 136.418C156.26 139.629 166.348 160.766 165.007 172.109C165.007 172.109 164.243 175.476 169.403 175.817C174.562 176.158 175.814 173.097 175.814 173.097C175.336 171.969 174.919 171.02 174.754 170.428C172.441 162.065 174.798 154.319 172.617 144.3L156.93 136.418Z" fill="#313133"/>
<path d="M161.266 139.604C166.178 145.313 172.595 144.32 172.595 144.32C172.595 144.32 166.002 143.196 161.266 139.604Z" fill="#141416"/>
<path d="M221.461 189.227V189.779C220.564 188.958 219.549 188.253 218.445 187.682C211.208 183.864 199.467 183.864 192.226 187.682C191.124 188.248 190.114 188.952 189.226 189.774V189.227H186.803V191.866C186.841 194.344 188.643 196.808 192.226 198.694C199.467 202.517 211.208 202.517 218.445 198.694C222.065 196.788 223.878 194.284 223.878 191.786V189.227H221.461Z" fill="#0D8175"/>
<path d="M192.226 195.855C199.467 199.673 211.209 199.673 218.445 195.855C222.065 193.949 223.878 191.445 223.878 188.942C223.878 186.438 222.071 183.925 218.445 182.033C211.209 178.215 199.467 178.215 192.226 182.033C188.687 183.895 186.885 186.328 186.803 188.771C186.803 188.831 186.803 188.887 186.803 188.942C186.797 191.445 188.632 193.949 192.226 195.855Z" fill="#15A89F"/>
<path opacity="0.3" d="M201.434 190.361C202.643 190.92 203.98 191.211 205.335 191.211C206.69 191.211 208.027 190.92 209.236 190.361C210.335 189.794 210.846 189.046 210.846 188.304C210.846 187.561 210.296 186.799 209.236 186.247C208.027 185.688 206.69 185.396 205.335 185.396C203.98 185.396 202.643 185.688 201.434 186.247C200.385 186.804 199.846 187.526 199.824 188.254V188.309C199.824 189.046 200.363 189.794 201.434 190.361Z" fill="#010101"/>
<path d="M200.906 168.111H201.483V168.241C201.697 168.045 201.939 167.876 202.203 167.739C203.175 167.292 204.249 167.059 205.338 167.059C206.426 167.059 207.5 167.292 208.472 167.739C208.732 167.879 208.972 168.048 209.186 168.241V168.116H209.736V188.033C209.736 188.635 209.307 189.227 208.445 189.689C207.472 190.137 206.399 190.37 205.31 190.37C204.221 190.37 203.148 190.137 202.176 189.689C201.313 189.227 200.879 188.635 200.879 188.033V187.993L200.906 168.111Z" fill="#102034"/>
<path d="M208.466 169.761C207.496 170.211 206.423 170.446 205.335 170.446C204.246 170.446 203.173 170.211 202.203 169.761C201.335 169.304 200.906 168.707 200.906 168.11C200.941 167.754 201.078 167.413 201.305 167.122C201.532 166.831 201.84 166.601 202.197 166.455C203.169 166.004 204.243 165.77 205.332 165.77C206.421 165.77 207.495 166.004 208.466 166.455C208.816 166.599 209.118 166.823 209.345 167.105C209.572 167.387 209.716 167.718 209.763 168.065V168.11C209.727 168.466 209.588 168.806 209.36 169.096C209.132 169.387 208.824 169.616 208.466 169.761Z" fill="#1D384E"/>
<path d="M240.516 146.111L205.769 127.794C204.918 127.342 204.154 127.358 203.632 127.719L169.567 145.685L212.258 176.243L246.323 158.277L240.516 146.111Z" fill="#AC1E3C"/>
<path d="M206.439 164.071L171.698 145.759C170.138 144.937 168.863 145.609 168.863 147.264V150.405C168.919 151.302 169.204 152.174 169.697 152.951C170.189 153.729 170.875 154.389 171.698 154.88L212.257 176.243L206.439 164.071Z" fill="#EE3059"/>
<path d="M185.127 149.764C184.836 148.038 198.572 137.888 201.544 132.565C204.517 127.242 200.874 124.237 196.215 123.846C191.122 122.943 181.221 123.098 181.221 123.098L179.43 127.864L185.127 149.764Z" fill="#141416"/>
<path d="M172.594 144.32C172.594 144.32 196.071 157.038 208.692 156.326C214.186 155.824 227.23 150.305 231.581 141.746C235.317 134.406 225.609 125.662 225.328 124.508C213.829 124.914 201.082 131.231 198.027 132.565C188.241 130.44 178.208 129.412 168.149 129.505C164.303 129.59 161.556 129.886 160.375 130.508C158.776 131.441 157.402 134.171 156.93 136.418L172.594 144.32Z" fill="#313133"/>
<path d="M198.03 132.564C193.948 139.498 198.03 144.289 198.03 144.289C196.95 140.443 196.95 136.411 198.03 132.564Z" fill="#141416"/>
<path d="M170.303 100.411C170.303 100.411 166.243 99.3076 166.292 100.707C166.342 102.107 169.589 103.301 171.441 103.216L171.215 101.646L170.303 100.411Z" fill="#C8A597"/>
<path d="M171.051 96.8943C171.419 97.2004 171.342 97.8275 170.886 98.2891L158.656 110.536C158.593 110.66 158.499 110.768 158.382 110.853C158.265 110.938 158.128 110.996 157.982 111.023C157.835 111.05 157.684 111.045 157.54 111.009C157.396 110.973 157.263 110.906 157.153 110.814C157.042 110.723 156.957 110.608 156.904 110.481C156.851 110.353 156.831 110.216 156.847 110.081C156.863 109.945 156.914 109.815 156.995 109.7C157.076 109.586 157.186 109.49 157.315 109.422L169.54 97.1703C169.702 96.9525 169.951 96.8016 170.233 96.75C170.516 96.6983 170.81 96.7502 171.051 96.8943Z" fill="#D2D3D4"/>
<path d="M171.441 103.201C174.188 103.051 178.583 102.052 181.143 100.693C189.989 101.019 202.396 103.352 205.665 103.141C208.934 102.93 210.456 102.328 210.456 102.328L209.357 96.1874C209.357 96.1874 208.137 92.836 206.17 93.0317C199.577 94.7224 179.962 96.2225 179.962 96.2225C179.962 96.2225 174.38 94.5569 171.847 94.301C170.633 94.1756 167.875 95.6104 166.941 96.1473C166.007 96.6841 163.518 100.547 164.902 101.546C165.825 102.213 166.1 100.276 167.309 100.713L170.99 102.072L171.441 103.201Z" fill="#F0C7B5"/>
<path d="M196.165 89.6302C196.021 87.8738 195.474 86.1646 194.561 84.6131C194.031 83.1445 193.866 81.5868 194.077 80.0527L194.627 74.1627L203.154 70.7461L207.396 75.7631C207.943 77.8298 208.872 79.7961 210.143 81.5779C210.407 83.7352 210.819 87.2019 210.819 87.2019L202.451 90.764L196.165 89.6302Z" fill="#F0C7B5"/>
<path d="M197.347 128.892C197.347 128.892 197.638 131.045 198.028 132.575C214.165 138.796 225.329 124.518 225.329 124.518L224.104 121.598L197.347 128.892Z" fill="#3C2517"/>
<path d="M186.023 111.117C185.605 110.209 184.875 106.561 185.539 104.314C186.331 101.68 189.089 98.514 191.633 95.7546C194.319 93.7077 195.737 91.6707 196.165 89.6288C198.682 86.2273 210.149 81.6016 210.149 81.6016C211.028 81.9879 212.434 82.0431 214.445 82.0029C217.401 82.5046 221.318 83.9295 223.434 86.9899C228.346 94.0137 224.104 121.607 224.104 121.607C224.104 121.607 211.374 135.404 197.347 128.902C195.067 114.002 187.693 115.737 186.023 111.117Z" fill="#EC1C24"/>
<path d="M178.11 67.1427C177.083 73.2283 180.61 75.8422 181.621 76.966C183.149 82.4396 188.725 85.8813 190.154 85.6906C191.582 85.5 194.313 85.1889 194.989 84.3962C196.434 82.6754 195.648 77.0312 195.648 77.0312L185.61 66.5657C185.61 66.5657 178.742 64.6292 178.11 67.1427Z" fill="#F0C7B5"/>
<path d="M202.44 59.9192C202.44 59.9192 193.726 51.2196 184.644 56.337C177.501 60.3506 177.66 66.6319 178.105 68.4882C178.933 71.4475 180.78 74.0856 183.374 76.0138C183.374 76.0138 182.66 72.0804 186.352 72.6273C188.885 73.0036 188.44 75.0304 190.512 76.1392C192.676 77.2981 197.396 76.6911 199.154 76.3148C206.533 74.7194 206.533 68.5334 206.533 68.5334L206.104 63.2454L202.44 59.9192Z" fill="#764D2A"/>
<path d="M199.84 58.6946C199.958 59.413 199.839 60.147 199.5 60.8038C199.16 61.4607 198.615 62.0109 197.933 62.3848C197.251 62.7587 196.463 62.9396 195.669 62.9045C194.874 62.8695 194.109 62.6201 193.469 62.1879C192.83 61.7557 192.346 61.1601 192.077 60.4764C191.808 59.7927 191.768 59.0517 191.961 58.3469C192.153 57.6422 192.57 57.0055 193.159 56.5173C193.748 56.029 194.482 55.7113 195.269 55.6041C195.792 55.5316 196.325 55.5541 196.838 55.6703C197.351 55.7866 197.834 55.9942 198.259 56.2815C198.683 56.5687 199.042 56.9297 199.313 57.3438C199.585 57.758 199.764 58.217 199.84 58.6946Z" fill="#15A89F"/>
<path d="M197.583 56.412C195.347 56.4973 193.38 58.2834 195.643 61.6398C201.401 81.7079 214.198 82.6862 216.368 83.1578C215.274 76.2142 217.324 54.9671 197.583 56.412Z" fill="#603B17"/>
<path d="M173.012 109.468C165.907 109.468 162.385 110.591 156.199 110.707C153.172 108.404 153.133 107.737 151.622 108.956C150.985 109.458 146.43 109.924 146.43 109.924C145.842 111.088 146.897 115.112 150.562 116.707C152.408 117.51 156.82 116.145 156.82 116.145C163.743 116.486 167.759 118.237 175.742 117.149C177.94 116.421 177.978 114.801 185.236 111.796C186.165 110.737 184.687 106.081 184.687 106.081L178.742 104.727C178.742 104.727 174.011 108.991 173.012 109.468Z" fill="#F0C7B5"/>
<path d="M178.742 104.725C183.687 100.953 190.89 91.2245 196.61 98.158C203.055 105.944 185.237 111.834 185.237 111.834C181 113.901 176.885 106.371 178.742 104.725Z" fill="#DE1B22"/>
<path d="M246.323 105.865L243.339 104.31C242.466 103.843 241.691 103.868 241.142 104.26L207.159 122.16L214.181 176.409L248.246 158.489C248.557 158.312 248.808 158.059 248.968 157.758C249.129 157.457 249.193 157.121 249.152 156.788V110.33C249.095 109.436 248.809 108.566 248.318 107.791C247.826 107.016 247.143 106.356 246.323 105.865Z" fill="#AC1E3C"/>
<path d="M212.258 176.244C213.813 177.062 215.087 176.395 215.087 174.739V128.307C215.032 127.411 214.747 126.539 214.255 125.762C213.764 124.984 213.08 124.323 212.258 123.831L209.274 122.261C207.719 121.443 206.45 122.111 206.45 123.766V164.088L207.945 170.861L212.258 176.244Z" fill="#EE3059"/>
</g>
<defs>
<filter id="filter0_d_477_5059" x="0.490234" y="0.351562" width="252.656" height="220.957" filterUnits="userSpaceOnUse" color-interpolation-filters="sRGB">
<feFlood flood-opacity="0" result="BackgroundImageFix"/>
<feColorMatrix in="SourceAlpha" type="matrix" values="0 0 0 0 0 0 0 0 0 0 0 0 0 0 0 0 0 0 127 0" result="hardAlpha"/>
<feOffset dy="4"/>
<feGaussianBlur stdDeviation="2"/>
<feComposite in2="hardAlpha" operator="out"/>
<feColorMatrix type="matrix" values="0 0 0 0 0 0 0 0 0 0 0 0 0 0 0 0 0 0 0.25 0"/>
<feBlend mode="normal" in2="BackgroundImageFix" result="effect1_dropShadow_477_5059"/>
<feBlend mode="normal" in="SourceGraphic" in2="effect1_dropShadow_477_5059" result="shape"/>
</filter>
<clipPath id="clip0_477_5059">
<rect width="244.657" height="212.958" fill="white" transform="translate(4.49023 0.351562)"/>
</clipPath>
</defs>
</svg>
