<svg width="262" height="246" viewBox="0 0 262 246" fill="none" xmlns="http://www.w3.org/2000/svg">
<g clip-path="url(#clip0_477_5543)">
<path opacity="0.3" d="M213.075 182.954C217.499 182.513 221.783 181.315 225.688 179.427C235.829 174.259 235.829 165.872 225.688 160.704C215.546 155.536 199.093 155.536 188.952 160.704C185.356 162.538 183.045 164.769 181.995 167.122L77.3292 113.777L2.88184 151.718L186.235 245.133L260.677 207.193L213.075 182.954Z" fill="#010101"/>
<path d="M196.771 29.4692C206.005 36.2644 191.207 45.0846 191.207 45.0846C191.207 45.0846 186.961 57.0833 179.941 62.1306C175.21 60.8511 172.163 58.2267 172.613 57.1437C179.867 47.845 185.574 39.0097 185.574 39.0097C185.574 39.0097 190.493 24.8501 196.771 29.4692Z" fill="#D2D3D4"/>
<path d="M205.959 158.111C204.481 159.909 193.872 164.821 193.016 166.04C192.16 167.259 192.73 169.4 195.087 170.271C196.229 170.704 200.001 170.271 202.506 169.138C204.584 168.196 210.924 164.539 210.924 164.539C210.924 164.539 214.651 164.906 217.162 163.959C218.908 163.3 216.443 159.758 216.443 159.758L209.115 158.494C209.115 158.494 207.443 156.313 205.959 158.111Z" fill="white"/>
<path d="M195.663 81.9629C195.435 104.006 204.543 115.828 203.556 124.825C203.1 129.031 208.173 135.634 205.405 157.718C212.254 162.835 220.363 159.158 220.363 159.158C220.363 159.158 224.438 138.722 213.749 123.611C213.469 121.092 216.089 88.5969 216.089 88.5969C216.089 88.5969 196.765 80.3157 195.663 81.9629Z" fill="#D2D3D4"/>
<path d="M215.381 164.035C212.83 167.823 204.578 173.339 205.348 175.248C206.119 177.157 210.536 178.336 213.909 177.429C217.282 176.522 225.831 168.967 226.561 168.055C227.292 167.143 226.561 163.652 226.561 163.652C226.561 163.652 216.426 162.363 215.381 164.035Z" fill="white"/>
<path d="M215.382 164.034C221.42 170.779 226.556 163.651 226.556 163.651C226.556 163.651 214.902 163.097 215.382 164.034Z" fill="#BDBEC0"/>
<path d="M233.25 85.4182C233.952 102.338 226.076 126.033 226.116 127.665C232.862 144.792 227.298 162.347 227.298 162.347C227.298 162.347 225.586 167.978 217.111 164.991C213.687 163.777 214.103 161.269 214.103 161.269C214.103 161.269 216.272 145.754 214.423 136.642C208.025 124.416 210.685 92.7725 210.685 92.7725C210.685 92.7725 201.285 88.8687 195.664 81.9626C197.159 79.57 212.728 78.1797 212.728 78.1797C212.728 78.1797 232.554 83.3076 233.25 85.4182Z" fill="#313133"/>
<path d="M213.333 24.7306C213.836 27.0395 215.143 29.1524 217.071 30.7753L217.755 35.8629L212.185 42.5977L205.851 43.3381L198.215 40.6432V34.4172L204.321 26.0151L210.234 23.4512C210.234 23.4512 210.359 23.7232 213.333 24.7306Z" fill="#C8A597"/>
<path d="M195.584 82.0328C223.645 100.393 233.25 85.4178 233.25 85.4178C233.25 85.4178 195.761 80.4158 195.584 82.0328Z" fill="#BDBEC0"/>
<path d="M229.204 40.3401L217.071 30.7693C217.071 30.7693 210.222 43.2717 203.574 41.2518C198.221 39.6197 201.405 30.7441 201.405 30.7441C201.405 30.7441 198.027 32.2805 196.999 32.5827C195.053 40.9747 186.464 49.7647 188.867 54.2881C190.465 57.3105 194.985 59.0332 194.985 59.0332C194.985 59.0332 198.951 66.0853 196.086 81.4287C222.104 96.7469 234.471 84.451 234.471 84.451C232.565 73.2634 226.293 71.2988 225.54 69.4955C224.398 66.7704 231.498 55.4819 231.498 45.9163C231.789 43.1055 229.204 40.3401 229.204 40.3401Z" fill="#EC1C24"/>
<path d="M196.058 59.3809C196.058 59.3809 213.144 63.8287 212.785 65.3449C212.425 66.8611 196.058 59.3809 196.058 59.3809Z" fill="#BDBEC0"/>
<path d="M208.07 5.15521C208.071 6.07356 208.381 6.97099 208.96 7.73409C209.539 8.49718 210.361 9.09167 211.322 9.44242C212.284 9.79316 213.342 9.88441 214.362 9.70464C215.382 9.52487 216.32 9.08215 217.055 8.43243C217.79 7.78271 218.291 6.95516 218.493 6.05439C218.696 5.15362 218.591 4.22006 218.193 3.37171C217.794 2.52337 217.12 1.79832 216.255 1.28822C215.39 0.77812 214.373 0.50586 213.332 0.505859C212.641 0.505859 211.956 0.626156 211.317 0.85987C210.678 1.09358 210.098 1.43613 209.609 1.86793C209.121 2.29973 208.733 2.81231 208.469 3.37637C208.205 3.94042 208.07 4.54489 208.07 5.15521Z" fill="#141416"/>
<path d="M206.889 8.55512C206.605 9.01743 206.483 9.54377 206.538 10.0674C206.594 10.591 206.824 11.0882 207.2 11.4961C207.577 11.9039 208.081 12.204 208.651 12.3582C209.221 12.5124 209.829 12.5138 210.4 12.3622C210.97 12.2107 211.477 11.913 211.856 11.5069C212.234 11.1008 212.467 10.6046 212.526 10.0813C212.585 9.55794 212.466 9.03104 212.185 8.56742C211.903 8.10379 211.472 7.72433 210.947 7.47715C210.6 7.31275 210.22 7.21022 209.829 7.17542C209.437 7.14062 209.042 7.17423 208.665 7.27433C208.288 7.37443 207.937 7.53906 207.633 7.75882C207.328 7.97858 207.075 8.24916 206.889 8.55512Z" fill="#EE3059"/>
<path d="M189.437 23.1525C189.229 25.5966 190.016 28.026 191.657 30.0031L193.712 33.096C193.712 33.096 193.54 35.2771 193.712 35.6599C193.883 36.0428 195.241 36.1334 195.241 36.1334C195.241 36.1334 198.254 39.8056 200.697 39.5336C204.418 39.1306 209.549 34.2294 210.051 32.9348C210.341 32.082 210.392 31.1795 210.199 30.3054C210.199 30.3054 212.716 29.4642 212.482 25.6258C212.659 24.1146 213.321 18.7601 213.321 18.7601L200.195 14.2266C200.195 14.2266 189.517 21.9285 189.437 23.1525Z" fill="#F0C7B5"/>
<path d="M212.493 25.6262C212.366 25.3454 212.119 25.1203 211.805 24.9995C211.49 24.8788 211.135 24.8723 210.816 24.9815C209.589 25.3542 208.367 28.0794 208.065 29.7668C206.615 27.0064 202.643 29.6711 200.195 25.8932C198.283 25.4197 193.483 26.6337 189.745 23.6668C188.29 22.5183 189.038 9.76403 201.958 7.60306C206.364 6.86762 218.229 10.2325 218.217 20.1961C218.212 24.4022 212.493 25.6262 212.493 25.6262Z" fill="#141416"/>
<path d="M163.996 223.923L33.7568 157.547V151.482L163.996 217.858V223.923Z" fill="#603B17"/>
<path d="M163.996 217.858L219.856 189.393V195.457L163.996 223.923V217.858Z" fill="#3C2517"/>
<path d="M163.995 217.856L33.7568 151.481L89.6223 123.016L219.855 189.391L163.995 217.856Z" fill="#764D2A"/>
<path d="M146.053 185.801L102.178 163.456V109.971L146.053 132.311V185.801Z" fill="#603B17"/>
<path d="M146.053 132.311L156.885 126.795V180.28L146.053 185.801V132.311Z" fill="#3C2517"/>
<path d="M146.053 132.31L102.178 109.97L113.01 104.449L156.885 126.794L146.053 132.31Z" fill="#764D2A"/>
<path d="M183.731 176.12L3.6416 84.3363V78.2715L183.731 170.065V176.12Z" fill="#603B17"/>
<path d="M183.73 170.064L259.125 131.896V137.961L183.73 176.118V170.064Z" fill="#3C2517"/>
<path d="M133.875 144.651L3.6416 78.2703L79.0363 40.1133L209.269 106.494L133.875 144.651Z" fill="#764D2A"/>
<path d="M259.307 123.087L78.5335 30.9717C78.2903 30.809 77.9982 30.7131 77.6937 30.6961C77.3892 30.6791 77.0858 30.7416 76.8214 30.876L1.3125 69.0128L185.693 170.18L260.939 132.22C261.171 132.072 261.354 131.874 261.471 131.644C261.589 131.414 261.635 131.161 261.607 130.91V126.639C261.566 125.929 261.336 125.238 260.937 124.621C260.537 124.004 259.979 123.479 259.307 123.087Z" fill="#858585"/>
<path d="M186.133 169.012C186.133 170.311 185.094 170.84 183.85 170.19L3.05921 78.0696C2.38795 77.6823 1.82874 77.1617 1.42639 76.5494C1.02404 75.9371 0.789718 75.2502 0.742188 74.5436V70.272C0.742188 68.9774 1.78085 68.4485 3.05921 69.0983L183.85 161.204C184.515 161.595 185.068 162.117 185.464 162.729C185.86 163.341 186.089 164.026 186.133 164.73V169.012Z" fill="#595959"/>
<path opacity="0.3" d="M214.594 124.059C213.669 113.879 200.538 116.528 194.191 113.854C194.625 112.745 195.293 111.719 196.16 110.831C196.16 110.831 196.195 110.761 196.246 110.62C197.775 109.93 199.322 108.721 199.539 107.804C200.68 102.953 195.892 99.0794 190.02 97.8654C188.405 97.2106 183.742 93.4578 179.022 90.5665L187.275 86.3604L147.143 65.9093L134.508 72.0093C127.089 69.9944 118.888 67.4758 117.558 67.2088L115.327 68.579C112.029 67.7748 108.789 66.7958 105.625 65.6473C105.625 65.6473 101.276 60.6101 96.6936 58.8773C90.804 56.671 85.9302 57.2301 73.6146 53.961C72.2678 53.5983 73.5005 50.9386 71.6799 49.0144C70.0192 47.2463 64.94 49.2612 63.6103 50.1377C59.1417 53.0694 48.8407 53.019 47.0601 57.9706C46.9657 58.2104 46.9657 58.4713 47.0601 58.7111C46.8799 58.4283 46.6181 58.1928 46.3014 58.0282C45.9846 57.8636 45.6242 57.776 45.2567 57.7741C43.4989 57.8245 39.1331 59.6782 37.6265 62.3479C36.8789 63.6778 40.1775 64.1966 41.5186 65.2997C43.3277 66.8109 45.7532 68.8258 47.0144 69.2237C68.193 74.0393 77.9234 86.0632 87.1572 86.7382C89.2745 87.9773 90.6898 88.9042 91.6372 89.5842C91.6201 89.8728 91.6201 90.162 91.6372 90.4506C91.4108 91.7467 91.3419 93.0605 91.4317 94.3696C91.3176 95.4727 72.302 104.797 72.302 104.797V113.36L112.405 133.811V125.248L132.231 115.103C134.032 115.594 135.882 115.931 137.755 116.11C147.56 118.755 154.031 120.724 154.031 120.724C154.031 120.724 161.411 125.626 167.888 125.313C169.543 125.238 172.322 123.585 173.024 122.291C173.024 122.291 177.053 121.037 179.342 121.339C181.63 121.641 184.547 122.991 184.547 122.991L184.518 123.021C184.318 123.193 184.113 123.349 183.947 123.525C184.009 123.515 184.07 123.501 184.13 123.485C182.989 124.83 180.05 128.426 180.05 129.57C180.05 130.98 185.437 134.164 185.437 134.164C185.437 134.164 184.752 135.383 185.437 135.781C186.122 136.179 191.269 136.491 191.269 136.491C192.098 137.442 193.039 138.311 194.077 139.085C193.063 139.133 192.054 138.933 191.161 138.506C193.792 142.535 197.564 141.528 197.564 141.528C197.564 141.528 197.764 142.173 196.651 142.843C205.24 142.984 209.589 139.004 209.589 139.004L209.018 140.722C209.018 140.722 221.613 133.307 214.594 124.059ZM100.175 78.2605L85.1484 74.4222C85.1484 74.4222 79.5555 69.3849 76.217 67.9443C66.1442 63.6274 60.0377 66.1913 50.1133 63.0229C48.7551 62.5897 48.2243 60.464 47.2598 59.0536C48.6523 60.2424 54.4107 59.5926 59.3244 59.8898C69.5969 60.5245 75.6748 61.9047 80.4401 64.0354C86.1471 66.554 89.0006 69.9592 97.4241 71.9187C99.4272 73.0974 100.888 74.4876 103.308 75.9484C102.241 76.7242 101.174 77.4797 100.175 78.2605Z" fill="#010101"/>
<path d="M186.778 86.1035L146.653 65.6523L118.797 79.1017L160.001 99.7493L186.778 86.1035Z" fill="white"/>
<path d="M180.426 104.388C180.426 104.388 176.186 95.165 166.375 92.5205C155.561 91.6138 156.2 85.0654 152.165 84.2796C152.165 84.2796 148.079 77.978 149.112 77.6052C150.989 76.9353 153.997 80.0684 155.178 80.5369C163.613 83.0001 162.54 81.1968 174.331 85.8965C180.283 88.3698 187.868 94.7922 190.025 95.6637C195.897 96.8776 200.691 100.746 199.544 105.607C199.225 106.947 196.08 108.891 194.282 108.977C187.805 109.284 180.426 104.388 180.426 104.388Z" fill="#C8A597"/>
<path d="M195.835 137.645C194.06 137.594 191.27 134.3 191.27 134.3C191.27 134.3 186.133 133.998 185.437 133.595C184.741 133.192 185.437 131.973 185.437 131.973C185.437 131.973 180.05 128.794 180.05 127.379C180.05 125.963 184.57 120.785 184.57 120.785C182.926 120.034 181.175 119.482 179.365 119.143C177.082 118.841 173.047 120.095 173.047 120.095L135.284 107.325C135.284 107.325 146.053 87.4486 146.738 87.232C147.423 87.0154 157.581 85.4941 157.581 85.4941C157.581 85.4941 160.286 89.811 163.197 90.4407C166.108 91.0704 185.557 92.3649 191.355 96.9891C198.774 102.953 196.166 108.61 196.166 108.61C196.166 108.61 193.763 111.038 194.106 112.756C194.448 114.473 201.428 117.793 201.428 117.793L201.999 127.197L200.315 137.594C200.315 137.594 197.593 137.695 195.835 137.645Z" fill="#F0C7B5"/>
<path d="M139.49 106.309C145.402 107.88 160.708 107.523 165.342 110.958C169.337 113.597 160.44 113.582 160.44 113.582L141.55 109.945C141.55 109.945 138.577 107.185 139.49 106.309Z" fill="#C8A597"/>
<path d="M112.644 85.2119C112.644 85.2119 106.892 78.1598 103.901 74.13C101.139 72.5332 99.6268 71.017 97.4753 69.7527C89.0404 67.7982 86.1812 64.3931 80.4914 61.8694C75.6975 59.7488 69.6139 58.3434 59.3756 57.7288C53.3833 57.3561 46.1355 58.4189 47.0714 55.8046C48.8463 50.853 59.1473 50.9034 63.6216 47.9717C64.9513 47.1053 70.0305 45.0854 71.6912 46.8535C73.5118 48.7878 72.2619 51.4373 73.6259 51.795C85.9415 55.0692 90.8153 54.505 96.7049 56.7164C101.27 58.4341 105.636 63.4864 105.636 63.4864C105.636 63.4864 112.159 65.8589 116.48 66.6498L125.519 82.8696L119.521 86.6375L112.644 85.2119Z" fill="#F0C7B5"/>
<path d="M93.4636 88.9798C93.4636 88.9798 92.893 87.8917 87.1289 84.5269C77.895 83.8569 68.1647 71.8331 46.9861 67.0125C45.7249 66.6347 43.2994 64.5845 41.4903 63.0885C40.1492 61.9853 36.8505 61.4715 37.5982 60.1417C39.1048 57.4669 43.4706 55.6082 45.2284 55.5578C47.8992 55.4722 48.0248 60.1518 50.1135 60.8167C60.038 63.98 66.1444 61.4211 76.2172 65.733C79.5558 67.1636 85.1486 72.2159 85.1486 72.2159L100.643 76.1701L107.063 84.2901L103.257 88.4761L93.4636 88.9798Z" fill="#F0C7B5"/>
<path d="M90.621 93.5134C90.5068 94.6166 71.4912 103.94 71.4912 103.94L111.617 124.387L134.861 112.499C137.96 109.411 134.605 97.3518 157.975 85.474C154.779 83.2475 149.545 74.7145 141.647 73.1026C133.749 71.4907 118.619 66.7053 116.765 66.3477C102.68 75.1628 89.782 80.7743 90.621 93.5134Z" fill="white"/>
<path d="M92.8066 95.1406C114.099 103.447 117.683 109.718 133.029 111.26C119.218 107.688 115.703 103.588 92.8066 95.1406Z" fill="#BDBEC0"/>
<path d="M111.617 139.881L71.4912 119.435V103.961L111.617 124.407V139.881Z" fill="white"/>
<path d="M50.1127 60.8359C50.1127 60.8359 45.1476 63.7323 46.4488 64.4728C47.75 65.2133 50.1127 60.8359 50.1127 60.8359Z" fill="#C8A597"/>
<path d="M154.032 118.539C154.032 118.539 147.56 116.564 137.755 113.919C126.912 113.013 112.006 104.067 107.971 103.276C107.971 103.276 100.66 100.097 99.6557 99.11C98.6512 98.1227 97.6753 95.0248 98.9594 92.8688C99.9296 91.262 105.659 98.0219 107.24 97.7197C108.821 97.4175 106.059 92.9343 107.092 92.5666C108.969 91.8916 111.463 99.7245 112.645 100.198C121.468 103.437 127.7 101.603 139.467 106.308C145.42 108.786 160.669 109.532 162.826 110.398C169.235 111.461 174.274 114.897 173.127 119.753C172.813 121.087 169.663 123.042 167.865 123.122C161.411 123.435 154.032 118.539 154.032 118.539Z" fill="#F0C7B5"/>
<path d="M197.546 139.352C197.546 139.352 193.774 140.359 191.143 136.33C192.781 137.11 195.07 137.272 197.546 135.826C194.459 134.41 194.351 132.083 194.351 132.083C194.351 132.083 196.633 131.751 196.525 130.028C196.291 125.716 190.533 128.451 186.561 123.147C187.748 123.329 191.868 123.364 192.056 121.878C192.245 120.392 190.299 120.266 183.93 121.339C188.204 117.309 194.807 117.813 194.807 117.813C194.807 117.813 190.07 116.196 190.15 113.063C191.822 114.413 193.129 113.869 193.129 113.869C192.803 112.772 192.548 111.661 192.365 110.539C197.472 115.073 213.583 110.539 214.622 121.853C221.641 131.086 209.012 138.526 209.012 138.526L209.582 136.808C209.582 136.808 205.234 140.783 196.645 140.647C197.729 139.992 197.546 139.352 197.546 139.352Z" fill="#F6851F"/>
<path d="M201.998 135.009C205.367 134.217 208.381 132.533 210.632 130.183C212.884 127.833 214.267 124.931 214.593 121.867C213.6 124.692 211.973 127.311 209.81 129.569C207.646 131.826 204.989 133.677 201.998 135.009Z" fill="#BA6328"/>
<path d="M228.028 40.8796C239.442 44.1941 227.914 58.258 227.914 58.258C227.914 58.258 222.966 71.4808 218.11 78.4724C212.557 76.0193 210.947 73.1632 210.947 73.1632L218.583 50.1632C218.583 50.1632 220.375 38.6532 228.028 40.8796Z" fill="#D2D3D4"/>
<path d="M175.238 92.0684C175.238 92.0684 166.718 95.3879 170.365 99.191C172.739 101.669 181.413 97.7806 182.275 97.9821C188.553 97.7806 189.42 95.811 189.42 95.811L182.001 93.5342L175.238 92.0684Z" fill="#C8A597"/>
<path d="M211.176 73.5059C212.788 73.5427 214.342 74.05 215.593 74.9486C216.844 75.8472 217.723 77.0864 218.092 78.4726C211.244 84.1193 197.022 92.5768 189.769 95.5991C187.908 96.9038 182.749 96.7174 181.779 96.8786C178.252 98.6366 171.461 99.3468 171.09 98.425C170.12 95.982 173.447 91.7104 177.459 91.5391C180.883 91.4031 186.824 91.121 186.824 91.121C197.085 84.2906 199.539 79.9132 211.176 73.5059Z" fill="#F0C7B5"/>
<path d="M158.368 86.6113C158.368 86.6113 154.374 89.0796 154.311 92.7618C154.248 96.444 156.594 99.3606 158.397 98.8871C161.433 98.0811 162.232 92.6207 163.722 92.6711C164.692 92.7467 163.881 96.6405 165.434 96.7613C166.986 96.8822 167.871 91.0642 167.871 91.0642L161.878 90.1978L158.368 86.6113Z" fill="#C8A597"/>
<path d="M173.96 56.4553C178.08 54.7678 181.282 61.4371 181.282 61.4371C177.778 68.9929 170.153 78.3722 168.27 82.5531C168.27 82.5531 168.361 87.0312 167.773 89.5599C166.221 91.7007 166.101 95.0605 165.673 94.9548C164.532 94.6676 165.496 89.983 164.828 89.8168C163.002 89.7009 159.527 98.4607 157.82 97.6446C156.114 96.8286 154.636 90.25 156.976 88.0135C158.986 86.039 160.872 83.969 162.626 81.8126C167.106 72.2873 165.673 67.6379 173.96 56.4553Z" fill="#F0C7B5"/>
</g>
<defs>
<clipPath id="clip0_477_5543">
<rect width="260.877" height="244.648" fill="white" transform="translate(0.742188 0.505859)"/>
</clipPath>
</defs>
</svg>
