<svg width="262" height="246" viewBox="0 0 262 246" fill="none" xmlns="http://www.w3.org/2000/svg">
<g clip-path="url(#clip0_242_4868)">
<path opacity="0.3" d="M213.076 182.954C217.499 182.513 221.784 181.315 225.688 179.427C235.829 174.259 235.829 165.872 225.688 160.704C215.547 155.536 199.094 155.536 188.952 160.704C185.357 162.538 183.046 164.769 181.995 167.122L77.3297 113.777L2.88232 151.718L186.236 245.133L260.677 207.193L213.076 182.954Z" fill="#010101"/>
<path d="M196.771 29.4692C206.004 36.2644 191.206 45.0846 191.206 45.0846C191.206 45.0846 186.96 57.0833 179.941 62.1306C175.21 60.8511 172.162 58.2267 172.613 57.1437C179.866 47.845 185.573 39.0097 185.573 39.0097C185.573 39.0097 190.493 24.8501 196.771 29.4692Z" fill="#D2D3D4"/>
<path d="M205.959 158.11C204.481 159.908 193.872 164.82 193.016 166.039C192.16 167.258 192.73 169.399 195.087 170.27C196.229 170.703 200.001 170.27 202.506 169.137C204.584 168.195 210.924 164.538 210.924 164.538C210.924 164.538 214.651 164.905 217.162 163.958C218.908 163.299 216.443 159.757 216.443 159.757L209.115 158.493C209.115 158.493 207.443 156.312 205.959 158.11Z" fill="white"/>
<path d="M195.663 81.9624C195.435 104.005 204.543 115.828 203.556 124.824C203.1 129.03 208.173 135.634 205.405 157.717C212.254 162.835 220.363 159.158 220.363 159.158C220.363 159.158 224.438 138.722 213.749 123.61C213.469 121.092 216.089 88.5964 216.089 88.5964C216.089 88.5964 196.765 80.3152 195.663 81.9624Z" fill="#D2D3D4"/>
<path d="M215.381 164.034C212.83 167.822 204.578 173.337 205.348 175.247C206.119 177.156 210.536 178.334 213.909 177.428C217.282 176.521 225.831 168.965 226.561 168.053C227.292 167.142 226.561 163.651 226.561 163.651C226.561 163.651 216.426 162.361 215.381 164.034Z" fill="white"/>
<path d="M215.381 164.034C221.419 170.779 226.555 163.651 226.555 163.651C226.555 163.651 214.902 163.097 215.381 164.034Z" fill="#BDBEC0"/>
<path d="M233.25 85.4177C233.952 102.338 226.076 126.033 226.116 127.665C232.862 144.791 227.298 162.346 227.298 162.346C227.298 162.346 225.586 167.978 217.111 164.991C213.687 163.777 214.103 161.268 214.103 161.268C214.103 161.268 216.272 145.754 214.423 136.641C208.025 124.416 210.685 92.772 210.685 92.772C210.685 92.772 201.285 88.8682 195.664 81.9622C197.159 79.5695 212.728 78.1792 212.728 78.1792C212.728 78.1792 232.554 83.3071 233.25 85.4177Z" fill="#313133"/>
<path d="M213.333 24.7292C213.836 27.0381 215.143 29.1509 217.071 30.7738L217.755 35.8614L212.185 42.5962L205.851 43.3367L198.215 40.6417V34.4157L204.321 26.0137L210.234 23.4497C210.234 23.4497 210.359 23.7217 213.333 24.7292Z" fill="#C8A597"/>
<path d="M195.583 82.0328C223.645 100.393 233.249 85.4178 233.249 85.4178C233.249 85.4178 195.76 80.4158 195.583 82.0328Z" fill="#BDBEC0"/>
<path d="M229.203 40.3396L217.07 30.7688C217.07 30.7688 210.222 43.2712 203.573 41.2513C198.22 39.6192 201.405 30.7437 201.405 30.7437C201.405 30.7437 198.026 32.28 196.999 32.5822C195.053 40.9743 186.464 49.7642 188.866 54.2876C190.464 57.31 194.984 59.0327 194.984 59.0327C194.984 59.0327 198.951 66.0848 196.086 81.4282C222.104 96.7464 234.471 84.4505 234.471 84.4505C232.565 73.2629 226.293 71.2983 225.539 69.495C224.398 66.7699 231.497 55.4815 231.497 45.9158C231.788 43.105 229.203 40.3396 229.203 40.3396Z" fill="#EC1C24"/>
<path d="M196.058 59.3804C196.058 59.3804 213.144 63.8282 212.785 65.3444C212.425 66.8606 196.058 59.3804 196.058 59.3804Z" fill="#BDBEC0"/>
<path d="M208.07 5.15473C208.071 6.07307 208.381 6.97051 208.96 7.7336C209.539 8.49669 210.361 9.09119 211.322 9.44193C212.284 9.79268 213.342 9.88392 214.362 9.70415C215.382 9.52438 216.32 9.08166 217.055 8.43194C217.79 7.78222 218.291 6.95468 218.493 6.0539C218.696 5.15313 218.591 4.21957 218.193 3.37122C217.794 2.52288 217.12 1.79784 216.255 1.28773C215.39 0.777631 214.373 0.505372 213.332 0.505371C212.641 0.505371 211.956 0.625668 211.317 0.859382C210.678 1.0931 210.098 1.43564 209.609 1.86744C209.121 2.29924 208.733 2.81182 208.469 3.37588C208.205 3.93994 208.07 4.5444 208.07 5.15473Z" fill="#141416"/>
<path d="M206.889 8.55463C206.605 9.01695 206.483 9.54328 206.539 10.0669C206.594 10.5905 206.825 11.0877 207.201 11.4956C207.577 11.9034 208.082 12.2035 208.651 12.3577C209.221 12.5119 209.83 12.5133 210.4 12.3618C210.971 12.2102 211.477 11.9125 211.856 11.5064C212.235 11.1003 212.468 10.6041 212.526 10.0808C212.585 9.55745 212.466 9.03056 212.185 8.56693C211.904 8.10331 211.473 7.72384 210.947 7.47667C210.6 7.31226 210.221 7.20973 209.829 7.17493C209.438 7.14013 209.042 7.17374 208.665 7.27384C208.288 7.37394 207.938 7.53858 207.633 7.75833C207.328 7.97809 207.076 8.24867 206.889 8.55463Z" fill="#EE3059"/>
<path d="M189.437 23.1525C189.229 25.5966 190.016 28.026 191.657 30.0031L193.712 33.096C193.712 33.096 193.54 35.2771 193.712 35.6599C193.883 36.0428 195.241 36.1334 195.241 36.1334C195.241 36.1334 198.254 39.8056 200.697 39.5336C204.418 39.1306 209.549 34.2294 210.051 32.9348C210.341 32.082 210.392 31.1795 210.199 30.3054C210.199 30.3054 212.716 29.4642 212.482 25.6258C212.659 24.1146 213.321 18.7601 213.321 18.7601L200.195 14.2266C200.195 14.2266 189.517 21.9285 189.437 23.1525Z" fill="#F0C7B5"/>
<path d="M212.493 25.6262C212.366 25.3454 212.119 25.1203 211.805 24.9995C211.49 24.8788 211.135 24.8723 210.816 24.9815C209.589 25.3542 208.367 28.0794 208.065 29.7668C206.615 27.0064 202.643 29.6711 200.195 25.8932C198.283 25.4197 193.483 26.6337 189.745 23.6668C188.29 22.5183 189.038 9.76403 201.958 7.60306C206.364 6.86762 218.229 10.2325 218.217 20.1961C218.212 24.4022 212.493 25.6262 212.493 25.6262Z" fill="#141416"/>
<path d="M163.995 223.921L33.7568 157.546V151.481L163.995 217.856V223.921Z" fill="#603B17"/>
<path d="M163.996 217.856L219.855 189.391V195.456L163.996 223.921V217.856Z" fill="#3C2517"/>
<path d="M163.995 217.856L33.7568 151.481L89.6223 123.016L219.855 189.391L163.995 217.856Z" fill="#764D2A"/>
<path d="M146.053 185.8L102.178 163.454V109.969L146.053 132.309V185.8Z" fill="#603B17"/>
<path d="M146.053 132.309L156.885 126.793V180.279L146.053 185.799V132.309Z" fill="#3C2517"/>
<path d="M146.053 132.31L102.178 109.97L113.01 104.449L156.885 126.794L146.053 132.31Z" fill="#764D2A"/>
<path d="M183.73 176.118L3.64111 84.3348V78.27L183.73 170.063V176.118Z" fill="#603B17"/>
<path d="M183.73 170.064L259.125 131.896V137.961L183.73 176.118V170.064Z" fill="#3C2517"/>
<path d="M133.874 144.651L3.64111 78.2702L79.0358 40.1133L209.269 106.494L133.874 144.651Z" fill="#764D2A"/>
<path d="M259.308 123.086L78.5339 30.9707C78.2908 30.808 77.9987 30.7121 77.6942 30.6951C77.3897 30.6781 77.0863 30.7407 76.8219 30.875L1.31299 69.0118L185.694 170.179L260.94 132.219C261.171 132.071 261.355 131.873 261.472 131.643C261.589 131.413 261.636 131.16 261.608 130.909V126.638C261.566 125.928 261.337 125.237 260.937 124.62C260.538 124.003 259.98 123.478 259.308 123.086Z" fill="#858585"/>
<path d="M186.133 169.011C186.133 170.31 185.094 170.839 183.85 170.189L3.05921 78.0686C2.38795 77.6814 1.82874 77.1607 1.42639 76.5484C1.02404 75.9361 0.789718 75.2492 0.742188 74.5426V70.271C0.742188 68.9765 1.78085 68.4475 3.05921 69.0974L183.85 161.203C184.515 161.594 185.068 162.116 185.464 162.728C185.86 163.34 186.089 164.025 186.133 164.729V169.011Z" fill="#595959"/>
<path opacity="0.3" d="M214.594 124.058C213.669 113.878 200.538 116.528 194.191 113.853C194.625 112.745 195.293 111.719 196.16 110.831C196.16 110.831 196.195 110.76 196.246 110.619C197.775 109.929 199.322 108.72 199.539 107.803C200.68 102.952 195.892 99.0789 190.02 97.8649C188.405 97.2101 183.742 93.4573 179.022 90.566L187.275 86.3599L147.143 65.9088L134.508 72.0088C127.089 69.9939 118.888 67.4753 117.558 67.2084L115.327 68.5785C112.029 67.7744 108.789 66.7954 105.625 65.6468C105.625 65.6468 101.276 60.6096 96.6936 58.8768C90.804 56.6705 85.9302 57.2296 73.6146 53.9605C72.2678 53.5978 73.5005 50.9381 71.6799 49.0139C70.0192 47.2458 64.94 49.2607 63.6103 50.1372C59.1417 53.0689 48.8407 53.0185 47.0601 57.9701C46.9657 58.2099 46.9657 58.4708 47.0601 58.7106C46.8799 58.4279 46.6181 58.1923 46.3014 58.0277C45.9846 57.8632 45.6242 57.7755 45.2567 57.7736C43.4989 57.824 39.1331 59.6777 37.6265 62.3474C36.8789 63.6773 40.1775 64.1961 41.5186 65.2992C43.3277 66.8104 45.7532 68.8253 47.0144 69.2232C68.193 74.0388 77.9234 86.0627 87.1572 86.7377C89.2745 87.9768 90.6898 88.9037 91.6372 89.5837C91.6201 89.8723 91.6201 90.1615 91.6372 90.4501C91.4108 91.7463 91.3419 93.06 91.4317 94.3691C91.3176 95.4722 72.302 104.796 72.302 104.796V113.359L112.405 133.811V125.247L132.231 115.102C134.032 115.593 135.882 115.93 137.755 116.11C147.56 118.754 154.031 120.724 154.031 120.724C154.031 120.724 161.411 125.625 167.888 125.313C169.543 125.237 172.322 123.585 173.024 122.29C173.024 122.29 177.053 121.036 179.342 121.338C181.63 121.641 184.547 122.991 184.547 122.991L184.518 123.021C184.318 123.192 184.113 123.348 183.947 123.525C184.009 123.514 184.07 123.501 184.13 123.484C182.989 124.829 180.05 128.426 180.05 129.569C180.05 130.98 185.437 134.163 185.437 134.163C185.437 134.163 184.752 135.382 185.437 135.78C186.122 136.178 191.269 136.49 191.269 136.49C192.098 137.441 193.039 138.311 194.077 139.085C193.063 139.133 192.054 138.932 191.161 138.505C193.792 142.535 197.564 141.528 197.564 141.528C197.564 141.528 197.764 142.172 196.651 142.842C205.24 142.983 209.589 139.004 209.589 139.004L209.018 140.722C209.018 140.722 221.613 133.307 214.594 124.058ZM100.175 78.26L85.1484 74.4217C85.1484 74.4217 79.5555 69.3844 76.217 67.9438C66.1442 63.6269 60.0377 66.1908 50.1133 63.0224C48.7551 62.5892 48.2243 60.4635 47.2598 59.0531C48.6523 60.2419 54.4107 59.5921 59.3244 59.8893C69.5969 60.524 75.6748 61.9042 80.4401 64.0349C86.1471 66.5535 89.0006 69.9587 97.4241 71.9182C99.4272 73.0969 100.888 74.4872 103.308 75.9479C102.241 76.7237 101.174 77.4793 100.175 78.26Z" fill="#010101"/>
<path d="M186.778 86.103L146.652 65.6519L118.796 79.1012L160.001 99.7488L186.778 86.103Z" fill="white"/>
<path d="M180.426 104.388C180.426 104.388 176.186 95.165 166.375 92.5205C155.561 91.6138 156.2 85.0654 152.165 84.2796C152.165 84.2796 148.079 77.978 149.112 77.6052C150.989 76.9353 153.997 80.0684 155.178 80.5369C163.613 83.0001 162.54 81.1968 174.331 85.8965C180.283 88.3698 187.868 94.7922 190.025 95.6637C195.897 96.8776 200.691 100.746 199.544 105.607C199.225 106.947 196.08 108.891 194.282 108.977C187.805 109.284 180.426 104.388 180.426 104.388Z" fill="#C8A597"/>
<path d="M195.835 137.644C194.06 137.593 191.269 134.299 191.269 134.299C191.269 134.299 186.133 133.997 185.437 133.594C184.74 133.191 185.437 131.972 185.437 131.972C185.437 131.972 180.049 128.793 180.049 127.378C180.049 125.962 184.569 120.784 184.569 120.784C182.925 120.034 181.175 119.481 179.364 119.142C177.082 118.84 173.047 120.094 173.047 120.094L135.284 107.325C135.284 107.325 146.053 87.4476 146.738 87.231C147.422 87.0144 157.581 85.4932 157.581 85.4932C157.581 85.4932 160.286 89.8101 163.196 90.4397C166.107 91.0694 185.556 92.3639 191.355 96.9881C198.774 102.952 196.166 108.609 196.166 108.609C196.166 108.609 193.763 111.037 194.105 112.755C194.448 114.472 201.427 117.792 201.427 117.792L201.998 127.196L200.315 137.593C200.315 137.593 197.592 137.694 195.835 137.644Z" fill="#F0C7B5"/>
<path d="M139.49 106.307C145.403 107.879 160.709 107.521 165.343 110.956C169.338 113.596 160.44 113.581 160.44 113.581L141.55 109.944C141.55 109.944 138.577 107.184 139.49 106.307Z" fill="#C8A597"/>
<path d="M112.644 85.2114C112.644 85.2114 106.892 78.1593 103.901 74.1295C101.139 72.5327 99.6268 71.0165 97.4753 69.7522C89.0404 67.7978 86.1812 64.3926 80.4914 61.8689C75.6975 59.7483 69.6139 58.3429 59.3756 57.7283C53.3833 57.3556 46.1355 58.4185 47.0714 55.8041C48.8463 50.8526 59.1473 50.9029 63.6216 47.9712C64.9513 47.1048 70.0305 45.0849 71.6912 46.853C73.5118 48.7873 72.2619 51.4369 73.6259 51.7945C85.9415 55.0687 90.8153 54.5045 96.7049 56.7159C101.27 58.4336 105.636 63.4859 105.636 63.4859C105.636 63.4859 112.159 65.8584 116.48 66.6493L125.519 82.8691L119.521 86.637L112.644 85.2114Z" fill="#F0C7B5"/>
<path d="M93.4632 88.9793C93.4632 88.9793 92.8925 87.8913 87.1284 84.5264C77.8946 83.8564 68.1642 71.8326 46.9856 67.012C45.7244 66.6342 43.2989 64.584 41.4898 63.088C40.1487 61.9848 36.8501 61.471 37.5977 60.1412C39.1043 57.4664 43.4701 55.6077 45.2279 55.5573C47.8987 55.4717 48.0243 60.1513 50.113 60.8162C60.0375 63.9796 66.1439 61.4206 76.2167 65.7325C79.5553 67.1631 85.1481 72.2154 85.1481 72.2154L100.643 76.1696L107.063 84.2896L103.256 88.4756L93.4632 88.9793Z" fill="#F0C7B5"/>
<path d="M90.621 93.5129C90.5068 94.6161 71.4912 103.94 71.4912 103.94L111.617 124.386L134.861 112.498C137.96 109.41 134.605 97.3513 157.975 85.4735C154.779 83.2471 149.545 74.714 141.647 73.1021C133.749 71.4902 118.619 66.7048 116.765 66.3472C102.68 75.1623 89.782 80.7738 90.621 93.5129Z" fill="white"/>
<path d="M92.8071 95.1396C114.1 103.446 117.684 109.717 133.03 111.259C119.219 107.687 115.703 103.587 92.8071 95.1396Z" fill="#BDBEC0"/>
<path d="M111.617 139.88L71.4912 119.434V103.96L111.617 124.406V139.88Z" fill="white"/>
<path d="M50.1132 60.8364C50.1132 60.8364 45.1481 63.7328 46.4493 64.4733C47.7505 65.2138 50.1132 60.8364 50.1132 60.8364Z" fill="#C8A597"/>
<path d="M154.031 118.538C154.031 118.538 147.559 116.563 137.755 113.918C126.912 113.012 112.005 104.066 107.97 103.275C107.97 103.275 100.66 100.096 99.6552 99.109C98.6508 98.1217 97.6749 95.0238 98.9589 92.8679C99.9291 91.261 105.659 98.0209 107.24 97.7187C108.821 97.4165 106.058 92.9333 107.091 92.5656C108.969 91.8906 111.463 99.7235 112.644 100.197C121.467 103.436 127.699 101.602 139.467 106.307C145.419 108.785 160.668 109.531 162.826 110.397C169.235 111.46 174.274 114.896 173.127 119.752C172.813 121.086 169.663 123.041 167.865 123.121C161.41 123.434 154.031 118.538 154.031 118.538Z" fill="#F0C7B5"/>
<path d="M197.547 139.352C197.547 139.352 193.775 140.359 191.144 136.329C192.782 137.11 195.07 137.271 197.547 135.825C194.46 134.41 194.351 132.083 194.351 132.083C194.351 132.083 196.634 131.75 196.525 130.028C196.291 125.716 190.533 128.451 186.561 123.147C187.748 123.328 191.869 123.363 192.057 121.877C192.245 120.391 190.299 120.265 183.93 121.338C188.205 117.309 194.808 117.812 194.808 117.812C194.808 117.812 190.071 116.195 190.151 113.062C191.823 114.412 193.13 113.868 193.13 113.868C192.804 112.772 192.549 111.66 192.365 110.539C197.473 115.072 213.584 110.539 214.622 121.852C221.642 131.085 209.012 138.525 209.012 138.525L209.583 136.808C209.583 136.808 205.234 140.782 196.645 140.646C197.73 139.991 197.547 139.352 197.547 139.352Z" fill="#F6851F"/>
<path d="M201.999 135.009C205.368 134.217 208.381 132.533 210.633 130.183C212.885 127.833 214.267 124.931 214.594 121.867C213.601 124.692 211.974 127.311 209.81 129.569C207.646 131.826 204.99 133.677 201.999 135.009Z" fill="#BA6328"/>
<path d="M228.028 40.8786C239.442 44.1931 227.914 58.2571 227.914 58.2571C227.914 58.2571 222.966 71.4798 218.109 78.4715C212.556 76.0183 210.947 73.1622 210.947 73.1622L218.583 50.1622C218.583 50.1622 220.375 38.6522 228.028 40.8786Z" fill="#D2D3D4"/>
<path d="M175.238 92.0669C175.238 92.0669 166.718 95.3864 170.365 99.1895C172.739 101.668 181.413 97.7791 182.275 97.9806C188.553 97.7791 189.42 95.8095 189.42 95.8095L182.001 93.5327L175.238 92.0669Z" fill="#C8A597"/>
<path d="M211.175 73.5049C212.788 73.5417 214.341 74.0491 215.593 74.9477C216.844 75.8462 217.723 77.0854 218.092 78.4716C211.244 84.1183 197.022 92.5758 189.768 95.5982C187.908 96.9028 182.749 96.7164 181.778 96.8776C178.252 98.6356 171.46 99.3458 171.089 98.424C170.119 95.981 173.446 91.7094 177.458 91.5381C180.882 91.4021 186.823 91.1201 186.823 91.1201C197.085 84.2896 199.539 79.9122 211.175 73.5049Z" fill="#F0C7B5"/>
<path d="M158.368 86.6118C158.368 86.6118 154.374 89.0801 154.311 92.7623C154.248 96.4445 156.594 99.361 158.397 98.8875C161.433 98.0816 162.232 92.6212 163.722 92.6716C164.692 92.7472 163.881 96.6409 165.434 96.7618C166.986 96.8827 167.871 91.0647 167.871 91.0647L161.878 90.1983L158.368 86.6118Z" fill="#C8A597"/>
<path d="M173.96 56.4538C178.081 54.7663 181.282 61.4356 181.282 61.4356C177.778 68.9915 170.154 78.3708 168.27 82.5516C168.27 82.5516 168.362 87.0297 167.774 89.5584C166.221 91.6992 166.102 95.0591 165.674 94.9533C164.532 94.6662 165.497 89.9816 164.829 89.8153C163.003 89.6995 159.527 98.4592 157.821 97.6432C156.114 96.8271 154.636 90.2485 156.976 88.012C158.986 86.0376 160.872 83.9675 162.626 81.8112C167.106 72.2858 165.674 67.6364 173.96 56.4538Z" fill="#F0C7B5"/>
</g>
<defs>
<clipPath id="clip0_242_4868">
<rect width="260.877" height="244.648" fill="white" transform="translate(0.742188 0.505371)"/>
</clipPath>
</defs>
</svg>
