<svg width="726" height="507" viewBox="0 0 726 507" fill="none" xmlns="http://www.w3.org/2000/svg">
<path d="M216.403 -25.3856C248.096 45.0176 275.438 117.104 286.415 158.537C314.536 266.036 294.221 322.749 201.201 396.43C165.577 424.578 97.5454 468.797 25.1592 510.836C11.1089 519.059 -0.211863 526.25 0.11312 526.893C0.438103 527.535 13.0761 522.092 28.2897 514.884C43.3322 507.766 71.9583 494.503 91.9464 485.591C199.057 438.064 256.47 420.002 307.112 418.129C382.993 415.159 433.302 453.357 509.427 571.772C527.782 600.359 566.607 665.576 574.244 680.682C584.725 701.412 581.866 688.468 570.227 662.446C554.705 627.887 532.408 573.495 521.604 543.979C458.776 372.551 481.788 308.31 644.661 200.441C684.305 174.244 755.797 130.438 780.098 117.623C786.43 114.284 791.239 110.934 790.914 110.292C790.508 109.488 777.789 114.77 762.746 121.889C642.137 179.586 557.36 211.264 504.236 218.517C400.699 232.813 344.156 185.284 230.013 -12.6152C218.09 -33.1956 207.622 -50.4718 206.612 -50.7537C205.603 -51.0355 210.019 -39.7273 216.403 -25.3856Z" fill="white" fill-opacity="0.1"/>
</svg>
