<svg width="427" height="28" viewBox="0 0 427 28" fill="none" xmlns="http://www.w3.org/2000/svg">
<mask id="mask0_402_2982" style="mask-type:luminance" maskUnits="userSpaceOnUse" x="0" y="0" width="427" height="28">
<path d="M0 0H426.667V27.9844H0V0Z" fill="white"/>
</mask>
<g mask="url(#mask0_402_2982)">
<path d="M0.583252 12.1567C10.1926 13.813 27.8489 14.0161 43.3385 13.589C58.828 13.1671 72.1718 12.6203 83.3853 12.1776C94.5989 11.7348 103.677 11.3963 115.375 11.0109C127.073 10.6203 141.88 10.1619 155.276 9.76089C168.672 9.35985 180.661 9.03693 191.245 8.77652C201.823 8.5161 211 8.32339 226.266 8.07339C241.531 7.82339 263.292 7.55777 284.255 7.46922C305.219 7.38068 325.391 7.44839 344.766 7.68797C364.135 7.92756 382.713 8.3286 395.151 8.69318C407.588 9.06297 413.234 9.29214 417.083 9.52131C420.937 9.75568 422.875 9.97443 422.974 6.63589C423.073 3.29735 422.49 3.38068 420.615 3.55256C418.74 3.72443 417.286 3.81818 415.948 3.8911C414.609 3.96922 413.391 4.03172 412.292 4.07339C411.193 4.12027 410.213 4.14631 404.338 4.22443C398.463 4.30777 388.349 4.44839 379.333 4.59943C370.318 4.75047 362.411 4.90672 355.609 5.06818C348.807 5.22964 343.109 5.39631 338.786 5.54214C334.469 5.69318 330.646 5.84943 326.625 6.04214C322.604 6.23485 318.385 6.46402 313.963 6.73485C309.547 7.00047 304.927 7.30256 295.797 8.02131C286.667 8.73485 273.969 9.87027 262.437 11.0578C250.901 12.2453 240.536 13.4796 231.328 14.7713C222.125 16.063 214.073 17.4015 208.807 19.8859C203.542 22.3703 205.338 26.1984 207.052 26.7661C208.76 27.3338 210.667 27.563 213.193 27.7036C215.719 27.839 218.932 27.9119 221.755 27.9276C224.578 27.9484 226.562 27.9588 228.552 27.964C230.536 27.9744 232.526 27.9744 234.516 27.9692C236.505 27.9588 238.49 27.9484 244.365 27.8703C250.234 27.7921 259.953 27.6619 269.667 27.5526C279.38 27.438 289.088 27.3494 298.786 27.2453C308.484 27.1411 318.177 26.9744 325.625 26.7921C333.073 26.6098 337.885 26.4276 342.104 26.1828C346.323 25.9432 349.953 25.6203 353.005 25.1619C356.052 24.7088 358.526 24.1151 360.083 23.9848C361.641 23.8598 361.641 23.8598 360.604 23.8078C360.604 23.8078 358.557 23.2869 355.917 22.5786C353.271 21.8703 350.021 21.3442 346.172 20.9796C342.328 20.6151 337.896 20.3651 332.87 20.2088C327.844 20.0526 318.146 19.9171 308.443 19.8859C298.734 19.8546 289.026 19.9119 279.302 20.0109C269.583 20.1046 259.859 20.2244 250.13 20.3598C240.401 20.5005 238.443 20.5109 236.469 20.5213C234.495 20.5317 232.521 20.5369 230.547 20.5317C228.573 20.5317 226.599 20.5213 224.625 20.5109C222.651 20.4953 219.036 20.4744 216.208 20.3859C213.38 20.3026 211.349 20.1567 210.255 19.9953C209.156 19.839 209.562 20.0682 208.969 23.0578C208.38 26.0526 215.38 24.7244 223.682 23.4223C231.979 22.1203 241.469 20.8598 252.141 19.6515C262.812 18.438 274.667 17.2765 287.698 16.1619C300.729 15.0473 305.427 14.7244 309.953 14.4328C314.479 14.1463 318.807 13.8911 322.927 13.6776C327.047 13.4588 330.969 13.2817 334.693 13.1411C338.411 12.9953 343.344 12.8286 349.38 12.6619C355.417 12.5005 362.568 12.3442 370.828 12.188C379.088 12.0369 388.458 11.8859 398.937 11.7453C409.422 11.5994 410.396 11.5838 411.474 11.5473C412.552 11.5109 413.74 11.4588 415.036 11.3911C416.333 11.3234 417.745 11.2401 419.307 11.1359C420.87 11.0317 423.521 10.7453 424.932 7.04214C426.344 3.33381 424.021 2.62547 421.083 2.35985C418.141 2.09943 413.573 1.85985 407.286 1.63068C400.995 1.40152 382.901 0.891098 364.01 0.552557C345.12 0.214016 325.437 0.0369318 304.958 0.0317238C284.484 0.0213065 263.219 0.182765 241.167 0.505682C219.109 0.833808 210.854 0.97964 201.193 1.19318C191.531 1.40672 180.463 1.69839 167.995 2.05777C155.521 2.41714 141.646 2.84943 126.37 3.34943C111.088 3.85464 103.411 4.13589 93.6093 4.5161C83.8072 4.89631 71.8749 5.3911 57.8124 6.04214C43.7551 6.69839 27.5728 7.75047 18.8333 9.65672C0.572837 11.9848 10.0989 11.7401 0.583252 12.1567Z" fill="#FE0000"/>
</g>
</svg>
