<svg width="1440" height="745" viewBox="0 0 1440 745" fill="none" xmlns="http://www.w3.org/2000/svg">
<g clip-path="url(#clip0_556_3587)">
<g filter="url(#filter0_f_556_3587)">
<circle cx="190.775" cy="-446.413" r="246.587" fill="#FF2E2E"/>
</g>
<g filter="url(#filter1_f_556_3587)">
<circle cx="1409.23" cy="-446.413" r="246.587" fill="#5C1313"/>
</g>
<path d="M278.038 691.328C232.51 804.713 103.686 859.722 -9.69874 814.194C-123.084 768.666 -178.093 639.842 -132.565 526.458C-87.0373 413.073 41.7866 358.064 155.171 403.591C268.556 449.119 323.565 577.943 278.038 691.328ZM-86.2779 545.043C-121.541 632.864 -78.9341 732.644 8.88703 767.907C96.7081 803.17 196.488 760.563 231.751 672.742C267.014 584.921 224.407 485.141 136.586 449.878C48.7645 414.615 -51.0149 457.222 -86.2779 545.043Z" fill="url(#paint0_linear_556_3587)" fill-opacity="0.5"/>
<path d="M1552.04 747.328C1506.51 860.713 1377.69 915.722 1264.3 870.194C1150.92 824.666 1095.91 695.842 1141.44 582.458C1186.96 469.073 1315.79 414.064 1429.17 459.591C1542.56 505.119 1597.57 633.943 1552.04 747.328ZM1187.72 601.043C1152.46 688.864 1195.07 788.644 1282.89 823.907C1370.71 859.17 1470.49 816.563 1505.75 728.742C1541.01 640.921 1498.41 541.141 1410.59 505.878C1322.76 470.615 1222.99 513.222 1187.72 601.043Z" fill="url(#paint1_linear_556_3587)" fill-opacity="0.5"/>
</g>
<defs>
<filter id="filter0_f_556_3587" x="-835.812" y="-1473" width="2053.17" height="2053.18" filterUnits="userSpaceOnUse" color-interpolation-filters="sRGB">
<feFlood flood-opacity="0" result="BackgroundImageFix"/>
<feBlend mode="normal" in="SourceGraphic" in2="BackgroundImageFix" result="shape"/>
<feGaussianBlur stdDeviation="390" result="effect1_foregroundBlur_556_3587"/>
</filter>
<filter id="filter1_f_556_3587" x="382.642" y="-1473" width="2053.17" height="2053.18" filterUnits="userSpaceOnUse" color-interpolation-filters="sRGB">
<feFlood flood-opacity="0" result="BackgroundImageFix"/>
<feBlend mode="normal" in="SourceGraphic" in2="BackgroundImageFix" result="shape"/>
<feGaussianBlur stdDeviation="390" result="effect1_foregroundBlur_556_3587"/>
</filter>
<linearGradient id="paint0_linear_556_3587" x1="155.171" y1="403.591" x2="-9.69874" y2="814.194" gradientUnits="userSpaceOnUse">
<stop stop-color="#FEBFBF"/>
<stop offset="1" stop-color="white" stop-opacity="0.09"/>
</linearGradient>
<linearGradient id="paint1_linear_556_3587" x1="1429.17" y1="459.591" x2="1264.3" y2="870.194" gradientUnits="userSpaceOnUse">
<stop stop-color="#FEBFBF"/>
<stop offset="1" stop-color="white" stop-opacity="0.09"/>
</linearGradient>
<clipPath id="clip0_556_3587">
<rect width="1440" height="745" fill="white"/>
</clipPath>
</defs>
</svg>
