<svg width="1410" height="507" viewBox="0 0 1410 507" fill="none" xmlns="http://www.w3.org/2000/svg">
<g clip-path="url(#clip0_534_7617)">
<rect width="1410" height="507" rx="60" fill="#D63F5F" fill-opacity="0.9"/>
<path d="M900.403 -25.3895C932.096 45.0137 959.438 117.1 970.415 158.534C998.536 266.032 978.221 322.745 885.201 396.426C849.577 424.574 781.545 468.794 709.159 510.832C695.109 519.055 683.788 526.246 684.113 526.889C684.438 527.531 697.076 522.088 712.29 514.88C727.332 507.762 755.958 494.499 775.946 485.587C883.057 438.061 940.47 419.998 991.112 418.125C1066.99 415.155 1117.3 453.353 1193.43 571.768C1211.78 600.355 1250.61 665.572 1258.24 680.678C1268.72 701.408 1265.87 688.464 1254.23 662.442C1238.71 627.884 1216.41 573.491 1205.6 543.976C1142.78 372.547 1165.79 308.306 1328.66 200.437C1368.3 174.24 1439.8 130.434 1464.1 117.62C1470.43 114.281 1475.24 110.93 1474.91 110.288C1474.51 109.484 1461.79 114.767 1446.75 121.885C1326.14 179.582 1241.36 211.261 1188.24 218.513C1084.7 232.809 1028.16 185.28 914.013 -12.6191C902.09 -33.1995 891.622 -50.4758 890.612 -50.7576C889.603 -51.0394 894.019 -39.7312 900.403 -25.3895Z" fill="white" fill-opacity="0.1"/>
</g>
<defs>
<clipPath id="clip0_534_7617">
<rect width="1410" height="507" rx="60" fill="white"/>
</clipPath>
</defs>
</svg>
