<svg width="1440" height="765" viewBox="0 0 1440 765" fill="none" xmlns="http://www.w3.org/2000/svg">
<g clip-path="url(#clip0_736_2972)">
<path d="M420.345 915.191C374.818 1028.58 245.994 1083.58 132.609 1038.06C19.2241 992.53 -35.785 863.706 9.74265 750.321C55.2703 636.936 184.094 581.927 297.479 627.455C410.864 672.982 465.873 801.806 420.345 915.191ZM56.0298 768.907C20.7668 856.728 63.3735 956.507 151.195 991.77C239.016 1027.03 338.795 984.426 374.058 896.605C409.321 808.784 366.714 709.005 278.893 673.742C191.072 638.479 91.2928 681.085 56.0298 768.907Z" fill="url(#paint0_linear_736_2972)" fill-opacity="0.5"/>
<g filter="url(#filter0_f_736_2972)">
<circle cx="99.7747" cy="33.4329" r="246.587" fill="#FF2E2E"/>
</g>
<g filter="url(#filter1_f_736_2972)">
<circle cx="1318.23" cy="33.4329" r="246.587" fill="#5C1313"/>
</g>
<g filter="url(#filter2_f_736_2972)">
<path d="M1029.59 623.913C1029.59 760.1 919.187 870.5 783 870.5C646.814 870.5 536.413 760.1 536.413 623.913C536.413 487.727 646.814 377.326 783 377.326C919.187 377.326 1029.59 487.727 1029.59 623.913Z" fill="#FBC7C7"/>
</g>
</g>
<defs>
<filter id="filter0_f_736_2972" x="-926.812" y="-993.154" width="2053.17" height="2053.17" filterUnits="userSpaceOnUse" color-interpolation-filters="sRGB">
<feFlood flood-opacity="0" result="BackgroundImageFix"/>
<feBlend mode="normal" in="SourceGraphic" in2="BackgroundImageFix" result="shape"/>
<feGaussianBlur stdDeviation="390" result="effect1_foregroundBlur_736_2972"/>
</filter>
<filter id="filter1_f_736_2972" x="291.643" y="-993.154" width="2053.17" height="2053.17" filterUnits="userSpaceOnUse" color-interpolation-filters="sRGB">
<feFlood flood-opacity="0" result="BackgroundImageFix"/>
<feBlend mode="normal" in="SourceGraphic" in2="BackgroundImageFix" result="shape"/>
<feGaussianBlur stdDeviation="390" result="effect1_foregroundBlur_736_2972"/>
</filter>
<filter id="filter2_f_736_2972" x="-243.587" y="-402.674" width="2053.17" height="2053.17" filterUnits="userSpaceOnUse" color-interpolation-filters="sRGB">
<feFlood flood-opacity="0" result="BackgroundImageFix"/>
<feBlend mode="normal" in="SourceGraphic" in2="BackgroundImageFix" result="shape"/>
<feGaussianBlur stdDeviation="390" result="effect1_foregroundBlur_736_2972"/>
</filter>
<linearGradient id="paint0_linear_736_2972" x1="297.479" y1="627.455" x2="132.609" y2="1038.06" gradientUnits="userSpaceOnUse">
<stop stop-color="#FEBFBF"/>
<stop offset="1" stop-color="white" stop-opacity="0.09"/>
</linearGradient>
<clipPath id="clip0_736_2972">
<rect width="1440" height="765" fill="white"/>
</clipPath>
</defs>
</svg>
